<?xml version="1.0" encoding="utf-8"?>
<!-- Generator: Adobe Illustrator 18.0.0, SVG Export Plug-In . SVG Version: 6.00 Build 0)  -->
<!DOCTYPE svg PUBLIC "-//W3C//DTD SVG 1.1//EN" "http://www.w3.org/Graphics/SVG/1.1/DTD/svg11.dtd">
<svg version="1.1" id="Layer_1" xmlns="http://www.w3.org/2000/svg" xmlns:xlink="http://www.w3.org/1999/xlink" x="0px" y="0px"
	 viewBox="0 0 400 400" enable-background="new 0 0 400 400" xml:space="preserve">
<circle fill="#FFFFFF" cx="200" cy="200" r="190.4"/>
<circle fill="#D1D4D5" cx="200" cy="200" r="181.3"/>
<g>
	<defs>
		<circle id="SVGID_1_" cx="200" cy="200" r="181.3"/>
	</defs>
	<clipPath id="SVGID_2_">
		<use xlink:href="#SVGID_1_"  overflow="visible"/>
	</clipPath>
	<g clip-path="url(#SVGID_2_)">
		<path fill="#DFBA98" d="M133.9,330.5l-11.8-1.3l-19.2-2.2l-7.5-0.8c-0.7,10.7-1,22.3-1,34.9c0,0-0.2,2.3-0.5,6.1
			c9.6,3.9,19.5,7.4,29.7,10.2l0.1-0.7c0,0,7.2-11.6,12.8-28.5l1.1-8l1.2-9.1L133.9,330.5z"/>
		<path fill="#DFBA98" d="M201.7,186.5c-14.8-0.1-23.5-10.6-26-14c0,0.1,0,0.2-0.1,0.3c-0.3,1.9-0.6,3.7-1,5.5
			c-1.8,8.3-4.3,14.5-7.8,17.2l0,0c0,0,0.9,2.7,3,6.4c3.4,6.2,10.1,15.3,21.3,19c3.2,1.1,6.7,1.7,10.6,1.7v-19.6L201.7,186.5
			C201.7,186.5,201.7,186.5,201.7,186.5z"/>
		<path fill="#DFBA98" d="M201.9,222.7V203c0,0-0.1,0-0.2,0v19.6C201.8,222.6,201.9,222.7,201.9,222.7z"/>
		<path fill="#EECFAB" d="M263.8,343.6c0.1-0.2,0.2-0.5,0.3-0.7c-0.4-1.2-0.7-2.5-1.1-3.8L263.8,343.6z"/>
		<path fill="#EECFAB" d="M228.9,176.9c-0.3-1.3-0.5-2.7-0.7-4.1v-0.1c0-0.1,0-0.3-0.1-0.4c-2.4,3.8-10.4,14.2-26.2,14.2
			c0,0-0.1,0-0.1,0v16.6c0,0,0.1,0,0.2,0v19.6c0,0,0,0,0,0c3,0,5.8-0.4,8.4-1c10-2.5,16.8-9.3,21-15.3c1.1-1.5,2-3,2.7-4.4
			c2.1-3.7,3-6.5,3-6.5l0,0C233.3,192.6,230.7,185.8,228.9,176.9z"/>
		<path opacity="0.7" fill="#BD967F" d="M175.8,170.3c-0.1,0.6-0.2,1.3-0.3,1.9c0,0.1,0.1,0.1,0.2,0.2c0.1-0.7,0.2-1.4,0.3-2.1
			C176,170.4,175.9,170.3,175.8,170.3z"/>
		<path opacity="0.7" fill="#BD967F" d="M228.1,172.3C228.1,172.2,228.1,172.2,228.1,172.3l0-0.1c-0.1-0.9-0.3-1.8-0.4-2.7
			c0,0,0,0-0.1,0C227.8,170.4,227.9,171.3,228.1,172.3z"/>
		<path fill="#DFBA98" d="M201.7,186.5C201.7,186.5,201.7,186.5,201.7,186.5l0.1-12.8c0,0-0.1,0-0.1,0c-0.2,0-0.4,0-0.6,0
			c-0.1,0-0.2,0-0.3,0c-0.1,0-0.2,0-0.3,0c-0.1,0-0.2,0-0.2,0c-0.1,0-0.2,0-0.2,0c-7.7,0-15.8-1.2-23.9-3.4
			c-0.1,0.7-0.2,1.4-0.3,2.1C178.2,175.9,186.9,186.4,201.7,186.5z"/>
		<path fill="#EECFAB" d="M208.4,173.3c-0.2,0-0.3,0-0.5,0.1c-0.7,0.1-1.5,0.1-2.2,0.2c-0.3,0-0.7,0-1,0.1c-1,0.1-2,0.1-2.9,0.1
			v12.8c0,0,0,0,0.1,0c15.8,0,23.8-10.4,26.2-14.2c-0.1-0.9-0.3-1.9-0.4-2.8C221.2,171.4,214.7,172.7,208.4,173.3z"/>
		<path opacity="0.7" fill="#BD967F" d="M227.7,169.4c-6.5,2-13,3.3-19.3,3.9c-0.2,0-0.3,0-0.5,0.1c-0.7,0.1-1.5,0.1-2.2,0.2
			c-0.3,0-0.7,0-1,0.1c-1,0.1-2,0.1-2.9,0.1c0,0-0.1,0-0.1,0c-0.2,0-0.4,0-0.6,0c-0.1,0-0.2,0-0.3,0c-0.1,0-0.2,0-0.3,0
			c-0.1,0-0.2,0-0.2,0c-0.1,0-0.2,0-0.2,0c-7.7,0-15.8-1.2-23.9-3.4c-0.1,0.7-0.2,1.4-0.3,2.1c2.5,3.4,11.2,14,26,14c0,0,0,0,0.1,0
			c0,0,0,0,0.1,0c15.8,0,23.8-10.4,26.2-14.2C227.9,171.3,227.8,170.4,227.7,169.4z"/>
		<path fill="#D1A586" d="M176.2,169.4c-0.1,0-0.1,0-0.2-0.1c-0.1,0.3-0.1,0.7-0.2,1c0.1,0,0.1,0,0.2,0
			C176.1,170,176.1,169.7,176.2,169.4z"/>
		<path fill="#D1A586" d="M176.2,169.4c0,0.3-0.1,0.7-0.2,1c8.1,2.2,16.3,3.4,23.9,3.4c0.1,0,0.2,0,0.2,0c-0.1,0-0.2,0-0.3,0
			C192.6,173.6,184.4,172.1,176.2,169.4z"/>
		<path fill="#DCB598" d="M227.6,169.1c0,0.1,0,0.2,0,0.3c0,0,0,0,0.1,0C227.7,169.3,227.7,169.2,227.6,169.1
			C227.7,169.1,227.6,169.1,227.6,169.1z"/>
		<path fill="#DCB598" d="M201.6,173.7c0,0,0.1,0,0.1,0v0C201.7,173.7,201.7,173.7,201.6,173.7z"/>
		<path fill="#DCB598" d="M200.2,173.7c0.1,0,0.2,0,0.2,0c0.1,0,0.2,0,0.3,0c-0.1,0-0.3,0-0.4,0
			C200.3,173.7,200.2,173.7,200.2,173.7z"/>
		<path fill="#DCB598" d="M201.8,173.7C201.8,173.7,201.8,173.7,201.8,173.7L201.8,173.7c0.9,0,1.9,0,2.9-0.1
			C203.7,173.7,202.8,173.7,201.8,173.7z"/>
		<path fill="#DCB598" d="M207.9,173.4c-0.7,0.1-1.5,0.1-2.2,0.2C206.4,173.5,207.2,173.5,207.9,173.4z"/>
		<path fill="#DCB598" d="M227.7,169.4c0-0.1,0-0.2,0-0.3c-6.4,2.2-12.9,3.6-19.2,4.3C214.7,172.7,221.2,171.4,227.7,169.4z"/>
		<path fill="#DCB598" d="M199.8,173.7c0.1,0,0.2,0,0.3,0c0,0,0.1,0,0.1,0C200.2,173.7,200,173.7,199.8,173.7z"/>
		<path fill="#DFBC99" d="M201.1,173.7c0.2,0,0.4,0,0.6,0c-0.3,0-0.6,0-0.9,0C200.8,173.7,201,173.7,201.1,173.7z"/>
		<path fill="#DFBC99" d="M177.6,156.3c0-0.2,0-0.4,0-0.6c0,0-0.1,0-0.2,0c-0.2,2.2-0.4,4.3-0.6,6.5c-0.2,2.5-0.5,4.8-0.9,7.2
			c0.1,0,0.1,0,0.2,0.1c0.3-2.2,0.6-4.4,0.8-6.6C177.2,160.6,177.4,158.5,177.6,156.3z"/>
		<path fill="#DFBC99" d="M201.8,158.8v14.9c0,0,0,0,0.1,0L201.8,158.8C201.8,158.8,201.8,158.8,201.8,158.8z"/>
		<path fill="#EFCFAB" d="M208.4,173.3c-0.2,0-0.3,0-0.5,0.1C208.1,173.4,208.2,173.4,208.4,173.3z"/>
		<path fill="#EFCFAB" d="M205.7,173.6c-0.3,0-0.7,0-1,0.1C205,173.6,205.3,173.6,205.7,173.6z"/>
		<path fill="#EFCFAB" d="M226.2,155.4C226.2,155.4,226.2,155.4,226.2,155.4c0,0.2,0,0.4,0,0.6c0.2,2.1,0.4,4.3,0.6,6.3
			c0.3,2.3,0.5,4.6,0.8,6.8c0,0,0,0,0.1,0c-0.3-2.4-0.6-4.8-0.9-7.3C226.6,159.7,226.4,157.5,226.2,155.4z"/>
		<path fill="#EECFAB" d="M307.7,360.3c0.1-14-0.4-26.8-1.2-38.5l-14.5,1.6l-19.2,2.1l-2.6,0.3l-8,0.9l-1.1,0.1l1.1,6.8l0.9,5.4
			c0.3,1.3,0.7,2.6,1.1,3.8c5,16.6,11.9,29,13.8,32.2c10.3-3.2,20.3-7,30-11.4C307.8,361.5,307.7,360.3,307.7,360.3z"/>
		<path fill="#FCDB0D" d="M237.1,195.5c0,0,0.1,0,0.2,0C237.3,195.5,237.2,195.5,237.1,195.5z"/>
		<path fill="#FCDB0D" d="M237.7,195.4c0.1,0,0.3,0,0.4,0C237.9,195.4,237.8,195.4,237.7,195.4z"/>
		<path fill="#FCDB0D" d="M240.2,195.5c0.3,0,0.6,0.1,1,0.1C240.9,195.6,240.5,195.6,240.2,195.5z"/>
		<path fill="#FCDB0D" d="M238.5,195.5c0.4,0,0.8,0,1.2,0.1C239.3,195.5,238.9,195.5,238.5,195.5z"/>
		<path fill="#FCDB0D" d="M263.1,339l-0.9-5.4c0.1,1.7,0.2,3,0.5,4C262.9,338.1,263,338.6,263.1,339z"/>
		<g>
			<path fill="#1512A0" d="M244.3,196.1c0.1,0,0.2,0,0.3,0c0,0,0,0,0,0C244.5,196.1,244.4,196.1,244.3,196.1z"/>
			<path fill="#1512A0" d="M292,233.6c-6.2-10.3-12.8-17.9-19.2-23.3c-8.2-7-16.1-10.7-22.4-12.7c-2.2-0.7-4.1-1.1-5.9-1.4
				c-0.1,0.3-0.3,0.8-0.6,1.4c-0.5,1.3-1.3,3.1-2.5,5.2c-1,1.8-2.2,3.9-3.7,6c-5.1,7.3-13.2,15.5-25.4,18.5
				c-3.1,0.8-6.5,1.2-10.1,1.2c-0.1,0-0.3,0-0.4,0l-0.2,0c-4.6-0.1-8.8-0.8-12.5-2.1c-14-4.7-22.2-16.4-26.2-23.9
				c-1.1-2.1-1.9-3.9-2.4-5.1c-0.2-0.5-0.4-0.9-0.5-1.2c1.8-0.3,3.6-0.5,5.4-0.6c-6.9,0.5-13.3,2.1-19.2,4.7
				c-9.3,4.1-17.4,10.5-24.3,18.4c-7.8,8.8-14.1,19.4-19.2,30.4c-16.5,35.5-20.7,75.6-20.7,75.6l13.3,1.5l7.5,0.8l19.2,2.2l11.8,1.3
				l5,0.6l-1.2,9.1l-1.1,8l-4.2,31.5c3.1,0.8,6.2,1.5,9.4,2.1c17.8,3.7,36.2,5.6,55.1,5.6c1.7,0,3.4,0,5-0.1
				c20.5-0.4,40.4-3,59.5-7.7c2.7-0.7,5.4-1.3,8-2.1l-5.5-34l-0.7-4.5c-0.1-0.5-0.3-0.9-0.4-1.4c-0.3-1-0.4-2.4-0.5-4l-1.1-6.8
				l1.1-0.1l8-0.9l2.6-0.3l19.2-2.1l14.5-1.6l11.3-1.3C312.9,279.7,303.1,252.1,292,233.6z"/>
		</g>
		<path fill="#1B75B9" d="M237.3,195.5c0.1,0,0.2,0,0.3,0C237.5,195.4,237.4,195.4,237.3,195.5z"/>
		<path fill="#1B75B9" d="M238.1,195.4c0.1,0,0.3,0,0.4,0C238.4,195.5,238.2,195.4,238.1,195.4z"/>
		<path fill="#1B75B9" d="M241.2,195.6c0.2,0,0.4,0,0.6,0.1C241.6,195.7,241.4,195.6,241.2,195.6z"/>
		<path fill="#1B75B9" d="M239.7,195.5c0.2,0,0.3,0,0.5,0C240.1,195.5,239.9,195.5,239.7,195.5z"/>
		<path fill="#1B75B9" d="M237.1,195.5c-0.1,0-0.2,0-0.2,0l0,0C237,195.5,237.1,195.5,237.1,195.5z"/>
		<polygon fill="#1B75B9" points="237,195.5 237,195.5 237,195.5 		"/>
		<path fill="#1B75B9" d="M201.9,222.7c-0.1,0-0.1,0-0.2,0v5.8c0.1,0,0.1,0,0.2,0V222.7z"/>
		<g>
			<path fill="#1F2651" d="M241.8,195.7c-0.2,0-0.4,0-0.6-0.1c-0.3,0-0.7-0.1-1-0.1c-0.2,0-0.3,0-0.5,0c-0.5,0-0.9,0-1.2-0.1
				c-0.1,0-0.3,0-0.4,0c-0.2,0-0.3,0-0.4,0c-0.1,0-0.2,0-0.3,0c-0.1,0-0.2,0-0.2,0c-0.1,0-0.2,0-0.2,0l0,0c0,0-0.9,2.7-3,6.5
				c-0.8,1.4-1.7,2.8-2.7,4.4c-4.2,6-10.9,12.8-21,15.3c-2.6,0.6-5.4,1-8.4,1c0,0,0,0,0,0l0,5.8c0.1,0,0.3,0,0.4,0
				c3.7,0,7-0.4,10.1-1.2c12.2-3,20.3-11.2,25.4-18.5c1.5-2.1,2.7-4.2,3.7-6c1.2-2.1,2-3.9,2.5-5.2c0.2-0.6,0.4-1.1,0.6-1.4
				C243.5,195.9,242.6,195.8,241.8,195.7z"/>
			<path fill="#1F2651" d="M169.8,201.9c-2.1-3.7-3-6.4-3-6.4l0,0c-0.4,0-0.9,0-1.3,0.1c-1.9,0.1-3.7,0.4-5.4,0.6
				c0.1,0.3,0.3,0.7,0.5,1.2c0.5,1.2,1.3,3,2.4,5.1c4,7.5,12.2,19.2,26.2,23.9c3.7,1.3,7.9,2,12.5,2.1v-5.8c-3.9,0-7.5-0.7-10.6-1.7
				C180,217.2,173.3,208.1,169.8,201.9z"/>
		</g>
		<g>
			<path fill="#D1A586" d="M151.2,147.8c-1-5.5-1.8-20.5-3.2-26.1c-3.5-13.4-4.7-30.7,0.1-45.6c-3.7,2.3-6.3,8.6-7.4,12
				c-4.8,14.9,2.3,42.3,2.3,42.3h-3.3c0,0-0.7-3.4-2.1-7.9c-0.6,1-1.8,1.5-1.4,3.6c0.5,2.8,1.8,3,2.5,3.7c0.7,0.6,1.7,1.1,2.1,2.3
				c0.4,1.2,0.5,2.5,0.3,3.6c-0.5,2.1-3.4,0.4-5.4-0.5c-1.3-0.6-2.6-4.1-3.7-5.3c-2.7-3-3.9-8.7-1.8-12.1c2.5-3.9,6.8,5.6,8.7,6.5
				c-0.5-1.3-0.5-9.6-1-10.8c-7.8-6.4-12.5,0.7-11.8,9.8c1,12.4,16.3,18.9,16,17.4c4.1,22.5,23.4,37.4,42.8,42.7
				c0-0.2,0.1-0.4,0.1-0.6C169.9,177.8,154.4,165.9,151.2,147.8z"/>
			<path fill="#D1A586" d="M168.6,50c-1.2,0.5-2.6,1.6-4.1,3.1c1.9-1.4,4-2.6,6.2-3.6C170.1,49.5,169.4,49.6,168.6,50z"/>
			<path fill="#BD967F" d="M130.2,117.8c-2.1,3.3-0.8,9.1,1.8,12.1c1,1.2,2.4,4.7,3.7,5.3c2,0.9,5,2.5,5.4,0.5
				c0.3-1.1,0.2-2.4-0.3-3.6c-0.5-1.2-1.4-1.7-2.1-2.3c-0.7-0.6-2.1-0.8-2.5-3.7c-0.4-2.1,0.8-2.5,1.4-3.6c-0.6-2.2,1.8-5.4-2.3-7.2
				C133.3,114.4,132.6,113.9,130.2,117.8z"/>
			<path fill="#DCB598" d="M254.9,130.5c0,0,7.1-27.4,2.3-42.3c-0.2-0.5-0.8-1.4-1.7-2.6c2,12.4,0.7,25.5-2.1,36.2
				c-1.5,5.6-2.2,20.6-3.2,26.1c-3.1,17.2-17.4,29.5-32.9,34.8c0,0.1,0,0.1,0,0.2c18.6-5.8,36.8-20.5,40.7-42.2
				c-0.3,1.5,15-5,16-17.4c0.9-11-7.6-13.8-13.1-9.6c-3.2,8.3-4.7,16.8-4.7,16.8H254.9z M259.6,132.1c0.5-1.2,1.4-1.7,2.1-2.3
				c0.8-0.6,2.1-0.8,2.5-3.7c0.4-2.5-1.3-2.7-1.8-4.3c-0.8-3,0.2-4.5,1.5-5.7c1.2-1.1,3.2-3.2,6.3,1.7c2.1,3.3,0.9,9.1-1.8,12.1
				c-1.1,1.2-2.4,4.7-3.7,5.3c-2,0.9-5,2.5-5.4,0.5C259,134.6,259.1,133.3,259.6,132.1z"/>
			<path fill="#BD967F" d="M264.7,135.2c1.3-0.6,2.6-4.1,3.7-5.3c2.7-3,3.9-8.7,1.8-12.1c-3.1-5-5.1-2.8-6.3-1.7
				c-1.3,1.2-2.2,2.8-1.5,5.7c0.4,1.7,2.2,1.8,1.8,4.3c-0.5,2.8-1.8,3-2.5,3.7c-0.7,0.6-1.7,1.1-2.1,2.3c-0.4,1.2-0.5,2.5-0.3,3.6
				C259.8,137.7,262.7,136.1,264.7,135.2z"/>
			<path fill="#DFBC99" d="M201.2,154.5L201.2,154.5l0,21.8c0,0,0,0,0,0V154.5z"/>
			<path fill="#DFBC99" d="M185,182.8c-15.1-5.1-30.5-16.9-33.8-35c-1-5.5-1.8-20.5-3.2-26.1c-3.5-13.4-4.7-30.7,0.1-45.6
				c0.8-0.5,1.6-0.8,2.5-0.8c0,0,3.3-2.8,4.8-8.5c1.1-4.1,5.3-10.1,9.2-13.8c1.9-1.4,4-2.6,6.2-3.6c2.8-0.3,6.4-2.5,6.4-2.5
				s2.3-2.1,13.8-4.2c1.3-0.1,3.6-0.7,5-0.7c1,0.1,1.8-0.4,2.7-0.1c0.2,0.1,0.9-0.1,1.1,0c0.2,0.1,1.2-0.4,1.5-0.3v112.9h0v21.8v9.4
				c0,0-0.1,0-0.1,0c-0.2,0-0.4,0-0.6,0c-0.1,0-0.2,0-0.3,0c-0.1,0-0.2,0-0.3,0c0,0-0.1,0-0.1,0v0C194.9,186,185,182.8,185,182.8z"
				/>
			<path fill="#131213" d="M137.6,122.6c0.1-0.2,0.3-0.4,0.3-0.7"/>
			<path fill="#131213" d="M137.9,121.8c-0.1,0.3-0.2,0.5-0.3,0.7c1.3,4.5,2.1,7.9,2.1,7.9h3.3c0,0-7.2-27.4-2.3-42.3
				c1.1-3.4,3.7-9.7,7.4-12c1.7-5.3,4.1-10.3,7.5-14.7c2.5-3.3,5.5-6.1,8.9-8.4c1.5-1.4,2.9-2.6,4.1-3.1c0.8-0.3,1.5-0.5,2.2-0.6
				c6.3-3,12.8-5,21.3-5.7c0.1,0,0.9-0.1,1-0.1c1.3-0.2,1.9-0.9,3.1-0.8c1,0,2.7-0.9,3.7-0.9c0.2,0,0.8-0.2,1-0.2c0.1,0,0.1,0,0.2,0
				c0.2,0,0.1,1.9,0.2,1.9c5.5,0,10.6,0.5,15.3,1.4c0,0,0,0,0,0l0,0c12.8,2.4,22.6,7.9,29.2,16.6c5.3,6.9,8.4,15.3,9.8,24
				c0.9,1.2,1.5,2.1,1.7,2.6c4.8,14.9-2.3,42.3-2.3,42.3h3.3c0,0-0.6,0.2,1.6-7.8c0.9-2.9,0.9-4.6,1.2-6.6
				c2.8-34.6,2.4-87.4-60.7-87.4c-0.1,0-0.1,0-0.2,0c-0.1,0-0.1,0-0.2,0c-63.1,0-65.3,47.5-62.5,82"/>
			<path fill="#131213" d="M176.1,48.1c0,0,5.3-2.1,16.8-4.2c-8.5,0.7-15.9,2.5-22.2,5.5C173.5,49.1,176.1,48.1,176.1,48.1z"/>
			<path fill="#131213" d="M155.3,66.8c1.1-4.1,5.3-10.1,9.2-13.8c-3.4,2.4-6.4,5.2-8.9,8.4c-3.4,4.4-5.8,9.4-7.5,14.7
				c0.8-0.5,1.6-0.8,2.5-0.8C150.5,75.3,153.8,72.5,155.3,66.8z"/>
			<path fill="#EFCFAB" d="M255.6,85.5"/>
			<path fill="#EFCFAB" d="M217.4,182.7c-4,1.4-8.1,2.3-12.1,2.7c-0.1,0-0.2,0-0.3,0c-0.5,0-0.9,0.1-1.4,0.1c-0.2,0-0.4,0-0.6,0
				c-0.6,0-1.2,0.1-1.8,0.1v-9.4v-21.8V50l-0.4-8.5c0,0,50.7-2.6,54.7,43.9c2,12.4,0.7,25.5-2.1,36.2c-1.5,5.6-2.2,20.6-3.2,26.1
				C247.2,165,233,177.3,217.4,182.7L217.4,182.7z"/>
		</g>
	</g>
</g>
</svg>
