<?xml version="1.0" encoding="utf-8"?>
<!-- Generator: Adobe Illustrator 18.0.0, SVG Export Plug-In . SVG Version: 6.00 Build 0)  -->
<!DOCTYPE svg PUBLIC "-//W3C//DTD SVG 1.1//EN" "http://www.w3.org/Graphics/SVG/1.1/DTD/svg11.dtd">
<svg version="1.1" id="Layer_1" xmlns="http://www.w3.org/2000/svg" xmlns:xlink="http://www.w3.org/1999/xlink" x="0px" y="0px"
	 viewBox="0 0 400 400" enable-background="new 0 0 400 400" xml:space="preserve">
<circle fill="#FFFFFF" cx="200" cy="200" r="190.3"/>
<circle fill="#D1D4D5" cx="200" cy="200" r="181.2"/>
<g>
	<defs>
		<circle id="SVGID_1_" cx="200" cy="200" r="181.2"/>
	</defs>
	<clipPath id="SVGID_2_">
		<use xlink:href="#SVGID_1_"  overflow="visible"/>
	</clipPath>
	<g clip-path="url(#SVGID_2_)">
		<path fill="#DFBA98" d="M137.6,325.3l-11.5-1.3l-18.7-2.1l-7.3-0.8c-0.7,10.5-1,21.8-0.9,34.2c0,0-0.2,2.2-0.5,6
			c9.4,3.9,19.1,7.2,29,10l0.1-0.7c0,0,7-11.3,12.5-27.9l1-7.8l1.2-8.9L137.6,325.3z"/>
		<path fill="#DFBA98" d="M203.9,184.6c-14.5-0.1-23-10.4-25.4-13.7c0,0.1,0,0.2-0.1,0.3c-0.3,1.9-0.6,3.6-1,5.3
			c-1.8,8.1-4.2,14.2-7.6,16.8l0,0c0,0,0.9,2.7,2.9,6.3c3.4,6.1,9.9,15,20.8,18.6c3.1,1,6.6,1.7,10.4,1.7v-19.2L203.9,184.6
			C203.9,184.6,203.9,184.6,203.9,184.6z"/>
		<path fill="#DFBA98" d="M204.1,219.9v-19.2c0,0-0.1,0-0.2,0v19.2C204,219.9,204,219.9,204.1,219.9z"/>
		<path fill="#EECFAB" d="M264.6,338.2c0.1-0.2,0.2-0.5,0.3-0.7c-0.4-1.2-0.7-2.5-1.1-3.7L264.6,338.2z"/>
		<path fill="#EECFAB" d="M230.4,175.1c-0.3-1.3-0.5-2.6-0.7-4v-0.1c0-0.1,0-0.3-0.1-0.4c-2.3,3.7-10.2,13.9-25.6,13.9
			c0,0-0.1,0-0.1,0v16.2c0,0,0.1,0,0.2,0v19.2l0,0c3,0,5.7-0.4,8.2-1c9.8-2.5,16.4-9.1,20.5-15c1.1-1.5,1.9-3,2.7-4.3
			c2-3.6,2.9-6.3,2.9-6.3l0,0C234.8,190.5,232.2,183.9,230.4,175.1z"/>
		<path opacity="0.7" fill="#BD967F" d="M178.6,168.8c-0.1,0.6-0.2,1.3-0.3,1.9c0,0.1,0.1,0.1,0.2,0.2c0.1-0.7,0.2-1.4,0.3-2
			C178.7,168.8,178.6,168.8,178.6,168.8z"/>
		<path opacity="0.7" fill="#BD967F" d="M229.6,170.6C229.6,170.6,229.7,170.6,229.6,170.6l0-0.1c-0.1-0.9-0.3-1.8-0.4-2.7
			c0,0,0,0-0.1,0C229.4,168.8,229.5,169.7,229.6,170.6z"/>
		<path fill="#DFBA98" d="M203.9,184.6C203.9,184.6,203.9,184.6,203.9,184.6l0.1-12.5c0,0-0.1,0-0.1,0c-0.2,0-0.4,0-0.6,0
			c-0.1,0-0.2,0-0.3,0c-0.1,0-0.2,0-0.3,0c-0.1,0-0.2,0-0.2,0c-0.1,0-0.2,0-0.2,0c-7.5,0-15.4-1.1-23.4-3.3c-0.1,0.7-0.2,1.4-0.3,2
			C180.9,174.2,189.4,184.5,203.9,184.6z"/>
		<path fill="#EECFAB" d="M210.4,171.7c-0.2,0-0.3,0-0.5,0c-0.7,0.1-1.5,0.1-2.2,0.2c-0.3,0-0.6,0-1,0.1c-1,0.1-1.9,0.1-2.9,0.1
			v12.5c0,0,0,0,0.1,0c15.5,0,23.3-10.2,25.6-13.9c-0.1-0.9-0.3-1.8-0.4-2.8C222.9,169.8,216.6,171.1,210.4,171.7z"/>
		<path opacity="0.7" fill="#BD967F" d="M229.2,167.9c-6.3,2-12.7,3.3-18.9,3.9c-0.2,0-0.3,0-0.5,0c-0.7,0.1-1.5,0.1-2.2,0.2
			c-0.3,0-0.6,0-1,0.1c-1,0.1-1.9,0.1-2.9,0.1c0,0-0.1,0-0.1,0c-0.2,0-0.4,0-0.6,0c-0.1,0-0.2,0-0.3,0c-0.1,0-0.2,0-0.3,0
			c-0.1,0-0.2,0-0.2,0c-0.1,0-0.2,0-0.2,0c-7.5,0-15.4-1.1-23.4-3.3c-0.1,0.7-0.2,1.4-0.3,2c2.4,3.3,10.9,13.6,25.4,13.7
			c0,0,0,0,0.1,0c0,0,0,0,0.1,0c15.5,0,23.3-10.2,25.6-13.9C229.5,169.7,229.4,168.8,229.2,167.9z"/>
		<path fill="#D1A586" d="M178.9,167.8c-0.1,0-0.1,0-0.2-0.1c0,0.3-0.1,0.7-0.1,1c0.1,0,0.1,0,0.2,0
			C178.8,168.5,178.9,168.2,178.9,167.8z"/>
		<path fill="#D1A586" d="M178.9,167.8c0,0.3-0.1,0.7-0.1,1c7.9,2.2,15.9,3.3,23.4,3.3c0.1,0,0.2,0,0.2,0c-0.1,0-0.2,0-0.3,0
			C194.9,171.9,187,170.5,178.9,167.8z"/>
		<path fill="#DCB598" d="M229.2,167.5c0,0.1,0,0.2,0,0.3c0,0,0,0,0.1,0C229.3,167.7,229.3,167.6,229.2,167.5
			C229.2,167.5,229.2,167.5,229.2,167.5z"/>
		<path fill="#DCB598" d="M203.8,172.1c0,0,0.1,0,0.1,0v0C203.9,172.1,203.8,172.1,203.8,172.1z"/>
		<path fill="#DCB598" d="M202.4,172.1c0.1,0,0.2,0,0.2,0c0.1,0,0.2,0,0.3,0c-0.1,0-0.3,0-0.4,0
			C202.5,172.1,202.4,172.1,202.4,172.1z"/>
		<path fill="#DCB598" d="M204,172.1C204,172.1,203.9,172.1,204,172.1L204,172.1c0.9,0,1.8,0,2.8-0.1
			C205.8,172,204.9,172.1,204,172.1z"/>
		<path fill="#DCB598" d="M209.9,171.8c-0.7,0.1-1.5,0.1-2.2,0.2C208.5,171.9,209.2,171.8,209.9,171.8z"/>
		<path fill="#DCB598" d="M229.2,167.9c0-0.1,0-0.2,0-0.3c-6.2,2.1-12.6,3.5-18.8,4.2C216.6,171.1,222.9,169.8,229.2,167.9z"/>
		<path fill="#DCB598" d="M202.1,172.1c0.1,0,0.2,0,0.3,0c0,0,0.1,0,0.1,0C202.4,172.1,202.2,172.1,202.1,172.1z"/>
		<path fill="#DFBC99" d="M203.2,172.1c0.2,0,0.4,0,0.6,0c-0.3,0-0.6,0-0.9,0C203,172.1,203.1,172.1,203.2,172.1z"/>
		<path fill="#DFBC99" d="M180.3,155c0-0.2,0-0.4,0-0.6c0,0-0.1,0-0.1,0c-0.2,2.1-0.4,4.2-0.6,6.3c-0.2,2.4-0.5,4.7-0.9,7
			c0.1,0,0.1,0,0.2,0.1c0.3-2.1,0.6-4.3,0.8-6.5C179.9,159.2,180.1,157.2,180.3,155z"/>
		<path fill="#DFBC99" d="M203.9,157.5v14.6c0,0,0,0,0.1,0L203.9,157.5C204,157.5,203.9,157.5,203.9,157.5z"/>
		<path fill="#EFCFAB" d="M210.4,171.7c-0.2,0-0.3,0-0.5,0C210.1,171.7,210.2,171.7,210.4,171.7z"/>
		<path fill="#EFCFAB" d="M207.7,171.9c-0.3,0-0.6,0-1,0.1C207.1,172,207.4,171.9,207.7,171.9z"/>
		<path fill="#EFCFAB" d="M227.8,154.2C227.8,154.2,227.8,154.2,227.8,154.2c0,0.2,0,0.4,0,0.6c0.2,2.1,0.4,4.2,0.6,6.2
			c0.3,2.3,0.5,4.5,0.8,6.6c0,0,0,0,0.1,0c-0.3-2.3-0.6-4.7-0.9-7.2C228.2,158.4,228,156.3,227.8,154.2z"/>
		<path fill="#EECFAB" d="M307.5,354.5c0.1-13.7-0.4-26.2-1.2-37.6l-14.2,1.6l-18.7,2.1l-2.6,0.3l-7.8,0.9l-1.1,0.1l1.1,6.6l0.9,5.2
			c0.3,1.3,0.7,2.5,1.1,3.7c4.9,16.2,11.6,28.4,13.5,31.5c10-3.1,19.8-6.9,29.3-11.1C307.6,355.7,307.5,354.5,307.5,354.5z"/>
		<path fill="#FCDB0D" d="M238.5,193.3c0,0,0.1,0,0.2,0C238.6,193.3,238.6,193.3,238.5,193.3z"/>
		<path fill="#FCDB0D" d="M239,193.3c0.1,0,0.3,0,0.4,0C239.3,193.3,239.2,193.3,239,193.3z"/>
		<path fill="#FCDB0D" d="M241.5,193.4c0.3,0,0.6,0.1,0.9,0.1C242.2,193.5,241.8,193.4,241.5,193.4z"/>
		<path fill="#FCDB0D" d="M239.8,193.3c0.3,0,0.7,0,1.2,0.1C240.6,193.4,240.2,193.3,239.8,193.3z"/>
		<path fill="#FCDB0D" d="M263.9,333.7l-0.9-5.2c0.1,1.6,0.2,3,0.5,3.9C263.7,332.8,263.8,333.3,263.9,333.7z"/>
		<path fill="#1B75B9" d="M238.7,193.3c0.1,0,0.2,0,0.3,0C238.9,193.3,238.8,193.3,238.7,193.3z"/>
		<path fill="#1B75B9" d="M239.5,193.3c0.1,0,0.3,0,0.4,0C239.7,193.3,239.6,193.3,239.5,193.3z"/>
		<path fill="#1B75B9" d="M242.5,193.5c0.2,0,0.4,0,0.5,0.1C242.8,193.5,242.7,193.5,242.5,193.5z"/>
		<path fill="#1B75B9" d="M241,193.4c0.2,0,0.3,0,0.5,0C241.4,193.4,241.2,193.4,241,193.4z"/>
		<path fill="#1B75B9" d="M238.5,193.3c-0.1,0-0.2,0-0.2,0l0,0C238.4,193.3,238.5,193.3,238.5,193.3z"/>
		<polygon fill="#1B75B9" points="238.4,193.3 238.4,193.3 238.4,193.3 		"/>
		<path fill="#1B75B9" d="M204.1,219.9c-0.1,0-0.1,0-0.2,0v5.7c0.1,0,0.1,0,0.2,0V219.9z"/>
		<g>
			<path fill="#FFFFFF" d="M243,193.6c-0.2,0-0.4,0-0.5-0.1c-0.3,0-0.6-0.1-0.9-0.1c-0.2,0-0.3,0-0.5,0c-0.5,0-0.9,0-1.2-0.1
				c-0.1,0-0.3,0-0.4,0c-0.2,0-0.3,0-0.4,0c-0.1,0-0.2,0-0.3,0c-0.1,0-0.2,0-0.2,0c-0.1,0-0.2,0-0.2,0l0,0c0,0-0.9,2.7-2.9,6.3
				c-0.7,1.3-1.6,2.8-2.7,4.3c-4.1,5.9-10.7,12.5-20.5,15c-2.5,0.6-5.2,1-8.2,1l0,0l0,5.7c0.1,0,0.3,0,0.4,0c3.6,0,6.9-0.4,9.9-1.2
				c11.9-3,19.9-11,24.8-18.1c1.5-2.1,2.6-4.1,3.6-5.8c1.1-2.1,1.9-3.8,2.4-5.1c0.2-0.6,0.4-1.1,0.6-1.4
				C244.8,193.8,243.9,193.7,243,193.6z"/>
			<path fill="#FFFFFF" d="M172.7,199.6c-2-3.6-2.9-6.3-2.9-6.3l0,0c-0.4,0-0.9,0-1.3,0.1c-1.8,0.1-3.6,0.3-5.3,0.6
				c0.1,0.3,0.3,0.7,0.5,1.2c0.5,1.2,1.3,2.9,2.4,5c3.9,7.4,11.9,18.8,25.7,23.4c3.7,1.2,7.7,2,12.2,2v-5.7c-3.8,0-7.3-0.6-10.4-1.7
				C182.6,214.6,176.1,205.7,172.7,199.6z"/>
		</g>
		<g>
			<path fill="#D1A586" d="M154.4,146.8c-1-5.4-1.7-20.1-3.1-25.5c-3.4-13.1-4.6-30,0.1-44.5c-3.6,2.2-6.2,8.4-7.3,11.7
				c-4.7,14.6,2.3,41.4,2.3,41.4h-3.3c0,0-0.7-3.3-2-7.7c-0.6,1-1.7,1.4-1.4,3.5c0.5,2.8,1.7,3,2.5,3.6c0.7,0.6,1.6,1.1,2.1,2.3
				c0.4,1.2,0.5,2.4,0.3,3.5c-0.5,2-3.4,0.4-5.3-0.5c-1.3-0.6-2.6-4-3.6-5.2c-2.6-2.9-3.8-8.5-1.8-11.8c2.4-3.8,6.6,5.5,8.5,6.4
				c-0.4-1.2-0.4-9.4-1-10.6c-7.6-6.3-12.2,0.7-11.5,9.6c1,12.2,15.9,18.4,15.6,17c4,22,22.9,36.6,41.8,41.8c0-0.2,0.1-0.4,0.1-0.6
				C172.8,176,157.6,164.4,154.4,146.8z"/>
			<path fill="#D1A586" d="M171.5,51.1c-1.1,0.5-2.5,1.6-4,3c1.9-1.3,3.9-2.5,6.1-3.6C172.9,50.6,172.2,50.8,171.5,51.1z"/>
			<path fill="#BD967F" d="M133.9,117.4c-2,3.2-0.8,8.9,1.8,11.8c1,1.2,2.3,4.6,3.6,5.2c1.9,0.9,4.8,2.5,5.3,0.5
				c0.3-1.1,0.2-2.3-0.3-3.5c-0.5-1.2-1.4-1.7-2.1-2.3c-0.7-0.6-2-0.8-2.5-3.6c-0.3-2,0.7-2.5,1.4-3.5c-0.6-2.2,1.8-5.3-2.3-7.1
				C137,114.1,136.3,113.6,133.9,117.4z"/>
			<path fill="#DCB598" d="M255.9,129.8c0,0,7-26.8,2.3-41.4c-0.2-0.5-0.8-1.4-1.6-2.6c1.9,12.1,0.7,25-2,35.4
				c-1.4,5.5-2.2,20.1-3.1,25.5c-3,16.8-17,28.9-32.1,34.1c0,0.1,0,0.1,0,0.2c18.2-5.6,36-20,39.8-41.2c-0.2,1.4,14.7-4.9,15.6-17
				c0.9-10.7-7.5-13.5-12.8-9.4c-3.2,8.1-4.6,16.4-4.6,16.4H255.9z M260.4,131.4c0.5-1.2,1.4-1.7,2.1-2.3c0.7-0.6,2-0.8,2.5-3.6
				c0.4-2.5-1.3-2.6-1.7-4.2c-0.8-2.9,0.2-4.4,1.4-5.6c1.2-1.1,3.1-3.2,6.1,1.7c2,3.2,0.8,8.9-1.8,11.8c-1,1.2-2.3,4.6-3.6,5.2
				c-1.9,0.9-4.9,2.5-5.3,0.5C259.9,133.8,260,132.6,260.4,131.4z"/>
			<path fill="#BD967F" d="M265.5,134.4c1.3-0.6,2.6-4,3.6-5.2c2.6-2.9,3.8-8.5,1.8-11.8c-3.1-4.9-5-2.8-6.1-1.7
				c-1.2,1.2-2.2,2.7-1.4,5.6c0.4,1.6,2.1,1.7,1.7,4.2c-0.5,2.8-1.7,3-2.5,3.6c-0.7,0.6-1.6,1.1-2.1,2.3c-0.4,1.2-0.5,2.4-0.3,3.5
				C260.6,136.9,263.6,135.3,265.5,134.4z"/>
			<path fill="#DFBC99" d="M203.4,153.2L203.4,153.2l0,21.3c0,0,0,0,0,0V153.2z"/>
			<path fill="#DFBC99" d="M187.5,181c-14.7-4.9-29.9-16.6-33.1-34.2c-1-5.4-1.7-20.1-3.1-25.5c-3.4-13.1-4.6-30,0.1-44.5
				c0.8-0.5,1.6-0.8,2.4-0.8c0,0,3.2-2.8,4.7-8.3c1-4,5.2-9.8,9-13.5c1.9-1.3,3.9-2.5,6.1-3.6c2.7-0.3,6.3-2.5,6.3-2.5
				s2.2-2,13.5-4.1c1.3-0.1,3.5-0.6,4.9-0.7c1,0.1,1.7-0.4,2.7-0.1c0.2,0.1,0.9-0.1,1.1,0c0.2,0.1,1.2-0.4,1.4-0.3v110.4h0v21.3v9.2
				c0,0-0.1,0-0.1,0c-0.2,0-0.4,0-0.5,0c-0.1,0-0.2,0-0.3,0c-0.1,0-0.2,0-0.3,0c0,0-0.1,0-0.1,0v0C197.2,184.1,187.5,181,187.5,181z
				"/>
			<path fill="#131213" d="M141.2,122.1c0.1-0.2,0.3-0.4,0.3-0.7"/>
			<path fill="#131213" d="M141.5,121.4c-0.1,0.3-0.2,0.5-0.3,0.7c1.3,4.4,2,7.7,2,7.7h3.3c0,0-7-26.8-2.3-41.4
				c1.1-3.3,3.7-9.5,7.3-11.7c1.7-5.2,4-10.1,7.4-14.4c2.5-3.2,5.4-5.9,8.7-8.2c1.5-1.4,2.9-2.5,4-3c0.8-0.3,1.5-0.5,2.1-0.6
				c6.1-2.9,12.5-4.9,20.8-5.6c0.1,0,0.9-0.1,1-0.1c1.2-0.2,1.9-0.9,3-0.8c0.9,0,2.6-0.9,3.6-0.9c0.2,0,0.8-0.2,1-0.2
				c0.1,0,0.1,0,0.2,0c0.2,0,0.1,1.8,0.2,1.8c5.4,0,10.4,0.5,15,1.4c0,0,0,0,0,0l0,0c12.5,2.3,22.1,7.8,28.6,16.2
				c5.2,6.7,8.2,14.9,9.5,23.5c0.9,1.2,1.5,2.1,1.6,2.6c4.7,14.6-2.3,41.4-2.3,41.4h3.2c0,0-0.6,0.2,1.6-7.7
				c0.8-2.9,0.8-4.5,1.1-6.5c2.7-33.8,2.4-85.5-59.3-85.5c0,0-0.1,0-0.2,0c-0.1,0-0.1,0-0.2,0c-61.7,0-63.8,46.4-61.1,80.2"/>
			<path fill="#131213" d="M178.8,49.2c0,0,5.2-2.1,16.4-4.1c-8.3,0.7-15.5,2.5-21.7,5.4C176.3,50.3,178.8,49.2,178.8,49.2z"/>
			<path fill="#131213" d="M158.5,67.6c1-4,5.2-9.8,9-13.5c-3.3,2.3-6.3,5.1-8.7,8.2c-3.3,4.3-5.7,9.2-7.4,14.4
				c0.8-0.5,1.6-0.8,2.4-0.8C153.8,75.9,157.1,73.1,158.5,67.6z"/>
			<path fill="#EFCFAB" d="M256.5,85.9"/>
			<path fill="#EFCFAB" d="M219.2,180.8c-3.9,1.3-7.9,2.2-11.8,2.6c-0.1,0-0.2,0-0.3,0c-0.5,0-0.9,0.1-1.4,0.1c-0.2,0-0.4,0-0.6,0
				c-0.6,0-1.2,0.1-1.8,0.1v-9.2v-21.3V51.2l-0.3-8.3c0,0,49.6-2.6,53.5,43c1.9,12.1,0.7,25-2,35.4c-1.4,5.5-2.2,20.1-3.1,25.5
				C248.4,163.5,234.4,175.6,219.2,180.8L219.2,180.8z"/>
		</g>
		<path fill="#FCDB0D" d="M168.7,193.4c-1.2,0.1-2.7,0.2-3.7,0.4v0C166,193.7,167.4,193.5,168.7,193.4z"/>
		<g>
			<path fill="#DB1B1B" d="M203.9,225.6C203.7,225.6,203.9,225.6,203.9,225.6l-0.7,0c-2.4,0-4.2-0.3-7.2-0.6v156c0,0,1.9,0,2.6,0
				c1.6,0,3,0,4.6-0.1c2.4,0,2.8-0.1,6.8-0.2V225.1C206,225.4,206.2,225.6,203.9,225.6z"/>
			<path fill="#DB1B1B" d="M243.5,200.5c-1,1.8-1.7,3.8-3.2,5.8c-2.5,3.6-5.4,7.3-9.4,10.6v162.3c4-0.5,7-1.2,14-2V199.1
				C245,199.5,243.8,200,243.5,200.5z"/>
			<path fill="#DB1B1B" d="M165.6,200.2c-0.5-0.8-0.6-1.6-0.6-2.3v180.9c3,0.6,10,1.1,13,1.4V216.4
				C172,211.2,168.1,204.9,165.6,200.2z"/>
			<path fill="#DB1B1B" d="M126.7,216c-7.6,8.6-14.1,18.9-19.1,29.7c-16.2,34.7-20.4,73.9-20.4,73.9l12.9,1.5l7.2,0.8l18.7,2.1
				l11.5,1.3l4.8,0.6l-1.2,8.9l-1,7.8l-4.1,30.8c3,0.7,6.8,1.4,9.9,2.1c0.5,0.1,2.1,0.2,2.1,0.3V199.5
				C137,203.5,132.7,209.2,126.7,216z"/>
			<path fill="#DB1B1B" d="M292.1,230.6c-6-10.1-12.4-17.5-18.6-22.8c-4-3.4-8.5-6.1-11.5-8.1v173.8c0,0,0.2-0.1,0.4-0.1
				c2.6-0.6,5.2-1.3,7.8-2l-5.4-33.2l-0.7-4.4c-0.1-0.4-0.3-0.9-0.4-1.3c-0.3-1-0.4-2.3-0.5-3.9l-1.1-6.6l1.1-0.1l7.8-0.9l2.6-0.3
				l18.7-2.1l14.2-1.6l11.1-1.2C312.6,275.7,303,248.8,292.1,230.6z"/>
		</g>
		<path fill="#FCDB0D" d="M163.7,195.2c0.3,0.7,1.3,1.6,1.3,2.7v-4c0,0.1-1.2,0.1-1.7,0.2C163.4,194.3,163.5,194.7,163.7,195.2z"/>
		<path fill="#FCDB0D" d="M245.5,193.9c0.1,0,0.2,0,0.3,0c0,0,0,0,0,0C245.7,194,245.6,194,245.5,193.9z"/>
		<g>
			<path fill="#131213" d="M163.7,195.2c-0.2-0.5-0.3-0.9-0.4-1.2c0.5-0.1,1.7-0.1,1.7-0.2v0c-4,0.7-9.8,2.1-14.5,4.2
				c-1.1,0.5-2.5,1-2.5,1.5v176.3c3,1.2,10,2.2,17,3V197.9C165,196.8,164,195.9,163.7,195.2z"/>
			<path fill="#131213" d="M190.7,223.6c-5-1.7-8.7-4.2-12.7-7.2v163.8c7,0.5,14,0.7,18,0.7V225C192,224.6,192.4,224.2,190.7,223.6z
				"/>
			<path fill="#131213" d="M214.5,224.4c-1,0.3-0.5,0.5-4.5,0.6v155.6c7-0.3,14-0.8,21-1.5V216.9C224,220.2,220.5,222.9,214.5,224.4
				z"/>
			<path fill="#131213" d="M251.6,195.4c-2.1-0.7-4.1-1.1-5.8-1.4c-0.1,0.3,0.4,0.8,0.2,1.4c-0.4,1-1,2.2-1,3.7v178.2
				c3-1,10-2.3,17-3.7V199.7C259,197.7,254.7,196.3,251.6,195.4z"/>
		</g>
	</g>
</g>
</svg>
