<?xml version="1.0" encoding="utf-8"?>
<!-- Generator: Adobe Illustrator 18.0.0, SVG Export Plug-In . SVG Version: 6.00 Build 0)  -->
<!DOCTYPE svg PUBLIC "-//W3C//DTD SVG 1.1//EN" "http://www.w3.org/Graphics/SVG/1.1/DTD/svg11.dtd">
<svg version="1.1" id="Layer_1" xmlns="http://www.w3.org/2000/svg" xmlns:xlink="http://www.w3.org/1999/xlink" x="0px" y="0px"
	 viewBox="0 0 400 400" enable-background="new 0 0 400 400" xml:space="preserve">
<circle fill="#FFFFFF" cx="200" cy="200" r="190.3"/>
<circle fill="#D1D4D5" cx="200" cy="200" r="181.2"/>
<g>
	<defs>
		<circle id="SVGID_1_" cx="200" cy="200" r="181.2"/>
	</defs>
	<clipPath id="SVGID_2_">
		<use xlink:href="#SVGID_1_"  overflow="visible"/>
	</clipPath>
	<g clip-path="url(#SVGID_2_)">
		<path fill="#DFBA98" d="M137.2,325.9l-11.4-1.3l-18.5-2.1l-7.2-0.8c-0.7,10.4-1,21.6-0.9,33.8c0,0-0.2,2.2-0.5,5.9
			c9.3,3.8,18.9,7.1,28.7,9.9l0.1-0.7c0,0,6.9-11.2,12.4-27.6l1-7.7l1.2-8.8L137.2,325.9z"/>
		<path fill="#DFBA98" d="M202.8,186.6c-14.3-0.1-22.7-10.3-25.1-13.6c0,0.1,0,0.2-0.1,0.3c-0.3,1.9-0.6,3.6-1,5.3
			c-1.8,8-4.2,14-7.5,16.6l0,0c0,0,0.9,2.6,2.9,6.2c3.3,6,9.8,14.8,20.6,18.4c3.1,1,6.5,1.6,10.3,1.7v-18.9L202.8,186.6
			C202.8,186.6,202.8,186.6,202.8,186.6z"/>
		<path fill="#DFBA98" d="M203,221.6v-19c0,0-0.1,0-0.1,0v18.9C202.9,221.6,202.9,221.6,203,221.6z"/>
		<path fill="#EECFAB" d="M262.9,338.6c0.1-0.2,0.2-0.5,0.3-0.7c-0.4-1.2-0.7-2.4-1-3.7L262.9,338.6z"/>
		<path fill="#EECFAB" d="M229.1,177.3c-0.3-1.3-0.5-2.6-0.7-4v-0.1c0-0.1,0-0.3-0.1-0.4c-2.3,3.7-10.1,13.8-25.4,13.8
			c0,0-0.1,0-0.1,0v16c0,0,0.1,0,0.1,0v19l0,0c2.9,0,5.6-0.4,8.1-1c9.7-2.4,16.2-9,20.3-14.8c1-1.5,1.9-2.9,2.6-4.2
			c2-3.6,2.9-6.3,2.9-6.3l0,0C233.4,192.6,230.8,186,229.1,177.3z"/>
		<path opacity="0.7" fill="#BD967F" d="M177.8,171c-0.1,0.6-0.2,1.3-0.3,1.9c0,0.1,0.1,0.1,0.2,0.2c0.1-0.7,0.2-1.3,0.3-2
			C177.9,171,177.8,171,177.8,171z"/>
		<path opacity="0.7" fill="#BD967F" d="M228.3,172.9C228.3,172.9,228.3,172.8,228.3,172.9l0-0.1c-0.1-0.9-0.3-1.8-0.4-2.6
			c0,0,0,0-0.1,0C228,171.1,228.1,172,228.3,172.9z"/>
		<path fill="#DFBA98" d="M202.8,186.6C202.8,186.6,202.8,186.6,202.8,186.6l0.1-12.3c0,0-0.1,0-0.1,0c-0.2,0-0.4,0-0.6,0
			c-0.1,0-0.2,0-0.3,0c-0.1,0-0.2,0-0.3,0c-0.1,0-0.2,0-0.2,0c-0.1,0-0.2,0-0.2,0c-7.4,0-15.3-1.1-23.1-3.3c-0.1,0.7-0.2,1.4-0.3,2
			C180,176.4,188.5,186.6,202.8,186.6z"/>
		<path fill="#EECFAB" d="M209.2,173.9c-0.2,0-0.3,0-0.5,0c-0.7,0.1-1.4,0.1-2.2,0.2c-0.3,0-0.6,0-1,0.1c-0.9,0.1-1.9,0.1-2.8,0.1
			v12.3c0,0,0,0,0.1,0c15.3,0,23.1-10.1,25.4-13.8c-0.1-0.9-0.3-1.8-0.4-2.8C221.6,172.1,215.3,173.3,209.2,173.9z"/>
		<path opacity="0.7" fill="#BD967F" d="M227.9,170.1c-6.3,1.9-12.5,3.2-18.6,3.8c-0.2,0-0.3,0-0.5,0c-0.7,0.1-1.4,0.1-2.2,0.2
			c-0.3,0-0.6,0-1,0.1c-0.9,0.1-1.9,0.1-2.8,0.1c0,0-0.1,0-0.1,0c-0.2,0-0.4,0-0.6,0c-0.1,0-0.2,0-0.3,0c-0.1,0-0.2,0-0.3,0
			c-0.1,0-0.2,0-0.2,0c-0.1,0-0.2,0-0.2,0c-7.4,0-15.3-1.1-23.1-3.3c-0.1,0.7-0.2,1.4-0.3,2c2.4,3.3,10.8,13.5,25.1,13.6
			c0,0,0,0,0.1,0c0,0,0,0,0.1,0c15.3,0,23.1-10.1,25.4-13.8C228.1,172,228,171.1,227.9,170.1z"/>
		<path fill="#D1A586" d="M178.1,170.1c-0.1,0-0.1,0-0.2-0.1c0,0.3-0.1,0.7-0.1,1c0.1,0,0.1,0,0.2,0
			C178,170.7,178.1,170.4,178.1,170.1z"/>
		<path fill="#D1A586" d="M178.1,170.1c0,0.3-0.1,0.7-0.1,1c7.9,2.1,15.7,3.3,23.1,3.3c0.1,0,0.2,0,0.2,0c-0.1,0-0.2,0-0.3,0
			C194,174.2,186.1,172.7,178.1,170.1z"/>
		<path fill="#DCB598" d="M227.9,169.8c0,0.1,0,0.2,0,0.3c0,0,0,0,0.1,0C227.9,170,227.9,169.9,227.9,169.8
			C227.9,169.8,227.9,169.8,227.9,169.8z"/>
		<path fill="#DCB598" d="M202.7,174.3c0,0,0.1,0,0.1,0v0C202.8,174.3,202.8,174.3,202.7,174.3z"/>
		<path fill="#DCB598" d="M201.3,174.3c0.1,0,0.2,0,0.2,0c0.1,0,0.2,0,0.3,0c-0.1,0-0.3,0-0.4,0
			C201.4,174.3,201.4,174.3,201.3,174.3z"/>
		<path fill="#DCB598" d="M202.9,174.3C202.9,174.3,202.9,174.3,202.9,174.3L202.9,174.3c0.9,0,1.8,0,2.8-0.1
			C204.8,174.3,203.8,174.3,202.9,174.3z"/>
		<path fill="#DCB598" d="M208.8,174c-0.7,0.1-1.4,0.1-2.2,0.2C207.4,174.1,208.1,174.1,208.8,174z"/>
		<path fill="#DCB598" d="M227.9,170.1c0-0.1,0-0.2,0-0.3c-6.2,2.1-12.4,3.5-18.6,4.1C215.3,173.3,221.6,172.1,227.9,170.1z"/>
		<path fill="#DCB598" d="M201,174.3c0.1,0,0.2,0,0.3,0c0,0,0.1,0,0.1,0C201.3,174.3,201.2,174.3,201,174.3z"/>
		<path fill="#DFBC99" d="M202.2,174.3c0.2,0,0.4,0,0.6,0c-0.3,0-0.6,0-0.9,0C202,174.3,202.1,174.3,202.2,174.3z"/>
		<path fill="#DFBC99" d="M179.5,157.4c0-0.2,0-0.4,0-0.5c0,0-0.1,0-0.1,0c-0.2,2.1-0.4,4.2-0.6,6.2c-0.2,2.4-0.5,4.7-0.9,6.9
			c0.1,0,0.1,0,0.2,0.1c0.3-2.1,0.6-4.2,0.8-6.4C179.1,161.6,179.3,159.5,179.5,157.4z"/>
		<path fill="#DFBC99" d="M202.9,159.9v14.4c0,0,0,0,0.1,0L202.9,159.9C202.9,159.9,202.9,159.9,202.9,159.9z"/>
		<path fill="#EFCFAB" d="M209.2,173.9c-0.2,0-0.3,0-0.5,0C208.9,174,209.1,174,209.2,173.9z"/>
		<path fill="#EFCFAB" d="M206.6,174.1c-0.3,0-0.6,0-1,0.1C206,174.2,206.3,174.2,206.6,174.1z"/>
		<path fill="#EFCFAB" d="M226.5,156.6C226.5,156.6,226.5,156.6,226.5,156.6c0,0.2,0,0.4,0,0.6c0.2,2.1,0.4,4.1,0.6,6.1
			c0.3,2.3,0.5,4.4,0.8,6.5c0,0,0,0,0.1,0c-0.3-2.3-0.6-4.6-0.9-7.1C226.9,160.7,226.7,158.7,226.5,156.6z"/>
		<path fill="#EECFAB" d="M305.3,354.7c0.1-13.5-0.4-25.9-1.2-37.2l-14,1.6l-18.5,2.1l-2.5,0.3l-7.7,0.9l-1.1,0.1l1.1,6.5l0.8,5.2
			c0.3,1.2,0.7,2.5,1,3.7c4.8,16.1,11.5,28.1,13.3,31.2c9.9-3.1,19.6-6.8,29-11C305.4,355.9,305.3,354.7,305.3,354.7z"/>
		<path fill="#FCDB0D" d="M237.1,195.3c0,0,0.1,0,0.2,0C237.2,195.3,237.1,195.3,237.1,195.3z"/>
		<path fill="#FCDB0D" d="M237.6,195.3c0.1,0,0.3,0,0.4,0C237.8,195.3,237.7,195.3,237.6,195.3z"/>
		<path fill="#FCDB0D" d="M240.1,195.4c0.3,0,0.6,0.1,0.9,0.1C240.7,195.5,240.4,195.4,240.1,195.4z"/>
		<path fill="#FCDB0D" d="M238.4,195.3c0.3,0,0.7,0,1.2,0.1C239.1,195.4,238.7,195.3,238.4,195.3z"/>
		<path fill="#FCDB0D" d="M262.2,334.2l-0.8-5.2c0.1,1.6,0.2,2.9,0.5,3.9C261.9,333.3,262.1,333.7,262.2,334.2z"/>
		<path fill="#1B75B9" d="M237.3,195.3c0.1,0,0.2,0,0.3,0C237.5,195.3,237.4,195.3,237.3,195.3z"/>
		<path fill="#1B75B9" d="M238,195.3c0.1,0,0.3,0,0.4,0C238.3,195.3,238.1,195.3,238,195.3z"/>
		<path fill="#1B75B9" d="M241,195.5c0.2,0,0.4,0,0.5,0.1C241.4,195.5,241.2,195.5,241,195.5z"/>
		<path fill="#1B75B9" d="M239.6,195.4c0.2,0,0.3,0,0.5,0C239.9,195.4,239.7,195.4,239.6,195.4z"/>
		<path fill="#1B75B9" d="M237.1,195.3c-0.1,0-0.2,0-0.2,0l0,0C236.9,195.3,237,195.3,237.1,195.3z"/>
		<polygon fill="#1B75B9" points="236.9,195.3 236.9,195.3 236.9,195.3 		"/>
		<path fill="#1B75B9" d="M203,221.6c-0.1,0-0.1,0-0.1,0v5.6c0.1,0,0.1,0,0.1,0V221.6z"/>
		<g>
			<path fill="#FFFFFF" d="M241.5,195.6c-0.2,0-0.4,0-0.5-0.1c-0.3,0-0.6-0.1-0.9-0.1c-0.2,0-0.3,0-0.5,0c-0.5,0-0.8,0-1.2-0.1
				c-0.1,0-0.3,0-0.4,0c-0.2,0-0.3,0-0.4,0c-0.1,0-0.2,0-0.3,0c-0.1,0-0.1,0-0.2,0c-0.1,0-0.2,0-0.2,0l0,0c0,0-0.9,2.7-2.9,6.3
				c-0.7,1.3-1.6,2.7-2.6,4.2c-4.1,5.8-10.6,12.4-20.3,14.8c-2.5,0.6-5.2,1-8.1,1l0,0l0,5.6c0.1,0,0.3,0,0.4,0
				c3.5,0,6.8-0.4,9.8-1.2c11.8-2.9,19.7-10.9,24.6-17.9c1.4-2.1,2.6-4,3.6-5.8c1.1-2.1,1.9-3.8,2.4-5c0.2-0.6,0.4-1.1,0.5-1.4
				C243.3,195.8,242.4,195.7,241.5,195.6z"/>
			<path fill="#FFFFFF" d="M172,201.6c-2-3.6-2.9-6.2-2.9-6.2l0,0c-0.4,0-0.8,0-1.3,0.1c-1.8,0.1-3.5,0.3-5.3,0.6
				c0.1,0.3,0.3,0.7,0.5,1.1c0.5,1.2,1.3,2.9,2.4,5c3.9,7.3,11.8,18.6,25.4,23.1c3.6,1.2,7.6,1.9,12.1,2v-5.6
				c-3.8,0-7.2-0.6-10.3-1.7C181.8,216.3,175.3,207.6,172,201.6z"/>
		</g>
		<g>
			<path fill="#D1A586" d="M153.9,149.3c-1-5.3-1.7-19.9-3.1-25.2c-3.4-13-4.5-29.7,0.1-44.1c-3.6,2.2-6.1,8.3-7.2,11.6
				c-4.7,14.4,2.3,41,2.3,41h-3.2c0,0-0.7-3.3-2-7.7c-0.6,1-1.7,1.4-1.4,3.4c0.5,2.7,1.7,2.9,2.4,3.5c0.7,0.6,1.6,1.1,2.1,2.3
				c0.4,1.2,0.5,2.4,0.3,3.4c-0.5,2-3.3,0.4-5.3-0.5c-1.3-0.6-2.5-4-3.6-5.1c-2.6-2.9-3.8-8.5-1.7-11.7c2.4-3.8,6.5,5.4,8.4,6.3
				c-0.4-1.2-0.4-9.3-0.9-10.5c-7.5-6.2-12.1,0.7-11.4,9.5c1,12,15.7,18.2,15.5,16.8c4,21.7,22.7,36.2,41.3,41.3
				c0-0.2,0.1-0.4,0.1-0.6C172,178.2,157.1,166.7,153.9,149.3z"/>
			<path fill="#D1A586" d="M170.8,54.6c-1.1,0.5-2.5,1.6-4,3c1.9-1.3,3.9-2.5,6-3.5C172.2,54.1,171.5,54.3,170.8,54.6z"/>
			<path fill="#BD967F" d="M133.6,120.3c-2,3.2-0.8,8.8,1.7,11.7c1,1.1,2.3,4.6,3.6,5.1c1.9,0.9,4.8,2.4,5.3,0.5
				c0.3-1,0.2-2.3-0.3-3.4c-0.5-1.2-1.4-1.6-2.1-2.3c-0.7-0.6-2-0.8-2.4-3.5c-0.3-2,0.7-2.5,1.4-3.4c-0.6-2.1,1.8-5.2-2.3-7
				C136.6,117,136,116.5,133.6,120.3z"/>
			<path fill="#DCB598" d="M254.3,132.5c0,0,6.9-26.5,2.2-41c-0.2-0.5-0.8-1.4-1.6-2.5c1.9,12,0.7,24.7-2,35
				c-1.4,5.4-2.1,19.9-3.1,25.2c-3,16.6-16.8,28.5-31.8,33.7c0,0.1,0,0.1,0,0.2c18-5.6,35.6-19.8,39.4-40.8
				c-0.2,1.4,14.5-4.8,15.5-16.8c0.9-10.6-7.4-13.4-12.6-9.3c-3.1,8-4.6,16.2-4.6,16.2H254.3z M258.8,134.1c0.5-1.2,1.3-1.6,2.1-2.3
				c0.7-0.6,2-0.8,2.5-3.5c0.4-2.4-1.3-2.6-1.7-4.2c-0.7-2.9,0.2-4.4,1.4-5.5c1.1-1.1,3-3.1,6.1,1.7c2,3.2,0.8,8.8-1.7,11.7
				c-1,1.1-2.3,4.6-3.6,5.1c-1.9,0.9-4.8,2.4-5.3,0.5C258.3,136.5,258.3,135.2,258.8,134.1z"/>
			<path fill="#BD967F" d="M263.8,137.1c1.3-0.6,2.5-4,3.6-5.1c2.6-2.9,3.7-8.5,1.7-11.7c-3-4.8-4.9-2.7-6.1-1.7
				c-1.2,1.2-2.2,2.7-1.4,5.5c0.4,1.6,2.1,1.7,1.7,4.2c-0.5,2.7-1.7,2.9-2.5,3.5c-0.7,0.6-1.6,1.1-2.1,2.3c-0.4,1.2-0.5,2.4-0.3,3.4
				C259,139.5,261.8,137.9,263.8,137.1z"/>
			<path fill="#DFBC99" d="M202.3,155.7L202.3,155.7l0,21c0,0,0,0,0,0V155.7z"/>
			<path fill="#DFBC99" d="M186.6,183.1c-14.6-4.9-29.5-16.4-32.7-33.8c-1-5.3-1.7-19.9-3.1-25.2c-3.4-13-4.5-29.7,0.1-44.1
				c0.8-0.5,1.6-0.8,2.4-0.8c0,0,3.2-2.7,4.6-8.2c1-3.9,5.1-9.7,8.9-13.3c1.9-1.3,3.9-2.5,6-3.5c2.7-0.3,6.2-2.5,6.2-2.5
				s2.2-2,13.3-4c1.3-0.1,3.5-0.6,4.8-0.7c1,0.1,1.7-0.3,2.6-0.1c0.2,0.1,0.9-0.1,1.1,0c0.2,0.1,1.2-0.4,1.4-0.3v109.2h0v21v9.1
				c0,0-0.1,0-0.1,0c-0.2,0-0.4,0-0.5,0c-0.1,0-0.2,0-0.3,0c-0.1,0-0.2,0-0.3,0c0,0-0.1,0-0.1,0v0
				C196.2,186.2,186.6,183.1,186.6,183.1z"/>
			<path fill="#131213" d="M140.8,124.8c0.1-0.2,0.3-0.4,0.3-0.7"/>
			<path fill="#131213" d="M141.1,124.1c-0.1,0.3-0.2,0.5-0.3,0.7c1.3,4.4,2,7.7,2,7.7h3.2c0,0-6.9-26.5-2.3-41
				c1.1-3.3,3.6-9.4,7.2-11.6c1.6-5.1,4-10,7.3-14.2c2.4-3.1,5.3-5.9,8.6-8.2c1.4-1.4,2.8-2.5,4-3c0.8-0.3,1.5-0.5,2.1-0.6
				c6.1-2.9,12.4-4.8,20.6-5.5c0.1,0,0.9-0.1,1-0.1c1.2-0.2,1.9-0.9,3-0.8c0.9,0,2.6-0.9,3.5-0.9c0.2,0,0.8-0.2,1-0.2
				c0.1,0,0.1,0,0.2,0c0.2,0,0.1,1.8,0.2,1.8c5.3,0,10.3,0.5,14.8,1.3c0,0,0,0,0,0l0,0c12.3,2.3,21.8,7.7,28.3,16
				c5.2,6.7,8.1,14.8,9.4,23.2c0.9,1.1,1.5,2,1.6,2.5c4.7,14.4-2.2,41-2.2,41h3.2c0,0-0.6,0.2,1.6-7.6c0.8-2.8,0.8-4.5,1.1-6.4
				c2.7-33.4,2.4-84.5-58.7-84.5c0,0-0.1,0-0.1,0c-0.1,0-0.1,0-0.2,0c-61,0-63.1,45.9-60.4,79.3"/>
			<path fill="#131213" d="M178,52.8c0,0,5.1-2.1,16.3-4.1c-8.2,0.7-15.4,2.5-21.4,5.4C175.5,53.8,178,52.8,178,52.8z"/>
			<path fill="#131213" d="M157.9,70.9c1-3.9,5.1-9.7,8.9-13.3c-3.3,2.3-6.2,5-8.6,8.2c-3.3,4.2-5.6,9.1-7.3,14.2
				c0.8-0.5,1.6-0.8,2.4-0.8C153.3,79.1,156.5,76.4,157.9,70.9z"/>
			<path fill="#EFCFAB" d="M254.9,89"/>
			<path fill="#EFCFAB" d="M218,183c-3.9,1.3-7.8,2.2-11.7,2.6c-0.1,0-0.2,0-0.3,0c-0.5,0-0.9,0.1-1.4,0.1c-0.2,0-0.4,0-0.6,0
				c-0.6,0-1.2,0-1.7,0.1v-9.1v-21v-101l-0.3-8.2c0,0,49-2.6,52.9,42.5c1.9,12,0.7,24.7-2,35c-1.4,5.4-2.1,19.9-3.1,25.2
				C246.8,165.9,233,177.8,218,183L218,183z"/>
		</g>
		<path fill="#FCDB0D" d="M167.6,195.4c-1.2,0.1-2.6,0.2-3.6,0.4v0C165,195.7,166.4,195.5,167.6,195.4z"/>
		<g>
			<path fill="#066F24" d="M202.9,227.3c-0.1,0,0,0-0.1,0l-0.1,0c-2.4,0-4.6-0.3-6.6-0.6v154.3c0,0,1.4,0,2.1,0c1.6,0,2.7,0,4.4-0.1
				c2.4,0,3.6-0.1,6.6-0.2V226.7C206,227.1,205.2,227.3,202.9,227.3z"/>
			<path fill="#066F24" d="M242.3,202.4c-0.9,1.8-1.2,3.7-2.6,5.8c-2.4,3.5-6.7,7.2-8.7,10.5v160.6c2-0.5,5-1.2,13-2V201
				C244,201.5,242.6,201.9,242.3,202.4z"/>
			<path fill="#066F24" d="M166.7,202.1c-0.4-0.8-1.7-1.6-1.7-2.3v178.9c2,0.6,10,1.1,15,1.4v-162C171,213,169.2,206.8,166.7,202.1z
				"/>
			<path fill="#066F24" d="M126.2,217.7c-7.5,8.5-13.8,18.7-18.7,29.4c-16,34.4-20.1,73.1-20.1,73.1l12.8,1.5l7.2,0.8l18.5,2.1
				l11.4,1.3l4.8,0.5l-1.2,8.8l-1,7.7l-4.1,30.5c3,0.7,6.4,1.4,9.5,2.1c0.5,0.1,1.8,0.2,1.8,0.3V201.4
				C137,205.4,132.1,211,126.2,217.7z"/>
			<path fill="#066F24" d="M290.1,232.2c-6-10-12.4-17.3-18.6-22.6c-4-3.4-6.5-6-11.5-8v171.9c0,0,0.3-0.1,0.5-0.1
				c2.6-0.6,5.2-1.3,7.8-2l-5.4-32.9l-0.7-4.4c-0.1-0.4-0.2-0.9-0.4-1.3c-0.2-1-0.4-2.3-0.5-3.9l-1.1-6.5l1.1-0.1l7.7-0.9l2.5-0.3
				l18.5-2.1l14-1.6l10.9-1.2C310.3,276.8,300.9,250.1,290.1,232.2z"/>
		</g>
		<path fill="#FCDB0D" d="M162.4,197.2c0.3,0.7,0.6,1.6,0.6,2.6v-4c0,0.1-0.8,0.1-1.3,0.2C161.8,196.3,162.2,196.7,162.4,197.2z"/>
		<path fill="#FCDB0D" d="M244,195.9c0.1,0,0.2,0,0.3,0c0,0,0,0,0,0C244.2,196,244.1,195.9,244,195.9z"/>
		<g>
			<path fill="#FFFFFF" d="M163.4,197.2c-0.2-0.5-0.1-0.9-0.3-1.1c0.5-0.1,1.8-0.1,1.8-0.2v0c-4,0.7-10.3,2.1-14.9,4.1
				c-1.1,0.5-3.1,1-3.1,1.5v174.3c2,1.2,10,2.2,18,3V199.8C165,198.8,163.7,197.9,163.4,197.2z"/>
			<path fill="#FFFFFF" d="M191.6,225.3c-4.9-1.7-9.6-4.2-11.6-7.1v162c5,0.4,12,0.7,16,0.7V226.6
				C192,226.3,193.3,225.8,191.6,225.3z"/>
			<path fill="#FFFFFF" d="M214.1,226.1c-1,0.3-0.1,0.5-5.1,0.6v153.9c6-0.3,14-0.8,22-1.4V218.6C223,221.9,220,224.6,214.1,226.1z"
				/>
			<path fill="#FFFFFF" d="M249.9,197.4c-2.1-0.7-4-1.1-5.7-1.4c-0.1,0.3,0.7,0.8,0.4,1.4c-0.4,0.9-0.7,2.2-0.7,3.7v176.2
				c3-1,10-2.2,16-3.7V201.7C257,199.7,252.9,198.3,249.9,197.4z"/>
		</g>
	</g>
</g>
</svg>
