<?xml version="1.0" encoding="utf-8"?>
<!-- Generator: Adobe Illustrator 18.0.0, SVG Export Plug-In . SVG Version: 6.00 Build 0)  -->
<!DOCTYPE svg PUBLIC "-//W3C//DTD SVG 1.1//EN" "http://www.w3.org/Graphics/SVG/1.1/DTD/svg11.dtd">
<svg version="1.1" id="Layer_1" xmlns="http://www.w3.org/2000/svg" xmlns:xlink="http://www.w3.org/1999/xlink" x="0px" y="0px"
	 viewBox="0 0 400 400" enable-background="new 0 0 400 400" xml:space="preserve">
<circle fill="#FFFFFF" cx="200" cy="200" r="190.3"/>
<circle fill="#D1D4D5" cx="200" cy="200" r="181.2"/>
<g>
	<defs>
		<circle id="SVGID_1_" cx="200" cy="200" r="181.2"/>
	</defs>
	<clipPath id="SVGID_2_">
		<use xlink:href="#SVGID_1_"  overflow="visible"/>
	</clipPath>
	<g clip-path="url(#SVGID_2_)">
		<path fill="#DFBA98" d="M137.1,325.7l-11.4-1.3l-18.6-2.1l-7.2-0.8c-0.7,10.4-1,21.7-0.9,33.9c0,0-0.2,2.2-0.5,6
			c9.4,3.8,19,7.1,28.8,9.9l0.1-0.7c0,0,6.9-11.3,12.5-27.7l1-7.8l1.2-8.8L137.1,325.7z"/>
		<path fill="#DFBA98" d="M202.9,185.9c-14.4-0.1-22.8-10.3-25.2-13.6c0,0.1,0,0.2-0.1,0.3c-0.3,1.9-0.6,3.6-1,5.3
			c-1.8,8.1-4.2,14.1-7.6,16.7l0,0c0,0,0.9,2.6,2.9,6.2c3.3,6.1,9.9,14.9,20.7,18.5c3.1,1,6.5,1.6,10.3,1.7v-19L202.9,185.9
			C203,185.9,203,185.9,202.9,185.9z"/>
		<path fill="#DFBA98" d="M203.1,221v-19.1c0,0-0.1,0-0.1,0v19C203,221,203.1,221,203.1,221z"/>
		<path fill="#EECFAB" d="M263.3,338.4c0.1-0.2,0.2-0.5,0.3-0.7c-0.4-1.2-0.7-2.4-1.1-3.7L263.3,338.4z"/>
		<path fill="#EECFAB" d="M229.3,176.5c-0.3-1.3-0.5-2.6-0.7-4v-0.1c0-0.1,0-0.3-0.1-0.4c-2.3,3.7-10.1,13.8-25.5,13.8
			c0,0-0.1,0-0.1,0V202c0,0,0.1,0,0.1,0V221c0,0,0,0,0,0c2.9,0,5.6-0.4,8.1-1c9.7-2.4,16.3-9,20.4-14.9c1-1.5,1.9-2.9,2.7-4.3
			c2-3.6,2.9-6.3,2.9-6.3l0,0C233.6,191.8,231.1,185.2,229.3,176.5z"/>
		<path opacity="0.7" fill="#BD967F" d="M177.8,170.2c-0.1,0.6-0.2,1.3-0.3,1.9c0,0.1,0.1,0.1,0.2,0.2c0.1-0.7,0.2-1.4,0.3-2
			C177.9,170.2,177.9,170.2,177.8,170.2z"/>
		<path opacity="0.7" fill="#BD967F" d="M228.5,172.1C228.5,172,228.6,172,228.5,172.1l0-0.1c-0.1-0.9-0.3-1.8-0.4-2.6
			c0,0,0,0-0.1,0C228.3,170.2,228.4,171.2,228.5,172.1z"/>
		<path fill="#DFBA98" d="M202.9,185.9C203,185.9,203,185.9,202.9,185.9l0.1-12.4c0,0-0.1,0-0.1,0c-0.2,0-0.4,0-0.6,0
			c-0.1,0-0.2,0-0.3,0c-0.1,0-0.2,0-0.3,0c-0.1,0-0.2,0-0.2,0c-0.1,0-0.2,0-0.2,0c-7.4,0-15.3-1.1-23.2-3.3c-0.1,0.7-0.2,1.4-0.3,2
			C180.1,175.6,188.5,185.8,202.9,185.9z"/>
		<path fill="#EECFAB" d="M209.4,173.1c-0.2,0-0.3,0-0.5,0c-0.7,0.1-1.4,0.1-2.2,0.2c-0.3,0-0.6,0-1,0.1c-1,0.1-1.9,0.1-2.8,0.1
			v12.4c0,0,0,0,0.1,0c15.4,0,23.2-10.1,25.5-13.8c-0.1-0.9-0.3-1.8-0.4-2.8C221.8,171.2,215.5,172.5,209.4,173.1z"/>
		<path opacity="0.7" fill="#BD967F" d="M228.1,169.3c-6.3,1.9-12.6,3.2-18.7,3.8c-0.2,0-0.3,0-0.5,0c-0.7,0.1-1.4,0.1-2.2,0.2
			c-0.3,0-0.6,0-1,0.1c-1,0.1-1.9,0.1-2.8,0.1c0,0-0.1,0-0.1,0c-0.2,0-0.4,0-0.6,0c-0.1,0-0.2,0-0.3,0c-0.1,0-0.2,0-0.3,0
			c-0.1,0-0.2,0-0.2,0c-0.1,0-0.2,0-0.2,0c-7.4,0-15.3-1.1-23.2-3.3c-0.1,0.7-0.2,1.4-0.3,2c2.4,3.3,10.9,13.6,25.2,13.6
			c0,0,0,0,0.1,0c0,0,0,0,0.1,0c15.4,0,23.2-10.1,25.5-13.8C228.4,171.2,228.3,170.2,228.1,169.3z"/>
		<path fill="#D1A586" d="M178.1,169.3c-0.1,0-0.1,0-0.2-0.1c0,0.3-0.1,0.7-0.1,1c0.1,0,0.1,0,0.2,0
			C178,169.9,178.1,169.6,178.1,169.3z"/>
		<path fill="#D1A586" d="M178.1,169.3c0,0.3-0.1,0.7-0.1,1c7.9,2.2,15.8,3.3,23.2,3.3c0.1,0,0.2,0,0.2,0c-0.1,0-0.2,0-0.3,0
			C194.1,173.3,186.1,171.9,178.1,169.3z"/>
		<path fill="#DCB598" d="M228.1,169c0,0.1,0,0.2,0,0.3c0,0,0,0,0.1,0C228.2,169.2,228.2,169.1,228.1,169
			C228.1,169,228.1,169,228.1,169z"/>
		<path fill="#DCB598" d="M202.9,173.5c0,0,0.1,0,0.1,0v0C202.9,173.5,202.9,173.5,202.9,173.5z"/>
		<path fill="#DCB598" d="M201.5,173.5c0.1,0,0.2,0,0.2,0c0.1,0,0.2,0,0.3,0c-0.1,0-0.3,0-0.4,0
			C201.5,173.5,201.5,173.5,201.5,173.5z"/>
		<path fill="#DCB598" d="M203.1,173.5C203,173.5,203,173.5,203.1,173.5L203.1,173.5c0.9,0,1.8,0,2.8-0.1
			C204.9,173.4,204,173.5,203.1,173.5z"/>
		<path fill="#DCB598" d="M208.9,173.2c-0.7,0.1-1.4,0.1-2.2,0.2C207.5,173.3,208.2,173.2,208.9,173.2z"/>
		<path fill="#DCB598" d="M228.1,169.3c0-0.1,0-0.2,0-0.3c-6.2,2.1-12.5,3.5-18.7,4.1C215.5,172.5,221.8,171.2,228.1,169.3z"/>
		<path fill="#DCB598" d="M201.1,173.5c0.1,0,0.2,0,0.3,0c0,0,0.1,0,0.1,0C201.4,173.5,201.3,173.5,201.1,173.5z"/>
		<path fill="#DFBC99" d="M202.3,173.5c0.2,0,0.4,0,0.6,0c-0.3,0-0.6,0-0.9,0C202.1,173.5,202.2,173.5,202.3,173.5z"/>
		<path fill="#DFBC99" d="M179.5,156.5c0-0.2,0-0.4,0-0.5c0,0-0.1,0-0.1,0c-0.2,2.1-0.4,4.2-0.6,6.3c-0.2,2.4-0.5,4.7-0.9,7
			c0.1,0,0.1,0,0.2,0.1c0.3-2.1,0.6-4.2,0.8-6.5C179.1,160.7,179.3,158.7,179.5,156.5z"/>
		<path fill="#DFBC99" d="M203,159v14.5c0,0,0,0,0.1,0L203,159C203,159,203,159,203,159z"/>
		<path fill="#EFCFAB" d="M209.4,173.1c-0.2,0-0.3,0-0.5,0C209.1,173.2,209.3,173.1,209.4,173.1z"/>
		<path fill="#EFCFAB" d="M206.8,173.3c-0.3,0-0.6,0-1,0.1C206.1,173.4,206.5,173.3,206.8,173.3z"/>
		<path fill="#EFCFAB" d="M226.7,155.7C226.7,155.7,226.7,155.7,226.7,155.7c0,0.2,0,0.4,0,0.6c0.2,2.1,0.4,4.1,0.6,6.1
			c0.3,2.3,0.5,4.5,0.8,6.6c0,0,0,0,0.1,0c-0.3-2.3-0.6-4.6-0.9-7.1C227.1,159.9,226.9,157.8,226.7,155.7z"/>
		<path fill="#EECFAB" d="M305.8,354.7c0.1-13.6-0.4-26-1.2-37.4l-14.1,1.6L272,321l-2.5,0.3l-7.7,0.9l-1.1,0.1l1.1,6.6l0.8,5.2
			c0.3,1.3,0.7,2.5,1.1,3.7c4.9,16.1,11.6,28.2,13.4,31.3c10-3.1,19.7-6.8,29.1-11C305.9,355.9,305.8,354.7,305.8,354.7z"/>
		<path fill="#FCDB0D" d="M237.4,194.6c0,0,0.1,0,0.2,0C237.5,194.6,237.4,194.6,237.4,194.6z"/>
		<path fill="#FCDB0D" d="M237.9,194.6c0.1,0,0.3,0,0.4,0C238.1,194.6,238,194.6,237.9,194.6z"/>
		<path fill="#FCDB0D" d="M240.4,194.7c0.3,0,0.6,0.1,0.9,0.1C241,194.7,240.6,194.7,240.4,194.7z"/>
		<path fill="#FCDB0D" d="M238.7,194.6c0.3,0,0.7,0,1.2,0.1C239.4,194.6,239,194.6,238.7,194.6z"/>
		<path fill="#FCDB0D" d="M262.6,334l-0.8-5.2c0.1,1.6,0.2,2.9,0.5,3.9C262.3,333.2,262.4,333.6,262.6,334z"/>
		<path fill="#1B75B9" d="M237.5,194.6c0.1,0,0.2,0,0.3,0C237.7,194.6,237.6,194.6,237.5,194.6z"/>
		<path fill="#1B75B9" d="M238.3,194.6c0.1,0,0.3,0,0.4,0C238.5,194.6,238.4,194.6,238.3,194.6z"/>
		<path fill="#1B75B9" d="M241.3,194.8c0.2,0,0.4,0,0.5,0.1C241.6,194.8,241.5,194.8,241.3,194.8z"/>
		<path fill="#1B75B9" d="M239.9,194.7c0.2,0,0.3,0,0.5,0C240.2,194.7,240,194.7,239.9,194.7z"/>
		<path fill="#1B75B9" d="M237.4,194.6c-0.1,0-0.2,0-0.2,0l0,0C237.2,194.6,237.3,194.6,237.4,194.6z"/>
		<polygon fill="#1B75B9" points="237.2,194.6 237.2,194.6 237.2,194.6 		"/>
		<path fill="#1B75B9" d="M203.1,221c-0.1,0-0.1,0-0.1,0v5.7c0.1,0,0.1,0,0.1,0V221z"/>
		<g>
			<path fill="#EFD051" d="M241.8,194.8c-0.2,0-0.4,0-0.5-0.1c-0.3,0-0.6-0.1-0.9-0.1c-0.2,0-0.3,0-0.5,0c-0.5,0-0.9-0.3-1.2-0.3
				c-0.1,0-0.3-0.3-0.4-0.3c-0.2,0-0.3,0-0.4,0c-0.1,0-0.2,0.3-0.3,0.3c-0.1,0-0.2,0.2-0.3,0.2c-0.1,0-0.3,0.1-0.3,0.1v0
				c0,0-0.8,2.7-2.8,6.3c-0.7,1.3-1.6,2.8-2.6,4.3c-4.1,5.9-10.6,12.9-20.4,15.4c-2.5,0.6-5.3,1.5-8.2,1.5c0,0,0,0,0,0v4.7
				c0,0,0.3,0,0.5,0c3.5,0,6.9-0.4,9.9-1.2c11.8-2.9,19.8-10.9,24.7-18c1.4-2.1,2.6-4,3.6-5.8c1.1-2.1,1.9-3.8,2.4-5
				c0.2-0.6,0.4-1.1,0.5-1.4C243.6,195.1,242.7,194.9,241.8,194.8z"/>
			<path fill="#EFD051" d="M172,200.5c-2-3.6-2.9-6.5-2.9-6.5h0c-0.4,0-0.9,0.3-1.3,0.4c-1.8,0.1-3.6,0.5-5.3,0.8
				c0.1,0.3,0.3,0.8,0.5,1.2c0.5,1.2,1.3,3,2.4,5c3.9,7.3,11.9,18.7,25.5,23.2c3.6,1.2,8.2,2,12.2,2V221c-4,0-7.3-0.8-10.3-1.8
				C181.8,215.6,175.3,206.6,172,200.5z"/>
		</g>
		<g>
			<path fill="#D1A586" d="M153.8,148.3c-1-5.4-1.7-19.9-3.1-25.4c-3.4-13-4.5-29.8,0.1-44.2c-3.6,2.2-6.2,8.4-7.2,11.6
				c-4.7,14.5,2.3,41.1,2.3,41.1h-3.2c0,0-0.7-3.3-2-7.7c-0.6,1-1.7,1.4-1.4,3.5c0.5,2.7,1.7,2.9,2.5,3.6c0.7,0.6,1.6,1.1,2.1,2.3
				c0.4,1.2,0.5,2.4,0.3,3.5c-0.5,2-3.3,0.4-5.3-0.5c-1.3-0.6-2.5-4-3.6-5.2c-2.6-2.9-3.8-8.5-1.8-11.7c2.4-3.8,6.6,5.4,8.5,6.3
				c-0.4-1.2-0.4-9.3-0.9-10.5c-7.5-6.2-12.1,0.7-11.4,9.5c1,12.1,15.8,18.3,15.5,16.9c4,21.8,22.8,36.4,41.5,41.5
				c0-0.2,0.1-0.4,0.1-0.6C172,177.4,157,165.9,153.8,148.3z"/>
			<path fill="#D1A586" d="M170.8,53.3c-1.1,0.5-2.5,1.6-4,3c1.9-1.3,3.9-2.5,6.1-3.5C172.2,52.8,171.5,53,170.8,53.3z"/>
			<path fill="#BD967F" d="M133.4,119.2c-2,3.2-0.8,8.8,1.8,11.7c1,1.1,2.3,4.6,3.6,5.2c1.9,0.9,4.8,2.5,5.3,0.5
				c0.3-1,0.2-2.3-0.3-3.5c-0.5-1.2-1.4-1.6-2.1-2.3c-0.7-0.6-2-0.8-2.5-3.6c-0.3-2,0.7-2.5,1.4-3.5c-0.6-2.2,1.8-5.2-2.3-7
				C136.5,115.9,135.8,115.4,133.4,119.2z"/>
			<path fill="#DCB598" d="M254.6,131.5c0,0,6.9-26.6,2.3-41.1c-0.2-0.5-0.8-1.4-1.6-2.5c1.9,12,0.7,24.8-2,35.1
				c-1.4,5.4-2.1,20-3.1,25.4c-3,16.7-16.9,28.7-31.9,33.8c0,0.1,0,0.1,0,0.2c18.1-5.6,35.7-19.9,39.6-40.9
				c-0.2,1.4,14.6-4.8,15.5-16.9c0.9-10.7-7.4-13.4-12.7-9.3c-3.1,8.1-4.6,16.3-4.6,16.3H254.6z M259.1,133.1
				c0.5-1.2,1.4-1.6,2.1-2.3c0.7-0.6,2-0.8,2.5-3.6c0.4-2.5-1.3-2.6-1.7-4.2c-0.7-2.9,0.2-4.4,1.4-5.6c1.2-1.1,3.1-3.2,6.1,1.7
				c2,3.2,0.8,8.8-1.7,11.7c-1,1.1-2.3,4.6-3.6,5.2c-1.9,0.9-4.8,2.5-5.3,0.5C258.6,135.5,258.7,134.3,259.1,133.1z"/>
			<path fill="#BD967F" d="M264.1,136.1c1.3-0.6,2.5-4,3.6-5.2c2.6-2.9,3.8-8.5,1.7-11.7c-3-4.8-4.9-2.7-6.1-1.7
				c-1.2,1.2-2.2,2.7-1.4,5.6c0.4,1.6,2.1,1.7,1.7,4.2c-0.5,2.7-1.7,2.9-2.5,3.6c-0.7,0.6-1.6,1.1-2.1,2.3c-0.4,1.2-0.5,2.4-0.3,3.5
				C259.3,138.5,262.2,137,264.1,136.1z"/>
			<path fill="#DFBC99" d="M202.5,154.8L202.5,154.8l0,21.1c0,0,0,0,0,0V154.8z"/>
			<path fill="#DFBC99" d="M186.7,182.3c-14.6-4.9-29.7-16.4-32.9-34c-1-5.4-1.7-19.9-3.1-25.4c-3.4-13-4.5-29.8,0.1-44.2
				c0.8-0.5,1.6-0.8,2.4-0.8c0,0,3.2-2.8,4.6-8.2c1-3.9,5.2-9.8,8.9-13.4c1.9-1.3,3.9-2.5,6.1-3.5c2.7-0.3,6.2-2.5,6.2-2.5
				s2.2-2,13.4-4.1c1.3-0.1,3.5-0.6,4.9-0.7c1,0.1,1.7-0.4,2.6-0.1c0.2,0.1,0.9-0.1,1.1,0c0.2,0.1,1.2-0.4,1.4-0.3v109.6h0v21.1v9.1
				c0,0-0.1,0-0.1,0c-0.2,0-0.4,0-0.5,0c-0.1,0-0.2,0-0.3,0c-0.1,0-0.2,0-0.3,0c0,0-0.1,0-0.1,0v0
				C196.3,185.4,186.7,182.3,186.7,182.3z"/>
			<path fill="#131213" d="M140.6,123.8c0.1-0.2,0.3-0.4,0.3-0.7"/>
			<path fill="#131213" d="M141,123.1c-0.1,0.3-0.2,0.5-0.3,0.7c1.3,4.4,2,7.7,2,7.7h3.2c0,0-6.9-26.6-2.3-41.1
				c1.1-3.3,3.6-9.4,7.2-11.6c1.6-5.2,4-10,7.3-14.3c2.4-3.2,5.3-5.9,8.7-8.2c1.5-1.4,2.9-2.5,4-3c0.8-0.3,1.5-0.5,2.1-0.6
				c6.1-2.9,12.4-4.9,20.6-5.5c0.1,0,0.9-0.1,1-0.1c1.2-0.2,1.9-0.9,3-0.8c0.9,0,2.6-0.9,3.6-0.9c0.2,0,0.8-0.2,1-0.2
				c0.1,0,0.1,0,0.2,0c0.2,0,0.1,1.8,0.2,1.8c5.4,0,10.3,0.5,14.9,1.3c0,0,0,0,0,0l0,0c12.4,2.3,21.9,7.7,28.4,16.1
				c5.2,6.7,8.1,14.8,9.5,23.3c0.9,1.1,1.5,2,1.6,2.5c4.7,14.5-2.3,41.1-2.3,41.1h3.2c0,0-0.6,0.2,1.6-7.6c0.8-2.8,0.8-4.5,1.1-6.4
				c2.7-33.6,2.4-84.9-58.9-84.9c0,0-0.1,0-0.2,0c-0.1,0-0.1,0-0.2,0c-61.3,0-63.4,46.1-60.7,79.7"/>
			<path fill="#131213" d="M178,51.5c0,0,5.1-2.1,16.3-4.1c-8.2,0.7-15.4,2.5-21.5,5.4C175.5,52.5,178,51.5,178,51.5z"/>
			<path fill="#131213" d="M157.9,69.7c1-3.9,5.2-9.8,8.9-13.4c-3.3,2.3-6.2,5-8.7,8.2c-3.3,4.3-5.7,9.1-7.3,14.3
				c0.8-0.5,1.6-0.8,2.4-0.8C153.2,77.9,156.5,75.2,157.9,69.7z"/>
			<path fill="#EFCFAB" d="M255.2,87.8"/>
			<path fill="#EFCFAB" d="M218.2,182.2c-3.9,1.3-7.9,2.2-11.7,2.6c-0.1,0-0.2,0-0.3,0c-0.5,0-0.9,0.1-1.4,0.1c-0.2,0-0.4,0-0.6,0
				c-0.6,0-1.2,0-1.7,0.1v-9.1v-21.1V53.4l-0.3-8.2c0,0,49.2-2.6,53.1,42.7c1.9,12,0.7,24.8-2,35.1c-1.4,5.4-2.1,20-3.1,25.4
				C247.1,165,233.3,177,218.2,182.2L218.2,182.2z"/>
		</g>
		<path fill="#FCDB0D" d="M168.6,194.7c-1.2,0.1-2.6,0.2-3.6,0.4v0C166,195,167.4,194.8,168.6,194.7z"/>
		<g>
			<path fill="#394170" d="M203.4,226.7c-0.1,0-0.2,0-0.3,0l-0.2,0c-2.4,0-3.8-0.3-6.8-0.6v154.9c0,0,1.5,0,2.1,0
				c1.6,0,3.2,0,4.8-0.1c2.4,0,3.1-0.1,7.1-0.2V226.1C206,226.5,205.8,226.7,203.4,226.7z"/>
			<path fill="#394170" d="M241.9,201.7c-1,1.8-1.5,3.7-2.9,5.8c-2.5,3.5-9,7.3-9,10.5v161.2c0-0.5,7-1.2,13-2v-177
				C243,200.7,242.2,201.2,241.9,201.7z"/>
			<path fill="#394170" d="M165.7,201.4c-0.4-0.8-0.7-1.6-0.7-2.3v179.7c3,0.6,10,1.1,13,1.4V217.5
				C171,212.4,168.2,206.1,165.7,201.4z"/>
			<path fill="#394170" d="M126.6,217.1c-7.5,8.5-14.1,18.8-19.1,29.5c-16,34.5-20.4,73.4-20.4,73.4l12.8,1.5l7.2,0.8l18.6,2.1
				l11.4,1.3l4.8,0.5l-1.2,8.8l-1,7.8l-4.1,30.6c3,0.7,7,1.4,10.1,2.1c0.5,0.1,2.3,0.2,2.3,0.3V200.7
				C137,204.7,132.5,210.3,126.6,217.1z"/>
			<path fill="#394170" d="M290.6,231.6c-6-10-13.6-17.3-19.8-22.7c-4-3.4-4.8-6-12.8-8v172.6c0,0,1.5-0.1,1.7-0.1
				c2.6-0.6,5.8-1.3,8.4-2l-5.1-33l-0.6-4.4c-0.1-0.4-0.2-0.9-0.3-1.3c-0.2-1-0.4-2.3-0.4-3.9l-1.1-6.6l1.1-0.1l7.7-0.9l2.5-0.3
				l18.6-2.1l14.1-1.6l11-1.2C310.9,276.4,301.4,249.6,290.6,231.6z"/>
		</g>
		<path fill="#FCDB0D" d="M163.4,196.5c0.3,0.7,1.6,1.6,1.6,2.6v-4c-2,0.1-1.3,0.1-1.9,0.2C163.3,195.6,163.2,196,163.4,196.5z"/>
		<path fill="#FCDB0D" d="M244.3,195.2c0.1,0,0.2,0,0.3,0c0,0,0,0,0,0C244.5,195.2,244.4,195.2,244.3,195.2z"/>
		<g>
			<path fill="#D5314A" d="M163.4,196.5c-0.2-0.5-0.1-0.9-0.2-1.1c0.5-0.1-2.1-0.1,1.9-0.2v0c-4,0.7-9.8,2.1-14.4,4.1
				c-1.1,0.5-2.6,1-2.6,1.5v175.1c3,1.2,10,2.2,17,3V199.1C161,198.1,163.7,197.2,163.4,196.5z"/>
			<path fill="#D5314A" d="M190.6,224.7c-5-1.7-9.6-4.2-12.6-7.1v162.7c7,0.5,10,0.7,18,0.7V226C193,225.7,192.3,225.2,190.6,224.7z
				"/>
			<path fill="#D5314A" d="M214.1,225.5c-1,0.3-1.1,0.5-4.1,0.6v154.6c6-0.3,13-0.8,20-1.5V218C223,221.3,220,224,214.1,225.5z"/>
			<path fill="#D5314A" d="M249,196.6c-2.1-0.7-3.4-1.1-5.1-1.4c-0.1,0.3,0.3,0.8,0.1,1.4c-0.4,1-1.1,2.2-1.1,3.7v177
				c4-1,11-2.2,15-3.7V201C258,199,252.1,197.6,249,196.6z"/>
		</g>
	</g>
</g>
</svg>
