<?xml version="1.0" encoding="utf-8"?>
<!-- Generator: Adobe Illustrator 18.0.0, SVG Export Plug-In . SVG Version: 6.00 Build 0)  -->
<!DOCTYPE svg PUBLIC "-//W3C//DTD SVG 1.1//EN" "http://www.w3.org/Graphics/SVG/1.1/DTD/svg11.dtd">
<svg version="1.1" id="Layer_1" xmlns="http://www.w3.org/2000/svg" xmlns:xlink="http://www.w3.org/1999/xlink" x="0px" y="0px"
	 viewBox="0 0 400 400" enable-background="new 0 0 400 400" xml:space="preserve">
<circle fill="#FFFFFF" cx="200" cy="200" r="190.3"/>
<circle fill="#D1D4D5" cx="200" cy="200" r="181.2"/>
<g>
	<defs>
		<circle id="SVGID_1_" cx="200" cy="200" r="181.2"/>
	</defs>
	<clipPath id="SVGID_2_">
		<use xlink:href="#SVGID_1_"  overflow="visible"/>
	</clipPath>
	<g clip-path="url(#SVGID_2_)">
		<path fill="#DFBA98" d="M137.1,326.2l-11.6-1.3l-18.9-2.1l-7.3-0.8c-0.7,10.5-1,22-0.9,34.4c0,0-0.2,2.2-0.5,6
			c9.5,3.9,19.2,7.2,29.2,10l0.1-0.7c0,0,7-11.4,12.6-28.1l1.1-7.9l1.2-8.9L137.1,326.2z"/>
		<path fill="#DFBA98" d="M203.8,184.5c-14.6-0.1-23.2-10.4-25.6-13.8c0,0.1,0,0.2-0.1,0.3c-0.3,1.9-0.6,3.7-1,5.4
			c-1.8,8.2-4.2,14.3-7.7,16.9l0,0c0,0,0.9,2.7,2.9,6.3c3.4,6.1,10,15.1,21,18.7c3.1,1,6.6,1.7,10.5,1.7v-19.3L203.8,184.5
			C203.9,184.5,203.8,184.5,203.8,184.5z"/>
		<path fill="#DFBA98" d="M204,220.1v-19.3c0,0-0.1,0-0.2,0v19.3C203.9,220.1,204,220.1,204,220.1z"/>
		<path fill="#EECFAB" d="M265,339.1c0.1-0.2,0.2-0.5,0.3-0.7c-0.4-1.2-0.7-2.5-1.1-3.7L265,339.1z"/>
		<path fill="#EECFAB" d="M230.5,175c-0.3-1.3-0.5-2.6-0.7-4.1v-0.1c0-0.1,0-0.3-0.1-0.4c-2.3,3.7-10.3,14-25.8,14c0,0-0.1,0-0.1,0
			v16.3c0,0,0.1,0,0.2,0v19.3c0,0,0,0,0,0c3,0,5.7-0.4,8.2-1c9.9-2.5,16.5-9.1,20.7-15.1c1.1-1.5,1.9-3,2.7-4.3
			c2-3.7,2.9-6.4,2.9-6.4l0,0C234.9,190.5,232.3,183.9,230.5,175z"/>
		<path opacity="0.7" fill="#BD967F" d="M178.4,168.6c-0.1,0.6-0.2,1.3-0.3,1.9c0,0.1,0.1,0.1,0.2,0.2c0.1-0.7,0.2-1.4,0.3-2.1
			C178.5,168.6,178.4,168.6,178.4,168.6z"/>
		<path opacity="0.7" fill="#BD967F" d="M229.8,170.5C229.8,170.5,229.8,170.4,229.8,170.5l0-0.1c-0.1-0.9-0.3-1.8-0.4-2.7
			c0,0,0,0-0.1,0C229.5,168.6,229.6,169.6,229.8,170.5z"/>
		<path fill="#DFBA98" d="M203.8,184.5C203.8,184.5,203.9,184.5,203.8,184.5l0.1-12.6c0,0-0.1,0-0.1,0c-0.2,0-0.4,0-0.6,0
			c-0.1,0-0.2,0-0.3,0c-0.1,0-0.2,0-0.3,0c-0.1,0-0.2,0-0.2,0c-0.1,0-0.2,0-0.2,0c-7.5,0-15.5-1.1-23.5-3.3
			c-0.1,0.7-0.2,1.4-0.3,2.1C180.7,174.1,189.2,184.4,203.8,184.5z"/>
		<path fill="#EECFAB" d="M210.4,171.6c-0.2,0-0.3,0-0.5,0c-0.7,0.1-1.5,0.1-2.2,0.2c-0.3,0-0.7,0-1,0.1c-1,0.1-1.9,0.1-2.9,0.1
			v12.6c0,0,0,0,0.1,0c15.6,0,23.5-10.3,25.8-14c-0.1-0.9-0.3-1.9-0.4-2.8C223,169.7,216.6,171,210.4,171.6z"/>
		<path opacity="0.7" fill="#BD967F" d="M229.4,167.7c-6.4,2-12.8,3.3-19,3.9c-0.2,0-0.3,0-0.5,0c-0.7,0.1-1.5,0.1-2.2,0.2
			c-0.3,0-0.7,0-1,0.1c-1,0.1-1.9,0.1-2.9,0.1c0,0-0.1,0-0.1,0c-0.2,0-0.4,0-0.6,0c-0.1,0-0.2,0-0.3,0c-0.1,0-0.2,0-0.3,0
			c-0.1,0-0.2,0-0.2,0c-0.1,0-0.2,0-0.2,0c-7.5,0-15.5-1.1-23.5-3.3c-0.1,0.7-0.2,1.4-0.3,2.1c2.4,3.4,11,13.7,25.6,13.8
			c0,0,0,0,0.1,0c0,0,0,0,0.1,0c15.6,0,23.5-10.3,25.8-14C229.6,169.6,229.5,168.6,229.4,167.7z"/>
		<path fill="#D1A586" d="M178.7,167.7c-0.1,0-0.1,0-0.2-0.1c0,0.3-0.1,0.7-0.2,1c0.1,0,0.1,0,0.2,0
			C178.6,168.3,178.6,168,178.7,167.7z"/>
		<path fill="#D1A586" d="M178.7,167.7c0,0.3-0.1,0.7-0.2,1c8,2.2,16,3.3,23.5,3.3c0.1,0,0.2,0,0.2,0c-0.1,0-0.2,0-0.3,0
			C194.8,171.8,186.8,170.4,178.7,167.7z"/>
		<path fill="#DCB598" d="M229.3,167.4c0,0.1,0,0.2,0,0.3c0,0,0,0,0.1,0C229.4,167.6,229.4,167.5,229.3,167.4
			C229.4,167.4,229.3,167.4,229.3,167.4z"/>
		<path fill="#DCB598" d="M203.7,171.9c0,0,0.1,0,0.1,0v0C203.8,171.9,203.8,171.9,203.7,171.9z"/>
		<path fill="#DCB598" d="M202.3,172c0.1,0,0.2,0,0.2,0c0.1,0,0.2,0,0.3,0c-0.1,0-0.3,0-0.4,0C202.4,172,202.4,172,202.3,172z"/>
		<path fill="#DCB598" d="M203.9,171.9C203.9,171.9,203.9,171.9,203.9,171.9L203.9,171.9c0.9,0,1.8,0,2.8-0.1
			C205.8,171.9,204.9,171.9,203.9,171.9z"/>
		<path fill="#DCB598" d="M209.9,171.6c-0.7,0.1-1.5,0.1-2.2,0.2C208.5,171.7,209.2,171.7,209.9,171.6z"/>
		<path fill="#DCB598" d="M229.4,167.7c0-0.1,0-0.2,0-0.3c-6.3,2.2-12.7,3.6-18.9,4.2C216.6,171,223,169.7,229.4,167.7z"/>
		<path fill="#DCB598" d="M202,171.9c0.1,0,0.2,0,0.3,0c0,0,0.1,0,0.1,0C202.3,172,202.1,171.9,202,171.9z"/>
		<path fill="#DFBC99" d="M203.2,172c0.2,0,0.4,0,0.6,0c-0.3,0-0.6,0-0.9,0C203,172,203.1,172,203.2,172z"/>
		<path fill="#DFBC99" d="M180.1,154.8c0-0.2,0-0.4,0-0.6c0,0-0.1,0-0.1,0c-0.2,2.2-0.4,4.3-0.6,6.4c-0.2,2.4-0.5,4.8-0.9,7.1
			c0.1,0,0.1,0,0.2,0.1c0.3-2.1,0.6-4.3,0.8-6.5C179.7,159,179.9,156.9,180.1,154.8z"/>
		<path fill="#DFBC99" d="M203.9,157.3v14.7c0,0,0,0,0.1,0L203.9,157.3C203.9,157.3,203.9,157.3,203.9,157.3z"/>
		<path fill="#EFCFAB" d="M210.4,171.6c-0.2,0-0.3,0-0.5,0C210.1,171.6,210.2,171.6,210.4,171.6z"/>
		<path fill="#EFCFAB" d="M207.7,171.8c-0.3,0-0.7,0-1,0.1C207.1,171.8,207.4,171.8,207.7,171.8z"/>
		<path fill="#EFCFAB" d="M227.9,153.9C227.9,153.9,227.9,153.9,227.9,153.9c0,0.2,0,0.4,0,0.6c0.2,2.1,0.4,4.2,0.6,6.2
			c0.3,2.3,0.5,4.5,0.8,6.7c0,0,0,0,0.1,0c-0.3-2.3-0.6-4.7-0.9-7.2C228.3,158.1,228.1,156,227.9,153.9z"/>
		<path fill="#EECFAB" d="M308.1,355.6c0.1-13.8-0.4-26.4-1.2-37.9l-14.2,1.6l-18.9,2.1l-2.6,0.3l-7.8,0.9l-1.1,0.1l1.1,6.7l0.9,5.3
			c0.3,1.3,0.7,2.5,1.1,3.7c4.9,16.3,11.7,28.6,13.6,31.7c10.1-3.2,20-6.9,29.5-11.2C308.2,356.8,308.1,355.6,308.1,355.6z"/>
		<path fill="#FCDB0D" d="M238.7,193.3c0,0,0.1,0,0.2,0C238.8,193.3,238.8,193.3,238.7,193.3z"/>
		<path fill="#FCDB0D" d="M239.2,193.3c0.1,0,0.3,0,0.4,0C239.5,193.3,239.4,193.3,239.2,193.3z"/>
		<path fill="#FCDB0D" d="M241.8,193.4c0.3,0,0.6,0.1,0.9,0.1C242.4,193.5,242.1,193.4,241.8,193.4z"/>
		<path fill="#FCDB0D" d="M240,193.3c0.3,0,0.8,0,1.2,0.1C240.8,193.4,240.4,193.3,240,193.3z"/>
		<path fill="#FCDB0D" d="M264.3,334.7l-0.9-5.3c0.1,1.6,0.2,3,0.5,4C264,333.8,264.1,334.2,264.3,334.7z"/>
		<path fill="#1B75B9" d="M238.9,193.3c0.1,0,0.2,0,0.3,0C239.1,193.3,239,193.3,238.9,193.3z"/>
		<path fill="#1B75B9" d="M239.6,193.3c0.1,0,0.3,0,0.4,0C239.9,193.3,239.8,193.3,239.6,193.3z"/>
		<path fill="#1B75B9" d="M242.7,193.5c0.2,0,0.4,0,0.5,0.1C243.1,193.6,242.9,193.5,242.7,193.5z"/>
		<path fill="#1B75B9" d="M241.2,193.4c0.2,0,0.3,0,0.5,0C241.6,193.4,241.4,193.4,241.2,193.4z"/>
		<path fill="#1B75B9" d="M238.7,193.3c-0.1,0-0.2,0-0.2,0l0,0C238.5,193.4,238.6,193.3,238.7,193.3z"/>
		<polygon fill="#1B75B9" points="238.5,193.4 238.5,193.4 238.5,193.4 		"/>
		<path fill="#1B75B9" d="M204,220.1c-0.1,0-0.1,0-0.2,0v5.7c0.1,0,0.1,0,0.2,0V220.1z"/>
		<g>
			<path fill="#FFFFFF" d="M243.2,193.6c-0.2,0-0.4,0-0.5-0.1c-0.3,0-0.6-0.1-0.9-0.1c-0.2,0-0.3,0-0.5,0c-0.5,0-0.9,0-1.2-0.1
				c-0.1,0-0.3,0-0.4,0c-0.2,0-0.3,0-0.4,0c-0.1,0-0.2,0-0.3,0c-0.1,0-0.2,0-0.2,0c-0.1,0-0.2,0-0.2,0l0,0c0,0-0.9,2.7-2.9,6.4
				c-0.7,1.3-1.6,2.8-2.7,4.3c-4.1,5.9-10.8,12.6-20.7,15.1c-2.5,0.6-5.3,1-8.2,1c0,0,0,0,0,0l0,5.7c0.1,0,0.3,0,0.4,0
				c3.6,0,6.9-0.4,10-1.2c12-3,20-11.1,25-18.2c1.5-2.1,2.7-4.1,3.6-5.9c1.1-2.1,1.9-3.9,2.4-5.1c0.2-0.6,0.4-1.1,0.6-1.4
				C245,193.8,244.1,193.7,243.2,193.6z"/>
			<path fill="#FFFFFF" d="M172.4,199.7c-2-3.7-2.9-6.3-2.9-6.3l0,0c-0.4,0-0.9,0-1.3,0.1c-1.8,0.1-3.6,0.3-5.4,0.6
				c0.1,0.3,0.3,0.7,0.5,1.2c0.5,1.2,1.3,3,2.4,5c4,7.4,12,18.9,25.8,23.5c3.7,1.2,7.8,2,12.3,2v-5.7c-3.9,0-7.3-0.6-10.5-1.7
				C182.4,214.7,175.8,205.8,172.4,199.7z"/>
		</g>
		<g>
			<path fill="#D1A586" d="M154.1,146.5c-1-5.4-1.7-20.2-3.1-25.7c-3.4-13.2-4.6-30.2,0.1-44.8c-3.6,2.2-6.2,8.5-7.3,11.8
				c-4.7,14.7,2.3,41.7,2.3,41.7h-3.3c0,0-0.7-3.3-2-7.8c-0.6,1-1.7,1.5-1.4,3.5c0.5,2.8,1.8,3,2.5,3.6c0.7,0.6,1.6,1.1,2.1,2.3
				c0.4,1.2,0.5,2.4,0.3,3.5c-0.5,2-3.4,0.4-5.3-0.5c-1.3-0.6-2.6-4.1-3.6-5.2c-2.6-2.9-3.8-8.6-1.8-11.9c2.4-3.9,6.7,5.5,8.6,6.4
				c-0.4-1.2-0.5-9.4-1-10.7c-7.6-6.3-12.3,0.7-11.6,9.6c1,12.2,16,18.6,15.8,17.1c4,22.1,23.1,36.8,42.1,42.1
				c0-0.2,0.1-0.4,0.1-0.6C172.5,175.9,157.3,164.2,154.1,146.5z"/>
			<path fill="#D1A586" d="M171.2,50.1c-1.1,0.5-2.6,1.6-4,3c1.9-1.3,4-2.5,6.2-3.6C172.7,49.6,172,49.8,171.2,50.1z"/>
			<path fill="#BD967F" d="M133.4,116.9c-2,3.3-0.8,8.9,1.8,11.9c1,1.2,2.3,4.6,3.6,5.2c2,0.9,4.9,2.5,5.3,0.5
				c0.3-1.1,0.2-2.3-0.3-3.5c-0.5-1.2-1.4-1.7-2.1-2.3c-0.7-0.6-2-0.8-2.5-3.6c-0.3-2.1,0.8-2.5,1.4-3.5c-0.6-2.2,1.8-5.3-2.3-7.1
				C136.5,113.6,135.8,113.1,133.4,116.9z"/>
			<path fill="#DCB598" d="M256.2,129.4c0,0,7-27,2.3-41.7c-0.2-0.5-0.8-1.4-1.6-2.6c2,12.2,0.7,25.1-2,35.6
				c-1.4,5.5-2.2,20.3-3.1,25.7c-3.1,16.9-17.1,29-32.3,34.3c0,0.1,0,0.1,0,0.2c18.3-5.7,36.2-20.1,40.1-41.5
				c-0.2,1.4,14.8-4.9,15.8-17.1c0.9-10.8-7.5-13.6-12.8-9.4c-3.2,8.2-4.7,16.5-4.7,16.5H256.2z M260.8,131c0.5-1.2,1.4-1.7,2.1-2.3
				c0.7-0.6,2-0.8,2.5-3.6c0.4-2.5-1.3-2.6-1.7-4.2c-0.8-2.9,0.2-4.5,1.4-5.6c1.2-1.1,3.1-3.2,6.2,1.7c2,3.3,0.8,8.9-1.8,11.9
				c-1,1.2-2.3,4.6-3.6,5.2c-2,0.9-4.9,2.5-5.4,0.5C260.3,133.4,260.3,132.2,260.8,131z"/>
			<path fill="#BD967F" d="M265.9,134c1.3-0.6,2.6-4.1,3.6-5.2c2.6-2.9,3.8-8.6,1.8-11.9c-3.1-4.9-5-2.8-6.2-1.7
				c-1.2,1.2-2.2,2.7-1.4,5.6c0.4,1.6,2.2,1.8,1.7,4.2c-0.5,2.8-1.8,3-2.5,3.6c-0.7,0.6-1.6,1.1-2.1,2.3c-0.4,1.2-0.5,2.4-0.3,3.5
				C261,136.5,263.9,134.9,265.9,134z"/>
			<path fill="#DFBC99" d="M203.3,153L203.3,153l0,21.4c0,0,0,0,0,0V153z"/>
			<path fill="#DFBC99" d="M187.4,180.9c-14.8-5-30.1-16.7-33.3-34.4c-1-5.4-1.7-20.2-3.1-25.7c-3.4-13.2-4.6-30.2,0.1-44.8
				c0.8-0.5,1.6-0.8,2.5-0.8c0,0,3.3-2.8,4.7-8.4c1-4,5.2-9.9,9-13.6c1.9-1.3,4-2.5,6.2-3.6c2.7-0.3,6.3-2.5,6.3-2.5s2.2-2,13.6-4.1
				c1.3-0.1,3.6-0.6,4.9-0.7c1,0.1,1.8-0.4,2.7-0.1c0.2,0.1,0.9-0.1,1.1,0c0.2,0.1,1.2-0.4,1.4-0.3V153h0v21.4v9.2c0,0-0.1,0-0.1,0
				c-0.2,0-0.4,0-0.5,0c-0.1,0-0.2,0-0.3,0c-0.1,0-0.2,0-0.3,0c0,0-0.1,0-0.1,0v0C197.1,184,187.4,180.9,187.4,180.9z"/>
			<path fill="#131213" d="M140.7,121.6c0.1-0.2,0.3-0.4,0.3-0.7"/>
			<path fill="#131213" d="M141,120.9c-0.1,0.3-0.2,0.5-0.3,0.7c1.3,4.5,2,7.8,2,7.8h3.3c0,0-7-27-2.3-41.7
				c1.1-3.3,3.7-9.6,7.3-11.8c1.7-5.2,4.1-10.2,7.4-14.5c2.5-3.2,5.4-6,8.8-8.3c1.5-1.4,2.9-2.5,4-3c0.8-0.3,1.5-0.5,2.1-0.6
				c6.2-3,12.6-4.9,20.9-5.6c0.1,0,0.9-0.1,1-0.1c1.2-0.2,1.9-0.9,3-0.8c0.9,0,2.6-0.9,3.6-0.9c0.2,0,0.8-0.2,1-0.2
				c0.1,0,0.1,0,0.2,0c0.2,0,0.1,1.8,0.2,1.8c5.4,0,10.5,0.5,15.1,1.4c0,0,0,0,0,0l0,0c12.6,2.4,22.2,7.8,28.8,16.3
				c5.2,6.8,8.2,15.1,9.6,23.7c0.9,1.2,1.5,2.1,1.6,2.6c4.7,14.7-2.3,41.7-2.3,41.7h3.3c0,0-0.6,0.2,1.6-7.7
				c0.8-2.9,0.8-4.6,1.1-6.5c2.8-34,2.4-86-59.7-86c0,0-0.1,0-0.2,0c-0.1,0-0.1,0-0.2,0c-62.1,0-64.2,46.7-61.5,80.8"/>
			<path fill="#131213" d="M178.6,48.3c0,0,5.2-2.1,16.5-4.2c-8.4,0.7-15.6,2.5-21.8,5.5C176.1,49.3,178.6,48.3,178.6,48.3z"/>
			<path fill="#131213" d="M158.2,66.7c1-4,5.2-9.9,9-13.6c-3.4,2.3-6.3,5.1-8.8,8.3c-3.3,4.3-5.7,9.2-7.4,14.5
				c0.8-0.5,1.6-0.8,2.5-0.8C153.5,75.1,156.7,72.3,158.2,66.7z"/>
			<path fill="#EFCFAB" d="M256.8,85.1"/>
			<path fill="#EFCFAB" d="M219.3,180.8c-3.9,1.4-8,2.2-11.9,2.6c-0.1,0-0.2,0-0.3,0c-0.5,0-0.9,0.1-1.4,0.1c-0.2,0-0.4,0-0.6,0
				c-0.6,0-1.2,0.1-1.8,0.1v-9.2V153V50.2l-0.3-8.3c0,0,49.9-2.6,53.8,43.3c2,12.2,0.7,25.1-2,35.6c-1.4,5.5-2.2,20.3-3.1,25.7
				C248.6,163.4,234.6,175.5,219.3,180.8L219.3,180.8z"/>
		</g>
		<path fill="#FCDB0D" d="M167.7,193.4c-1.3,0.1-2.7,0.2-3.7,0.4v0C165,193.7,166.4,193.5,167.7,193.4z"/>
		<g>
			<path fill="#DE1327" d="M203.8,225.9C203.7,225.9,203.9,225.8,203.8,225.9l-0.6,0c-2.4,0-3.2-0.3-7.2-0.6v157c0,0,1.9,0,2.5,0
				c1.7,0,3,0,4.6-0.1c2.4,0,2.9-0.1,6.9-0.2V225.3C206,225.7,206.2,225.9,203.8,225.9z"/>
			<path fill="#DE1327" d="M243.7,200.5c-1,1.8-1.8,3.8-3.2,5.9c-2.5,3.6-9.4,7.4-9.4,10.6v163.4c0-0.5,8-1.2,14-2V199.1
				C245,199.6,243.9,200,243.7,200.5z"/>
			<path fill="#DE1327" d="M165.1,200.3c-0.5-0.9-1.1-1.6-1.1-2.4V380c4,0.6,12,1.1,14,1.4V216.6C172,211.4,167.6,205,165.1,200.3z"
				/>
			<path fill="#DE1327" d="M125.9,216.1c-7.6,8.7-14,19.1-19.1,29.9c-16.3,35-20.5,74.4-20.5,74.4l13,1.5l7.3,0.8l18.9,2.1l11.6,1.3
				l4.9,0.6l-1.2,8.9l-1.1,7.9l-4.2,31.1c3.1,0.7,6.6,1.5,9.7,2.1c0.5,0.1,1.8,0.2,1.8,0.3V199.6C137,203.6,131.9,209.3,125.9,216.1
				z"/>
			<path fill="#DE1327" d="M292.7,230.9c-6.1-10.2-14.1-17.6-20.4-23c-4-3.5-5.3-6.1-13.3-8.1v175c0,0,1.9-0.1,2-0.1
				c2.6-0.6,6-1.3,8.6-2l-5.1-33.5l-0.5-4.5c-0.1-0.4-0.2-0.9-0.3-1.3c-0.3-1-0.4-2.3-0.4-4l-1.1-6.7l1.1-0.1l7.8-0.9l2.6-0.3
				l18.9-2.1l14.2-1.6l11.1-1.2C313.3,276.3,303.6,249.1,292.7,230.9z"/>
		</g>
		<path fill="#FCDB0D" d="M163.1,195.2c0.3,0.7,0.9,1.6,0.9,2.7v-4c0,0.1-1,0.1-1.5,0.2C162.6,194.3,162.9,194.8,163.1,195.2z"/>
		<path fill="#FCDB0D" d="M245.8,194c0.1,0,0.2,0,0.3,0c0,0,0,0,0,0C245.9,194,245.9,194,245.8,194z"/>
		<g>
			<path fill="#0E3D97" d="M163.1,195.2c-0.2-0.5-0.5-0.9-0.6-1.2c0.5-0.1-0.5-0.1,1.5-0.2v0c-2,0.7-9.8,2.1-14.5,4.2
				c-1.1,0.5-2.5,1-2.5,1.5V377c4,1.2,11,2.2,17,3V197.9C162,196.9,163.4,195.9,163.1,195.2z"/>
			<path fill="#0E3D97" d="M190.7,223.8c-5-1.7-8.7-4.3-12.7-7.2v164.9c8,0.5,12,0.7,18,0.7v-157C192,224.8,192.4,224.4,190.7,223.8
				z"/>
			<path fill="#0E3D97" d="M214.5,224.7c-1,0.3-0.5,0.5-4.5,0.6v156.7c8-0.3,14-0.8,21-1.5V217C224,220.4,220.5,223.1,214.5,224.7z"
				/>
			<path fill="#0E3D97" d="M250.2,195.4c-2.2-0.7-3.3-1.1-5-1.4c-0.1,0.3,0.7,0.8,0.5,1.4c-0.4,1-0.7,2.2-0.7,3.7v179.4
				c4-1,12-2.3,14-3.7v-175C259,197.8,253.3,196.4,250.2,195.4z"/>
		</g>
	</g>
</g>
</svg>
