<?xml version="1.0" encoding="utf-8"?>
<!-- Generator: Adobe Illustrator 18.0.0, SVG Export Plug-In . SVG Version: 6.00 Build 0)  -->
<!DOCTYPE svg PUBLIC "-//W3C//DTD SVG 1.1//EN" "http://www.w3.org/Graphics/SVG/1.1/DTD/svg11.dtd">
<svg version="1.1" id="Layer_1" xmlns="http://www.w3.org/2000/svg" xmlns:xlink="http://www.w3.org/1999/xlink" x="0px" y="0px"
	 viewBox="0 0 400 400" enable-background="new 0 0 400 400" xml:space="preserve">
<circle fill="#FFFFFF" cx="200" cy="200" r="190.3"/>
<circle fill="#D1D4D5" cx="200" cy="200" r="181.2"/>
<g>
	<defs>
		<circle id="SVGID_1_" cx="200" cy="200" r="181.2"/>
	</defs>
	<clipPath id="SVGID_2_">
		<use xlink:href="#SVGID_1_"  overflow="visible"/>
	</clipPath>
	<g clip-path="url(#SVGID_2_)">
		<path fill="#DFBA98" d="M137.7,324.7l-11.5-1.3l-18.8-2.1l-7.3-0.8c-0.7,10.5-1,21.9-0.9,34.2c0,0-0.2,2.2-0.5,6
			c9.4,3.9,19.1,7.2,29,10l0.1-0.7c0,0,7-11.4,12.6-27.9l1-7.8l1.2-8.9L137.7,324.7z"/>
		<path fill="#DFBA98" d="M204.1,183.8c-14.5-0.1-23-10.4-25.4-13.7c0,0.1,0,0.2-0.1,0.3c-0.3,1.9-0.6,3.6-1,5.3
			c-1.8,8.1-4.2,14.2-7.6,16.8l0,0c0,0,0.9,2.7,2.9,6.3c3.4,6.1,9.9,15,20.8,18.6c3.1,1,6.6,1.7,10.4,1.7V200L204.1,183.8
			C204.1,183.8,204.1,183.8,204.1,183.8z"/>
		<path fill="#DFBA98" d="M204.3,219.2V200c0,0-0.1,0-0.2,0v19.2C204.2,219.2,204.2,219.2,204.3,219.2z"/>
		<path fill="#EECFAB" d="M264.9,337.5c0.1-0.2,0.2-0.5,0.3-0.7c-0.4-1.2-0.7-2.5-1.1-3.7L264.9,337.5z"/>
		<path fill="#EECFAB" d="M230.6,174.4c-0.3-1.3-0.5-2.6-0.7-4v-0.1c0-0.1,0-0.3-0.1-0.4c-2.3,3.7-10.2,13.9-25.7,13.9
			c0,0-0.1,0-0.1,0V200c0,0,0.1,0,0.2,0v19.2l0,0c3,0,5.7-0.4,8.2-1c9.8-2.5,16.4-9.1,20.5-15c1.1-1.5,1.9-3,2.7-4.3
			c2-3.6,2.9-6.3,2.9-6.3l0,0C235,189.8,232.4,183.2,230.6,174.4z"/>
		<path opacity="0.7" fill="#BD967F" d="M178.8,168c-0.1,0.6-0.2,1.3-0.3,1.9c0,0.1,0.1,0.1,0.2,0.2c0.1-0.7,0.2-1.4,0.3-2
			C178.9,168,178.8,168,178.8,168z"/>
		<path opacity="0.7" fill="#BD967F" d="M229.9,169.9C229.9,169.9,229.9,169.8,229.9,169.9l0-0.1c-0.1-0.9-0.3-1.8-0.4-2.7
			c0,0,0,0-0.1,0C229.6,168,229.7,169,229.9,169.9z"/>
		<path fill="#DFBA98" d="M204.1,183.8C204.1,183.8,204.1,183.8,204.1,183.8l0.1-12.5c0,0-0.1,0-0.1,0c-0.2,0-0.4,0-0.6,0
			c-0.1,0-0.2,0-0.3,0c-0.1,0-0.2,0-0.3,0c-0.1,0-0.2,0-0.2,0c-0.1,0-0.2,0-0.2,0c-7.5,0-15.4-1.1-23.4-3.3c-0.1,0.7-0.2,1.4-0.3,2
			C181,173.4,189.6,183.7,204.1,183.8z"/>
		<path fill="#EECFAB" d="M210.6,170.9c-0.2,0-0.3,0-0.5,0c-0.7,0.1-1.5,0.1-2.2,0.2c-0.3,0-0.6,0-1,0.1c-1,0.1-1.9,0.1-2.9,0.1
			v12.5c0,0,0,0,0.1,0c15.5,0,23.3-10.2,25.7-13.9c-0.1-0.9-0.3-1.9-0.4-2.8C223.1,169.1,216.8,170.3,210.6,170.9z"/>
		<path opacity="0.7" fill="#BD967F" d="M229.5,167.1c-6.3,2-12.7,3.3-18.9,3.9c-0.2,0-0.3,0-0.5,0c-0.7,0.1-1.5,0.1-2.2,0.2
			c-0.3,0-0.6,0-1,0.1c-1,0.1-1.9,0.1-2.9,0.1c0,0-0.1,0-0.1,0c-0.2,0-0.4,0-0.6,0c-0.1,0-0.2,0-0.3,0c-0.1,0-0.2,0-0.3,0
			c-0.1,0-0.2,0-0.2,0c-0.1,0-0.2,0-0.2,0c-7.5,0-15.4-1.1-23.4-3.3c-0.1,0.7-0.2,1.4-0.3,2c2.4,3.3,10.9,13.7,25.4,13.7
			c0,0,0,0,0.1,0c0,0,0,0,0.1,0c15.5,0,23.3-10.2,25.7-13.9C229.7,169,229.6,168,229.5,167.1z"/>
		<path fill="#D1A586" d="M179.1,167c-0.1,0-0.1,0-0.2-0.1c0,0.3-0.1,0.7-0.1,1c0.1,0,0.1,0,0.2,0C179,167.7,179,167.4,179.1,167z"
			/>
		<path fill="#D1A586" d="M179.1,167c0,0.3-0.1,0.7-0.1,1c8,2.2,15.9,3.3,23.4,3.3c0.1,0,0.2,0,0.2,0c-0.1,0-0.2,0-0.3,0
			C195.1,171.2,187.2,169.7,179.1,167z"/>
		<path fill="#DCB598" d="M229.4,166.8c0,0.1,0,0.2,0,0.3c0,0,0,0,0.1,0C229.5,167,229.5,166.9,229.4,166.8
			C229.5,166.8,229.4,166.8,229.4,166.8z"/>
		<path fill="#DCB598" d="M204,171.3c0,0,0.1,0,0.1,0v0C204.1,171.3,204,171.3,204,171.3z"/>
		<path fill="#DCB598" d="M202.6,171.3c0.1,0,0.2,0,0.2,0c0.1,0,0.2,0,0.3,0c-0.1,0-0.3,0-0.4,0
			C202.7,171.3,202.6,171.3,202.6,171.3z"/>
		<path fill="#DCB598" d="M204.2,171.3C204.2,171.3,204.1,171.3,204.2,171.3L204.2,171.3c0.9,0,1.8,0,2.8-0.1
			C206,171.3,205.1,171.3,204.2,171.3z"/>
		<path fill="#DCB598" d="M210.1,171c-0.7,0.1-1.5,0.1-2.2,0.2C208.7,171.1,209.4,171.1,210.1,171z"/>
		<path fill="#DCB598" d="M229.5,167.1c0-0.1,0-0.2,0-0.3c-6.2,2.1-12.6,3.6-18.8,4.2C216.8,170.3,223.1,169.1,229.5,167.1z"/>
		<path fill="#DCB598" d="M202.2,171.3c0.1,0,0.2,0,0.3,0c0,0,0.1,0,0.1,0C202.5,171.3,202.4,171.3,202.2,171.3z"/>
		<path fill="#DFBC99" d="M203.4,171.3c0.2,0,0.4,0,0.6,0c-0.3,0-0.6,0-0.9,0C203.2,171.3,203.3,171.3,203.4,171.3z"/>
		<path fill="#DFBC99" d="M180.5,154.2c0-0.2,0-0.4,0-0.6c0,0-0.1,0-0.1,0c-0.2,2.1-0.4,4.2-0.6,6.3c-0.2,2.4-0.5,4.7-0.9,7
			c0.1,0,0.1,0,0.2,0.1c0.3-2.1,0.6-4.3,0.8-6.5C180.1,158.5,180.3,156.4,180.5,154.2z"/>
		<path fill="#DFBC99" d="M204.1,156.7v14.6c0,0,0,0,0.1,0L204.1,156.7C204.2,156.7,204.1,156.7,204.1,156.7z"/>
		<path fill="#EFCFAB" d="M210.6,170.9c-0.2,0-0.3,0-0.5,0C210.3,171,210.4,171,210.6,170.9z"/>
		<path fill="#EFCFAB" d="M207.9,171.2c-0.3,0-0.6,0-1,0.1C207.3,171.2,207.6,171.2,207.9,171.2z"/>
		<path fill="#EFCFAB" d="M228,153.4C228,153.4,228,153.4,228,153.4c0,0.2,0,0.4,0,0.6c0.2,2.1,0.4,4.2,0.6,6.2
			c0.3,2.3,0.5,4.5,0.8,6.6c0,0,0,0,0.1,0c-0.3-2.3-0.6-4.7-0.9-7.2C228.4,157.6,228.2,155.5,228,153.4z"/>
		<path fill="#EECFAB" d="M307.7,353.9c0.1-13.7-0.4-26.2-1.2-37.6l-14.2,1.6l-18.8,2.1l-2.6,0.3l-7.8,0.9l-1.1,0.1l1.1,6.6l0.9,5.3
			c0.3,1.3,0.7,2.5,1.1,3.7c4.9,16.2,11.6,28.4,13.5,31.5c10-3.1,19.8-6.9,29.3-11.1C307.9,355.1,307.7,353.9,307.7,353.9z"/>
		<path fill="#FCDB0D" d="M238.7,192.6c0,0,0.1,0,0.2,0C238.9,192.6,238.8,192.6,238.7,192.6z"/>
		<path fill="#FCDB0D" d="M239.3,192.6c0.1,0,0.3,0,0.4,0C239.5,192.6,239.4,192.6,239.3,192.6z"/>
		<path fill="#FCDB0D" d="M241.8,192.7c0.3,0,0.6,0.1,0.9,0.1C242.4,192.7,242.1,192.7,241.8,192.7z"/>
		<path fill="#FCDB0D" d="M240.1,192.6c0.3,0,0.7,0,1.2,0.1C240.8,192.6,240.4,192.6,240.1,192.6z"/>
		<path fill="#FCDB0D" d="M264.2,333.1l-0.9-5.3c0.1,1.6,0.2,3,0.5,3.9C263.9,332.2,264,332.6,264.2,333.1z"/>
		<g>
			<path fill="#343BAD" d="M245.8,193.2c0.1,0,0.2,0,0.3,0c0,0,0,0,0,0C245.9,193.2,245.9,193.2,245.8,193.2z"/>
			<path fill="#343BAD" d="M292.4,229.9c-6-10.1-12.5-17.5-18.8-22.8c-8-6.9-15.8-10.5-21.9-12.4c-2.1-0.7-4-1.1-5.7-1.4
				c-0.1,0.3-0.3,0.8-0.5,1.4c-0.5,1.2-1.3,3-2.4,5.1c-1,1.8-2.2,3.8-3.6,5.9c-5,7.1-13,15.2-24.9,18.1c-3,0.8-6.3,1.2-9.9,1.2
				c-0.1,0-0.3,0-0.4,0l-0.2,0c-4.5-0.1-8.6-0.8-12.2-2c-13.7-4.6-21.8-16-25.7-23.4c-1.1-2.1-1.9-3.8-2.4-5
				c-0.2-0.5-0.4-0.9-0.5-1.2c1.7-0.3,3.5-0.5,5.3-0.6c-6.8,0.5-13,2.1-18.8,4.6c-9.1,4-17,10.3-23.7,18c-7.6,8.6-13.8,19-18.8,29.7
				c-16.2,34.8-20.3,74-20.3,74l13,1.5l7.3,0.8l18.8,2.1l11.5,1.3l4.8,0.6l-1.2,8.9l-1,7.8l-4.1,30.9c3,0.7,6.1,1.4,9.2,2.1
				c17.4,3.6,35.5,5.5,54,5.5c1.6,0,3.3,0,4.9-0.1c20-0.4,39.5-2.9,58.2-7.5c2.6-0.6,5.2-1.3,7.8-2l-5.4-33.3l-0.7-4.4
				c-0.1-0.4-0.2-0.9-0.4-1.3c-0.3-1-0.4-2.3-0.5-3.9l-1.1-6.6l1.1-0.1l7.8-0.9l2.6-0.3l18.8-2.1l14.2-1.6l11.1-1.2
				C312.9,275,303.3,248.1,292.4,229.9z"/>
		</g>
		<path fill="#1B75B9" d="M238.9,192.6c0.1,0,0.2,0,0.3,0C239.1,192.6,239,192.6,238.9,192.6z"/>
		<path fill="#1B75B9" d="M239.7,192.6c0.1,0,0.3,0,0.4,0C239.9,192.6,239.8,192.6,239.7,192.6z"/>
		<path fill="#1B75B9" d="M242.7,192.8c0.2,0,0.4,0,0.5,0.1C243.1,192.8,242.9,192.8,242.7,192.8z"/>
		<path fill="#1B75B9" d="M241.3,192.6c0.2,0,0.3,0,0.5,0C241.6,192.7,241.4,192.6,241.3,192.6z"/>
		<path fill="#1B75B9" d="M238.7,192.6c-0.1,0-0.2,0-0.2,0l0,0C238.6,192.6,238.7,192.6,238.7,192.6z"/>
		<polygon fill="#1B75B9" points="238.6,192.6 238.6,192.6 238.6,192.6 		"/>
		<path fill="#1B75B9" d="M204.3,219.2c-0.1,0-0.1,0-0.2,0v5.7c0.1,0,0.1,0,0.2,0V219.2z"/>
		<g>
			<path fill="#22347E" d="M243.3,192.8c-0.2,0-0.4,0-0.5-0.1c-0.3,0-0.6-0.1-0.9-0.1c-0.2,0-0.3,0-0.5,0c-0.5,0-0.9,0-1.2-0.1
				c-0.1,0-0.3,0-0.4,0c-0.2,0-0.3,0-0.4,0c-0.1,0-0.2,0-0.3,0c-0.1,0-0.2,0-0.2,0c-0.1,0-0.2,0-0.2,0l0,0c0,0-0.9,2.7-2.9,6.3
				c-0.7,1.3-1.6,2.8-2.7,4.3c-4.1,5.9-10.7,12.5-20.5,15c-2.5,0.6-5.2,1-8.2,1l0,0l0,5.7c0.1,0,0.3,0,0.4,0c3.6,0,6.9-0.4,9.9-1.2
				c11.9-3,19.9-11,24.9-18.1c1.5-2.1,2.6-4.1,3.6-5.9c1.1-2.1,1.9-3.8,2.4-5.1c0.2-0.6,0.4-1.1,0.6-1.4
				C245,193,244.1,192.9,243.3,192.8z"/>
			<path fill="#22347E" d="M172.9,198.9c-2-3.6-2.9-6.3-2.9-6.3l0,0c-0.4,0-0.9,0-1.3,0.1c-1.8,0.1-3.6,0.3-5.3,0.6
				c0.1,0.3,0.3,0.7,0.5,1.2c0.5,1.2,1.3,2.9,2.4,5c3.9,7.4,11.9,18.8,25.7,23.4c3.7,1.2,7.7,2,12.2,2v-5.7c-3.8,0-7.3-0.6-10.4-1.7
				C182.8,213.9,176.2,205,172.9,198.9z"/>
		</g>
		<g>
			<path fill="#D1A586" d="M154.6,146c-1-5.4-1.7-20.1-3.1-25.5c-3.4-13.1-4.6-30.1,0.1-44.6c-3.6,2.2-6.2,8.4-7.3,11.7
				c-4.7,14.6,2.3,41.4,2.3,41.4h-3.3c0,0-0.7-3.3-2-7.8c-0.6,1-1.7,1.5-1.4,3.5c0.5,2.8,1.7,3,2.5,3.6c0.7,0.6,1.6,1.1,2.1,2.3
				c0.4,1.2,0.5,2.4,0.3,3.5c-0.5,2-3.4,0.4-5.3-0.5c-1.3-0.6-2.6-4-3.6-5.2c-2.6-2.9-3.8-8.6-1.8-11.8c2.4-3.8,6.6,5.5,8.5,6.4
				c-0.4-1.2-0.4-9.4-1-10.6c-7.6-6.3-12.2,0.7-11.5,9.6c1,12.2,15.9,18.5,15.7,17c4,22,22.9,36.6,41.8,41.8c0-0.2,0.1-0.4,0.1-0.6
				C172.9,175.3,157.8,163.7,154.6,146z"/>
			<path fill="#D1A586" d="M171.6,50.2c-1.1,0.5-2.5,1.6-4,3c1.9-1.3,3.9-2.5,6.1-3.6C173.1,49.7,172.4,49.9,171.6,50.2z"/>
			<path fill="#BD967F" d="M134,116.6c-2,3.2-0.8,8.9,1.8,11.8c1,1.2,2.3,4.6,3.6,5.2c1.9,0.9,4.8,2.5,5.3,0.5
				c0.3-1.1,0.2-2.3-0.3-3.5c-0.5-1.2-1.4-1.7-2.1-2.3c-0.7-0.6-2-0.8-2.5-3.6c-0.3-2,0.7-2.5,1.4-3.5c-0.6-2.2,1.8-5.3-2.3-7.1
				C137.1,113.3,136.5,112.8,134,116.6z"/>
			<path fill="#DCB598" d="M256.1,129c0,0,7-26.8,2.3-41.4c-0.2-0.5-0.8-1.4-1.6-2.6c2,12.1,0.7,25-2,35.4
				c-1.4,5.5-2.2,20.2-3.1,25.5c-3.1,16.8-17,28.9-32.2,34.1c0,0.1,0,0.1,0,0.2c18.2-5.6,36-20,39.9-41.2c-0.2,1.4,14.7-4.9,15.7-17
				c0.9-10.7-7.5-13.5-12.8-9.4c-3.2,8.1-4.6,16.4-4.6,16.4H256.1z M260.7,130.6c0.5-1.2,1.4-1.7,2.1-2.3c0.7-0.6,2-0.8,2.5-3.6
				c0.4-2.5-1.3-2.6-1.7-4.2c-0.8-2.9,0.2-4.4,1.4-5.6c1.2-1.1,3.1-3.2,6.1,1.7c2,3.2,0.8,8.9-1.8,11.8c-1,1.2-2.3,4.6-3.6,5.2
				c-1.9,0.9-4.9,2.5-5.3,0.5C260.2,133,260.3,131.8,260.7,130.6z"/>
			<path fill="#BD967F" d="M265.7,133.6c1.3-0.6,2.6-4,3.6-5.2c2.6-2.9,3.8-8.6,1.8-11.8c-3.1-4.9-5-2.8-6.1-1.7
				c-1.2,1.2-2.2,2.7-1.4,5.6c0.4,1.6,2.1,1.7,1.7,4.2c-0.5,2.8-1.7,3-2.5,3.6c-0.7,0.6-1.6,1.1-2.1,2.3c-0.4,1.2-0.5,2.4-0.3,3.5
				C260.9,136.1,263.8,134.5,265.7,133.6z"/>
			<path fill="#DFBC99" d="M203.6,152.5L203.6,152.5l0,21.3c0,0,0,0,0,0V152.5z"/>
			<path fill="#DFBC99" d="M187.7,180.2c-14.8-5-29.9-16.6-33.1-34.2c-1-5.4-1.7-20.1-3.1-25.5c-3.4-13.1-4.6-30.1,0.1-44.6
				c0.8-0.5,1.6-0.8,2.4-0.8c0,0,3.2-2.8,4.7-8.3c1-4,5.2-9.9,9-13.5c1.9-1.3,3.9-2.5,6.1-3.6c2.7-0.3,6.3-2.5,6.3-2.5
				s2.2-2,13.5-4.1c1.3-0.1,3.5-0.6,4.9-0.7c1,0.1,1.7-0.4,2.7-0.1c0.2,0.1,0.9-0.1,1.1,0c0.2,0.1,1.2-0.4,1.4-0.3v110.5h0v21.3v9.2
				c0,0-0.1,0-0.1,0c-0.2,0-0.4,0-0.5,0c-0.1,0-0.2,0-0.3,0c-0.1,0-0.2,0-0.3,0c0,0-0.1,0-0.1,0v0
				C197.4,183.3,187.7,180.2,187.7,180.2z"/>
			<path fill="#131213" d="M141.3,121.3c0.1-0.2,0.3-0.4,0.3-0.7"/>
			<path fill="#131213" d="M141.6,120.5c-0.1,0.3-0.2,0.5-0.3,0.7c1.3,4.4,2,7.8,2,7.8h3.3c0,0-7-26.8-2.3-41.4
				c1.1-3.3,3.7-9.5,7.3-11.7c1.7-5.2,4-10.1,7.4-14.4c2.5-3.2,5.4-5.9,8.7-8.3c1.5-1.4,2.9-2.5,4-3c0.8-0.3,1.5-0.5,2.1-0.6
				c6.1-2.9,12.5-4.9,20.8-5.6c0.1,0,0.9-0.1,1-0.1c1.2-0.2,1.9-0.9,3-0.8c0.9,0,2.6-0.9,3.6-0.9c0.2,0,0.8-0.2,1-0.2
				c0.1,0,0.1,0,0.2,0c0.2,0,0.1,1.8,0.2,1.8c5.4,0,10.4,0.5,15,1.4c0,0,0,0,0,0l0,0c12.5,2.3,22.1,7.8,28.6,16.2
				c5.2,6.8,8.2,15,9.5,23.5c0.9,1.2,1.5,2.1,1.6,2.6c4.7,14.6-2.3,41.4-2.3,41.4h3.2c0,0-0.6,0.2,1.6-7.7c0.8-2.9,0.8-4.5,1.1-6.5
				c2.7-33.8,2.4-85.5-59.4-85.5c0,0-0.1,0-0.2,0c-0.1,0-0.1,0-0.2,0c-61.8,0-63.9,46.4-61.1,80.3"/>
			<path fill="#131213" d="M179,48.4c0,0,5.2-2.1,16.4-4.2c-8.3,0.7-15.5,2.5-21.7,5.4C176.5,49.4,179,48.4,179,48.4z"/>
			<path fill="#131213" d="M158.7,66.7c1-4,5.2-9.9,9-13.5c-3.3,2.3-6.3,5.1-8.7,8.3c-3.3,4.3-5.7,9.2-7.4,14.4
				c0.8-0.5,1.6-0.8,2.4-0.8C154,75,157.2,72.2,158.7,66.7z"/>
			<path fill="#EFCFAB" d="M256.8,85"/>
			<path fill="#EFCFAB" d="M219.4,180.1c-3.9,1.3-7.9,2.2-11.8,2.6c-0.1,0-0.2,0-0.3,0c-0.5,0-0.9,0.1-1.4,0.1c-0.2,0-0.4,0-0.6,0
				c-0.6,0-1.2,0.1-1.8,0.1v-9.2v-21.3V50.3l-0.3-8.3c0,0,49.6-2.6,53.5,43c2,12.1,0.7,25-2,35.4c-1.4,5.5-2.2,20.2-3.1,25.5
				C248.6,162.8,234.7,174.9,219.4,180.1L219.4,180.1z"/>
		</g>
	</g>
</g>
</svg>
