<?xml version="1.0" encoding="utf-8"?>
<!-- Generator: Adobe Illustrator 18.0.0, SVG Export Plug-In . SVG Version: 6.00 Build 0)  -->
<!DOCTYPE svg PUBLIC "-//W3C//DTD SVG 1.1//EN" "http://www.w3.org/Graphics/SVG/1.1/DTD/svg11.dtd">
<svg version="1.1" id="Layer_1" xmlns="http://www.w3.org/2000/svg" xmlns:xlink="http://www.w3.org/1999/xlink" x="0px" y="0px"
	 viewBox="0 0 400 400" enable-background="new 0 0 400 400" xml:space="preserve">
<circle fill="#FFFFFF" cx="200" cy="200" r="190.3"/>
<circle fill="#D1D4D5" cx="200" cy="200" r="181.2"/>
<g>
	<defs>
		<circle id="SVGID_1_" cx="200" cy="200" r="181.2"/>
	</defs>
	<clipPath id="SVGID_2_">
		<use xlink:href="#SVGID_1_"  overflow="visible"/>
	</clipPath>
	<g clip-path="url(#SVGID_2_)">
		<path fill="#DFBA98" d="M137.8,329.4l-11.1-1.3l-18.1-2l-7-0.8c-0.6,10.1-1,21-0.9,32.9c0,0-0.2,2.1-0.5,5.8
			c9.1,3.7,18.4,6.9,27.9,9.6l0-0.7c0,0,6.7-10.9,12.1-26.9l1-7.5l1.1-8.5L137.8,329.4z"/>
		<path fill="#DFBA98" d="M201.6,193.8c-13.9-0.1-22.2-10-24.5-13.2c0,0.1,0,0.2,0,0.3c-0.3,1.8-0.6,3.5-0.9,5.1
			c-1.7,7.8-4.1,13.7-7.4,16.2l0,0c0,0,0.8,2.6,2.8,6.1c3.2,5.9,9.6,14.4,20.1,17.9c3,1,6.3,1.6,10,1.6v-18.5L201.6,193.8
			C201.6,193.8,201.6,193.8,201.6,193.8z"/>
		<path fill="#DFBA98" d="M201.8,227.8v-18.5c0,0-0.1,0-0.1,0v18.5C201.7,227.8,201.8,227.8,201.8,227.8z"/>
		<path fill="#EECFAB" d="M260.1,341.7c0.1-0.2,0.2-0.5,0.3-0.7c-0.4-1.2-0.7-2.4-1-3.6L260.1,341.7z"/>
		<path fill="#EECFAB" d="M227.2,184.7c-0.3-1.3-0.5-2.5-0.7-3.9v-0.1c0-0.1,0-0.3-0.1-0.4c-2.2,3.6-9.8,13.4-24.7,13.4
			c0,0-0.1,0-0.1,0v15.6c0,0,0.1,0,0.1,0v18.5c0,0,0,0,0,0c2.8,0,5.5-0.3,7.9-1c9.5-2.4,15.8-8.7,19.8-14.4c1-1.5,1.9-2.8,2.6-4.1
			c1.9-3.5,2.8-6.1,2.8-6.1l0,0C231.4,199.5,228.9,193.2,227.2,184.7z"/>
		<path opacity="0.7" fill="#BD967F" d="M177.2,178.6c-0.1,0.6-0.2,1.2-0.3,1.8c0,0.1,0.1,0.1,0.1,0.2c0.1-0.6,0.2-1.3,0.3-2
			C177.4,178.6,177.3,178.6,177.2,178.6z"/>
		<path opacity="0.7" fill="#BD967F" d="M226.4,180.4C226.4,180.4,226.5,180.3,226.4,180.4l0-0.1c-0.1-0.8-0.2-1.7-0.4-2.6
			c0,0,0,0-0.1,0C226.2,178.6,226.3,179.5,226.4,180.4z"/>
		<path fill="#DFBA98" d="M201.6,193.8C201.6,193.8,201.6,193.8,201.6,193.8l0.1-12c0,0-0.1,0-0.1,0c-0.2,0-0.4,0-0.5,0
			c-0.1,0-0.2,0-0.3,0c-0.1,0-0.2,0-0.3,0c-0.1,0-0.2,0-0.2,0c-0.1,0-0.2,0-0.2,0c-7.2,0-14.9-1.1-22.5-3.2c-0.1,0.7-0.2,1.3-0.3,2
			C179.5,183.8,187.7,193.7,201.6,193.8z"/>
		<path fill="#EECFAB" d="M207.9,181.4c-0.1,0-0.3,0-0.4,0c-0.7,0.1-1.4,0.1-2.1,0.2c-0.3,0-0.6,0-0.9,0.1c-0.9,0-1.8,0.1-2.8,0.1
			v12c0,0,0,0,0.1,0c14.9,0,22.5-9.8,24.7-13.4c-0.1-0.9-0.3-1.8-0.4-2.7C219.9,179.6,213.8,180.8,207.9,181.4z"/>
		<path opacity="0.7" fill="#BD967F" d="M226,177.7c-6.1,1.9-12.2,3.1-18.2,3.7c-0.1,0-0.3,0-0.4,0c-0.7,0.1-1.4,0.1-2.1,0.2
			c-0.3,0-0.6,0-0.9,0.1c-0.9,0-1.8,0.1-2.8,0.1c0,0-0.1,0-0.1,0c-0.2,0-0.4,0-0.5,0c-0.1,0-0.2,0-0.3,0c-0.1,0-0.2,0-0.3,0
			c-0.1,0-0.2,0-0.2,0c-0.1,0-0.2,0-0.2,0c-7.2,0-14.9-1.1-22.5-3.2c-0.1,0.7-0.2,1.3-0.3,2c2.3,3.2,10.5,13.1,24.5,13.2
			c0,0,0,0,0.1,0c0,0,0,0,0.1,0c14.9,0,22.5-9.8,24.7-13.4C226.3,179.5,226.2,178.6,226,177.7z"/>
		<path fill="#D1A586" d="M177.6,177.6c-0.1,0-0.1,0-0.2-0.1c0,0.3-0.1,0.6-0.1,1c0.1,0,0.1,0,0.2,0
			C177.5,178.3,177.5,178,177.6,177.6z"/>
		<path fill="#D1A586" d="M177.6,177.6c0,0.3-0.1,0.6-0.1,1c7.7,2.1,15.3,3.2,22.5,3.2c0.1,0,0.2,0,0.2,0c-0.1,0-0.2,0-0.3,0
			C193,181.6,185.3,180.2,177.6,177.6z"/>
		<path fill="#DCB598" d="M226,177.4c0,0.1,0,0.2,0,0.3c0,0,0,0,0.1,0C226.1,177.6,226.1,177.5,226,177.4
			C226,177.4,226,177.4,226,177.4z"/>
		<path fill="#DCB598" d="M201.5,181.8c0,0,0.1,0,0.1,0v0C201.6,181.8,201.6,181.8,201.5,181.8z"/>
		<path fill="#DCB598" d="M200.2,181.8c0.1,0,0.2,0,0.2,0c0.1,0,0.2,0,0.3,0c-0.1,0-0.3,0-0.4,0
			C200.2,181.8,200.2,181.8,200.2,181.8z"/>
		<path fill="#DCB598" d="M201.7,181.7C201.7,181.7,201.7,181.8,201.7,181.7L201.7,181.7c0.8,0,1.8,0,2.7-0.1
			C203.5,181.7,202.6,181.7,201.7,181.7z"/>
		<path fill="#DCB598" d="M207.4,181.4c-0.7,0.1-1.4,0.1-2.1,0.2C206,181.6,206.7,181.5,207.4,181.4z"/>
		<path fill="#DCB598" d="M226,177.7c0-0.1,0-0.2,0-0.3c-6,2.1-12.1,3.4-18.1,4C213.8,180.8,219.9,179.6,226,177.7z"/>
		<path fill="#DCB598" d="M199.9,181.8c0.1,0,0.2,0,0.3,0c0,0,0.1,0,0.1,0C200.1,181.8,200,181.8,199.9,181.8z"/>
		<path fill="#DFBC99" d="M201,181.8c0.2,0,0.4,0,0.5,0c-0.3,0-0.6,0-0.8,0C200.8,181.8,200.9,181.8,201,181.8z"/>
		<path fill="#DFBC99" d="M178.9,165.3c0-0.2,0-0.4,0-0.5c0,0-0.1,0-0.1,0c-0.2,2.1-0.4,4.1-0.6,6.1c-0.2,2.3-0.5,4.6-0.8,6.7
			c0.1,0,0.1,0,0.2,0.1c0.3-2,0.6-4.1,0.8-6.3C178.5,169.4,178.7,167.4,178.9,165.3z"/>
		<path fill="#DFBC99" d="M201.7,167.7v14c0,0,0,0,0.1,0L201.7,167.7C201.7,167.7,201.7,167.7,201.7,167.7z"/>
		<path fill="#EFCFAB" d="M207.9,181.4c-0.1,0-0.3,0-0.4,0C207.6,181.4,207.7,181.4,207.9,181.4z"/>
		<path fill="#EFCFAB" d="M205.3,181.6c-0.3,0-0.6,0-0.9,0.1C204.7,181.6,205,181.6,205.3,181.6z"/>
		<path fill="#EFCFAB" d="M224.7,164.5C224.6,164.5,224.6,164.5,224.7,164.5c0,0.2,0,0.4,0,0.6c0.2,2,0.4,4,0.6,5.9
			c0.2,2.2,0.5,4.3,0.8,6.4c0,0,0,0,0.1,0c-0.3-2.2-0.6-4.5-0.8-6.9C225,168.5,224.8,166.5,224.7,164.5z"/>
		<path fill="#EECFAB" d="M301.4,357.5c0.1-13.2-0.3-25.2-1.1-36.2l-13.6,1.5l-18,2l-2.5,0.3l-7.5,0.8l-1,0.1l1,6.4l0.8,5.1
			c0.3,1.2,0.7,2.4,1,3.6c4.7,15.6,11.2,27.3,13,30.3c9.7-3,19.1-6.6,28.2-10.7C301.5,358.6,301.4,357.5,301.4,357.5z"/>
		<path fill="#FCDB0D" d="M235,202.2c0,0,0.1,0,0.2,0C235.1,202.2,235,202.2,235,202.2z"/>
		<path fill="#FCDB0D" d="M235.5,202.2c0.1,0,0.2,0,0.4,0C235.7,202.2,235.6,202.2,235.5,202.2z"/>
		<path fill="#FCDB0D" d="M237.9,202.3c0.3,0,0.6,0.1,0.9,0.1C238.5,202.4,238.2,202.3,237.9,202.3z"/>
		<path fill="#FCDB0D" d="M236.3,202.2c0.3,0,0.7,0,1.2,0.1C237,202.3,236.6,202.2,236.3,202.2z"/>
		<path fill="#FCDB0D" d="M259.4,337.4l-0.8-5.1c0.1,1.6,0.2,2.9,0.5,3.8C259.2,336.6,259.3,337,259.4,337.4z"/>
		<g>
			<path fill="#1512A0" d="M241.7,202.8c0.1,0,0.2,0,0.2,0c0,0,0,0,0,0C241.9,202.8,241.8,202.8,241.7,202.8z"/>
			<path fill="#1512A0" d="M286.6,238.2c-5.8-9.7-12-16.8-18-22c-7.7-6.6-15.2-10.1-21.1-12c-2.1-0.6-3.9-1.1-5.5-1.4
				c-0.1,0.3-0.3,0.8-0.5,1.3c-0.5,1.2-1.3,2.9-2.3,4.9c-0.9,1.7-2.1,3.6-3.5,5.6c-4.8,6.9-12.5,14.6-23.9,17.5
				c-2.9,0.7-6.1,1.2-9.5,1.2c-0.1,0-0.3,0-0.4,0l-0.1,0c-4.3-0.1-8.3-0.8-11.8-1.9c-13.2-4.4-20.9-15.4-24.7-22.5
				c-1.1-2-1.8-3.7-2.3-4.8c-0.2-0.4-0.3-0.8-0.4-1.1c1.7-0.3,3.4-0.5,5.1-0.6c-6.5,0.4-12.5,2-18.1,4.4
				c-8.8,3.8-16.4,9.9-22.8,17.3c-7.3,8.3-13.2,18.2-18.1,28.6c-15.6,33.5-19.5,71.2-19.5,71.2l12.5,1.4l7,0.8l18.1,2l11.1,1.3
				l4.7,0.5l-1.1,8.5l-1,7.5l-4,29.7c2.9,0.7,5.9,1.4,8.9,2c16.8,3.5,34.1,5.3,51.9,5.3c1.6,0,3.2,0,4.7-0.1c19.3-0.4,38-2.8,56-7.2
				c2.5-0.6,5-1.3,7.5-2l-5.2-32l-0.7-4.3c-0.1-0.4-0.2-0.8-0.4-1.3c-0.2-0.9-0.4-2.2-0.5-3.8l-1-6.4l1-0.1l7.5-0.8l2.5-0.3l18-2
				l13.6-1.5l10.7-1.2C306.3,281.6,297.1,255.6,286.6,238.2z"/>
		</g>
		<path fill="#1B75B9" d="M235.2,202.2c0.1,0,0.2,0,0.3,0C235.4,202.2,235.3,202.2,235.2,202.2z"/>
		<path fill="#1B75B9" d="M235.9,202.2c0.1,0,0.3,0,0.4,0C236.1,202.2,236,202.2,235.9,202.2z"/>
		<path fill="#1B75B9" d="M238.8,202.4c0.2,0,0.3,0,0.5,0.1C239.1,202.4,239,202.4,238.8,202.4z"/>
		<path fill="#1B75B9" d="M237.4,202.3c0.2,0,0.3,0,0.5,0C237.7,202.3,237.6,202.3,237.4,202.3z"/>
		<path fill="#1B75B9" d="M235,202.2c-0.1,0-0.1,0-0.2,0l0,0C234.8,202.2,234.9,202.2,235,202.2z"/>
		<polygon fill="#1B75B9" points="234.8,202.2 234.8,202.2 234.8,202.2 		"/>
		<path fill="#1B75B9" d="M201.8,227.8c0,0-0.1,0-0.1,0v5.5c0,0,0.1,0,0.1,0V227.8z"/>
		<g>
			<path fill="#1F2651" d="M239.3,202.5c-0.2,0-0.4,0-0.5-0.1c-0.3,0-0.6-0.1-0.9-0.1c-0.2,0-0.3,0-0.5,0c-0.4,0-0.8,0-1.2-0.1
				c-0.1,0-0.3,0-0.4,0c-0.2,0-0.3,0-0.4,0c-0.1,0-0.2,0-0.3,0c-0.1,0-0.1,0-0.2,0c-0.1,0-0.1,0-0.2,0l0,0c0,0-0.9,2.6-2.8,6.1
				c-0.7,1.3-1.6,2.7-2.6,4.1c-4,5.7-10.3,12.1-19.8,14.4c-2.4,0.6-5,1-7.9,1c0,0,0,0,0,0l0,5.5c0.1,0,0.3,0,0.4,0
				c3.4,0,6.6-0.4,9.5-1.2c11.5-2.9,19.1-10.6,23.9-17.5c1.4-2,2.5-3.9,3.5-5.6c1.1-2,1.8-3.7,2.3-4.9c0.2-0.6,0.4-1,0.5-1.3
				C241,202.7,240.1,202.5,239.3,202.5z"/>
			<path fill="#1F2651" d="M171.6,208.3c-1.9-3.5-2.8-6.1-2.8-6.1l0,0c-0.4,0-0.8,0-1.2,0.1c-1.7,0.1-3.5,0.3-5.1,0.6
				c0.1,0.3,0.3,0.7,0.4,1.1c0.5,1.2,1.2,2.8,2.3,4.8c3.8,7.1,11.5,18.1,24.7,22.5c3.5,1.2,7.4,1.9,11.8,1.9v-5.5
				c-3.7,0-7-0.6-10-1.6C181.1,222.7,174.8,214.2,171.6,208.3z"/>
		</g>
		<g>
			<path fill="#D1A586" d="M154,157.4c-0.9-5.2-1.6-19.3-3-24.6c-3.3-12.6-4.4-28.9,0.1-42.9c-3.5,2.1-6,8.1-7,11.3
				c-4.5,14.1,2.2,39.9,2.2,39.9h-3.1c0,0-0.7-3.2-1.9-7.5c-0.6,1-1.7,1.4-1.3,3.4c0.4,2.7,1.7,2.8,2.4,3.4c0.7,0.6,1.6,1.1,2,2.2
				c0.4,1.1,0.5,2.3,0.3,3.3c-0.5,1.9-3.2,0.4-5.1-0.4c-1.2-0.6-2.5-3.9-3.5-5c-2.5-2.8-3.7-8.2-1.7-11.4c2.3-3.7,6.4,5.3,8.2,6.1
				c-0.4-1.2-0.4-9-0.9-10.2c-7.3-6-11.8,0.7-11.1,9.2c0.9,11.7,15.3,17.8,15.1,16.4c3.8,21.2,22.1,35.3,40.3,40.3
				c0-0.2,0.1-0.4,0.1-0.6C171.6,185.6,157.1,174.4,154,157.4z"/>
			<path fill="#D1A586" d="M170.4,65.2c-1.1,0.5-2.4,1.5-3.9,2.9c1.8-1.3,3.8-2.4,5.9-3.4C171.8,64.7,171.1,64.9,170.4,65.2z"/>
			<path fill="#BD967F" d="M134.2,129.1c-2,3.1-0.8,8.5,1.7,11.4c1,1.1,2.2,4.4,3.5,5c1.9,0.8,4.7,2.4,5.1,0.4
				c0.2-1,0.2-2.2-0.3-3.3c-0.4-1.1-1.3-1.6-2-2.2c-0.7-0.6-1.9-0.8-2.4-3.4c-0.3-2,0.7-2.4,1.3-3.4c-0.6-2.1,1.7-5.1-2.2-6.8
				C137.2,125.9,136.5,125.4,134.2,129.1z"/>
			<path fill="#DCB598" d="M251.7,141c0,0,6.7-25.8,2.2-39.9c-0.2-0.5-0.7-1.3-1.6-2.5c1.9,11.7,0.7,24-1.9,34.1
				c-1.4,5.3-2.1,19.4-3,24.6c-2.9,16.2-16.4,27.8-30.9,32.8c0,0.1,0,0.1,0,0.2c17.5-5.4,34.7-19.3,38.4-39.7
				c-0.2,1.4,14.1-4.7,15.1-16.4c0.8-10.3-7.2-13-12.3-9c-3.1,7.8-4.5,15.8-4.5,15.8H251.7z M256.1,142.6c0.4-1.1,1.3-1.6,2-2.2
				c0.7-0.6,1.9-0.8,2.4-3.4c0.4-2.4-1.3-2.5-1.7-4.1c-0.7-2.8,0.2-4.3,1.4-5.4c1.1-1,3-3.1,5.9,1.6c2,3.1,0.8,8.5-1.7,11.4
				c-1,1.1-2.2,4.4-3.5,5c-1.9,0.8-4.7,2.4-5.1,0.4C255.6,144.9,255.7,143.7,256.1,142.6z"/>
			<path fill="#BD967F" d="M261,145.5c1.2-0.6,2.5-3.9,3.5-5c2.5-2.8,3.6-8.2,1.7-11.4c-2.9-4.7-4.8-2.7-5.9-1.6
				c-1.2,1.1-2.1,2.6-1.4,5.4c0.4,1.6,2.1,1.7,1.7,4.1c-0.4,2.7-1.7,2.8-2.4,3.4c-0.7,0.6-1.6,1.1-2,2.2c-0.4,1.1-0.5,2.3-0.3,3.3
				C256.3,147.9,259.1,146.3,261,145.5z"/>
			<path fill="#DFBC99" d="M201.1,163.6L201.1,163.6l0,20.5c0,0,0,0,0,0V163.6z"/>
			<path fill="#DFBC99" d="M185.8,190.3c-14.2-4.8-28.8-15.9-31.9-33c-0.9-5.2-1.6-19.3-3-24.6c-3.3-12.6-4.4-28.9,0.1-42.9
				c0.7-0.5,1.5-0.8,2.4-0.8c0,0,3.1-2.7,4.5-8c1-3.8,5-9.5,8.6-13c1.8-1.3,3.8-2.4,5.9-3.4c2.6-0.3,6-2.4,6-2.4s2.1-1.9,13-3.9
				c1.2-0.1,3.4-0.6,4.7-0.7c1,0.1,1.7-0.3,2.6-0.1c0.2,0.1,0.9-0.1,1.1,0c0.2,0.1,1.2-0.4,1.4-0.3v106.3h0v20.5v8.8
				c0,0-0.1,0-0.1,0c-0.2,0-0.3,0-0.5,0c-0.1,0-0.2,0-0.3,0c-0.1,0-0.2,0-0.3,0c0,0-0.1,0-0.1,0v0
				C195.2,193.3,185.8,190.3,185.8,190.3z"/>
			<path fill="#131213" d="M141.2,133.6c0.1-0.2,0.2-0.4,0.3-0.7"/>
			<path fill="#131213" d="M141.5,132.9c-0.1,0.3-0.2,0.5-0.3,0.7c1.2,4.3,1.9,7.5,1.9,7.5h3.1c0,0-6.7-25.8-2.2-39.9
				c1-3.2,3.5-9.1,7-11.3c1.6-5,3.9-9.7,7.1-13.8c2.4-3.1,5.2-5.7,8.4-7.9c1.4-1.4,2.8-2.4,3.9-2.9c0.7-0.3,1.4-0.5,2-0.5
				c5.9-2.8,12-4.7,20-5.4c0.1,0,0.8-0.1,1-0.1c1.2-0.2,1.8-0.8,2.9-0.8c0.9,0,2.5-0.8,3.4-0.8c0.2,0,0.7-0.2,0.9-0.2
				c0.1,0,0.1,0,0.2,0c0.2,0,0.1,1.8,0.2,1.8c5.2,0,10,0.5,14.4,1.3c0,0,0,0,0,0l0,0c12,2.3,21.3,7.5,27.5,15.6
				c5,6.5,7.9,14.4,9.2,22.6c0.8,1.1,1.4,2,1.6,2.5c4.5,14.1-2.2,39.9-2.2,39.9h3.1c0,0-0.6,0.2,1.5-7.4c0.8-2.8,0.8-4.4,1.1-6.2
				c2.6-32.6,2.3-82.3-57.1-82.3c0,0-0.1,0-0.1,0c0,0-0.1,0-0.1,0c-59.4,0-61.5,44.7-58.8,77.3"/>
			<path fill="#131213" d="M177.5,63.4c0,0,5-2,15.8-4c-8,0.7-15,2.4-20.9,5.2C175,64.4,177.5,63.4,177.5,63.4z"/>
			<path fill="#131213" d="M157.9,81.1c1-3.8,5-9.5,8.6-13c-3.2,2.2-6,4.9-8.4,7.9c-3.2,4.1-5.5,8.8-7.1,13.8
				c0.7-0.5,1.5-0.8,2.4-0.8C153.4,89.1,156.5,86.4,157.9,81.1z"/>
			<path fill="#EFCFAB" d="M252.3,98.7"/>
			<path fill="#EFCFAB" d="M216.4,190.2c-3.8,1.3-7.6,2.1-11.4,2.5c-0.1,0-0.2,0-0.3,0c-0.4,0-0.9,0.1-1.3,0.1c-0.2,0-0.4,0-0.6,0
				c-0.6,0-1.1,0-1.7,0.1v-8.8v-20.5V65.3l-0.3-8c0,0,47.8-2.5,51.5,41.4c1.9,11.7,0.7,24-1.9,34.1c-1.4,5.3-2.1,19.4-3,24.6
				C244.5,173.5,231,185.2,216.4,190.2L216.4,190.2z"/>
		</g>
	</g>
</g>
</svg>
