<?xml version="1.0" encoding="utf-8"?>
<!-- Generator: Adobe Illustrator 18.0.0, SVG Export Plug-In . SVG Version: 6.00 Build 0)  -->
<!DOCTYPE svg PUBLIC "-//W3C//DTD SVG 1.1//EN" "http://www.w3.org/Graphics/SVG/1.1/DTD/svg11.dtd">
<svg version="1.1" id="Layer_1" xmlns="http://www.w3.org/2000/svg" xmlns:xlink="http://www.w3.org/1999/xlink" x="0px" y="0px"
	 viewBox="0 0 400 400" enable-background="new 0 0 400 400" xml:space="preserve">
<circle fill="#FFFFFF" cx="200" cy="200" r="190.3"/>
<circle fill="#D1D4D5" cx="200" cy="200" r="181.2"/>
<g>
	<defs>
		<circle id="SVGID_1_" cx="200" cy="200" r="181.2"/>
	</defs>
	<clipPath id="SVGID_2_">
		<use xlink:href="#SVGID_1_"  overflow="visible"/>
	</clipPath>
	<g clip-path="url(#SVGID_2_)">
		<path fill="#DFBA98" d="M137.5,329.5l-11.1-1.3l-18.1-2l-7-0.8c-0.6,10.1-1,21.1-0.9,32.9c0,0-0.2,2.1-0.5,5.8
			c9.1,3.7,18.4,6.9,28,9.6l0-0.7c0,0,6.7-10.9,12.1-26.9l1-7.5l1.1-8.5L137.5,329.5z"/>
		<path fill="#DFBA98" d="M201.5,193.8c-14-0.1-22.2-10-24.5-13.2c0,0.1,0,0.2,0,0.3c-0.3,1.8-0.6,3.5-0.9,5.1
			c-1.7,7.8-4.1,13.7-7.4,16.2l0,0c0,0,0.9,2.6,2.8,6.1c3.3,5.9,9.6,14.4,20.1,18c3,1,6.3,1.6,10,1.6v-18.5L201.5,193.8
			C201.5,193.8,201.5,193.8,201.5,193.8z"/>
		<path fill="#DFBA98" d="M201.7,227.9v-18.5c0,0-0.1,0-0.1,0v18.5C201.6,227.9,201.6,227.9,201.7,227.9z"/>
		<path fill="#EECFAB" d="M260.1,341.9c0.1-0.2,0.2-0.5,0.3-0.7c-0.4-1.2-0.7-2.4-1-3.6L260.1,341.9z"/>
		<path fill="#EECFAB" d="M227.1,184.7c-0.3-1.3-0.5-2.5-0.7-3.9v-0.1c0-0.1,0-0.3-0.1-0.4c-2.2,3.6-9.8,13.4-24.7,13.4
			c0,0-0.1,0-0.1,0v15.6c0,0,0.1,0,0.1,0v18.5l0,0c2.8,0,5.5-0.3,7.9-1c9.5-2.4,15.8-8.7,19.8-14.4c1-1.5,1.9-2.8,2.6-4.1
			c1.9-3.5,2.8-6.1,2.8-6.1l0,0C231.3,199.5,228.8,193.1,227.1,184.7z"/>
		<path opacity="0.7" fill="#BD967F" d="M177.1,178.5c-0.1,0.6-0.2,1.2-0.3,1.8c0,0.1,0.1,0.1,0.1,0.2c0.1-0.6,0.2-1.3,0.3-2
			C177.2,178.6,177.1,178.5,177.1,178.5z"/>
		<path opacity="0.7" fill="#BD967F" d="M226.3,180.3C226.3,180.3,226.4,180.3,226.3,180.3l0-0.1c-0.1-0.8-0.2-1.7-0.4-2.6
			c0,0,0,0-0.1,0C226.1,178.6,226.2,179.5,226.3,180.3z"/>
		<path fill="#DFBA98" d="M201.5,193.8C201.5,193.8,201.5,193.8,201.5,193.8l0.1-12c0,0-0.1,0-0.1,0c-0.2,0-0.4,0-0.5,0
			c-0.1,0-0.2,0-0.3,0c-0.1,0-0.2,0-0.3,0c-0.1,0-0.2,0-0.2,0c-0.1,0-0.2,0-0.2,0c-7.2,0-14.9-1.1-22.5-3.2c-0.1,0.7-0.2,1.3-0.3,2
			C179.3,183.8,187.5,193.7,201.5,193.8z"/>
		<path fill="#EECFAB" d="M207.8,181.4c-0.1,0-0.3,0-0.4,0c-0.7,0.1-1.4,0.1-2.1,0.2c-0.3,0-0.6,0-0.9,0.1c-0.9,0-1.8,0.1-2.8,0.1
			v12c0,0,0,0,0.1,0c14.9,0,22.5-9.8,24.7-13.4c-0.1-0.9-0.3-1.8-0.4-2.7C219.8,179.5,213.7,180.8,207.8,181.4z"/>
		<path opacity="0.7" fill="#BD967F" d="M225.9,177.7c-6.1,1.9-12.2,3.1-18.2,3.7c-0.1,0-0.3,0-0.4,0c-0.7,0.1-1.4,0.1-2.1,0.2
			c-0.3,0-0.6,0-0.9,0.1c-0.9,0-1.8,0.1-2.8,0.1c0,0-0.1,0-0.1,0c-0.2,0-0.4,0-0.5,0c-0.1,0-0.2,0-0.3,0c-0.1,0-0.2,0-0.3,0
			c-0.1,0-0.2,0-0.2,0c-0.1,0-0.2,0-0.2,0c-7.2,0-14.9-1.1-22.5-3.2c-0.1,0.7-0.2,1.3-0.3,2c2.3,3.2,10.5,13.2,24.5,13.2
			c0,0,0,0,0.1,0c0,0,0,0,0.1,0c14.9,0,22.5-9.8,24.7-13.4C226.2,179.5,226.1,178.6,225.9,177.7z"/>
		<path fill="#D1A586" d="M177.4,177.6c-0.1,0-0.1,0-0.2-0.1c0,0.3-0.1,0.6-0.1,1c0.1,0,0.1,0,0.2,0
			C177.3,178.2,177.4,177.9,177.4,177.6z"/>
		<path fill="#D1A586" d="M177.4,177.6c0,0.3-0.1,0.6-0.1,1c7.7,2.1,15.3,3.2,22.5,3.2c0.1,0,0.2,0,0.2,0c-0.1,0-0.2,0-0.3,0
			C192.9,181.6,185.2,180.2,177.4,177.6z"/>
		<path fill="#DCB598" d="M225.9,177.4c0,0.1,0,0.2,0,0.3c0,0,0,0,0.1,0C226,177.5,226,177.4,225.9,177.4
			C225.9,177.3,225.9,177.3,225.9,177.4z"/>
		<path fill="#DCB598" d="M201.4,181.7c0,0,0.1,0,0.1,0v0C201.5,181.7,201.4,181.7,201.4,181.7z"/>
		<path fill="#DCB598" d="M200,181.7c0.1,0,0.2,0,0.2,0c0.1,0,0.2,0,0.3,0c-0.1,0-0.3,0-0.4,0C200.1,181.7,200.1,181.7,200,181.7z"
			/>
		<path fill="#DCB598" d="M201.6,181.7C201.6,181.7,201.5,181.7,201.6,181.7L201.6,181.7c0.8,0,1.8,0,2.7-0.1
			C203.4,181.7,202.5,181.7,201.6,181.7z"/>
		<path fill="#DCB598" d="M207.3,181.4c-0.7,0.1-1.4,0.1-2.1,0.2C205.9,181.5,206.6,181.5,207.3,181.4z"/>
		<path fill="#DCB598" d="M225.9,177.7c0-0.1,0-0.2,0-0.3c-6,2.1-12.1,3.4-18.1,4C213.7,180.8,219.8,179.5,225.9,177.7z"/>
		<path fill="#DCB598" d="M199.7,181.7c0.1,0,0.2,0,0.3,0c0,0,0.1,0,0.1,0C200,181.7,199.9,181.7,199.7,181.7z"/>
		<path fill="#DFBC99" d="M200.9,181.8c0.2,0,0.4,0,0.5,0c-0.3,0-0.6,0-0.8,0C200.7,181.7,200.8,181.8,200.9,181.8z"/>
		<path fill="#DFBC99" d="M178.7,165.3c0-0.2,0-0.4,0-0.5c0,0-0.1,0-0.1,0c-0.2,2.1-0.4,4.1-0.6,6.1c-0.2,2.3-0.5,4.6-0.8,6.8
			c0.1,0,0.1,0,0.2,0.1c0.3-2,0.6-4.1,0.8-6.3C178.4,169.3,178.5,167.3,178.7,165.3z"/>
		<path fill="#DFBC99" d="M201.5,167.7v14.1c0,0,0,0,0.1,0L201.5,167.7C201.6,167.7,201.5,167.7,201.5,167.7z"/>
		<path fill="#EFCFAB" d="M207.8,181.4c-0.1,0-0.3,0-0.4,0C207.5,181.4,207.6,181.4,207.8,181.4z"/>
		<path fill="#EFCFAB" d="M205.2,181.6c-0.3,0-0.6,0-0.9,0.1C204.6,181.6,204.9,181.6,205.2,181.6z"/>
		<path fill="#EFCFAB" d="M224.5,164.5C224.5,164.5,224.5,164.5,224.5,164.5c0,0.2,0,0.4,0,0.6c0.2,2,0.4,4,0.6,5.9
			c0.2,2.2,0.5,4.3,0.8,6.4c0,0,0,0,0.1,0c-0.3-2.2-0.6-4.5-0.8-6.9C224.9,168.5,224.7,166.5,224.5,164.5z"/>
		<path fill="#EECFAB" d="M301.4,357.7c0.1-13.2-0.3-25.2-1.1-36.3l-13.6,1.5l-18.1,2l-2.5,0.3l-7.5,0.8l-1,0.1l1,6.4l0.8,5.1
			c0.3,1.2,0.7,2.4,1,3.6c4.7,15.7,11.2,27.4,13,30.4c9.7-3,19.1-6.6,28.3-10.7C301.5,358.8,301.4,357.7,301.4,357.7z"/>
		<path fill="#FCDB0D" d="M234.9,202.2c0,0,0.1,0,0.2,0C235,202.2,234.9,202.2,234.9,202.2z"/>
		<path fill="#FCDB0D" d="M235.4,202.2c0.1,0,0.2,0,0.4,0C235.6,202.2,235.5,202.2,235.4,202.2z"/>
		<path fill="#FCDB0D" d="M237.8,202.3c0.3,0,0.6,0.1,0.9,0.1C238.4,202.4,238.1,202.3,237.8,202.3z"/>
		<path fill="#FCDB0D" d="M236.2,202.2c0.3,0,0.7,0,1.2,0.1C236.9,202.2,236.5,202.2,236.2,202.2z"/>
		<path fill="#FCDB0D" d="M259.4,337.6l-0.8-5.1c0.1,1.6,0.2,2.9,0.5,3.8C259.1,336.8,259.3,337.2,259.4,337.6z"/>
		<g>
			<path fill="#FFFFFF" d="M241.6,202.8c0.1,0,0.2,0,0.2,0c0,0,0,0,0,0C241.8,202.8,241.7,202.8,241.6,202.8z"/>
			<path fill="#FFFFFF" d="M286.6,238.2c-5.8-9.7-12-16.8-18.1-22c-7.8-6.6-15.2-10.1-21.1-12c-2.1-0.6-3.9-1.1-5.5-1.4
				c-0.1,0.3-0.3,0.8-0.5,1.3c-0.5,1.2-1.3,2.9-2.3,4.9c-0.9,1.7-2.1,3.6-3.5,5.6c-4.8,6.9-12.5,14.6-24,17.5
				c-2.9,0.7-6.1,1.2-9.5,1.2c-0.1,0-0.3,0-0.4,0l-0.1,0c-4.3-0.1-8.3-0.8-11.8-2c-13.2-4.4-21-15.4-24.8-22.5
				c-1.1-2-1.8-3.7-2.3-4.8c-0.2-0.4-0.3-0.8-0.4-1.1c1.7-0.3,3.4-0.5,5.1-0.6c-6.5,0.4-12.6,2-18.1,4.4
				c-8.8,3.8-16.4,9.9-22.9,17.3c-7.3,8.3-13.3,18.3-18.1,28.7C92.8,286.2,88.8,324,88.8,324l12.5,1.4l7,0.8l18.1,2l11.1,1.3
				l4.7,0.5l-1.1,8.5l-1,7.5l-4,29.8c2.9,0.7,5.9,1.4,8.9,2c16.8,3.5,34.2,5.3,52,5.3c1.6,0,3.2,0,4.7-0.1
				c19.3-0.4,38.1-2.8,56.1-7.2c2.5-0.6,5-1.3,7.5-2l-5.2-32.1l-0.7-4.3c-0.1-0.4-0.2-0.8-0.4-1.3c-0.2-0.9-0.4-2.2-0.5-3.8l-1-6.4
				l1-0.1l7.5-0.8l2.5-0.3l18.1-2l13.6-1.5l10.7-1.2C306.3,281.7,297.1,255.7,286.6,238.2z"/>
		</g>
		<path fill="#1B75B9" d="M235.1,202.2c0.1,0,0.2,0,0.3,0C235.3,202.2,235.2,202.2,235.1,202.2z"/>
		<path fill="#1B75B9" d="M235.8,202.2c0.1,0,0.3,0,0.4,0C236,202.2,235.9,202.2,235.8,202.2z"/>
		<path fill="#1B75B9" d="M238.7,202.4c0.2,0,0.3,0,0.5,0.1C239.1,202.4,238.9,202.4,238.7,202.4z"/>
		<path fill="#1B75B9" d="M237.3,202.3c0.2,0,0.3,0,0.5,0C237.6,202.3,237.5,202.3,237.3,202.3z"/>
		<path fill="#1B75B9" d="M234.9,202.2c-0.1,0-0.1,0-0.2,0l0,0C234.7,202.2,234.8,202.2,234.9,202.2z"/>
		<polygon fill="#1B75B9" points="234.7,202.2 234.7,202.2 234.7,202.2 		"/>
		<path fill="#1B75B9" d="M201.7,227.9c0,0-0.1,0-0.1,0v5.5c0,0,0.1,0,0.1,0V227.9z"/>
		<g>
			<path fill="#566DB1" d="M239.2,202.4c-0.2,0-0.4,0-0.5-0.1c-0.3,0-0.6-0.1-0.9-0.1c-0.2,0-0.3,0-0.5,0c-0.4,0-0.8,0-1.2-0.1
				c-0.1,0-0.3,0-0.4,0c-0.2,0-0.3,0-0.4,0c-0.1,0-0.2,0-0.3,0c-0.1,0-0.1,0-0.2,0c-0.1,0-0.1,0-0.2,0l0,0c0,0-0.9,2.6-2.8,6.1
				c-0.7,1.3-1.6,2.7-2.6,4.1c-4,5.7-10.3,12.1-19.8,14.4c-2.4,0.6-5,1-7.9,1l0,0l0,5.5c0.1,0,0.3,0,0.4,0c3.4,0,6.6-0.4,9.5-1.2
				c11.5-2.9,19.2-10.6,24-17.5c1.4-2,2.6-3.9,3.5-5.6c1.1-2,1.8-3.7,2.3-4.9c0.2-0.6,0.4-1,0.5-1.3
				C240.9,202.7,240,202.5,239.2,202.4z"/>
			<path fill="#566DB1" d="M171.4,208.3c-1.9-3.5-2.8-6.1-2.8-6.1l0,0c-0.4,0-0.8,0-1.2,0.1c-1.7,0.1-3.5,0.3-5.1,0.6
				c0.1,0.3,0.3,0.7,0.4,1.1c0.5,1.2,1.2,2.8,2.3,4.8c3.8,7.1,11.5,18.1,24.8,22.5c3.5,1.2,7.5,1.9,11.8,2v-5.5c-3.7,0-7-0.6-10-1.6
				C181,222.7,174.7,214.2,171.4,208.3z"/>
		</g>
		<g>
			<path fill="#D1A586" d="M153.8,157.3c-0.9-5.2-1.7-19.4-3-24.6c-3.3-12.7-4.4-29,0.1-43c-3.5,2.2-6,8.1-7,11.3
				c-4.5,14.1,2.2,39.9,2.2,39.9h-3.1c0,0-0.7-3.2-1.9-7.5c-0.6,1-1.7,1.4-1.3,3.4c0.4,2.7,1.7,2.8,2.4,3.5c0.7,0.6,1.6,1.1,2,2.2
				c0.4,1.1,0.5,2.3,0.3,3.3c-0.5,1.9-3.3,0.4-5.1-0.4c-1.2-0.6-2.5-3.9-3.5-5c-2.5-2.8-3.7-8.2-1.7-11.4c2.3-3.7,6.4,5.3,8.2,6.1
				c-0.4-1.2-0.4-9-0.9-10.2c-7.3-6.1-11.8,0.7-11.1,9.2c0.9,11.7,15.3,17.8,15.1,16.4c3.9,21.2,22.1,35.3,40.3,40.3
				c0-0.2,0.1-0.4,0.1-0.6C171.5,185.5,156.9,174.3,153.8,157.3z"/>
			<path fill="#D1A586" d="M170.2,65c-1.1,0.5-2.4,1.5-3.9,2.9c1.8-1.3,3.8-2.4,5.9-3.4C171.6,64.6,171,64.7,170.2,65z"/>
			<path fill="#BD967F" d="M134,129c-2,3.1-0.8,8.6,1.7,11.4c1,1.1,2.2,4.4,3.5,5c1.9,0.8,4.7,2.4,5.1,0.4c0.2-1,0.2-2.2-0.3-3.3
				c-0.4-1.1-1.3-1.6-2-2.2c-0.7-0.6-1.9-0.8-2.4-3.5c-0.3-2,0.7-2.4,1.3-3.4c-0.6-2.1,1.7-5.1-2.2-6.8
				C136.9,125.8,136.3,125.3,134,129z"/>
			<path fill="#DCB598" d="M251.6,141c0,0,6.7-25.9,2.2-39.9c-0.2-0.5-0.7-1.3-1.6-2.5c1.9,11.7,0.7,24.1-1.9,34.1
				c-1.4,5.3-2.1,19.4-3,24.6c-2.9,16.2-16.4,27.8-31,32.8c0,0.1,0,0.1,0,0.2c17.6-5.4,34.7-19.3,38.4-39.7
				c-0.2,1.4,14.1-4.7,15.1-16.4c0.8-10.3-7.2-13-12.3-9c-3.1,7.8-4.5,15.8-4.5,15.8H251.6z M256,142.5c0.4-1.1,1.3-1.6,2-2.2
				c0.7-0.6,1.9-0.8,2.4-3.5c0.4-2.4-1.3-2.5-1.7-4.1c-0.7-2.8,0.2-4.3,1.4-5.4c1.1-1,3-3.1,5.9,1.6c2,3.1,0.8,8.6-1.7,11.4
				c-1,1.1-2.2,4.4-3.5,5c-1.9,0.8-4.7,2.4-5.1,0.4C255.5,144.8,255.6,143.6,256,142.5z"/>
			<path fill="#BD967F" d="M260.9,145.4c1.2-0.6,2.5-3.9,3.5-5c2.5-2.8,3.7-8.2,1.7-11.4c-2.9-4.7-4.8-2.7-5.9-1.6
				c-1.2,1.1-2.1,2.6-1.4,5.4c0.4,1.6,2.1,1.7,1.7,4.1c-0.4,2.7-1.7,2.8-2.4,3.5c-0.7,0.6-1.6,1.1-2,2.2c-0.4,1.1-0.5,2.3-0.3,3.3
				C256.2,147.8,259,146.3,260.9,145.4z"/>
			<path fill="#DFBC99" d="M201,163.6L201,163.6l0,20.5c0,0,0,0,0,0V163.6z"/>
			<path fill="#DFBC99" d="M185.7,190.3c-14.2-4.8-28.8-16-31.9-33c-0.9-5.2-1.7-19.4-3-24.6c-3.3-12.7-4.4-29,0.1-43
				c0.7-0.5,1.5-0.8,2.4-0.8c0,0,3.1-2.7,4.5-8c1-3.8,5-9.5,8.6-13c1.8-1.3,3.8-2.4,5.9-3.4c2.6-0.3,6-2.4,6-2.4s2.1-1.9,13-3.9
				c1.2-0.1,3.4-0.6,4.7-0.7c1,0.1,1.7-0.3,2.6-0.1c0.2,0.1,0.9-0.1,1.1,0c0.2,0.1,1.2-0.4,1.4-0.3v106.5h0v20.5v8.8
				c0,0-0.1,0-0.1,0c-0.2,0-0.3,0-0.5,0c-0.1,0-0.2,0-0.3,0c-0.1,0-0.2,0-0.3,0c0,0-0.1,0-0.1,0v0
				C195,193.3,185.7,190.3,185.7,190.3z"/>
			<path fill="#131213" d="M141,133.5c0.1-0.2,0.2-0.4,0.3-0.7"/>
			<path fill="#131213" d="M141.3,132.8c-0.1,0.3-0.2,0.5-0.3,0.7c1.2,4.3,1.9,7.5,1.9,7.5h3.1c0,0-6.7-25.9-2.2-39.9
				c1-3.2,3.5-9.2,7-11.3c1.6-5,3.9-9.7,7.1-13.9c2.4-3.1,5.2-5.7,8.4-8c1.4-1.4,2.8-2.4,3.9-2.9c0.7-0.3,1.4-0.5,2-0.5
				c5.9-2.8,12-4.7,20-5.4c0.1,0,0.8-0.1,1-0.1c1.2-0.2,1.8-0.8,2.9-0.8c0.9,0,2.5-0.8,3.4-0.8c0.2,0,0.7-0.2,0.9-0.2
				c0.1,0,0.1,0,0.2,0c0.2,0,0.1,1.8,0.2,1.8c5.2,0,10,0.5,14.5,1.3c0,0,0,0,0,0l0,0c12,2.3,21.3,7.5,27.6,15.6
				c5,6.5,7.9,14.4,9.2,22.7c0.8,1.1,1.4,2,1.6,2.5c4.5,14.1-2.2,39.9-2.2,39.9h3.1c0,0-0.6,0.2,1.5-7.4c0.8-2.8,0.8-4.4,1.1-6.2
				c2.6-32.6,2.3-82.4-57.2-82.4c0,0-0.1,0-0.1,0c0,0-0.1,0-0.1,0c-59.5,0-61.5,44.8-58.9,77.4"/>
			<path fill="#131213" d="M177.3,63.3c0,0,5-2,15.8-4c-8,0.7-15,2.4-20.9,5.2C174.9,64.2,177.3,63.3,177.3,63.3z"/>
			<path fill="#131213" d="M157.7,80.9c1-3.8,5-9.5,8.6-13c-3.2,2.2-6,4.9-8.4,8c-3.2,4.1-5.5,8.9-7.1,13.9c0.7-0.5,1.5-0.8,2.4-0.8
				C153.2,88.9,156.3,86.3,157.7,80.9z"/>
			<path fill="#EFCFAB" d="M252.3,98.6"/>
			<path fill="#EFCFAB" d="M216.3,190.2c-3.8,1.3-7.6,2.2-11.4,2.5c-0.1,0-0.2,0-0.3,0c-0.4,0-0.9,0.1-1.3,0.1c-0.2,0-0.4,0-0.6,0
				c-0.6,0-1.1,0-1.7,0.1v-8.8v-20.5V65.1l-0.3-8c0,0,47.8-2.5,51.6,41.4c1.9,11.7,0.7,24.1-1.9,34.1c-1.4,5.3-2.1,19.4-3,24.6
				C244.4,173.5,230.9,185.1,216.3,190.2L216.3,190.2z"/>
		</g>
	</g>
</g>
</svg>
