<?xml version="1.0" encoding="utf-8"?>
<!-- Generator: Adobe Illustrator 18.0.0, SVG Export Plug-In . SVG Version: 6.00 Build 0)  -->
<!DOCTYPE svg PUBLIC "-//W3C//DTD SVG 1.1//EN" "http://www.w3.org/Graphics/SVG/1.1/DTD/svg11.dtd">
<svg version="1.1" id="Layer_1" xmlns="http://www.w3.org/2000/svg" xmlns:xlink="http://www.w3.org/1999/xlink" x="0px" y="0px"
	 viewBox="0 0 400 400" enable-background="new 0 0 400 400" xml:space="preserve">
<circle fill="#FFFFFF" cx="200" cy="200" r="190.3"/>
<circle fill="#D1D4D5" cx="200" cy="200" r="181.2"/>
<g>
	<defs>
		<circle id="SVGID_1_" cx="200" cy="200" r="181.2"/>
	</defs>
	<clipPath id="SVGID_2_">
		<use xlink:href="#SVGID_1_"  overflow="visible"/>
	</clipPath>
	<g clip-path="url(#SVGID_2_)">
		<path fill="#DFBA98" d="M138,327.8l-11.1-1.3l-18-2l-7-0.8c-0.6,10.1-1,21-0.9,32.8c0,0-0.2,2.1-0.5,5.8c9,3.7,18.3,6.9,27.8,9.6
			l0-0.7c0,0,6.7-10.9,12-26.8l1-7.5l1.1-8.5L138,327.8z"/>
		<path fill="#DFBA98" d="M201.6,192.7c-13.9-0.1-22.1-9.9-24.4-13.2c0,0.1,0,0.2,0,0.3c-0.3,1.8-0.6,3.5-0.9,5.1
			c-1.7,7.8-4,13.6-7.3,16.2l0,0c0,0,0.8,2.5,2.8,6c3.2,5.9,9.5,14.3,20,17.9c3,1,6.3,1.6,10,1.6v-18.4L201.6,192.7
			C201.6,192.7,201.6,192.7,201.6,192.7z"/>
		<path fill="#DFBA98" d="M201.8,226.7v-18.4c0,0-0.1,0-0.1,0v18.4C201.7,226.6,201.8,226.7,201.8,226.7z"/>
		<path fill="#EECFAB" d="M259.9,340.1c0.1-0.2,0.2-0.5,0.3-0.7c-0.4-1.2-0.7-2.4-1-3.6L259.9,340.1z"/>
		<path fill="#EECFAB" d="M227.1,183.7c-0.3-1.2-0.5-2.5-0.7-3.9v-0.1c0-0.1,0-0.3-0.1-0.4c-2.2,3.6-9.8,13.3-24.6,13.3
			c0,0,0,0-0.1,0v15.5c0,0,0.1,0,0.1,0v18.4l0,0c2.8,0,5.5-0.3,7.9-0.9c9.4-2.4,15.7-8.7,19.7-14.4c1-1.4,1.9-2.8,2.6-4.1
			c1.9-3.5,2.8-6.1,2.8-6.1l0,0C231.2,198.5,228.8,192.1,227.1,183.7z"/>
		<path opacity="0.7" fill="#BD967F" d="M177.3,177.6c-0.1,0.6-0.2,1.2-0.3,1.8c0,0.1,0.1,0.1,0.1,0.2c0.1-0.6,0.2-1.3,0.3-2
			C177.5,177.6,177.4,177.6,177.3,177.6z"/>
		<path opacity="0.7" fill="#BD967F" d="M226.3,179.4C226.3,179.4,226.4,179.3,226.3,179.4l0-0.1c-0.1-0.8-0.2-1.7-0.4-2.6
			c0,0,0,0-0.1,0C226.1,177.6,226.2,178.5,226.3,179.4z"/>
		<path fill="#DFBA98" d="M201.6,192.7C201.6,192.7,201.6,192.7,201.6,192.7l0.1-12c0,0-0.1,0-0.1,0c-0.2,0-0.4,0-0.5,0
			c-0.1,0-0.2,0-0.3,0c-0.1,0-0.2,0-0.3,0c-0.1,0-0.2,0-0.2,0c-0.1,0-0.2,0-0.2,0c-7.2,0-14.8-1.1-22.4-3.2c-0.1,0.7-0.2,1.3-0.3,2
			C179.5,182.8,187.7,192.7,201.6,192.7z"/>
		<path fill="#EECFAB" d="M207.9,180.4c-0.1,0-0.3,0-0.4,0c-0.7,0.1-1.4,0.1-2.1,0.2c-0.3,0-0.6,0-0.9,0.1c-0.9,0-1.8,0.1-2.7,0.1
			v12c0,0,0,0,0.1,0c14.8,0,22.4-9.8,24.6-13.3c-0.1-0.9-0.3-1.8-0.4-2.7C219.9,178.6,213.8,179.8,207.9,180.4z"/>
		<path opacity="0.7" fill="#BD967F" d="M226,176.7c-6.1,1.9-12.2,3.1-18.1,3.7c-0.1,0-0.3,0-0.4,0c-0.7,0.1-1.4,0.1-2.1,0.2
			c-0.3,0-0.6,0-0.9,0.1c-0.9,0-1.8,0.1-2.7,0.1c0,0-0.1,0-0.1,0c-0.2,0-0.4,0-0.5,0c-0.1,0-0.2,0-0.3,0c-0.1,0-0.2,0-0.3,0
			c-0.1,0-0.2,0-0.2,0c-0.1,0-0.2,0-0.2,0c-7.2,0-14.8-1.1-22.4-3.2c-0.1,0.7-0.2,1.3-0.3,2c2.3,3.2,10.5,13.1,24.4,13.2
			c0,0,0,0,0.1,0c0,0,0,0,0.1,0c14.8,0,22.4-9.8,24.6-13.3C226.2,178.5,226.1,177.6,226,176.7z"/>
		<path fill="#D1A586" d="M177.7,176.7c-0.1,0-0.1,0-0.2-0.1c0,0.3-0.1,0.6-0.1,1c0.1,0,0.1,0,0.2,0
			C177.6,177.3,177.6,177,177.7,176.7z"/>
		<path fill="#D1A586" d="M177.7,176.7c0,0.3-0.1,0.6-0.1,0.9c7.6,2.1,15.2,3.2,22.4,3.2c0.1,0,0.2,0,0.2,0c-0.1,0-0.2,0-0.3,0
			C193,180.6,185.4,179.2,177.7,176.7z"/>
		<path fill="#DCB598" d="M225.9,176.4c0,0.1,0,0.2,0,0.3c0,0,0,0,0.1,0C226,176.6,226,176.5,225.9,176.4
			C226,176.4,225.9,176.4,225.9,176.4z"/>
		<path fill="#DCB598" d="M201.5,180.8c0,0,0.1,0,0.1,0v0C201.6,180.7,201.6,180.7,201.5,180.8z"/>
		<path fill="#DCB598" d="M200.2,180.8c0.1,0,0.2,0,0.2,0c0.1,0,0.2,0,0.3,0c-0.1,0-0.3,0-0.4,0
			C200.3,180.8,200.2,180.8,200.2,180.8z"/>
		<path fill="#DCB598" d="M201.7,180.7C201.7,180.7,201.7,180.7,201.7,180.7L201.7,180.7c0.8,0,1.8,0,2.7-0.1
			C203.5,180.7,202.6,180.7,201.7,180.7z"/>
		<path fill="#DCB598" d="M207.4,180.4c-0.7,0.1-1.4,0.1-2.1,0.2C206,180.6,206.7,180.5,207.4,180.4z"/>
		<path fill="#DCB598" d="M226,176.7c0-0.1,0-0.2,0-0.3c-6,2.1-12.1,3.4-18,4C213.8,179.8,219.9,178.6,226,176.7z"/>
		<path fill="#DCB598" d="M199.9,180.8c0.1,0,0.2,0,0.3,0c0,0,0.1,0,0.1,0C200.2,180.8,200,180.8,199.9,180.8z"/>
		<path fill="#DFBC99" d="M201,180.8c0.2,0,0.4,0,0.5,0c-0.3,0-0.6,0-0.8,0C200.8,180.8,200.9,180.8,201,180.8z"/>
		<path fill="#DFBC99" d="M179,164.4c0-0.2,0-0.4,0-0.5c0,0-0.1,0-0.1,0c-0.2,2.1-0.4,4.1-0.6,6.1c-0.2,2.3-0.5,4.5-0.8,6.7
			c0.1,0,0.1,0,0.2,0.1c0.3-2,0.6-4.1,0.8-6.2C178.6,168.4,178.8,166.4,179,164.4z"/>
		<path fill="#DFBC99" d="M201.7,166.8v14c0,0,0,0,0.1,0L201.7,166.8C201.7,166.7,201.7,166.8,201.7,166.8z"/>
		<path fill="#EFCFAB" d="M207.9,180.4c-0.1,0-0.3,0-0.4,0C207.6,180.4,207.7,180.4,207.9,180.4z"/>
		<path fill="#EFCFAB" d="M205.3,180.6c-0.3,0-0.6,0-0.9,0.1C204.7,180.6,205,180.6,205.3,180.6z"/>
		<path fill="#EFCFAB" d="M224.6,163.6C224.6,163.6,224.6,163.6,224.6,163.6c0,0.2,0,0.4,0,0.6c0.2,2,0.4,4,0.6,5.9
			c0.2,2.2,0.5,4.3,0.8,6.3c0,0,0,0,0.1,0c-0.3-2.2-0.6-4.5-0.8-6.9C224.9,167.6,224.8,165.6,224.6,163.6z"/>
		<path fill="#EECFAB" d="M301,355.8c0.1-13.1-0.3-25.1-1.1-36.1l-13.6,1.5l-18,2l-2.4,0.3l-7.5,0.8l-1,0.1l1,6.3l0.8,5
			c0.3,1.2,0.7,2.4,1,3.6c4.7,15.6,11.2,27.2,12.9,30.2c9.6-3,19-6.6,28.1-10.7C301.1,356.9,301,355.8,301,355.8z"/>
		<path fill="#FCDB0D" d="M234.9,201.1c0,0,0.1,0,0.2,0C235,201.1,234.9,201.1,234.9,201.1z"/>
		<path fill="#FCDB0D" d="M235.4,201.1c0.1,0,0.2,0,0.4,0C235.6,201.1,235.5,201.1,235.4,201.1z"/>
		<path fill="#FCDB0D" d="M237.8,201.2c0.3,0,0.6,0.1,0.9,0.1C238.3,201.3,238,201.2,237.8,201.2z"/>
		<path fill="#FCDB0D" d="M236.1,201.1c0.3,0,0.7,0,1.2,0.1C236.8,201.2,236.5,201.1,236.1,201.1z"/>
		<path fill="#FCDB0D" d="M259.2,335.8l-0.8-5c0.1,1.6,0.2,2.8,0.5,3.8C259,335,259.1,335.4,259.2,335.8z"/>
		<g>
			<path fill="#FFEF00" d="M241.6,201.7c0.1,0,0.2,0,0.2,0c0,0,0,0,0,0C241.7,201.7,241.7,201.7,241.6,201.7z"/>
			<path fill="#FFEF00" d="M286.3,236.9c-5.8-9.7-12-16.8-18-21.9c-7.7-6.6-15.1-10.1-21-11.9c-2.1-0.6-3.9-1.1-5.5-1.3
				c-0.1,0.3-0.3,0.8-0.5,1.3c-0.5,1.2-1.2,2.9-2.3,4.9c-0.9,1.7-2.1,3.6-3.5,5.6c-4.8,6.9-12.4,14.5-23.8,17.4
				c-2.9,0.7-6.1,1.2-9.5,1.2c-0.1,0-0.3,0-0.4,0l-0.1,0c-4.3-0.1-8.2-0.8-11.7-1.9c-13.2-4.4-20.9-15.3-24.6-22.4
				c-1.1-2-1.8-3.7-2.3-4.8c-0.2-0.4-0.3-0.8-0.4-1.1c1.7-0.3,3.4-0.5,5.1-0.6c-6.5,0.4-12.5,2-18,4.4c-8.8,3.8-16.3,9.9-22.8,17.2
				c-7.3,8.2-13.2,18.2-18,28.5c-15.5,33.3-19.4,70.9-19.4,70.9l12.4,1.4l7,0.8l18,2l11.1,1.3l4.6,0.5l-1.1,8.5l-1,7.5l-4,29.6
				c2.9,0.7,5.9,1.4,8.8,2c16.7,3.4,34,5.3,51.7,5.3c1.6,0,3.2,0,4.7-0.1c19.2-0.3,37.9-2.8,55.8-7.2c2.5-0.6,5-1.3,7.5-1.9
				l-5.2-31.9l-0.7-4.3c-0.1-0.4-0.2-0.8-0.4-1.3c-0.2-0.9-0.4-2.2-0.5-3.8l-1-6.3l1-0.1l7.5-0.8l2.4-0.3l18-2l13.6-1.5l10.6-1.2
				C305.9,280.2,296.7,254.3,286.3,236.9z"/>
		</g>
		<path fill="#1B75B9" d="M235.1,201.1c0.1,0,0.2,0,0.3,0C235.2,201.1,235.1,201.1,235.1,201.1z"/>
		<path fill="#1B75B9" d="M235.8,201.1c0.1,0,0.3,0,0.4,0C236,201.1,235.9,201.1,235.8,201.1z"/>
		<path fill="#1B75B9" d="M238.7,201.3c0.2,0,0.3,0,0.5,0.1C239,201.3,238.8,201.3,238.7,201.3z"/>
		<path fill="#1B75B9" d="M237.3,201.2c0.2,0,0.3,0,0.5,0C237.6,201.2,237.4,201.2,237.3,201.2z"/>
		<path fill="#1B75B9" d="M234.9,201.1c-0.1,0-0.1,0-0.2,0l0,0C234.7,201.2,234.8,201.1,234.9,201.1z"/>
		<polygon fill="#1B75B9" points="234.7,201.2 234.7,201.2 234.7,201.2 		"/>
		<path fill="#1B75B9" d="M201.8,226.7c0,0-0.1,0-0.1,0v5.5c0,0,0.1,0,0.1,0V226.7z"/>
		<g>
			<path fill="#0A8041" d="M239.2,201.4c-0.2,0-0.4,0-0.5-0.1c-0.3,0-0.6-0.1-0.9-0.1c-0.2,0-0.3,0-0.5,0c-0.4,0-0.8,0-1.2-0.1
				c-0.1,0-0.3,0-0.4,0c-0.2,0-0.3,0-0.4,0c-0.1,0-0.2,0-0.3,0c-0.1,0-0.1,0-0.2,0c-0.1,0-0.1,0-0.1,0l0,0c0,0-0.9,2.6-2.8,6.1
				c-0.7,1.3-1.6,2.7-2.6,4.1c-3.9,5.7-10.3,12-19.7,14.4c-2.4,0.6-5,0.9-7.9,0.9l0,0l0,5.5c0.1,0,0.3,0,0.4,0
				c3.4,0,6.6-0.4,9.5-1.2c11.4-2.8,19.1-10.5,23.8-17.4c1.4-2,2.5-3.9,3.5-5.6c1.1-2,1.8-3.7,2.3-4.9c0.2-0.6,0.4-1,0.5-1.3
				C240.9,201.6,240,201.5,239.2,201.4z"/>
			<path fill="#0A8041" d="M171.7,207.2c-1.9-3.5-2.8-6-2.8-6l0,0c-0.4,0-0.8,0-1.2,0.1c-1.7,0.1-3.4,0.3-5.1,0.6
				c0.1,0.3,0.3,0.7,0.4,1.1c0.5,1.1,1.2,2.8,2.3,4.8c3.8,7.1,11.5,18,24.6,22.4c3.5,1.2,7.4,1.9,11.7,1.9v-5.5c-3.7,0-7-0.6-10-1.6
				C181.2,221.5,174.9,213,171.7,207.2z"/>
		</g>
		<g>
			<path fill="#D1A586" d="M154.2,156.5c-0.9-5.2-1.6-19.3-3-24.5c-3.3-12.6-4.4-28.8,0.1-42.7c-3.5,2.1-5.9,8.1-7,11.2
				c-4.5,14,2.2,39.7,2.2,39.7h-3.1c0,0-0.7-3.2-1.9-7.4c-0.6,1-1.7,1.4-1.3,3.3c0.4,2.7,1.7,2.8,2.4,3.4c0.7,0.6,1.6,1.1,2,2.2
				c0.4,1.1,0.5,2.3,0.3,3.3c-0.4,1.9-3.2,0.4-5.1-0.4c-1.2-0.6-2.5-3.9-3.4-5c-2.5-2.8-3.6-8.2-1.7-11.3c2.3-3.7,6.3,5.2,8.2,6.1
				c-0.4-1.2-0.4-9-0.9-10.2c-7.3-6-11.7,0.7-11,9.2c0.9,11.7,15.2,17.7,15,16.3c3.8,21.1,22,35.1,40.1,40.1c0-0.2,0.1-0.4,0.1-0.6
				C171.8,184.5,157.3,173.4,154.2,156.5z"/>
			<path fill="#D1A586" d="M170.5,64.7c-1.1,0.5-2.4,1.5-3.8,2.9c1.8-1.3,3.8-2.4,5.9-3.4C171.9,64.2,171.3,64.3,170.5,64.7z"/>
			<path fill="#BD967F" d="M134.5,128.3c-1.9,3.1-0.8,8.5,1.7,11.3c1,1.1,2.2,4.4,3.4,5c1.9,0.8,4.6,2.4,5.1,0.4
				c0.2-1,0.2-2.2-0.3-3.3c-0.4-1.1-1.3-1.6-2-2.2c-0.7-0.6-1.9-0.8-2.4-3.4c-0.3-2,0.7-2.4,1.3-3.3c-0.6-2.1,1.7-5.1-2.2-6.8
				C137.4,125.1,136.8,124.6,134.5,128.3z"/>
			<path fill="#DCB598" d="M251.5,140.2c0,0,6.7-25.7,2.2-39.7c-0.2-0.5-0.7-1.3-1.6-2.4c1.9,11.6,0.7,23.9-1.9,33.9
				c-1.4,5.2-2.1,19.3-3,24.5c-2.9,16.1-16.3,27.7-30.8,32.7c0,0.1,0,0.1,0,0.2c17.5-5.4,34.5-19.2,38.2-39.5
				c-0.2,1.4,14.1-4.7,15-16.3c0.8-10.3-7.2-13-12.2-9c-3,7.8-4.5,15.7-4.5,15.7H251.5z M255.9,141.7c0.4-1.1,1.3-1.6,2-2.2
				c0.7-0.6,1.9-0.8,2.4-3.4c0.4-2.4-1.2-2.5-1.7-4c-0.7-2.8,0.2-4.3,1.4-5.4c1.1-1,3-3,5.9,1.6c1.9,3.1,0.8,8.5-1.7,11.3
				c-1,1.1-2.2,4.4-3.5,5c-1.9,0.8-4.7,2.4-5.1,0.4C255.4,144.1,255.5,142.9,255.9,141.7z"/>
			<path fill="#BD967F" d="M260.7,144.6c1.2-0.6,2.5-3.9,3.5-5c2.5-2.8,3.6-8.2,1.7-11.3c-2.9-4.7-4.8-2.7-5.9-1.6
				c-1.2,1.1-2.1,2.6-1.4,5.4c0.4,1.6,2,1.7,1.7,4c-0.4,2.7-1.7,2.8-2.4,3.4c-0.7,0.6-1.6,1.1-2,2.2c-0.4,1.1-0.5,2.3-0.3,3.3
				C256.1,147,258.9,145.5,260.7,144.6z"/>
			<path fill="#DFBC99" d="M201.2,162.7L201.2,162.7l0,20.4c0,0,0,0,0,0V162.7z"/>
			<path fill="#DFBC99" d="M185.9,189.3c-14.1-4.7-28.7-15.9-31.7-32.8c-0.9-5.2-1.6-19.3-3-24.5c-3.3-12.6-4.4-28.8,0.1-42.7
				c0.7-0.5,1.5-0.7,2.3-0.8c0,0,3.1-2.7,4.5-8c1-3.8,5-9.4,8.6-12.9c1.8-1.3,3.8-2.4,5.9-3.4c2.6-0.3,6-2.4,6-2.4s2.1-1.9,12.9-3.9
				c1.2-0.1,3.4-0.6,4.7-0.7c1,0.1,1.7-0.3,2.5-0.1c0.2,0.1,0.9-0.1,1.1,0c0.2,0.1,1.2-0.4,1.4-0.3v105.9h0v20.4v8.8
				c0,0-0.1,0-0.1,0c-0.2,0-0.3,0-0.5,0c-0.1,0-0.2,0-0.3,0c-0.1,0-0.2,0-0.3,0c0,0-0.1,0-0.1,0v0
				C195.2,192.3,185.9,189.3,185.9,189.3z"/>
			<path fill="#131213" d="M141.4,132.8c0.1-0.2,0.2-0.4,0.3-0.7"/>
			<path fill="#131213" d="M141.8,132.1c-0.1,0.3-0.2,0.5-0.3,0.7c1.2,4.3,1.9,7.4,1.9,7.4h3.1c0,0-6.7-25.7-2.2-39.7
				c1-3.2,3.5-9.1,7-11.2c1.6-5,3.9-9.7,7.1-13.8c2.4-3.1,5.2-5.7,8.4-7.9c1.4-1.4,2.8-2.4,3.8-2.9c0.7-0.3,1.4-0.5,2-0.5
				c5.9-2.8,12-4.7,19.9-5.3c0.1,0,0.8-0.1,1-0.1c1.2-0.2,1.8-0.8,2.9-0.8c0.9,0,2.5-0.8,3.4-0.8c0.2,0,0.7-0.2,0.9-0.2
				c0.1,0,0.1,0,0.2,0c0.2,0,0.1,1.8,0.2,1.8c5.2,0,10,0.5,14.4,1.3c0,0,0,0,0,0l0,0c12,2.3,21.2,7.4,27.4,15.5
				c5,6.5,7.8,14.3,9.2,22.6c0.8,1.1,1.4,2,1.6,2.4c4.5,14-2.2,39.7-2.2,39.7h3.1c0,0-0.6,0.2,1.5-7.3c0.8-2.7,0.8-4.3,1.1-6.2
				c2.6-32.4,2.3-82-56.9-82c0,0-0.1,0-0.1,0c0,0-0.1,0-0.1,0c-59.2,0-61.2,44.5-58.6,77"/>
			<path fill="#131213" d="M177.6,62.9c0,0,5-2,15.8-4c-8,0.6-14.9,2.4-20.8,5.2C175.2,63.9,177.6,62.9,177.6,62.9z"/>
			<path fill="#131213" d="M158.1,80.5c1-3.8,5-9.4,8.6-12.9c-3.2,2.2-6,4.9-8.4,7.9c-3.2,4.1-5.5,8.8-7.1,13.8
				c0.7-0.5,1.5-0.7,2.3-0.8C153.6,88.4,156.7,85.8,158.1,80.5z"/>
			<path fill="#EFCFAB" d="M252.1,98"/>
			<path fill="#EFCFAB" d="M216.4,189.2c-3.8,1.3-7.6,2.1-11.3,2.5c-0.1,0-0.2,0-0.3,0c-0.4,0-0.9,0.1-1.3,0.1c-0.2,0-0.4,0-0.6,0
				c-0.6,0-1.1,0-1.7,0.1v-8.8v-20.4v-98l-0.3-7.9c0,0,47.6-2.5,51.3,41.2c1.9,11.6,0.7,23.9-1.9,33.9c-1.4,5.2-2.1,19.3-3,24.5
				C244.3,172.6,230.9,184.1,216.4,189.2L216.4,189.2z"/>
		</g>
	</g>
</g>
</svg>
