<svg id="Capa_1" data-name="Capa 1" xmlns="http://www.w3.org/2000/svg" viewBox="0 0 70.54 97.8"><defs><style>.cls-1{fill:#ea3636;}</style></defs><title>Huevo_rojo</title><path class="cls-1" d="M68.19,13.95L65,9,53.79,19.15,71.5,34.33l0.88,0.94L60,44.31l-0.35.09,9.29-9.82L50.16,21.5l-1.59-1.11,1.59-1.51L59.48,10,57.74,6.52,55.87,3C54,2.11,52,1.1,50.16,1.1c-4,0-11.27,2.63-19.3,15a109.19,109.19,0,0,0-13.18,31s-1.92,5.75-2.85,16.74c-1.62,19.25,16.33,35,35.33,35.05A35.33,35.33,0,0,0,85.27,63.63C85.27,51.15,78.44,28.53,68.19,13.95Z" transform="translate(-14.73 -1.1)"/></svg>