<?xml version="1.0" encoding="utf-8"?>
<!-- Generator: Adobe Illustrator 18.0.0, SVG Export Plug-In . SVG Version: 6.00 Build 0)  -->
<!DOCTYPE svg PUBLIC "-//W3C//DTD SVG 1.1//EN" "http://www.w3.org/Graphics/SVG/1.1/DTD/svg11.dtd">
<svg version="1.1" id="Capa_1" xmlns="http://www.w3.org/2000/svg" xmlns:xlink="http://www.w3.org/1999/xlink" x="0px" y="0px"
	 viewBox="0 0 100 150" enable-background="new 0 0 100 150" xml:space="preserve">
<g>
	<path fill="#EA3636" d="M32.8,48.4c-5.2,8-10.2,18.7-13,29.3l-0.3,0.1c0,0-1.3,3-1.9,8.5l-0.1,0c-0.4,2.6,0.4,5,0.4,7.1
		c0,18.2,16,33.1,34,33.1V53.5l-1.5-1L52,51V34.2C46,34.2,40.3,36.7,32.8,48.4z"/>
	<path fill="#C1272D" d="M50,127c17.9,0,32.5-15.1,32.5-33c0-11.6-6.3-32.9-15.9-46.5l-3-4.8l-10.4,9.4l16.4,14l0.8,0.9l-11.5,8.4
		l-0.3,0.1l9.6-9.1L52,54.1V127C52,127,50,127,50,127z"/>
	<path fill="#C1272D" d="M59.4,43.8l-2.1-3.2l-1.9-4.5C53.6,35.3,51.7,34,50,34c0,0,2,0,2,0v17.7L59.4,43.8z"/>
</g>
</svg>
