<?xml version="1.0" encoding="utf-8"?>
<!DOCTYPE svg PUBLIC "-//W3C//DTD SVG 1.1//EN" "http://www.w3.org/Graphics/SVG/1.1/DTD/svg11.dtd">
<svg xmlns="http://www.w3.org/2000/svg" xmlns:xlink="http://www.w3.org/1999/xlink" version="1.1" viewBox="0 0 512 512" enable-background="new 0 0 512 512" width="512px" height="512px">
  <g>
    <g>
      <g>
        <path d="m256.1,11c-135.1,0-245,109.9-245,245 0,135.1 109.9,245 245,245s245-109.9 245-245c0-135.1-109.9-245-245-245zm0,449.2c-112.6,0-204.2-91.6-204.2-204.2 0-112.6 91.6-204.2 204.2-204.2 112.6,0 204.2,91.6 204.2,204.2-0.1,112.6-91.7,204.2-204.2,204.2z" fill="#f5a002"/>
        <path d="m328.2,235.6h-51.7v-114.2c0-11.3-9.1-20.4-20.4-20.4-11.3,0-20.4,9.1-20.4,20.4v134.6c0,11.3 9.1,20.4 20.4,20.4h72.1c11.3,0 20.4-9.1 20.4-20.4 0-11.3-9.2-20.4-20.4-20.4z" fill="#f5a002"/>
      </g>
    </g>
  </g>
</svg>
