<?xml version="1.0" encoding="utf-8"?>
<!-- Generator: Adobe Illustrator 18.0.0, SVG Export Plug-In . SVG Version: 6.00 Build 0)  -->
<!DOCTYPE svg PUBLIC "-//W3C//DTD SVG 1.1//EN" "http://www.w3.org/Graphics/SVG/1.1/DTD/svg11.dtd">
<svg version="1.1" id="Capa_1" xmlns="http://www.w3.org/2000/svg" xmlns:xlink="http://www.w3.org/1999/xlink" x="0px" y="0px"
	 viewBox="0 0 100 100" enable-background="new 0 0 100 100" xml:space="preserve">
<g>
	<g>
		<path fill="#1B3043" stroke="#1B3043" stroke-width="5" stroke-miterlimit="10" d="M90.2,76.1c-0.2-4.9-6.5-9.3-6.8-9.5l-0.6-0.4
			c-1-3.3-2.9-5.5-4.5-6.9c-1.1-0.9-2.2-1.6-3-2l0,0c-2-5.8-5.5-8.2-5.6-8.3l0,0l0,0c-2-1.1-4.1-1.7-6.3-1.8c0-1.8-0.5-3.8-2.2-5.8
			l-0.1-0.1l-0.1-0.1c-0.3-0.3-3.4-2.6-5.7-2.6c-0.3,0-0.6,0.1-0.9,0.1c1.1-2.9,3-7.2,3-7.2l0.3-0.6c1.4-0.2,2.8-0.2,3.8-0.2
			c1.1,0,1.9,0.1,1.9,0.1l1.3,0.1l-0.4-1.2c-1.3-4.6-4.9-6.3-5.2-6.5c-0.8-0.4-1.7-0.6-2.4-0.6h0c-2.1,0-3.3,1.5-3.6,2
			c-0.3,0.2-0.7,0.4-1.2,0.5c0.2-1,0-2.1,0-2.4l0-0.1l0-0.1c-0.8-1.7-0.6-2.8-0.5-2.9l0-0.1l0-0.1c0.3-1.7,0.2-2.2-0.1-2.5
			c-0.2-0.2-0.4-0.3-0.7-0.3c0,0,0,0,0,0c-0.2,0-0.3,0-0.4,0.1c-0.6,0.1-1.2,0.4-1.7,0.7c0.4-1.1,0.7-2.1,0.8-2.5
			c0.9-2.1,1-3.9,0.4-5.6C48.9,7.1,47,6.2,46.6,6c-3.6-2.2-5.9-3.2-7.1-3.2c-0.6,0-0.9,0.2-1.1,0.4c-0.2,0.2-0.3,0.6-0.3,0.9
			l0.1,0.5l0.5,0.2c0.6,0.2,1,0.8,1.1,1c0.4,1.4,0.2,1.9,0.1,2C39.8,8,39.4,8,39.2,8c-0.3,0-0.6-0.1-0.7-0.1C36.7,7,35,6.8,34,6.8
			c-1.1,0-1.8,0.2-1.9,0.2l0,0l0,0c-2.7,0.9-3.6,1.6-3.5,2.5c0,0.6,0.5,1,1,1.1l0.2,0l0.2,0c0.4-0.1,0.8-0.2,1.1-0.2
			c0.2,0,0.3,0,0.4,0l0,0l0.1,0c1.2,0.6,1.5,1,1.5,1.1c0,0.3-0.8,0.9-1.7,1.3c-5.4,1.5-7.3,3.3-7.6,3.6c-2.4,2.1-3.2,3.5-2.8,4.5
			c0.2,0.6,0.8,0.9,1.3,1l0.4,0l0.3-0.3c1.2-1.2,2.4-1.6,2.7-1.7c0,0,0,0,0.1,0c0.2,0,0.2,0,0.3,0c0.1,0.2-0.1,0.9-0.4,1.5l-2.9,4.1
			l0,0.1l0,0.1c-1,2.1-1.2,3.6-0.6,4.7c0.6,1,1.6,1.1,1.7,1.1l0.9,0.1l0.1-0.9c0.1-1.4,2.3-2.1,3.3-2.3c-2.7,5.4-3.6,11.6-3.7,16.8
			c-0.5,0.7-0.8,1.2-0.8,1.3l-0.1,0.3c-2.8,0.8-4.4,2.2-4.5,2.3l-1.4,1.2c-0.2,0.2-4.6,4-4.4,10.4c-0.1,1.1-1.3,12.1,5.3,16.8
			l-0.1,0l0.9,2c0.4,1.2,2.9,7.7,9.8,12.1l1,0.6c0.7,1.3,2.2,2.8,4.9,3.1l0,0l0,0c0,0,1.1,0.1,3.1,0.1c2.8,0,7.4-0.2,12.8-0.9l0.1,0
			l0.1,0c0.2-0.1,4.9-1.9,7.3-9.6c0.2-0.3,0.9-1.7,2.1-3.5l0.7,0c2.2,0,5.7,1.6,6.1,1.8c4.7,2.8,8.9,4,9.1,4.1l0.1,0l0.1,0
			c0.7,0.1,1.4,0.1,2.1,0.1c5.6,0,10.1-2.8,10.3-2.9l0.1,0l0.1-0.1C91.1,82.3,90.4,76.9,90.2,76.1z M53.7,41.4L53.7,41.4 M38.8,23.5
			L38.8,23.5"/>
	</g>
	<path fill="#FFFFFF" d="M41.5,26.8c-0.5-0.1-1.1-0.2-1.7-0.2c-0.4,0-0.8,0-1.2,0.1c-0.1-1.2,0-1.5,0.2-1.9c0.2-0.3,0.4-0.6,0.7-0.9
		l0.9,0.4C41.2,24.7,41.5,26,41.5,26.8z"/>
	<path fill="#FFFFFF" d="M47.8,24.6c0.1-0.6,0.5-1.2,0.6-1.5l0.1-0.1c0.4,0.2,0.6,1.2,0.7,2C48.7,24.8,48.3,24.7,47.8,24.6z"/>
	<path fill="#FFC200" d="M38.3,32.6c0.9,1.4,2.5,2.8,2.5,2.8c3.1,3,5.5,0.1,5.5,0.1c0.8-1,3.4-2.8,3.4-2.8
		c4.6-3.5,13.6-2.8,13.6-2.8c-1.2-4.3-4.7-5.9-4.7-5.9c-3.4-1.7-5,1.1-5,1.1c-1.4,1.3-4.7,0.7-4.7,0.7c-3.2-1.2-3.4,0.4-3.4,0.4
		c-0.6,1.3,0.7,1.5,0.7,1.5h-0.4C44.4,28,43,29.5,43,29.5c-0.5,0.3,0.4,0.8,0.4,0.8c-4.8-1.7-8.1,1.3-8.1,1.3
		c-3.2,3.2-1.6,5.3-1.6,5.3c0.7,1.1,2.6,0.9,2.6,0.9c5.2,0.1,6.1,0.2,6.1,0.2c6.8,0.5,10.4,2.3,10.4,2.3c0.7-2.7,3.6-9.1,3.6-9.1
		c-3.3-0.2-7.1,2.9-7.1,2.9c-3.7,3.7-5.9,3.4-5.9,3.4c-3-0.6-5.8-4.6-5.8-4.6c-1,0.6-2.1,3-2.1,3c1.2-6.3,5.7-4,5.7-4
		C39.7,31.5,38.3,32.6,38.3,32.6z M48.8,27.4c-0.6,0.3-2.3-0.4-2.3-0.4C49.5,26.7,48.8,27.4,48.8,27.4z"/>
	<path fill="#CF001B" d="M28.1,27.5c0,0-4.4,0.6-4.7,3.3c0,0-2.5-0.2-0.4-4.6L26,22c0,0,1.7-3-0.8-2.8c0,0-1.7,0.3-3.2,2
		c0,0-2.2-0.1,2.1-4c0,0,1.7-1.9,7.3-3.4c0,0,4.9-1.9,0.3-4c0,0-0.5-0.4-2.2,0c0,0-1.6-0.4,2.6-1.9c0,0,2.5-0.8,5.9,0.8
		c0,0,3.8,1.2,2.4-3.3c0,0-0.6-1.1-1.6-1.5c0,0-0.2-1.7,7.2,2.8c0,0,4.9,2,2.3,7.8c0,0-1,3.7-2.1,4.7c0,0-0.1-2.1-1-2
		c0,0-1.1,0.7-3.5-0.5c0,0-2.9-1.7-4.8,1.7C36.9,18.5,30.7,20.5,28.1,27.5z"/>
	<path fill="#CF001B" d="M42.2,39.1c0,0,5.9,2.9,1.9,11.1c0,0,4.6-0.3,6.5-2.7c0,0,0.8,3.2-0.9,5.3c0,0,5.4-0.1,6.8-6.1
		c0,0,3.4,1.1,3.2,6.7c0,0,5.4-5.5,0.6-11.5c0,0-5.2-4-6.6-1.6c0,0,2.6,2.3,1.9,6C55.6,46.2,54.2,38.7,42.2,39.1z"/>
	<path fill="#CF001B" d="M89.1,76.2c-0.1-4.5-6.4-8.8-6.4-8.8l-0.3,2.3c-0.9-9.5-8.9-12-8.9-12h0.8c-2-5.6-5.3-7.8-5.3-7.8
		c-2.1-1.2-4.1-1.6-6-1.7c-0.4,3.4-2.7,5.8-2.8,5.9l-1.5,1.6l0.1-2.2c0.1-2.2-0.4-3.6-1-4.5c-0.3-0.4-0.6-0.7-0.8-0.9
		c-0.2,0.5-0.4,1-0.6,1.5c-1,1.8-2.3,2.8-3.6,3.4c0,0,0,0,0,0c5.4,9.9,5.4,14.5,5.4,14.5c5.1-1.1,9-5.2,9-5.2c2-2.3,4.5-0.2,4.5-0.2
		c-2.5-7.6-7.2-8.8-7.2-8.8c4.2,0.3,7.2,6.6,7.2,6.6l0.5-1.6L72,60.5c0.3,2.7,1.9,3.5,1.9,3.5c2.8,0.1,3.2,3.3,3.2,3.3
		c3.3,0.5,3.2,3.8,3.2,3.8c3.9,1.3,4.1,3,4.1,3c-3.5-3.8-10.9-2.4-10.9-2.4c-0.5,1.1-1.7,2-1.7,2c-2.4,1.4-4.5,0-4.5,0
		c-1.8,0.9-6.4,6.9-6.4,6.9c2.6,0,6.5,1.9,6.5,1.9c4.6,2.8,8.9,4,8.9,4c6.4,0.8,11.8-2.6,11.8-2.6C90.1,81.8,89.1,76.2,89.1,76.2z
		 M66.7,77c0,0,7.9-0.4,11.7,2C78.4,79.1,73.7,77.3,66.7,77z"/>
	<path fill="none" d="M39.5,20.6c2.1,1.1,1.9,1.4,2.6,1.7c2.7,1.3,2.3-2.1,2.3-2.1c-0.6,2.3-2.5,0.3-2.9-0.3
		c-0.4-0.6-0.6-0.8-0.9-0.8c-2.6,0.1-2.7,3.1-2.7,3.1C38.5,20.6,39,20.3,39.5,20.6z"/>
	<path fill="none" d="M47.6,21.3c2-3.2,2,0.1,2,0.1c0.4-5-1.6-2-1.8-1.5c-0.5,1.2-1.3,2.1-1.3,2.1C47.5,21.9,47.6,21.3,47.6,21.3z"
		/>
	<path fill="none" d="M42.9,28.2c0,0,0.1-0.5-0.6-1c0,0,0.1-3-1.6-3.8c0,0,1-0.7,2.5,1.2c0,0-2.4-4.6-5.1-0.4
		c-0.4,0.6-0.6,1.3-0.3,2.9c0,0-0.6,0-1.4,0.8C36.2,28.1,40,26.6,42.9,28.2z"/>
	<path fill="none" d="M45.6,52.9c-5.7-1.6-8.2,1.6-8.2,1.6C41.5,52.1,45.6,52.9,45.6,52.9z"/>
	<path fill="#CF001B" d="M76.5,67.5l-2.8-0.2l2.9-0.1c0,0,0.1-1.9-2.6-2.8c0,0-1.5-0.3-3.3-0.3l2.6-0.1c0,0-1.1-1.9-3.6-2.2
		c0,0-1.3-0.1-2.6,1.3c0,0-3.7,3.8-9.9,5.4c0,0-10.8,2.8-14.3,5.6c0,0-6.7,4-7.1,12.3c0,0-0.4-5.2,1.6-7.8c0,0-1.8-0.7-3.3,0.2
		c0,0,0.7-1,3.7-1c0,0,2.1-3,5.8-5.2c0,0,0.6-4.9-4.3-8.5c0,0-1.9-1.4-3.6-1.7c0,0-0.3,2.2-2,3.4c0,0,3.3-4.9-0.6-10.7
		c0,0,2.7,1.5,2.9,6.5l0.3,0c0,0,0.7-4.2,0.1-6c0,0,0.6,1.5,0.4,6.4c0,0,7.5,1.8,7,10.5c0,0,4-2.8,13.8-4.9c0,0,0-3.8-2.5-8.9
		c0,0-0.9-2-1.2-2.8c-1.4-3.3-2.5-2.8-2.5-2.8s0,0-1,0.2c-1,0.2-1.8,0.1-1.8,0.1s0.6-0.7,1-1.8c0.5-1.4,0.6-2.6,0.6-2.6
		s-1.2,1.1-3.6,1.4c-2,0.3-3.6,0.5-3.9,0.5l-2,1.4c0.5-1.1-0.8-2.2-0.8-2.2c-0.3,2.4-5.2,2.8-5.2,2.8c0.5-3.1-1.7-4.5-3.1-5
		c-7.6-2.4-12.4,1.8-12.4,1.8L17.7,51c0,0-4.3,3.7-4.1,9.8c0,0-1.6,12.3,5.8,16.6c1.2,0.7,3.5,0.6,6.7-1.2c0,0-2.2,2.3-6.4,3
		c0.5,1.3,2.9,7.4,9.4,11.7c0,0,0.2-1-4.9-11.7c0,0,4.2,5.5,5.7,11.5c0,0,0.4,3.3,4.6,3.7c0,0,6.6,0.4,15.7-0.8c0,0,4.5-1.7,6.8-9.1
		c0,0,3.5-7,9.9-11.9c0,0,1-1.8-1.5-3.9c0,0,3,0.6,2.3,4.2c0,0,0,0.9,1.8,0.9c0,0,1.5,0,2.9-2.1c0,0,0.7-1.2,2.2-1.4
		c0,0-0.7,0.3-1.2,1.1c0,0,4.5-0.6,6-0.3C79.5,71.1,79.7,68.5,76.5,67.5z M34.4,66.3c0,0,1,5.8,4.5,8.7C38.9,75,34,72.4,34.4,66.3z
		 M45.6,52.9c0,0-4.1-0.8-8.2,1.6C37.4,54.6,39.9,51.4,45.6,52.9z M47.5,79.9c0,0,4.3-4.7,9-6.7C56.5,73.3,50.1,77.1,47.5,79.9z"/>
	<path fill="#CF001B" d="M35.7,51.9c3.2-0.5,3.5-2.7,3.5-2.7c1.4,0.5,2.3,1.9,2.3,1.9s0.8-0.6,1-0.8c0.2-0.3,0.6-0.5,0.9-1
		c1.6-2.6,1.1-5.1,1.1-5.1c-1.1-5.5-6.4-5.9-6.4-5.9c-3.6,0.1-4.7-0.7-4.7-0.7c-0.4,1.3,1,3.1,1,3.1c-3.8-4.1,0.2-9.3,0.2-9.3
		c2.8-3.3,7.7-1.7,7.7-1.7c1.6-1.5,2.7-1.9,2.7-1.9c0.1-0.3,0-0.6,0-0.7c-0.2-0.8,0.3-1.5,0.3-1.5c0.8-1,1.5-0.6,1.5-0.6
		c0-1.1,0.8-2.3,0.8-2.3l-0.7,0.2c1.2-0.9,1.5-0.8,1.5-0.8c1.7,0.2,1.6,3.4,1.6,3.4l0.6,0.1c0.6-0.9,0.3-2.8,0.3-2.8
		c-1-2.2-0.6-3.5-0.6-3.5c0.4-2.4,0-1.7,0-1.7c-1.2,0.1-2.7,1.5-2.7,1.5c-0.3,1.5-1.4,2.2-1.4,2.2l-0.4,1.6v-0.9l-1.1,1
		c0.6-0.7,0.7-3,0.7-3c0.3-2-1.1-1.5-1.1-1.5c-1.2,0.3-2.6-0.6-2.6-0.6c-3.8-3.1-6.2,5.6-6.2,5.6C35.3,22.2,36,20,36,20
		C27.2,26,25,37,24.8,45.6c-0.6,0.8-0.9,1.3-0.9,1.3c1.7-0.5,3.4-0.5,4.7-0.4l1.5,0.1C36.6,47.1,35.7,51.9,35.7,51.9z M47.8,20
		c0.2-0.5,2.3-3.5,1.8,1.5c0,0,0-3.4-2-0.1c0,0-0.1,0.7-1.1,0.8C46.5,22,47.3,21.2,47.8,20z M40.7,19.2c0.3,0,0.5,0.2,0.9,0.8
		c0.4,0.6,2.3,2.5,2.9,0.3c0,0,0.5,3.4-2.3,2.1c-0.7-0.3-0.5-0.6-2.6-1.7c-0.5-0.3-1.1-0.1-1.6,1.7C38,22.3,38.1,19.3,40.7,19.2z
		 M37.7,27.2c-0.3-1.7-0.1-2.3,0.3-2.9c2.7-4.2,5.1,0.4,5.1,0.4c-1.5-1.9-2.5-1.2-2.5-1.2c1.8,0.7,1.6,3.8,1.6,3.8
		c0.8,0.5,0.6,1,0.6,1c-2.9-1.6-6.7-0.1-6.7-0.1C37,27.2,37.7,27.2,37.7,27.2z"/>
	<circle fill="#1B3043" cx="40" cy="26.2" r="0.8"/>
	<circle fill="#1B3043" cx="48.6" cy="24.6" r="0.6"/>
	<g>
		<path fill="#A20020" d="M67.9,71.6L67.9,71.6c-0.1-2.5-2.4-3-2.4-3S67.3,69.7,67.9,71.6z"/>
		<path fill="#A20020" d="M19.7,79.1c0.5,1.3,2.9,7.4,9.4,11.7c0,0,0.2-1-4.9-11.7c0,0,4.2,5.5,5.7,11.5c0,0,0.4,3.3,4.6,3.7
			c0,0,6.6,0.4,15.7-0.8c0,0,4.5-1.7,6.8-9.1c0,0,3.5-7,9.9-11.9c0,0,1-1.8-1.5-3.9c1.6,2.5-1.2,3.2-1.2,3.2
			c-7.7,6.7-8.7,10.8-8.7,10.8C46.3,95.5,32,90.9,32,90.9C31.4,83,26,76,26,76S23.9,78.3,19.7,79.1z"/>
		<path fill="#A20020" d="M72.5,69.8c-1.2,2.7-4.6,1.8-4.6,1.8c0,0.4,0,0.7-0.1,1.2c0,0,0,0.9,1.8,0.9c0,0,1.5,0,2.9-2.1
			c0,0,0.7-1.2,2.2-1.4c0,0-0.7,0.3-1.2,1.1c0,0,4.5-0.6,6-0.3C77,67,72.5,69.8,72.5,69.8z"/>
		<path fill="#A20020" d="M17.7,50.9c0,0-4.3,3.7-4.1,9.8c0,0-1.6,12.3,5.8,16.6c1.2,0.7,3.5,0.6,6.7-1.2c-10.9-2.7-8.6-19-6.9-26.4
			l0,0L17.7,50.9z"/>
	</g>
	<g>
		<path fill="#A20020" d="M55,51.3c-0.7,0.7-1.5,1.2-2.2,1.6c0,0,0,0,0,0c5.4,9.9,5.4,14.5,5.4,14.5c5.1-1.1,9-5.2,9-5.2
			c0.1-0.1,0.2-0.2,0.3-0.3c-4.1,3.2-7.8,3.4-7.8,3.4C59.5,60.7,56.6,54.4,55,51.3z"/>
		<path fill="#A20020" d="M67.6,75.5c0,0,3.8,2.3,6.7-2.9c0,0,4.1-0.6,10.1,1.5l-2-1.5c-3.7-1.9-8.9-0.9-8.9-0.9
			c-0.5,1.1-1.7,2-1.7,2c-2.4,1.4-4.5,0-4.5,0c-1.8,0.9-6.4,6.9-6.4,6.9c0.5,0,1.1,0.1,1.7,0.2C62.4,80.8,64.9,76.7,67.6,75.5z"/>
	</g>
	<g>
		<path fill="#A20020" d="M33.2,55.2C33.2,55.2,33.2,55.2,33.2,55.2C33.2,55.2,33.2,55.2,33.2,55.2z"/>
		<path fill="#A20020" d="M37.5,61.4c-0.1-0.8-0.3-1.5-0.6-2.2c0,0.8,0,1.8,0,2.9c0,0,7.5,1.8,7,10.5c0,0,0.3-0.2,1.1-0.6l0,0
			C46.2,63.7,37.5,61.4,37.5,61.4z"/>
		<path fill="#A20020" d="M36.1,61.6l0.3,0c0,0,0.2-1.4,0.3-2.9c-1.1-2.1-3-3.3-3.4-3.6C33.7,55.5,36,57.2,36.1,61.6z"/>
	</g>
	<path fill="#1B3043" d="M52.8,52.8c0,0,2.6-1.8,6-1C58.7,51.9,55.7,50.4,52.8,52.8z"/>
</g>
</svg>
