<?xml version="1.0" encoding="utf-8"?>
<!-- Generator: Adobe Illustrator 18.0.0, SVG Export Plug-In . SVG Version: 6.00 Build 0)  -->
<!DOCTYPE svg PUBLIC "-//W3C//DTD SVG 1.1//EN" "http://www.w3.org/Graphics/SVG/1.1/DTD/svg11.dtd">
<svg version="1.1" id="Layer_1" xmlns="http://www.w3.org/2000/svg" xmlns:xlink="http://www.w3.org/1999/xlink" x="0px" y="0px"
	 viewBox="0 0 400 400" enable-background="new 0 0 400 400" xml:space="preserve">
<circle fill="#FFFFFF" cx="200" cy="200" r="190.3"/>
<circle fill="#D1D4D5" cx="200" cy="200" r="181.2"/>
<g>
	<defs>
		<circle id="SVGID_1_" cx="200" cy="200" r="181.2"/>
	</defs>
	<clipPath id="SVGID_2_">
		<use xlink:href="#SVGID_1_"  overflow="visible"/>
	</clipPath>
	<g clip-path="url(#SVGID_2_)">
		<path fill="#DFBA98" d="M138.6,324.7l-11.7-1.3l-19-2.1l-7.4-0.8c-0.7,10.6-1,22.1-0.9,34.5c0,0-0.2,2.2-0.5,6.1
			c9.5,3.9,19.3,7.3,29.3,10.1l0.1-0.7c0,0,7.1-11.5,12.7-28.2l1.1-7.9l1.2-9L138.6,324.7z"/>
		<path fill="#DFBA98" d="M205.6,182.3c-14.6-0.1-23.3-10.5-25.7-13.9c0,0.1,0,0.2-0.1,0.3c-0.3,1.9-0.6,3.7-1,5.4
			c-1.8,8.2-4.3,14.3-7.7,17l0,0c0,0,0.9,2.7,2.9,6.4c3.4,6.2,10,15.1,21.1,18.8c3.1,1,6.6,1.7,10.5,1.7v-19.4L205.6,182.3
			C205.6,182.3,205.6,182.3,205.6,182.3z"/>
		<path fill="#DFBA98" d="M205.8,218.1v-19.4c0,0-0.1,0-0.2,0v19.4C205.7,218.1,205.7,218.1,205.8,218.1z"/>
		<path fill="#EECFAB" d="M267,337.6c0.1-0.2,0.2-0.5,0.3-0.7c-0.4-1.2-0.7-2.5-1.1-3.8L267,337.6z"/>
		<path fill="#EECFAB" d="M232.4,172.8c-0.3-1.3-0.5-2.6-0.7-4.1v-0.1c0-0.1,0-0.3-0.1-0.4c-2.4,3.7-10.3,14.1-25.9,14.1
			c0,0-0.1,0-0.1,0v16.4c0,0,0.1,0,0.2,0v19.4l0,0c3,0,5.7-0.4,8.3-1c9.9-2.5,16.6-9.2,20.7-15.1c1.1-1.5,2-3,2.7-4.3
			c2-3.7,2.9-6.4,2.9-6.4l0,0C236.8,188.4,234.2,181.7,232.4,172.8z"/>
		<path opacity="0.7" fill="#BD967F" d="M180,166.4c-0.1,0.6-0.2,1.3-0.3,1.9c0,0.1,0.1,0.1,0.2,0.2c0.1-0.7,0.2-1.4,0.3-2.1
			C180.1,166.4,180.1,166.4,180,166.4z"/>
		<path opacity="0.7" fill="#BD967F" d="M231.6,168.3C231.7,168.2,231.7,168.2,231.6,168.3l0-0.1c-0.1-0.9-0.3-1.8-0.4-2.7
			c0,0,0,0-0.1,0C231.4,166.4,231.5,167.3,231.6,168.3z"/>
		<path fill="#DFBA98" d="M205.6,182.3C205.6,182.3,205.6,182.3,205.6,182.3l0.1-12.6c0,0-0.1,0-0.1,0c-0.2,0-0.4,0-0.6,0
			c-0.1,0-0.2,0-0.3,0c-0.1,0-0.2,0-0.3,0c-0.1,0-0.2,0-0.2,0c-0.1,0-0.2,0-0.2,0c-7.6,0-15.6-1.1-23.6-3.3
			c-0.1,0.7-0.2,1.4-0.3,2.1C182.3,171.8,190.9,182.3,205.6,182.3z"/>
		<path fill="#EECFAB" d="M212.2,169.3c-0.2,0-0.3,0-0.5,0c-0.7,0.1-1.5,0.1-2.2,0.2c-0.3,0-0.7,0-1,0.1c-1,0.1-1.9,0.1-2.9,0.1
			v12.6c0,0,0,0,0.1,0c15.6,0,23.6-10.3,25.9-14.1c-0.1-0.9-0.3-1.9-0.4-2.8C224.8,167.4,218.4,168.7,212.2,169.3z"/>
		<path opacity="0.7" fill="#BD967F" d="M231.2,165.4c-6.4,2-12.8,3.3-19.1,3.9c-0.2,0-0.3,0-0.5,0c-0.7,0.1-1.5,0.1-2.2,0.2
			c-0.3,0-0.7,0-1,0.1c-1,0.1-1.9,0.1-2.9,0.1c0,0-0.1,0-0.1,0c-0.2,0-0.4,0-0.6,0c-0.1,0-0.2,0-0.3,0c-0.1,0-0.2,0-0.3,0
			c-0.1,0-0.2,0-0.2,0c-0.1,0-0.2,0-0.2,0c-7.6,0-15.6-1.1-23.6-3.3c-0.1,0.7-0.2,1.4-0.3,2.1c2.4,3.4,11.1,13.8,25.7,13.9
			c0,0,0,0,0.1,0c0,0,0,0,0.1,0c15.6,0,23.6-10.3,25.9-14.1C231.5,167.3,231.4,166.4,231.2,165.4z"/>
		<path fill="#D1A586" d="M180.4,165.4c-0.1,0-0.1,0-0.2-0.1c0,0.3-0.1,0.7-0.2,1c0.1,0,0.1,0,0.2,0
			C180.3,166.1,180.3,165.7,180.4,165.4z"/>
		<path fill="#D1A586" d="M180.4,165.4c0,0.3-0.1,0.7-0.2,1c8,2.2,16.1,3.3,23.6,3.3c0.1,0,0.2,0,0.2,0c-0.1,0-0.2,0-0.3,0
			C196.6,169.6,188.5,168.1,180.4,165.4z"/>
		<path fill="#DCB598" d="M231.2,165.1c0,0.1,0,0.2,0,0.3c0,0,0,0,0.1,0C231.3,165.3,231.3,165.2,231.2,165.1
			C231.2,165.1,231.2,165.1,231.2,165.1z"/>
		<path fill="#DCB598" d="M205.5,169.7c0,0,0.1,0,0.1,0v0C205.6,169.7,205.6,169.7,205.5,169.7z"/>
		<path fill="#DCB598" d="M204.1,169.7c0.1,0,0.2,0,0.2,0c0.1,0,0.2,0,0.3,0c-0.1,0-0.3,0-0.4,0
			C204.2,169.7,204.1,169.7,204.1,169.7z"/>
		<path fill="#DCB598" d="M205.7,169.7C205.7,169.7,205.7,169.7,205.7,169.7L205.7,169.7c0.9,0,1.8,0,2.8-0.1
			C207.6,169.7,206.6,169.7,205.7,169.7z"/>
		<path fill="#DCB598" d="M211.7,169.4c-0.7,0.1-1.5,0.1-2.2,0.2C210.2,169.5,211,169.5,211.7,169.4z"/>
		<path fill="#DCB598" d="M231.2,165.4c0-0.1,0-0.2,0-0.3c-6.3,2.2-12.7,3.6-19,4.2C218.4,168.7,224.8,167.4,231.2,165.4z"/>
		<path fill="#DCB598" d="M203.8,169.7c0.1,0,0.2,0,0.3,0c0,0,0.1,0,0.1,0C204.1,169.7,203.9,169.7,203.8,169.7z"/>
		<path fill="#DFBC99" d="M204.9,169.7c0.2,0,0.4,0,0.6,0c-0.3,0-0.6,0-0.9,0C204.7,169.7,204.8,169.7,204.9,169.7z"/>
		<path fill="#DFBC99" d="M181.7,152.5c0-0.2,0-0.4,0-0.6c0,0-0.1,0-0.1,0c-0.2,2.2-0.4,4.3-0.6,6.4c-0.2,2.5-0.5,4.8-0.9,7.1
			c0.1,0,0.1,0,0.2,0.1c0.3-2.1,0.6-4.3,0.8-6.6C181.4,156.7,181.5,154.6,181.7,152.5z"/>
		<path fill="#DFBC99" d="M205.6,155v14.7c0,0,0,0,0.1,0L205.6,155C205.7,155,205.7,155,205.6,155z"/>
		<path fill="#EFCFAB" d="M212.2,169.3c-0.2,0-0.3,0-0.5,0C211.9,169.4,212,169.4,212.2,169.3z"/>
		<path fill="#EFCFAB" d="M209.5,169.6c-0.3,0-0.7,0-1,0.1C208.9,169.6,209.2,169.6,209.5,169.6z"/>
		<path fill="#EFCFAB" d="M229.8,151.6C229.8,151.6,229.8,151.6,229.8,151.6c0,0.2,0,0.4,0,0.6c0.2,2.1,0.4,4.2,0.6,6.2
			c0.3,2.3,0.5,4.5,0.8,6.7c0,0,0,0,0.1,0c-0.3-2.3-0.6-4.7-0.9-7.2C230.2,155.8,230,153.7,229.8,151.6z"/>
		<path fill="#EECFAB" d="M310.3,354.1c0.1-13.8-0.4-26.5-1.2-38l-14.3,1.6l-18.9,2.1l-2.6,0.3l-7.9,0.9l-1.1,0.1l1.1,6.7l0.9,5.3
			c0.3,1.3,0.7,2.5,1.1,3.8c4.9,16.4,11.8,28.7,13.6,31.8c10.1-3.2,20-6.9,29.6-11.2C310.4,355.4,310.3,354.1,310.3,354.1z"/>
		<path fill="#FCDB0D" d="M240.6,191.2c0,0,0.1,0,0.2,0C240.7,191.2,240.7,191.2,240.6,191.2z"/>
		<path fill="#FCDB0D" d="M241.1,191.2c0.1,0,0.3,0,0.4,0C241.4,191.2,241.3,191.2,241.1,191.2z"/>
		<path fill="#FCDB0D" d="M243.7,191.3c0.3,0,0.6,0.1,0.9,0.1C244.3,191.3,244,191.3,243.7,191.3z"/>
		<path fill="#FCDB0D" d="M242,191.2c0.3,0,0.8,0,1.2,0.1C242.7,191.2,242.3,191.2,242,191.2z"/>
		<path fill="#FCDB0D" d="M266.3,333.1l-0.9-5.3c0.1,1.6,0.2,3,0.5,4C266,332.2,266.2,332.7,266.3,333.1z"/>
		<path fill="#1B75B9" d="M240.8,191.2c0.1,0,0.2,0,0.3,0C241,191.2,240.9,191.2,240.8,191.2z"/>
		<path fill="#1B75B9" d="M241.6,191.2c0.1,0,0.3,0,0.4,0C241.8,191.2,241.7,191.2,241.6,191.2z"/>
		<path fill="#1B75B9" d="M244.6,191.4c0.2,0,0.4,0,0.6,0.1C245,191.4,244.8,191.4,244.6,191.4z"/>
		<path fill="#1B75B9" d="M243.2,191.3c0.2,0,0.3,0,0.5,0C243.5,191.3,243.3,191.3,243.2,191.3z"/>
		<path fill="#1B75B9" d="M240.6,191.2c-0.1,0-0.2,0-0.2,0l0,0C240.5,191.2,240.6,191.2,240.6,191.2z"/>
		<polygon fill="#1B75B9" points="240.5,191.2 240.5,191.2 240.5,191.2 		"/>
		<path fill="#1B75B9" d="M205.8,218.1c-0.1,0-0.1,0-0.2,0v5.8c0.1,0,0.1,0,0.2,0V218.1z"/>
		<g>
			<path fill="#FFFFFF" d="M245.2,191.4c-0.2,0-0.4,0-0.6-0.1c-0.3,0-0.7-0.1-0.9-0.1c-0.2,0-0.3,0-0.5,0c-0.5,0-0.9,0-1.2-0.1
				c-0.1,0-0.3,0-0.4,0c-0.2,0-0.3,0-0.4,0c-0.1,0-0.2,0-0.3,0c-0.1,0-0.2,0-0.2,0c-0.1,0-0.2,0-0.2,0l0,0c0,0-0.9,2.7-2.9,6.4
				c-0.7,1.3-1.6,2.8-2.7,4.3c-4.1,6-10.8,12.7-20.7,15.1c-2.5,0.6-5.3,1-8.3,1l0,0l0,5.8c0.1,0,0.3,0,0.4,0c3.6,0,7-0.4,10-1.2
				c12-3,20.1-11.1,25.1-18.3c1.5-2.1,2.7-4.1,3.6-5.9c1.1-2.1,1.9-3.9,2.5-5.1c0.2-0.6,0.4-1.1,0.6-1.4
				C246.9,191.7,246,191.5,245.2,191.4z"/>
			<path fill="#FFFFFF" d="M174.1,197.6c-2-3.7-2.9-6.4-2.9-6.4l0,0c-0.4,0-0.9,0-1.3,0.1c-1.8,0.1-3.6,0.3-5.4,0.6
				c0.1,0.3,0.3,0.7,0.5,1.2c0.5,1.2,1.3,3,2.4,5.1c4,7.5,12.1,19,26,23.6c3.7,1.3,7.8,2,12.4,2v-5.8c-3.9,0-7.4-0.6-10.5-1.7
				C184.1,212.7,177.5,203.7,174.1,197.6z"/>
		</g>
		<g>
			<path fill="#D1A586" d="M155.6,144.1c-1-5.4-1.7-20.3-3.2-25.8c-3.5-13.3-4.6-30.4,0.1-45c-3.7,2.3-6.3,8.5-7.4,11.8
				c-4.8,14.8,2.3,41.9,2.3,41.9h-3.3c0,0-0.7-3.4-2-7.8c-0.6,1-1.7,1.5-1.4,3.5c0.5,2.8,1.8,3,2.5,3.6c0.7,0.6,1.6,1.1,2.1,2.3
				c0.4,1.2,0.5,2.4,0.3,3.5c-0.5,2-3.4,0.4-5.4-0.5c-1.3-0.6-2.6-4.1-3.6-5.2c-2.6-3-3.8-8.6-1.8-11.9c2.4-3.9,6.7,5.5,8.6,6.4
				c-0.4-1.2-0.5-9.5-1-10.7c-7.7-6.3-12.4,0.7-11.6,9.7c1,12.3,16.1,18.7,15.8,17.2c4,22.2,23.2,37,42.3,42.3
				c0-0.2,0.1-0.4,0.1-0.6C174.1,173.7,158.9,162,155.6,144.1z"/>
			<path fill="#D1A586" d="M172.8,47.4c-1.1,0.5-2.6,1.6-4,3c1.9-1.3,4-2.5,6.2-3.6C174.3,46.9,173.6,47,172.8,47.4z"/>
			<path fill="#BD967F" d="M134.9,114.5c-2,3.3-0.8,9,1.8,11.9c1,1.2,2.3,4.7,3.6,5.2c2,0.9,4.9,2.5,5.4,0.5
				c0.3-1.1,0.2-2.3-0.3-3.5c-0.5-1.2-1.4-1.7-2.1-2.3c-0.7-0.6-2-0.8-2.5-3.6c-0.3-2.1,0.8-2.5,1.4-3.5c-0.6-2.2,1.8-5.3-2.3-7.1
				C137.9,111.1,137.3,110.6,134.9,114.5z"/>
			<path fill="#DCB598" d="M258.2,127c0,0,7.1-27.1,2.3-41.9c-0.2-0.5-0.8-1.4-1.6-2.6c2,12.3,0.7,25.2-2,35.8
				c-1.4,5.5-2.2,20.4-3.2,25.8c-3.1,17-17.2,29.2-32.5,34.4c0,0.1,0,0.1,0,0.2c18.4-5.7,36.4-20.2,40.3-41.7
				c-0.2,1.4,14.8-4.9,15.8-17.2c0.9-10.8-7.6-13.7-12.9-9.5c-3.2,8.2-4.7,16.6-4.7,16.6H258.2z M262.8,128.6
				c0.5-1.2,1.4-1.7,2.1-2.3c0.8-0.6,2-0.8,2.5-3.6c0.4-2.5-1.3-2.6-1.7-4.3c-0.8-2.9,0.2-4.5,1.5-5.7c1.2-1.1,3.1-3.2,6.2,1.7
				c2.1,3.3,0.8,9-1.8,11.9c-1,1.2-2.3,4.7-3.6,5.2c-2,0.9-4.9,2.5-5.4,0.5C262.3,131,262.4,129.8,262.8,128.6z"/>
			<path fill="#BD967F" d="M267.9,131.6c1.3-0.6,2.6-4.1,3.6-5.2c2.6-3,3.8-8.6,1.8-11.9c-3.1-4.9-5-2.8-6.2-1.7
				c-1.2,1.2-2.2,2.7-1.5,5.7c0.4,1.6,2.2,1.8,1.7,4.3c-0.5,2.8-1.8,3-2.5,3.6c-0.7,0.6-1.6,1.1-2.1,2.3c-0.4,1.2-0.5,2.4-0.3,3.5
				C263,134.1,265.9,132.5,267.9,131.6z"/>
			<path fill="#DFBC99" d="M205.1,150.7L205.1,150.7l0,21.5c0,0,0,0,0,0V150.7z"/>
			<path fill="#DFBC99" d="M189,178.7c-14.9-5-30.2-16.7-33.4-34.6c-1-5.4-1.7-20.3-3.2-25.8c-3.5-13.3-4.6-30.4,0.1-45
				c0.8-0.5,1.6-0.8,2.5-0.8c0,0,3.3-2.8,4.7-8.4c1-4,5.3-10,9.1-13.6c1.9-1.3,4-2.5,6.2-3.6c2.7-0.3,6.3-2.5,6.3-2.5
				s2.2-2,13.6-4.1c1.3-0.1,3.6-0.7,4.9-0.7c1,0.1,1.8-0.4,2.7-0.1c0.2,0.1,0.9-0.1,1.1,0c0.2,0.1,1.2-0.4,1.5-0.3v111.6h0v21.5v9.3
				c0,0-0.1,0-0.1,0c-0.2,0-0.4,0-0.5,0c-0.1,0-0.2,0-0.3,0c-0.1,0-0.2,0-0.3,0c0,0-0.1,0-0.1,0v0C198.8,181.9,189,178.7,189,178.7z
				"/>
			<path fill="#131213" d="M142.2,119.1c0.1-0.2,0.3-0.4,0.3-0.7"/>
			<path fill="#131213" d="M142.5,118.4c-0.1,0.3-0.2,0.5-0.3,0.7c1.3,4.5,2,7.8,2,7.8h3.3c0,0-7.1-27.1-2.3-41.9
				c1.1-3.3,3.7-9.6,7.4-11.8c1.7-5.3,4.1-10.2,7.4-14.5c2.5-3.2,5.4-6,8.8-8.3c1.5-1.4,2.9-2.5,4-3c0.8-0.3,1.5-0.5,2.1-0.6
				c6.2-3,12.6-4.9,21-5.6c0.1,0,0.9-0.1,1-0.1c1.3-0.2,1.9-0.9,3-0.8c0.9,0,2.6-0.9,3.6-0.9c0.2,0,0.8-0.2,1-0.2c0.1,0,0.1,0,0.2,0
				c0.2,0,0.1,1.8,0.2,1.8c5.5,0,10.5,0.5,15.2,1.4c0,0,0,0,0,0l0,0c12.6,2.4,22.3,7.8,28.9,16.4c5.3,6.8,8.3,15.1,9.6,23.8
				c0.9,1.2,1.5,2.1,1.6,2.6c4.8,14.8-2.3,41.9-2.3,41.9h3.3c0,0-0.6,0.2,1.6-7.7c0.8-2.9,0.8-4.6,1.1-6.5
				c2.8-34.2,2.4-86.4-60-86.4c0,0-0.1,0-0.2,0c-0.1,0-0.1,0-0.2,0c-62.4,0-64.5,46.9-61.7,81.1"/>
			<path fill="#131213" d="M180.3,45.5c0,0,5.2-2.1,16.6-4.2c-8.4,0.7-15.7,2.5-21.9,5.5C177.7,46.5,180.3,45.5,180.3,45.5z"/>
			<path fill="#131213" d="M159.7,64c1-4,5.3-10,9.1-13.6c-3.4,2.3-6.3,5.1-8.8,8.3c-3.3,4.3-5.8,9.3-7.4,14.5
				c0.8-0.5,1.6-0.8,2.5-0.8C155,72.4,158.3,69.6,159.7,64z"/>
			<path fill="#EFCFAB" d="M258.8,82.5"/>
			<path fill="#EFCFAB" d="M221.1,178.6c-4,1.4-8,2.3-12,2.6c-0.1,0-0.2,0-0.3,0c-0.5,0-0.9,0.1-1.4,0.1c-0.2,0-0.4,0-0.6,0
				c-0.6,0-1.2,0.1-1.8,0.1v-9.3v-21.5V47.5l-0.3-8.4c0,0,50.1-2.6,54.1,43.4c2,12.3,0.7,25.2-2,35.8c-1.4,5.5-2.2,20.4-3.2,25.8
				C250.6,161.1,236.5,173.3,221.1,178.6L221.1,178.6z"/>
		</g>
		<path fill="#FCDB0D" d="M169.7,191.3c-1.3,0.1-2.7,0.3-3.7,0.4v0C167,191.6,168.4,191.4,169.7,191.3z"/>
		<g>
			<path fill="#0B80D6" d="M205.7,223.9c-0.1,0,0,0-0.2,0l-0.9,0c-2.4,0-3.6-0.3-7.6-0.6v157.7c0,0,2.2,0,2.9,0c1.7,0,3.3,0,4.9-0.1
				c2.4,0,4.2-0.1,7.2-0.2V223.3C209,223.7,208.1,223.9,205.7,223.9z"/>
			<path fill="#0B80D6" d="M245.6,198.4c-1,1.8-2.2,3.8-3.7,5.9c-2.5,3.6-4.9,7.4-9.9,10.7v164.1c5-0.5,8-1.2,15-2V197
				C247,197.5,245.9,197.9,245.6,198.4z"/>
			<path fill="#0B80D6" d="M167.6,198.2c-0.5-0.9-1.6-1.6-1.6-2.4v182.9c3,0.6,10,1.1,15,1.5V214.5
				C173,209.3,170.1,202.9,167.6,198.2z"/>
			<path fill="#0B80D6" d="M127.1,214.1c-7.7,8.7-14,19.2-19,30c-16.3,35.1-20.5,74.7-20.5,74.7l13.1,1.5l7.4,0.8l18.9,2.1l11.7,1.3
				l4.9,0.6l-1.2,9l-1.1,7.9l-4.2,31.2c3.1,0.8,6.3,1.5,9.4,2.1c0.5,0.1,1.6,0.2,1.6,0.3V197.4C138,201.5,133.1,207.2,127.1,214.1z"
				/>
			<path fill="#0B80D6" d="M294.8,228.9c-6.1-10.2-12.2-17.7-18.5-23.1c-4.1-3.5-8.3-6.1-11.3-8.2v175.7c0,0-0.1-0.1,0-0.1
				c2.7-0.6,5.1-1.3,7.7-2.1l-5.6-33.6l-0.8-4.5c-0.1-0.4-0.3-0.9-0.4-1.3c-0.3-1-0.4-2.3-0.5-4l-1.1-6.7l1.1-0.1l7.9-0.9l2.6-0.3
				l18.9-2.1l14.3-1.6l11.2-1.2C315.5,274.5,305.8,247.2,294.8,228.9z"/>
		</g>
		<path fill="#FCDB0D" d="M164.9,193.1c0.3,0.7,1.1,1.6,1.1,2.7v-4.1c0,0.1-1.1,0.1-1.6,0.2C164.5,192.2,164.7,192.6,164.9,193.1z"
			/>
		<path fill="#FCDB0D" d="M247.7,191.8c0.1,0,0.2,0,0.3,0c0,0,0,0,0,0C247.9,191.8,247.8,191.8,247.7,191.8z"/>
		<g>
			<path fill="#131213" d="M164.9,193.1c-0.2-0.5-0.4-0.9-0.5-1.2c0.5-0.1,1.6-0.1,1.6-0.2v0c-4,0.7-10.3,2.1-15,4.2
				c-1.1,0.5-3,1-3,1.5v178.2c4,1.2,11,2.2,18,3V195.8C166,194.7,165.2,193.8,164.9,193.1z"/>
			<path fill="#131213" d="M192.7,221.8c-5-1.7-8.7-4.3-11.7-7.3v165.6c6,0.5,13,0.7,16,0.7V223.2
				C194,222.8,194.4,222.4,192.7,221.8z"/>
			<path fill="#131213" d="M216,222.6c-1,0.3-1,0.5-4,0.6v157.3c7-0.3,14-0.8,20-1.5V215C226,218.3,222,221.1,216,222.6z"/>
			<path fill="#131213" d="M254.2,193.3c-2.2-0.7-4.3-1.1-6-1.4c-0.1,0.3,0.2,0.8,0,1.4c-0.4,1-1.2,2.2-1.2,3.7v180.1
				c3-1,10-2.3,18-3.8V197.7C261,195.6,257.3,194.2,254.2,193.3z"/>
		</g>
	</g>
</g>
</svg>
