<?xml version="1.0" encoding="utf-8"?>
<!-- Generator: Adobe Illustrator 18.0.0, SVG Export Plug-In . SVG Version: 6.00 Build 0)  -->
<!DOCTYPE svg PUBLIC "-//W3C//DTD SVG 1.1//EN" "http://www.w3.org/Graphics/SVG/1.1/DTD/svg11.dtd">
<svg version="1.1" id="Layer_1" xmlns="http://www.w3.org/2000/svg" xmlns:xlink="http://www.w3.org/1999/xlink" x="0px" y="0px"
	 viewBox="0 0 400 400" enable-background="new 0 0 400 400" xml:space="preserve">
<circle fill="#FFFFFF" cx="200" cy="200" r="190.3"/>
<circle fill="#D1D4D5" cx="200" cy="200" r="181.2"/>
<g>
	<defs>
		<circle id="SVGID_1_" cx="200" cy="200" r="181.2"/>
	</defs>
	<clipPath id="SVGID_2_">
		<use xlink:href="#SVGID_1_"  overflow="visible"/>
	</clipPath>
	<g clip-path="url(#SVGID_2_)">
		<path fill="#DFBA98" d="M138.1,325.1l-11.6-1.3l-18.9-2.1l-7.3-0.8c-0.7,10.5-1,22-0.9,34.4c0,0-0.2,2.2-0.5,6
			c9.5,3.9,19.2,7.2,29.2,10l0.1-0.7c0,0,7-11.4,12.6-28.1l1.1-7.9l1.2-8.9L138.1,325.1z"/>
		<path fill="#DFBA98" d="M204.8,183.4c-14.6-0.1-23.1-10.4-25.6-13.8c0,0.1,0,0.2-0.1,0.3c-0.3,1.9-0.6,3.7-1,5.4
			c-1.8,8.2-4.2,14.3-7.7,16.9l0,0c0,0,0.9,2.7,2.9,6.3c3.4,6.1,10,15.1,21,18.7c3.1,1,6.6,1.7,10.5,1.7v-19.3L204.8,183.4
			C204.8,183.4,204.8,183.4,204.8,183.4z"/>
		<path fill="#DFBA98" d="M205,219v-19.3c0,0-0.1,0-0.2,0V219C204.9,219,205,219,205,219z"/>
		<path fill="#EECFAB" d="M266,338c0.1-0.2,0.2-0.5,0.3-0.7c-0.4-1.2-0.7-2.5-1.1-3.7L266,338z"/>
		<path fill="#EECFAB" d="M231.5,173.9c-0.3-1.3-0.5-2.6-0.7-4.1v-0.1c0-0.1,0-0.3-0.1-0.4c-2.3,3.7-10.3,14-25.8,14
			c0,0-0.1,0-0.1,0v16.3c0,0,0.1,0,0.2,0V219l0,0c3,0,5.7-0.4,8.2-1c9.9-2.5,16.5-9.1,20.7-15.1c1.1-1.5,1.9-3,2.7-4.3
			c2-3.7,2.9-6.4,2.9-6.4l0,0C235.9,189.4,233.3,182.8,231.5,173.9z"/>
		<path opacity="0.7" fill="#BD967F" d="M179.4,167.5c-0.1,0.6-0.2,1.3-0.3,1.9c0,0.1,0.1,0.1,0.2,0.2c0.1-0.7,0.2-1.4,0.3-2.1
			C179.5,167.5,179.4,167.5,179.4,167.5z"/>
		<path opacity="0.7" fill="#BD967F" d="M230.7,169.4C230.8,169.4,230.8,169.4,230.7,169.4l0-0.1c-0.1-0.9-0.3-1.8-0.4-2.7
			c0,0,0,0-0.1,0C230.5,167.5,230.6,168.5,230.7,169.4z"/>
		<path fill="#DFBA98" d="M204.8,183.4C204.8,183.4,204.8,183.4,204.8,183.4l0.1-12.6c0,0-0.1,0-0.1,0c-0.2,0-0.4,0-0.6,0
			c-0.1,0-0.2,0-0.3,0c-0.1,0-0.2,0-0.3,0c-0.1,0-0.2,0-0.2,0c-0.1,0-0.2,0-0.2,0c-7.5,0-15.5-1.1-23.5-3.3
			c-0.1,0.7-0.2,1.4-0.3,2.1C181.7,173,190.2,183.3,204.8,183.4z"/>
		<path fill="#EECFAB" d="M211.4,170.5c-0.2,0-0.3,0-0.5,0c-0.7,0.1-1.5,0.1-2.2,0.2c-0.3,0-0.7,0-1,0.1c-1,0.1-1.9,0.1-2.9,0.1
			v12.6c0,0,0,0,0.1,0c15.6,0,23.5-10.3,25.8-14c-0.1-0.9-0.3-1.9-0.4-2.8C224,168.6,217.6,169.9,211.4,170.5z"/>
		<path opacity="0.7" fill="#BD967F" d="M230.3,166.6c-6.4,2-12.8,3.3-19,3.9c-0.2,0-0.3,0-0.5,0c-0.7,0.1-1.5,0.1-2.2,0.2
			c-0.3,0-0.7,0-1,0.1c-1,0.1-1.9,0.1-2.9,0.1c0,0-0.1,0-0.1,0c-0.2,0-0.4,0-0.6,0c-0.1,0-0.2,0-0.3,0c-0.1,0-0.2,0-0.3,0
			c-0.1,0-0.2,0-0.2,0c-0.1,0-0.2,0-0.2,0c-7.5,0-15.5-1.1-23.5-3.3c-0.1,0.7-0.2,1.4-0.3,2.1c2.4,3.4,11,13.7,25.6,13.8
			c0,0,0,0,0.1,0c0,0,0,0,0.1,0c15.6,0,23.5-10.3,25.8-14C230.6,168.5,230.5,167.5,230.3,166.6z"/>
		<path fill="#D1A586" d="M179.7,166.6c-0.1,0-0.1,0-0.2-0.1c0,0.3-0.1,0.7-0.2,1c0.1,0,0.1,0,0.2,0
			C179.6,167.2,179.6,166.9,179.7,166.6z"/>
		<path fill="#D1A586" d="M179.7,166.6c0,0.3-0.1,0.7-0.2,1c8,2.2,16,3.3,23.5,3.3c0.1,0,0.2,0,0.2,0c-0.1,0-0.2,0-0.3,0
			C195.8,170.7,187.8,169.3,179.7,166.6z"/>
		<path fill="#DCB598" d="M230.3,166.3c0,0.1,0,0.2,0,0.3c0,0,0,0,0.1,0C230.4,166.5,230.4,166.4,230.3,166.3
			C230.3,166.3,230.3,166.3,230.3,166.3z"/>
		<path fill="#DCB598" d="M204.7,170.9c0,0,0.1,0,0.1,0v0C204.8,170.8,204.8,170.8,204.7,170.9z"/>
		<path fill="#DCB598" d="M203.3,170.9c0.1,0,0.2,0,0.2,0c0.1,0,0.2,0,0.3,0c-0.1,0-0.3,0-0.4,0
			C203.4,170.9,203.3,170.9,203.3,170.9z"/>
		<path fill="#DCB598" d="M204.9,170.8C204.9,170.8,204.9,170.8,204.9,170.8L204.9,170.8c0.9,0,1.8,0,2.8-0.1
			C206.8,170.8,205.9,170.8,204.9,170.8z"/>
		<path fill="#DCB598" d="M210.9,170.5c-0.7,0.1-1.5,0.1-2.2,0.2C209.4,170.6,210.2,170.6,210.9,170.5z"/>
		<path fill="#DCB598" d="M230.3,166.6c0-0.1,0-0.2,0-0.3c-6.3,2.2-12.7,3.6-18.9,4.2C217.6,169.9,224,168.6,230.3,166.6z"/>
		<path fill="#DCB598" d="M203,170.9c0.1,0,0.2,0,0.3,0c0,0,0.1,0,0.1,0C203.3,170.9,203.1,170.9,203,170.9z"/>
		<path fill="#DFBC99" d="M204.2,170.9c0.2,0,0.4,0,0.6,0c-0.3,0-0.6,0-0.9,0C204,170.9,204.1,170.9,204.2,170.9z"/>
		<path fill="#DFBC99" d="M181.1,153.7c0-0.2,0-0.4,0-0.6c0,0-0.1,0-0.1,0c-0.2,2.2-0.4,4.3-0.6,6.4c-0.2,2.4-0.5,4.8-0.9,7.1
			c0.1,0,0.1,0,0.2,0.1c0.3-2.1,0.6-4.3,0.8-6.5C180.7,157.9,180.9,155.8,181.1,153.7z"/>
		<path fill="#DFBC99" d="M204.9,156.2v14.7c0,0,0,0,0.1,0L204.9,156.2C204.9,156.2,204.9,156.2,204.9,156.2z"/>
		<path fill="#EFCFAB" d="M211.4,170.5c-0.2,0-0.3,0-0.5,0C211.1,170.5,211.2,170.5,211.4,170.5z"/>
		<path fill="#EFCFAB" d="M208.7,170.7c-0.3,0-0.7,0-1,0.1C208.1,170.7,208.4,170.7,208.7,170.7z"/>
		<path fill="#EFCFAB" d="M228.9,152.8C228.9,152.8,228.9,152.8,228.9,152.8c0,0.2,0,0.4,0,0.6c0.2,2.1,0.4,4.2,0.6,6.2
			c0.3,2.3,0.5,4.5,0.8,6.7c0,0,0,0,0.1,0c-0.3-2.3-0.6-4.7-0.9-7.2C229.3,157,229.1,154.9,228.9,152.8z"/>
		<path fill="#EECFAB" d="M309.1,354.5c0.1-13.8-0.4-26.4-1.2-37.9l-14.2,1.6l-18.9,2.1l-2.6,0.3l-7.8,0.9l-1.1,0.1l1.1,6.7l0.9,5.3
			c0.3,1.3,0.7,2.5,1.1,3.7c4.9,16.3,11.7,28.5,13.6,31.7c10.1-3.2,19.9-6.9,29.5-11.2C309.2,355.7,309.1,354.5,309.1,354.5z"/>
		<path fill="#FCDB0D" d="M239.7,192.2c0,0,0.1,0,0.2,0C239.8,192.2,239.7,192.2,239.7,192.2z"/>
		<path fill="#FCDB0D" d="M240.2,192.2c0.1,0,0.3,0,0.4,0C240.5,192.2,240.3,192.2,240.2,192.2z"/>
		<path fill="#FCDB0D" d="M242.7,192.3c0.3,0,0.6,0.1,0.9,0.1C243.3,192.4,243,192.4,242.7,192.3z"/>
		<path fill="#FCDB0D" d="M241,192.2c0.3,0,0.8,0,1.2,0.1C241.8,192.3,241.4,192.2,241,192.2z"/>
		<path fill="#FCDB0D" d="M265.2,333.5l-0.9-5.3c0.1,1.6,0.2,3,0.5,4C265,332.7,265.1,333.1,265.2,333.5z"/>
		<path fill="#1B75B9" d="M239.9,192.2c0.1,0,0.2,0,0.3,0C240.1,192.2,240,192.2,239.9,192.2z"/>
		<path fill="#1B75B9" d="M240.6,192.2c0.1,0,0.3,0,0.4,0C240.9,192.2,240.7,192.2,240.6,192.2z"/>
		<path fill="#1B75B9" d="M243.7,192.4c0.2,0,0.4,0,0.5,0.1C244,192.5,243.9,192.4,243.7,192.4z"/>
		<path fill="#1B75B9" d="M242.2,192.3c0.2,0,0.3,0,0.5,0C242.6,192.3,242.4,192.3,242.2,192.3z"/>
		<path fill="#1B75B9" d="M239.7,192.2c-0.1,0-0.2,0-0.2,0l0,0C239.5,192.3,239.6,192.2,239.7,192.2z"/>
		<polygon fill="#1B75B9" points="239.5,192.3 239.5,192.3 239.5,192.3 		"/>
		<path fill="#1B75B9" d="M205,219c-0.1,0-0.1,0-0.2,0v5.7c0.1,0,0.1,0,0.2,0V219z"/>
		<g>
			<path fill="#FFFFFF" d="M244.2,192.5c-0.2,0-0.4,0-0.5-0.1c-0.3,0-0.6-0.1-0.9-0.1c-0.2,0-0.3,0-0.5,0c-0.5,0-0.9,0-1.2-0.1
				c-0.1,0-0.3,0-0.4,0c-0.2,0-0.3,0-0.4,0c-0.1,0-0.2,0-0.3,0c-0.1,0-0.2,0-0.2,0c-0.1,0-0.2,0-0.2,0l0,0c0,0-0.9,2.7-2.9,6.4
				c-0.7,1.3-1.6,2.8-2.7,4.3c-4.1,5.9-10.8,12.6-20.7,15.1c-2.5,0.6-5.3,1-8.2,1l0,0l0,5.7c0.1,0,0.3,0,0.4,0c3.6,0,6.9-0.4,10-1.2
				c12-3,20-11.1,25-18.2c1.5-2.1,2.7-4.1,3.6-5.9c1.1-2.1,1.9-3.9,2.4-5.1c0.2-0.6,0.4-1.1,0.6-1.4
				C246,192.7,245.1,192.6,244.2,192.5z"/>
			<path fill="#FFFFFF" d="M173.4,198.6c-2-3.7-2.9-6.3-2.9-6.3l0,0c-0.4,0-0.9,0-1.3,0.1c-1.8,0.1-3.6,0.3-5.4,0.6
				c0.1,0.3,0.3,0.7,0.5,1.2c0.5,1.2,1.3,3,2.4,5c4,7.4,12,18.9,25.8,23.5c3.7,1.2,7.8,2,12.3,2V219c-3.9,0-7.3-0.6-10.5-1.7
				C183.4,213.6,176.8,204.7,173.4,198.6z"/>
		</g>
		<g>
			<path fill="#D1A586" d="M155,145.4c-1-5.4-1.7-20.2-3.1-25.7c-3.4-13.2-4.6-30.2,0.1-44.8c-3.6,2.2-6.2,8.5-7.3,11.8
				c-4.7,14.7,2.3,41.7,2.3,41.7h-3.3c0,0-0.7-3.3-2-7.8c-0.6,1-1.7,1.5-1.4,3.5c0.5,2.8,1.8,3,2.5,3.6c0.7,0.6,1.6,1.1,2.1,2.3
				c0.4,1.2,0.5,2.4,0.3,3.5c-0.5,2-3.4,0.4-5.3-0.5c-1.3-0.6-2.6-4.1-3.6-5.2c-2.6-2.9-3.8-8.6-1.8-11.9c2.4-3.9,6.7,5.5,8.6,6.4
				c-0.4-1.2-0.5-9.4-1-10.7c-7.6-6.3-12.3,0.7-11.6,9.6c1,12.2,16,18.6,15.7,17.1c4,22.1,23.1,36.8,42.1,42.1
				c0-0.2,0.1-0.4,0.1-0.6C173.5,174.8,158.3,163.1,155,145.4z"/>
			<path fill="#D1A586" d="M172.2,49.1c-1.1,0.5-2.6,1.6-4,3c1.9-1.3,4-2.5,6.2-3.6C173.7,48.6,173,48.7,172.2,49.1z"/>
			<path fill="#BD967F" d="M134.4,115.9c-2,3.3-0.8,8.9,1.8,11.9c1,1.2,2.3,4.6,3.6,5.2c2,0.9,4.9,2.5,5.3,0.5
				c0.3-1.1,0.2-2.3-0.3-3.5c-0.5-1.2-1.4-1.7-2.1-2.3c-0.7-0.6-2-0.8-2.5-3.6c-0.3-2.1,0.8-2.5,1.4-3.5c-0.6-2.2,1.8-5.3-2.3-7.1
				C137.5,112.5,136.8,112,134.4,115.9z"/>
			<path fill="#DCB598" d="M257.2,128.3c0,0,7-27,2.3-41.7c-0.2-0.5-0.8-1.4-1.6-2.6c2,12.2,0.7,25.1-2,35.6
				c-1.4,5.5-2.2,20.3-3.1,25.7c-3.1,16.9-17.1,29-32.3,34.3c0,0.1,0,0.1,0,0.2c18.3-5.7,36.2-20.1,40.1-41.5
				c-0.2,1.4,14.8-4.9,15.8-17.1c0.9-10.8-7.5-13.6-12.8-9.4c-3.2,8.2-4.7,16.5-4.7,16.5H257.2z M261.8,129.9
				c0.5-1.2,1.4-1.7,2.1-2.3c0.7-0.6,2-0.8,2.5-3.6c0.4-2.5-1.3-2.6-1.7-4.2c-0.8-2.9,0.2-4.5,1.4-5.6c1.2-1.1,3.1-3.2,6.2,1.7
				c2,3.3,0.8,8.9-1.8,11.9c-1,1.2-2.3,4.6-3.6,5.2c-2,0.9-4.9,2.5-5.4,0.5C261.2,132.4,261.3,131.1,261.8,129.9z"/>
			<path fill="#BD967F" d="M266.8,132.9c1.3-0.6,2.6-4.1,3.6-5.2c2.6-2.9,3.8-8.6,1.8-11.9c-3.1-4.9-5-2.8-6.2-1.7
				c-1.2,1.2-2.2,2.7-1.4,5.6c0.4,1.6,2.1,1.8,1.7,4.2c-0.5,2.8-1.8,3-2.5,3.6c-0.7,0.6-1.6,1.1-2.1,2.3c-0.4,1.2-0.5,2.4-0.3,3.5
				C262,135.4,264.9,133.8,266.8,132.9z"/>
			<path fill="#DFBC99" d="M204.3,151.9L204.3,151.9l0,21.4c0,0,0,0,0,0V151.9z"/>
			<path fill="#DFBC99" d="M188.3,179.8c-14.8-5-30.1-16.7-33.3-34.4c-1-5.4-1.7-20.2-3.1-25.7c-3.4-13.2-4.6-30.2,0.1-44.8
				c0.8-0.5,1.6-0.8,2.5-0.8c0,0,3.3-2.8,4.7-8.4c1-4,5.2-9.9,9-13.6c1.9-1.3,4-2.5,6.2-3.6c2.7-0.3,6.3-2.5,6.3-2.5s2.2-2,13.6-4.1
				c1.3-0.1,3.6-0.6,4.9-0.7c1,0.1,1.8-0.4,2.7-0.1c0.2,0.1,0.9-0.1,1.1,0c0.2,0.1,1.2-0.4,1.4-0.3v111.1h0v21.4v9.2
				c0,0-0.1,0-0.1,0c-0.2,0-0.4,0-0.5,0c-0.1,0-0.2,0-0.3,0c-0.1,0-0.2,0-0.3,0c0,0-0.1,0-0.1,0v0
				C198.1,183,188.3,179.8,188.3,179.8z"/>
			<path fill="#131213" d="M141.7,120.5c0.1-0.2,0.3-0.4,0.3-0.7"/>
			<path fill="#131213" d="M142,119.8c-0.1,0.3-0.2,0.5-0.3,0.7c1.3,4.5,2,7.8,2,7.8h3.3c0,0-7-27-2.3-41.7
				c1.1-3.3,3.7-9.6,7.3-11.8c1.7-5.2,4.1-10.1,7.4-14.5c2.5-3.2,5.4-6,8.8-8.3c1.5-1.4,2.9-2.5,4-3c0.8-0.3,1.5-0.5,2.1-0.6
				c6.2-3,12.6-4.9,20.9-5.6c0.1,0,0.9-0.1,1-0.1c1.2-0.2,1.9-0.9,3-0.8c0.9,0,2.6-0.9,3.6-0.9c0.2,0,0.8-0.2,1-0.2
				c0.1,0,0.1,0,0.2,0c0.2,0,0.1,1.8,0.2,1.8c5.4,0,10.5,0.5,15.1,1.4c0,0,0,0,0,0l0,0c12.6,2.4,22.2,7.8,28.8,16.3
				c5.2,6.8,8.2,15,9.6,23.7c0.9,1.2,1.5,2.1,1.6,2.6c4.7,14.7-2.3,41.7-2.3,41.7h3.3c0,0-0.6,0.2,1.6-7.7c0.8-2.9,0.8-4.6,1.1-6.5
				c2.8-34,2.4-86-59.7-86c0,0-0.1,0-0.2,0c-0.1,0-0.1,0-0.2,0c-62.1,0-64.2,46.7-61.5,80.7"/>
			<path fill="#131213" d="M179.6,47.2c0,0,5.2-2.1,16.5-4.2c-8.4,0.7-15.6,2.5-21.8,5.5C177.1,48.2,179.6,47.2,179.6,47.2z"/>
			<path fill="#131213" d="M159.1,65.6c1-4,5.2-9.9,9-13.6c-3.4,2.3-6.3,5.1-8.8,8.3c-3.3,4.3-5.7,9.2-7.4,14.5
				c0.8-0.5,1.6-0.8,2.5-0.8C154.5,74,157.7,71.2,159.1,65.6z"/>
			<path fill="#EFCFAB" d="M257.8,84.1"/>
			<path fill="#EFCFAB" d="M220.3,179.7c-3.9,1.4-8,2.2-11.9,2.6c-0.1,0-0.2,0-0.3,0c-0.5,0-0.9,0.1-1.4,0.1c-0.2,0-0.4,0-0.6,0
				c-0.6,0-1.2,0.1-1.8,0.1v-9.2v-21.4V49.1l-0.3-8.3c0,0,49.9-2.6,53.8,43.2c2,12.2,0.7,25.1-2,35.6c-1.4,5.5-2.2,20.3-3.1,25.7
				C249.6,162.3,235.6,174.4,220.3,179.7L220.3,179.7z"/>
		</g>
		<path fill="#FCDB0D" d="M169.7,192.3c-1.3,0.1-2.7,0.2-3.7,0.4v0C167,192.6,168.4,192.4,169.7,192.3z"/>
		<g>
			<path fill="#131213" d="M204.3,224.8c-0.1,0,0.3,0,0.1,0l-0.4,0c-2.4,0-3.1-0.3-7.1-0.6v157c0,0,1.9,0,2.5,0c1.7,0,2.5,0,4.1-0.1
				c2.4,0,3.4-0.1,6.4-0.2V224.2C207,224.5,206.7,224.8,204.3,224.8z"/>
			<path fill="#131213" d="M244.6,199.4c-1,1.8-1.3,3.8-2.7,5.9c-2.5,3.6-6.9,7.4-8.9,10.6v163.4c2-0.5,6-1.2,13-2V198
				C246,198.5,244.9,198.9,244.6,199.4z"/>
			<path fill="#131213" d="M166.6,199.2c-0.5-0.9-0.6-1.6-0.6-2.4v182.1c2,0.6,10,1.1,13,1.4V215.5
				C172,210.3,169.1,203.9,166.6,199.2z"/>
			<path fill="#131213" d="M126.9,215c-7.6,8.7-14,19.1-19.1,29.9c-16.3,35-20.5,74.4-20.5,74.4l13,1.5l7.3,0.8l18.9,2.1l11.6,1.3
				l4.9,0.6l-1.2,8.9l-1.1,7.9l-4.2,31.1c3.1,0.7,6.6,1.5,9.7,2.1c0.5,0.1,1.8,0.2,1.8,0.3V198.5C137,202.5,132.9,208.2,126.9,215z"
				/>
			<path fill="#131213" d="M293.6,229.8c-6.1-10.2-12.1-17.6-18.4-23c-4-3.5-8.3-6.1-11.3-8.1v174.9c0,0-0.1-0.1,0-0.1
				c2.6-0.6,5-1.3,7.6-2l-5.6-33.5l-0.8-4.5c-0.1-0.4-0.3-0.9-0.4-1.3c-0.3-1-0.4-2.3-0.5-4l-1.1-6.7l1.1-0.1l7.8-0.9l2.6-0.3
				l18.9-2.1l14.2-1.6l11.1-1.2C314.2,275.1,304.6,248,293.6,229.8z"/>
		</g>
		<path fill="#FCDB0D" d="M164.6,194.1c0.3,0.7,0.4,1.6,1.4,2.7v-4c-1,0.1-1.2,0.1-1.8,0.2C164.3,193.2,164.4,193.7,164.6,194.1z"/>
		<path fill="#FCDB0D" d="M246.7,192.9c0.1,0,0.2,0,0.3,0c0,0,0,0,0,0C246.9,192.9,246.8,192.9,246.7,192.9z"/>
		<g>
			<path fill="#FFFFFF" d="M164.6,194.1c-0.2-0.5-0.2-0.9-0.3-1.2c0.5-0.1,1.8-0.1,1.8-0.2v0c-4,0.7-10.3,2.1-15,4.2
				c-1.1,0.5-3,1-3,1.5v177.4c4,1.2,11,2.2,18,3V196.8C166,195.8,164.9,194.8,164.6,194.1z"/>
			<path fill="#FFFFFF" d="M191.7,222.7c-5-1.7-8.7-4.3-12.7-7.2v164.9c7,0.5,15,0.7,18,0.7v-157C194,223.7,193.4,223.3,191.7,222.7
				z"/>
			<path fill="#FFFFFF" d="M215.5,223.5c-1,0.3-1.5,0.5-5.5,0.6v156.6c8-0.3,16-0.8,23-1.5V215.9C226,219.3,221.5,222,215.5,223.5z"
				/>
			<path fill="#FFFFFF" d="M253.2,194.3c-2.2-0.7-4.3-1.1-6-1.4c-0.1,0.3,0.2,0.8,0,1.4c-0.4,1-1.2,2.2-1.2,3.7v179.3
				c4-1,11-2.3,18-3.7V198.7C261,196.7,256.3,195.3,253.2,194.3z"/>
		</g>
	</g>
</g>
</svg>
