<?xml version="1.0" encoding="utf-8"?>
<!-- Generator: Adobe Illustrator 20.1.0, SVG Export Plug-In . SVG Version: 6.00 Build 0)  -->
<svg version="1.1" id="Layer_1" xmlns="http://www.w3.org/2000/svg" xmlns:xlink="http://www.w3.org/1999/xlink" x="0px" y="0px"
	 viewBox="0 0 400 400" style="enable-background:new 0 0 400 400;" xml:space="preserve">
<style type="text/css">
	.st0{fill:#FFFFFF;}
	.st1{fill:#D1D4D5;}
	.st2{clip-path:url(#SVGID_2_);}
	.st3{fill:#DFBA98;}
	.st4{fill:#EECFAB;}
	.st5{opacity:0.7;fill:#BD967F;enable-background:new    ;}
	.st6{fill:#D1A586;}
	.st7{fill:#DCB598;}
	.st8{fill:#DFBC99;}
	.st9{fill:#EFCFAB;}
	.st10{fill:#FCDB0D;}
	.st11{fill:#1B75B9;}
	.st12{fill:#63A8D6;}
	.st13{fill:#BD967F;}
	.st14{fill:#131213;}
	.st15{fill:#053149;}
	.st16{fill:#FF0000;}
	.st17{fill:#F2ED3D;}
</style>
<circle class="st0" cx="200" cy="200" r="190.3"/>
<circle class="st1" cx="200" cy="200" r="181.2"/>
<g>
	<g>
		<g>
			<defs>
				<circle id="SVGID_1_" cx="200" cy="200" r="181.2"/>
			</defs>
			<clipPath id="SVGID_2_">
				<use xlink:href="#SVGID_1_"  style="overflow:visible;"/>
			</clipPath>
			<g class="st2">
				<path class="st3" d="M136.7,326l-11.6-1.3l-18.8-2.1l-7.3-0.8c-0.7,10.5-1,21.9-0.9,34.3c0,0-0.2,2.2-0.5,6
					c9.5,3.9,19.2,7.2,29.1,10l0.1-0.7c0,0,7-11.4,12.6-28l1.1-7.8l1.2-8.9L136.7,326z"/>
				<path class="st3" d="M203.9,185.3c-14.5-0.1-23.1-10.4-25.5-13.8c0,0.1,0,0.2-0.1,0.3c-0.3,1.9-0.6,3.7-1,5.4
					c-1.8,8.2-4.2,14.3-7.7,16.9l0,0c0,0,0.9,2.7,2.9,6.3c3.4,6.1,10,15,20.9,18.7c3.1,1,6.6,1.7,10.4,1.7v-19.2L203.9,185.3
					C204,185.3,204,185.3,203.9,185.3z"/>
				<path class="st3" d="M204.2,220.9v-19.3c0,0-0.1,0-0.2,0v19.2C204.1,220.9,204.1,220.9,204.2,220.9z"/>
				<path class="st4" d="M265,339.6c0.1-0.2,0.2-0.5,0.3-0.7c-0.4-1.2-0.7-2.5-1.1-3.7L265,339.6z"/>
				<path class="st4" d="M230.6,175.9c-0.3-1.3-0.5-2.6-0.7-4v-0.1c0-0.1,0-0.3-0.1-0.4c-2.3,3.7-10.2,14-25.8,14h-0.1v16.3
					c0,0,0.1,0,0.2,0V221l0,0c3,0,5.7-0.4,8.2-1c9.9-2.5,16.5-9.1,20.6-15c1.1-1.5,1.9-3,2.7-4.3c2-3.7,2.9-6.4,2.9-6.4l0,0
					C235,191.4,232.4,184.7,230.6,175.9z"/>
				<path class="st5" d="M178.6,169.5c-0.1,0.6-0.2,1.3-0.3,1.9c0,0.1,0.1,0.1,0.2,0.2c0.1-0.7,0.2-1.4,0.3-2
					C178.7,169.5,178.6,169.5,178.6,169.5z"/>
				<path class="st5" d="M229.8,171.4C229.8,171.3,229.9,171.3,229.8,171.4v-0.1c-0.1-0.9-0.3-1.8-0.4-2.7c0,0,0,0-0.1,0
					C229.6,169.5,229.7,170.5,229.8,171.4z"/>
				<path class="st3" d="M203.9,185.3C204,185.3,204,185.3,203.9,185.3l0.1-12.5h-0.1c-0.2,0-0.4,0-0.6,0c-0.1,0-0.2,0-0.3,0
					s-0.2,0-0.3,0s-0.2,0-0.2,0c-0.1,0-0.2,0-0.2,0c-7.5,0-15.5-1.1-23.5-3.3c-0.1,0.7-0.2,1.4-0.3,2
					C180.8,174.9,189.4,185.3,203.9,185.3z"/>
				<path class="st4" d="M210.5,172.4c-0.2,0-0.3,0-0.5,0c-0.7,0.1-1.5,0.1-2.2,0.2c-0.3,0-0.6,0-1,0.1c-1,0.1-1.9,0.1-2.9,0.1v12.5
					c0,0,0,0,0.1,0c15.5,0,23.4-10.3,25.8-14c-0.1-0.9-0.3-1.9-0.4-2.8C223.1,170.5,216.7,171.8,210.5,172.4z"/>
				<path class="st5" d="M229.4,168.6c-6.4,2-12.7,3.3-18.9,3.9c-0.2,0-0.3,0-0.5,0c-0.7,0.1-1.5,0.1-2.2,0.2c-0.3,0-0.6,0-1,0.1
					c-1,0.1-1.9,0.1-2.9,0.1h-0.1c-0.2,0-0.4,0-0.6,0c-0.1,0-0.2,0-0.3,0s-0.2,0-0.3,0s-0.2,0-0.2,0c-0.1,0-0.2,0-0.2,0
					c-7.5,0-15.5-1.1-23.5-3.3c-0.1,0.7-0.2,1.4-0.3,2c2.4,3.4,11,13.7,25.5,13.8c0,0,0,0,0.1,0c0,0,0,0,0.1,0
					c15.5,0,23.4-10.3,25.8-14C229.7,170.5,229.6,169.5,229.4,168.6z"/>
				<path class="st6" d="M178.9,168.5c-0.1,0-0.1,0-0.2-0.1c0,0.3-0.1,0.7-0.2,1c0.1,0,0.1,0,0.2,0
					C178.8,169.2,178.8,168.9,178.9,168.5z"/>
				<path class="st6" d="M178.9,168.5c0,0.3-0.1,0.7-0.1,1c8,2.2,16,3.3,23.5,3.3c0.1,0,0.2,0,0.2,0c-0.1,0-0.2,0-0.3,0
					C195,172.7,187,171.2,178.9,168.5z"/>
				<path class="st7" d="M229.4,168.3c0,0.1,0,0.2,0,0.3c0,0,0,0,0.1,0C229.5,168.4,229.5,168.3,229.4,168.3
					C229.4,168.2,229.4,168.2,229.4,168.3z"/>
				<path class="st7" d="M203.9,172.8h0.1l0,0H203.9z"/>
				<path class="st7" d="M202.5,172.8c0.1,0,0.2,0,0.2,0c0.1,0,0.2,0,0.3,0c-0.1,0-0.3,0-0.4,0C202.5,172.8,202.5,172.8,202.5,172.8
					z"/>
				<path class="st7" d="M204.1,172.8C204,172.8,204,172.8,204.1,172.8L204.1,172.8c0.9,0,1.8,0,2.8-0.1
					C205.9,172.8,205,172.8,204.1,172.8z"/>
				<path class="st7" d="M210,172.5c-0.7,0.1-1.5,0.1-2.2,0.2C208.6,172.6,209.3,172.6,210,172.5z"/>
				<path class="st7" d="M229.4,168.6c0-0.1,0-0.2,0-0.3c-6.3,2.1-12.6,3.6-18.9,4.2C216.7,171.8,223.1,170.5,229.4,168.6z"/>
				<path class="st7" d="M202.1,172.8c0.1,0,0.2,0,0.3,0h0.1C202.4,172.8,202.3,172.8,202.1,172.8z"/>
				<path class="st8" d="M203.3,172.8c0.2,0,0.4,0,0.6,0c-0.3,0-0.6,0-0.9,0C203.1,172.8,203.2,172.8,203.3,172.8z"/>
				<path class="st8" d="M180.3,155.7c0-0.2,0-0.4,0-0.6h-0.1c-0.2,2.2-0.4,4.3-0.6,6.3c-0.2,2.4-0.5,4.8-0.9,7c0.1,0,0.1,0,0.2,0.1
					c0.3-2.1,0.6-4.3,0.8-6.5C179.9,159.9,180.1,157.8,180.3,155.7z"/>
				<path class="st8" d="M204,158.2v14.6c0,0,0,0,0.1,0L204,158.2L204,158.2z"/>
				<path class="st9" d="M210.5,172.4c-0.2,0-0.3,0-0.5,0C210.2,172.5,210.3,172.5,210.5,172.4z"/>
				<path class="st9" d="M207.8,172.7c-0.3,0-0.6,0-1,0.1C207.2,172.7,207.5,172.7,207.8,172.7z"/>
				<path class="st9" d="M228,154.8L228,154.8c0,0.2,0,0.4,0,0.6c0.2,2.1,0.4,4.2,0.6,6.2c0.3,2.3,0.5,4.5,0.8,6.6c0,0,0,0,0.1,0
					c-0.3-2.3-0.6-4.7-0.9-7.2C228.4,159,228.2,156.9,228,154.8z"/>
				<path class="st4" d="M308,356c0.1-13.8-0.4-26.3-1.2-37.8l-14.2,1.6l-18.8,2.1l-2.6,0.3l-7.8,0.9l-1.1,0.1l1.1,6.6l0.9,5.3
					c0.3,1.3,0.7,2.5,1.1,3.7c4.9,16.3,11.7,28.5,13.5,31.6c10.1-3.2,19.9-6.9,29.4-11.2C308.1,357.2,308,356,308,356z"/>
				<path class="st10" d="M238.8,194.2c0,0,0.1,0,0.2,0C238.9,194.2,238.8,194.2,238.8,194.2z"/>
				<path class="st10" d="M239.3,194.1c0.1,0,0.3,0,0.4,0C239.5,194.1,239.4,194.1,239.3,194.1z"/>
				<path class="st10" d="M241.8,194.2c0.3,0,0.6,0.1,0.9,0.1C242.4,194.3,242.1,194.3,241.8,194.2z"/>
				<path class="st10" d="M240.1,194.2c0.3,0,0.7,0,1.2,0.1C240.8,194.2,240.4,194.2,240.1,194.2z"/>
				<path class="st10" d="M264.2,335.1l-0.9-5.3c0.1,1.6,0.2,3,0.5,3.9C264,334.3,264.1,334.7,264.2,335.1z"/>
				<path class="st11" d="M238.9,194.2c0.1,0,0.2,0,0.3,0C239.1,194.1,239,194.2,238.9,194.2z"/>
				<path class="st11" d="M239.7,194.1c0.1,0,0.3,0,0.4,0C239.9,194.2,239.8,194.1,239.7,194.1z"/>
				<path class="st11" d="M242.7,194.3c0.2,0,0.4,0,0.5,0.1C243.1,194.4,242.9,194.3,242.7,194.3z"/>
				<path class="st11" d="M241.3,194.2c0.2,0,0.3,0,0.5,0C241.6,194.2,241.5,194.2,241.3,194.2z"/>
				<path class="st11" d="M238.8,194.2c-0.1,0-0.2,0-0.2,0l0,0C238.6,194.2,238.7,194.2,238.8,194.2z"/>
				<path class="st11" d="M238.6,194.2L238.6,194.2L238.6,194.2z"/>
				<path class="st11" d="M204.2,220.9c-0.1,0-0.1,0-0.2,0v5.7c0.1,0,0.1,0,0.2,0V220.9z"/>
				<g>
					<path class="st12" d="M243.3,194.4c-0.2,0-0.4,0-0.5-0.1c-0.3,0-0.6-0.1-0.9-0.1c-0.2,0-0.3,0-0.5,0c-0.5,0-0.9,0-1.2-0.1
						c-0.1,0-0.3,0-0.4,0c-0.2,0-0.3,0-0.4,0c-0.1,0-0.2,0-0.3,0s-0.2,0-0.2,0c-0.1,0-0.2,0-0.2,0l0,0c0,0-0.9,2.7-2.9,6.4
						c-0.7,1.3-1.6,2.8-2.7,4.3c-4.1,5.9-10.8,12.6-20.6,15c-2.5,0.6-5.3,1-8.2,1l0,0v5.7c0.1,0,0.3,0,0.4,0c3.6,0,6.9-0.4,9.9-1.2
						c11.9-3,20-11,24.9-18.2c1.5-2.1,2.7-4.1,3.6-5.9c1.1-2.1,1.9-3.9,2.4-5.1c0.2-0.6,0.4-1.1,0.6-1.4
						C245,194.6,244.1,194.5,243.3,194.4z"/>
					<path class="st12" d="M172.6,200.5c-2-3.6-2.9-6.3-2.9-6.3l0,0c-0.4,0-0.9,0-1.3,0.1c-1.8,0.1-3.6,0.3-5.3,0.6
						c0.1,0.3,0.3,0.7,0.5,1.2c0.5,1.2,1.3,3,2.4,5c3.9,7.4,12,18.8,25.8,23.5c3.7,1.2,7.8,2,12.3,2v-5.7c-3.8,0-7.3-0.6-10.4-1.7
						C182.6,215.5,176,206.6,172.6,200.5z"/>
				</g>
				<g>
					<path class="st6" d="M154.3,147.4c-1-5.4-1.7-20.2-3.1-25.6c-3.4-13.2-4.6-30.2,0.1-44.7c-3.6,2.2-6.2,8.4-7.3,11.8
						c-4.7,14.7,2.3,41.6,2.3,41.6H143c0,0-0.7-3.3-2-7.8c-0.6,1-1.7,1.5-1.4,3.5c0.5,2.8,1.8,3,2.5,3.6s1.6,1.1,2.1,2.3
						c0.4,1.2,0.5,2.4,0.3,3.5c-0.5,2-3.4,0.4-5.3-0.5c-1.3-0.6-2.6-4.1-3.6-5.2c-2.6-2.9-3.8-8.6-1.8-11.8c2.4-3.9,6.6,5.5,8.6,6.4
						c-0.4-1.2-0.5-9.4-1-10.6c-7.6-6.3-12.3,0.7-11.6,9.6c1,12.2,16,18.5,15.7,17.1c4,22.1,23,36.8,42,42c0-0.2,0.1-0.4,0.1-0.6
						C172.7,176.8,157.5,165.1,154.3,147.4z"/>
					<path class="st6" d="M171.4,51.3c-1.1,0.5-2.5,1.6-4,3c1.9-1.3,3.9-2.5,6.1-3.6C172.9,50.8,172.2,51,171.4,51.3z"/>
					<path class="st13" d="M133.7,117.9c-2,3.3-0.8,8.9,1.8,11.8c1,1.2,2.3,4.6,3.6,5.2c2,0.9,4.9,2.5,5.3,0.5
						c0.3-1.1,0.2-2.3-0.3-3.5s-1.4-1.7-2.1-2.3c-0.7-0.6-2-0.8-2.5-3.6c-0.3-2,0.8-2.5,1.4-3.5c-0.6-2.2,1.8-5.3-2.3-7.1
						C136.8,114.6,136.1,114.1,133.7,117.9z"/>
					<path class="st7" d="M256.2,130.4c0,0,7-26.9,2.3-41.6c-0.2-0.5-0.8-1.4-1.6-2.6c2,12.2,0.7,25.1-2,35.5
						c-1.4,5.5-2.2,20.2-3.1,25.6c-3.1,16.9-17.1,29-32.3,34.2c0,0.1,0,0.1,0,0.2c18.3-5.7,36.1-20.1,40-41.4
						c-0.2,1.4,14.7-4.9,15.7-17.1c0.9-10.8-7.5-13.6-12.8-9.4c-3.2,8.2-4.7,16.5-4.7,16.5h-1.5V130.4z M260.8,132
						c0.5-1.2,1.4-1.7,2.1-2.3s2-0.8,2.5-3.6c0.4-2.5-1.3-2.6-1.7-4.2c-0.8-2.9,0.2-4.5,1.4-5.6c1.2-1.1,3.1-3.2,6.2,1.7
						c2,3.3,0.8,8.9-1.8,11.8c-1,1.2-2.3,4.6-3.6,5.2c-2,0.9-4.9,2.5-5.3,0.5C260.3,134.4,260.3,133.1,260.8,132z"/>
					<path class="st13" d="M265.8,135c1.3-0.6,2.6-4.1,3.6-5.2c2.6-2.9,3.8-8.6,1.8-11.8c-3.1-4.9-5-2.8-6.2-1.7
						c-1.2,1.2-2.2,2.7-1.4,5.6c0.4,1.6,2.1,1.7,1.7,4.2c-0.5,2.8-1.7,3-2.5,3.6c-0.7,0.6-1.6,1.1-2.1,2.3c-0.4,1.2-0.5,2.4-0.3,3.5
						C261,137.5,263.9,135.9,265.8,135z"/>
					<path class="st8" d="M203.5,153.9L203.5,153.9v21.4l0,0V153.9z"/>
					<path class="st8" d="M187.5,181.7c-14.8-5-30-16.6-33.2-34.4c-1-5.4-1.7-20.2-3.1-25.6c-3.4-13.2-4.6-30.2,0.1-44.7
						c0.8-0.5,1.6-0.8,2.5-0.8c0,0,3.2-2.8,4.7-8.3c1-4,5.2-9.9,9-13.5c1.9-1.3,3.9-2.5,6.1-3.6c2.7-0.3,6.3-2.5,6.3-2.5
						s2.2-2,13.5-4.1c1.3-0.1,3.6-0.6,4.9-0.7c1,0.1,1.8-0.4,2.7-0.1c0.2,0.1,0.9-0.1,1.1,0c0.2,0.1,1.2-0.4,1.4-0.3V154l0,0v21.4
						v9.2h-0.1c-0.2,0-0.4,0-0.5,0s-0.2,0-0.3,0s-0.2,0-0.3,0h-0.1l0,0C197.2,184.9,187.5,181.7,187.5,181.7z"/>
					<path class="st14" d="M141,122.6c0.1-0.2,0.3-0.4,0.3-0.7"/>
					<path class="st14" d="M141.3,121.9c-0.1,0.3-0.2,0.5-0.3,0.7c1.3,4.4,2,7.8,2,7.8h3.3c0,0-7-26.9-2.3-41.6
						c1.1-3.3,3.7-9.5,7.3-11.8c1.7-5.2,4.1-10.1,7.4-14.4c2.5-3.2,5.4-5.9,8.8-8.3c1.5-1.4,2.9-2.5,4-3c0.8-0.3,1.5-0.5,2.1-0.6
						c6.2-2.9,12.5-4.9,20.9-5.6c0.1,0,0.9-0.1,1-0.1c1.2-0.2,1.9-0.9,3-0.8c0.9,0,2.6-0.9,3.6-0.9c0.2,0,0.8-0.2,1-0.2
						c0.1,0,0.1,0,0.2,0c0.2,0,0.1,1.8,0.2,1.8c5.4,0,10.4,0.5,15.1,1.4l0,0l0,0c12.5,2.4,22.2,7.8,28.7,16.3
						c5.2,6.8,8.2,15,9.6,23.6c0.9,1.2,1.5,2.1,1.6,2.6c4.7,14.7-2.3,41.6-2.3,41.6h3.3c0,0-0.6,0.2,1.6-7.7
						c0.8-2.9,0.8-4.5,1.1-6.5c2.8-34,2.4-85.8-59.6-85.8c0,0-0.1,0-0.2,0c-0.1,0-0.1,0-0.2,0c-62,0-64.1,46.6-61.3,80.6"/>
					<path class="st14" d="M178.8,49.4c0,0,5.2-2.1,16.5-4.2c-8.3,0.7-15.6,2.5-21.8,5.4C176.3,50.5,178.8,49.4,178.8,49.4z"/>
					<path class="st14" d="M158.4,67.8c1-4,5.2-9.9,9-13.5c-3.3,2.3-6.3,5.1-8.8,8.3c-3.3,4.3-5.7,9.2-7.4,14.4
						c0.8-0.5,1.6-0.8,2.5-0.8C153.7,76.2,157,73.4,158.4,67.8z"/>
					<path class="st9" d="M256.8,86.2"/>
					<path class="st9" d="M219.4,181.6c-3.9,1.3-7.9,2.2-11.9,2.6c-0.1,0-0.2,0-0.3,0c-0.5,0-0.9,0.1-1.4,0.1c-0.2,0-0.4,0-0.6,0
						c-0.6,0-1.2,0.1-1.8,0.1v-9.2v-21.4V51.4l-0.3-8.3c0,0,49.8-2.6,53.7,43.2c2,12.2,0.7,25.1-2,35.5c-1.4,5.5-2.2,20.2-3.1,25.6
						C248.6,164.2,234.6,176.4,219.4,181.6L219.4,181.6z"/>
				</g>
				<g>
					<path class="st0" d="M147.9,199.5c-8.4,4.1-15.7,10.1-22.1,17.4c-7.6,8.6-13.8,19-18.8,29.8c-6.5,13.9-11,28.5-14.1,41.1
						l50.1,5.5L147.9,199.5z"/>
					<path class="st0" d="M142.3,305.8l-52.3-5.7c-0.1,0.6-0.2,1.1-0.3,1.6l52.5,5.8L142.3,305.8z"/>
					<path class="st0" d="M142.7,298.7l-51.1-5.6c-0.1,0.6-0.3,1.1-0.4,1.6l51.4,5.6L142.7,298.7z"/>
					<path class="st0" d="M86.6,321l13,1.5l7.3,0.8l18.8,2.1l11.6,1.3l3.9,0.4l0.4-7l-54-5.9C86.9,318.5,86.6,321,86.6,321z"/>
					<path class="st0" d="M141.9,313l-53.2-5.8c-0.1,0.6-0.2,1.1-0.3,1.7l53.4,5.9L141.9,313z"/>
					<path class="st15" d="M88.4,308.8c-0.3,2-0.6,3.8-0.9,5.4l54,5.9l0.3-5.4L88.4,308.8z"/>
					<path class="st15" d="M142.2,307.5l-52.5-5.8c-0.4,1.9-0.7,3.7-1,5.4l53.2,5.8L142.2,307.5z"/>
					<path class="st15" d="M142.6,300.4l-51.4-5.6c-0.4,1.9-0.8,3.6-1.1,5.4l52.3,5.7L142.6,300.4z"/>
					<path class="st15" d="M143,293.3l-50.1-5.5c-0.5,1.8-0.9,3.6-1.3,5.3l51.1,5.6L143,293.3z"/>
				</g>
				<g>
					<path class="st0" d="M312.6,290.3l-50.6,5.6v1.7l51-5.6C312.9,291.4,312.8,290.8,312.6,290.3z"/>
					<path class="st0" d="M262,311.9l53.4-5.9c-0.1-0.6-0.2-1.1-0.3-1.7l-53.1,5.8V311.9z"/>
					<path class="st0" d="M262,323.1l7.8-0.8l2.8-0.3l18.9-2.1l14.3-1.6l11.1-1.2c-0.2-1.9-0.5-3.8-0.7-5.7l-54.2,6V323.1z"/>
					<path class="st0" d="M291.6,231.6c-6.1-10.1-12.9-17.5-19.2-22.9c-3.4-2.9-6.4-5.2-10.4-7.1v88.8l49.5-5.4
						C306.3,261.7,299.3,244.4,291.6,231.6z"/>
					<path class="st0" d="M262,303v1.7l52.3-5.7c-0.1-0.6-0.2-1.1-0.3-1.6L262,303z"/>
					<path class="st15" d="M262,317.4l54.2-6c-0.2-1.8-0.5-3.6-0.8-5.4l-53.4,5.9V317.4z"/>
					<path class="st15" d="M262,310.2l53.1-5.8c-0.3-1.8-0.6-3.6-0.9-5.4l-52.3,5.7V310.2z"/>
					<path class="st15" d="M313,291.9l-51,5.6v5.5l52-5.7C313.7,295.5,313.3,293.7,313,291.9z"/>
					<path class="st15" d="M311.5,284.9l-49.5,5.4v5.5l50.6-5.6C312.3,288.5,311.9,286.7,311.5,284.9z"/>
				</g>
				<path class="st16" d="M245.8,194.8c0.1,0,0.2,0,0.3,0l0,0C246,194.8,245.9,194.8,245.8,194.8z"/>
				<g>
					<path class="st17" d="M162.7,194.8C162.7,194.8,162.7,194.8,162.7,194.8c1.7-0.3,3.5-0.5,5.3-0.6
						C166.2,194.3,164.4,194.5,162.7,194.8z"/>
					<path class="st12" d="M144.7,377.1c17.5,3.6,35.6,5.5,54.1,5.5c1.7,0,3.3,0,4.9-0.1c20.1-0.4,39.6-3,58.4-7.5
						c2.6-0.6,5.3-1.3,7.9-2l-3.7-23.2H138.9l-3.4,25.2C138.6,375.7,141.6,376.5,144.7,377.1z"/>
					<g>
						<path class="st0" d="M164.5,290.7c3,2,3.1,6.4,1.7,9.7c-1.4,3.3-3.9,6-5.2,9.3c-1.3,3.3-1.1,7.8,2,9.6
							c2.4,1.4,5.5,0.6,7.6-1.2c2.1-1.8,3.4-4.3,4.6-6.7c2.8-5.7,5.6-11.3,8.5-17c1.4-2.9,3.1-6,6-7.4c1.7-0.8,3.7-1,5.5-1.2
							c7.6-0.6,15.2-1.2,22.8-1.9c2.1-0.2,4.5-0.2,5.9,1.3c1,1.1,1.2,2.7,1.3,4.1c0.2,3.9,0.1,7.8-0.4,11.7
							c-2.2-2.8-6.4-4.4-9.5-2.6c-1,0.6-1.8,1.4-2.5,2.4c-1.7,2.7-1.7,6.5,0.1,9.2c1.8,2.7,5.2,3.1,8.4,3.7c3.2,0.6,7.3-0.3,9.4-2.5
							c2.8-2.8,2.2-3.2,3.3-6.9c1.4-4.7,0.8-6.9,3.2-11.1c1.9-3.4,13.4-1.3,25.5,1.6v-93.2c-4-2.6-8.1-4.3-11.6-5.4
							c-2.1-0.7-3.9-1.1-5.6-1.4c-0.1,0.3-0.2,0.8-0.4,1.4c-0.5,1.2-1.3,3-2.4,5.1c-1,1.8-2.1,3.8-3.6,5.9c-5,7.2-13,15.2-24.9,18.2
							c-3,0.8-6.3,1.2-9.9,1.2c-0.1,0-0.3,0-0.4,0h-0.1c-4.5-0.1-8.6-0.8-12.3-2c-13.8-4.6-21.8-16.1-25.8-23.5
							c-1.1-2.1-1.9-3.8-2.4-5c-0.2-0.5-0.4-0.9-0.5-1.2c-4.8,0.8-9.3,2.1-13.5,4c-0.5,0.2-1.1,0.5-1.6,0.8l-4.9,93.8
							c5.4-2.4,11.1-4.1,17.1-3.9C161.4,289.6,163.1,289.8,164.5,290.7z"/>
						<path class="st0" d="M139.3,346.5l-0.4,3.3h127.4l-0.6-3.9C228.9,343.9,178.6,344.7,139.3,346.5z"/>
						<path class="st15" d="M280.5,351.9C275.8,352.5,285.1,353,280.5,351.9L280.5,351.9z"/>
						<path class="st15" d="M264.3,337.9l-17.8-3.9l1.2-5.3l15.4,3.4c-0.1-0.7-0.1-1.4-0.2-2.2l-0.8-4.6l-15.3-3.4l1.2-5.3l14.5,3.2
							V313l-14.4-3.2l1.2-5.3l13.2,2.9v-12.7c-12.1-2.9-23.6-5-25.5-1.6c-2.4,4.3-1.7,6.5-3.2,11.1c-1.1,3.7-0.6,4.2-3.3,6.9
							c-2.2,2.2-6.2,3.1-9.4,2.5c-3.2-0.6-6.6-1-8.4-3.7c-1.8-2.7-1.8-6.4-0.1-9.2c0.6-1,1.4-1.8,2.5-2.4c3.1-1.7,7.3-0.2,9.5,2.6
							c0.5-3.9,0.6-7.8,0.4-11.7c-0.1-1.5-0.3-3-1.3-4.1c-1.4-1.5-3.8-1.5-5.9-1.3c-7.6,0.6-15.2,1.2-22.8,1.9
							c-1.9,0.2-3.8,0.3-5.5,1.2c-2.9,1.4-4.5,4.5-6,7.4c-2.8,5.7-5.6,11.3-8.5,17c-1.2,2.5-2.5,5-4.6,6.7c-2.1,1.8-5.3,2.6-7.6,1.2
							c-3.1-1.8-3.3-6.3-2-9.6c1.3-3.3,3.8-6,5.2-9.3c1.4-3.3,1.3-7.7-1.7-9.7c-1.4-0.9-3.1-1.1-4.7-1.1c-6-0.1-11.7,1.5-17.1,3.9
							l-1.1,20l10.7-2.4l0.9,4.1l-11.8,2.6l-0.3,5.4l11.9-2.6l0.9,4.1l-12.2,2.7l0.2,0l-0.7,5.1l11.5-2.6l0.9,4.1l-13,2.9l-0.3,2.3
							l-0.3,5.3l-0.6,1.4l-0.1,0.7c39.3-1.8,89.5-2.6,126.3-0.6l-1-6.3L264.3,337.9z M217.5,287.8l-5.6,4.2l-5.6-4.2H217.5z"/>
						<polygon class="st0" points="217.5,287.8 206.2,287.8 211.8,292 						"/>
						<polygon class="st0" points="153.2,315.2 152.3,311.1 141.6,313.5 141.4,317.8 						"/>
						<polygon class="st0" points="141.7,327.3 153.9,324.6 153,320.5 141.1,323.2 140.9,327.2 						"/>
						<polygon class="st0" points="140.6,336.8 153.7,333.9 152.7,329.8 141.2,332.4 140.7,336.2 						"/>
						<polygon class="st0" points="248.2,309.8 262.6,313 262.6,307.4 249.4,304.5 						"/>
						<polygon class="st0" points="246.9,322 262.2,325.3 261.9,323.3 262.6,323.2 262.6,319.9 248.1,316.7 						"/>
						<path class="st0" d="M246.6,333.9l17.8,3.9l-0.4-2.8c-0.1-0.4-0.3-0.9-0.4-1.3c-0.1-0.5-0.2-1.1-0.3-1.7l-15.4-3.4
							L246.6,333.9z"/>
					</g>
				</g>
			</g>
		</g>
	</g>
</g>
</svg>
