<?xml version="1.0" encoding="utf-8"?>
<!-- Generator: Adobe Illustrator 18.0.0, SVG Export Plug-In . SVG Version: 6.00 Build 0)  -->
<!DOCTYPE svg PUBLIC "-//W3C//DTD SVG 1.1//EN" "http://www.w3.org/Graphics/SVG/1.1/DTD/svg11.dtd">
<svg version="1.1" id="Layer_1" xmlns="http://www.w3.org/2000/svg" xmlns:xlink="http://www.w3.org/1999/xlink" x="0px" y="0px"
	 viewBox="0 0 400 400" enable-background="new 0 0 400 400" xml:space="preserve">
<circle fill="#FFFFFF" cx="200" cy="200" r="190.3"/>
<circle fill="#D1D4D5" cx="200" cy="200" r="181.2"/>
<g>
	<defs>
		<circle id="SVGID_1_" cx="200" cy="200" r="181.2"/>
	</defs>
	<clipPath id="SVGID_2_">
		<use xlink:href="#SVGID_1_"  overflow="visible"/>
	</clipPath>
	<g clip-path="url(#SVGID_2_)">
		<path fill="#DFBA98" d="M138.3,325l-11.6-1.3l-18.9-2.1l-7.4-0.8c-0.7,10.6-1,22-0.9,34.5c0,0-0.2,2.2-0.5,6.1
			c9.5,3.9,19.3,7.3,29.3,10.1l0.1-0.7c0,0,7.1-11.4,12.7-28.2l1.1-7.9l1.2-8.9L138.3,325z"/>
		<path fill="#DFBA98" d="M205.1,183c-14.6-0.1-23.2-10.5-25.6-13.8c0,0.1,0,0.2-0.1,0.3c-0.3,1.9-0.6,3.7-1,5.4
			c-1.8,8.2-4.2,14.3-7.7,17l0,0c0,0,0.9,2.7,2.9,6.3c3.4,6.2,10,15.1,21,18.8c3.1,1,6.6,1.7,10.5,1.7v-19.3L205.1,183
			C205.2,183,205.2,183,205.1,183z"/>
		<path fill="#DFBA98" d="M205.4,218.7v-19.4c0,0-0.1,0-0.2,0v19.3C205.3,218.7,205.3,218.7,205.4,218.7z"/>
		<path fill="#EECFAB" d="M266.5,338c0.1-0.2,0.2-0.5,0.3-0.7c-0.4-1.2-0.7-2.5-1.1-3.7L266.5,338z"/>
		<path fill="#EECFAB" d="M231.9,173.5c-0.3-1.3-0.5-2.6-0.7-4.1v-0.1c0-0.1,0-0.3-0.1-0.4c-2.3,3.7-10.3,14-25.9,14
			c0,0-0.1,0-0.1,0v16.4c0,0,0.1,0,0.2,0v19.4l0,0c3,0,5.7-0.4,8.3-1c9.9-2.5,16.6-9.2,20.7-15.1c1.1-1.5,2-3,2.7-4.3
			c2-3.7,2.9-6.4,2.9-6.4l0,0C236.3,189,233.7,182.3,231.9,173.5z"/>
		<path opacity="0.7" fill="#BD967F" d="M179.6,167c-0.1,0.6-0.2,1.3-0.3,1.9c0,0.1,0.1,0.1,0.2,0.2c0.1-0.7,0.2-1.4,0.3-2.1
			C179.8,167.1,179.7,167.1,179.6,167z"/>
		<path opacity="0.7" fill="#BD967F" d="M231.1,169C231.2,168.9,231.2,168.9,231.1,169l0-0.1c-0.1-0.9-0.3-1.8-0.4-2.7
			c0,0,0,0-0.1,0C230.9,167.1,231,168,231.1,169z"/>
		<path fill="#DFBA98" d="M205.1,183C205.2,183,205.2,183,205.1,183l0.1-12.6c0,0-0.1,0-0.1,0c-0.2,0-0.4,0-0.6,0
			c-0.1,0-0.2,0-0.3,0c-0.1,0-0.2,0-0.3,0c-0.1,0-0.2,0-0.2,0c-0.1,0-0.2,0-0.2,0c-7.6,0-15.6-1.1-23.6-3.3
			c-0.1,0.7-0.2,1.4-0.3,2.1C181.9,172.5,190.5,182.9,205.1,183z"/>
		<path fill="#EECFAB" d="M211.7,170c-0.2,0-0.3,0-0.5,0c-0.7,0.1-1.5,0.1-2.2,0.2c-0.3,0-0.7,0-1,0.1c-1,0.1-1.9,0.1-2.9,0.1V183
			c0,0,0,0,0.1,0c15.6,0,23.5-10.3,25.9-14c-0.1-0.9-0.3-1.9-0.4-2.8C224.4,168.1,217.9,169.4,211.7,170z"/>
		<path opacity="0.7" fill="#BD967F" d="M230.7,166.1c-6.4,2-12.8,3.3-19,3.9c-0.2,0-0.3,0-0.5,0c-0.7,0.1-1.5,0.1-2.2,0.2
			c-0.3,0-0.7,0-1,0.1c-1,0.1-1.9,0.1-2.9,0.1c0,0-0.1,0-0.1,0c-0.2,0-0.4,0-0.6,0c-0.1,0-0.2,0-0.3,0c-0.1,0-0.2,0-0.3,0
			c-0.1,0-0.2,0-0.2,0c-0.1,0-0.2,0-0.2,0c-7.6,0-15.6-1.1-23.6-3.3c-0.1,0.7-0.2,1.4-0.3,2.1c2.4,3.4,11,13.8,25.6,13.8
			c0,0,0,0,0.1,0c0,0,0,0,0.1,0c15.6,0,23.5-10.3,25.9-14C231,168,230.9,167.1,230.7,166.1z"/>
		<path fill="#D1A586" d="M180,166.1c-0.1,0-0.1,0-0.2-0.1c0,0.3-0.1,0.7-0.2,1c0.1,0,0.1,0,0.2,0
			C179.9,166.8,179.9,166.4,180,166.1z"/>
		<path fill="#D1A586" d="M180,166.1c0,0.3-0.1,0.7-0.2,1c8,2.2,16,3.3,23.6,3.3c0.1,0,0.2,0,0.2,0c-0.1,0-0.2,0-0.3,0
			C196.1,170.3,188.1,168.8,180,166.1z"/>
		<path fill="#DCB598" d="M230.7,165.8c0,0.1,0,0.2,0,0.3c0,0,0,0,0.1,0C230.8,166,230.8,165.9,230.7,165.8
			C230.7,165.8,230.7,165.8,230.7,165.8z"/>
		<path fill="#DCB598" d="M205.1,170.4c0,0,0.1,0,0.1,0v0C205.2,170.4,205.1,170.4,205.1,170.4z"/>
		<path fill="#DCB598" d="M203.6,170.4c0.1,0,0.2,0,0.2,0c0.1,0,0.2,0,0.3,0c-0.1,0-0.3,0-0.4,0
			C203.7,170.4,203.7,170.4,203.6,170.4z"/>
		<path fill="#DCB598" d="M205.3,170.4C205.2,170.4,205.2,170.4,205.3,170.4L205.3,170.4c0.9,0,1.8,0,2.8-0.1
			C207.1,170.3,206.2,170.4,205.3,170.4z"/>
		<path fill="#DCB598" d="M211.3,170.1c-0.7,0.1-1.5,0.1-2.2,0.2C209.8,170.2,210.5,170.1,211.3,170.1z"/>
		<path fill="#DCB598" d="M230.7,166.1c0-0.1,0-0.2,0-0.3c-6.3,2.2-12.7,3.6-19,4.2C217.9,169.4,224.4,168.1,230.7,166.1z"/>
		<path fill="#DCB598" d="M203.3,170.4c0.1,0,0.2,0,0.3,0c0,0,0.1,0,0.1,0C203.6,170.4,203.5,170.4,203.3,170.4z"/>
		<path fill="#DFBC99" d="M204.5,170.4c0.2,0,0.4,0,0.6,0c-0.3,0-0.6,0-0.9,0C204.3,170.4,204.4,170.4,204.5,170.4z"/>
		<path fill="#DFBC99" d="M181.4,153.2c0-0.2,0-0.4,0-0.6c0,0-0.1,0-0.1,0c-0.2,2.2-0.4,4.3-0.6,6.4c-0.2,2.4-0.5,4.8-0.9,7.1
			c0.1,0,0.1,0,0.2,0.1c0.3-2.1,0.6-4.3,0.8-6.6C181,157.4,181.2,155.3,181.4,153.2z"/>
		<path fill="#DFBC99" d="M205.2,155.7v14.7c0,0,0,0,0.1,0L205.2,155.7C205.2,155.7,205.2,155.7,205.2,155.7z"/>
		<path fill="#EFCFAB" d="M211.7,170c-0.2,0-0.3,0-0.5,0C211.4,170.1,211.6,170,211.7,170z"/>
		<path fill="#EFCFAB" d="M209.1,170.2c-0.3,0-0.7,0-1,0.1C208.4,170.3,208.7,170.3,209.1,170.2z"/>
		<path fill="#EFCFAB" d="M229.3,152.3C229.3,152.3,229.3,152.3,229.3,152.3c0,0.2,0,0.4,0,0.6c0.2,2.1,0.4,4.2,0.6,6.2
			c0.3,2.3,0.5,4.5,0.8,6.7c0,0,0,0,0.1,0c-0.3-2.3-0.6-4.7-0.9-7.2C229.7,156.5,229.5,154.4,229.3,152.3z"/>
		<path fill="#EECFAB" d="M309.7,354.5c0.1-13.8-0.4-26.4-1.2-37.9l-14.3,1.6l-18.9,2.1l-2.6,0.3l-7.8,0.9l-1.1,0.1l1.1,6.7l0.9,5.3
			c0.3,1.3,0.7,2.5,1.1,3.7c4.9,16.4,11.7,28.6,13.6,31.8c10.1-3.2,20-6.9,29.6-11.2C309.8,355.7,309.7,354.5,309.7,354.5z"/>
		<path fill="#FCDB0D" d="M240.1,191.8c0,0,0.1,0,0.2,0C240.2,191.8,240.2,191.8,240.1,191.8z"/>
		<path fill="#FCDB0D" d="M240.6,191.8c0.1,0,0.3,0,0.4,0C240.9,191.8,240.8,191.8,240.6,191.8z"/>
		<path fill="#FCDB0D" d="M243.2,191.9c0.3,0,0.6,0.1,0.9,0.1C243.8,192,243.5,192,243.2,191.9z"/>
		<path fill="#FCDB0D" d="M241.4,191.8c0.3,0,0.8,0,1.2,0.1C242.2,191.9,241.8,191.9,241.4,191.8z"/>
		<path fill="#FCDB0D" d="M265.7,333.5l-0.9-5.3c0.1,1.6,0.2,3,0.5,4C265.5,332.6,265.6,333,265.7,333.5z"/>
		<g>
			<path fill="#DB1B1B" d="M247.2,192.5c0.1,0,0.2,0,0.3,0c0,0,0,0,0,0C247.3,192.5,247.3,192.5,247.2,192.5z"/>
			<path fill="#DB1B1B" d="M294.2,229.5c-6.1-10.2-12.6-17.6-18.9-23c-8.1-7-15.9-10.6-22.1-12.5c-2.2-0.7-4.1-1.1-5.8-1.4
				c-0.1,0.3-0.3,0.8-0.6,1.4c-0.5,1.3-1.3,3-2.4,5.1c-1,1.8-2.2,3.8-3.6,5.9c-5,7.2-13.1,15.3-25.1,18.3c-3,0.8-6.4,1.2-10,1.2
				c-0.1,0-0.3,0-0.4,0l-0.2,0c-4.5-0.1-8.6-0.8-12.3-2c-13.9-4.6-21.9-16.1-25.9-23.6c-1.1-2.1-1.9-3.8-2.4-5.1
				c-0.2-0.5-0.4-0.9-0.5-1.2c1.8-0.3,3.5-0.5,5.4-0.6c-6.8,0.5-13.1,2.1-18.9,4.6c-9.2,4-17.1,10.4-23.9,18.1
				c-7.6,8.7-13.9,19.1-18.9,30c-16.3,35-20.4,74.6-20.4,74.6l13.1,1.5l7.4,0.8l18.9,2.1l11.6,1.3l4.9,0.6l-1.2,8.9l-1.1,7.9
				l-4.2,31.1c3.1,0.7,6.2,1.5,9.3,2.1c17.6,3.6,35.8,5.5,54.4,5.5c1.7,0,3.3,0,5-0.1c20.2-0.4,39.8-3,58.7-7.6
				c2.6-0.6,5.3-1.3,7.9-2l-5.5-33.5l-0.7-4.5c-0.1-0.4-0.3-0.9-0.4-1.3c-0.3-1-0.4-2.3-0.5-4l-1.1-6.7l1.1-0.1l7.8-0.9l2.6-0.3
				l18.9-2.1l14.3-1.6l11.2-1.2C314.8,274.9,305.2,247.8,294.2,229.5z"/>
		</g>
		<path fill="#1B75B9" d="M240.3,191.8c0.1,0,0.2,0,0.3,0C240.5,191.8,240.4,191.8,240.3,191.8z"/>
		<path fill="#1B75B9" d="M241.1,191.8c0.1,0,0.3,0,0.4,0C241.3,191.8,241.2,191.8,241.1,191.8z"/>
		<path fill="#1B75B9" d="M244.1,192c0.2,0,0.4,0,0.5,0.1C244.5,192.1,244.3,192,244.1,192z"/>
		<path fill="#1B75B9" d="M242.7,191.9c0.2,0,0.3,0,0.5,0C243,191.9,242.8,191.9,242.7,191.9z"/>
		<path fill="#1B75B9" d="M240.1,191.8c-0.1,0-0.2,0-0.2,0l0,0C240,191.9,240,191.9,240.1,191.8z"/>
		<polygon fill="#1B75B9" points="240,191.9 240,191.9 239.9,191.9 		"/>
		<path fill="#1B75B9" d="M205.4,218.7c-0.1,0-0.1,0-0.2,0v5.7c0.1,0,0.1,0,0.2,0V218.7z"/>
		<g>
			<path fill="#FFFFFF" d="M244.7,192.1c-0.2,0-0.4,0-0.5-0.1c-0.3,0-0.7-0.1-0.9-0.1c-0.2,0-0.3,0-0.5,0c-0.5,0-0.9,0-1.2-0.1
				c-0.1,0-0.3,0-0.4,0c-0.2,0-0.3,0-0.4,0c-0.1,0-0.2,0-0.3,0c-0.1,0-0.2,0-0.2,0c-0.1,0-0.2,0-0.2,0l0,0c0,0-0.9,2.7-2.9,6.4
				c-0.7,1.3-1.6,2.8-2.7,4.3c-4.1,6-10.8,12.6-20.7,15.1c-2.5,0.6-5.3,1-8.3,1l0,0l0,5.7c0.1,0,0.3,0,0.4,0c3.6,0,6.9-0.4,10-1.2
				c12-3,20-11.1,25.1-18.3c1.5-2.1,2.7-4.1,3.6-5.9c1.1-2.1,1.9-3.9,2.4-5.1c0.2-0.6,0.4-1.1,0.6-1.4
				C246.4,192.3,245.5,192.2,244.7,192.1z"/>
			<path fill="#FFFFFF" d="M173.7,198.2c-2-3.7-2.9-6.3-2.9-6.3l0,0c-0.4,0-0.9,0-1.3,0.1c-1.8,0.1-3.6,0.3-5.4,0.6
				c0.1,0.3,0.3,0.7,0.5,1.2c0.5,1.2,1.3,3,2.4,5.1c4,7.4,12,18.9,25.9,23.6c3.7,1.2,7.8,2,12.3,2v-5.7c-3.9,0-7.4-0.6-10.5-1.7
				C183.7,213.3,177.1,204.3,173.7,198.2z"/>
		</g>
		<g>
			<path fill="#D1A586" d="M155.3,144.9c-1-5.4-1.7-20.3-3.1-25.8c-3.4-13.2-4.6-30.3,0.1-44.9c-3.7,2.2-6.3,8.5-7.3,11.8
				c-4.8,14.7,2.3,41.8,2.3,41.8h-3.3c0,0-0.7-3.3-2-7.8c-0.6,1-1.7,1.5-1.4,3.5c0.5,2.8,1.8,3,2.5,3.6c0.7,0.6,1.6,1.1,2.1,2.3
				c0.4,1.2,0.5,2.4,0.3,3.5c-0.5,2-3.4,0.4-5.4-0.5c-1.3-0.6-2.6-4.1-3.6-5.2c-2.6-2.9-3.8-8.6-1.8-11.9c2.4-3.9,6.7,5.5,8.6,6.4
				c-0.4-1.2-0.5-9.5-1-10.7c-7.7-6.3-12.3,0.7-11.6,9.6c1,12.3,16,18.6,15.8,17.2c4,22.2,23.1,36.9,42.2,42.2
				c0-0.2,0.1-0.4,0.1-0.6C173.8,174.4,158.5,162.7,155.3,144.9z"/>
			<path fill="#D1A586" d="M172.5,48.3c-1.1,0.5-2.6,1.6-4,3c1.9-1.3,4-2.5,6.2-3.6C173.9,47.8,173.2,48,172.5,48.3z"/>
			<path fill="#BD967F" d="M134.6,115.3c-2,3.3-0.8,9,1.8,11.9c1,1.2,2.3,4.6,3.6,5.2c2,0.9,4.9,2.5,5.4,0.5
				c0.3-1.1,0.2-2.3-0.3-3.5c-0.5-1.2-1.4-1.7-2.1-2.3c-0.7-0.6-2-0.8-2.5-3.6c-0.3-2.1,0.8-2.5,1.4-3.5c-0.6-2.2,1.8-5.3-2.3-7.1
				C137.6,111.9,137,111.4,134.6,115.3z"/>
			<path fill="#DCB598" d="M257.6,127.8c0,0,7-27,2.3-41.8c-0.2-0.5-0.8-1.4-1.6-2.6c2,12.2,0.7,25.2-2,35.7
				c-1.4,5.5-2.2,20.3-3.1,25.8c-3.1,16.9-17.1,29.1-32.4,34.4c0,0.1,0,0.1,0,0.2c18.4-5.7,36.3-20.2,40.2-41.6
				c-0.2,1.4,14.8-4.9,15.8-17.2c0.9-10.8-7.5-13.6-12.9-9.5c-3.2,8.2-4.7,16.6-4.7,16.6H257.6z M262.2,129.4
				c0.5-1.2,1.4-1.7,2.1-2.3c0.7-0.6,2-0.8,2.5-3.6c0.4-2.5-1.3-2.6-1.7-4.2c-0.8-2.9,0.2-4.5,1.5-5.7c1.2-1.1,3.1-3.2,6.2,1.7
				c2,3.3,0.8,9-1.8,11.9c-1,1.2-2.3,4.6-3.6,5.2c-2,0.9-4.9,2.5-5.4,0.5C261.7,131.8,261.8,130.6,262.2,129.4z"/>
			<path fill="#BD967F" d="M267.3,132.4c1.3-0.6,2.6-4.1,3.6-5.2c2.6-2.9,3.8-8.6,1.8-11.9c-3.1-4.9-5-2.8-6.2-1.7
				c-1.2,1.2-2.2,2.7-1.5,5.7c0.4,1.6,2.2,1.8,1.7,4.2c-0.5,2.8-1.8,3-2.5,3.6c-0.7,0.6-1.6,1.1-2.1,2.3c-0.4,1.2-0.5,2.4-0.3,3.5
				C262.4,134.9,265.4,133.3,267.3,132.4z"/>
			<path fill="#DFBC99" d="M204.7,151.4L204.7,151.4l0,21.5c0,0,0,0,0,0V151.4z"/>
			<path fill="#DFBC99" d="M188.6,179.4c-14.9-5-30.1-16.7-33.4-34.5c-1-5.4-1.7-20.3-3.1-25.8c-3.4-13.2-4.6-30.3,0.1-44.9
				c0.8-0.5,1.6-0.8,2.5-0.8c0,0,3.3-2.8,4.7-8.4c1-4,5.2-9.9,9-13.6c1.9-1.3,4-2.5,6.2-3.6c2.7-0.3,6.3-2.5,6.3-2.5s2.2-2,13.6-4.1
				c1.3-0.1,3.6-0.6,4.9-0.7c1,0.1,1.8-0.4,2.7-0.1c0.2,0.1,0.9-0.1,1.1,0c0.2,0.1,1.2-0.4,1.4-0.3v111.4h0v21.5v9.3
				c0,0-0.1,0-0.1,0c-0.2,0-0.4,0-0.5,0c-0.1,0-0.2,0-0.3,0c-0.1,0-0.2,0-0.3,0c0,0-0.1,0-0.1,0v0
				C198.4,182.5,188.6,179.4,188.6,179.4z"/>
			<path fill="#131213" d="M141.9,119.9c0.1-0.2,0.3-0.4,0.3-0.7"/>
			<path fill="#131213" d="M142.2,119.2c-0.1,0.3-0.2,0.5-0.3,0.7c1.3,4.5,2,7.8,2,7.8h3.3c0,0-7.1-27-2.3-41.8
				c1.1-3.3,3.7-9.6,7.3-11.8c1.7-5.2,4.1-10.2,7.4-14.5c2.5-3.2,5.4-6,8.8-8.3c1.5-1.4,2.9-2.5,4-3c0.8-0.3,1.5-0.5,2.1-0.6
				c6.2-3,12.6-4.9,21-5.6c0.1,0,0.9-0.1,1-0.1c1.3-0.2,1.9-0.9,3-0.8c0.9,0,2.6-0.9,3.6-0.9c0.2,0,0.8-0.2,1-0.2c0.1,0,0.1,0,0.2,0
				c0.2,0,0.1,1.8,0.2,1.8c5.4,0,10.5,0.5,15.1,1.4c0,0,0,0,0,0l0,0c12.6,2.4,22.3,7.8,28.9,16.3c5.3,6.8,8.2,15.1,9.6,23.7
				c0.9,1.2,1.5,2.1,1.6,2.6c4.8,14.7-2.3,41.8-2.3,41.8h3.3c0,0-0.6,0.2,1.6-7.7c0.8-2.9,0.8-4.6,1.1-6.5
				c2.8-34.1,2.4-86.2-59.9-86.2c0,0-0.1,0-0.2,0c-0.1,0-0.1,0-0.2,0c-62.3,0-64.4,46.8-61.6,80.9"/>
			<path fill="#131213" d="M179.9,46.5c0,0,5.2-2.1,16.6-4.2c-8.4,0.7-15.7,2.5-21.9,5.5C177.3,47.5,179.9,46.5,179.9,46.5z"/>
			<path fill="#131213" d="M159.4,64.9c1-4,5.2-9.9,9-13.6c-3.4,2.3-6.3,5.1-8.8,8.3c-3.3,4.3-5.7,9.3-7.4,14.5
				c0.8-0.5,1.6-0.8,2.5-0.8C154.7,73.3,157.9,70.5,159.4,64.9z"/>
			<path fill="#EFCFAB" d="M258.3,83.4"/>
			<path fill="#EFCFAB" d="M220.7,179.2c-4,1.4-8,2.3-11.9,2.6c-0.1,0-0.2,0-0.3,0c-0.5,0-0.9,0.1-1.4,0.1c-0.2,0-0.4,0-0.6,0
				c-0.6,0-1.2,0.1-1.8,0.1v-9.3v-21.5v-103l-0.3-8.3c0,0,50-2.6,54,43.4c2,12.2,0.7,25.2-2,35.7c-1.4,5.5-2.2,20.3-3.1,25.8
				C250,161.8,236,174,220.7,179.2L220.7,179.2z"/>
		</g>
	</g>
</g>
</svg>
