<?xml version="1.0" encoding="utf-8"?>
<!-- Generator: Adobe Illustrator 18.0.0, SVG Export Plug-In . SVG Version: 6.00 Build 0)  -->
<!DOCTYPE svg PUBLIC "-//W3C//DTD SVG 1.1//EN" "http://www.w3.org/Graphics/SVG/1.1/DTD/svg11.dtd">
<svg version="1.1" id="Capa_1" xmlns="http://www.w3.org/2000/svg" xmlns:xlink="http://www.w3.org/1999/xlink" x="0px" y="0px"
	 viewBox="0 0 110 50" enable-background="new 0 0 110 50" xml:space="preserve">
<g>
	<g>
		<path fill="#FFFFFF" d="M39.8,37.6l0.9-0.9H44l0.9,0.9v1.2h-2.1v-0.5h-0.9v0.9H44l0.9,0.9v2.3L44,43.4h-3.2l-0.9-0.9v-1.2h2.1v0.5
			h0.9v-0.9h-2.1L39.8,40V37.6z"/>
		<path fill="#FFFFFF" d="M47.4,40.9v2.5h-2.1v-6.7h4.1l0.9,0.9V40l-0.9,0.9H47.4z M48.3,38.3h-0.9v0.9h0.9V38.3z"/>
		<path fill="#FFFFFF" d="M55.9,42.5L55,43.4h-3.2l-0.9-0.9v-4.8l0.9-0.9H55l0.9,0.9V42.5z M53.9,41.8v-3.5H53v3.5H53.9z"/>
		<path fill="#FFFFFF" d="M58.5,41.6v1.8h-2.1v-6.7h4.1l0.9,0.9V40l-0.9,0.9h-0.1l1.3,2.5h-2.3L58.5,41.6z M59.4,38.3h-0.9v0.9h0.9
			V38.3z"/>
		<path fill="#FFFFFF" d="M67.2,36.7v1.6h-1.6v5.1h-2.1v-5.1h-1.6v-1.6H67.2z"/>
		<path fill="#FFFFFF" d="M67.7,37.6l0.9-0.9h3.2l0.9,0.9v1.2h-2.1v-0.5h-0.9v0.9h2.1l0.9,0.9v2.3l-0.9,0.9h-3.2l-0.9-0.9v-1.2h2.1
			v0.5h0.9v-0.9h-2.1L67.7,40V37.6z"/>
	</g>
	<g>
		<path fill="none" d="M67.8,17.3c6.1,0.2,10.2,1.7,10.2,1.7C74.7,17,67.8,17.3,67.8,17.3z"/>
		<path fill="none" d="M43.8,15.5c-3-2.5-3.9-7.5-3.9-7.5C39.5,13.3,43.8,15.5,43.8,15.5z"/>
		<path fill="none" d="M51.2,19.8c2.3-2.4,7.8-5.8,7.8-5.8C54.9,15.7,51.2,19.8,51.2,19.8z"/>
		<path fill="#A20020" d="M43.8,15.5C43.8,15.5,43.8,15.5,43.8,15.5C43.8,15.5,43.8,15.5,43.8,15.5C43.8,15.5,43.8,15.5,43.8,15.5z"
			/>
		<path fill="#A20020" d="M42.9,18c0,0,1.8-2.6,5-4.5c0,0,0.1-0.6-0.1-1.4c-2,1.2-3.3,2.4-4,3.4c0,0,0,0,0,0c0,0,0,0,0,0
			c-0.9,1.1-1.1,1.8-1.1,1.8c-3.2,0.7-3,1.6-3,1.6S40.3,18,42.9,18z"/>
		<path fill="#A20020" d="M48,12c0,0.5,0,0.9,0,1.5c0,0,3.4-2.4,11.9-4.2c0,0,0-0.4-0.1-1.2l0,0C54.4,9,50.6,10.5,48,12z"/>
		<path fill="#1B3043" d="M107.2,37.5c-1.1-4.8-1.7-7.3-2.7-11.9l1.2,0l-1.1-5.4l-1.8-0.1c-0.6-0.1-1.6-0.2-2.4-0.4
			c-1.3-0.2-3.8-0.7-3.9-0.7l-2-0.4l0.2,1.3c-0.2-0.3-0.4-0.5-0.5-0.8l-0.4-0.6l-0.7-0.1c0,0-1.7-0.1-2.9-0.3
			c-1.7-0.2-3.4-0.5-3.4-0.5l-1.3-0.2l0,0c-0.4-0.9-0.6-1.4-1-2.3l-0.2-0.6L83,14l-0.5,0.2c0,0-2.2,0.9-4.4,1.6l-1.5,0.5
			c0,0,0.9,2.3,1,2.6c-0.7,0.3-1.2,0.8-1.7,1.3c0-0.3,0-0.4,0-0.4l0-0.7l-1.2-1.4l-0.7,0c-0.3,0-0.7,0-1.3,0c-1.2,0-2.8,0-4.6-0.1
			c-1.8-0.1-4.5-0.2-4.5-0.2l-1.4-0.1l-0.1,0.9c-1-0.6-2.4-1-4.2-1l-0.1,0c0,0-2.6,0.1-3.5,0.1c-1.1,0-1.7,0-2.8,0l-0.6,0l-0.2-0.1
			l-0.4,0c0,0-0.9,0.1-1.8,0.1c-0.8,0.1-1.5,0.1-2.3,0.1c-0.4,0-0.8,0-1.3,0l-1,0l-0.3,1.1c-0.1,0.5-0.3,0.9-0.4,1.4
			c0-0.3-0.1-0.7-0.1-1L43,17.6l-1.4,0.1c0,0-1.9,0.2-3,0.3c-0.8,0.1-2.8,0.1-2.8,0.1l-1.1,0l-0.9,3.8l1.1,1.2l0.1,0
			c-0.3,1.4-0.8,3.9-1.3,6.3c-0.3-2.5-1.1-9.4-1.1-9.5l-0.1-0.7l-1.2-1l-0.6,0.1c-2.1,0.3-3.1,0.5-5.2,0.9l-0.7,0.1l-0.3,0.7
			c-1.4,3.1-2.3,5-3.5,7.5L18.8,28c-1.6,0.3-2.5,0.5-4.1,0.8L13.8,29l-0.3,0.9c-0.7,2.2-1.1,2.3-1.6,2.4c0,0,0,0-0.1,0
			c-0.1-0.3-0.1-1.3,0.4-3.5c0.7-3.2,1.3-3.7,1.9-3.9c-0.2,0.7-0.3,1.2-0.3,1.2l-0.7,2.5l2.3-0.5c1.6-0.3,2.4-0.5,4-0.8l0.9-0.2
			l0.2-1c0.8-3.2,1.8-5.6,1.8-5.7l0.2-0.5l-0.4-2.2l-1.1-0.1c-0.1,0-1.3-0.1-2.8-0.1c-1,0-1.9,0.1-2.7,0.2
			c-6.2,0.9-10.7,5.3-12.5,12C2.6,33,2.8,35.5,4,37.2c0.7,1,2.2,2.3,5,2.3c0.6,0,1.1,0,1.8-0.1c3.6-0.5,6.9-2,7-2l0.3-0.1l0.8-0.9
			l0.5-0.1c0,0,1.5-0.2,2.8-0.4c1.2-0.1,3.1-0.3,3.2-0.3l0.5,0l0,0.1l0.8-0.1c0,0,2-0.3,3.9-0.5c1.1-0.1,2.9-0.2,2.9-0.2l0.4,0
			l0,0.1c0.2,0,1.5-0.3,2.2-0.3c0.7,0,2.9-0.1,2.9-0.1l0.2,0l0,0.2l1.3-0.2c0.8-0.1,1.3-0.2,2-0.3l0.7,0.1l1.4-0.1
			c0.5-0.1,3.3-0.3,3.7-0.3c0.2,0,0.5,0,0.7,0c0.1,0,0.2,0,0.3,0l0,0.3l1.8-0.1c0.8-0.1,3.1-0.2,3.9-0.2c0.9,0,3.3,0.1,3.3,0.1
			l1.3,0l0.4-3.8l-0.4-0.7c1.4-0.2,2.8-1,3.7-2.1c0.1-0.1,0.2-0.2,0.3-0.3c0.1,1.1,0.1,2,0.1,2.1c0,0-1.2,0.2-1.2,0.2l-0.3,5
			l1.6-0.1c0,0,1.3-0.1,2.8-0.1c0.5,0,1,0,1.5,0c3.2,0.1,6.6,0.5,6.7,0.5l0.7,0.1l1.2-1.3l0-0.7c0-0.1,0-0.2,0-0.2
			c1.4,1.6,3.5,2.6,6,2.9c0.4,0,0.7,0.1,1.1,0.1c1.9,0,3.3-0.5,4.4-1.5l0.2,3.5l1.3,0c0,0,2.1,0.1,3.7,0.3c1,0.1,3.8,0.6,3.9,0.6
			l1.8,0.3l-0.1-1.6c0.4,0.5,1.5,2,1.5,2L101,39c1.9,0.2,2.8,0.3,4.6,0.5l2,0.2L107.2,37.5z M50.5,22.4l0.4,0l0.1,0.2l0.3,0
			l-0.1,6.3l-0.6,0.1c0-0.1,0-0.2,0-0.3C50.5,27,50.5,23.9,50.5,22.4z M81.7,25.7c-0.1-0.4-0.1-0.8-0.1-1c0.3,0.5,0.6,1.5,0.9,3.6
			c0.1,0.5,0.1,0.9,0.1,1.2C82.3,28.9,82,27.6,81.7,25.7z"/>
		<g>
			<path fill="#CD101E" d="M4.8,30.8c1.6-5.6,5.6-9.2,11.3-10c2.2-0.3,5.2-1.2,5.2-1.2c0,0.2,0,1.5,0,1.6c0,0-1,2.3-1.9,5.4
				c-1.6,0.3-2.4,0.4-4,0.7v-1.6c0,0,0.4,0,0.5-0.1c0.2-1-0.2-1.4-1.4-1.2c-1.8,0.2-2.6,1.4-3.5,4.6c-1,3.7-0.6,5.3,1.2,5
				c1.4-0.2,2.1-1,2.8-3.1c1.5-0.3,4.1-2.4,4.1-2.4s0,1.6,0,1.6c0,0-1,2.9-1.5,5.3c-0.2,0.2-0.3,0.3-0.4,0.4c0,0-3.1,1.3-6.6,1.8
				C5.4,38.3,3.3,35.8,4.8,30.8z"/>
			<path fill="#CD101E" d="M33.6,30.3c0,0.7,0,1.6,0,1.6c-0.1,0.6-0.2,0.9-0.4,1.5c0,0-1.8,0.1-2.9,0.2c-2,0.2-4,0.4-4,0.4
				c-0.1-0.1-0.1-0.1-0.1-0.2c0.1-0.6,0-1,0-1.6c1.3-0.3,1.8-0.2,1.8-0.7c0-0.1,0-0.2,0-0.3c0-0.3,0-0.4,0-0.7
				c-0.6,0-1.2,0.1-1.6,0.1c-0.5,0-1.1,0.2-1.7,0.3c-0.1,0.3-0.2,0.5-0.4,0.9c-0.1,0.2-0.1,0.3-0.1,0.4c-0.1,0.3,0,0.4,0.6,0.3
				c0.2,0,0.5-1.5,0.7-1.5c0.1,0.1-0.1,1.6,0,1.6c-0.2,0.6-0.3,1-0.5,1.6c0,0-1.9,0.1-3.2,0.3c-1.3,0.1-2.8,0.3-2.8,0.3
				c0-0.2,0-1.6,0-1.6s0.4-0.3,0.5,0c0.5-0.2,0.9-0.6,1.3-1.2c2.1-4,3.1-5.9,5.1-9.9c2.1-0.3,3.1-0.5,5.2-0.8
				c0.1,0.1,0.2,0.1,0.3,0.2c0,0,0.8,7.1,1.1,9.1C32.6,31.4,33,30.3,33.6,30.3z M25.8,28.4c0.4,0,0.6-0.1,1-0.1
				c0.3,0,0.7-0.1,1.1-0.1c0-1.3-0.1-1.9-0.1-3.2c-0.2,0-0.3,0-0.4,0C26.8,26.4,26.5,27,25.8,28.4z"/>
			<path fill="#CD101E" d="M40.3,33.2c-0.8-3.9-1.5-6.9-1.5-6.9c-0.1,0-0.2,0-0.3,0c0,0-0.5,4.1-0.6,4.5c0,0.4,0.1,0.6,0.6,0.6
				c0.1,0,0.7-1.6,0.7-1.6c0,1.5,0,1.4,0,1.6c-0.2,0.7-0.2,1-0.4,1.6c0,0-2.3,0.1-3,0.1c-0.8,0.1-2.5,0.3-2.5,0.3c0-0.6,0-1,0-1.6
				c0.8-0.1,1.6-0.5,1.7-1.4c0,0,1.5-6.4,1.6-6.9c0.1-0.7,0-0.7-1.1-0.8c-0.1-0.1-0.1-0.1-0.1-0.1c0.1-0.6,0-0.7,0-1.6
				c0,0,2.4,0,3.3-0.1c1.1-0.1,3-0.2,3-0.2c0.3,2.8,1,5.9,1,5.9c0.1,0,0.2,0,0.3,0c0,0,1.2-3.2,2.1-6c1.2,0,2.4,0,3.6-0.1
				c0.9-0.1,2-1.7,2-1.7c0.1,0-0.1,1.6,0,1.6c-0.1,0.7-0.1,1-0.2,1.7c-1.1,0.1-1.3,0.2-1.3,1c-0.1,1.1,0,4.5,0.2,6.3
				c0.1,1.2,0.3,1.6,0.9,1.6c0.3,0,0.8-1.5,0.8-1.5c0.1,0.1-0.1,1.6,0,1.6c-0.1,0.6-0.1,1-0.2,1.6c0,0-1.3,0-2.3,0
				c-0.4,0-3.8,0.2-4,0.3c0-0.6,0-0.9,0-1.6c0.8-0.1,1.4-0.4,1.5-1c0.1-0.8,0.2-4.3,0.2-4.3c-0.1,0-0.2,0-0.3,0c0,0-1.3,3.2-2.7,6.9
				C41.9,33,41.4,33,40.3,33.2z"/>
			<path fill="#CD101E" d="M51.5,20.3c1.1,0,1.9,0.2,3,0.1c0.9,0,3.5-0.1,3.5-0.1c4.7,0,5.4,2.5,5.5,4c0.1,2.4-2.2,4.4-4.9,4.4
				c-0.7,0-1.1,0-1.8,0c0,0.4,0,0.5,0,0.9c0,1,0.2,1.3,1,1.4c0.3,0,0.8-1.5,0.8-1.5c0,1,0,1.5,0,1.6c-0.1,0.6-0.1,1-0.2,1.6
				c0,0-2.5-0.1-3.4-0.1c-1,0-3.9,0.2-3.9,0.2c0-0.7,0-0.9,0-1.6c1-0.2,1.6-0.7,1.6-1.7c0.1-2.5,0.1-3.8,0.1-6.3c0-0.8-0.1-1-0.5-1
				c-0.3,0-0.7,0-0.7,0c-0.1-0.1-0.1-0.1-0.2-0.2C51.5,21.4,51.5,21.1,51.5,20.3z M58.2,26.5c0.8-0.3,1.2-0.9,1.2-2.1
				c0-1.2-0.7-1.8-2.1-1.8c-0.3,0-0.3,0.1-0.3,0.4c-0.1,1-0.1,2.1-0.1,3.3C57.4,26.4,57.6,26.5,58.2,26.5z"/>
			<path fill="#CD101E" d="M70.3,30.7c1.8,0.1,2.1-0.2,2.2-1.9c1,0,1.8-1.4,2.9-1.4c0.1,0.1-0.1,1.5,0,1.6c0,0-0.2,1.8-0.1,3.8
				c-0.1,0.1-0.2,0.2-0.3,0.3c0,0-3.5-0.3-6.7-0.5c-2.2-0.1-4.4,0-4.4,0c0-0.7,0-0.9,0-1.6c1-0.1,1.4-0.6,1.4-1.7
				C65,27,65,25.7,64.8,23.2c0-0.8-0.2-1-0.6-1c-0.2,0-0.5,0-0.5,0c-0.1-0.1-0.1-0.2-0.2-0.3c0-0.6,0-1,0-1.6c0,0,2.9,0.3,4.7,0.4
				c2.4,0.1,4.9,0.1,6,0.1c0.1,0.1,0.2,0.2,0.3,0.3c0,0-0.1,2,0,3.7c-1.1,0-1.6,0-2.7,0c0,0,0-0.4,0-0.7c-0.1-0.8-0.4-1.1-2-1.1
				c-0.6,0-0.7,0.1-0.6,0.5c0,0.8,0,1.3,0,2.1c0.4,0,1.1,0.1,1.6,0.1c0.6,0,2.2,0,2.2,0c0.1,0.1,0.2,0.2,0.3,0.3
				c0,0.9,0,1.3-0.1,2.1c0,0-1.5-0.1-2.4-0.2c-0.6,0-1.5,0-1.5,0c-0.1,0.1,0.1,1.2,0.1,1.6C69.3,30.5,69.4,30.7,70.3,30.7z"/>
			<path fill="#CD101E" d="M75.8,27.3c-0.5-4.2,1.5-6.4,5.6-6c3.8,0.3,6.2,2.6,7,6.6c0.8,4.3-1.2,6.4-5.6,6
				C78.7,33.6,76.2,31.3,75.8,27.3z M84.2,19.9c0,0-2.4,0.2-4.7,0.6c-0.2-0.1-0.2-0.2-0.4-0.3c-0.2-0.5-0.4-0.8-0.6-1.4
				c0-0.8,0-1.6,0-1.6c0.1,0,4.6,0.2,4.8,0.3c0.4,0.8,0.6-0.4,1,0.5C84.3,18.1,84.3,19.8,84.2,19.9z M83.9,28.6
				c-0.6-3.4-1.2-4.7-2.6-4.8c-1.1-0.1-1.4,0.7-1.1,2.9c0.5,3.4,1.2,4.7,2.5,4.8C84,31.7,84.3,30.9,83.9,28.6z"/>
			<path fill="#CD101E" d="M99.8,29.5c-0.5-1.7-0.7-2.5-1.2-4.2c-0.2-0.8-0.5-1-1-1.1c-0.3,0-0.4-0.1-0.7-0.1
				c-0.1-0.1-0.1-0.2-0.2-0.3c-0.1-0.7-0.2-1.1-0.3-1.8v-1.6c0,0,7.6,3.2,7.6,3.1c0,0.8,0,0.9,0,1.6c-1,0-1.2,0.3-1,1.2
				c1.1,4.2,2.8,9.8,2.8,9.8s0,1.3,0,1.6c-1.9-0.2-2.8-0.3-4.7-0.4c-3.9-4.7-6.9-8.2-6.9-8.2c-0.1,0-0.2,0-0.4,0
				c0.4,1.6,0.6,2.5,1,4.1c0.2,0.9,0.5,1.2,1.2,1.3c0.3,0,0.8,0,0.8,0c0.1,0.1,0.4,0.4,0.5,0.5c0.1,0.8,0.1,1,0,1.6
				c0,0-2.8-0.4-3.9-0.6c-1.7-0.2-3.9-0.3-3.9-0.3c-0.1-0.8-0.1-1.2-0.2-2c0-0.3,0-1.6,0-1.6s1.3,1,1.1,0.4c-0.5-3.2-0.8-4.8-1.4-8
				c-0.2-1.1-0.6-1.3-2.1-1.6c-0.1-0.1-0.2-0.2-0.3-0.4c-0.1-0.7-0.1-1.1-0.2-1.8V19l6.5,2.4c3,4,6.4,7.9,6.4,7.9
				C99.6,29.4,99.7,29.4,99.8,29.5z"/>
		</g>
		<path fill="none" d="M59.2,23.9c-0.5-0.1-0.7-0.1-1.3-0.2c0-0.9,0.1-1.8,0.1-2.7c-0.2,0-0.5-0.1-0.8-0.1c-0.3,0-0.3,0.1-0.3,0.4
			c-0.1,1-0.1,2.1-0.1,3.3c0.6,0.1,0.8,0.1,1.4,0.2C58.7,24.7,59,24.4,59.2,23.9z"/>
		<path fill="none" d="M27.9,26.5c0-0.3,0-0.6,0-0.8c-0.3,0-0.5,0.1-0.9,0.1c0.3-0.8,0.6-1.3,0.8-1.9c0-0.2,0-0.4,0-0.6
			c-0.2,0-0.3,0-0.4,0c-0.6,1.4-0.9,2.1-1.5,3.4c0.4,0,0.6-0.1,1-0.1C27.2,26.7,27.6,26.6,27.9,26.5z"/>
		<path fill="none" d="M52.6,28.6c0,0-0.1,0-0.1,0.1c0,0.1,0,0.1,0,0.2C52.5,28.8,52.5,28.7,52.6,28.6z"/>
		<path fill="none" d="M81.4,24.2c-0.1-0.8-0.2-1.5-0.1-1.9c-1.1-0.1-1.4,0.7-1.1,2.9c0.5,3.4,1.2,4.7,2.5,4.8
			c0.7,0.1,1.1-0.2,1.2-1c0,0,0,0-0.1,0C82.6,28.8,81.9,27.6,81.4,24.2z"/>
		<path fill="none" d="M35,29.4C35,29.4,34.9,29.4,35,29.4c-0.1,0.1-0.1,0.1-0.1,0.1C34.9,29.5,34.9,29.5,35,29.4z"/>
		<path fill="none" d="M65.1,28.8C65.1,28.8,65.1,28.8,65.1,28.8C65,28.8,65,28.9,65,28.9C65.1,28.9,65.1,28.8,65.1,28.8z"/>
		<g>
			<path fill="#FFFFFF" d="M5.3,28.6c0.7-2.4,1.8-4.4,3.3-6c-1.8,1.7-3.1,3.9-3.9,6.6c-1.4,5.1,0.7,7.5,5.7,6.8
				c3.5-0.5,6.6-1.8,6.6-1.8c0.2-0.2,0.3-0.3,0.4-0.4c0,0,0-0.1,0-0.1c-0.6,0.2-3.4,1.3-6.5,1.7C6,36.1,3.9,33.6,5.3,28.6z"/>
			<path fill="#FFFFFF" d="M16.5,24.8c1.3-0.2,2.1-0.4,3.1-0.6c0.8-2.6,1.6-4.6,1.6-4.6c0-0.2-0.1-0.3-0.1-0.5c0,0-3-0.3-5.1,0
				c-2.4,0.3-4.5,1.2-6.3,2.5c-1.8,1.7-3.1,3.9-3.8,6.5c-1.4,5.1,0.7,7.5,5.7,6.8c2.5-0.4,4.9-1.1,6-1.5c0.5-2.3,1.4-5,1.4-5
				c-1.6,0.3-2.5,0.4-4.1,0.8c-0.7,2.1-1.4,3-2.8,3.1c-1.8,0.2-2.2-1.3-1.2-5c0.8-3.3,1.7-4.4,3.5-4.6c1.3-0.2,1.6,0.3,1.3,1.6
				c-0.2,0.8-0.4,1.4-0.4,1.4c1.6-0.3,2.4-0.4,4-0.7c0-0.2,0.1-0.3,0.1-0.5c-1.3,0.2-2.1,0.4-3.6,0.7c0,0,0.2-0.6,0.4-1.4
				c0.3-1.3,0-1.8-1.3-1.6c-0.4,0.1-0.7,0.1-1,0.3c0.4-0.4,1-0.6,1.6-0.7c1.3-0.2,1.6,0.3,1.3,1.6C16.7,24.1,16.5,24.8,16.5,24.8z"
				/>
		</g>
		<path fill="#FFFFFF" d="M26.8,31.9c-0.1-0.1-0.1-0.1-0.1-0.2c0.1-0.5,0.2-0.8,0.3-1.1c-0.1,0-0.3,0.1-0.5,0.1
			c-0.2,0.6-0.2,1-0.4,1.6c0.1,0.1,0.1,0.1,0.1,0.2c0,0,2-0.3,4-0.4c1.2-0.1,2.9-0.2,2.9-0.2c0.1-0.2,0.1-0.4,0.1-0.6
			c-0.6,0-1.7,0.1-2.5,0.2C28.9,31.6,26.8,31.9,26.8,31.9z"/>
		<g>
			<path fill="#FFFFFF" d="M19.6,32.6c0.2-0.5,0.3-0.9,0.4-1.3c-0.1,0.1-0.3,0.2-0.5,0.2c-0.2,0.7-0.3,1-0.5,1.7
				c0,0,1.5-0.2,2.8-0.3c1.3-0.1,3.2-0.3,3.2-0.3c0.1-0.2,0.1-0.4,0.2-0.5c-0.6,0-1.9,0.1-2.8,0.2C21.1,32.4,19.6,32.6,19.6,32.6z"
				/>
			<path fill="#FFFFFF" d="M20.9,30.4c0.2-0.2,0.4-0.4,0.5-0.7c2-3.8,3-5.7,4.8-9.3c-0.1,0-0.2,0-0.3,0.1c-2,3.9-3,5.9-5.1,9.9
				c-0.1,0.1-0.1,0.2-0.2,0.4c0,0,0,0,0.1,0c0,0,0-0.1,0-0.1C20.8,30.5,20.8,30.5,20.9,30.4z"/>
			<path fill="#FFFFFF" d="M33.5,30.1c-0.6,0-0.9-0.3-1-1.2c-0.3-2-1.1-9.1-1.1-9.1c-0.1-0.1-0.2-0.1-0.3-0.2
				c-1.8,0.3-2.8,0.4-4.4,0.7c-1.7,3.4-2.7,5.4-4.7,9c-0.3,0.5-0.7,0.9-1.1,1.1c-0.1,0.1-0.1,0.1-0.2,0.2c-0.2,0.6-0.3,0.9-0.5,1.6
				c0,0,1.5-0.2,2.8-0.3c0.7-0.1,1.6-0.2,2.3-0.2c0.1-0.2,0.1-0.4,0.2-0.7c-0.1-0.1-0.1-0.1-0.1-0.2c-0.2,0-0.3,0-0.5,0.1
				c-0.6,0.1-0.6,0-0.6-0.3c0-0.1,0.1-0.2,0.1-0.4c0.1-0.3,0.2-0.5,0.4-0.9c0.5-0.1,1.2-0.2,1.7-0.3c0.4,0,1.6-0.1,1.6-0.1
				c0,0.3,0,0.4,0,0.7c0,0.1,0,0.3,0,0.3c-0.1,0.3-0.1,0.4-0.5,0.6c-0.1,0.3-0.1,0.5-0.2,0.9c0.1,0.1,0.1,0.1,0.1,0.2
				c0,0,2-0.3,4-0.4c0.6-0.1,1.4-0.1,2-0.1c0-0.2,0.1-0.4,0.1-0.6C33.5,30.2,33.5,30.2,33.5,30.1z M27.4,23.3c0.2,0,0.3,0,0.4,0
				c0,0.2,0,0.4,0,0.6c0.2-0.4,0.3-0.8,0.5-1.2c0-0.1,0.1-0.2,0.2-0.3c0.2,0,0.3,0,0.4,0c0,1.3,0.1,1.9,0.1,3.2
				c-0.2,0-0.4,0.1-0.6,0.1c-0.2,0-0.3,0-0.5,0.1c0,0-0.1,0-0.1,0c0,0.2,0,0.5,0,0.8c-0.4,0.1-0.8,0.1-1.1,0.1c-0.4,0-0.6,0.1-1,0.1
				C26.5,25.4,26.8,24.7,27.4,23.3z M29,28.6c0,0.1,0.1,0.3,0.1,0.3c-0.1,0.4-0.1,0.5-0.6,0.6c0-0.1,0.3-0.1,0.3-0.2
				c0-0.1,0.3-0.2,0.3-0.3c0-0.3,0-0.4,0-0.7c-1,0-1.4,0.1-1.8,0.1c-0.3,0-0.9,0.1-1.3,0.2c0-0.1,0-0.2,0.1-0.3
				c0.5-0.1,1.1-0.2,1.6-0.3c0.4,0,1.5-0.1,1.5-0.1C29,28.2,29,28.3,29,28.6z"/>
		</g>
		<path fill="#FFFFFF" d="M48.9,30.4c-0.4,0-3.8,0.2-4,0.3c0.1-0.5,0.2-0.8,0.3-1.2c-0.1,0-0.3,0.1-0.5,0.1c-0.1,0.7-0.2,1-0.4,1.7
			c0.3-0.1,3.6-0.3,4-0.3c1,0,2.3,0,2.3,0c0-0.2,0.1-0.4,0.1-0.6C50.3,30.4,49.5,30.4,48.9,30.4z"/>
		<g>
			<path fill="#FFFFFF" d="M80.7,17.9c1.2-0.2,2.5-0.4,3.4-0.5c-0.3-0.5-0.5-0.9-0.8-1.6c-0.1,0-0.2-0.1-0.3-0.1c0,0-1.4,0.5-3.1,1
				c0.1,0.3,0.2,0.5,0.4,0.8C80.4,17.8,80.5,17.8,80.7,17.9z"/>
			<path fill="#FFFFFF" d="M84.2,17.8c-0.9,0.1-2.5,0.3-4.1,0.5c-0.2-0.1-0.2-0.2-0.4-0.3c-0.2-0.4-0.3-0.7-0.4-1
				c-0.2,0.1-0.5,0.2-0.7,0.2c0.2,0.5,0.4,0.8,0.6,1.4c0.2,0.1,0.2,0.2,0.4,0.3c2.3-0.4,4.7-0.6,4.7-0.6c0-0.1,0-0.2,0.1-0.3
				C84.3,17.9,84.2,17.9,84.2,17.8z"/>
		</g>
		<path fill="#FFFFFF" d="M90.7,31.3c0,0.1,0,0.1,0,0.2c0,0,0,0,0,0C90.7,31.4,90.7,31.4,90.7,31.3z"/>
		<path fill="none" d="M59.2,23.9c0.1-0.3,0.2-0.7,0.1-1.1c0-1-0.4-1.5-1.3-1.7c0,0.8-0.1,1.7-0.1,2.7
			C58.5,23.8,58.7,23.9,59.2,23.9z"/>
		<path fill="none" d="M83.9,27.4C83.3,24,82.7,23,81.3,23c0,0,0,0,0,0c-0.1,0,0,0.7,0.1,1.6c0.5,3.4,1.2,4.5,2.5,4.6
			c0,0,0.1,0.1,0.1,0.1C84.1,28.8,84,28.2,83.9,27.4z"/>
		<g>
			<path fill="#FFFFFF" d="M88.3,26.3c-0.8-4-3.1-6.3-7-6.6c-1.4-0.1-2.6,0.1-3.5,0.5c-0.8,1-1.1,2.6-0.9,4.5c0.5,3.9,2.9,6.2,7,6.6
				c1.6,0.1,2.8-0.1,3.8-0.6C88.5,29.7,88.7,28.2,88.3,26.3z M82.8,29.9c-1.3-0.1-2-1-2.5-4.4c-0.3-2.2,0-2.5,1.1-2.5c0,0,0,0,0,0
				c1.3,0,2,1,2.6,4.4c0.1,0.9,0.2,1.3,0.1,1.8C83.9,29.9,83.5,30,82.8,29.9z M84.4,28.9c0.3-0.4,0.3-1.2,0.1-2.5
				c-0.6-3.4-1.2-4.7-2.6-4.8c-0.1,0-0.3,0-0.4,0c0.2-0.3,0.5-0.4,1-0.4c1.3,0.1,2,1.3,2.6,4.8C85.4,27.9,85.2,28.8,84.4,28.9z"/>
			<path fill="#FFFFFF" d="M83.3,31.7c-4-0.3-6.5-2.6-7-6.6c-0.2-2,0.1-3.5,0.9-4.6c-1.3,1-1.8,2.7-1.5,5.1c0.5,3.9,2.9,6.2,7,6.6
				c2.3,0.2,4-0.3,4.9-1.5C86.7,31.5,85.3,31.9,83.3,31.7z"/>
		</g>
		<path fill="none" d="M27.9,25.7c0-0.6,0-1.1-0.1-1.8c-0.3,0.6-0.5,1.1-0.8,1.9C27.4,25.8,27.6,25.8,27.9,25.7z"/>
		<path fill="#FFFFFF" d="M28,25.7c0.1,0,0.3,0.1,0.5,0.1c0-1.1-0.1-1.8-0.1-2.8c0,0,0,0,0,0c-0.2,1-0.4,0.7-0.5,1.1
			c0,0.6,0,1.1,0.1,1.7C27.9,25.8,28,25.7,28,25.7z"/>
		<path fill="#E6E6E6" d="M20.9,30.4c0.4-0.2,0.8-0.6,1.1-1.1c1.9-3.7,3-5.6,4.7-9c-0.1,0-0.3,0-0.4,0.1c-1.8,3.6-2.8,5.6-4.8,9.3
			C21.2,30,21.1,30.3,20.9,30.4z"/>
		<path fill="#FFFFFF" d="M33.9,30.9c-0.1,0-0.2,0-0.2,0c0,0.1-0.1,0.2-0.1,0.4c0.1,0,0.2,0,0.2,0C33.8,31.1,33.9,31,33.9,30.9z"/>
		<path fill="#FFFFFF" d="M45.7,28.9c-0.1,0-0.3,0.1-0.5,0.1c0,0.2-0.1,0.3-0.1,0.5C45.5,29.4,45.7,29.2,45.7,28.9z"/>
		<path fill="#FFFFFF" d="M87.7,30.7C87.7,30.7,87.7,30.7,87.7,30.7C87.7,30.8,87.7,30.8,87.7,30.7C87.7,30.8,87.7,30.8,87.7,30.7z"
			/>
		<g>
			<path fill="#E6E6E6" d="M5.9,28.2c0.8-2.7,2.1-4.9,3.8-6.5c-0.4,0.3-0.8,0.6-1.1,0.9c-1.5,1.6-2.6,3.6-3.3,6
				c-1.4,5.1,0.7,7.5,5.7,6.8c3.1-0.4,5.9-1.5,6.5-1.7c0-0.1,0-0.1,0-0.2c-1.1,0.4-3.4,1.2-6,1.5C6.6,35.7,4.5,33.2,5.9,28.2z"/>
			<path fill="#E6E6E6" d="M16.9,23.3c0.3-1.3,0-1.8-1.3-1.6c-0.7,0.1-1.2,0.3-1.6,0.7c0.3-0.2,0.7-0.2,1-0.3
				c1.3-0.2,1.6,0.3,1.3,1.6c-0.2,0.8-0.4,1.4-0.4,1.4c1.5-0.3,2.3-0.4,3.6-0.7c0-0.1,0.1-0.2,0.1-0.3c-1.1,0.2-1.8,0.3-3.1,0.6
				C16.5,24.8,16.7,24.1,16.9,23.3z"/>
			<path fill="#E6E6E6" d="M20.2,32.2c0.2-0.6,0.3-1,0.5-1.6c0,0,0,0-0.1,0c-0.2,0.2-0.4,0.4-0.6,0.6c-0.1,0.5-0.2,0.8-0.4,1.3
				c0,0,1.5-0.2,2.8-0.3c0.9-0.1,2.1-0.2,2.8-0.2c0-0.1,0.1-0.2,0.1-0.3c-0.7,0.1-1.6,0.1-2.3,0.2C21.7,32,20.2,32.2,20.2,32.2z"/>
			<path fill="#E6E6E6" d="M29,29c0,0.1-0.2,0.3-0.2,0.3c0,0.1-0.1,0.2-0.2,0.2c0.5-0.1,0.4-0.2,0.5-0.6c0-0.1-0.1-0.2-0.1-0.3
				c0-0.3,0-0.4,0-0.7c0,0-1.1,0.1-1.5,0.1c-0.5,0-1.1,0.2-1.6,0.3c-0.1,0.1-0.1,0.2-0.1,0.3c0.4-0.1,1.1-0.1,1.4-0.2
				c0.4,0,0.8-0.1,1.8-0.1C29,28.6,29,28.7,29,29z"/>
			<path fill="#E6E6E6" d="M28.5,25.8c0.2,0,0.4-0.1,0.6-0.2c0-1.3-0.1-2-0.1-3.3c-0.2,0-0.3,0.1-0.4,0.2c-0.1,0.1-0.1,0.5-0.2,0.5
				c0,0,0,0,0,0C28.4,24,28.5,24.7,28.5,25.8z"/>
			<path fill="#E6E6E6" d="M31.4,31c-2,0.2-4,0.4-4,0.4c-0.1-0.1-0.1-0.1-0.1-0.2c0.1-0.3,0.1-0.6,0.2-0.9c-0.1,0-0.3,0.1-0.5,0.1
				c-0.1,0.4-0.2,0.7-0.3,1.1c0.1,0.1,0.1,0.1,0.1,0.2c0,0,2-0.3,4-0.4c0.8-0.1,1.9-0.1,2.5-0.2c0-0.1,0.1-0.2,0.1-0.4
				C32.8,30.9,32,31,31.4,31z"/>
			<path fill="#E6E6E6" d="M49.5,30c-0.4,0-3.8,0.2-4,0.3c0.1-0.6,0.2-0.9,0.3-1.5c0,0,0,0,0,0c-0.1,0.3-0.3,0.5-0.6,0.6
				c-0.1,0.4-0.2,0.7-0.3,1.2c0.3-0.1,3.6-0.3,4-0.3c0.6,0,1.3,0,1.8,0c0-0.1,0-0.3,0.1-0.4C50.4,30,49.9,30,49.5,30z"/>
			<path fill="#E6E6E6" d="M36.2,20.6c1.2,0,1.2,0.1,1.1,0.8c-0.1,0.5-1.6,6.9-1.6,6.9c-0.1,0.4-0.2,0.6-0.4,0.8
				c0.5-0.2,0.8-0.5,0.9-1.2c0,0,1.5-6.4,1.6-6.9c0.1-0.7,0-0.7-1.1-0.8c-0.1-0.1-0.1-0.1-0.1-0.1c0.1-0.3,0.1-0.5,0.2-0.7
				c-0.2,0-0.3,0-0.5,0c-0.1,0.3-0.2,0.6-0.3,1.1C36.1,20.5,36.1,20.5,36.2,20.6z"/>
			<path fill="#E6E6E6" d="M40,23.6c-0.1,0-0.2,0-0.3,0c0,0-0.1,0.5-0.1,1.1c0.3,1.1,0.8,3.4,1.4,6.2c0.9-0.1,1.4-0.2,2.3-0.3
				c0-0.1,0.1-0.2,0.1-0.3c-0.6,0.1-1.1,0.1-1.8,0.2C40.7,26.6,40,23.6,40,23.6z"/>
			<path fill="#E6E6E6" d="M43.8,24c0.1,0,0.2,0,0.3,0c0,0,1-2.5,1.8-5c-0.2,0-0.3,0-0.5,0c-0.6,1.8-1.3,3.7-1.7,4.7
				C43.8,23.9,43.8,24,43.8,24z"/>
			<path fill="#E6E6E6" d="M46.9,27.7c0.1-0.8,0.2-4.3,0.2-4.3c-0.1,0-0.2,0-0.3,0c0,0-0.1,0.3-0.3,0.8c0,1-0.1,3.2-0.2,3.9
				c0,0.2-0.1,0.4-0.1,0.5C46.7,28.4,46.9,28.1,46.9,27.7z"/>
			<path fill="#E6E6E6" d="M34.6,30.9c0.1-0.6,0.2-0.9,0.3-1.4c-0.1,0.1-0.2,0.2-0.3,0.3c-0.1,0.3-0.1,0.6-0.2,1c0,0-0.1,0-0.3,0
				c0,0.1-0.1,0.3-0.1,0.4c0,0,1.6-0.3,2.5-0.3c0.5,0,1.9-0.1,2.6-0.1c0-0.1,0.1-0.2,0.1-0.4c-0.7,0-1.7,0.1-2.1,0.1
				C36.2,30.7,34.6,30.9,34.6,30.9z"/>
			<path fill="#E6E6E6" d="M59.9,22.2c0,0.8-0.1,1.3-0.5,1.7c0.7-0.3,1.1-0.9,1-2.1c0-1.2-0.7-1.8-2.1-1.8c-0.3,0-0.3,0.1-0.3,0.4
				C59.3,20.5,59.9,21.1,59.9,22.2z"/>
			<path fill="#E6E6E6" d="M52.2,19.9c0,0,0.4,0,0.7,0c0.4,0,0.5,0.2,0.5,1c-0.1,2.5-0.1,3.8-0.1,6.3c0,0.5-0.1,0.9-0.3,1.1
				c0.6-0.2,0.8-0.6,0.9-1.5c0.1-2.5,0.1-3.8,0.1-6.3c0-0.8-0.1-1-0.5-1c-0.3,0-0.7,0-0.7,0c-0.1-0.1-0.1-0.1-0.2-0.2
				c0-0.2,0.1-0.4,0.1-0.5c-0.2,0-0.3,0-0.5,0c0,0.3-0.1,0.5-0.1,0.9C52.1,19.8,52.2,19.8,52.2,19.9z"/>
			<path fill="#E6E6E6" d="M52.2,30.2c0.1-0.5,0.1-0.8,0.2-1.3c-0.1,0.1-0.3,0.3-0.5,0.3c0,0.2-0.1,0.5-0.1,0.8c0,0,0,0-0.1,0
				c0,0.1,0,0.3-0.1,0.5c0,0,2.9-0.2,3.9-0.2c0.6,0,2.1,0,2.9,0.1c0-0.1,0-0.3,0-0.4c-0.8,0-1.9-0.1-2.4,0
				C55.2,30,52.2,30.2,52.2,30.2z"/>
			<path fill="#E6E6E6" d="M57.9,26.1c0,0.2,0,0.3,0,0.4c0.4,0,0.7,0,1.2,0c1.3,0,2.4-0.4,3.3-1.1c-0.8,0.4-1.7,0.7-2.7,0.7
				C59,26.1,58.6,26.1,57.9,26.1z"/>
			<path fill="#E6E6E6" d="M64.3,20c0,0,0.3,0,0.5,0c0.4,0,0.5,0.2,0.6,1c0.1,2.5,0.2,3.8,0.3,6.3c0,0.5,0,0.9-0.2,1.1
				c0.6-0.2,0.8-0.6,0.8-1.5c-0.1-2.5-0.2-3.8-0.3-6.3c0-0.8-0.2-1-0.6-1c-0.2,0-0.5,0-0.5,0c-0.1-0.1-0.1-0.2-0.2-0.3
				c0-0.2,0-0.3,0-0.5c-0.2,0-0.4,0-0.5,0c0,0.3,0,0.5-0.1,0.9C64.2,19.8,64.2,19.9,64.3,20z"/>
			<path fill="#E6E6E6" d="M75.2,30.6c-1.2-0.1-3.6-0.3-5.9-0.4c-2.2-0.1-4.4,0-4.4,0c0-0.5,0.1-0.9,0.1-1.3
				c-0.1,0.2-0.3,0.4-0.6,0.5c0,0.4,0,0.7-0.1,1.3c0,0,2.3-0.1,4.4,0c2.7,0.1,5.5,0.4,6.5,0.4C75.2,30.9,75.2,30.7,75.2,30.6z"/>
			<path fill="#E6E6E6" d="M72.8,21.5c-0.1-0.8-0.4-0.4-2-0.5c-0.5,0-0.6-1-0.6,1c0,0,0,0,0.1,0c1.6,0,2-0.3,2,0.5
				c0,0.2,0,0.4,0,0.4c0.9,0,1.4-0.2,2.1-0.2c0-0.1,0-0.3,0-0.5c-0.5,0-0.9,0-1.5,0C72.8,22.2,72.8,21.8,72.8,21.5z"/>
			<path fill="#E6E6E6" d="M80.1,18.3c1.6-0.3,3.3-0.5,4.1-0.5c-0.1-0.1-0.1-0.2-0.2-0.3c-0.9,0.1-2.2,0.3-3.4,0.5
				c-0.2-0.1-0.2-0.2-0.4-0.3c-0.2-0.3-0.3-0.6-0.4-0.8c-0.2,0.1-0.4,0.1-0.7,0.2c0.1,0.3,0.3,0.6,0.4,1
				C79.8,18.2,79.9,18.2,80.1,18.3z"/>
			<path fill="#E6E6E6" d="M82.5,21.2c-0.5,0-0.8,0.1-1,0.4c0.1,0,0.3,0,0.4,0c1.3,0.1,2,1.3,2.6,4.8c0.2,1.3,0.2,2.1-0.1,2.5
				c0.8-0.2,1-1,0.6-2.9C84.5,22.6,83.8,21.4,82.5,21.2z"/>
			<path fill="#E6E6E6" d="M83.9,31.3c-4-0.3-6.5-2.6-7-6.6c-0.2-2,0.1-3.5,0.9-4.5c-0.2,0.1-0.4,0.2-0.6,0.4
				c-0.8,1-1.1,2.6-0.9,4.6c0.5,3.9,2.9,6.2,7,6.6c1.9,0.2,3.4-0.2,4.3-0.9c0,0,0,0,0,0C86.8,31.3,85.5,31.4,83.9,31.3z"/>
			<path fill="#E6E6E6" d="M90.8,33.2c-0.1-0.7-0.1-1.1-0.1-1.7c0,0,0,0,0,0c-0.1,0.3-0.2,0.5-0.5,0.6c0,0.5,0.1,0.9,0.1,1.5
				c0,0,2.1,0.1,3.9,0.3c0.8,0.1,2.4,0.3,3.3,0.5c0-0.2,0-0.3,0-0.5c-0.9-0.1-2-0.3-2.6-0.4C93,33.2,90.8,33.2,90.8,33.2z"/>
			<path fill="#E6E6E6" d="M87.8,20.6c1.5,0.3,1.9,0.6,2.1,1.6c0.6,3.2,0.8,4.8,1.4,8c0.1,0.4,0,0.6-0.1,0.9
				c0.6-0.1,0.8-0.5,0.6-1.2c-0.5-3.2-0.8-4.8-1.4-8c-0.2-1.1-0.6-1.3-2.1-1.6c-0.1-0.1-0.2-0.2-0.3-0.4c0-0.3-0.1-0.5-0.1-0.7
				c-0.2,0-0.5-0.1-0.6-0.1c0,0.4,0.1,0.7,0.1,1.2C87.6,20.4,87.6,20.5,87.8,20.6z"/>
			<path fill="#E6E6E6" d="M95.4,26.5c-0.1,0-0.2,0-0.4,0c0.1,0.4,0.2,0.7,0.2,1c1,1.1,3.4,4.1,6.4,7.7c1.6,0.1,2.5,0.2,3.9,0.3
				c0-0.2-0.1-0.3-0.1-0.4c-1.1-0.1-1.9-0.2-3.2-0.3C98.4,30,95.4,26.5,95.4,26.5z"/>
			<path fill="#E6E6E6" d="M97.4,21.8c0.3,0,0.4,0.1,0.7,0.1c0.6,0.1,0.8,0.3,1,1.1c0.4,1.3,0.6,2.1,0.9,3.2
				c0.3,0.4,0.5,0.6,0.5,0.6c0.1,0,0.2,0,0.4,0.1c-0.5-1.7-0.7-2.5-1.2-4.2c-0.2-0.8-0.5-1-1-1.1c-0.3,0-0.4-0.1-0.7-0.1
				c-0.1-0.1-0.1-0.2-0.2-0.3c0-0.2-0.1-0.5-0.1-0.7c-0.2,0-0.5-0.1-0.7-0.1c0.1,0.4,0.1,0.7,0.2,1.1C97.3,21.6,97.4,21.7,97.4,21.8
				z"/>
		</g>
		<path fill="#FFFFFF" d="M20.7,30.6c0.1,0,0.1-0.1,0.2-0.2C20.8,30.5,20.8,30.5,20.7,30.6C20.7,30.5,20.7,30.6,20.7,30.6z"/>
		<g>
			<path fill="#FFFFFF" d="M50.7,29.3c0,0-0.3,0-0.6,0c-0.6,0-0.8-0.4-0.9-1.6c-0.1-1.7-0.2-5.1-0.2-6.3c0-0.8,0.3-0.9,1.3-1
				c0.1-0.7,0.1-1,0.2-1.7c-0.1,0-0.1,0-0.1-0.1c0,0-0.9,0.1-1.8,0.1c-0.9,0.1-1.8,0.1-2.8,0.1c-0.8,2.5-1.8,5-1.8,5
				c-0.1,0-0.2,0-0.3,0c0,0,0-0.1-0.1-0.3c0.4-1,1.1-2.9,1.7-4.7c-0.1,0-0.3,0-0.4,0c-0.9,2.7-2.1,6-2.1,6c-0.1,0-0.2,0-0.3,0
				c0,0-0.6-3.1-1-5.9c0,0-1.9,0.2-3,0.2c-0.5,0-1.3,0.1-1.9,0.1c-0.1,0.2-0.1,0.4-0.2,0.7c0.1,0.1,0.1,0.1,0.1,0.1
				c1.2,0,1.2,0.1,1.1,0.8c-0.1,0.5-1.6,6.9-1.6,6.9c-0.1,0.7-0.4,1-0.9,1.2c0.2-0.2,0.3-0.5,0.4-0.8c0,0,1.5-6.4,1.6-6.9
				c0.1-0.7,0-0.7-1.1-0.8c-0.1-0.1-0.1-0.1-0.1-0.1c0.1-0.4,0.2-0.7,0.3-1.1c-0.3,0-0.4,0-0.4,0c-0.2,0.7-0.2,1-0.4,1.6
				c0.1,0.1,0.1,0.1,0.1,0.1c1.2,0,1.2,0.1,1.1,0.8c-0.1,0.5-1.6,6.9-1.6,6.9c0,0.1-0.1,0.2-0.1,0.3c0,0.1-0.1,0.2-0.1,0.2
				c0,0.1-0.1,0.1-0.1,0.1c-0.1,0.5-0.2,0.8-0.3,1.4c0,0,1.6-0.3,2.5-0.3c0.4,0,1.4-0.1,2.1-0.1c0.1-0.2,0.1-0.4,0.2-0.7
				c-0.1-0.1-0.1-0.1-0.2-0.1c0,0-0.4,0.1-0.5,0.1c-0.5,0-0.7-0.2-0.6-0.6c0-0.4,0.6-4.5,0.6-4.5c0.1,0,0.2,0,0.3,0
				c0,0,0.7,3,1.5,6.9c1.1-0.1,1.6-0.2,2.6-0.3c0.1-0.2,0.1-0.4,0.2-0.5c-0.8,0.1-1.3,0.2-2.3,0.3c-0.6-2.8-1.1-5.1-1.4-6.2
				c0.1-0.6,0.1-1.1,0.1-1.1c0.1,0,0.2,0,0.3,0c0,0,0.7,3,1.5,6.9c0.7-0.1,1.2-0.1,1.8-0.2c1.3-3.4,2.4-6.1,2.4-6.1
				c0.1,0,0.2,0,0.3,0c0,0-0.1,3.5-0.2,4.3c0,0.1,0,0.2,0,0.3c0,0,0,0,0,0c0-0.1,0-0.2,0.1-0.3c0.2,0,0.3,0,0.4-0.1
				c0.1-0.1,0.1-0.3,0.1-0.5c0-0.7,0.1-2.9,0.2-3.9c0.2-0.5,0.3-0.8,0.3-0.8c0.1,0,0.2,0,0.3,0c0,0-0.1,3.5-0.2,4.3
				c0,0.5-0.2,0.7-0.7,0.9c-0.1,0.2-0.2,0.3-0.5,0.3c-0.1,0.5-0.2,0.9-0.3,1.5c0.3-0.1,3.6-0.3,4-0.3c0.4,0,0.9,0,1.3,0
				c0-0.2,0.1-0.4,0.1-0.6C50.8,29.3,50.8,29.3,50.7,29.3z"/>
			<path fill="#FFFFFF" d="M34,31.3c0-0.2,0.1-0.3,0.1-0.4c0.2,0,0.3,0,0.3,0c0.1-0.4,0.2-0.7,0.2-1c-0.1,0.1-0.2,0.1-0.3,0.2
				c-0.1,0.1-0.3,0.1-0.5,0.1c-0.1,0.3-0.1,0.5-0.2,0.7c0.1,0,0.2,0,0.2,0c0,0.1-0.1,0.2-0.1,0.4c0,0-0.1,0-0.2,0
				c0,0.2-0.1,0.4-0.1,0.6c0,0,1.6-0.3,2.5-0.3c0.7,0,3-0.1,3-0.1c0.1-0.2,0.1-0.4,0.1-0.6c-0.7,0-2.1,0.1-2.6,0.1
				C35.6,31,34,31.3,34,31.3z"/>
		</g>
		<path fill="#FFFFFF" d="M46.2,28.5c-0.1,0-0.3,0.1-0.4,0.1c0,0.1,0,0.2-0.1,0.3C46,28.8,46.1,28.7,46.2,28.5z"/>
		<path fill="#FFFFFF" d="M51.8,30.1c0-0.3,0.1-0.6,0.1-0.8c0,0-0.1,0-0.1,0C51.8,29.5,51.8,29.8,51.8,30.1
			C51.8,30.1,51.8,30.1,51.8,30.1z"/>
		<g>
			<path fill="#FFFFFF" d="M63.5,22.7c-0.1-1.5-0.8-4-5.5-4c0,0-2.6,0.1-3.5,0.1c-0.7,0-1.2,0-1.8,0c0,0.2-0.1,0.3-0.1,0.5
				c0.1,0.1,0.1,0.1,0.2,0.2c0,0,0.4,0,0.7,0c0.4,0,0.5,0.2,0.5,1c-0.1,2.5-0.1,3.8-0.1,6.3c0,0.8-0.2,1.3-0.9,1.5
				c0.2-0.2,0.3-0.6,0.3-1.1c0.1-2.5,0.1-3.8,0.1-6.3c0-0.8-0.1-1-0.5-1c-0.3,0-0.7,0-0.7,0c-0.1-0.1-0.1-0.1-0.2-0.2
				c0.1-0.4,0.1-0.6,0.1-0.9c-0.2,0-0.3,0-0.5,0c-0.1,0.6-0.1,0.9-0.2,1.5c0.1,0.1,0.1,0.1,0.2,0.2c0,0,0.4,0,0.7,0
				c0.4,0,0.5,0.2,0.5,1c-0.1,2.5-0.1,3.8-0.1,6.3c0,0.2,0,0.4-0.1,0.6c0,0.1,0,0.2-0.1,0.2c0,0.1-0.1,0.2-0.2,0.3
				c-0.1,0.4-0.1,0.7-0.2,1.3c0,0,2.9-0.2,3.9-0.2c0.5,0,1.6,0,2.4,0c0-0.2,0-0.4,0.1-0.6c0-0.1-0.1-0.1-0.1-0.2c0,0-0.4,0-0.7,0
				c-0.9,0-1-0.3-1-1.4c0-0.4,0-0.5,0-0.9c0.7,0,1.1,0,1.8,0C61.3,27,63.6,25,63.5,22.7z M58.4,20.1c1.4,0,2,0.5,2.1,1.8
				c0,1.1-0.3,1.8-1,2.1c0.3-0.4,0.5-0.9,0.5-1.7c0-1.1-0.6-1.7-1.8-1.8C58.1,20.1,58.2,20.1,58.4,20.1z M56.9,21.4
				c0-0.4,0.1-0.4,0.3-0.4c0.3,0,0.6,0,0.8,0.1c0.9,0.2,1.3,0.7,1.3,1.7c0,0.5,0,0.8-0.1,1.1c-0.2,0.5-0.5,0.8-1,1
				c-0.6-0.1-0.8-0.1-1.4-0.2C56.8,23.5,56.9,22.4,56.9,21.4z M57.9,26.1c0.7,0,1.1,0,1.8,0c1,0,1.9-0.3,2.7-0.7
				c-0.9,0.7-2,1.1-3.3,1.1c-0.5,0-0.8,0-1.2,0C57.9,26.3,57.9,26.2,57.9,26.1z"/>
			<path fill="#FFFFFF" d="M51.7,30.5c0-0.2,0-0.3,0.1-0.5c0-0.3,0.1-0.5,0.1-0.8c-0.1,0.1-0.3,0.6-0.5,0.6c0,0.3-0.1,1.1-0.1,1.1
				c0,0,0,0,0.1,0c0,0,0,0-0.1,0c0,0,0,0,0,0c0,0-0.1,0.1-0.1,0.4c0,0,2.9-0.3,3.9-0.3c0.9,0,3.4,0,3.4,0c0-0.2,0-0.5,0.1-0.6
				c-0.8,0-2.3-0.1-2.9-0.1C54.6,30.4,51.7,30.5,51.7,30.5z"/>
		</g>
		<g>
			<path fill="#FFFFFF" d="M68.8,30.6c-2.2-0.1-4.4,0-4.4,0c0-0.5,0.1-0.8,0.1-1.3c-0.2,0.1-0.3,0.1-0.5,0.1c0,0.7-0.1,1-0.1,1.7
				c0,0,2.3-0.1,4.4,0c3.3,0.1,6.7,0.5,6.7,0.5c0.1-0.1,0.2-0.2,0.3-0.3c0-0.1,0-0.2,0-0.3C74.3,30.9,71.5,30.7,68.8,30.6z"/>
			<path fill="#FFFFFF" d="M64.3,20.6c0.4,0,0.5,0.2,0.6,1c0.1,2.5,0.2,3.8,0.3,6.3c0,0.2,0,0.5,0,0.6c0,0.1,0,0.2-0.1,0.3
				c0,0,0,0.1-0.1,0.1c0,0.5,0,0.8-0.1,1.3c0,0,2.3-0.1,4.4,0c2.3,0.1,4.6,0.3,5.9,0.4c0-1.7,0.1-3.1,0.1-3.1
				c-0.1-0.1-0.2-0.2-0.3-0.3c-1,0-1.6,0-2.6,0c-0.1,1.7-0.4,2-2.2,1.9c-0.9,0-1-0.2-1.1-1.2c0-0.4-0.2-1.5-0.1-1.6
				c0.1-0.1,0.9-0.1,1.5,0c0.9,0,2.4,0.2,2.4,0.2c0-0.9,0-1.3,0.1-2.1C73,24.2,73,24.1,72.9,24c0,0-1.6,0-2.2,0
				c-0.6,0-1.3-0.1-1.6-0.1c0-0.8,0-1.3,0-2.1c0-0.4,0.1-0.5,0.6-0.5c1.6,0.1,2,0.3,2,1.1c0,0.2,0,0.7,0,0.7c1.1,0,1.6,0,2.7,0
				c0-0.2,0-0.4,0-0.6c-0.7,0-1.3,0-2.1,0c0,0,0,0.2,0-0.1c-0.1-0.8-0.4-0.5-2-0.5c0,0,0,0-0.1,0c0-2,0.1-1,0.6-1c1.6,0.1,2,0,2,0.8
				c0,0.2,0,0.5,0,0.5c0.6,0,1.1-0.1,1.5-0.1c0-1.4,0.1-2.8,0.1-2.8c-0.1-0.1-0.2-0.2-0.3-0.3c-1.1,0.1-3.6,0-6-0.1
				c-1.1,0-2.5-0.1-3.5-0.2c0,0.1,0,0.3,0,0.5c0.1,0.1,0.1,0.2,0.2,0.3c0,0,0.3,0,0.5,0c0.4,0,0.5,0.2,0.6,1
				c0.1,2.5,0.2,3.8,0.3,6.3c0,0.9-0.1,1.3-0.8,1.5c0.2-0.2,0.2-0.6,0.2-1.1c-0.1-2.5-0.2-3.8-0.3-6.3c0-0.8-0.2-1-0.6-1
				c-0.2,0-0.5,0-0.5,0c-0.1-0.1-0.1-0.2-0.2-0.3c0-0.4,0-0.6,0.1-0.9c-0.3,0-0.5,0-0.5,0c0,0.6-0.1,0.9-0.1,1.5
				c0.1,0.1,0.1,0.2,0.2,0.3C63.7,20.6,64,20.5,64.3,20.6z"/>
		</g>
		<path fill="#FFFFFF" d="M90.7,31.2C90.7,31.2,90.7,31.2,90.7,31.2c0,0,0,0.1,0,0.1C90.7,31.2,90.7,31.2,90.7,31.2z"/>
		<g>
			<path fill="#FFFFFF" d="M105.7,35.4c-1.4-0.1-2.3-0.2-3.9-0.3c-3-3.6-5.5-6.5-6.4-7.7c-0.1-0.3-0.1-0.6-0.2-1c0.1,0,0.2,0,0.4,0
				c0,0,3,3.5,6.9,8.2c1.3,0.1,2.2,0.2,3.2,0.3c-1-3.9-1.5-6.1-2.6-10.3c-0.2-0.9,0-1.3,1-1.2c-0.2-0.8-0.3-1.2-0.5-2.1
				c0,0-1.9-0.2-3.2-0.4c-0.7-0.1-1.7-0.3-2.5-0.4c0,0.2,0.1,0.4,0.1,0.7c0.1,0.1,0.1,0.2,0.2,0.3c0.3,0,0.4,0.1,0.7,0.1
				c0.6,0.1,0.8,0.3,1,1.1c0.5,1.7,0.7,2.5,1.2,4.2c-0.1,0-0.2,0-0.4-0.1c0,0-0.2-0.2-0.5-0.6c-0.3-1.1-0.5-1.9-0.9-3.2
				c-0.2-0.8-0.5-1-1-1.1c-0.3,0-0.4-0.1-0.7-0.1c-0.1-0.1-0.1-0.2-0.2-0.3c-0.1-0.5-0.1-0.8-0.2-1.1c-0.4-0.1-0.7-0.1-0.7-0.1
				c0.1,0.7,0.2,1.1,0.3,1.8c0.1,0.1,0.1,0.2,0.2,0.3c0.3,0,0.4,0.1,0.7,0.1c0.6,0.1,0.8,0.3,1,1.1c0.5,1.7,0.7,2.5,1.2,4.2
				c-0.1,0-0.2,0-0.4-0.1c0,0-3.4-3.9-6.4-7.9c0,0-1.7-0.1-3-0.3c-0.8-0.1-1.6-0.2-2.2-0.3c0,0.2,0.1,0.4,0.1,0.7
				c0.1,0.1,0.2,0.2,0.3,0.4c1.5,0.3,1.9,0.6,2.1,1.6c0.6,3.2,0.8,4.8,1.4,8c0.1,0.7-0.1,1.1-0.6,1.2c0.1-0.2,0.1-0.5,0.1-0.9
				c-0.5-3.2-0.8-4.8-1.4-8c-0.2-1.1-0.6-1.3-2.1-1.6c-0.1-0.1-0.2-0.2-0.3-0.4c-0.1-0.5-0.1-0.8-0.1-1.2c-0.4-0.1-0.7-0.1-0.7-0.1
				c0.1,0.7,0.1,1.1,0.2,1.8c0.1,0.1,0.2,0.2,0.3,0.4c1.5,0.3,1.9,0.6,2.1,1.6c0.6,3.2,0.8,4.8,1.4,8c0,0.1,0,0.2,0,0.3
				c0,0,0,0.1,0,0.1c0,0.1,0,0.1,0,0.2c0,0.6,0.1,1,0.1,1.7c0,0,2.1,0.1,3.9,0.3c0.6,0.1,1.7,0.2,2.6,0.4c0-0.2,0-0.5-0.1-0.8
				c-0.1-0.1-0.2-0.1-0.3-0.2c0,0-0.5,0-0.8,0c-0.7-0.1-1-0.4-1.2-1.3c-0.4-1.6-0.6-2.5-1-4.1c0.1,0,0.2,0,0.4,0c0,0,3,3.5,6.9,8.2
				c1.9,0.2,2.8,0.2,4.7,0.4C105.8,35.9,105.7,35.7,105.7,35.4z"/>
			<path fill="#FFFFFF" d="M94.1,33.8c-1.7-0.2-3.9-0.3-3.9-0.3c0-0.6-0.1-1-0.1-1.5c-0.2,0.1-0.4,0.1-0.6,0.1
				c0.1,0.8,0.1,1.2,0.2,2c0,0,2.1,0.1,3.9,0.3c1.1,0.1,3.9,0.6,3.9,0.6c0-0.3,0-0.5-0.1-0.7C96.5,34.2,94.9,33.9,94.1,33.8z"/>
		</g>
		<path fill="#1B3043" d="M71.2,6.3c-2,0.1-2.7,0.1-3.4,0.1c-0.8,0-2.3-0.1-2.3-0.1l-1.2,0l0,0l0,0l-0.2,0l0,0l-0.7,0
			c0,0-1,0.1-1.7,0.1c-1,0-2-0.1-2-0.1l-1.4-0.1l-0.1,0.8c-0.9-0.5-2-0.8-3.3-0.8c-2.1,0-3.7,0.7-4.7,2c-1-1.2-2.6-1.9-4.7-1.9
			l-0.1,0c-0.5,0-1.8,0.1-2.3,0.1c-0.6,0-2.1,0-2.1,0l-1.3,0l-0.3,3l1,1.3l0,0v3.7l-0.8,0.1l-0.4,4.1l1.7-0.2c0,0,1.2-0.1,1.9-0.1
			c0.8,0,2,0.2,2.1,0.2l0.1,0h0.1c2.1,0,3.8-0.8,4.9-2.2c0.9,1.4,2.5,2.2,4.6,2.2c1.4,0,2.6-0.4,3.6-1l-0.1,1.1l1.8-0.2
			c0,0,1.1-0.1,2-0.1c0.6,0,2.1,0.1,2.1,0.1l1.2,0l0.1,0.1l4.8-0.3l0.2-7.8l0.8-0.1L71.2,8l0-0.8L71.2,6.3z"/>
		<g>
			<path fill="#E6E6E6" d="M42.9,17.2c-0.8,0-2,0.1-2,0.1L41,16c0.7-0.1,0.9-0.4,0.9-1.2v-4.7c0-0.6-0.1-0.8-0.4-0.8
				c-0.2,0-0.4,0-0.4,0l-0.1-0.2l0.1-1.1c0,0,1.6,0,2.1,0c0.6,0,2.3-0.1,2.3-0.1c2.9,0,4.4,1.4,4.4,4.2c0,3.1-1.9,5.1-4.9,5.1
				C45.1,17.4,43.8,17.2,42.9,17.2z M44.7,10.2c-0.1,1.4-0.1,2.8-0.1,4.7c0,0.5,0.1,0.7,0.5,0.7c1.2,0,1.7-0.8,1.7-2.8
				c0-2.3-0.4-3-1.7-3C44.8,9.9,44.7,10,44.7,10.2z"/>
			<path fill="#E6E6E6" d="M50.4,12.9C50.4,9.7,52,8,55,8c2.8,0,4.2,1.5,4.2,4.5c0,3.2-1.7,4.9-4.6,4.9
				C51.9,17.4,50.4,15.8,50.4,12.9z M56,13.4c0-2.6-0.3-3.4-1.3-3.4c-0.8,0-1.1,0.6-1.1,2.3c0,2.6,0.3,3.5,1.2,3.5
				C55.6,15.6,56,15,56,13.4z"/>
			<path fill="#E6E6E6" d="M66.4,12.6L66.4,10c0-0.5-0.1-0.6-0.5-0.6h-0.4l-0.1-0.2l0.1-1.1c0,0,1.5,0.1,2.3,0.1s1.9,0,1.9,0
				l-0.1,1.3c-0.6,0.1-0.8,0.3-0.8,0.9l-0.2,7L66,17.4c-1.6-2.6-2.9-4.6-2.9-4.6H63l0,2.5c0,0.5,0.1,0.7,0.5,0.7
				C63.7,16,64,16,64,16l0.1,0.1L64,17.3c0,0-1.6-0.1-2.2-0.1c-1,0-2.2,0.1-2.2,0.1l0.1-1.3c0.5-0.1,0.8-0.3,0.8-0.9l0.2-4.9
				c0-0.6-0.2-0.8-1.1-0.9l-0.2-0.2l0.1-1.1c0,0,1.1,0.1,2.1,0.1c0.8,0,1.8-0.1,1.8-0.1c1.3,2.3,2.7,4.5,2.7,4.5H66.4z"/>
		</g>
	</g>
</g>
</svg>
