<?xml version="1.0" encoding="utf-8"?>
<!-- Generator: Adobe Illustrator 18.0.0, SVG Export Plug-In . SVG Version: 6.00 Build 0)  -->
<!DOCTYPE svg PUBLIC "-//W3C//DTD SVG 1.1//EN" "http://www.w3.org/Graphics/SVG/1.1/DTD/svg11.dtd">
<svg version="1.1" id="Capa_1" xmlns="http://www.w3.org/2000/svg" xmlns:xlink="http://www.w3.org/1999/xlink" x="0px" y="0px"
	 viewBox="0 0 110 50" enable-background="new 0 0 110 50" xml:space="preserve">
<g>
	<polygon fill="#1A3044" points="49.1,89 49.1,75.6 44.9,75.6 44.9,89 38.3,95.5 55.6,95.5 	"/>
	<g>
		<rect x="45.7" y="76.4" fill="#FFC40C" width="2.5" height="15.8"/>
		<polygon fill="#FFC40C" points="53.6,94.6 47,88.1 40.4,94.6 		"/>
	</g>
	<polygon fill="#1A3044" points="65.3,89 65.3,75.6 61.1,75.6 61.1,89 54.6,95.5 71.9,95.5 	"/>
	<g>
		<rect x="62" y="76.4" fill="#FFC40C" width="2.5" height="15.8"/>
		<polygon fill="#FFC40C" points="69.8,94.6 63.2,88.1 56.7,94.6 		"/>
	</g>
	<path fill="#1A3044" d="M55,7C39.6,7,27.1,23.5,27.1,43.7S39.6,80.4,55,80.4c15.4,0,27.9-16.4,27.9-36.7S70.4,7,55,7z"/>
	<ellipse fill="#D02026" cx="55" cy="43.7" rx="27" ry="35.8"/>
	<path fill="#A21E22" d="M55,7.9c-0.8,0-1.5,0.1-2.2,0.1c0.3,0,0.6,0,0.9,0.1c14.8,1.6,25.2,18.8,23.1,38.4
		C75,63.8,64.1,77.3,51.4,79.2c1.2,0.2,2.4,0.3,3.6,0.3c14.9,0,27-16,27-35.8S69.9,7.9,55,7.9z"/>
	<g>
		<ellipse fill="#FFFFFF" cx="43.7" cy="34.3" rx="10.5" ry="11.5"/>
		<ellipse fill="#231F20" cx="46" cy="29.3" rx="2.3" ry="2.5"/>
		<ellipse fill="#D1D3D4" cx="46.5" cy="28.3" rx="0.6" ry="0.7"/>
	</g>
	<ellipse fill="#FFFFFF" cx="67.1" cy="34.3" rx="10.5" ry="11.5"/>
	<ellipse fill="#231F20" cx="69.4" cy="29.3" rx="2.3" ry="2.5"/>
	<ellipse fill="#D1D3D4" cx="69.9" cy="28.3" rx="0.6" ry="0.7"/>
	<polygon fill="#FFC40C" points="59.8,45.8 54.8,54.1 50.2,45.8 	"/>
</g>
</svg>
