<?xml version="1.0" encoding="utf-8"?>
<!-- Generator: Adobe Illustrator 18.0.0, SVG Export Plug-In . SVG Version: 6.00 Build 0)  -->
<!DOCTYPE svg PUBLIC "-//W3C//DTD SVG 1.1//EN" "http://www.w3.org/Graphics/SVG/1.1/DTD/svg11.dtd">
<svg version="1.1" id="Layer_1" xmlns="http://www.w3.org/2000/svg" xmlns:xlink="http://www.w3.org/1999/xlink" x="0px" y="0px"
	 viewBox="0 0 400 400" enable-background="new 0 0 400 400" xml:space="preserve">
<circle fill="#FFFFFF" cx="200" cy="200" r="190.3"/>
<circle fill="#D1D4D5" cx="200" cy="200" r="181.2"/>
<g>
	<defs>
		<circle id="SVGID_1_" cx="200" cy="200" r="181.2"/>
	</defs>
	<clipPath id="SVGID_2_">
		<use xlink:href="#SVGID_1_"  overflow="visible"/>
	</clipPath>
	<g clip-path="url(#SVGID_2_)">
		<path fill="#DFBA98" d="M137.8,325.4l-11.5-1.3l-18.7-2.1l-7.3-0.8c-0.7,10.4-1,21.7-0.9,34c0,0-0.2,2.2-0.5,6
			c9.4,3.8,19,7.2,28.9,9.9l0.1-0.7c0,0,7-11.3,12.5-27.8l1-7.8l1.2-8.8L137.8,325.4z"/>
		<path fill="#DFBA98" d="M203.8,185.3c-14.4-0.1-22.9-10.3-25.3-13.6c0,0.1,0,0.2-0.1,0.3c-0.3,1.9-0.6,3.6-1,5.3
			c-1.8,8.1-4.2,14.1-7.6,16.8l0,0c0,0,0.9,2.6,2.9,6.3c3.4,6.1,9.9,14.9,20.7,18.5c3.1,1,6.5,1.7,10.4,1.7v-19.1L203.8,185.3
			C203.8,185.3,203.8,185.3,203.8,185.3z"/>
		<path fill="#DFBA98" d="M204,220.5v-19.1c0,0-0.1,0-0.2,0v19.1C203.9,220.5,203.9,220.5,204,220.5z"/>
		<path fill="#EECFAB" d="M264.2,338.2c0.1-0.2,0.2-0.5,0.3-0.7c-0.4-1.2-0.7-2.4-1.1-3.7L264.2,338.2z"/>
		<path fill="#EECFAB" d="M230.2,175.9c-0.3-1.3-0.5-2.6-0.7-4v-0.1c0-0.1,0-0.3-0.1-0.4c-2.3,3.7-10.1,13.8-25.5,13.8
			c0,0-0.1,0-0.1,0v16.1c0,0,0.1,0,0.2,0v19.1l0,0c2.9,0,5.7-0.4,8.1-1c9.8-2.5,16.3-9,20.4-14.9c1-1.5,1.9-2.9,2.7-4.3
			c2-3.6,2.9-6.3,2.9-6.3l0,0C234.5,191.2,232,184.6,230.2,175.9z"/>
		<path opacity="0.7" fill="#BD967F" d="M178.6,169.6c-0.1,0.6-0.2,1.3-0.3,1.9c0,0.1,0.1,0.1,0.2,0.2c0.1-0.7,0.2-1.4,0.3-2
			C178.7,169.6,178.6,169.6,178.6,169.6z"/>
		<path opacity="0.7" fill="#BD967F" d="M229.4,171.4C229.4,171.4,229.4,171.4,229.4,171.4l0-0.1c-0.1-0.9-0.3-1.8-0.4-2.7
			c0,0,0,0-0.1,0C229.1,169.6,229.3,170.5,229.4,171.4z"/>
		<path fill="#DFBA98" d="M203.8,185.3C203.8,185.3,203.8,185.3,203.8,185.3l0.1-12.4c0,0-0.1,0-0.1,0c-0.2,0-0.4,0-0.6,0
			c-0.1,0-0.2,0-0.3,0c-0.1,0-0.2,0-0.3,0c-0.1,0-0.2,0-0.2,0c-0.1,0-0.2,0-0.2,0c-7.5,0-15.4-1.1-23.3-3.3c-0.1,0.7-0.2,1.4-0.3,2
			C180.9,175,189.3,185.2,203.8,185.3z"/>
		<path fill="#EECFAB" d="M210.2,172.5c-0.2,0-0.3,0-0.5,0c-0.7,0.1-1.4,0.1-2.2,0.2c-0.3,0-0.6,0-1,0.1c-1,0.1-1.9,0.1-2.8,0.1
			v12.4c0,0,0,0,0.1,0c15.4,0,23.2-10.2,25.5-13.8c-0.1-0.9-0.3-1.8-0.4-2.8C222.7,170.6,216.4,171.9,210.2,172.5z"/>
		<path opacity="0.7" fill="#BD967F" d="M229,168.7c-6.3,1.9-12.6,3.2-18.8,3.8c-0.2,0-0.3,0-0.5,0c-0.7,0.1-1.4,0.1-2.2,0.2
			c-0.3,0-0.6,0-1,0.1c-1,0.1-1.9,0.1-2.8,0.1c0,0-0.1,0-0.1,0c-0.2,0-0.4,0-0.6,0c-0.1,0-0.2,0-0.3,0c-0.1,0-0.2,0-0.3,0
			c-0.1,0-0.2,0-0.2,0c-0.1,0-0.2,0-0.2,0c-7.5,0-15.4-1.1-23.3-3.3c-0.1,0.7-0.2,1.4-0.3,2c2.4,3.3,10.9,13.6,25.3,13.6
			c0,0,0,0,0.1,0c0,0,0,0,0.1,0c15.4,0,23.2-10.2,25.5-13.8C229.3,170.5,229.1,169.6,229,168.7z"/>
		<path fill="#D1A586" d="M178.9,168.6c-0.1,0-0.1,0-0.2-0.1c0,0.3-0.1,0.7-0.1,1c0.1,0,0.1,0,0.2,0
			C178.8,169.3,178.9,168.9,178.9,168.6z"/>
		<path fill="#D1A586" d="M178.9,168.6c0,0.3-0.1,0.7-0.1,1c7.9,2.2,15.8,3.3,23.3,3.3c0.1,0,0.2,0,0.2,0c-0.1,0-0.2,0-0.3,0
			C194.9,172.7,186.9,171.3,178.9,168.6z"/>
		<path fill="#DCB598" d="M229,168.3c0,0.1,0,0.2,0,0.3c0,0,0,0,0.1,0C229.1,168.5,229,168.4,229,168.3
			C229,168.3,229,168.3,229,168.3z"/>
		<path fill="#DCB598" d="M203.7,172.9c0,0,0.1,0,0.1,0v0C203.8,172.9,203.7,172.9,203.7,172.9z"/>
		<path fill="#DCB598" d="M202.3,172.9c0.1,0,0.2,0,0.2,0c0.1,0,0.2,0,0.3,0c-0.1,0-0.3,0-0.4,0
			C202.4,172.9,202.3,172.9,202.3,172.9z"/>
		<path fill="#DCB598" d="M203.9,172.9C203.9,172.9,203.8,172.9,203.9,172.9L203.9,172.9c0.9,0,1.8,0,2.8-0.1
			C205.7,172.8,204.8,172.8,203.9,172.9z"/>
		<path fill="#DCB598" d="M209.8,172.5c-0.7,0.1-1.4,0.1-2.2,0.2C208.3,172.7,209.1,172.6,209.8,172.5z"/>
		<path fill="#DCB598" d="M229,168.7c0-0.1,0-0.2,0-0.3c-6.2,2.1-12.5,3.5-18.7,4.1C216.4,171.9,222.7,170.6,229,168.7z"/>
		<path fill="#DCB598" d="M202,172.9c0.1,0,0.2,0,0.3,0c0,0,0.1,0,0.1,0C202.2,172.9,202.1,172.9,202,172.9z"/>
		<path fill="#DFBC99" d="M203.1,172.9c0.2,0,0.4,0,0.6,0c-0.3,0-0.6,0-0.9,0C202.9,172.9,203,172.9,203.1,172.9z"/>
		<path fill="#DFBC99" d="M180.3,155.9c0-0.2,0-0.4,0-0.5c0,0-0.1,0-0.1,0c-0.2,2.1-0.4,4.2-0.6,6.3c-0.2,2.4-0.5,4.7-0.9,7
			c0.1,0,0.1,0,0.2,0.1c0.3-2.1,0.6-4.2,0.8-6.5C179.9,160.1,180.1,158,180.3,155.9z"/>
		<path fill="#DFBC99" d="M203.8,158.3v14.5c0,0,0,0,0.1,0L203.8,158.3C203.9,158.3,203.8,158.3,203.8,158.3z"/>
		<path fill="#EFCFAB" d="M210.2,172.5c-0.2,0-0.3,0-0.5,0C209.9,172.5,210.1,172.5,210.2,172.5z"/>
		<path fill="#EFCFAB" d="M207.6,172.7c-0.3,0-0.6,0-1,0.1C207,172.7,207.3,172.7,207.6,172.7z"/>
		<path fill="#EFCFAB" d="M227.6,155C227.6,155,227.6,155,227.6,155c0,0.2,0,0.4,0,0.6c0.2,2.1,0.4,4.1,0.6,6.1
			c0.3,2.3,0.5,4.5,0.8,6.6c0,0,0,0,0.1,0c-0.3-2.3-0.6-4.6-0.9-7.1C228,159.2,227.8,157.1,227.6,155z"/>
		<path fill="#EECFAB" d="M306.9,354.4c0.1-13.6-0.4-26.1-1.2-37.4l-14.1,1.6l-18.7,2.1l-2.5,0.3l-7.7,0.9l-1.1,0.1l1.1,6.6l0.9,5.2
			c0.3,1.3,0.7,2.5,1.1,3.7c4.9,16.2,11.6,28.2,13.4,31.3c10-3.1,19.7-6.8,29.2-11.1C307,355.6,306.9,354.4,306.9,354.4z"/>
		<path fill="#FCDB0D" d="M238.2,194c0,0,0.1,0,0.2,0C238.4,194,238.3,194,238.2,194z"/>
		<path fill="#FCDB0D" d="M238.8,194c0.1,0,0.3,0,0.4,0C239,194,238.9,194,238.8,194z"/>
		<path fill="#FCDB0D" d="M241.3,194.1c0.3,0,0.6,0.1,0.9,0.1C241.9,194.2,241.6,194.1,241.3,194.1z"/>
		<path fill="#FCDB0D" d="M239.6,194c0.3,0,0.7,0,1.2,0.1C240.3,194,239.9,194,239.6,194z"/>
		<path fill="#FCDB0D" d="M263.5,333.7l-0.9-5.2c0.1,1.6,0.2,2.9,0.5,3.9C263.3,332.9,263.4,333.3,263.5,333.7z"/>
		<g>
			<path fill="#D43637" d="M245.2,194.6c0.1,0,0.2,0,0.3,0c0,0,0,0,0,0C245.4,194.6,245.3,194.6,245.2,194.6z"/>
			<path fill="#D43637" d="M291.6,231.1c-6-10-12.4-17.4-18.7-22.7c-8-6.9-15.7-10.5-21.8-12.3c-2.1-0.7-4-1.1-5.7-1.4
				c-0.1,0.3-0.3,0.8-0.5,1.4c-0.5,1.2-1.3,3-2.4,5.1c-1,1.8-2.1,3.8-3.6,5.8C234,214,226,222,214.2,225c-3,0.8-6.3,1.2-9.9,1.2
				c-0.1,0-0.3,0-0.4,0l-0.2,0c-4.5-0.1-8.5-0.8-12.2-2c-13.7-4.6-21.6-15.9-25.5-23.3c-1.1-2.1-1.9-3.8-2.4-5
				c-0.2-0.5-0.4-0.9-0.5-1.1c1.7-0.3,3.5-0.5,5.3-0.6c-6.7,0.5-13,2-18.7,4.6c-9.1,4-16.9,10.2-23.6,17.9
				c-7.5,8.6-13.7,18.9-18.7,29.6c-16.1,34.6-20.2,73.6-20.2,73.6l12.9,1.5l7.3,0.8l18.7,2.1l11.5,1.3l4.8,0.6l-1.2,8.8l-1,7.8
				l-4.1,30.7c3,0.7,6.1,1.4,9.1,2.1c17.3,3.6,35.3,5.5,53.7,5.5c1.6,0,3.3,0,4.9-0.1c19.9-0.4,39.3-2.9,57.9-7.5
				c2.6-0.6,5.2-1.3,7.8-2l-5.4-33.1l-0.7-4.4c-0.1-0.4-0.2-0.9-0.4-1.3c-0.3-1-0.4-2.3-0.5-3.9l-1.1-6.6l1.1-0.1l7.7-0.9l2.5-0.3
				l18.7-2.1l14.1-1.6l11-1.2C312,276,302.4,249.2,291.6,231.1z"/>
		</g>
		<path fill="#1B75B9" d="M238.4,194c0.1,0,0.2,0,0.3,0C238.6,194,238.5,194,238.4,194z"/>
		<path fill="#1B75B9" d="M239.2,194c0.1,0,0.3,0,0.4,0C239.4,194,239.3,194,239.2,194z"/>
		<path fill="#1B75B9" d="M242.2,194.2c0.2,0,0.4,0,0.5,0.1C242.6,194.2,242.4,194.2,242.2,194.2z"/>
		<path fill="#1B75B9" d="M240.8,194.1c0.2,0,0.3,0,0.5,0C241.1,194.1,240.9,194.1,240.8,194.1z"/>
		<path fill="#1B75B9" d="M238.2,194c-0.1,0-0.2,0-0.2,0l0,0C238.1,194,238.2,194,238.2,194z"/>
		<polygon fill="#1B75B9" points="238.1,194 238.1,194 238.1,194 		"/>
		<path fill="#1B75B9" d="M204,220.5c-0.1,0-0.1,0-0.2,0v5.7c0.1,0,0.1,0,0.2,0V220.5z"/>
		<g>
			<path fill="#393939" d="M242.7,194.2c-0.2,0-0.4,0-0.5-0.1c-0.3,0-0.6-0.1-0.9-0.1c-0.2,0-0.3,0-0.5,0c-0.5,0-0.9,0-1.2-0.1
				c-0.1,0-0.3,0-0.4,0c-0.2,0-0.3,0-0.4,0c-0.1,0-0.2,0-0.3,0c-0.1,0-0.1,0-0.2,0c-0.1,0-0.2,0-0.2,0l0,0c0,0-0.9,2.7-2.9,6.3
				c-0.7,1.3-1.6,2.8-2.7,4.3c-4.1,5.9-10.7,12.5-20.4,14.9c-2.5,0.6-5.2,1-8.1,1l0,0l0,5.7c0.1,0,0.3,0,0.4,0
				c3.6,0,6.8-0.4,9.9-1.2c11.8-3,19.8-10.9,24.7-18c1.4-2.1,2.6-4,3.6-5.8c1.1-2.1,1.9-3.8,2.4-5.1c0.2-0.6,0.4-1.1,0.5-1.4
				C244.5,194.5,243.6,194.3,242.7,194.2z"/>
			<path fill="#393939" d="M172.7,200.3c-2-3.6-2.9-6.3-2.9-6.3l0,0c-0.4,0-0.9,0-1.3,0.1c-1.8,0.1-3.6,0.3-5.3,0.6
				c0.1,0.3,0.3,0.7,0.5,1.1c0.5,1.2,1.3,2.9,2.4,5c3.9,7.3,11.9,18.7,25.5,23.3c3.6,1.2,7.7,2,12.2,2v-5.7c-3.8,0-7.3-0.6-10.4-1.7
				C182.6,215.2,176.1,206.3,172.7,200.3z"/>
		</g>
		<g>
			<path fill="#D1A586" d="M154.6,147.7c-1-5.4-1.7-20-3.1-25.4c-3.4-13.1-4.5-29.9,0.1-44.3c-3.6,2.2-6.2,8.4-7.2,11.7
				c-4.7,14.5,2.3,41.2,2.3,41.2h-3.2c0,0-0.7-3.3-2-7.7c-0.6,1-1.7,1.4-1.4,3.5c0.5,2.8,1.7,2.9,2.5,3.6c0.7,0.6,1.6,1.1,2.1,2.3
				c0.4,1.2,0.5,2.4,0.3,3.5c-0.5,2-3.4,0.4-5.3-0.5c-1.3-0.6-2.6-4-3.6-5.2c-2.6-2.9-3.8-8.5-1.8-11.7c2.4-3.8,6.6,5.4,8.5,6.3
				c-0.4-1.2-0.4-9.3-0.9-10.5c-7.6-6.2-12.2,0.7-11.5,9.5c1,12.1,15.8,18.4,15.6,16.9c4,21.9,22.8,36.4,41.6,41.6
				c0-0.2,0.1-0.4,0.1-0.6C172.8,176.8,157.7,165.2,154.6,147.7z"/>
			<path fill="#D1A586" d="M171.5,52.4c-1.1,0.5-2.5,1.6-4,3c1.9-1.3,3.9-2.5,6.1-3.5C173,51.9,172.3,52.1,171.5,52.4z"/>
			<path fill="#BD967F" d="M134.1,118.5c-2,3.2-0.8,8.8,1.8,11.7c1,1.2,2.3,4.6,3.6,5.2c1.9,0.9,4.8,2.5,5.3,0.5
				c0.3-1,0.2-2.3-0.3-3.5c-0.5-1.2-1.4-1.6-2.1-2.3c-0.7-0.6-2-0.8-2.5-3.6c-0.3-2,0.7-2.5,1.4-3.5c-0.6-2.2,1.8-5.2-2.3-7
				C137.2,115.1,136.5,114.7,134.1,118.5z"/>
			<path fill="#DCB598" d="M255.5,130.8c0,0,7-26.7,2.3-41.2c-0.2-0.5-0.8-1.4-1.6-2.5c1.9,12.1,0.7,24.8-2,35.2
				c-1.4,5.4-2.1,20-3.1,25.4c-3,16.7-16.9,28.7-32,33.9c0,0.1,0,0.1,0,0.2c18.1-5.6,35.8-19.9,39.6-41c-0.2,1.4,14.6-4.9,15.6-16.9
				c0.9-10.7-7.4-13.5-12.7-9.3c-3.2,8.1-4.6,16.3-4.6,16.3H255.5z M260.1,132.4c0.5-1.2,1.4-1.6,2.1-2.3c0.7-0.6,2-0.8,2.5-3.6
				c0.4-2.5-1.3-2.6-1.7-4.2c-0.8-2.9,0.2-4.4,1.4-5.6c1.2-1.1,3.1-3.2,6.1,1.7c2,3.2,0.8,8.8-1.8,11.7c-1,1.2-2.3,4.6-3.6,5.2
				c-1.9,0.9-4.8,2.5-5.3,0.5C259.6,134.8,259.6,133.5,260.1,132.4z"/>
			<path fill="#BD967F" d="M265.1,135.4c1.3-0.6,2.6-4,3.6-5.2c2.6-2.9,3.8-8.5,1.8-11.7c-3-4.8-4.9-2.8-6.1-1.7
				c-1.2,1.2-2.2,2.7-1.4,5.6c0.4,1.6,2.1,1.7,1.7,4.2c-0.5,2.8-1.7,2.9-2.5,3.6c-0.7,0.6-1.6,1.1-2.1,2.3c-0.4,1.2-0.5,2.4-0.3,3.5
				C260.3,137.8,263.2,136.3,265.1,135.4z"/>
			<path fill="#DFBC99" d="M203.3,154.1L203.3,154.1l0,21.2c0,0,0,0,0,0V154.1z"/>
			<path fill="#DFBC99" d="M187.5,181.7c-14.7-4.9-29.7-16.5-32.9-34.1c-1-5.4-1.7-20-3.1-25.4c-3.4-13.1-4.5-29.9,0.1-44.3
				c0.8-0.5,1.6-0.8,2.4-0.8c0,0,3.2-2.8,4.6-8.3c1-3.9,5.2-9.8,8.9-13.4c1.9-1.3,3.9-2.5,6.1-3.5c2.7-0.3,6.2-2.5,6.2-2.5
				s2.2-2,13.4-4.1c1.3-0.1,3.5-0.6,4.9-0.7c1,0.1,1.7-0.4,2.6-0.1c0.2,0.1,0.9-0.1,1.1,0c0.2,0.1,1.2-0.4,1.4-0.3v109.9h0v21.2v9.1
				c0,0-0.1,0-0.1,0c-0.2,0-0.4,0-0.5,0c-0.1,0-0.2,0-0.3,0c-0.1,0-0.2,0-0.3,0c0,0-0.1,0-0.1,0v0
				C197.1,184.8,187.5,181.7,187.5,181.7z"/>
			<path fill="#131213" d="M141.3,123.1c0.1-0.2,0.3-0.4,0.3-0.7"/>
			<path fill="#131213" d="M141.7,122.4c-0.1,0.3-0.2,0.5-0.3,0.7c1.3,4.4,2,7.7,2,7.7h3.2c0,0-7-26.7-2.3-41.2
				c1.1-3.3,3.6-9.4,7.2-11.7c1.7-5.2,4-10,7.3-14.3c2.5-3.2,5.4-5.9,8.7-8.2c1.5-1.4,2.9-2.5,4-3c0.8-0.3,1.5-0.5,2.1-0.6
				c6.1-2.9,12.4-4.9,20.7-5.5c0.1,0,0.9-0.1,1-0.1c1.2-0.2,1.9-0.9,3-0.8c0.9,0,2.6-0.9,3.6-0.9c0.2,0,0.8-0.2,1-0.2
				c0.1,0,0.1,0,0.2,0c0.2,0,0.1,1.8,0.2,1.8c5.4,0,10.3,0.5,14.9,1.4c0,0,0,0,0,0l0,0c12.4,2.3,22,7.7,28.5,16.1
				c5.2,6.7,8.1,14.9,9.5,23.4c0.9,1.2,1.5,2,1.6,2.5c4.7,14.5-2.3,41.2-2.3,41.2h3.2c0,0-0.6,0.2,1.6-7.6c0.8-2.8,0.8-4.5,1.1-6.4
				c2.7-33.7,2.4-85.1-59-85.1c0,0-0.1,0-0.2,0c-0.1,0-0.1,0-0.2,0c-61.4,0-63.5,46.2-60.8,79.8"/>
			<path fill="#131213" d="M178.8,50.6c0,0,5.2-2.1,16.4-4.1c-8.3,0.7-15.5,2.5-21.6,5.4C176.3,51.6,178.8,50.6,178.8,50.6z"/>
			<path fill="#131213" d="M158.6,68.8c1-3.9,5.2-9.8,8.9-13.4c-3.3,2.3-6.2,5-8.7,8.2c-3.3,4.3-5.7,9.1-7.3,14.3
				c0.8-0.5,1.6-0.8,2.4-0.8C154,77.1,157.2,74.3,158.6,68.8z"/>
			<path fill="#EFCFAB" d="M256.2,87"/>
			<path fill="#EFCFAB" d="M219.1,181.6c-3.9,1.3-7.9,2.2-11.8,2.6c-0.1,0-0.2,0-0.3,0c-0.5,0-0.9,0.1-1.4,0.1c-0.2,0-0.4,0-0.6,0
				c-0.6,0-1.2,0-1.7,0.1v-9.1v-21.2V52.5l-0.3-8.2c0,0,49.3-2.6,53.2,42.8c1.9,12.1,0.7,24.8-2,35.2c-1.4,5.4-2.1,20-3.1,25.4
				C248,164.4,234.2,176.4,219.1,181.6L219.1,181.6z"/>
		</g>
	</g>
</g>
</svg>
