<?xml version="1.0" encoding="utf-8"?>
<!-- Generator: Adobe Illustrator 18.0.0, SVG Export Plug-In . SVG Version: 6.00 Build 0)  -->
<!DOCTYPE svg PUBLIC "-//W3C//DTD SVG 1.1//EN" "http://www.w3.org/Graphics/SVG/1.1/DTD/svg11.dtd">
<svg version="1.1" id="Layer_1" xmlns="http://www.w3.org/2000/svg" xmlns:xlink="http://www.w3.org/1999/xlink" x="0px" y="0px"
	 viewBox="0 0 400 400" enable-background="new 0 0 400 400" xml:space="preserve">
<circle fill="#FFFFFF" cx="200" cy="200" r="190.3"/>
<circle fill="#D1D4D5" cx="200" cy="200" r="181.2"/>
<g>
	<defs>
		<circle id="SVGID_1_" cx="200" cy="200" r="181.2"/>
	</defs>
	<clipPath id="SVGID_2_">
		<use xlink:href="#SVGID_1_"  overflow="visible"/>
	</clipPath>
	<g clip-path="url(#SVGID_2_)">
		<path fill="#DFBA98" d="M138,328.2l-11.1-1.3l-18-2l-7-0.8c-0.6,10.1-1,21-0.9,32.8c0,0-0.2,2.1-0.5,5.8c9,3.7,18.3,6.9,27.9,9.6
			l0-0.7c0,0,6.7-10.9,12.1-26.8l1-7.5l1.1-8.5L138,328.2z"/>
		<path fill="#DFBA98" d="M201.7,193c-13.9-0.1-22.1-10-24.4-13.2c0,0.1,0,0.2,0,0.3c-0.3,1.8-0.6,3.5-0.9,5.1
			c-1.7,7.8-4,13.6-7.3,16.2l0,0c0,0,0.8,2.5,2.8,6c3.2,5.9,9.5,14.4,20,17.9c3,1,6.3,1.6,10,1.6v-18.4L201.7,193
			C201.7,193,201.7,193,201.7,193z"/>
		<path fill="#DFBA98" d="M201.9,226.9v-18.4c0,0-0.1,0-0.1,0v18.4C201.8,226.9,201.8,226.9,201.9,226.9z"/>
		<path fill="#EECFAB" d="M260,340.5c0.1-0.2,0.2-0.5,0.3-0.7c-0.4-1.2-0.7-2.4-1-3.6L260,340.5z"/>
		<path fill="#EECFAB" d="M227.2,183.9c-0.3-1.2-0.5-2.5-0.7-3.9V180c0-0.1,0-0.3-0.1-0.4c-2.2,3.6-9.8,13.4-24.6,13.4
			c0,0,0,0-0.1,0v15.6c0,0,0.1,0,0.1,0v18.4l0,0c2.8,0,5.5-0.3,7.9-0.9c9.4-2.4,15.8-8.7,19.7-14.4c1-1.4,1.9-2.8,2.6-4.1
			c1.9-3.5,2.8-6.1,2.8-6.1l0,0C231.3,198.7,228.9,192.3,227.2,183.9z"/>
		<path opacity="0.7" fill="#BD967F" d="M177.4,177.8c-0.1,0.6-0.2,1.2-0.3,1.8c0,0.1,0.1,0.1,0.1,0.2c0.1-0.6,0.2-1.3,0.3-2
			C177.5,177.8,177.4,177.8,177.4,177.8z"/>
		<path opacity="0.7" fill="#BD967F" d="M226.4,179.6C226.4,179.6,226.5,179.5,226.4,179.6l0-0.1c-0.1-0.8-0.2-1.7-0.4-2.6
			c0,0,0,0-0.1,0C226.2,177.8,226.3,178.7,226.4,179.6z"/>
		<path fill="#DFBA98" d="M201.7,193C201.7,193,201.7,193,201.7,193l0.1-12c0,0-0.1,0-0.1,0c-0.2,0-0.4,0-0.5,0c-0.1,0-0.2,0-0.3,0
			c-0.1,0-0.2,0-0.3,0c-0.1,0-0.2,0-0.2,0c-0.1,0-0.2,0-0.2,0c-7.2,0-14.8-1.1-22.5-3.2c-0.1,0.7-0.2,1.3-0.3,2
			C179.6,183,187.8,192.9,201.7,193z"/>
		<path fill="#EECFAB" d="M207.9,180.6c-0.1,0-0.3,0-0.4,0c-0.7,0.1-1.4,0.1-2.1,0.2c-0.3,0-0.6,0-0.9,0.1c-0.9,0-1.8,0.1-2.7,0.1
			v12c0,0,0,0,0.1,0c14.8,0,22.4-9.8,24.6-13.4c-0.1-0.9-0.3-1.8-0.4-2.7C220,178.8,213.9,180,207.9,180.6z"/>
		<path opacity="0.7" fill="#BD967F" d="M226,176.9c-6.1,1.9-12.2,3.1-18.1,3.7c-0.1,0-0.3,0-0.4,0c-0.7,0.1-1.4,0.1-2.1,0.2
			c-0.3,0-0.6,0-0.9,0.1c-0.9,0-1.8,0.1-2.7,0.1c0,0-0.1,0-0.1,0c-0.2,0-0.4,0-0.5,0c-0.1,0-0.2,0-0.3,0c-0.1,0-0.2,0-0.3,0
			c-0.1,0-0.2,0-0.2,0c-0.1,0-0.2,0-0.2,0c-7.2,0-14.8-1.1-22.5-3.2c-0.1,0.7-0.2,1.3-0.3,2c2.3,3.2,10.5,13.1,24.4,13.2
			c0,0,0,0,0.1,0c0,0,0,0,0.1,0c14.8,0,22.4-9.8,24.6-13.4C226.3,178.7,226.2,177.8,226,176.9z"/>
		<path fill="#D1A586" d="M177.7,176.9c-0.1,0-0.1,0-0.2-0.1c0,0.3-0.1,0.6-0.1,1c0.1,0,0.1,0,0.2,0
			C177.6,177.5,177.6,177.2,177.7,176.9z"/>
		<path fill="#D1A586" d="M177.7,176.9c0,0.3-0.1,0.6-0.1,0.9c7.6,2.1,15.3,3.2,22.5,3.2c0.1,0,0.2,0,0.2,0c-0.1,0-0.2,0-0.3,0
			C193.1,180.8,185.4,179.5,177.7,176.9z"/>
		<path fill="#DCB598" d="M226,176.6c0,0.1,0,0.2,0,0.3c0,0,0,0,0.1,0C226.1,176.8,226.1,176.7,226,176.6
			C226,176.6,226,176.6,226,176.6z"/>
		<path fill="#DCB598" d="M201.6,181c0,0,0.1,0,0.1,0v0C201.7,181,201.6,181,201.6,181z"/>
		<path fill="#DCB598" d="M200.2,181c0.1,0,0.2,0,0.2,0c0.1,0,0.2,0,0.3,0c-0.1,0-0.3,0-0.4,0C200.3,181,200.3,181,200.2,181z"/>
		<path fill="#DCB598" d="M201.8,181C201.8,181,201.7,181,201.8,181L201.8,181c0.8,0,1.8,0,2.7-0.1C203.6,180.9,202.7,181,201.8,181
			z"/>
		<path fill="#DCB598" d="M207.5,180.7c-0.7,0.1-1.4,0.1-2.1,0.2C206.1,180.8,206.8,180.7,207.5,180.7z"/>
		<path fill="#DCB598" d="M226,176.9c0-0.1,0-0.2,0-0.3c-6,2.1-12.1,3.4-18.1,4C213.9,180,220,178.8,226,176.9z"/>
		<path fill="#DCB598" d="M199.9,181c0.1,0,0.2,0,0.3,0c0,0,0.1,0,0.1,0C200.2,181,200.1,181,199.9,181z"/>
		<path fill="#DFBC99" d="M201.1,181c0.2,0,0.4,0,0.5,0c-0.3,0-0.6,0-0.8,0C200.9,181,201,181,201.1,181z"/>
		<path fill="#DFBC99" d="M179,164.6c0-0.2,0-0.4,0-0.5c0,0-0.1,0-0.1,0c-0.2,2.1-0.4,4.1-0.6,6.1c-0.2,2.3-0.5,4.6-0.8,6.7
			c0.1,0,0.1,0,0.2,0.1c0.3-2,0.6-4.1,0.8-6.2C178.6,168.6,178.8,166.6,179,164.6z"/>
		<path fill="#DFBC99" d="M201.7,167v14c0,0,0,0,0.1,0L201.7,167C201.8,167,201.7,167,201.7,167z"/>
		<path fill="#EFCFAB" d="M207.9,180.6c-0.1,0-0.3,0-0.4,0C207.6,180.6,207.8,180.6,207.9,180.6z"/>
		<path fill="#EFCFAB" d="M205.4,180.8c-0.3,0-0.6,0-0.9,0.1C204.8,180.9,205.1,180.8,205.4,180.8z"/>
		<path fill="#EFCFAB" d="M224.7,163.8C224.6,163.8,224.6,163.8,224.7,163.8c0,0.2,0,0.4,0,0.6c0.2,2,0.4,4,0.6,5.9
			c0.2,2.2,0.5,4.3,0.8,6.4c0,0,0,0,0.1,0c-0.3-2.2-0.6-4.5-0.8-6.9C225,167.8,224.8,165.8,224.7,163.8z"/>
		<path fill="#EECFAB" d="M301.2,356.2c0.1-13.2-0.3-25.1-1.1-36.1l-13.6,1.5l-18,2l-2.4,0.3l-7.5,0.8l-1,0.1l1,6.3l0.8,5
			c0.3,1.2,0.7,2.4,1,3.6c4.7,15.6,11.2,27.2,12.9,30.3c9.6-3,19-6.6,28.2-10.7C301.3,357.4,301.2,356.2,301.2,356.2z"/>
		<path fill="#FCDB0D" d="M235,201.4c0,0,0.1,0,0.2,0C235.1,201.4,235,201.4,235,201.4z"/>
		<path fill="#FCDB0D" d="M235.4,201.4c0.1,0,0.2,0,0.4,0C235.7,201.4,235.6,201.4,235.4,201.4z"/>
		<path fill="#FCDB0D" d="M237.9,201.5c0.3,0,0.6,0.1,0.9,0.1C238.4,201.5,238.1,201.5,237.9,201.5z"/>
		<path fill="#FCDB0D" d="M236.2,201.4c0.3,0,0.7,0,1.2,0.1C236.9,201.4,236.6,201.4,236.2,201.4z"/>
		<path fill="#FCDB0D" d="M259.3,336.2l-0.8-5c0.1,1.6,0.2,2.8,0.5,3.8C259.1,335.4,259.2,335.8,259.3,336.2z"/>
		<g>
			<path fill="#FF0000" d="M241.7,202c0.1,0,0.2,0,0.2,0c0,0,0,0,0,0C241.8,202,241.8,202,241.7,202z"/>
			<path fill="#FF0000" d="M286.5,237.2c-5.8-9.7-12-16.8-18-21.9c-7.7-6.6-15.1-10.1-21-11.9c-2.1-0.6-3.9-1.1-5.5-1.3
				c-0.1,0.3-0.3,0.8-0.5,1.3c-0.5,1.2-1.2,2.9-2.3,4.9c-0.9,1.7-2.1,3.6-3.5,5.6c-4.8,6.9-12.4,14.6-23.9,17.4
				c-2.9,0.7-6.1,1.2-9.5,1.2c-0.1,0-0.3,0-0.4,0l-0.1,0c-4.3-0.1-8.2-0.8-11.7-1.9c-13.2-4.4-20.9-15.4-24.7-22.5
				c-1.1-2-1.8-3.7-2.3-4.8c-0.2-0.4-0.3-0.8-0.4-1.1c1.7-0.3,3.4-0.5,5.1-0.6c-6.5,0.4-12.5,2-18,4.4c-8.8,3.8-16.3,9.9-22.8,17.2
				c-7.3,8.3-13.2,18.2-18,28.5c-15.5,33.4-19.5,71-19.5,71l12.5,1.4l7,0.8l18,2l11.1,1.3l4.7,0.5l-1.1,8.5l-1,7.5l-4,29.6
				c2.9,0.7,5.9,1.4,8.8,2c16.7,3.5,34,5.3,51.8,5.3c1.6,0,3.2,0,4.7-0.1c19.2-0.3,37.9-2.8,55.9-7.2c2.5-0.6,5-1.3,7.5-2l-5.2-31.9
				l-0.7-4.3c-0.1-0.4-0.2-0.8-0.4-1.3c-0.2-0.9-0.4-2.2-0.5-3.8l-1-6.3l1-0.1l7.5-0.8l2.4-0.3l18-2l13.6-1.5l10.6-1.2
				C306.1,280.5,296.9,254.6,286.5,237.2z"/>
		</g>
		<path fill="#1B75B9" d="M235.1,201.4c0.1,0,0.2,0,0.3,0C235.3,201.4,235.2,201.4,235.1,201.4z"/>
		<path fill="#1B75B9" d="M235.9,201.4c0.1,0,0.3,0,0.4,0C236.1,201.4,236,201.4,235.9,201.4z"/>
		<path fill="#1B75B9" d="M238.8,201.5c0.2,0,0.3,0,0.5,0.1C239.1,201.6,238.9,201.6,238.8,201.5z"/>
		<path fill="#1B75B9" d="M237.4,201.4c0.2,0,0.3,0,0.5,0C237.7,201.5,237.5,201.4,237.4,201.4z"/>
		<path fill="#1B75B9" d="M235,201.4c-0.1,0-0.1,0-0.2,0l0,0C234.8,201.4,234.9,201.4,235,201.4z"/>
		<polygon fill="#1B75B9" points="234.8,201.4 234.8,201.4 234.8,201.4 		"/>
		<path fill="#1B75B9" d="M201.9,226.9c0,0-0.1,0-0.1,0v5.5c0,0,0.1,0,0.1,0V226.9z"/>
		<g>
			<path fill="#050707" d="M239.3,201.6c-0.2,0-0.4,0-0.5-0.1c-0.3,0-0.6-0.1-0.9-0.1c-0.2,0-0.3,0-0.5,0c-0.4,0-0.8,0-1.2-0.1
				c-0.1,0-0.3,0-0.4,0c-0.2,0-0.3,0-0.4,0c-0.1,0-0.2,0-0.3,0c-0.1,0-0.1,0-0.2,0c-0.1,0-0.1,0-0.1,0l0,0c0,0-0.9,2.6-2.8,6.1
				c-0.7,1.3-1.6,2.7-2.6,4.1c-3.9,5.7-10.3,12-19.7,14.4c-2.4,0.6-5,0.9-7.9,0.9l0,0l0,5.5c0.1,0,0.3,0,0.4,0
				c3.4,0,6.6-0.4,9.5-1.2c11.4-2.9,19.1-10.6,23.9-17.4c1.4-2,2.5-3.9,3.5-5.6c1.1-2,1.8-3.7,2.3-4.9c0.2-0.6,0.4-1,0.5-1.3
				C241,201.8,240.1,201.7,239.3,201.6z"/>
			<path fill="#050707" d="M171.7,207.4c-1.9-3.5-2.8-6-2.8-6l0,0c-0.4,0-0.8,0-1.2,0.1c-1.7,0.1-3.4,0.3-5.1,0.6
				c0.1,0.3,0.3,0.7,0.4,1.1c0.5,1.1,1.2,2.8,2.3,4.8c3.8,7.1,11.5,18,24.7,22.5c3.5,1.2,7.4,1.9,11.7,1.9v-5.5c-3.7,0-7-0.6-10-1.6
				C181.2,221.8,175,213.3,171.7,207.4z"/>
		</g>
		<g>
			<path fill="#D1A586" d="M154.2,156.6c-0.9-5.2-1.6-19.3-3-24.5c-3.3-12.6-4.4-28.9,0.1-42.8c-3.5,2.1-6,8.1-7,11.3
				c-4.5,14,2.2,39.8,2.2,39.8h-3.1c0,0-0.7-3.2-1.9-7.4c-0.6,1-1.7,1.4-1.3,3.3c0.4,2.7,1.7,2.8,2.4,3.4c0.7,0.6,1.6,1.1,2,2.2
				c0.4,1.1,0.5,2.3,0.3,3.3c-0.4,1.9-3.2,0.4-5.1-0.4c-1.2-0.6-2.5-3.9-3.5-5c-2.5-2.8-3.6-8.2-1.7-11.3c2.3-3.7,6.4,5.2,8.2,6.1
				c-0.4-1.2-0.4-9-0.9-10.2c-7.3-6-11.7,0.7-11.1,9.2c0.9,11.7,15.3,17.7,15,16.4c3.8,21.1,22,35.2,40.2,40.1
				c0-0.2,0.1-0.4,0.1-0.6C171.8,184.8,157.3,173.6,154.2,156.6z"/>
			<path fill="#D1A586" d="M170.6,64.7c-1.1,0.5-2.4,1.5-3.8,2.9c1.8-1.3,3.8-2.4,5.9-3.4C172,64.3,171.3,64.4,170.6,64.7z"/>
			<path fill="#BD967F" d="M134.5,128.5c-1.9,3.1-0.8,8.5,1.7,11.3c1,1.1,2.2,4.4,3.5,5c1.9,0.8,4.7,2.4,5.1,0.4
				c0.2-1,0.2-2.2-0.3-3.3c-0.4-1.1-1.3-1.6-2-2.2c-0.7-0.6-1.9-0.8-2.4-3.4c-0.3-2,0.7-2.4,1.3-3.3c-0.6-2.1,1.7-5.1-2.2-6.8
				C137.4,125.3,136.8,124.8,134.5,128.5z"/>
			<path fill="#DCB598" d="M251.6,140.4c0,0,6.7-25.7,2.2-39.8c-0.2-0.5-0.7-1.3-1.6-2.5c1.9,11.6,0.7,24-1.9,34
				c-1.4,5.2-2.1,19.3-3,24.5c-2.9,16.1-16.3,27.7-30.9,32.7c0,0.1,0,0.1,0,0.2c17.5-5.4,34.6-19.2,38.3-39.6
				c-0.2,1.4,14.1-4.7,15-16.4c0.8-10.3-7.2-13-12.3-9c-3,7.8-4.5,15.8-4.5,15.8H251.6z M256,141.9c0.4-1.1,1.3-1.6,2-2.2
				c0.7-0.6,1.9-0.8,2.4-3.4c0.4-2.4-1.2-2.5-1.7-4c-0.7-2.8,0.2-4.3,1.4-5.4c1.1-1,3-3,5.9,1.6c1.9,3.1,0.8,8.5-1.7,11.3
				c-1,1.1-2.2,4.4-3.5,5c-1.9,0.8-4.7,2.4-5.1,0.4C255.5,144.2,255.6,143,256,141.9z"/>
			<path fill="#BD967F" d="M260.9,144.8c1.2-0.6,2.5-3.9,3.5-5c2.5-2.8,3.6-8.2,1.7-11.3c-2.9-4.7-4.8-2.7-5.9-1.6
				c-1.2,1.1-2.1,2.6-1.4,5.4c0.4,1.6,2.1,1.7,1.7,4c-0.4,2.7-1.7,2.8-2.4,3.4c-0.7,0.6-1.6,1.1-2,2.2c-0.4,1.1-0.5,2.3-0.3,3.3
				C256.2,147.2,259,145.6,260.9,144.8z"/>
			<path fill="#DFBC99" d="M201.2,162.9L201.2,162.9l0,20.4c0,0,0,0,0,0V162.9z"/>
			<path fill="#DFBC99" d="M186,189.5c-14.2-4.8-28.7-15.9-31.8-32.9c-0.9-5.2-1.6-19.3-3-24.5c-3.3-12.6-4.4-28.9,0.1-42.8
				c0.7-0.5,1.5-0.7,2.3-0.8c0,0,3.1-2.7,4.5-8c1-3.8,5-9.5,8.6-13c1.8-1.3,3.8-2.4,5.9-3.4c2.6-0.3,6-2.4,6-2.4s2.1-1.9,12.9-3.9
				c1.2-0.1,3.4-0.6,4.7-0.7c1,0.1,1.7-0.3,2.5-0.1c0.2,0.1,0.9-0.1,1.1,0c0.2,0.1,1.2-0.4,1.4-0.3v106h0v20.4v8.8c0,0-0.1,0-0.1,0
				c-0.2,0-0.3,0-0.5,0c-0.1,0-0.2,0-0.3,0c-0.1,0-0.2,0-0.3,0c0,0-0.1,0-0.1,0v0C195.2,192.5,186,189.5,186,189.5z"/>
			<path fill="#131213" d="M141.4,132.9c0.1-0.2,0.2-0.4,0.3-0.7"/>
			<path fill="#131213" d="M141.7,132.2c-0.1,0.3-0.2,0.5-0.3,0.7c1.2,4.3,1.9,7.4,1.9,7.4h3.1c0,0-6.7-25.7-2.2-39.8
				c1-3.2,3.5-9.1,7-11.3c1.6-5,3.9-9.7,7.1-13.8c2.4-3.1,5.2-5.7,8.4-7.9c1.4-1.4,2.8-2.4,3.8-2.9c0.7-0.3,1.4-0.5,2-0.5
				c5.9-2.8,12-4.7,20-5.3c0.1,0,0.8-0.1,1-0.1c1.2-0.2,1.8-0.8,2.9-0.8c0.9,0,2.5-0.8,3.4-0.8c0.2,0,0.7-0.2,0.9-0.2
				c0.1,0,0.1,0,0.2,0c0.2,0,0.1,1.8,0.2,1.8c5.2,0,10,0.5,14.4,1.3c0,0,0,0,0,0l0,0c12,2.3,21.2,7.4,27.5,15.6
				c5,6.5,7.8,14.4,9.2,22.6c0.8,1.1,1.4,2,1.6,2.5c4.5,14-2.2,39.8-2.2,39.8h3.1c0,0-0.6,0.2,1.5-7.4c0.8-2.7,0.8-4.3,1.1-6.2
				c2.6-32.5,2.3-82.1-57-82.1c0,0-0.1,0-0.1,0c0,0-0.1,0-0.1,0c-59.3,0-61.3,44.6-58.7,77.1"/>
			<path fill="#131213" d="M177.6,63c0,0,5-2,15.8-4c-8,0.6-14.9,2.4-20.8,5.2C175.2,63.9,177.6,63,177.6,63z"/>
			<path fill="#131213" d="M158.1,80.6c1-3.8,5-9.5,8.6-13c-3.2,2.2-6,4.9-8.4,7.9c-3.2,4.1-5.5,8.8-7.1,13.8
				c0.7-0.5,1.5-0.7,2.3-0.8C153.6,88.5,156.7,85.9,158.1,80.6z"/>
			<path fill="#EFCFAB" d="M252.3,98.1"/>
			<path fill="#EFCFAB" d="M216.4,189.4c-3.8,1.3-7.6,2.1-11.4,2.5c-0.1,0-0.2,0-0.3,0c-0.4,0-0.9,0.1-1.3,0.1c-0.2,0-0.4,0-0.6,0
				c-0.6,0-1.1,0-1.7,0.1v-8.8v-20.4V64.8l-0.3-7.9c0,0,47.6-2.5,51.4,41.3c1.9,11.6,0.7,24-1.9,34c-1.4,5.2-2.1,19.3-3,24.5
				C244.4,172.8,231,184.4,216.4,189.4L216.4,189.4z"/>
		</g>
	</g>
</g>
</svg>
