<?xml version="1.0" encoding="utf-8"?>
<!-- Generator: Adobe Illustrator 18.0.0, SVG Export Plug-In . SVG Version: 6.00 Build 0)  -->
<!DOCTYPE svg PUBLIC "-//W3C//DTD SVG 1.1//EN" "http://www.w3.org/Graphics/SVG/1.1/DTD/svg11.dtd">
<svg version="1.1" id="Layer_1" xmlns="http://www.w3.org/2000/svg" xmlns:xlink="http://www.w3.org/1999/xlink" x="0px" y="0px"
	 viewBox="0 0 400 400" enable-background="new 0 0 400 400" xml:space="preserve">
<circle fill="#FFFFFF" cx="200" cy="200" r="190.3"/>
<circle fill="#D1D4D5" cx="200" cy="200" r="181.2"/>
<g>
	<defs>
		<circle id="SVGID_1_" cx="200" cy="200" r="181.2"/>
	</defs>
	<clipPath id="SVGID_2_">
		<use xlink:href="#SVGID_1_"  overflow="visible"/>
	</clipPath>
	<g clip-path="url(#SVGID_2_)">
		<path fill="#DFBA98" d="M138.2,328.1l-11.1-1.3l-18.1-2.1l-7-0.8c-0.6,10.1-1,21.1-0.9,33c0,0-0.2,2.1-0.5,5.8
			c9.1,3.7,18.5,7,28,9.6l0-0.7c0,0,6.8-11,12.1-27l1-7.5l1.2-8.6L138.2,328.1z"/>
		<path fill="#DFBA98" d="M202.3,192c-14-0.1-22.2-10-24.6-13.3c0,0.1,0,0.2,0,0.3c-0.3,1.8-0.6,3.5-0.9,5.2
			c-1.7,7.9-4.1,13.7-7.4,16.3l0,0c0,0,0.9,2.6,2.8,6.1c3.3,5.9,9.6,14.5,20.1,18c3,1,6.4,1.6,10.1,1.6v-18.5L202.3,192
			C202.3,192,202.3,192,202.3,192z"/>
		<path fill="#DFBA98" d="M202.5,226.2v-18.6c0,0-0.1,0-0.1,0v18.5C202.4,226.2,202.5,226.2,202.5,226.2z"/>
		<path fill="#EECFAB" d="M261.1,340.5c0.1-0.2,0.2-0.5,0.3-0.7c-0.4-1.2-0.7-2.4-1-3.6L261.1,340.5z"/>
		<path fill="#EECFAB" d="M228,182.9c-0.3-1.3-0.5-2.5-0.7-3.9V179c0-0.1,0-0.3-0.1-0.4c-2.3,3.6-9.8,13.4-24.8,13.4
			c0,0-0.1,0-0.1,0v15.7c0,0,0.1,0,0.1,0v18.6c0,0,0,0,0,0c2.9,0,5.5-0.4,7.9-1c9.5-2.4,15.9-8.8,19.8-14.5c1-1.5,1.9-2.9,2.6-4.1
			c2-3.5,2.8-6.1,2.8-6.1l0,0C232.2,197.8,229.7,191.4,228,182.9z"/>
		<path opacity="0.7" fill="#BD967F" d="M177.9,176.8c-0.1,0.6-0.2,1.2-0.3,1.8c0,0.1,0.1,0.1,0.1,0.2c0.1-0.6,0.2-1.3,0.3-2
			C178,176.8,177.9,176.8,177.9,176.8z"/>
		<path opacity="0.7" fill="#BD967F" d="M227.2,178.6C227.2,178.6,227.3,178.5,227.2,178.6l0-0.1c-0.1-0.8-0.2-1.7-0.4-2.6
			c0,0,0,0-0.1,0C227,176.8,227.1,177.7,227.2,178.6z"/>
		<path fill="#DFBA98" d="M202.3,192C202.3,192,202.3,192,202.3,192l0.1-12.1c0,0-0.1,0-0.1,0c-0.2,0-0.4,0-0.5,0
			c-0.1,0-0.2,0-0.3,0c-0.1,0-0.2,0-0.3,0c-0.1,0-0.2,0-0.2,0c-0.1,0-0.2,0-0.2,0c-7.2,0-14.9-1.1-22.6-3.2c-0.1,0.7-0.2,1.3-0.3,2
			C180.1,182,188.3,192,202.3,192z"/>
		<path fill="#EECFAB" d="M208.6,179.6c-0.1,0-0.3,0-0.4,0c-0.7,0.1-1.4,0.1-2.1,0.2c-0.3,0-0.6,0-0.9,0.1c-0.9,0-1.8,0.1-2.8,0.1
			V192c0,0,0,0,0.1,0c14.9,0,22.5-9.9,24.8-13.4c-0.1-0.9-0.3-1.8-0.4-2.7C220.7,177.8,214.6,179,208.6,179.6z"/>
		<path opacity="0.7" fill="#BD967F" d="M226.8,175.9c-6.1,1.9-12.3,3.1-18.2,3.7c-0.1,0-0.3,0-0.4,0c-0.7,0.1-1.4,0.1-2.1,0.2
			c-0.3,0-0.6,0-0.9,0.1c-0.9,0-1.8,0.1-2.8,0.1c0,0-0.1,0-0.1,0c-0.2,0-0.4,0-0.5,0c-0.1,0-0.2,0-0.3,0c-0.1,0-0.2,0-0.3,0
			c-0.1,0-0.2,0-0.2,0c-0.1,0-0.2,0-0.2,0c-7.2,0-14.9-1.1-22.6-3.2c-0.1,0.7-0.2,1.3-0.3,2c2.3,3.2,10.6,13.2,24.6,13.3
			c0,0,0,0,0.1,0c0,0,0,0,0.1,0c14.9,0,22.5-9.9,24.8-13.4C227.1,177.7,227,176.8,226.8,175.9z"/>
		<path fill="#D1A586" d="M178.2,175.9c-0.1,0-0.1,0-0.2-0.1c0,0.3-0.1,0.6-0.1,1c0.1,0,0.1,0,0.2,0
			C178.1,176.5,178.1,176.2,178.2,175.9z"/>
		<path fill="#D1A586" d="M178.2,175.9c0,0.3-0.1,0.6-0.1,1c7.7,2.1,15.4,3.2,22.6,3.2c0.1,0,0.2,0,0.2,0c-0.1,0-0.2,0-0.3,0
			C193.7,179.8,186,178.5,178.2,175.9z"/>
		<path fill="#DCB598" d="M226.8,175.6c0,0.1,0,0.2,0,0.3c0,0,0,0,0.1,0C226.9,175.8,226.9,175.7,226.8,175.6
			C226.8,175.6,226.8,175.6,226.8,175.6z"/>
		<path fill="#DCB598" d="M202.2,180c0,0,0.1,0,0.1,0v0C202.3,180,202.3,180,202.2,180z"/>
		<path fill="#DCB598" d="M200.9,180c0.1,0,0.2,0,0.2,0c0.1,0,0.2,0,0.3,0c-0.1,0-0.3,0-0.4,0C200.9,180,200.9,180,200.9,180z"/>
		<path fill="#DCB598" d="M202.4,180C202.4,180,202.4,180,202.4,180L202.4,180c0.8,0,1.8,0,2.7-0.1C204.2,179.9,203.3,180,202.4,180
			z"/>
		<path fill="#DCB598" d="M208.2,179.7c-0.7,0.1-1.4,0.1-2.1,0.2C206.8,179.8,207.5,179.7,208.2,179.7z"/>
		<path fill="#DCB598" d="M226.8,175.9c0-0.1,0-0.2,0-0.3c-6,2.1-12.2,3.4-18.2,4C214.6,179,220.7,177.8,226.8,175.9z"/>
		<path fill="#DCB598" d="M200.6,180c0.1,0,0.2,0,0.3,0c0,0,0.1,0,0.1,0C200.8,180,200.7,180,200.6,180z"/>
		<path fill="#DFBC99" d="M201.7,180c0.2,0,0.4,0,0.5,0c-0.3,0-0.6,0-0.8,0C201.5,180,201.6,180,201.7,180z"/>
		<path fill="#DFBC99" d="M179.5,163.5c0-0.2,0-0.4,0-0.5c0,0-0.1,0-0.1,0c-0.2,2.1-0.4,4.1-0.6,6.1c-0.2,2.3-0.5,4.6-0.8,6.8
			c0.1,0,0.1,0,0.2,0.1c0.3-2,0.6-4.1,0.8-6.3C179.1,167.6,179.3,165.6,179.5,163.5z"/>
		<path fill="#DFBC99" d="M202.4,165.9V180c0,0,0,0,0.1,0L202.4,165.9C202.4,165.9,202.4,165.9,202.4,165.9z"/>
		<path fill="#EFCFAB" d="M208.6,179.6c-0.1,0-0.3,0-0.4,0C208.3,179.7,208.5,179.6,208.6,179.6z"/>
		<path fill="#EFCFAB" d="M206.1,179.8c-0.3,0-0.6,0-0.9,0.1C205.4,179.9,205.8,179.8,206.1,179.8z"/>
		<path fill="#EFCFAB" d="M225.4,162.7C225.4,162.7,225.4,162.7,225.4,162.7c0,0.2,0,0.4,0,0.6c0.2,2,0.4,4,0.6,6
			c0.2,2.2,0.5,4.3,0.8,6.4c0,0,0,0,0.1,0c-0.3-2.2-0.6-4.5-0.8-6.9C225.8,166.7,225.6,164.7,225.4,162.7z"/>
		<path fill="#EECFAB" d="M302.5,356.3c0.1-13.2-0.3-25.3-1.1-36.4l-13.7,1.5l-18.1,2l-2.5,0.3l-7.5,0.9l-1.1,0.1l1,6.4l0.8,5.1
			c0.3,1.2,0.7,2.4,1,3.6c4.7,15.7,11.3,27.4,13,30.4c9.7-3,19.2-6.6,28.3-10.7C302.6,357.5,302.5,356.3,302.5,356.3z"/>
		<path fill="#FCDB0D" d="M235.8,200.5c0,0,0.1,0,0.2,0C235.9,200.5,235.9,200.5,235.8,200.5z"/>
		<path fill="#FCDB0D" d="M236.3,200.5c0.1,0,0.2,0,0.4,0C236.6,200.5,236.4,200.5,236.3,200.5z"/>
		<path fill="#FCDB0D" d="M238.7,200.6c0.3,0,0.6,0.1,0.9,0.1C239.3,200.7,239,200.6,238.7,200.6z"/>
		<path fill="#FCDB0D" d="M237.1,200.5c0.3,0,0.7,0,1.2,0.1C237.8,200.5,237.4,200.5,237.1,200.5z"/>
		<path fill="#FCDB0D" d="M260.4,336.2l-0.8-5.1c0.1,1.6,0.2,2.9,0.5,3.8C260.1,335.4,260.2,335.8,260.4,336.2z"/>
		<path fill="#1B75B9" d="M236,200.5c0.1,0,0.2,0,0.3,0C236.2,200.5,236.1,200.5,236,200.5z"/>
		<path fill="#1B75B9" d="M236.7,200.5c0.1,0,0.3,0,0.4,0C237,200.5,236.8,200.5,236.7,200.5z"/>
		<path fill="#1B75B9" d="M239.6,200.7c0.2,0,0.3,0,0.5,0.1C240,200.7,239.8,200.7,239.6,200.7z"/>
		<path fill="#1B75B9" d="M238.3,200.6c0.2,0,0.3,0,0.5,0C238.6,200.6,238.4,200.6,238.3,200.6z"/>
		<path fill="#1B75B9" d="M235.8,200.5c-0.1,0-0.1,0-0.1,0l0,0C235.7,200.5,235.7,200.5,235.8,200.5z"/>
		<polygon fill="#1B75B9" points="235.7,200.5 235.7,200.5 235.7,200.5 		"/>
		<path fill="#1B75B9" d="M202.5,226.2c0,0-0.1,0-0.1,0v5.5c0,0,0.1,0,0.1,0V226.2z"/>
		<g>
			<path fill="#FFFFFF" d="M240.2,200.7c-0.2,0-0.4,0-0.5-0.1c-0.3,0-0.6-0.1-0.9-0.1c-0.2,0-0.3,0-0.5,0c-0.4,0-0.8,0-1.2-0.1
				c-0.1,0-0.3,0-0.4,0c-0.2,0-0.3,0-0.4,0c-0.1,0-0.2,0-0.3,0c-0.1,0-0.1,0-0.2,0c-0.1,0-0.1,0-0.1,0l0,0c0,0-0.9,2.6-2.8,6.1
				c-0.7,1.3-1.6,2.7-2.6,4.1c-4,5.7-10.3,12.1-19.8,14.5c-2.4,0.6-5.1,1-7.9,1c0,0,0,0,0,0l0,5.5c0.1,0,0.3,0,0.4,0
				c3.5,0,6.7-0.4,9.6-1.2c11.5-2.9,19.2-10.6,24-17.5c1.4-2,2.6-3.9,3.5-5.7c1.1-2,1.9-3.7,2.3-4.9c0.2-0.6,0.4-1,0.5-1.4
				C241.9,201,241,200.8,240.2,200.7z"/>
			<path fill="#FFFFFF" d="M172.2,206.6c-1.9-3.5-2.8-6.1-2.8-6.1l0,0c-0.4,0-0.8,0-1.2,0.1c-1.8,0.1-3.5,0.3-5.1,0.6
				c0.1,0.3,0.3,0.7,0.4,1.1c0.5,1.2,1.2,2.8,2.3,4.8c3.8,7.1,11.5,18.1,24.8,22.6c3.5,1.2,7.5,1.9,11.8,2v-5.5
				c-3.7,0-7.1-0.6-10.1-1.6C181.8,221.1,175.4,212.5,172.2,206.6z"/>
		</g>
		<g>
			<path fill="#D1A586" d="M154.5,155.5c-0.9-5.2-1.7-19.4-3-24.7c-3.3-12.7-4.4-29,0.1-43.1c-3.5,2.2-6,8.1-7,11.3
				c-4.6,14.1,2.2,40,2.2,40h-3.1c0,0-0.7-3.2-1.9-7.5c-0.6,1-1.7,1.4-1.3,3.4c0.4,2.7,1.7,2.9,2.4,3.5c0.7,0.6,1.6,1.1,2,2.2
				c0.4,1.1,0.5,2.3,0.3,3.4c-0.5,1.9-3.3,0.4-5.1-0.4c-1.2-0.6-2.5-3.9-3.5-5c-2.5-2.8-3.7-8.3-1.7-11.4c2.3-3.7,6.4,5.3,8.2,6.1
				c-0.4-1.2-0.4-9.1-0.9-10.2c-7.3-6.1-11.8,0.7-11.1,9.2c1,11.8,15.4,17.8,15.1,16.5c3.9,21.2,22.2,35.4,40.4,40.4
				c0-0.2,0.1-0.4,0.1-0.6C172.2,183.8,157.6,172.6,154.5,155.5z"/>
			<path fill="#D1A586" d="M171,63c-1.1,0.5-2.5,1.5-3.9,2.9c1.8-1.3,3.8-2.4,5.9-3.4C172.4,62.5,171.7,62.7,171,63z"/>
			<path fill="#BD967F" d="M134.7,127.2c-2,3.1-0.8,8.6,1.7,11.4c1,1.1,2.2,4.5,3.5,5c1.9,0.9,4.7,2.4,5.1,0.4
				c0.2-1,0.2-2.2-0.3-3.4c-0.4-1.1-1.3-1.6-2-2.2c-0.7-0.6-1.9-0.8-2.4-3.5c-0.3-2,0.7-2.4,1.3-3.4c-0.6-2.1,1.7-5.1-2.2-6.8
				C137.6,123.9,137,123.4,134.7,127.2z"/>
			<path fill="#DCB598" d="M252.6,139.1c0,0,6.8-25.9,2.2-40c-0.2-0.5-0.7-1.4-1.6-2.5c1.9,11.7,0.7,24.1-1.9,34.2
				c-1.4,5.3-2.1,19.5-3,24.7c-2.9,16.2-16.4,27.9-31.1,32.9c0,0.1,0,0.1,0,0.2c17.6-5.5,34.8-19.3,38.5-39.8
				c-0.2,1.4,14.2-4.7,15.1-16.5c0.8-10.4-7.2-13.1-12.3-9.1c-3.1,7.9-4.5,15.9-4.5,15.9H252.6z M257,140.7c0.4-1.1,1.3-1.6,2-2.2
				c0.7-0.6,2-0.8,2.4-3.5c0.4-2.4-1.3-2.5-1.7-4.1c-0.7-2.8,0.2-4.3,1.4-5.4c1.1-1,3-3.1,5.9,1.6c2,3.1,0.8,8.6-1.7,11.4
				c-1,1.1-2.2,4.5-3.5,5c-1.9,0.9-4.7,2.4-5.1,0.4C256.5,143,256.6,141.8,257,140.7z"/>
			<path fill="#BD967F" d="M261.9,143.6c1.2-0.6,2.5-3.9,3.5-5c2.5-2.8,3.7-8.3,1.7-11.4c-3-4.7-4.8-2.7-5.9-1.6
				c-1.2,1.1-2.1,2.6-1.4,5.4c0.4,1.6,2.1,1.7,1.7,4.1c-0.4,2.7-1.7,2.9-2.4,3.5c-0.7,0.6-1.6,1.1-2,2.2c-0.4,1.1-0.5,2.3-0.3,3.4
				C257.2,146,260,144.4,261.9,143.6z"/>
			<path fill="#DFBC99" d="M201.9,161.8L201.9,161.8l0,20.6c0,0,0,0,0,0V161.8z"/>
			<path fill="#DFBC99" d="M186.5,188.6c-14.3-4.8-28.9-16-32-33.1c-0.9-5.2-1.7-19.4-3-24.7c-3.3-12.7-4.4-29,0.1-43.1
				c0.7-0.5,1.5-0.8,2.4-0.8c0,0,3.1-2.7,4.5-8c1-3.8,5-9.5,8.7-13c1.8-1.3,3.8-2.4,5.9-3.4c2.6-0.3,6-2.4,6-2.4s2.1-2,13-4
				c1.3-0.1,3.4-0.6,4.7-0.7c1,0.1,1.7-0.3,2.6-0.1c0.2,0.1,0.9-0.1,1.1,0c0.2,0.1,1.2-0.4,1.4-0.3v106.7h0v20.6v8.9
				c0,0-0.1,0-0.1,0c-0.2,0-0.4,0-0.5,0c-0.1,0-0.2,0-0.3,0c-0.1,0-0.2,0-0.3,0c0,0-0.1,0-0.1,0v0
				C195.9,191.6,186.5,188.6,186.5,188.6z"/>
			<path fill="#131213" d="M141.7,131.6c0.1-0.2,0.2-0.4,0.3-0.7"/>
			<path fill="#131213" d="M142,130.9c-0.1,0.3-0.2,0.5-0.3,0.7c1.2,4.3,1.9,7.5,1.9,7.5h3.1c0,0-6.8-25.9-2.2-40
				c1-3.2,3.5-9.2,7-11.3c1.6-5,3.9-9.7,7.1-13.9c2.4-3.1,5.2-5.7,8.4-8c1.4-1.4,2.8-2.4,3.9-2.9c0.7-0.3,1.4-0.5,2-0.5
				c5.9-2.8,12.1-4.7,20.1-5.4c0.1,0,0.8-0.1,1-0.1c1.2-0.2,1.8-0.8,2.9-0.8c0.9,0,2.5-0.8,3.5-0.8c0.2,0,0.7-0.2,1-0.2
				c0.1,0,0.1,0,0.2,0c0.2,0,0.1,1.8,0.2,1.8c5.2,0,10,0.5,14.5,1.3c0,0,0,0,0,0l0,0c12.1,2.3,21.3,7.5,27.6,15.7
				c5,6.5,7.9,14.5,9.2,22.7c0.8,1.1,1.4,2,1.6,2.5c4.6,14.1-2.2,40-2.2,40h3.1c0,0-0.6,0.2,1.5-7.4c0.8-2.8,0.8-4.4,1.1-6.3
				c2.7-32.7,2.3-82.6-57.3-82.6c0,0-0.1,0-0.1,0c0,0-0.1,0-0.1,0c-59.7,0-61.7,44.9-59,77.5"/>
			<path fill="#131213" d="M178.1,61.2c0,0,5-2,15.9-4c-8,0.7-15,2.4-20.9,5.2C175.7,62.2,178.1,61.2,178.1,61.2z"/>
			<path fill="#131213" d="M158.5,78.9c1-3.8,5-9.5,8.7-13c-3.2,2.2-6,4.9-8.4,8c-3.2,4.1-5.5,8.9-7.1,13.9c0.7-0.5,1.5-0.8,2.4-0.8
				C154,87,157.1,84.3,158.5,78.9z"/>
			<path fill="#EFCFAB" d="M253.2,96.6"/>
			<path fill="#EFCFAB" d="M217.2,188.4c-3.8,1.3-7.7,2.2-11.4,2.5c-0.1,0-0.2,0-0.3,0c-0.4,0-0.9,0.1-1.3,0.1c-0.2,0-0.4,0-0.6,0
				c-0.6,0-1.1,0-1.7,0.1v-8.9v-20.6V63.1l-0.3-8c0,0,47.9-2.5,51.7,41.5c1.9,11.7,0.7,24.1-1.9,34.2c-1.4,5.3-2.1,19.5-3,24.7
				C245.3,171.7,231.9,183.4,217.2,188.4L217.2,188.4z"/>
		</g>
		<path fill="#FCDB0D" d="M168.5,200.6c-1.2,0.1-2.5,0.2-3.5,0.4v0C166,200.9,167.3,200.7,168.5,200.6z"/>
		<g>
			<path fill="#FF0000" d="M202.7,231.8c-0.1,0-0.2,0-0.3,0l0,0c-2.3,0-3.4-0.3-6.4-0.6v150.8c0,0,1.2,0,1.8,0c1.6,0,2.9,0,4.5-0.1
				c2.3,0,3.7-0.1,6.7-0.2V231.2C206,231.6,205,231.8,202.7,231.8z"/>
			<path fill="#FF0000" d="M241.1,207.4c-0.9,1.7-1.7,3.6-3.1,5.7c-2.4,3.4-9,7.1-9,10.2v156.9c0-0.5,7-1.2,14-1.9V206.1
				C243,206.5,241.4,207,241.1,207.4z"/>
			<path fill="#FF0000" d="M166.3,207.2c-0.4-0.8-1.3-1.6-1.3-2.3v174.9c4,0.6,11,1,14,1.4V222.8C172,217.8,168.8,211.7,166.3,207.2
				z"/>
			<path fill="#FF0000" d="M127.6,222.4c-7.3,8.3-13.5,18.3-18.4,28.7c-15.6,33.6-19.7,71.5-19.7,71.5L102,324l7,0.8l18.1,2.1
				l11.1,1.3l4.7,0.5l-1.2,8.6l-1,7.5l-4,29.8c2.9,0.7,6.4,1.4,9.4,2c0.4,0.1,1.9,0.2,1.9,0.3V206.5
				C138,210.3,133.4,215.8,127.6,222.4z"/>
			<path fill="#FF0000" d="M287.6,236.6c-5.8-9.8-13.2-16.9-19.3-22.1c-3.9-3.3-6.4-5.9-12.4-7.8v168c0,0,1.4-0.1,1.6-0.1
				c2.5-0.6,5.6-1.3,8.1-2l-5-32.1l-0.6-4.3c-0.1-0.4-0.2-0.8-0.3-1.3c-0.2-0.9-0.4-2.2-0.4-3.8l-1-6.4l1.1-0.1l7.5-0.9l2.5-0.3
				l18.1-2l13.7-1.5l10.7-1.2C307.4,280.1,298.2,254.1,287.6,236.6z"/>
		</g>
		<path fill="#FCDB0D" d="M163.6,202.3c0.3,0.7,0.4,1.6,1.4,2.6V201c-1,0.1-1.2,0.1-1.7,0.2C163.4,201.5,163.5,201.9,163.6,202.3z"
			/>
		<path fill="#FCDB0D" d="M242.6,201.1c0.1,0,0.2,0,0.2,0c0,0,0,0,0,0C242.7,201.1,242.7,201.1,242.6,201.1z"/>
		<g>
			<path fill="#FFFFFF" d="M163.6,202.3c-0.2-0.4-0.2-0.8-0.3-1.1c0.5-0.1-1.3-0.1,1.7-0.2v0c-3,0.7-9.8,2-14.3,4
				c-1,0.5-2.7,0.9-2.7,1.4v170.4c4,1.2,11,2.1,17,2.9V204.9C162,203.9,163.9,203,163.6,202.3z"/>
			<path fill="#FFFFFF" d="M191,229.8c-4.8-1.6-8-4.1-12-7v158.4c7,0.4,10,0.7,17,0.7V231.1C192,230.8,192.7,230.3,191,229.8z"/>
			<path fill="#FFFFFF" d="M213.2,230.6c-1,0.2-1.2,0.4-4.2,0.6v150.4c6-0.3,13-0.8,20-1.4V223.3C222,226.5,219,229.1,213.2,230.6z"
				/>
			<path fill="#FFFFFF" d="M247.2,202.5c-2.1-0.6-3.3-1.1-5-1.4c-0.1,0.3,1.2,0.8,0.9,1.3c-0.4,0.9-0.2,2.1-0.2,3.6v172.2
				c3-1,10-2.2,13-3.6v-168C256,204.8,250.2,203.4,247.2,202.5z"/>
		</g>
	</g>
</g>
</svg>
