<?xml version="1.0" encoding="utf-8"?>
<!-- Generator: Adobe Illustrator 18.0.0, SVG Export Plug-In . SVG Version: 6.00 Build 0)  -->
<!DOCTYPE svg PUBLIC "-//W3C//DTD SVG 1.1//EN" "http://www.w3.org/Graphics/SVG/1.1/DTD/svg11.dtd">
<svg version="1.1" id="Layer_1" xmlns="http://www.w3.org/2000/svg" xmlns:xlink="http://www.w3.org/1999/xlink" x="0px" y="0px"
	 viewBox="0 0 400 400" enable-background="new 0 0 400 400" xml:space="preserve">
<circle fill="#FFFFFF" cx="200" cy="200" r="190.3"/>
<circle fill="#D1D4D5" cx="200" cy="200" r="181.2"/>
<g>
	<defs>
		<circle id="SVGID_1_" cx="200" cy="200" r="181.2"/>
	</defs>
	<clipPath id="SVGID_2_">
		<use xlink:href="#SVGID_1_"  overflow="visible"/>
	</clipPath>
	<g clip-path="url(#SVGID_2_)">
		<path fill="#DFBA98" d="M138.1,327.6l-11.1-1.3l-18.1-2l-7-0.8c-0.6,10.1-1,21.1-0.9,33c0,0-0.2,2.1-0.5,5.8
			c9.1,3.7,18.4,6.9,28,9.6l0-0.7c0,0,6.7-10.9,12.1-26.9l1-7.5l1.1-8.6L138.1,327.6z"/>
		<path fill="#DFBA98" d="M202,191.8c-14-0.1-22.2-10-24.5-13.2c0,0.1,0,0.2,0,0.3c-0.3,1.8-0.6,3.5-0.9,5.1
			c-1.7,7.8-4.1,13.7-7.4,16.2l0,0c0,0,0.9,2.6,2.8,6.1c3.3,5.9,9.6,14.4,20.1,18c3,1,6.3,1.6,10,1.6v-18.5L202,191.8
			C202.1,191.8,202.1,191.8,202,191.8z"/>
		<path fill="#DFBA98" d="M202.2,225.9v-18.5c0,0-0.1,0-0.1,0v18.5C202.1,225.9,202.2,225.9,202.2,225.9z"/>
		<path fill="#EECFAB" d="M260.7,340c0.1-0.2,0.2-0.5,0.3-0.7c-0.4-1.2-0.7-2.4-1-3.6L260.7,340z"/>
		<path fill="#EECFAB" d="M227.6,182.7c-0.3-1.3-0.5-2.5-0.7-3.9v-0.1c0-0.1,0-0.3-0.1-0.4c-2.2,3.6-9.8,13.4-24.7,13.4
			c0,0-0.1,0-0.1,0v15.6c0,0,0.1,0,0.1,0v18.5c0,0,0,0,0,0c2.8,0,5.5-0.4,7.9-1c9.5-2.4,15.8-8.8,19.8-14.5c1-1.5,1.9-2.9,2.6-4.1
			c2-3.5,2.8-6.1,2.8-6.1l0,0C231.8,197.6,229.4,191.2,227.6,182.7z"/>
		<path opacity="0.7" fill="#BD967F" d="M177.6,176.6c-0.1,0.6-0.2,1.2-0.3,1.8c0,0.1,0.1,0.1,0.1,0.2c0.1-0.6,0.2-1.3,0.3-2
			C177.8,176.6,177.7,176.6,177.6,176.6z"/>
		<path opacity="0.7" fill="#BD967F" d="M226.9,178.4C226.9,178.4,226.9,178.3,226.9,178.4l0-0.1c-0.1-0.8-0.2-1.7-0.4-2.6
			c0,0,0,0-0.1,0C226.6,176.6,226.8,177.5,226.9,178.4z"/>
		<path fill="#DFBA98" d="M202,191.8C202.1,191.8,202.1,191.8,202,191.8l0.1-12c0,0-0.1,0-0.1,0c-0.2,0-0.4,0-0.5,0
			c-0.1,0-0.2,0-0.3,0c-0.1,0-0.2,0-0.3,0c-0.1,0-0.2,0-0.2,0c-0.1,0-0.2,0-0.2,0c-7.2,0-14.9-1.1-22.6-3.2c-0.1,0.7-0.2,1.3-0.3,2
			C179.8,181.8,188.1,191.8,202,191.8z"/>
		<path fill="#EECFAB" d="M208.3,179.4c-0.1,0-0.3,0-0.4,0c-0.7,0.1-1.4,0.1-2.1,0.2c-0.3,0-0.6,0-0.9,0.1c-0.9,0-1.8,0.1-2.8,0.1
			v12c0,0,0,0,0.1,0c14.9,0,22.5-9.8,24.7-13.4c-0.1-0.9-0.3-1.8-0.4-2.7C220.4,177.6,214.3,178.8,208.3,179.4z"/>
		<path opacity="0.7" fill="#BD967F" d="M226.5,175.7c-6.1,1.9-12.2,3.1-18.2,3.7c-0.1,0-0.3,0-0.4,0c-0.7,0.1-1.4,0.1-2.1,0.2
			c-0.3,0-0.6,0-0.9,0.1c-0.9,0-1.8,0.1-2.8,0.1c0,0-0.1,0-0.1,0c-0.2,0-0.4,0-0.5,0c-0.1,0-0.2,0-0.3,0c-0.1,0-0.2,0-0.3,0
			c-0.1,0-0.2,0-0.2,0c-0.1,0-0.2,0-0.2,0c-7.2,0-14.9-1.1-22.6-3.2c-0.1,0.7-0.2,1.3-0.3,2c2.3,3.2,10.6,13.2,24.5,13.2
			c0,0,0,0,0.1,0c0,0,0,0,0.1,0c14.9,0,22.5-9.8,24.7-13.4C226.8,177.5,226.6,176.6,226.5,175.7z"/>
		<path fill="#D1A586" d="M178,175.7c-0.1,0-0.1,0-0.2-0.1c0,0.3-0.1,0.6-0.1,1c0.1,0,0.1,0,0.2,0C177.9,176.3,177.9,176,178,175.7z
			"/>
		<path fill="#D1A586" d="M178,175.7c0,0.3-0.1,0.6-0.1,1c7.7,2.1,15.3,3.2,22.6,3.2c0.1,0,0.2,0,0.2,0c-0.1,0-0.2,0-0.3,0
			C193.4,179.6,185.7,178.3,178,175.7z"/>
		<path fill="#DCB598" d="M226.5,175.4c0,0.1,0,0.2,0,0.3c0,0,0,0,0.1,0C226.6,175.6,226.5,175.5,226.5,175.4
			C226.5,175.4,226.5,175.4,226.5,175.4z"/>
		<path fill="#DCB598" d="M202,179.8c0,0,0.1,0,0.1,0v0C202,179.8,202,179.8,202,179.8z"/>
		<path fill="#DCB598" d="M200.6,179.8c0.1,0,0.2,0,0.2,0c0.1,0,0.2,0,0.3,0c-0.1,0-0.3,0-0.4,0
			C200.7,179.8,200.6,179.8,200.6,179.8z"/>
		<path fill="#DCB598" d="M202.2,179.8C202.1,179.8,202.1,179.8,202.2,179.8L202.2,179.8c0.8,0,1.8,0,2.7-0.1
			C203.9,179.7,203,179.8,202.2,179.8z"/>
		<path fill="#DCB598" d="M207.9,179.5c-0.7,0.1-1.4,0.1-2.1,0.2C206.5,179.6,207.2,179.5,207.9,179.5z"/>
		<path fill="#DCB598" d="M226.5,175.7c0-0.1,0-0.2,0-0.3c-6,2.1-12.1,3.4-18.1,4C214.3,178.8,220.4,177.6,226.5,175.7z"/>
		<path fill="#DCB598" d="M200.3,179.8c0.1,0,0.2,0,0.3,0c0,0,0.1,0,0.1,0C200.6,179.8,200.4,179.8,200.3,179.8z"/>
		<path fill="#DFBC99" d="M201.4,179.8c0.2,0,0.4,0,0.5,0c-0.3,0-0.6,0-0.8,0C201.2,179.8,201.3,179.8,201.4,179.8z"/>
		<path fill="#DFBC99" d="M179.3,163.3c0-0.2,0-0.4,0-0.5c0,0-0.1,0-0.1,0c-0.2,2.1-0.4,4.1-0.6,6.1c-0.2,2.3-0.5,4.6-0.8,6.8
			c0.1,0,0.1,0,0.2,0.1c0.3-2,0.6-4.1,0.8-6.3C178.9,167.4,179.1,165.4,179.3,163.3z"/>
		<path fill="#DFBC99" d="M202.1,165.7v14.1c0,0,0,0,0.1,0L202.1,165.7C202.1,165.7,202.1,165.7,202.1,165.7z"/>
		<path fill="#EFCFAB" d="M208.3,179.4c-0.1,0-0.3,0-0.4,0C208,179.5,208.2,179.4,208.3,179.4z"/>
		<path fill="#EFCFAB" d="M205.8,179.6c-0.3,0-0.6,0-0.9,0.1C205.2,179.7,205.5,179.6,205.8,179.6z"/>
		<path fill="#EFCFAB" d="M225.1,162.5C225.1,162.5,225.1,162.5,225.1,162.5c0,0.2,0,0.4,0,0.6c0.2,2,0.4,4,0.6,6
			c0.2,2.2,0.5,4.3,0.8,6.4c0,0,0,0,0.1,0c-0.3-2.2-0.6-4.5-0.8-6.9C225.5,166.5,225.3,164.5,225.1,162.5z"/>
		<path fill="#EECFAB" d="M302,355.8c0.1-13.2-0.3-25.3-1.1-36.3l-13.7,1.5l-18.1,2l-2.5,0.3l-7.5,0.8l-1.1,0.1l1,6.4l0.8,5.1
			c0.3,1.2,0.7,2.4,1,3.6c4.7,15.7,11.2,27.4,13,30.4c9.7-3,19.1-6.6,28.3-10.7C302.1,357,302,355.8,302,355.8z"/>
		<path fill="#FCDB0D" d="M235.5,200.3c0,0,0.1,0,0.2,0C235.6,200.3,235.5,200.3,235.5,200.3z"/>
		<path fill="#FCDB0D" d="M236,200.3c0.1,0,0.2,0,0.4,0C236.2,200.3,236.1,200.3,236,200.3z"/>
		<path fill="#FCDB0D" d="M238.4,200.4c0.3,0,0.6,0.1,0.9,0.1C239,200.4,238.7,200.4,238.4,200.4z"/>
		<path fill="#FCDB0D" d="M236.7,200.3c0.3,0,0.7,0,1.2,0.1C237.5,200.3,237.1,200.3,236.7,200.3z"/>
		<path fill="#FCDB0D" d="M260,335.7l-0.8-5.1c0.1,1.6,0.2,2.9,0.5,3.8C259.7,334.9,259.9,335.3,260,335.7z"/>
		<g>
			<path fill="#FF0000" d="M242.2,200.9c0.1,0,0.2,0,0.2,0c0,0,0,0,0,0C242.4,200.9,242.3,200.9,242.2,200.9z"/>
			<path fill="#FF0000" d="M287.2,236.3c-5.8-9.7-12-16.8-18.1-22c-7.8-6.6-15.2-10.1-21.1-12c-2.1-0.6-3.9-1.1-5.5-1.4
				c-0.1,0.3-0.3,0.8-0.5,1.3c-0.5,1.2-1.3,2.9-2.3,4.9c-0.9,1.7-2.1,3.6-3.5,5.6c-4.8,6.9-12.5,14.6-24,17.5
				c-2.9,0.7-6.1,1.2-9.6,1.2c-0.1,0-0.3,0-0.4,0l-0.1,0c-4.3-0.1-8.3-0.8-11.8-2c-13.2-4.4-21-15.4-24.8-22.6
				c-1.1-2-1.8-3.7-2.3-4.8c-0.2-0.4-0.3-0.8-0.4-1.1c1.7-0.3,3.4-0.5,5.1-0.6c-6.5,0.4-12.6,2-18.1,4.4
				c-8.8,3.9-16.4,9.9-22.9,17.3c-7.3,8.3-13.3,18.3-18.1,28.7c-15.6,33.5-19.5,71.3-19.5,71.3l12.5,1.4l7,0.8l18.1,2l11.1,1.3
				l4.7,0.5l-1.1,8.6l-1,7.5l-4,29.8c2.9,0.7,5.9,1.4,8.9,2c16.8,3.5,34.2,5.3,52,5.3c1.6,0,3.2,0,4.7-0.1
				c19.3-0.4,38.1-2.8,56.1-7.2c2.5-0.6,5-1.3,7.5-2l-5.2-32.1l-0.7-4.3c-0.1-0.4-0.2-0.8-0.4-1.3c-0.2-0.9-0.4-2.2-0.5-3.8l-1-6.4
				l1.1-0.1l7.5-0.8l2.5-0.3l18.1-2l13.7-1.5l10.7-1.2C306.9,279.7,297.7,253.8,287.2,236.3z"/>
		</g>
		<path fill="#1B75B9" d="M235.7,200.3c0.1,0,0.2,0,0.3,0C235.8,200.3,235.7,200.3,235.7,200.3z"/>
		<path fill="#1B75B9" d="M236.4,200.3c0.1,0,0.3,0,0.4,0C236.6,200.3,236.5,200.3,236.4,200.3z"/>
		<path fill="#1B75B9" d="M239.3,200.4c0.2,0,0.3,0,0.5,0.1C239.6,200.5,239.5,200.5,239.3,200.4z"/>
		<path fill="#1B75B9" d="M237.9,200.3c0.2,0,0.3,0,0.5,0C238.2,200.4,238.1,200.3,237.9,200.3z"/>
		<path fill="#1B75B9" d="M235.5,200.3c-0.1,0-0.1,0-0.2,0l0,0C235.3,200.3,235.4,200.3,235.5,200.3z"/>
		<polygon fill="#1B75B9" points="235.3,200.3 235.3,200.3 235.3,200.3 		"/>
		<path fill="#1B75B9" d="M202.2,225.9c0,0-0.1,0-0.1,0v5.5c0,0,0.1,0,0.1,0V225.9z"/>
		<g>
			<path fill="#000098" d="M239.8,200.5c-0.2,0-0.4,0-0.5-0.1c-0.3,0-0.6-0.1-0.9-0.1c-0.2,0-0.3,0-0.5,0c-0.4,0-0.8,0-1.2-0.1
				c-0.1,0-0.3,0-0.4,0c-0.2,0-0.3,0-0.4,0c-0.1,0-0.2,0-0.3,0c-0.1,0-0.1,0-0.2,0c-0.1,0-0.1,0-0.2,0l0,0c0,0-0.9,2.6-2.8,6.1
				c-0.7,1.3-1.6,2.7-2.6,4.1c-4,5.7-10.3,12.1-19.8,14.5c-2.4,0.6-5,1-7.9,1c0,0,0,0,0,0l0,5.5c0.1,0,0.3,0,0.4,0
				c3.4,0,6.6-0.4,9.6-1.2c11.5-2.9,19.2-10.6,24-17.5c1.4-2,2.6-3.9,3.5-5.6c1.1-2,1.8-3.7,2.3-4.9c0.2-0.6,0.4-1,0.5-1.4
				C241.5,200.7,240.6,200.6,239.8,200.5z"/>
			<path fill="#000098" d="M172,206.4c-1.9-3.5-2.8-6.1-2.8-6.1l0,0c-0.4,0-0.8,0-1.2,0.1c-1.8,0.1-3.5,0.3-5.1,0.6
				c0.1,0.3,0.3,0.7,0.4,1.1c0.5,1.2,1.2,2.8,2.3,4.8c3.8,7.1,11.5,18.1,24.8,22.6c3.5,1.2,7.5,1.9,11.8,2v-5.5c-3.7,0-7-0.6-10-1.6
				C181.5,220.8,175.2,212.2,172,206.4z"/>
		</g>
		<g>
			<path fill="#D1A586" d="M154.3,155.3c-0.9-5.2-1.7-19.4-3-24.6c-3.3-12.7-4.4-29,0.1-43c-3.5,2.2-6,8.1-7,11.3
				c-4.5,14.1,2.2,39.9,2.2,39.9h-3.1c0,0-0.7-3.2-1.9-7.5c-0.6,1-1.7,1.4-1.3,3.4c0.4,2.7,1.7,2.8,2.4,3.5c0.7,0.6,1.6,1.1,2,2.2
				c0.4,1.1,0.5,2.3,0.3,3.4c-0.5,1.9-3.3,0.4-5.1-0.4c-1.2-0.6-2.5-3.9-3.5-5c-2.5-2.8-3.7-8.2-1.7-11.4c2.3-3.7,6.4,5.3,8.2,6.1
				c-0.4-1.2-0.4-9-0.9-10.2c-7.3-6.1-11.8,0.7-11.1,9.2c1,11.7,15.3,17.8,15.1,16.4c3.9,21.2,22.1,35.3,40.3,40.3
				c0-0.2,0.1-0.4,0.1-0.6C172,183.6,157.4,172.4,154.3,155.3z"/>
			<path fill="#D1A586" d="M170.8,63c-1.1,0.5-2.4,1.5-3.9,2.9c1.8-1.3,3.8-2.4,5.9-3.4C172.2,62.6,171.5,62.7,170.8,63z"/>
			<path fill="#BD967F" d="M134.5,127.1c-2,3.1-0.8,8.6,1.7,11.4c1,1.1,2.2,4.4,3.5,5c1.9,0.9,4.7,2.4,5.1,0.4
				c0.2-1,0.2-2.2-0.3-3.4c-0.4-1.1-1.3-1.6-2-2.2c-0.7-0.6-1.9-0.8-2.4-3.5c-0.3-2,0.7-2.4,1.3-3.4c-0.6-2.1,1.7-5.1-2.2-6.8
				C137.5,123.8,136.9,123.4,134.5,127.1z"/>
			<path fill="#DCB598" d="M252.2,139c0,0,6.7-25.9,2.2-39.9c-0.2-0.5-0.7-1.3-1.6-2.5c1.9,11.7,0.7,24.1-1.9,34.1
				c-1.4,5.3-2.1,19.4-3,24.6c-2.9,16.2-16.4,27.8-31,32.9c0,0.1,0,0.1,0,0.2c17.6-5.4,34.7-19.3,38.4-39.8
				c-0.2,1.4,14.1-4.7,15.1-16.4c0.8-10.3-7.2-13-12.3-9c-3.1,7.8-4.5,15.8-4.5,15.8H252.2z M256.6,140.5c0.4-1.1,1.3-1.6,2-2.2
				c0.7-0.6,1.9-0.8,2.4-3.5c0.4-2.4-1.3-2.5-1.7-4.1c-0.7-2.8,0.2-4.3,1.4-5.4c1.1-1,3-3.1,5.9,1.6c2,3.1,0.8,8.6-1.7,11.4
				c-1,1.1-2.2,4.4-3.5,5c-1.9,0.9-4.7,2.4-5.1,0.4C256.1,142.9,256.2,141.7,256.6,140.5z"/>
			<path fill="#BD967F" d="M261.5,143.4c1.2-0.6,2.5-3.9,3.5-5c2.5-2.8,3.7-8.2,1.7-11.4c-2.9-4.7-4.8-2.7-5.9-1.6
				c-1.2,1.1-2.1,2.6-1.4,5.4c0.4,1.6,2.1,1.7,1.7,4.1c-0.4,2.7-1.7,2.8-2.4,3.5c-0.7,0.6-1.6,1.1-2,2.2c-0.4,1.1-0.5,2.3-0.3,3.4
				C256.8,145.8,259.6,144.3,261.5,143.4z"/>
			<path fill="#DFBC99" d="M201.6,161.6L201.6,161.6l0,20.5c0,0,0,0,0,0V161.6z"/>
			<path fill="#DFBC99" d="M186.3,188.4c-14.2-4.8-28.8-16-31.9-33c-0.9-5.2-1.7-19.4-3-24.6c-3.3-12.7-4.4-29,0.1-43
				c0.7-0.5,1.5-0.8,2.4-0.8c0,0,3.1-2.7,4.5-8c1-3.8,5-9.5,8.6-13c1.8-1.3,3.8-2.4,5.9-3.4c2.6-0.3,6-2.4,6-2.4s2.1-2,13-3.9
				c1.2-0.1,3.4-0.6,4.7-0.7c1,0.1,1.7-0.3,2.6-0.1c0.2,0.1,0.9-0.1,1.1,0c0.2,0.1,1.2-0.4,1.4-0.3v106.5h0v20.5v8.8
				c0,0-0.1,0-0.1,0c-0.2,0-0.3,0-0.5,0c-0.1,0-0.2,0-0.3,0c-0.1,0-0.2,0-0.3,0c0,0-0.1,0-0.1,0v0
				C195.6,191.4,186.3,188.4,186.3,188.4z"/>
			<path fill="#131213" d="M141.5,131.5c0.1-0.2,0.2-0.4,0.3-0.7"/>
			<path fill="#131213" d="M141.8,130.8c-0.1,0.3-0.2,0.5-0.3,0.7c1.2,4.3,1.9,7.5,1.9,7.5h3.1c0,0-6.7-25.9-2.2-39.9
				c1-3.2,3.5-9.2,7-11.3c1.6-5,3.9-9.7,7.1-13.9c2.4-3.1,5.2-5.7,8.4-8c1.4-1.4,2.8-2.4,3.9-2.9c0.7-0.3,1.4-0.5,2-0.5
				c5.9-2.8,12-4.7,20.1-5.4c0.1,0,0.8-0.1,1-0.1c1.2-0.2,1.8-0.8,2.9-0.8c0.9,0,2.5-0.8,3.5-0.8c0.2,0,0.7-0.2,0.9-0.2
				c0.1,0,0.1,0,0.2,0c0.2,0,0.1,1.8,0.2,1.8c5.2,0,10,0.5,14.5,1.3c0,0,0,0,0,0l0,0c12,2.3,21.3,7.5,27.6,15.6
				c5,6.5,7.9,14.4,9.2,22.7c0.8,1.1,1.4,2,1.6,2.5c4.5,14.1-2.2,39.9-2.2,39.9h3.1c0,0-0.6,0.2,1.5-7.4c0.8-2.8,0.8-4.4,1.1-6.2
				c2.7-32.6,2.3-82.5-57.2-82.5c0,0-0.1,0-0.1,0c0,0-0.1,0-0.1,0c-59.5,0-61.6,44.8-58.9,77.4"/>
			<path fill="#131213" d="M177.9,61.3c0,0,5-2,15.9-4c-8,0.7-15,2.4-20.9,5.2C175.4,62.2,177.9,61.3,177.9,61.3z"/>
			<path fill="#131213" d="M158.3,78.9c1-3.8,5-9.5,8.6-13c-3.2,2.2-6,4.9-8.4,8c-3.2,4.1-5.5,8.9-7.1,13.9c0.7-0.5,1.5-0.8,2.4-0.8
				C153.8,86.9,156.9,84.3,158.3,78.9z"/>
			<path fill="#EFCFAB" d="M252.9,96.6"/>
			<path fill="#EFCFAB" d="M216.9,188.2c-3.8,1.3-7.6,2.2-11.4,2.5c-0.1,0-0.2,0-0.3,0c-0.4,0-0.9,0.1-1.3,0.1c-0.2,0-0.4,0-0.6,0
				c-0.6,0-1.1,0-1.7,0.1v-8.8v-20.5V63.1l-0.3-8c0,0,47.8-2.5,51.6,41.5c1.9,11.7,0.7,24.1-1.9,34.1c-1.4,5.3-2.1,19.4-3,24.6
				C245,171.5,231.5,183.2,216.9,188.2L216.9,188.2z"/>
		</g>
	</g>
</g>
</svg>
