<?xml version="1.0" encoding="utf-8"?>
<!-- Generator: Adobe Illustrator 18.0.0, SVG Export Plug-In . SVG Version: 6.00 Build 0)  -->
<!DOCTYPE svg PUBLIC "-//W3C//DTD SVG 1.1//EN" "http://www.w3.org/Graphics/SVG/1.1/DTD/svg11.dtd">
<svg version="1.1" id="Layer_1" xmlns="http://www.w3.org/2000/svg" xmlns:xlink="http://www.w3.org/1999/xlink" x="0px" y="0px"
	 viewBox="0 0 400 400" enable-background="new 0 0 400 400" xml:space="preserve">
<circle fill="#FFFFFF" cx="200" cy="200" r="190.3"/>
<circle fill="#D1D4D5" cx="200" cy="200" r="181.2"/>
<g>
	<defs>
		<circle id="SVGID_1_" cx="200" cy="200" r="181.2"/>
	</defs>
	<clipPath id="SVGID_2_">
		<use xlink:href="#SVGID_1_"  overflow="visible"/>
	</clipPath>
	<g clip-path="url(#SVGID_2_)">
		<path fill="#DFBA98" d="M138.2,327.5l-11.1-1.3l-18.1-2l-7-0.8c-0.6,10.1-1,21.1-0.9,33c0,0-0.2,2.1-0.5,5.8
			c9.1,3.7,18.4,6.9,28,9.6l0-0.7c0,0,6.8-11,12.1-27l1-7.5l1.1-8.6L138.2,327.5z"/>
		<path fill="#DFBA98" d="M202.2,191.6c-14-0.1-22.2-10-24.5-13.2c0,0.1,0,0.2,0,0.3c-0.3,1.8-0.6,3.5-0.9,5.1
			c-1.7,7.8-4.1,13.7-7.4,16.3l0,0c0,0,0.9,2.6,2.8,6.1c3.3,5.9,9.6,14.4,20.1,18c3,1,6.3,1.6,10,1.6v-18.5L202.2,191.6
			C202.2,191.6,202.2,191.6,202.2,191.6z"/>
		<path fill="#DFBA98" d="M202.4,225.7v-18.5c0,0-0.1,0-0.1,0v18.5C202.3,225.7,202.3,225.7,202.4,225.7z"/>
		<path fill="#EECFAB" d="M260.9,339.9c0.1-0.2,0.2-0.5,0.3-0.7c-0.4-1.2-0.7-2.4-1-3.6L260.9,339.9z"/>
		<path fill="#EECFAB" d="M227.8,182.5c-0.3-1.3-0.5-2.5-0.7-3.9v-0.1c0-0.1,0-0.3-0.1-0.4c-2.2,3.6-9.8,13.4-24.8,13.4
			c0,0-0.1,0-0.1,0v15.6c0,0,0.1,0,0.1,0v18.5c0,0,0,0,0,0c2.9,0,5.5-0.4,7.9-1c9.5-2.4,15.8-8.8,19.8-14.5c1-1.5,1.9-2.9,2.6-4.1
			c2-3.5,2.8-6.1,2.8-6.1l0,0C232,197.4,229.5,191,227.8,182.5z"/>
		<path opacity="0.7" fill="#BD967F" d="M177.8,176.3c-0.1,0.6-0.2,1.2-0.3,1.8c0,0.1,0.1,0.1,0.1,0.2c0.1-0.6,0.2-1.3,0.3-2
			C177.9,176.4,177.8,176.3,177.8,176.3z"/>
		<path opacity="0.7" fill="#BD967F" d="M227.1,178.1C227.1,178.1,227.1,178.1,227.1,178.1l0-0.1c-0.1-0.8-0.2-1.7-0.4-2.6
			c0,0,0,0-0.1,0C226.8,176.4,226.9,177.3,227.1,178.1z"/>
		<path fill="#DFBA98" d="M202.2,191.6C202.2,191.6,202.2,191.6,202.2,191.6l0.1-12c0,0-0.1,0-0.1,0c-0.2,0-0.4,0-0.5,0
			c-0.1,0-0.2,0-0.3,0c-0.1,0-0.2,0-0.3,0c-0.1,0-0.2,0-0.2,0c-0.1,0-0.2,0-0.2,0c-7.2,0-14.9-1.1-22.6-3.2c-0.1,0.7-0.2,1.3-0.3,2
			C180,181.6,188.2,191.5,202.2,191.6z"/>
		<path fill="#EECFAB" d="M208.5,179.2c-0.1,0-0.3,0-0.4,0c-0.7,0.1-1.4,0.1-2.1,0.2c-0.3,0-0.6,0-0.9,0.1c-0.9,0-1.8,0.1-2.8,0.1
			v12c0,0,0,0,0.1,0c14.9,0,22.5-9.9,24.8-13.4c-0.1-0.9-0.3-1.8-0.4-2.7C220.6,177.3,214.4,178.6,208.5,179.2z"/>
		<path opacity="0.7" fill="#BD967F" d="M226.7,175.5c-6.1,1.9-12.2,3.1-18.2,3.7c-0.1,0-0.3,0-0.4,0c-0.7,0.1-1.4,0.1-2.1,0.2
			c-0.3,0-0.6,0-0.9,0.1c-0.9,0-1.8,0.1-2.8,0.1c0,0-0.1,0-0.1,0c-0.2,0-0.4,0-0.5,0c-0.1,0-0.2,0-0.3,0c-0.1,0-0.2,0-0.3,0
			c-0.1,0-0.2,0-0.2,0c-0.1,0-0.2,0-0.2,0c-7.2,0-14.9-1.1-22.6-3.2c-0.1,0.7-0.2,1.3-0.3,2c2.3,3.2,10.6,13.2,24.5,13.2
			c0,0,0,0,0.1,0c0,0,0,0,0.1,0c14.9,0,22.5-9.9,24.8-13.4C226.9,177.3,226.8,176.4,226.7,175.5z"/>
		<path fill="#D1A586" d="M178.1,175.4c-0.1,0-0.1,0-0.2-0.1c0,0.3-0.1,0.6-0.1,1c0.1,0,0.1,0,0.2,0C178,176,178,175.7,178.1,175.4z
			"/>
		<path fill="#D1A586" d="M178.1,175.4c0,0.3-0.1,0.6-0.1,1c7.7,2.1,15.3,3.2,22.6,3.2c0.1,0,0.2,0,0.2,0c-0.1,0-0.2,0-0.3,0
			C193.6,179.4,185.9,178,178.1,175.4z"/>
		<path fill="#DCB598" d="M226.6,175.1c0,0.1,0,0.2,0,0.3c0,0,0,0,0.1,0C226.7,175.3,226.7,175.2,226.6,175.1
			C226.7,175.1,226.7,175.1,226.6,175.1z"/>
		<path fill="#DCB598" d="M202.1,179.5c0,0,0.1,0,0.1,0v0C202.2,179.5,202.1,179.5,202.1,179.5z"/>
		<path fill="#DCB598" d="M200.7,179.5c0.1,0,0.2,0,0.2,0c0.1,0,0.2,0,0.3,0c-0.1,0-0.3,0-0.4,0
			C200.8,179.5,200.8,179.5,200.7,179.5z"/>
		<path fill="#DCB598" d="M202.3,179.5C202.3,179.5,202.2,179.5,202.3,179.5L202.3,179.5c0.8,0,1.8,0,2.7-0.1
			C204.1,179.5,203.2,179.5,202.3,179.5z"/>
		<path fill="#DCB598" d="M208,179.2c-0.7,0.1-1.4,0.1-2.1,0.2C206.6,179.3,207.3,179.3,208,179.2z"/>
		<path fill="#DCB598" d="M226.7,175.5c0-0.1,0-0.2,0-0.3c-6,2.1-12.2,3.4-18.2,4C214.4,178.6,220.6,177.3,226.7,175.5z"/>
		<path fill="#DCB598" d="M200.4,179.5c0.1,0,0.2,0,0.3,0c0,0,0.1,0,0.1,0C200.7,179.5,200.6,179.5,200.4,179.5z"/>
		<path fill="#DFBC99" d="M201.6,179.6c0.2,0,0.4,0,0.5,0c-0.3,0-0.6,0-0.8,0C201.4,179.6,201.5,179.6,201.6,179.6z"/>
		<path fill="#DFBC99" d="M179.4,163.1c0-0.2,0-0.4,0-0.5c0,0-0.1,0-0.1,0c-0.2,2.1-0.4,4.1-0.6,6.1c-0.2,2.3-0.5,4.6-0.8,6.8
			c0.1,0,0.1,0,0.2,0.1c0.3-2,0.6-4.1,0.8-6.3C179,167.1,179.2,165.1,179.4,163.1z"/>
		<path fill="#DFBC99" d="M202.2,165.4v14.1c0,0,0,0,0.1,0L202.2,165.4C202.3,165.4,202.2,165.4,202.2,165.4z"/>
		<path fill="#EFCFAB" d="M208.5,179.2c-0.1,0-0.3,0-0.4,0C208.2,179.2,208.3,179.2,208.5,179.2z"/>
		<path fill="#EFCFAB" d="M205.9,179.4c-0.3,0-0.6,0-0.9,0.1C205.3,179.4,205.6,179.4,205.9,179.4z"/>
		<path fill="#EFCFAB" d="M225.3,162.2C225.3,162.2,225.3,162.2,225.3,162.2c0,0.2,0,0.4,0,0.6c0.2,2,0.4,4,0.6,6
			c0.2,2.2,0.5,4.3,0.8,6.4c0,0,0,0,0.1,0c-0.3-2.2-0.6-4.5-0.8-6.9C225.7,166.3,225.5,164.3,225.3,162.2z"/>
		<path fill="#EECFAB" d="M302.2,355.7c0.1-13.2-0.3-25.3-1.1-36.3l-13.7,1.5l-18.1,2l-2.5,0.3l-7.5,0.8l-1.1,0.1l1,6.4l0.8,5.1
			c0.3,1.2,0.7,2.4,1,3.6c4.7,15.7,11.2,27.4,13,30.4c9.7-3,19.1-6.6,28.3-10.7C302.3,356.9,302.2,355.7,302.2,355.7z"/>
		<path fill="#FCDB0D" d="M235.6,200.1c0,0,0.1,0,0.2,0C235.7,200.1,235.7,200.1,235.6,200.1z"/>
		<path fill="#FCDB0D" d="M236.1,200c0.1,0,0.2,0,0.4,0C236.4,200,236.3,200,236.1,200z"/>
		<path fill="#FCDB0D" d="M238.6,200.1c0.3,0,0.6,0.1,0.9,0.1C239.1,200.2,238.8,200.2,238.6,200.1z"/>
		<path fill="#FCDB0D" d="M236.9,200.1c0.3,0,0.7,0,1.2,0.1C237.6,200.1,237.2,200.1,236.9,200.1z"/>
		<path fill="#FCDB0D" d="M260.2,335.6l-0.8-5.1c0.1,1.6,0.2,2.9,0.5,3.8C259.9,334.8,260,335.2,260.2,335.6z"/>
		<g>
			<path fill="#FFFF01" d="M242.4,200.6c0.1,0,0.2,0,0.2,0c0,0,0,0,0,0C242.6,200.7,242.5,200.7,242.4,200.6z"/>
			<path fill="#FFFF01" d="M287.4,236.1c-5.8-9.7-12.1-16.9-18.1-22c-7.8-6.7-15.2-10.1-21.1-12c-2.1-0.6-3.9-1.1-5.5-1.4
				c-0.1,0.3-0.3,0.8-0.5,1.3c-0.5,1.2-1.3,2.9-2.3,4.9c-0.9,1.7-2.1,3.6-3.5,5.6c-4.8,6.9-12.5,14.6-24,17.5
				c-2.9,0.7-6.1,1.2-9.6,1.2c-0.1,0-0.3,0-0.4,0l-0.1,0c-4.3-0.1-8.3-0.8-11.8-2c-13.3-4.4-21-15.4-24.8-22.6
				c-1.1-2-1.8-3.7-2.3-4.8c-0.2-0.4-0.3-0.8-0.4-1.1c1.7-0.3,3.4-0.5,5.1-0.6c-6.5,0.4-12.6,2-18.1,4.4
				c-8.8,3.9-16.4,9.9-22.9,17.3c-7.3,8.3-13.3,18.3-18.1,28.7C93.3,284.1,89.4,322,89.4,322l12.5,1.4l7,0.8l18.1,2l11.1,1.3
				l4.7,0.5l-1.1,8.6l-1,7.5l-4,29.8c2.9,0.7,5.9,1.4,8.9,2c16.8,3.5,34.2,5.3,52.1,5.3c1.6,0,3.2,0,4.8-0.1
				c19.3-0.4,38.1-2.8,56.2-7.2c2.5-0.6,5.1-1.3,7.6-2l-5.2-32.1l-0.7-4.3c-0.1-0.4-0.2-0.8-0.4-1.3c-0.2-0.9-0.4-2.2-0.5-3.8
				l-1-6.4l1.1-0.1l7.5-0.8l2.5-0.3l18.1-2l13.7-1.5l10.7-1.2C307.2,279.6,297.9,253.6,287.4,236.1z"/>
		</g>
		<path fill="#1B75B9" d="M235.8,200.1c0.1,0,0.2,0,0.3,0C236,200,235.9,200,235.8,200.1z"/>
		<path fill="#1B75B9" d="M236.5,200c0.1,0,0.3,0,0.4,0C236.8,200.1,236.6,200,236.5,200z"/>
		<path fill="#1B75B9" d="M239.5,200.2c0.2,0,0.3,0,0.5,0.1C239.8,200.3,239.6,200.2,239.5,200.2z"/>
		<path fill="#1B75B9" d="M238.1,200.1c0.2,0,0.3,0,0.5,0C238.4,200.1,238.2,200.1,238.1,200.1z"/>
		<path fill="#1B75B9" d="M235.6,200.1c-0.1,0-0.1,0-0.2,0l0,0C235.5,200.1,235.6,200.1,235.6,200.1z"/>
		<polygon fill="#1B75B9" points="235.5,200.1 235.5,200.1 235.5,200.1 		"/>
		<path fill="#1B75B9" d="M202.4,225.7c0,0-0.1,0-0.1,0v5.5c0,0,0.1,0,0.1,0V225.7z"/>
		<g>
			<path fill="#008000" d="M240,200.3c-0.2,0-0.4,0-0.5-0.1c-0.3,0-0.6-0.1-0.9-0.1c-0.2,0-0.3,0-0.5,0c-0.4,0-0.8,0-1.2-0.1
				c-0.1,0-0.3,0-0.4,0c-0.2,0-0.3,0-0.4,0c-0.1,0-0.2,0-0.3,0c-0.1,0-0.1,0-0.2,0c-0.1,0-0.1,0-0.2,0l0,0c0,0-0.9,2.6-2.8,6.1
				c-0.7,1.3-1.6,2.7-2.6,4.1c-4,5.7-10.3,12.1-19.8,14.5c-2.4,0.6-5.1,1-7.9,1c0,0,0,0,0,0l0,5.5c0.1,0,0.3,0,0.4,0
				c3.5,0,6.6-0.4,9.6-1.2c11.5-2.9,19.2-10.6,24-17.5c1.4-2,2.6-3.9,3.5-5.6c1.1-2,1.8-3.7,2.3-4.9c0.2-0.6,0.4-1,0.5-1.4
				C241.7,200.5,240.8,200.4,240,200.3z"/>
			<path fill="#008000" d="M172.1,206.1c-1.9-3.5-2.8-6.1-2.8-6.1l0,0c-0.4,0-0.8,0-1.2,0.1c-1.8,0.1-3.5,0.3-5.1,0.6
				c0.1,0.3,0.3,0.7,0.4,1.1c0.5,1.2,1.2,2.8,2.3,4.8c3.8,7.1,11.5,18.1,24.8,22.6c3.5,1.2,7.5,1.9,11.8,2v-5.5c-3.7,0-7-0.6-10-1.6
				C181.6,220.6,175.3,212,172.1,206.1z"/>
		</g>
		<g>
			<path fill="#D1A586" d="M154.4,155.1c-0.9-5.2-1.7-19.4-3-24.6c-3.3-12.7-4.4-29,0.1-43c-3.5,2.2-6,8.1-7,11.3
				c-4.5,14.1,2.2,40,2.2,40h-3.1c0,0-0.7-3.2-1.9-7.5c-0.6,1-1.7,1.4-1.3,3.4c0.4,2.7,1.7,2.9,2.4,3.5c0.7,0.6,1.6,1.1,2,2.2
				c0.4,1.1,0.5,2.3,0.3,3.4c-0.5,1.9-3.3,0.4-5.1-0.4c-1.2-0.6-2.5-3.9-3.5-5c-2.5-2.8-3.7-8.3-1.7-11.4c2.3-3.7,6.4,5.3,8.2,6.1
				c-0.4-1.2-0.4-9.1-0.9-10.2c-7.3-6.1-11.8,0.7-11.1,9.2c1,11.7,15.3,17.8,15.1,16.4c3.9,21.2,22.1,35.3,40.4,40.4
				c0-0.2,0.1-0.4,0.1-0.6C172.1,183.3,157.5,172.1,154.4,155.1z"/>
			<path fill="#D1A586" d="M170.9,62.7c-1.1,0.5-2.4,1.5-3.9,2.9c1.8-1.3,3.8-2.4,5.9-3.4C172.3,62.2,171.6,62.4,170.9,62.7z"/>
			<path fill="#BD967F" d="M134.6,126.8c-2,3.1-0.8,8.6,1.7,11.4c1,1.1,2.2,4.4,3.5,5c1.9,0.9,4.7,2.4,5.1,0.4
				c0.2-1,0.2-2.2-0.3-3.4c-0.4-1.1-1.3-1.6-2-2.2c-0.7-0.6-1.9-0.8-2.4-3.5c-0.3-2,0.7-2.4,1.3-3.4c-0.6-2.1,1.7-5.1-2.2-6.8
				C137.6,123.5,136.9,123.1,134.6,126.8z"/>
			<path fill="#DCB598" d="M252.4,138.7c0,0,6.7-25.9,2.2-40c-0.2-0.5-0.7-1.3-1.6-2.5c1.9,11.7,0.7,24.1-1.9,34.2
				c-1.4,5.3-2.1,19.4-3,24.6c-2.9,16.2-16.4,27.9-31,32.9c0,0.1,0,0.1,0,0.2c17.6-5.4,34.7-19.3,38.5-39.8
				c-0.2,1.4,14.2-4.7,15.1-16.4c0.8-10.4-7.2-13.1-12.3-9.1c-3.1,7.8-4.5,15.8-4.5,15.8H252.4z M256.8,140.3c0.4-1.1,1.3-1.6,2-2.2
				c0.7-0.6,1.9-0.8,2.4-3.5c0.4-2.4-1.3-2.5-1.7-4.1c-0.7-2.8,0.2-4.3,1.4-5.4c1.1-1,3-3.1,5.9,1.6c2,3.1,0.8,8.6-1.7,11.4
				c-1,1.1-2.2,4.4-3.5,5c-1.9,0.9-4.7,2.4-5.1,0.4C256.3,142.6,256.4,141.4,256.8,140.3z"/>
			<path fill="#BD967F" d="M261.7,143.2c1.2-0.6,2.5-3.9,3.5-5c2.5-2.8,3.7-8.3,1.7-11.4c-2.9-4.7-4.8-2.7-5.9-1.6
				c-1.2,1.1-2.1,2.6-1.4,5.4c0.4,1.6,2.1,1.7,1.7,4.1c-0.4,2.7-1.7,2.9-2.4,3.5c-0.7,0.6-1.6,1.1-2,2.2c-0.4,1.1-0.5,2.3-0.3,3.4
				C257,145.5,259.8,144,261.7,143.2z"/>
			<path fill="#DFBC99" d="M201.7,161.3L201.7,161.3l0,20.5c0,0,0,0,0,0V161.3z"/>
			<path fill="#DFBC99" d="M186.4,188.1c-14.2-4.8-28.8-16-31.9-33c-0.9-5.2-1.7-19.4-3-24.6c-3.3-12.7-4.4-29,0.1-43
				c0.7-0.5,1.5-0.8,2.4-0.8c0,0,3.1-2.7,4.5-8c1-3.8,5-9.5,8.7-13c1.8-1.3,3.8-2.4,5.9-3.4c2.6-0.3,6-2.4,6-2.4s2.1-2,13-4
				c1.2-0.1,3.4-0.6,4.7-0.7c1,0.1,1.7-0.3,2.6-0.1c0.2,0.1,0.9-0.1,1.1,0c0.2,0.1,1.2-0.4,1.4-0.3v106.6h0v20.5v8.9
				c0,0-0.1,0-0.1,0c-0.2,0-0.3,0-0.5,0c-0.1,0-0.2,0-0.3,0c-0.1,0-0.2,0-0.3,0c0,0-0.1,0-0.1,0v0
				C195.7,191.1,186.4,188.1,186.4,188.1z"/>
			<path fill="#131213" d="M141.6,131.2c0.1-0.2,0.2-0.4,0.3-0.7"/>
			<path fill="#131213" d="M141.9,130.5c-0.1,0.3-0.2,0.5-0.3,0.7c1.2,4.3,1.9,7.5,1.9,7.5h3.1c0,0-6.8-25.9-2.2-40
				c1-3.2,3.5-9.2,7-11.3c1.6-5,3.9-9.7,7.1-13.9c2.4-3.1,5.2-5.7,8.4-8c1.4-1.4,2.8-2.4,3.9-2.9c0.7-0.3,1.4-0.5,2-0.5
				c5.9-2.8,12.1-4.7,20.1-5.4c0.1,0,0.8-0.1,1-0.1c1.2-0.2,1.8-0.8,2.9-0.8c0.9,0,2.5-0.8,3.5-0.8c0.2,0,0.7-0.2,0.9-0.2
				c0.1,0,0.1,0,0.2,0c0.2,0,0.1,1.8,0.2,1.8c5.2,0,10,0.5,14.5,1.3c0,0,0,0,0,0l0,0c12,2.3,21.3,7.5,27.6,15.6
				c5,6.5,7.9,14.4,9.2,22.7c0.8,1.1,1.4,2,1.6,2.5c4.6,14.1-2.2,40-2.2,40h3.1c0,0-0.6,0.2,1.5-7.4c0.8-2.8,0.8-4.4,1.1-6.2
				c2.7-32.6,2.3-82.5-57.3-82.5c0,0-0.1,0-0.1,0c0,0-0.1,0-0.1,0c-59.6,0-61.6,44.8-59,77.5"/>
			<path fill="#131213" d="M178,60.9c0,0,5-2,15.9-4c-8,0.7-15,2.4-20.9,5.2C175.5,61.9,178,60.9,178,60.9z"/>
			<path fill="#131213" d="M158.4,78.6c1-3.8,5-9.5,8.7-13c-3.2,2.2-6,4.9-8.4,8c-3.2,4.1-5.5,8.9-7.1,13.9c0.7-0.5,1.5-0.8,2.4-0.8
				C153.9,86.6,157,83.9,158.4,78.6z"/>
			<path fill="#EFCFAB" d="M253,96.3"/>
			<path fill="#EFCFAB" d="M217,188c-3.8,1.3-7.6,2.2-11.4,2.5c-0.1,0-0.2,0-0.3,0c-0.4,0-0.9,0.1-1.3,0.1c-0.2,0-0.4,0-0.6,0
				c-0.6,0-1.1,0-1.7,0.1v-8.9v-20.5V62.8l-0.3-8c0,0,47.9-2.5,51.7,41.5c1.9,11.7,0.7,24.1-1.9,34.2c-1.4,5.3-2.1,19.4-3,24.6
				C245.1,171.3,231.7,182.9,217,188L217,188z"/>
		</g>
	</g>
</g>
</svg>
