<?xml version="1.0" encoding="utf-8"?>
<!-- Generator: Adobe Illustrator 18.0.0, SVG Export Plug-In . SVG Version: 6.00 Build 0)  -->
<!DOCTYPE svg PUBLIC "-//W3C//DTD SVG 1.1//EN" "http://www.w3.org/Graphics/SVG/1.1/DTD/svg11.dtd">
<svg version="1.1" id="Capa_1" xmlns="http://www.w3.org/2000/svg" xmlns:xlink="http://www.w3.org/1999/xlink" x="0px" y="0px"
	 viewBox="0 0 100 150" enable-background="new 0 0 100 150" xml:space="preserve">
<g>
	<path fill="#C1272D" d="M74.5,55c-2.2-4.8-4.7-9.4-7.5-13.4c0,0-6.4-11.6-17.3-12.5c0,0,0-0.1,0-0.1H50v93.8v1.2c0,0-0.2,0-0.2,0
		c9.9,0,18.9-4.8,25-11.7C66,84.3,72,62.2,74.5,55z"/>
	<path fill="#EA3636" d="M31.4,43.6c-2.2,3.4-4.4,7.3-6.3,11.5c2.6,7.2,8.5,28.6-0.1,56.5c6.2,6.9,15,11.3,25,11.3V29.2
		C47,29.2,39.1,31.7,31.4,43.6z"/>
	<path fill="#C1272D" d="M25.1,55.1c-2.6,5.7-4.8,12-6.4,18.2l0,0.1c0,0-1.2,3.1-1.8,8.6l0,0c-0.4,2.7-0.6,5.1-0.6,7.2
		c0,8.5,3.3,16.3,8.6,22.3C33.5,83.7,27.6,62.2,25.1,55.1z"/>
	<path fill="#991721" d="M74.5,55.1c2.6,5.7,4.8,12,6.4,18.2l0,0.1c0,0,1.2,3.1,1.8,8.6l0,0c0.4,2.7,0.6,5.1,0.6,7.2
		c0,8.5-3.3,16.3-8.6,22.3C66.1,83.7,72,62.2,74.5,55.1z"/>
	<path fill="#FFFFFF" d="M45.4,43.8c-0.3-0.7-0.6-1.4-1-2c0,0-0.8-1.8-2.5-1.9l-0.1,0l0-0.1c-0.5,0-1.6,0.2-2.8,1.9
		c-0.4,0.5-0.7,1-1,1.6c-0.4,0.8-0.8,1.7-1.1,2.6l0.2,0c0,0-0.1,0.4-0.1,1.3v0c0,0.4-0.3,0.8-0.4,1.1c-0.1,1.3,0.2,2.5,0.9,3.4
		c0.9,1.1,2,1.8,3.5,1.9l0,0c0,0,0.1,0,0.1,0c1.5,0.1,2.8-0.4,3.8-1.4c0.8-0.8,1.4-2,1.5-3.3C46.5,47.7,46.1,45.6,45.4,43.8z"/>
	<polygon fill="#FBB03B" points="50,55 50,63.9 58.7,55 	"/>
	<polygon fill="#FBB03B" points="64,120.1 57.6,126.5 70.4,126.5 	"/>
	<polygon fill="#F9DF1E" points="35.6,120.1 29.3,126.5 42,126.5 	"/>
	<polygon fill="#F9DF1E" points="41,55 50,63.9 50,55 	"/>
	<circle fill="#333333" cx="41.7" cy="48.6" r="2"/>
	<path fill="#E6E6E6" d="M61.6,43.4c-0.4-0.7-0.8-1.3-1.2-1.9c0,0-1-1.7-2.6-1.7c0,0-0.1,0-0.1,0l0-0.1c-0.5,0-1.6,0.4-2.6,2.2
		c-0.3,0.5-0.6,1.1-0.8,1.7c-0.4,0.9-0.6,1.8-0.8,2.7l-0.1,0c0,0-0.3,0.5-0.3,1.3v0c0,0.4,0,0.8,0,1.1c0.1,1.3,0.6,2.4,1.4,3.3
		c1,1,2.2,1.6,3.8,1.5l0,0c0,0,0.1,0,0.1,0c1.5-0.1,2.8-0.7,3.7-1.7c0.8-0.9,1.2-2.1,1.1-3.4C63.1,47.2,62.5,45.2,61.6,43.4z"/>
	<circle fill="#333333" cx="58.4" cy="48.6" r="2"/>
</g>
</svg>
