<?xml version="1.0" encoding="utf-8"?>
<!-- Generator: Adobe Illustrator 18.0.0, SVG Export Plug-In . SVG Version: 6.00 Build 0)  -->
<!DOCTYPE svg PUBLIC "-//W3C//DTD SVG 1.1//EN" "http://www.w3.org/Graphics/SVG/1.1/DTD/svg11.dtd">
<svg version="1.1" id="Capa_1" xmlns="http://www.w3.org/2000/svg" xmlns:xlink="http://www.w3.org/1999/xlink" x="0px" y="0px"
	 viewBox="0 0 100 150" enable-background="new 0 0 100 150" xml:space="preserve">
<g>
	<path fill="#FFCD01" d="M40.2,117.3c0.2,1.3-0.7,2.4-1.9,2.6L22,122.3c-1.3,0.2-2.4-0.7-2.6-1.9l0,0c-0.2-1.3,0.7-2.4,1.9-2.6
		l16.2-2.4C38.8,115.2,40,116,40.2,117.3L40.2,117.3z"/>
	<path fill="#FFCD01" d="M41.3,118.7c0.4,1.2-0.2,2.5-1.4,3l-15.4,5.6c-1.2,0.4-2.5-0.2-3-1.4l0,0c-0.4-1.2,0.2-2.5,1.4-3l15.4-5.6
		C39.5,116.9,40.8,117.6,41.3,118.7L41.3,118.7z"/>
	<path fill="#FFCD01" d="M49.3,122.5c-0.2,0.9-0.9,1.6-1.8,1.5L37,122.3c-0.8-0.1-1.4-1-1.2-1.9l0,0c0.2-0.9,0.9-1.6,1.8-1.5
		l10.6,1.7C48.9,120.7,49.5,121.6,49.3,122.5L49.3,122.5z"/>
	<path fill="#FFA801" d="M60.6,117.9c-0.2,1.3,0.7,2.4,1.9,2.6l16.2,2.4c1.3,0.2,2.4-0.7,2.6-1.9l0,0c0.2-1.3-0.7-2.4-1.9-2.6
		L63.2,116C61.9,115.8,60.7,116.7,60.6,117.9L60.6,117.9z"/>
	<path fill="#FFA801" d="M59.5,119.4c-0.4,1.2,0.2,2.5,1.4,3l15.4,5.6c1.2,0.4,2.5-0.2,3-1.4l0,0c0.4-1.2-0.2-2.5-1.4-3L62.4,118
		C61.2,117.6,59.9,118.2,59.5,119.4L59.5,119.4z"/>
	<path fill="#FFA801" d="M51.4,123.2c0.2,0.9,0.9,1.6,1.8,1.5l10.6-1.7c0.8-0.1,1.4-1,1.2-1.9l0,0c-0.2-0.9-0.9-1.6-1.8-1.5
		l-10.6,1.7C51.8,121.4,51.3,122.2,51.4,123.2L51.4,123.2z"/>
	<path fill="#E74C3C" d="M71.6,52c-3.1-5.1-5.4-14.5-5.4-14.5c-5.5-15.1-14.2-15.6-16.2-15.4l0,0c0,0-12-2.1-17.1,15.4
		c0,0-2.3,9.4-5.4,14.5c-2.2,3.5-1.1,8.3,2.4,10.5c3.3,2.1,9.2,3.7,19.6,3.4c10.4,0.2,16.3-1.3,19.6-3.4
		C72.8,60.3,73.8,55.6,71.6,52z"/>
	<path fill="#E74C3C" d="M79.5,98.4c0,19-13.4,21.9-29.9,21.9s-29.9-2.9-29.9-21.9s13.4-46.9,29.9-46.9S79.5,79.4,79.5,98.4z"/>
	<path fill="#C0392C" d="M49.8,22.1L49.8,22.1c0,0,12-2.1,17.1,15.4c0,0,2.3,9.4,5.4,14.5c2.2,3.5,1.1,8.3-2.4,10.5
		c-3.3,2.1-9.2,3.7-19.6,3.4"/>
	<path fill="#C0392C" d="M50.3,120.3c16.5,0,29.9-2.9,29.9-21.9S66.8,51.5,50.3,51.5"/>
	<path fill="#FFFFFF" d="M47,42.3c-0.5,2.5-2.1,2.7-4,2.3c-1.9-0.4-3.3-1.1-2.8-3.7s2.6-5.3,4.5-4.9C46.5,36.4,47.5,39.8,47,42.3z"
		/>
	<path fill="#FFFFFF" d="M53.2,42.3c0.5,2.5,2.1,2.7,4,2.3c1.9-0.4,3.3-1.1,2.8-3.7s-2.6-5.3-4.5-4.9C53.7,36.4,52.7,39.8,53.2,42.3
		z"/>
	<path fill="#E74C3C" d="M47.6,22c0,0-1.3-2.1-0.2-3.9c0.2-0.3,0.6-0.3,0.8,0c0.3,0.7,0.7,2.1,0.1,3.9C47.4,24.8,47.6,22,47.6,22z"
		/>
	<path fill="#E74C3C" d="M47.8,22.5c0,0-0.4-2.4,1.4-3.7c0.3-0.2,0.7,0,0.7,0.3c0,0.8-0.2,2.2-1.5,3.6
		C46.5,24.9,47.8,22.5,47.8,22.5z"/>
	<path fill="#F59D00" d="M44.7,54.4c0,0,2.9,2.6,5.4,2.4c0,0,3.3-0.1,5.3-2.4c0,0-2.5-0.7-5.4-0.8C48.2,53.4,46.2,53.6,44.7,54.4z"
		/>
	<path fill="#E87E04" d="M50.1,53.6v3.1c0,0,3.3,0,5.3-2.4C55.5,54.4,50.7,53.2,50.1,53.6z"/>
	<circle fill="#3C3C3B" cx="43.6" cy="42.3" r="1.4"/>
	<circle fill="#3C3C3B" cx="56.6" cy="42.3" r="1.4"/>
	<g>
		<path fill="#3C3C3B" d="M41.6,34.1c0,0,0.1-0.4,0.5-0.8c0.4-0.4,1-0.8,1.8-0.8c0.2,0,0.4,0,0.6,0.1c0.2,0,0.4,0.1,0.5,0.2
			c0.3,0.2,0.6,0.4,0.7,0.6c0.2,0.2,0.3,0.4,0.4,0.5c0.1,0.1,0.1,0.2,0.1,0.2s-0.1,0-0.2-0.1c-0.1,0-0.3-0.1-0.6-0.2
			c-0.2-0.1-0.5-0.2-0.7-0.2c-0.3,0-0.5-0.1-0.8-0.1c-0.3,0-0.5,0-0.8,0.1c-0.3,0.1-0.5,0.1-0.7,0.2C41.9,34,41.6,34.1,41.6,34.1z"
			/>
	</g>
	<g>
		<path fill="#3C3C3B" d="M53.6,34.1c0,0,0.1-0.4,0.5-0.8c0.4-0.4,1-0.8,1.8-0.8c0.2,0,0.4,0,0.6,0.1c0.2,0,0.4,0.1,0.5,0.2
			c0.3,0.2,0.6,0.4,0.7,0.6c0.2,0.2,0.3,0.4,0.4,0.5c0.1,0.1,0.1,0.2,0.1,0.2s-0.1,0-0.2-0.1c-0.1,0-0.3-0.1-0.6-0.2
			c-0.2-0.1-0.5-0.2-0.7-0.2c-0.3,0-0.5-0.1-0.8-0.1c-0.3,0-0.5,0-0.8,0.1c-0.3,0.1-0.5,0.1-0.7,0.2C53.9,34,53.6,34.1,53.6,34.1z"
			/>
	</g>
	<path fill="#C23824" d="M31.4,63.3c0,0,1.6,19.1-11.7,38.3c0,0-3.5-14.7,2.1-25.8C21.8,75.7,25.6,67.1,31.4,63.3z"/>
	<path fill="#982714" d="M68.4,63.3c0,0-1.6,19.1,11.7,38.3c0,0,3.5-14.7-2.1-25.8C78,75.7,74.2,67.1,68.4,63.3z"/>
	<path fill="#FFCD01" d="M50.1,48.6c0,0-2.1,0.3-3.8,3.9c0,0-1.3,1.4-2,1.9c0,0,3.8-0.5,5.8,0.4"/>
	<path fill="#FFA801" d="M50.1,48.6c0,0,2.1,0.3,3.8,3.9c0,0,1.3,1.4,2,1.9c0,0-3.8-0.5-5.8,0.4"/>
</g>
</svg>
