<?xml version="1.0" encoding="utf-8"?>
<!-- Generator: Adobe Illustrator 19.2.0, SVG Export Plug-In . SVG Version: 6.00 Build 0)  -->
<svg version="1.1" id="Capa_1" xmlns="http://www.w3.org/2000/svg" xmlns:xlink="http://www.w3.org/1999/xlink" x="0px" y="0px"
	 viewBox="0 0 40 40" style="enable-background:new 0 0 40 40;" xml:space="preserve">
<style type="text/css">
	.st0{fill:#00AFEC;}
	.st1{fill:#3FCAEF;}
	.st2{fill:#0D78D1;}
	.st3{fill:#FFFFFF;}
</style>
<circle class="st0" cx="20" cy="20" r="18.9"/>
<circle class="st1" cx="28.5" cy="9.3" r="3.5"/>
<g>
	<path class="st2" d="M22.1,24.3h-4v4.8c0,0.4-0.4,0.8-0.8,0.8h-2.1c-0.4,0-0.8-0.4-0.8-0.8V12.8c0-0.4,0.4-0.8,0.8-0.8h6.9
		c3.2,0,5.5,2,5.5,5.6v0.8C27.6,22,25.2,24.3,22.1,24.3z M18.1,15.5v5.3h3.7c1.2,0,2.1-0.9,2.1-2.5V18c0-1.6-0.9-2.5-2.1-2.5H18.1z"
		/>
</g>
<g>
	<path class="st3" d="M21.1,23.3h-4v4.8c0,0.4-0.4,0.8-0.8,0.8h-2.1c-0.4,0-0.8-0.4-0.8-0.8V11.8c0-0.4,0.4-0.8,0.8-0.8h6.9
		c3.2,0,5.5,2,5.5,5.6v0.8C26.6,21,24.2,23.3,21.1,23.3z M17.1,14.5v5.3h3.7c1.2,0,2.1-0.9,2.1-2.5V17c0-1.6-0.9-2.5-2.1-2.5H17.1z"
		/>
</g>
</svg>
