<?xml version="1.0" encoding="utf-8"?>
<!-- Generator: Adobe Illustrator 18.0.0, SVG Export Plug-In . SVG Version: 6.00 Build 0)  -->
<!DOCTYPE svg PUBLIC "-//W3C//DTD SVG 1.1//EN" "http://www.w3.org/Graphics/SVG/1.1/DTD/svg11.dtd">
<svg version="1.1" id="Layer_1" xmlns="http://www.w3.org/2000/svg" xmlns:xlink="http://www.w3.org/1999/xlink" x="0px" y="0px"
	 viewBox="0 0 400 400" enable-background="new 0 0 400 400" xml:space="preserve">
<circle fill="#FFFFFF" cx="200" cy="200" r="190.3"/>
<circle fill="#D1D4D5" cx="200" cy="200" r="181.2"/>
<g>
	<defs>
		<circle id="SVGID_1_" cx="200" cy="200" r="181.2"/>
	</defs>
	<clipPath id="SVGID_2_">
		<use xlink:href="#SVGID_1_"  overflow="visible"/>
	</clipPath>
	<g clip-path="url(#SVGID_2_)">
		<path fill="#DFBA98" d="M137.1,326.3l-11.5-1.3l-18.7-2.1l-7.3-0.8c-0.7,10.4-1,21.7-0.9,34c0,0-0.2,2.2-0.5,6
			c9.4,3.8,19,7.2,28.9,9.9l0.1-0.7c0,0,7-11.3,12.5-27.8l1-7.8l1.2-8.8L137.1,326.3z"/>
		<path fill="#DFBA98" d="M203.1,186c-14.4-0.1-22.9-10.3-25.3-13.7c0,0.1,0,0.2-0.1,0.3c-0.3,1.9-0.6,3.6-1,5.3
			c-1.8,8.1-4.2,14.1-7.6,16.8l0,0c0,0,0.9,2.6,2.9,6.3c3.4,6.1,9.9,14.9,20.7,18.5c3.1,1,6.5,1.7,10.4,1.7v-19.1L203.1,186
			C203.1,186,203.1,186,203.1,186z"/>
		<path fill="#DFBA98" d="M203.3,221.3v-19.1c0,0-0.1,0-0.2,0v19.1C203.2,221.3,203.2,221.3,203.3,221.3z"/>
		<path fill="#EECFAB" d="M263.6,339c0.1-0.2,0.2-0.5,0.3-0.7c-0.4-1.2-0.7-2.4-1.1-3.7L263.6,339z"/>
		<path fill="#EECFAB" d="M229.5,176.7c-0.3-1.3-0.5-2.6-0.7-4v-0.1c0-0.1,0-0.3-0.1-0.4c-2.3,3.7-10.1,13.9-25.5,13.9
			c0,0-0.1,0-0.1,0v16.1c0,0,0.1,0,0.2,0v19.1l0,0c2.9,0,5.7-0.4,8.2-1c9.8-2.5,16.3-9,20.4-14.9c1.1-1.5,1.9-2.9,2.7-4.3
			c2-3.6,2.9-6.3,2.9-6.3l0,0C233.8,192,231.3,185.4,229.5,176.7z"/>
		<path opacity="0.7" fill="#BD967F" d="M177.9,170.3c-0.1,0.6-0.2,1.3-0.3,1.9c0,0.1,0.1,0.1,0.2,0.2c0.1-0.7,0.2-1.4,0.3-2
			C178,170.3,178,170.3,177.9,170.3z"/>
		<path opacity="0.7" fill="#BD967F" d="M228.7,172.2C228.8,172.2,228.8,172.1,228.7,172.2l0-0.1c-0.1-0.9-0.3-1.8-0.4-2.7
			c0,0,0,0-0.1,0C228.5,170.4,228.6,171.3,228.7,172.2z"/>
		<path fill="#DFBA98" d="M203.1,186C203.1,186,203.1,186,203.1,186l0.1-12.4c0,0-0.1,0-0.1,0c-0.2,0-0.4,0-0.6,0
			c-0.1,0-0.2,0-0.3,0c-0.1,0-0.2,0-0.3,0c-0.1,0-0.2,0-0.2,0c-0.1,0-0.2,0-0.2,0c-7.5,0-15.4-1.1-23.3-3.3c-0.1,0.7-0.2,1.4-0.3,2
			C180.2,175.7,188.7,186,203.1,186z"/>
		<path fill="#EECFAB" d="M209.6,173.3c-0.2,0-0.3,0-0.5,0c-0.7,0.1-1.4,0.1-2.2,0.2c-0.3,0-0.6,0-1,0.1c-1,0.1-1.9,0.1-2.8,0.1V186
			c0,0,0,0,0.1,0c15.4,0,23.2-10.2,25.5-13.9c-0.1-0.9-0.3-1.8-0.4-2.8C222.1,171.4,215.7,172.7,209.6,173.3z"/>
		<path opacity="0.7" fill="#BD967F" d="M228.4,169.4c-6.3,1.9-12.6,3.2-18.8,3.8c-0.2,0-0.3,0-0.5,0c-0.7,0.1-1.4,0.1-2.2,0.2
			c-0.3,0-0.6,0-1,0.1c-1,0.1-1.9,0.1-2.8,0.1c0,0-0.1,0-0.1,0c-0.2,0-0.4,0-0.6,0c-0.1,0-0.2,0-0.3,0c-0.1,0-0.2,0-0.3,0
			c-0.1,0-0.2,0-0.2,0c-0.1,0-0.2,0-0.2,0c-7.5,0-15.4-1.1-23.3-3.3c-0.1,0.7-0.2,1.4-0.3,2c2.4,3.3,10.9,13.6,25.3,13.7
			c0,0,0,0,0.1,0c0,0,0,0,0.1,0c15.4,0,23.2-10.2,25.5-13.9C228.6,171.3,228.5,170.4,228.4,169.4z"/>
		<path fill="#D1A586" d="M178.2,169.4c-0.1,0-0.1,0-0.2-0.1c0,0.3-0.1,0.7-0.1,1c0.1,0,0.1,0,0.2,0
			C178.1,170,178.2,169.7,178.2,169.4z"/>
		<path fill="#D1A586" d="M178.2,169.4c0,0.3-0.1,0.7-0.1,1c7.9,2.2,15.8,3.3,23.3,3.3c0.1,0,0.2,0,0.2,0c-0.1,0-0.2,0-0.3,0
			C194.2,173.5,186.3,172.1,178.2,169.4z"/>
		<path fill="#DCB598" d="M228.3,169.1c0,0.1,0,0.2,0,0.3c0,0,0,0,0.1,0C228.4,169.3,228.4,169.2,228.3,169.1
			C228.4,169.1,228.3,169.1,228.3,169.1z"/>
		<path fill="#DCB598" d="M203,173.6c0,0,0.1,0,0.1,0v0C203.1,173.6,203.1,173.6,203,173.6z"/>
		<path fill="#DCB598" d="M201.6,173.6c0.1,0,0.2,0,0.2,0c0.1,0,0.2,0,0.3,0c-0.1,0-0.3,0-0.4,0
			C201.7,173.6,201.6,173.6,201.6,173.6z"/>
		<path fill="#DCB598" d="M203.2,173.6C203.2,173.6,203.2,173.6,203.2,173.6L203.2,173.6c0.9,0,1.8,0,2.8-0.1
			C205.1,173.6,204.1,173.6,203.2,173.6z"/>
		<path fill="#DCB598" d="M209.1,173.3c-0.7,0.1-1.4,0.1-2.2,0.2C207.7,173.4,208.4,173.4,209.1,173.3z"/>
		<path fill="#DCB598" d="M228.4,169.4c0-0.1,0-0.2,0-0.3c-6.2,2.1-12.5,3.5-18.7,4.2C215.7,172.7,222.1,171.4,228.4,169.4z"/>
		<path fill="#DCB598" d="M201.3,173.6c0.1,0,0.2,0,0.3,0c0,0,0.1,0,0.1,0C201.6,173.6,201.4,173.6,201.3,173.6z"/>
		<path fill="#DFBC99" d="M202.5,173.6c0.2,0,0.4,0,0.6,0c-0.3,0-0.6,0-0.9,0C202.3,173.6,202.4,173.6,202.5,173.6z"/>
		<path fill="#DFBC99" d="M179.6,156.6c0-0.2,0-0.4,0-0.6c0,0-0.1,0-0.1,0c-0.2,2.1-0.4,4.2-0.6,6.3c-0.2,2.4-0.5,4.7-0.9,7
			c0.1,0,0.1,0,0.2,0.1c0.3-2.1,0.6-4.2,0.8-6.5C179.2,160.8,179.4,158.8,179.6,156.6z"/>
		<path fill="#DFBC99" d="M203.1,159.1v14.5c0,0,0,0,0.1,0L203.1,159.1C203.2,159.1,203.2,159.1,203.1,159.1z"/>
		<path fill="#EFCFAB" d="M209.6,173.3c-0.2,0-0.3,0-0.5,0C209.3,173.3,209.4,173.3,209.6,173.3z"/>
		<path fill="#EFCFAB" d="M206.9,173.5c-0.3,0-0.6,0-1,0.1C206.3,173.5,206.6,173.5,206.9,173.5z"/>
		<path fill="#EFCFAB" d="M226.9,155.8C226.9,155.8,226.9,155.8,226.9,155.8c0,0.2,0,0.4,0,0.6c0.2,2.1,0.4,4.1,0.6,6.1
			c0.3,2.3,0.5,4.5,0.8,6.6c0,0,0,0,0.1,0c-0.3-2.3-0.6-4.6-0.9-7.1C227.3,159.9,227.1,157.9,226.9,155.8z"/>
		<path fill="#EECFAB" d="M306.3,355.3c0.1-13.6-0.4-26.1-1.2-37.5l-14.1,1.6l-18.7,2.1l-2.5,0.3l-7.7,0.9l-1.1,0.1l1.1,6.6l0.9,5.2
			c0.3,1.3,0.7,2.5,1.1,3.7c4.9,16.2,11.6,28.2,13.4,31.4c10-3.1,19.7-6.8,29.2-11.1C306.4,356.5,306.3,355.3,306.3,355.3z"/>
		<path fill="#FCDB0D" d="M237.6,194.8c0,0,0.1,0,0.2,0C237.7,194.8,237.7,194.8,237.6,194.8z"/>
		<path fill="#FCDB0D" d="M238.1,194.8c0.1,0,0.3,0,0.4,0C238.4,194.8,238.2,194.8,238.1,194.8z"/>
		<path fill="#FCDB0D" d="M240.6,194.9c0.3,0,0.6,0.1,0.9,0.1C241.2,194.9,240.9,194.9,240.6,194.9z"/>
		<path fill="#FCDB0D" d="M238.9,194.8c0.3,0,0.7,0,1.2,0.1C239.7,194.8,239.3,194.8,238.9,194.8z"/>
		<path fill="#FCDB0D" d="M262.9,334.6l-0.9-5.2c0.1,1.6,0.2,2.9,0.5,3.9C262.6,333.7,262.8,334.2,262.9,334.6z"/>
		<g>
			<path fill="#FFFFFF" d="M244.6,195.4c0.1,0,0.2,0,0.3,0c0,0,0,0,0,0C244.7,195.4,244.7,195.4,244.6,195.4z"/>
			<path fill="#FFFFFF" d="M291,231.9c-6-10.1-12.4-17.4-18.7-22.7c-8-6.9-15.7-10.5-21.8-12.4c-2.1-0.7-4-1.1-5.7-1.4
				c-0.1,0.3-0.3,0.8-0.5,1.4c-0.5,1.2-1.3,3-2.4,5.1c-1,1.8-2.1,3.8-3.6,5.8c-4.9,7.1-12.9,15.1-24.7,18.1c-3,0.8-6.3,1.2-9.9,1.2
				c-0.1,0-0.3,0-0.4,0l-0.2,0c-4.5-0.1-8.5-0.8-12.2-2c-13.7-4.6-21.6-15.9-25.6-23.3c-1.1-2.1-1.9-3.8-2.4-5
				c-0.2-0.5-0.4-0.9-0.5-1.2c1.7-0.3,3.5-0.5,5.3-0.6c-6.8,0.5-13,2-18.7,4.6c-9.1,4-16.9,10.2-23.6,17.9
				c-7.5,8.6-13.7,18.9-18.7,29.6c-16.1,34.6-20.2,73.6-20.2,73.6l12.9,1.5l7.3,0.8l18.7,2.1l11.5,1.3l4.8,0.6l-1.2,8.8l-1,7.8
				l-4.1,30.7c3,0.7,6.1,1.4,9.2,2.1c17.3,3.6,35.3,5.5,53.7,5.5c1.6,0,3.3,0,4.9-0.1c19.9-0.4,39.3-2.9,57.9-7.5
				c2.6-0.6,5.2-1.3,7.8-2l-5.4-33.1l-0.7-4.4c-0.1-0.4-0.2-0.9-0.4-1.3c-0.3-1-0.4-2.3-0.5-3.9l-1.1-6.6l1.1-0.1l7.7-0.9l2.5-0.3
				l18.7-2.1l14.1-1.6l11-1.2C311.4,276.8,301.8,250,291,231.9z"/>
		</g>
		<path fill="#1B75B9" d="M237.8,194.8c0.1,0,0.2,0,0.3,0C238,194.8,237.9,194.8,237.8,194.8z"/>
		<path fill="#1B75B9" d="M238.5,194.8c0.1,0,0.3,0,0.4,0C238.8,194.8,238.6,194.8,238.5,194.8z"/>
		<path fill="#1B75B9" d="M241.5,195c0.2,0,0.4,0,0.5,0.1C241.9,195,241.7,195,241.5,195z"/>
		<path fill="#1B75B9" d="M240.1,194.8c0.2,0,0.3,0,0.5,0C240.4,194.9,240.3,194.9,240.1,194.8z"/>
		<path fill="#1B75B9" d="M237.6,194.8c-0.1,0-0.2,0-0.2,0l0,0C237.4,194.8,237.5,194.8,237.6,194.8z"/>
		<polygon fill="#1B75B9" points="237.4,194.8 237.4,194.8 237.4,194.8 		"/>
		<path fill="#1B75B9" d="M203.3,221.3c-0.1,0-0.1,0-0.2,0v5.7c0.1,0,0.1,0,0.2,0V221.3z"/>
		<g>
			<path fill="#131213" d="M242.1,195c-0.2,0-0.4,0-0.5-0.1c-0.3,0-0.6-0.1-0.9-0.1c-0.2,0-0.3,0-0.5,0c-0.5,0-0.9,0-1.2-0.1
				c-0.1,0-0.3,0-0.4,0c-0.2,0-0.3,0-0.4,0c-0.1,0-0.2,0-0.3,0c-0.1,0-0.1,0-0.2,0c-0.1,0-0.2,0-0.2,0l0,0c0,0-0.9,2.7-2.9,6.3
				c-0.7,1.3-1.6,2.8-2.7,4.3c-4.1,5.9-10.7,12.5-20.4,14.9c-2.5,0.6-5.2,1-8.2,1l0,0l0,5.7c0.1,0,0.3,0,0.4,0
				c3.6,0,6.9-0.4,9.9-1.2c11.8-3,19.8-10.9,24.7-18.1c1.4-2.1,2.6-4.1,3.6-5.8c1.1-2.1,1.9-3.8,2.4-5.1c0.2-0.6,0.4-1.1,0.5-1.4
				C243.8,195.2,242.9,195.1,242.1,195z"/>
			<path fill="#131213" d="M172,201.1c-2-3.6-2.9-6.3-2.9-6.3l0,0c-0.4,0-0.9,0-1.3,0.1c-1.8,0.1-3.6,0.3-5.3,0.6
				c0.1,0.3,0.3,0.7,0.5,1.2c0.5,1.2,1.3,2.9,2.4,5c3.9,7.4,11.9,18.7,25.6,23.3c3.6,1.2,7.7,2,12.2,2v-5.7c-3.8,0-7.3-0.6-10.4-1.7
				C181.9,216,175.4,207.1,172,201.1z"/>
		</g>
		<g>
			<path fill="#D1A586" d="M153.9,148.4c-1-5.4-1.7-20-3.1-25.4c-3.4-13.1-4.5-29.9,0.1-44.4c-3.6,2.2-6.2,8.4-7.2,11.7
				c-4.7,14.5,2.3,41.2,2.3,41.2h-3.2c0,0-0.7-3.3-2-7.7c-0.6,1-1.7,1.4-1.4,3.5c0.5,2.8,1.7,2.9,2.5,3.6c0.7,0.6,1.6,1.1,2.1,2.3
				c0.4,1.2,0.5,2.4,0.3,3.5c-0.5,2-3.4,0.4-5.3-0.5c-1.3-0.6-2.6-4-3.6-5.2c-2.6-2.9-3.8-8.5-1.8-11.7c2.4-3.8,6.6,5.4,8.5,6.3
				c-0.4-1.2-0.4-9.3-0.9-10.5c-7.6-6.3-12.2,0.7-11.5,9.5c1,12.1,15.8,18.4,15.6,17c4,21.9,22.8,36.5,41.6,41.6
				c0-0.2,0.1-0.4,0.1-0.6C172.1,177.5,157,166,153.9,148.4z"/>
			<path fill="#D1A586" d="M170.8,53.1c-1.1,0.5-2.5,1.6-4,3c1.9-1.3,3.9-2.5,6.1-3.5C172.3,52.6,171.6,52.8,170.8,53.1z"/>
			<path fill="#BD967F" d="M133.4,119.2c-2,3.2-0.8,8.8,1.8,11.7c1,1.2,2.3,4.6,3.6,5.2c1.9,0.9,4.8,2.5,5.3,0.5
				c0.3-1,0.2-2.3-0.3-3.5c-0.5-1.2-1.4-1.6-2.1-2.3c-0.7-0.6-2-0.8-2.5-3.6c-0.3-2,0.7-2.5,1.4-3.5c-0.6-2.2,1.8-5.3-2.3-7
				C136.4,115.9,135.8,115.4,133.4,119.2z"/>
			<path fill="#DCB598" d="M254.9,131.5c0,0,7-26.7,2.3-41.2c-0.2-0.5-0.8-1.4-1.6-2.5c1.9,12.1,0.7,24.9-2,35.2
				c-1.4,5.4-2.1,20.1-3.1,25.4c-3,16.7-16.9,28.7-32,33.9c0,0.1,0,0.1,0,0.2c18.1-5.6,35.8-19.9,39.7-41c-0.2,1.4,14.6-4.9,15.6-17
				c0.9-10.7-7.4-13.5-12.7-9.3c-3.2,8.1-4.6,16.3-4.6,16.3H254.9z M259.4,133.1c0.5-1.2,1.4-1.6,2.1-2.3c0.7-0.6,2-0.8,2.5-3.6
				c0.4-2.5-1.3-2.6-1.7-4.2c-0.8-2.9,0.2-4.4,1.4-5.6c1.2-1.1,3.1-3.2,6.1,1.7c2,3.2,0.8,8.8-1.8,11.7c-1,1.2-2.3,4.6-3.6,5.2
				c-1.9,0.9-4.8,2.5-5.3,0.5C258.9,135.5,259,134.3,259.4,133.1z"/>
			<path fill="#BD967F" d="M264.5,136.1c1.3-0.6,2.6-4,3.6-5.2c2.6-2.9,3.8-8.5,1.8-11.7c-3-4.9-5-2.8-6.1-1.7
				c-1.2,1.2-2.2,2.7-1.4,5.6c0.4,1.6,2.1,1.7,1.7,4.2c-0.5,2.8-1.7,2.9-2.5,3.6c-0.7,0.6-1.6,1.1-2.1,2.3c-0.4,1.2-0.5,2.4-0.3,3.5
				C259.6,138.6,262.5,137,264.5,136.1z"/>
			<path fill="#DFBC99" d="M202.6,154.9L202.6,154.9l0,21.2c0,0,0,0,0,0V154.9z"/>
			<path fill="#DFBC99" d="M186.8,182.5c-14.7-4.9-29.7-16.5-32.9-34.1c-1-5.4-1.7-20-3.1-25.4c-3.4-13.1-4.5-29.9,0.1-44.4
				c0.8-0.5,1.6-0.8,2.4-0.8c0,0,3.2-2.8,4.6-8.3c1-4,5.2-9.8,8.9-13.4c1.9-1.3,3.9-2.5,6.1-3.5c2.7-0.3,6.2-2.5,6.2-2.5
				s2.2-2,13.4-4.1c1.3-0.1,3.5-0.6,4.9-0.7c1,0.1,1.7-0.4,2.6-0.1c0.2,0.1,0.9-0.1,1.1,0c0.2,0.1,1.2-0.4,1.4-0.3v109.9h0V176v9.1
				c0,0-0.1,0-0.1,0c-0.2,0-0.4,0-0.5,0c-0.1,0-0.2,0-0.3,0c-0.1,0-0.2,0-0.3,0c0,0-0.1,0-0.1,0v0
				C196.4,185.6,186.8,182.5,186.8,182.5z"/>
			<path fill="#131213" d="M140.6,123.8c0.1-0.2,0.3-0.4,0.3-0.7"/>
			<path fill="#131213" d="M140.9,123.1c-0.1,0.3-0.2,0.5-0.3,0.7c1.3,4.4,2,7.7,2,7.7h3.2c0,0-7-26.7-2.3-41.2
				c1.1-3.3,3.6-9.4,7.2-11.7c1.7-5.2,4-10,7.3-14.3c2.5-3.2,5.4-5.9,8.7-8.2c1.5-1.4,2.9-2.5,4-3c0.8-0.3,1.5-0.5,2.1-0.6
				c6.1-2.9,12.4-4.9,20.7-5.5c0.1,0,0.9-0.1,1-0.1c1.2-0.2,1.9-0.9,3-0.8c0.9,0,2.6-0.9,3.6-0.9c0.2,0,0.8-0.2,1-0.2
				c0.1,0,0.1,0,0.2,0c0.2,0,0.1,1.8,0.2,1.8c5.4,0,10.3,0.5,14.9,1.4c0,0,0,0,0,0l0,0c12.4,2.3,22,7.7,28.5,16.1
				c5.2,6.7,8.1,14.9,9.5,23.4c0.9,1.2,1.5,2,1.6,2.5c4.7,14.5-2.3,41.2-2.3,41.2h3.2c0,0-0.6,0.2,1.6-7.6c0.8-2.8,0.8-4.5,1.1-6.4
				c2.7-33.7,2.4-85.1-59.1-85.1c0,0-0.1,0-0.2,0c-0.1,0-0.1,0-0.2,0c-61.5,0-63.6,46.2-60.8,79.9"/>
			<path fill="#131213" d="M178.1,51.3c0,0,5.2-2.1,16.4-4.1c-8.3,0.7-15.5,2.5-21.6,5.4C175.6,52.3,178.1,51.3,178.1,51.3z"/>
			<path fill="#131213" d="M157.9,69.5c1-4,5.2-9.8,8.9-13.4c-3.3,2.3-6.2,5-8.7,8.2c-3.3,4.3-5.7,9.1-7.3,14.3
				c0.8-0.5,1.6-0.8,2.4-0.8C153.3,77.8,156.5,75,157.9,69.5z"/>
			<path fill="#EFCFAB" d="M255.5,87.7"/>
			<path fill="#EFCFAB" d="M218.4,182.3c-3.9,1.3-7.9,2.2-11.8,2.6c-0.1,0-0.2,0-0.3,0c-0.5,0-0.9,0.1-1.4,0.1c-0.2,0-0.4,0-0.6,0
				c-0.6,0-1.2,0-1.7,0.1V176v-21.2V53.2l-0.3-8.2c0,0,49.4-2.6,53.3,42.8c1.9,12.1,0.7,24.9-2,35.2c-1.4,5.4-2.1,20.1-3.1,25.4
				C247.4,165.1,233.5,177.1,218.4,182.3L218.4,182.3z"/>
		</g>
	</g>
</g>
</svg>
