<?xml version="1.0" encoding="utf-8"?>
<!-- Generator: Adobe Illustrator 18.0.0, SVG Export Plug-In . SVG Version: 6.00 Build 0)  -->
<!DOCTYPE svg PUBLIC "-//W3C//DTD SVG 1.1//EN" "http://www.w3.org/Graphics/SVG/1.1/DTD/svg11.dtd">
<svg version="1.1" id="Layer_1" xmlns="http://www.w3.org/2000/svg" xmlns:xlink="http://www.w3.org/1999/xlink" x="0px" y="0px"
	 viewBox="0 0 400 400" enable-background="new 0 0 400 400" xml:space="preserve">
<circle fill="#FFFFFF" cx="200" cy="200" r="190.3"/>
<circle fill="#D1D4D5" cx="200" cy="200" r="181.2"/>
<g>
	<defs>
		<circle id="SVGID_1_" cx="200" cy="200" r="181.2"/>
	</defs>
	<clipPath id="SVGID_2_">
		<use xlink:href="#SVGID_1_"  overflow="visible"/>
	</clipPath>
	<g clip-path="url(#SVGID_2_)">
		<path fill="#DFBA98" d="M138.1,326.2l-11.1-1.3l-18.1-2l-7-0.8c-0.6,10.1-1,21.1-0.9,33c0,0-0.2,2.1-0.5,5.8
			c9.1,3.7,18.4,6.9,28,9.6l0-0.7c0,0,6.8-11,12.1-27l1-7.5l1.2-8.6L138.1,326.2z"/>
		<path fill="#DFBA98" d="M202.1,190.2c-14-0.1-22.2-10-24.5-13.2c0,0.1,0,0.2,0,0.3c-0.3,1.8-0.6,3.5-0.9,5.1
			c-1.7,7.8-4.1,13.7-7.4,16.3l0,0c0,0,0.9,2.6,2.8,6.1c3.3,5.9,9.6,14.4,20.1,18c3,1,6.4,1.6,10,1.6v-18.5L202.1,190.2
			C202.1,190.2,202.1,190.2,202.1,190.2z"/>
		<path fill="#DFBA98" d="M202.3,224.4v-18.5c0,0-0.1,0-0.1,0v18.5C202.2,224.4,202.2,224.4,202.3,224.4z"/>
		<path fill="#EECFAB" d="M260.8,338.6c0.1-0.2,0.2-0.5,0.3-0.7c-0.4-1.2-0.7-2.4-1-3.6L260.8,338.6z"/>
		<path fill="#EECFAB" d="M227.7,181.1c-0.3-1.3-0.5-2.5-0.7-3.9v-0.1c0-0.1,0-0.3-0.1-0.4c-2.2,3.6-9.8,13.4-24.8,13.4
			c0,0-0.1,0-0.1,0v15.7c0,0,0.1,0,0.1,0v18.5l0,0c2.9,0,5.5-0.4,7.9-1c9.5-2.4,15.9-8.8,19.8-14.5c1-1.5,1.9-2.9,2.6-4.1
			c2-3.5,2.8-6.1,2.8-6.1l0,0C231.9,196,229.5,189.6,227.7,181.1z"/>
		<path opacity="0.7" fill="#BD967F" d="M177.7,175c-0.1,0.6-0.2,1.2-0.3,1.8c0,0.1,0.1,0.1,0.1,0.2c0.1-0.6,0.2-1.3,0.3-2
			C177.8,175,177.7,175,177.7,175z"/>
		<path opacity="0.7" fill="#BD967F" d="M227,176.8C227,176.8,227,176.7,227,176.8l0-0.1c-0.1-0.8-0.2-1.7-0.4-2.6c0,0,0,0-0.1,0
			C226.7,175,226.8,175.9,227,176.8z"/>
		<path fill="#DFBA98" d="M202.1,190.2C202.1,190.2,202.1,190.2,202.1,190.2l0.1-12.1c0,0-0.1,0-0.1,0c-0.2,0-0.4,0-0.5,0
			c-0.1,0-0.2,0-0.3,0c-0.1,0-0.2,0-0.3,0c-0.1,0-0.2,0-0.2,0c-0.1,0-0.2,0-0.2,0c-7.2,0-14.9-1.1-22.6-3.2c-0.1,0.7-0.2,1.3-0.3,2
			C179.9,180.2,188.1,190.2,202.1,190.2z"/>
		<path fill="#EECFAB" d="M208.4,177.8c-0.1,0-0.3,0-0.4,0c-0.7,0.1-1.4,0.1-2.1,0.2c-0.3,0-0.6,0-0.9,0.1c-0.9,0-1.8,0.1-2.8,0.1
			v12.1c0,0,0,0,0.1,0c14.9,0,22.5-9.9,24.8-13.4c-0.1-0.9-0.3-1.8-0.4-2.7C220.5,176,214.4,177.2,208.4,177.8z"/>
		<path opacity="0.7" fill="#BD967F" d="M226.6,174.1c-6.1,1.9-12.3,3.1-18.2,3.7c-0.1,0-0.3,0-0.4,0c-0.7,0.1-1.4,0.1-2.1,0.2
			c-0.3,0-0.6,0-0.9,0.1c-0.9,0-1.8,0.1-2.8,0.1c0,0-0.1,0-0.1,0c-0.2,0-0.4,0-0.5,0c-0.1,0-0.2,0-0.3,0c-0.1,0-0.2,0-0.3,0
			c-0.1,0-0.2,0-0.2,0c-0.1,0-0.2,0-0.2,0c-7.2,0-14.9-1.1-22.6-3.2c-0.1,0.7-0.2,1.3-0.3,2c2.3,3.2,10.6,13.2,24.5,13.2
			c0,0,0,0,0.1,0c0,0,0,0,0.1,0c14.9,0,22.5-9.9,24.8-13.4C226.8,175.9,226.7,175,226.6,174.1z"/>
		<path fill="#D1A586" d="M178,174c-0.1,0-0.1,0-0.2-0.1c0,0.3-0.1,0.6-0.1,1c0.1,0,0.1,0,0.2,0C177.9,174.7,177.9,174.4,178,174z"
			/>
		<path fill="#D1A586" d="M178,174c0,0.3-0.1,0.6-0.1,1c7.7,2.1,15.3,3.2,22.6,3.2c0.1,0,0.2,0,0.2,0c-0.1,0-0.2,0-0.3,0
			C193.5,178,185.8,176.6,178,174z"/>
		<path fill="#DCB598" d="M226.6,173.8c0,0.1,0,0.2,0,0.3c0,0,0,0,0.1,0C226.7,174,226.6,173.9,226.6,173.8
			C226.6,173.8,226.6,173.8,226.6,173.8z"/>
		<path fill="#DCB598" d="M202,178.2c0,0,0.1,0,0.1,0v0C202.1,178.2,202.1,178.2,202,178.2z"/>
		<path fill="#DCB598" d="M200.7,178.2c0.1,0,0.2,0,0.2,0c0.1,0,0.2,0,0.3,0c-0.1,0-0.3,0-0.4,0
			C200.7,178.2,200.7,178.2,200.7,178.2z"/>
		<path fill="#DCB598" d="M202.2,178.2C202.2,178.2,202.2,178.2,202.2,178.2L202.2,178.2c0.8,0,1.8,0,2.7-0.1
			C204,178.1,203.1,178.1,202.2,178.2z"/>
		<path fill="#DCB598" d="M207.9,177.9c-0.7,0.1-1.4,0.1-2.1,0.2C206.5,178,207.2,177.9,207.9,177.9z"/>
		<path fill="#DCB598" d="M226.6,174.1c0-0.1,0-0.2,0-0.3c-6,2.1-12.2,3.4-18.2,4C214.4,177.2,220.5,176,226.6,174.1z"/>
		<path fill="#DCB598" d="M200.3,178.2c0.1,0,0.2,0,0.3,0c0,0,0.1,0,0.1,0C200.6,178.2,200.5,178.2,200.3,178.2z"/>
		<path fill="#DFBC99" d="M201.5,178.2c0.2,0,0.4,0,0.5,0c-0.3,0-0.6,0-0.8,0C201.3,178.2,201.4,178.2,201.5,178.2z"/>
		<path fill="#DFBC99" d="M179.3,161.7c0-0.2,0-0.4,0-0.5c0,0-0.1,0-0.1,0c-0.2,2.1-0.4,4.1-0.6,6.1c-0.2,2.3-0.5,4.6-0.8,6.8
			c0.1,0,0.1,0,0.2,0.1c0.3-2,0.6-4.1,0.8-6.3C178.9,165.8,179.1,163.8,179.3,161.7z"/>
		<path fill="#DFBC99" d="M202.1,164.1v14.1c0,0,0,0,0.1,0L202.1,164.1C202.2,164.1,202.2,164.1,202.1,164.1z"/>
		<path fill="#EFCFAB" d="M208.4,177.8c-0.1,0-0.3,0-0.4,0C208.1,177.8,208.2,177.8,208.4,177.8z"/>
		<path fill="#EFCFAB" d="M205.8,178c-0.3,0-0.6,0-0.9,0.1C205.2,178.1,205.5,178,205.8,178z"/>
		<path fill="#EFCFAB" d="M225.2,160.9C225.2,160.9,225.2,160.9,225.2,160.9c0,0.2,0,0.4,0,0.6c0.2,2,0.4,4,0.6,6
			c0.2,2.2,0.5,4.3,0.8,6.4c0,0,0,0,0.1,0c-0.3-2.2-0.6-4.5-0.8-6.9C225.6,164.9,225.4,162.9,225.2,160.9z"/>
		<path fill="#EECFAB" d="M302.2,354.4c0.1-13.2-0.3-25.3-1.1-36.3l-13.7,1.5l-18.1,2l-2.5,0.3l-7.5,0.8l-1.1,0.1l1,6.4l0.8,5.1
			c0.3,1.2,0.7,2.4,1,3.6c4.7,15.7,11.2,27.4,13,30.4c9.7-3,19.1-6.6,28.3-10.7C302.3,355.5,302.2,354.4,302.2,354.4z"/>
		<path fill="#FCDB0D" d="M235.6,198.7c0,0,0.1,0,0.2,0C235.7,198.7,235.6,198.7,235.6,198.7z"/>
		<path fill="#FCDB0D" d="M236.1,198.7c0.1,0,0.2,0,0.4,0C236.3,198.7,236.2,198.7,236.1,198.7z"/>
		<path fill="#FCDB0D" d="M238.5,198.8c0.3,0,0.6,0.1,0.9,0.1C239.1,198.8,238.8,198.8,238.5,198.8z"/>
		<path fill="#FCDB0D" d="M236.8,198.7c0.3,0,0.7,0,1.2,0.1C237.6,198.7,237.2,198.7,236.8,198.7z"/>
		<path fill="#FCDB0D" d="M260.1,334.3l-0.8-5.1c0.1,1.6,0.2,2.9,0.5,3.8C259.9,333.4,260,333.9,260.1,334.3z"/>
		<path fill="#1B75B9" d="M235.8,198.7c0.1,0,0.2,0,0.3,0C235.9,198.7,235.8,198.7,235.8,198.7z"/>
		<path fill="#1B75B9" d="M236.5,198.7c0.1,0,0.3,0,0.4,0C236.7,198.7,236.6,198.7,236.5,198.7z"/>
		<path fill="#1B75B9" d="M239.4,198.9c0.2,0,0.3,0,0.5,0.1C239.7,198.9,239.6,198.9,239.4,198.9z"/>
		<path fill="#1B75B9" d="M238,198.7c0.2,0,0.3,0,0.5,0C238.3,198.8,238.2,198.8,238,198.7z"/>
		<path fill="#1B75B9" d="M235.6,198.7c-0.1,0-0.1,0-0.2,0l0,0C235.4,198.7,235.5,198.7,235.6,198.7z"/>
		<polygon fill="#1B75B9" points="235.4,198.7 235.4,198.7 235.4,198.7 		"/>
		<path fill="#1B75B9" d="M202.3,224.4c0,0-0.1,0-0.1,0v5.5c0,0,0.1,0,0.1,0V224.4z"/>
		<g>
			<path fill="#FFFFFF" d="M239.9,198.9c-0.2,0-0.4,0-0.5-0.1c-0.3,0-0.6-0.1-0.9-0.1c-0.2,0-0.3,0-0.5,0c-0.4,0-0.8,0-1.2-0.1
				c-0.1,0-0.3,0-0.4,0c-0.2,0-0.3,0-0.4,0c-0.1,0-0.2,0-0.3,0c-0.1,0-0.1,0-0.2,0c-0.1,0-0.1,0-0.1,0l0,0c0,0-0.9,2.6-2.8,6.1
				c-0.7,1.3-1.6,2.7-2.6,4.1c-4,5.7-10.3,12.1-19.8,14.5c-2.4,0.6-5.1,1-7.9,1l0,0l0,5.5c0.1,0,0.3,0,0.4,0c3.5,0,6.6-0.4,9.6-1.2
				c11.5-2.9,19.2-10.6,24-17.5c1.4-2,2.6-3.9,3.5-5.6c1.1-2,1.8-3.7,2.3-4.9c0.2-0.6,0.4-1,0.5-1.4
				C241.6,199.1,240.7,199,239.9,198.9z"/>
			<path fill="#FFFFFF" d="M172,204.8c-1.9-3.5-2.8-6.1-2.8-6.1l0,0c-0.4,0-0.8,0-1.2,0.1c-1.8,0.1-3.5,0.3-5.1,0.6
				c0.1,0.3,0.3,0.7,0.4,1.1c0.5,1.2,1.2,2.8,2.3,4.8c3.8,7.1,11.5,18.1,24.8,22.6c3.5,1.2,7.5,1.9,11.8,2v-5.5c-3.7,0-7-0.6-10-1.6
				C181.6,219.2,175.2,210.7,172,204.8z"/>
		</g>
		<g>
			<path fill="#D1A586" d="M154.4,153.7c-0.9-5.2-1.7-19.4-3-24.7c-3.3-12.7-4.4-29,0.1-43c-3.5,2.2-6,8.1-7,11.3
				c-4.6,14.1,2.2,40,2.2,40h-3.1c0,0-0.7-3.2-1.9-7.5c-0.6,1-1.7,1.4-1.3,3.4c0.4,2.7,1.7,2.9,2.4,3.5c0.7,0.6,1.6,1.1,2,2.2
				c0.4,1.1,0.5,2.3,0.3,3.4c-0.5,1.9-3.3,0.4-5.1-0.4c-1.2-0.6-2.5-3.9-3.5-5c-2.5-2.8-3.7-8.3-1.7-11.4c2.3-3.7,6.4,5.3,8.2,6.1
				c-0.4-1.2-0.4-9.1-0.9-10.2c-7.3-6.1-11.8,0.7-11.1,9.2c1,11.7,15.4,17.8,15.1,16.4c3.9,21.2,22.1,35.3,40.4,40.4
				c0-0.2,0.1-0.4,0.1-0.6C172.1,182,157.5,170.8,154.4,153.7z"/>
			<path fill="#D1A586" d="M170.8,61.3c-1.1,0.5-2.4,1.5-3.9,2.9c1.8-1.3,3.8-2.4,5.9-3.4C172.2,60.8,171.5,61,170.8,61.3z"/>
			<path fill="#BD967F" d="M134.5,125.4c-2,3.1-0.8,8.6,1.7,11.4c1,1.1,2.2,4.4,3.5,5c1.9,0.9,4.7,2.4,5.1,0.4
				c0.2-1,0.2-2.2-0.3-3.4c-0.4-1.1-1.3-1.6-2-2.2c-0.7-0.6-1.9-0.8-2.4-3.5c-0.3-2,0.7-2.4,1.3-3.4c-0.6-2.1,1.7-5.1-2.2-6.8
				C137.5,122.2,136.9,121.7,134.5,125.4z"/>
			<path fill="#DCB598" d="M252.4,137.3c0,0,6.7-25.9,2.2-40c-0.2-0.5-0.7-1.3-1.6-2.5c1.9,11.7,0.7,24.1-1.9,34.2
				c-1.4,5.3-2.1,19.4-3,24.7c-2.9,16.2-16.4,27.9-31,32.9c0,0.1,0,0.1,0,0.2c17.6-5.5,34.8-19.3,38.5-39.8
				c-0.2,1.4,14.2-4.7,15.1-16.4c0.8-10.4-7.2-13.1-12.3-9.1c-3.1,7.8-4.5,15.8-4.5,15.8H252.4z M256.7,138.9c0.4-1.1,1.3-1.6,2-2.2
				c0.7-0.6,1.9-0.8,2.4-3.5c0.4-2.4-1.3-2.5-1.7-4.1c-0.7-2.8,0.2-4.3,1.4-5.4c1.1-1,3-3.1,5.9,1.6c2,3.1,0.8,8.6-1.7,11.4
				c-1,1.1-2.2,4.4-3.5,5c-1.9,0.9-4.7,2.4-5.1,0.4C256.2,141.2,256.3,140,256.7,138.9z"/>
			<path fill="#BD967F" d="M261.6,141.8c1.2-0.6,2.5-3.9,3.5-5c2.5-2.8,3.7-8.3,1.7-11.4c-2.9-4.7-4.8-2.7-5.9-1.6
				c-1.2,1.1-2.1,2.6-1.4,5.4c0.4,1.6,2.1,1.7,1.7,4.1c-0.4,2.7-1.7,2.9-2.4,3.5c-0.7,0.6-1.6,1.1-2,2.2c-0.4,1.1-0.5,2.3-0.3,3.4
				C256.9,144.2,259.7,142.6,261.6,141.8z"/>
			<path fill="#DFBC99" d="M201.6,160L201.6,160l0,20.5c0,0,0,0,0,0V160z"/>
			<path fill="#DFBC99" d="M186.3,186.8c-14.2-4.8-28.8-16-31.9-33c-0.9-5.2-1.7-19.4-3-24.7c-3.3-12.7-4.4-29,0.1-43
				c0.7-0.5,1.5-0.8,2.4-0.8c0,0,3.1-2.7,4.5-8c1-3.8,5-9.5,8.7-13c1.8-1.3,3.8-2.4,5.9-3.4c2.6-0.3,6-2.4,6-2.4s2.1-2,13-4
				c1.2-0.1,3.4-0.6,4.7-0.7c1,0.1,1.7-0.3,2.6-0.1c0.2,0.1,0.9-0.1,1.1,0c0.2,0.1,1.2-0.4,1.4-0.3V160h0v20.5v8.9c0,0-0.1,0-0.1,0
				c-0.2,0-0.3,0-0.5,0c-0.1,0-0.2,0-0.3,0c-0.1,0-0.2,0-0.3,0c0,0-0.1,0-0.1,0v0C195.6,189.8,186.3,186.8,186.3,186.8z"/>
			<path fill="#131213" d="M141.5,129.9c0.1-0.2,0.2-0.4,0.3-0.7"/>
			<path fill="#131213" d="M141.8,129.2c-0.1,0.3-0.2,0.5-0.3,0.7c1.2,4.3,1.9,7.5,1.9,7.5h3.1c0,0-6.8-25.9-2.2-40
				c1-3.2,3.5-9.2,7-11.3c1.6-5,3.9-9.7,7.1-13.9c2.4-3.1,5.2-5.7,8.4-8c1.4-1.4,2.8-2.4,3.9-2.9c0.7-0.3,1.4-0.5,2-0.5
				c5.9-2.8,12.1-4.7,20.1-5.4c0.1,0,0.8-0.1,1-0.1c1.2-0.2,1.8-0.8,2.9-0.8c0.9,0,2.5-0.8,3.5-0.8c0.2,0,0.7-0.2,0.9-0.2
				c0.1,0,0.1,0,0.2,0c0.2,0,0.1,1.8,0.2,1.8c5.2,0,10,0.5,14.5,1.3c0,0,0,0,0,0l0,0c12.1,2.3,21.3,7.5,27.6,15.6
				c5,6.5,7.9,14.4,9.2,22.7c0.8,1.1,1.4,2,1.6,2.5c4.6,14.1-2.2,40-2.2,40h3.1c0,0-0.6,0.2,1.5-7.4c0.8-2.8,0.8-4.4,1.1-6.2
				c2.7-32.7,2.3-82.6-57.3-82.6c0,0-0.1,0-0.1,0c0,0-0.1,0-0.1,0c-59.6,0-61.6,44.8-59,77.5"/>
			<path fill="#131213" d="M177.9,59.5c0,0,5-2,15.9-4c-8,0.7-15,2.4-20.9,5.2C175.5,60.5,177.9,59.5,177.9,59.5z"/>
			<path fill="#131213" d="M158.3,77.2c1-3.8,5-9.5,8.7-13c-3.2,2.2-6,4.9-8.4,8c-3.2,4.1-5.5,8.9-7.1,13.9c0.7-0.5,1.5-0.8,2.4-0.8
				C153.8,85.2,156.9,82.5,158.3,77.2z"/>
			<path fill="#EFCFAB" d="M253,94.9"/>
			<path fill="#EFCFAB" d="M216.9,186.6c-3.8,1.3-7.6,2.2-11.4,2.5c-0.1,0-0.2,0-0.3,0c-0.4,0-0.9,0.1-1.3,0.1c-0.2,0-0.4,0-0.6,0
				c-0.6,0-1.1,0-1.7,0.1v-8.9V160V61.4l-0.3-8c0,0,47.9-2.5,51.7,41.5c1.9,11.7,0.7,24.1-1.9,34.2c-1.4,5.3-2.1,19.4-3,24.7
				C245.1,169.9,231.6,181.6,216.9,186.6L216.9,186.6z"/>
		</g>
		<path fill="#FCDB0D" d="M168.5,198.8c-1.2,0.1-2.5,0.2-3.5,0.4v0C166,199,167.3,198.9,168.5,198.8z"/>
		<g>
			<path fill="#000080" d="M202.6,229.9c-0.1,0-0.2,0-0.3,0l-0.4,0c-2.3,0-3.8-0.3-6.8-0.6v150.6c0,0,1.6,0,2.2,0
				c1.6,0,3.2,0,4.8-0.1c2.3,0,4-0.1,7-0.2V229.4C206,229.7,204.9,229.9,202.6,229.9z"/>
			<path fill="#000080" d="M240.5,205.6c-0.9,1.7-1.9,3.6-3.3,5.6c-2.4,3.4-5.2,7.1-9.2,10.2v156.8c4-0.5,8-1.2,14-1.9V204.2
				C242,204.7,240.8,205.1,240.5,205.6z"/>
			<path fill="#000080" d="M165.3,205.3c-0.4-0.8-0.3-1.6-0.3-2.3v174.7c3,0.6,10,1,12,1.4V221C172,216,167.8,209.9,165.3,205.3z"/>
			<path fill="#000080" d="M126.5,220.5c-7.3,8.3-13.1,18.3-17.9,28.7c-15.6,33.5-19.5,71.4-19.5,71.4l12.6,1.4l7.1,0.8l18.1,2
				l11.1,1.3l4.7,0.5l-1.1,8.6l-1,7.5l-4,29.8c2.9,0.7,5.5,1.4,8.5,2c0.4,0.1,0.9,0.2,0.9,0.3V204.6
				C137,208.5,132.3,214,126.5,220.5z"/>
			<path fill="#000080" d="M287.4,234.7c-5.8-9.8-11.6-16.9-17.6-22c-3.9-3.3-7.7-5.9-10.7-7.8v167.9c0,0-0.2-0.1,0-0.1
				c2.5-0.6,4.8-1.3,7.3-2l-5.4-32.1l-0.8-4.3c-0.1-0.4-0.3-0.8-0.4-1.3c-0.2-0.9-0.4-2.2-0.5-3.8l-1-6.4l1-0.1l7.5-0.8l2.5-0.3
				l18.1-2L301,318l10.7-1.2C307.1,278.2,297.9,252.2,287.4,234.7z"/>
		</g>
		<path fill="#FCDB0D" d="M163.5,200.5c0.3,0.7,1.5,1.6,1.5,2.6v-3.9c0,0.1-1.2,0.1-1.7,0.2C163.4,199.7,163.4,200.1,163.5,200.5z"
			/>
		<path fill="#FCDB0D" d="M242.3,199.3c0.1,0,0.2,0,0.2,0c0,0,0,0,0,0C242.5,199.3,242.4,199.3,242.3,199.3z"/>
		<g>
			<path fill="#FFFFFF" d="M163.5,200.5c-0.2-0.4-0.2-0.8-0.3-1.1c0.5-0.1,1.7-0.1,1.7-0.2v0c-3,0.7-10.8,2-15.3,4
				c-1,0.5-3.7,0.9-3.7,1.4v170.2c6,1.2,12,2.1,19,2.9V203.1C165,202.1,163.8,201.2,163.5,200.5z"/>
			<path fill="#FFFFFF" d="M189.5,227.9c-4.8-1.6-6.5-4.1-12.5-6.9v158.2c8,0.4,14,0.7,18,0.7V229.2
				C191,228.9,191.2,228.5,189.5,227.9z"/>
			<path fill="#FFFFFF" d="M212.7,228.7c-1,0.2-1.7,0.4-3.7,0.6v150.3c7-0.3,12-0.8,19-1.4V221.4C221,224.6,218.5,227.3,212.7,228.7
				z"/>
			<path fill="#FFFFFF" d="M248.6,200.7c-2.1-0.6-4.2-1.1-5.8-1.4c-0.1,0.3,0.4,0.8,0.1,1.3c-0.4,0.9-1,2.1-1,3.6v172.1
				c2-1,9-2.2,17-3.6V204.9C255,202.9,251.6,201.6,248.6,200.7z"/>
		</g>
	</g>
</g>
</svg>
