<?xml version="1.0" encoding="utf-8"?>
<!-- Generator: Adobe Illustrator 18.0.0, SVG Export Plug-In . SVG Version: 6.00 Build 0)  -->
<!DOCTYPE svg PUBLIC "-//W3C//DTD SVG 1.1//EN" "http://www.w3.org/Graphics/SVG/1.1/DTD/svg11.dtd">
<svg version="1.1" id="Layer_1" xmlns="http://www.w3.org/2000/svg" xmlns:xlink="http://www.w3.org/1999/xlink" x="0px" y="0px"
	 viewBox="0 0 400 400" enable-background="new 0 0 400 400" xml:space="preserve">
<circle fill="#FFFFFF" cx="200" cy="200" r="190.3"/>
<circle fill="#D1D4D5" cx="200" cy="200" r="181.2"/>
<g>
	<defs>
		<circle id="SVGID_1_" cx="200" cy="200" r="181.2"/>
	</defs>
	<clipPath id="SVGID_2_">
		<use xlink:href="#SVGID_1_"  overflow="visible"/>
	</clipPath>
	<g clip-path="url(#SVGID_2_)">
		<path fill="#DFBA98" d="M137.9,325.5l-11.2-1.3l-18.2-2.1l-7.1-0.8c-0.6,10.2-1,21.2-0.9,33.2c0,0-0.2,2.1-0.5,5.8
			c9.2,3.8,18.6,7,28.2,9.7l0-0.7c0,0,6.8-11,12.2-27.1l1-7.6l1.2-8.6L137.9,325.5z"/>
		<path fill="#DFBA98" d="M202.4,188.6c-14.1-0.1-22.4-10.1-24.7-13.3c0,0.1,0,0.2,0,0.3c-0.3,1.8-0.6,3.5-0.9,5.2
			c-1.7,7.9-4.1,13.8-7.4,16.4l0,0c0,0,0.9,2.6,2.8,6.1c3.3,5.9,9.6,14.5,20.3,18.1c3,1,6.4,1.6,10.1,1.6v-18.6L202.4,188.6
			C202.4,188.6,202.4,188.6,202.4,188.6z"/>
		<path fill="#DFBA98" d="M202.6,223v-18.7c0,0-0.1,0-0.1,0V223C202.5,223,202.5,223,202.6,223z"/>
		<path fill="#EECFAB" d="M261.5,337.9c0.1-0.2,0.2-0.5,0.3-0.7c-0.4-1.2-0.7-2.4-1-3.6L261.5,337.9z"/>
		<path fill="#EECFAB" d="M228.2,179.4c-0.3-1.3-0.5-2.5-0.7-3.9v-0.1c0-0.1,0-0.3-0.1-0.4c-2.3,3.6-9.9,13.5-24.9,13.5
			c0,0-0.1,0-0.1,0v15.8c0,0,0.1,0,0.1,0V223l0,0c2.9,0,5.5-0.4,8-1c9.5-2.4,16-8.8,19.9-14.6c1-1.5,1.9-2.9,2.6-4.2
			c2-3.5,2.8-6.2,2.8-6.2l0,0C232.4,194.4,229.9,188,228.2,179.4z"/>
		<path opacity="0.7" fill="#BD967F" d="M177.8,173.2c-0.1,0.6-0.2,1.2-0.3,1.8c0,0.1,0.1,0.1,0.1,0.2c0.1-0.6,0.2-1.3,0.3-2
			C177.9,173.2,177.8,173.2,177.8,173.2z"/>
		<path opacity="0.7" fill="#BD967F" d="M227.4,175.1C227.4,175,227.5,175,227.4,175.1l0-0.1c-0.1-0.8-0.2-1.7-0.4-2.6
			c0,0,0,0-0.1,0C227.2,173.3,227.3,174.2,227.4,175.1z"/>
		<path fill="#DFBA98" d="M202.4,188.6C202.4,188.6,202.4,188.6,202.4,188.6l0.1-12.1c0,0-0.1,0-0.1,0c-0.2,0-0.4,0-0.5,0
			c-0.1,0-0.2,0-0.3,0c-0.1,0-0.2,0-0.3,0c-0.1,0-0.2,0-0.2,0c-0.1,0-0.2,0-0.2,0c-7.3,0-15-1.1-22.7-3.2c-0.1,0.7-0.2,1.3-0.3,2
			C180,178.5,188.3,188.5,202.4,188.6z"/>
		<path fill="#EECFAB" d="M208.7,176.1c-0.2,0-0.3,0-0.5,0c-0.7,0.1-1.4,0.1-2.1,0.2c-0.3,0-0.6,0-0.9,0.1c-0.9,0-1.9,0.1-2.8,0.1
			v12.1c0,0,0,0,0.1,0c15,0,22.7-9.9,24.9-13.5c-0.1-0.9-0.3-1.8-0.4-2.7C220.9,174.2,214.7,175.5,208.7,176.1z"/>
		<path opacity="0.7" fill="#BD967F" d="M227,172.3c-6.2,1.9-12.3,3.2-18.3,3.7c-0.2,0-0.3,0-0.5,0c-0.7,0.1-1.4,0.1-2.1,0.2
			c-0.3,0-0.6,0-0.9,0.1c-0.9,0-1.9,0.1-2.8,0.1c0,0-0.1,0-0.1,0c-0.2,0-0.4,0-0.5,0c-0.1,0-0.2,0-0.3,0c-0.1,0-0.2,0-0.3,0
			c-0.1,0-0.2,0-0.2,0c-0.1,0-0.2,0-0.2,0c-7.3,0-15-1.1-22.7-3.2c-0.1,0.7-0.2,1.3-0.3,2c2.3,3.3,10.6,13.3,24.7,13.3
			c0,0,0,0,0.1,0c0,0,0,0,0.1,0c15,0,22.7-9.9,24.9-13.5C227.3,174.2,227.2,173.3,227,172.3z"/>
		<path fill="#D1A586" d="M178.1,172.3c-0.1,0-0.1,0-0.2-0.1c0,0.3-0.1,0.7-0.1,1c0.1,0,0.1,0,0.2,0
			C178,172.9,178.1,172.6,178.1,172.3z"/>
		<path fill="#D1A586" d="M178.1,172.3c0,0.3-0.1,0.6-0.1,1c7.7,2.1,15.4,3.2,22.7,3.2c0.1,0,0.2,0,0.2,0c-0.1,0-0.2,0-0.3,0
			C193.7,176.3,185.9,174.9,178.1,172.3z"/>
		<path fill="#DCB598" d="M227,172c0,0.1,0,0.2,0,0.3c0,0,0,0,0.1,0C227.1,172.2,227.1,172.1,227,172C227,172,227,172,227,172z"/>
		<path fill="#DCB598" d="M202.3,176.5c0,0,0.1,0,0.1,0v0C202.4,176.4,202.3,176.4,202.3,176.5z"/>
		<path fill="#DCB598" d="M200.9,176.5c0.1,0,0.2,0,0.2,0c0.1,0,0.2,0,0.3,0c-0.1,0-0.3,0-0.4,0C201,176.5,201,176.5,200.9,176.5z"
			/>
		<path fill="#DCB598" d="M202.5,176.4C202.5,176.4,202.4,176.4,202.5,176.4L202.5,176.4c0.9,0,1.8,0,2.7-0.1
			C204.3,176.4,203.4,176.4,202.5,176.4z"/>
		<path fill="#DCB598" d="M208.3,176.1c-0.7,0.1-1.4,0.1-2.1,0.2C206.9,176.2,207.6,176.2,208.3,176.1z"/>
		<path fill="#DCB598" d="M227,172.3c0-0.1,0-0.2,0-0.3c-6.1,2.1-12.2,3.5-18.3,4.1C214.7,175.5,220.9,174.2,227,172.3z"/>
		<path fill="#DCB598" d="M200.6,176.5c0.1,0,0.2,0,0.3,0c0,0,0.1,0,0.1,0C200.9,176.5,200.8,176.5,200.6,176.5z"/>
		<path fill="#DFBC99" d="M201.8,176.5c0.2,0,0.4,0,0.5,0c-0.3,0-0.6,0-0.8,0C201.6,176.5,201.7,176.5,201.8,176.5z"/>
		<path fill="#DFBC99" d="M179.4,159.9c0-0.2,0-0.4,0-0.5c0,0-0.1,0-0.1,0c-0.2,2.1-0.4,4.1-0.6,6.1c-0.2,2.4-0.5,4.6-0.8,6.8
			c0.1,0,0.1,0,0.2,0.1c0.3-2.1,0.6-4.1,0.8-6.3C179.1,164,179.3,161.9,179.4,159.9z"/>
		<path fill="#DFBC99" d="M202.4,162.3v14.2c0,0,0,0,0.1,0L202.4,162.3C202.5,162.3,202.4,162.3,202.4,162.3z"/>
		<path fill="#EFCFAB" d="M208.7,176.1c-0.1,0-0.3,0-0.5,0C208.4,176.1,208.6,176.1,208.7,176.1z"/>
		<path fill="#EFCFAB" d="M206.1,176.3c-0.3,0-0.6,0-0.9,0.1C205.5,176.3,205.8,176.3,206.1,176.3z"/>
		<path fill="#EFCFAB" d="M225.6,159C225.6,159,225.6,159,225.6,159c0,0.2,0,0.4,0,0.6c0.2,2,0.4,4,0.6,6c0.2,2.2,0.5,4.4,0.8,6.4
			c0,0,0,0,0.1,0c-0.3-2.2-0.6-4.5-0.9-7C226,163.1,225.8,161.1,225.6,159z"/>
		<path fill="#EECFAB" d="M303.1,353.8c0.1-13.3-0.4-25.5-1.1-36.6l-13.8,1.5l-18.2,2l-2.5,0.3l-7.6,0.9l-1.1,0.1l1,6.4l0.8,5.1
			c0.3,1.2,0.7,2.4,1,3.6c4.7,15.8,11.3,27.6,13.1,30.6c9.8-3.1,19.3-6.7,28.5-10.8C303.2,355,303.1,353.8,303.1,353.8z"/>
		<path fill="#FCDB0D" d="M236.1,197.1c0,0,0.1,0,0.2,0C236.2,197.1,236.1,197.1,236.1,197.1z"/>
		<path fill="#FCDB0D" d="M236.6,197.1c0.1,0,0.2,0,0.4,0C236.8,197.1,236.7,197.1,236.6,197.1z"/>
		<path fill="#FCDB0D" d="M239,197.2c0.3,0,0.6,0.1,0.9,0.1C239.6,197.2,239.3,197.2,239,197.2z"/>
		<path fill="#FCDB0D" d="M237.4,197.1c0.3,0,0.7,0,1.2,0.1C238.1,197.1,237.7,197.1,237.4,197.1z"/>
		<path fill="#FCDB0D" d="M260.8,333.6l-0.8-5.1c0.1,1.6,0.2,2.9,0.5,3.8C260.5,332.8,260.6,333.2,260.8,333.6z"/>
		<g>
			<path fill="#FFFF01" d="M242.9,197.7c0.1,0,0.2,0,0.3,0c0,0,0,0,0,0C243,197.7,243,197.7,242.9,197.7z"/>
			<path fill="#FFFF01" d="M288.2,233.4c-5.9-9.8-12.1-17-18.2-22.2c-7.8-6.7-15.3-10.2-21.3-12.1c-2.1-0.6-3.9-1.1-5.6-1.4
				c-0.1,0.3-0.3,0.8-0.5,1.4c-0.5,1.2-1.3,2.9-2.4,4.9c-0.9,1.7-2.1,3.7-3.5,5.7c-4.8,6.9-12.6,14.7-24.1,17.6
				c-2.9,0.8-6.1,1.2-9.6,1.2c-0.1,0-0.3,0-0.4,0l-0.1,0c-4.4-0.1-8.3-0.8-11.9-2c-13.3-4.5-21.1-15.5-25-22.7
				c-1.1-2-1.8-3.7-2.3-4.9c-0.2-0.4-0.3-0.8-0.4-1.1c1.7-0.3,3.4-0.5,5.2-0.6c-6.6,0.4-12.7,2-18.2,4.4c-8.9,3.9-16.5,10-23.1,17.5
				c-7.4,8.4-13.4,18.4-18.2,28.9c-15.7,33.8-19.7,71.9-19.7,71.9l12.6,1.4l7.1,0.8l18.2,2.1l11.2,1.3l4.7,0.5l-1.2,8.6l-1,7.6
				l-4,30c3,0.7,5.9,1.4,8.9,2c16.9,3.5,34.5,5.3,52.4,5.3c1.6,0,3.2,0,4.8-0.1c19.5-0.4,38.4-2.9,56.5-7.3c2.6-0.6,5.1-1.3,7.6-2
				l-5.3-32.3l-0.7-4.3c-0.1-0.4-0.2-0.9-0.4-1.3c-0.2-0.9-0.4-2.2-0.5-3.8l-1-6.4l1.1-0.1l7.6-0.9l2.5-0.3l18.2-2l13.8-1.5
				l10.8-1.2C308.1,277.2,298.8,251,288.2,233.4z"/>
		</g>
		<path fill="#1B75B9" d="M236.3,197.1c0.1,0,0.2,0,0.3,0C236.4,197.1,236.3,197.1,236.3,197.1z"/>
		<path fill="#1B75B9" d="M237,197.1c0.1,0,0.3,0,0.4,0C237.2,197.1,237.1,197.1,237,197.1z"/>
		<path fill="#1B75B9" d="M239.9,197.3c0.2,0,0.4,0,0.5,0.1C240.3,197.3,240.1,197.3,239.9,197.3z"/>
		<path fill="#1B75B9" d="M238.5,197.2c0.2,0,0.3,0,0.5,0C238.8,197.2,238.7,197.2,238.5,197.2z"/>
		<path fill="#1B75B9" d="M236.1,197.1c-0.1,0-0.1,0-0.2,0l0,0C235.9,197.1,236,197.1,236.1,197.1z"/>
		<polygon fill="#1B75B9" points="235.9,197.1 235.9,197.1 235.9,197.1 		"/>
		<path fill="#1B75B9" d="M202.6,223c0,0-0.1,0-0.1,0v5.5c0,0,0.1,0,0.1,0V223z"/>
		<g>
			<path fill="#FFFF01" d="M240.5,197.3c-0.2,0-0.4,0-0.5-0.1c-0.3,0-0.6-0.1-0.9-0.1c-0.2,0-0.3,0-0.5,0c-0.4,0-0.8,0-1.2-0.1
				c-0.1,0-0.3,0-0.4,0c-0.2,0-0.3,0-0.4,0c-0.1,0-0.2,0-0.3,0c-0.1,0-0.1,0-0.2,0c-0.1,0-0.2,0-0.2,0l0,0c0,0-0.9,2.6-2.8,6.2
				c-0.7,1.3-1.6,2.7-2.6,4.2c-4,5.7-10.4,12.2-19.9,14.6c-2.4,0.6-5.1,1-8,1l0,0l0,5.5c0.1,0,0.3,0,0.4,0c3.5,0,6.7-0.4,9.6-1.2
				c11.6-2.9,19.3-10.7,24.1-17.6c1.4-2,2.6-4,3.5-5.7c1.1-2,1.9-3.7,2.4-4.9c0.2-0.6,0.4-1,0.5-1.4
				C242.1,197.6,241.3,197.4,240.5,197.3z"/>
			<path fill="#FFFF01" d="M172.1,203.2c-1.9-3.5-2.8-6.1-2.8-6.1l0,0c-0.4,0-0.8,0-1.3,0.1c-1.8,0.1-3.5,0.3-5.2,0.6
				c0.1,0.3,0.3,0.7,0.4,1.1c0.5,1.2,1.2,2.9,2.3,4.9c3.8,7.2,11.6,18.2,25,22.7c3.6,1.2,7.5,1.9,11.9,2V223
				c-3.7,0-7.1-0.6-10.1-1.6C181.7,217.8,175.3,209.2,172.1,203.2z"/>
		</g>
		<g>
			<path fill="#D1A586" d="M154.3,151.8c-1-5.2-1.7-19.5-3-24.8c-3.3-12.8-4.4-29.2,0.1-43.3c-3.5,2.2-6,8.2-7.1,11.4
				c-4.6,14.2,2.2,40.3,2.2,40.3h-3.2c0,0-0.7-3.2-2-7.5c-0.6,1-1.7,1.4-1.3,3.4c0.4,2.7,1.7,2.9,2.4,3.5c0.7,0.6,1.6,1.1,2,2.2
				c0.4,1.1,0.5,2.4,0.3,3.4c-0.5,1.9-3.3,0.4-5.2-0.5c-1.2-0.6-2.5-3.9-3.5-5c-2.5-2.8-3.7-8.3-1.7-11.5c2.3-3.7,6.4,5.3,8.3,6.2
				c-0.4-1.2-0.4-9.1-0.9-10.3c-7.4-6.1-11.9,0.7-11.2,9.3c1,11.8,15.5,17.9,15.2,16.6c3.9,21.4,22.3,35.6,40.6,40.6
				c0-0.2,0.1-0.4,0.1-0.6C172.1,180.3,157.4,169,154.3,151.8z"/>
			<path fill="#D1A586" d="M170.9,58.8c-1.1,0.5-2.5,1.5-3.9,2.9c1.8-1.3,3.8-2.4,5.9-3.5C172.3,58.3,171.6,58.5,170.9,58.8z"/>
			<path fill="#BD967F" d="M134.4,123.3c-2,3.2-0.8,8.6,1.7,11.5c1,1.1,2.2,4.5,3.5,5c1.9,0.9,4.7,2.4,5.2,0.5
				c0.2-1,0.2-2.2-0.3-3.4c-0.4-1.1-1.3-1.6-2-2.2c-0.7-0.6-2-0.8-2.4-3.5c-0.3-2,0.7-2.4,1.3-3.4c-0.6-2.1,1.7-5.1-2.2-6.9
				C137.3,120.1,136.7,119.6,134.4,123.3z"/>
			<path fill="#DCB598" d="M253,135.4c0,0,6.8-26.1,2.2-40.3c-0.2-0.5-0.7-1.4-1.6-2.5c1.9,11.8,0.7,24.3-2,34.4
				c-1.4,5.3-2.1,19.6-3,24.8c-3,16.3-16.5,28.1-31.2,33.1c0,0.1,0,0.1,0,0.2c17.7-5.5,35-19.5,38.7-40.1
				c-0.2,1.4,14.3-4.7,15.2-16.6c0.8-10.4-7.3-13.1-12.4-9.1c-3.1,7.9-4.5,16-4.5,16H253z M257.4,136.9c0.4-1.1,1.3-1.6,2-2.2
				c0.7-0.6,2-0.8,2.4-3.5c0.4-2.4-1.3-2.5-1.7-4.1c-0.7-2.8,0.2-4.3,1.4-5.4c1.1-1,3-3.1,6,1.6c2,3.2,0.8,8.6-1.7,11.5
				c-1,1.1-2.2,4.5-3.5,5c-1.9,0.9-4.7,2.4-5.2,0.5C256.9,139.3,257,138,257.4,136.9z"/>
			<path fill="#BD967F" d="M262.3,139.8c1.3-0.6,2.5-3.9,3.5-5c2.5-2.8,3.7-8.3,1.7-11.5c-3-4.7-4.8-2.7-6-1.6
				c-1.2,1.1-2.1,2.6-1.4,5.4c0.4,1.6,2.1,1.7,1.7,4.1c-0.4,2.7-1.7,2.9-2.4,3.5c-0.7,0.6-1.6,1.1-2,2.2c-0.4,1.1-0.5,2.4-0.3,3.4
				C257.6,142.2,260.4,140.7,262.3,139.8z"/>
			<path fill="#DFBC99" d="M201.9,158.1L201.9,158.1l0,20.7c0,0,0,0,0,0V158.1z"/>
			<path fill="#DFBC99" d="M186.5,185.1c-14.3-4.8-29-16.1-32.2-33.3c-1-5.2-1.7-19.5-3-24.8c-3.3-12.8-4.4-29.2,0.1-43.3
				c0.7-0.5,1.5-0.8,2.4-0.8c0,0,3.1-2.7,4.5-8.1c1-3.9,5.1-9.6,8.7-13.1c1.8-1.3,3.8-2.4,5.9-3.5c2.6-0.3,6.1-2.4,6.1-2.4
				s2.2-2,13.1-4c1.3-0.1,3.4-0.6,4.8-0.7c1,0.1,1.7-0.3,2.6-0.1c0.2,0.1,0.9-0.1,1.1,0c0.2,0.1,1.2-0.4,1.4-0.3v107.3h0v20.7v8.9
				c0,0-0.1,0-0.1,0c-0.2,0-0.4,0-0.5,0c-0.1,0-0.2,0-0.3,0c-0.1,0-0.2,0-0.3,0c0,0-0.1,0-0.1,0v0
				C195.9,188.1,186.5,185.1,186.5,185.1z"/>
			<path fill="#131213" d="M141.4,127.8c0.1-0.2,0.2-0.4,0.3-0.7"/>
			<path fill="#131213" d="M141.7,127.1c-0.1,0.3-0.2,0.5-0.3,0.7c1.3,4.3,2,7.5,2,7.5h3.2c0,0-6.8-26.1-2.2-40.3
				c1-3.2,3.5-9.2,7.1-11.4c1.6-5,3.9-9.8,7.2-14c2.4-3.1,5.2-5.8,8.5-8c1.4-1.4,2.8-2.4,3.9-2.9c0.7-0.3,1.4-0.5,2.1-0.5
				c6-2.9,12.1-4.8,20.2-5.4c0.1,0,0.9-0.1,1-0.1c1.2-0.2,1.8-0.8,2.9-0.8c0.9,0,2.5-0.8,3.5-0.9c0.2,0,0.7-0.2,1-0.2
				c0.1,0,0.1,0,0.2,0c0.2,0,0.1,1.8,0.2,1.8c5.2,0,10.1,0.5,14.6,1.3c0,0,0,0,0,0l0,0c12.1,2.3,21.5,7.5,27.8,15.7
				c5.1,6.6,7.9,14.5,9.3,22.9c0.8,1.1,1.4,2,1.6,2.5c4.6,14.2-2.2,40.3-2.2,40.3h3.2c0,0-0.6,0.2,1.5-7.4c0.8-2.8,0.8-4.4,1.1-6.3
				c2.7-32.9,2.3-83.1-57.7-83.1c0,0-0.1,0-0.1,0c0,0-0.1,0-0.1,0c-60,0-62,45.1-59.4,78"/>
			<path fill="#131213" d="M178,57c0,0,5-2,16-4c-8.1,0.7-15.1,2.4-21.1,5.3C175.6,58,178,57,178,57z"/>
			<path fill="#131213" d="M158.3,74.8c1-3.9,5.1-9.6,8.7-13.1c-3.2,2.3-6.1,4.9-8.5,8c-3.2,4.2-5.5,8.9-7.2,14
				c0.7-0.5,1.5-0.8,2.4-0.8C153.7,82.9,156.9,80.2,158.3,74.8z"/>
			<path fill="#EFCFAB" d="M253.6,92.6"/>
			<path fill="#EFCFAB" d="M217.3,185c-3.8,1.3-7.7,2.2-11.5,2.5c-0.1,0-0.2,0-0.3,0c-0.4,0-0.9,0.1-1.3,0.1c-0.2,0-0.4,0-0.6,0
				c-0.6,0-1.1,0-1.7,0.1v-8.9v-20.7V58.9l-0.3-8c0,0,48.2-2.5,52,41.8c1.9,11.8,0.7,24.3-2,34.4c-1.4,5.3-2.1,19.6-3,24.8
				C245.6,168.2,232.1,179.9,217.3,185L217.3,185z"/>
		</g>
	</g>
</g>
</svg>
