<?xml version="1.0" encoding="utf-8"?>
<!-- Generator: Adobe Illustrator 18.0.0, SVG Export Plug-In . SVG Version: 6.00 Build 0)  -->
<!DOCTYPE svg PUBLIC "-//W3C//DTD SVG 1.1//EN" "http://www.w3.org/Graphics/SVG/1.1/DTD/svg11.dtd">
<svg version="1.1" id="Layer_1" xmlns="http://www.w3.org/2000/svg" xmlns:xlink="http://www.w3.org/1999/xlink" x="0px" y="0px"
	 viewBox="0 0 400 400" enable-background="new 0 0 400 400" xml:space="preserve">
<circle fill="#FFFFFF" cx="200" cy="200" r="190.3"/>
<circle fill="#D1D4D5" cx="200" cy="200" r="181.2"/>
<g>
	<defs>
		<circle id="SVGID_1_" cx="200" cy="200" r="181.2"/>
	</defs>
	<clipPath id="SVGID_2_">
		<use xlink:href="#SVGID_1_"  overflow="visible"/>
	</clipPath>
	<g clip-path="url(#SVGID_2_)">
		<path fill="#DFBA98" d="M138,325.5l-11.3-1.3l-18.3-2.1l-7.1-0.8c-0.6,10.3-1,21.4-0.9,33.4c0,0-0.2,2.2-0.5,5.9
			c9.2,3.8,18.7,7,28.4,9.8l0-0.7c0,0,6.8-11.1,12.3-27.3l1-7.6l1.2-8.7L138,325.5z"/>
		<path fill="#DFBA98" d="M202.8,187.7c-14.2-0.1-22.5-10.1-24.9-13.4c0,0.1,0,0.2,0,0.3c-0.3,1.8-0.6,3.6-0.9,5.2
			c-1.7,7.9-4.1,13.9-7.5,16.5l0,0c0,0,0.9,2.6,2.8,6.1c3.3,6,9.7,14.6,20.4,18.2c3,1,6.4,1.6,10.2,1.6v-18.7L202.8,187.7
			C202.9,187.7,202.8,187.7,202.8,187.7z"/>
		<path fill="#DFBA98" d="M203,222.3v-18.8c0,0-0.1,0-0.1,0v18.7C202.9,222.3,203,222.3,203,222.3z"/>
		<path fill="#EECFAB" d="M262.3,338c0.1-0.2,0.2-0.5,0.3-0.7c-0.4-1.2-0.7-2.4-1-3.6L262.3,338z"/>
		<path fill="#EECFAB" d="M228.8,178.5c-0.3-1.3-0.5-2.5-0.7-3.9v-0.1c0-0.1,0-0.3-0.1-0.4c-2.3,3.6-10,13.6-25.1,13.6
			c0,0-0.1,0-0.1,0v15.9c0,0,0.1,0,0.1,0v18.8c0,0,0,0,0,0c2.9,0,5.6-0.4,8-1c9.6-2.4,16.1-8.9,20.1-14.7c1-1.5,1.9-2.9,2.6-4.2
			c2-3.6,2.9-6.2,2.9-6.2l0,0C233,193.6,230.5,187.1,228.8,178.5z"/>
		<path opacity="0.7" fill="#BD967F" d="M178.1,172.2c-0.1,0.6-0.2,1.2-0.3,1.8c0,0.1,0.1,0.1,0.1,0.2c0.1-0.6,0.2-1.3,0.3-2
			C178.2,172.3,178.1,172.3,178.1,172.2z"/>
		<path opacity="0.7" fill="#BD967F" d="M228,174.1C228.1,174.1,228.1,174,228,174.1l0-0.1c-0.1-0.8-0.2-1.7-0.4-2.6c0,0,0,0-0.1,0
			C227.8,172.3,227.9,173.2,228,174.1z"/>
		<path fill="#DFBA98" d="M202.8,187.7C202.8,187.7,202.9,187.7,202.8,187.7l0.1-12.2c0,0-0.1,0-0.1,0c-0.2,0-0.4,0-0.5,0
			c-0.1,0-0.2,0-0.3,0c-0.1,0-0.2,0-0.3,0c-0.1,0-0.2,0-0.2,0c-0.1,0-0.2,0-0.2,0c-7.3,0-15.1-1.1-22.9-3.2c-0.1,0.7-0.2,1.3-0.3,2
			C180.3,177.6,188.7,187.6,202.8,187.7z"/>
		<path fill="#EECFAB" d="M209.2,175.1c-0.2,0-0.3,0-0.5,0c-0.7,0.1-1.4,0.1-2.1,0.2c-0.3,0-0.6,0-0.9,0.1c-0.9,0.1-1.9,0.1-2.8,0.1
			v12.2c0,0,0,0,0.1,0c15.1,0,22.8-10,25.1-13.6c-0.1-0.9-0.3-1.8-0.4-2.7C221.5,173.3,215.2,174.6,209.2,175.1z"/>
		<path opacity="0.7" fill="#BD967F" d="M227.6,171.4c-6.2,1.9-12.4,3.2-18.5,3.8c-0.2,0-0.3,0-0.5,0c-0.7,0.1-1.4,0.1-2.1,0.2
			c-0.3,0-0.6,0-0.9,0.1c-0.9,0.1-1.9,0.1-2.8,0.1c0,0-0.1,0-0.1,0c-0.2,0-0.4,0-0.5,0c-0.1,0-0.2,0-0.3,0c-0.1,0-0.2,0-0.3,0
			c-0.1,0-0.2,0-0.2,0c-0.1,0-0.2,0-0.2,0c-7.3,0-15.1-1.1-22.9-3.2c-0.1,0.7-0.2,1.3-0.3,2c2.4,3.3,10.7,13.4,24.9,13.4
			c0,0,0,0,0.1,0c0,0,0,0,0.1,0c15.1,0,22.8-10,25.1-13.6C227.9,173.2,227.8,172.3,227.6,171.4z"/>
		<path fill="#D1A586" d="M178.4,171.3c-0.1,0-0.1,0-0.2-0.1c0,0.3-0.1,0.7-0.1,1c0.1,0,0.1,0,0.2,0
			C178.3,172,178.3,171.7,178.4,171.3z"/>
		<path fill="#D1A586" d="M178.4,171.3c0,0.3-0.1,0.6-0.1,1c7.8,2.1,15.6,3.2,22.9,3.2c0.1,0,0.2,0,0.2,0c-0.1,0-0.2,0-0.3,0
			C194.1,175.4,186.3,174,178.4,171.3z"/>
		<path fill="#DCB598" d="M227.6,171.1c0,0.1,0,0.2,0,0.3c0,0,0,0,0.1,0C227.7,171.2,227.7,171.1,227.6,171.1
			C227.6,171,227.6,171.1,227.6,171.1z"/>
		<path fill="#DCB598" d="M202.7,175.5c0,0,0.1,0,0.1,0v0C202.8,175.5,202.8,175.5,202.7,175.5z"/>
		<path fill="#DCB598" d="M201.4,175.5c0.1,0,0.2,0,0.2,0c0.1,0,0.2,0,0.3,0c-0.1,0-0.3,0-0.4,0
			C201.4,175.5,201.4,175.5,201.4,175.5z"/>
		<path fill="#DCB598" d="M202.9,175.5C202.9,175.5,202.9,175.5,202.9,175.5L202.9,175.5c0.9,0,1.8,0,2.7-0.1
			C204.8,175.5,203.8,175.5,202.9,175.5z"/>
		<path fill="#DCB598" d="M208.7,175.2c-0.7,0.1-1.4,0.1-2.1,0.2C207.3,175.3,208,175.3,208.7,175.2z"/>
		<path fill="#DCB598" d="M227.6,171.4c0-0.1,0-0.2,0-0.3c-6.1,2.1-12.3,3.5-18.4,4.1C215.2,174.6,221.5,173.3,227.6,171.4z"/>
		<path fill="#DCB598" d="M201,175.5c0.1,0,0.2,0,0.3,0c0,0,0.1,0,0.1,0C201.3,175.5,201.2,175.5,201,175.5z"/>
		<path fill="#DFBC99" d="M202.2,175.5c0.2,0,0.4,0,0.5,0c-0.3,0-0.6,0-0.8,0C202,175.5,202.1,175.5,202.2,175.5z"/>
		<path fill="#DFBC99" d="M179.7,158.8c0-0.2,0-0.4,0-0.5c0,0-0.1,0-0.1,0c-0.2,2.1-0.4,4.1-0.6,6.2c-0.2,2.4-0.5,4.6-0.8,6.9
			c0.1,0,0.1,0,0.2,0.1c0.3-2.1,0.6-4.2,0.8-6.4C179.4,162.9,179.5,160.9,179.7,158.8z"/>
		<path fill="#DFBC99" d="M202.9,161.2v14.3c0,0,0,0,0.1,0L202.9,161.2C202.9,161.2,202.9,161.2,202.9,161.2z"/>
		<path fill="#EFCFAB" d="M209.2,175.1c-0.2,0-0.3,0-0.5,0C208.9,175.2,209,175.2,209.2,175.1z"/>
		<path fill="#EFCFAB" d="M206.6,175.3c-0.3,0-0.6,0-0.9,0.1C206,175.4,206.3,175.4,206.6,175.3z"/>
		<path fill="#EFCFAB" d="M226.2,158C226.2,158,226.2,158,226.2,158c0,0.2,0,0.4,0,0.6c0.2,2,0.4,4.1,0.6,6c0.3,2.2,0.5,4.4,0.8,6.5
			c0,0,0,0,0.1,0c-0.3-2.3-0.6-4.6-0.9-7C226.6,162.1,226.4,160,226.2,158z"/>
		<path fill="#EECFAB" d="M304.2,354c0.1-13.4-0.4-25.6-1.2-36.8l-13.8,1.5l-18.3,2.1l-2.5,0.3l-7.6,0.9l-1.1,0.1l1.1,6.5l0.8,5.1
			c0.3,1.2,0.7,2.4,1,3.6c4.8,15.9,11.4,27.8,13.2,30.8c9.8-3.1,19.4-6.7,28.7-10.9C304.3,355.2,304.2,354,304.2,354z"/>
		<path fill="#FCDB0D" d="M236.7,196.3c0,0,0.1,0,0.2,0C236.8,196.3,236.8,196.3,236.7,196.3z"/>
		<path fill="#FCDB0D" d="M237.2,196.3c0.1,0,0.3,0,0.4,0C237.5,196.3,237.4,196.3,237.2,196.3z"/>
		<path fill="#FCDB0D" d="M239.7,196.4c0.3,0,0.6,0.1,0.9,0.1C240.3,196.4,240,196.4,239.7,196.4z"/>
		<path fill="#FCDB0D" d="M238,196.3c0.3,0,0.7,0,1.2,0.1C238.8,196.3,238.4,196.3,238,196.3z"/>
		<path fill="#FCDB0D" d="M261.6,333.7l-0.8-5.1c0.1,1.6,0.2,2.9,0.5,3.8C261.3,332.8,261.5,333.2,261.6,333.7z"/>
		<path fill="#1B75B9" d="M236.9,196.3c0.1,0,0.2,0,0.3,0C237.1,196.3,237,196.3,236.9,196.3z"/>
		<path fill="#1B75B9" d="M237.6,196.3c0.1,0,0.3,0,0.4,0C237.9,196.3,237.8,196.3,237.6,196.3z"/>
		<path fill="#1B75B9" d="M240.6,196.5c0.2,0,0.4,0,0.5,0.1C241,196.5,240.8,196.5,240.6,196.5z"/>
		<path fill="#1B75B9" d="M239.2,196.4c0.2,0,0.3,0,0.5,0C239.5,196.4,239.4,196.4,239.2,196.4z"/>
		<path fill="#1B75B9" d="M236.7,196.3c-0.1,0-0.2,0-0.2,0l0,0C236.6,196.3,236.7,196.3,236.7,196.3z"/>
		<polygon fill="#1B75B9" points="236.6,196.3 236.6,196.3 236.6,196.3 		"/>
		<path fill="#1B75B9" d="M203,222.3c-0.1,0-0.1,0-0.1,0v5.6c0.1,0,0.1,0,0.1,0V222.3z"/>
		<g>
			<path fill="#FCDB0D" d="M241.1,196.5c-0.2,0-0.4,0-0.5-0.1c-0.3,0-0.6-0.1-0.9-0.1c-0.2,0-0.3,0-0.5,0c-0.4,0-0.8,0-1.2-0.1
				c-0.1,0-0.3,0-0.4,0c-0.2,0-0.3,0-0.4,0c-0.1,0-0.2,0-0.3,0c-0.1,0-0.1,0-0.2,0c-0.1,0-0.2,0-0.2,0l0,0c0,0-0.9,2.6-2.9,6.2
				c-0.7,1.3-1.6,2.7-2.6,4.2c-4,5.8-10.5,12.2-20.1,14.7c-2.5,0.6-5.1,1-8,1c0,0,0,0,0,0l0,5.6c0.1,0,0.3,0,0.4,0
				c3.5,0,6.7-0.4,9.7-1.2c11.6-2.9,19.4-10.8,24.3-17.7c1.4-2,2.6-4,3.5-5.7c1.1-2,1.9-3.8,2.4-5c0.2-0.6,0.4-1.1,0.5-1.4
				C242.9,196.8,242,196.6,241.1,196.5z"/>
			<path fill="#FCDB0D" d="M172.3,202.5c-2-3.6-2.8-6.1-2.8-6.1l0,0c-0.4,0-0.8,0-1.3,0.1c-1.8,0.1-3.5,0.3-5.2,0.6
				c0.1,0.3,0.3,0.7,0.4,1.1c0.5,1.2,1.3,2.9,2.3,4.9c3.8,7.2,11.7,18.4,25.1,22.9c3.6,1.2,7.6,1.9,12,2v-5.6
				c-3.7,0-7.1-0.6-10.2-1.6C182,217.1,175.6,208.4,172.3,202.5z"/>
		</g>
		<g>
			<path fill="#D1A586" d="M154.4,150.7c-1-5.3-1.7-19.6-3.1-25c-3.3-12.8-4.5-29.4,0.1-43.6c-3.5,2.2-6.1,8.2-7.1,11.5
				c-4.6,14.3,2.2,40.5,2.2,40.5h-3.2c0,0-0.7-3.2-2-7.6c-0.6,1-1.7,1.4-1.4,3.4c0.4,2.7,1.7,2.9,2.4,3.5c0.7,0.6,1.6,1.1,2,2.2
				c0.4,1.1,0.5,2.4,0.3,3.4c-0.5,2-3.3,0.4-5.2-0.5c-1.3-0.6-2.5-3.9-3.5-5.1c-2.5-2.9-3.7-8.4-1.7-11.5c2.4-3.8,6.5,5.3,8.3,6.2
				c-0.4-1.2-0.4-9.2-0.9-10.4c-7.4-6.1-12,0.7-11.3,9.4c1,11.9,15.6,18.1,15.3,16.7c3.9,21.5,22.4,35.8,40.9,40.9
				c0-0.2,0.1-0.4,0.1-0.6C172.4,179.4,157.6,168,154.4,150.7z"/>
			<path fill="#D1A586" d="M171.1,57.1c-1.1,0.5-2.5,1.5-3.9,2.9c1.9-1.3,3.8-2.5,6-3.5C172.6,56.6,171.9,56.8,171.1,57.1z"/>
			<path fill="#BD967F" d="M134.4,122c-2,3.2-0.8,8.7,1.7,11.5c1,1.1,2.3,4.5,3.5,5.1c1.9,0.9,4.7,2.4,5.2,0.5
				c0.2-1,0.2-2.3-0.3-3.4c-0.4-1.1-1.3-1.6-2-2.2c-0.7-0.6-2-0.8-2.4-3.5c-0.3-2,0.7-2.4,1.4-3.4c-0.6-2.1,1.8-5.2-2.2-6.9
				C137.3,118.8,136.7,118.3,134.4,122z"/>
			<path fill="#DCB598" d="M253.7,134.1c0,0,6.8-26.2,2.2-40.5c-0.2-0.5-0.7-1.4-1.6-2.5c1.9,11.9,0.7,24.4-2,34.6
				c-1.4,5.3-2.1,19.7-3.1,25c-3,16.4-16.6,28.2-31.4,33.3c0,0.1,0,0.1,0,0.2c17.8-5.5,35.2-19.6,39-40.3
				c-0.2,1.4,14.3-4.8,15.3-16.7c0.9-10.5-7.3-13.2-12.5-9.2c-3.1,8-4.5,16.1-4.5,16.1H253.7z M258.2,135.7c0.4-1.1,1.3-1.6,2-2.2
				c0.7-0.6,2-0.8,2.4-3.5c0.4-2.4-1.3-2.5-1.7-4.1c-0.7-2.8,0.2-4.3,1.4-5.5c1.1-1,3-3.1,6,1.7c2,3.2,0.8,8.7-1.7,11.5
				c-1,1.1-2.3,4.5-3.5,5.1c-1.9,0.9-4.8,2.4-5.2,0.5C257.7,138.1,257.8,136.9,258.2,135.7z"/>
			<path fill="#BD967F" d="M263.1,138.6c1.3-0.6,2.5-3.9,3.5-5.1c2.5-2.9,3.7-8.4,1.7-11.5c-3-4.8-4.9-2.7-6-1.7
				c-1.2,1.1-2.1,2.7-1.4,5.5c0.4,1.6,2.1,1.7,1.7,4.1c-0.5,2.7-1.7,2.9-2.4,3.5c-0.7,0.6-1.6,1.1-2,2.2c-0.4,1.1-0.5,2.4-0.3,3.4
				C258.4,141.1,261.2,139.5,263.1,138.6z"/>
			<path fill="#DFBC99" d="M202.4,157.1L202.4,157.1l0,20.8c0,0,0,0,0,0V157.1z"/>
			<path fill="#DFBC99" d="M186.8,184.2c-14.4-4.8-29.2-16.2-32.4-33.5c-1-5.3-1.7-19.6-3.1-25c-3.3-12.8-4.5-29.4,0.1-43.6
				c0.8-0.5,1.5-0.8,2.4-0.8c0,0,3.2-2.7,4.6-8.1c1-3.9,5.1-9.6,8.8-13.2c1.9-1.3,3.8-2.5,6-3.5c2.7-0.3,6.1-2.4,6.1-2.4
				s2.2-2,13.2-4c1.3-0.1,3.5-0.6,4.8-0.7c1,0.1,1.7-0.3,2.6-0.1c0.2,0.1,0.9-0.1,1.1,0c0.2,0.1,1.2-0.4,1.4-0.3v108h0v20.8v9
				c0,0-0.1,0-0.1,0c-0.2,0-0.4,0-0.5,0c-0.1,0-0.2,0-0.3,0c-0.1,0-0.2,0-0.3,0c0,0-0.1,0-0.1,0v0
				C196.3,187.3,186.8,184.2,186.8,184.2z"/>
			<path fill="#131213" d="M141.4,126.6c0.1-0.2,0.2-0.4,0.3-0.7"/>
			<path fill="#131213" d="M141.8,125.9c-0.1,0.3-0.2,0.5-0.3,0.7c1.3,4.3,2,7.6,2,7.6h3.2c0,0-6.8-26.2-2.2-40.5
				c1-3.2,3.6-9.3,7.1-11.5c1.6-5.1,4-9.9,7.2-14.1c2.4-3.1,5.3-5.8,8.5-8.1c1.4-1.4,2.8-2.5,3.9-2.9c0.8-0.3,1.4-0.5,2.1-0.6
				c6-2.9,12.2-4.8,20.3-5.4c0.1,0,0.9-0.1,1-0.1c1.2-0.2,1.8-0.9,2.9-0.8c0.9,0,2.6-0.8,3.5-0.9c0.2,0,0.8-0.2,1-0.2
				c0.1,0,0.1,0,0.2,0c0.2,0,0.1,1.8,0.2,1.8c5.3,0,10.2,0.5,14.7,1.3c0,0,0,0,0,0l0,0c12.2,2.3,21.6,7.6,28,15.8
				c5.1,6.6,8,14.6,9.3,23c0.8,1.1,1.4,2,1.6,2.5c4.6,14.3-2.2,40.5-2.2,40.5h3.2c0,0-0.6,0.2,1.5-7.5c0.8-2.8,0.8-4.4,1.1-6.3
				c2.7-33.1,2.3-83.6-58.1-83.6c0,0-0.1,0-0.1,0c0,0-0.1,0-0.1,0c-60.4,0-62.4,45.4-59.8,78.5"/>
			<path fill="#131213" d="M178.3,55.3c0,0,5.1-2,16.1-4.1c-8.1,0.7-15.2,2.4-21.2,5.3C175.8,56.3,178.3,55.3,178.3,55.3z"/>
			<path fill="#131213" d="M158.4,73.2c1-3.9,5.1-9.6,8.8-13.2c-3.3,2.3-6.1,5-8.5,8.1c-3.2,4.2-5.6,9-7.2,14.1
				c0.8-0.5,1.5-0.8,2.4-0.8C153.9,81.3,157,78.6,158.4,73.2z"/>
			<path fill="#EFCFAB" d="M254.4,91.1"/>
			<path fill="#EFCFAB" d="M217.9,184.1c-3.8,1.3-7.7,2.2-11.6,2.6c-0.1,0-0.2,0-0.3,0c-0.4,0-0.9,0.1-1.3,0.1c-0.2,0-0.4,0-0.6,0
				c-0.6,0-1.1,0-1.7,0.1v-9v-20.8V57.2l-0.3-8.1c0,0,48.5-2.5,52.3,42c1.9,11.9,0.7,24.4-2,34.6c-1.4,5.3-2.1,19.7-3.1,25
				C246.4,167.2,232.7,179,217.9,184.1L217.9,184.1z"/>
		</g>
		<path fill="#224098" d="M243.6,196.9c0.1,0,0.2,0,0.3,0c0,0,0,0,0,0C243.8,196.9,243.7,196.9,243.6,196.9z"/>
		<path fill="#FFFFFF" d="M289.2,232.8c-5.9-9.9-12.2-17.1-18.3-22.3c-7.9-6.7-15.4-10.3-21.4-12.1c-2.1-0.7-4-1.1-5.6-1.4
			c-0.1,0.3-0.3,0.8-0.5,1.4c-0.5,1.2-1.3,2.9-2.4,5c-0.9,1.7-2.1,3.7-3.5,5.7c-4.9,7-12.7,14.8-24.3,17.7c-3,0.8-6.2,1.2-9.7,1.2
			c-0.1,0-0.3,0-0.4,0l-0.1,0c-4.4-0.1-8.4-0.8-12-2c-2.2-0.7-4.2-1.7-6.2-2.7l82.4,147.5c0.2,0,0.3-0.1,0.5-0.1l-5.3-32.5l-0.7-4.3
			c-0.1-0.4-0.2-0.9-0.4-1.3c-0.2-0.9-0.4-2.3-0.5-3.8l-1.1-6.5l1.1-0.1l7.6-0.9l2.5-0.3l18.3-2.1l13.8-1.5l10.8-1.2
			C309.2,276.9,299.8,250.5,289.2,232.8z"/>
		<path fill="#FFFFFF" d="M149.9,200.9c-8.9,3.9-16.6,10.1-23.2,17.6c-7.4,8.4-13.5,18.5-18.3,29.1c-15.8,34-19.8,72.3-19.8,72.3
			l12.7,1.4l7.1,0.8l18.3,2.1l11.3,1.3l4.5,0.5l18.6-128.6C157.2,198.2,153.4,199.3,149.9,200.9z"/>
		<path fill="#0000FF" d="M165.8,203c-1.1-2-1.8-3.7-2.3-4.9c-0.2-0.5-0.3-0.9-0.4-1.1c1.7-0.3,3.4-0.5,5.2-0.6
			c-2.4,0.2-4.8,0.5-7.1,1L142.5,326l0.2,0l-1.2,8.7l-1,7.6l-4.1,30.2c3,0.7,6,1.4,9,2c17,3.5,34.7,5.4,52.8,5.4
			c1.6,0,3.2,0,4.8-0.1c19.6-0.4,38.6-2.9,56.9-7.3c2.4-0.6,4.8-1.2,7.2-1.9l-82.4-147.5C175,217.8,169,209.1,165.8,203z"/>
	</g>
</g>
</svg>
