<?xml version="1.0" encoding="utf-8"?>
<!-- Generator: Adobe Illustrator 19.2.1, SVG Export Plug-In . SVG Version: 6.00 Build 0)  -->
<svg version="1.1" id="Capa_1" xmlns="http://www.w3.org/2000/svg" xmlns:xlink="http://www.w3.org/1999/xlink" x="0px" y="0px"
	 viewBox="0 0 512 512" style="enable-background:new 0 0 512 512;" xml:space="preserve">
<style type="text/css">
	.st0{fill:#333333;}
</style>
<g>
	<path class="st0" d="M257.5,20.2C127,20.2,21.1,126,21.1,256.6S127,493,257.5,493s236.4-105.8,236.4-236.4S388.1,20.2,257.5,20.2z
		 M237.6,190.7h-43v146.4c0,9-7.3,16.3-16.3,16.3c-9,0-16.3-7.3-16.3-16.3V190.7h-43c-7.9,0-14.3-6.5-14.3-14.3
		c0-7.9,6.5-14.3,14.3-14.3h118.6c7.9,0,14.3,6.5,14.3,14.3C252,184.2,245.5,190.7,237.6,190.7z M394.3,353.4c-6.8,0-11-3.9-13.2-7
		l-57.9-80.1l-16,16.9v53.9c0,9-7.3,16.3-16.3,16.3c-9,0-16.3-7.3-16.3-16.3v-161c0-9,7.3-16.3,16.3-16.3c9,0,16.3,7.3,16.3,16.3
		v64.3l67.4-75.3c3.4-3.7,7.6-5.3,11.8-5.3c8.7,0,15.7,7,15.7,15.7c0,4.5-1.7,7.9-4.2,10.7l-52.8,57.3l62.1,84.6
		c2,2.5,3.1,5.9,3.1,9.3C410.3,346.1,403,353.4,394.3,353.4z"/>
</g>
</svg>
