<?xml version="1.0" encoding="utf-8"?>
<!-- Generator: Adobe Illustrator 19.2.0, SVG Export Plug-In . SVG Version: 6.00 Build 0)  -->
<svg version="1.1" id="Capa_1" xmlns="http://www.w3.org/2000/svg" xmlns:xlink="http://www.w3.org/1999/xlink" x="0px" y="0px"
	 viewBox="0 0 40 40" style="enable-background:new 0 0 40 40;" xml:space="preserve">
<style type="text/css">
	.st0{fill:#89C83B;}
	.st1{fill:#B6EF65;}
	.st2{fill:#357C14;}
	.st3{fill:#FFFFFF;}
</style>
<circle class="st0" cx="20" cy="20" r="18.9"/>
<circle class="st1" cx="28.6" cy="8.4" r="2.4"/>
<g>
	<path class="st2" d="M7.5,11V9.2c0-0.4,0.4-0.8,0.8-0.8h12.1c0.4,0,0.8,0.4,0.8,0.8V11c0,0.4-0.4,0.8-0.8,0.8h-4.2v13.5
		c0,0.4-0.4,0.8-0.8,0.8h-2.1c-0.4,0-0.8-0.4-0.8-0.8V11.8H8.3C7.8,11.8,7.5,11.5,7.5,11z"/>
	<path class="st2" d="M33,31.6c0,0.3-0.2,0.6-0.6,0.6h-2.7c-0.5,0-0.8-0.3-1-0.6l-4.1-6.9l-2,2.3v4.4c0,0.4-0.4,0.8-0.8,0.8h-2.1
		c-0.4,0-0.8-0.4-0.8-0.8V15.3c0-0.4,0.4-0.8,0.8-0.8h2.1c0.4,0,0.8,0.4,0.8,0.8v7l6-7.2c0.5-0.5,0.8-0.6,1.1-0.6h2.6
		c0.3,0,0.6,0.3,0.6,0.6c0,0.4-0.4,0.7-0.7,1l-5,5.7l5.4,8.9C32.8,31.1,33,31.4,33,31.6z"/>
	<path class="st3" d="M7,10.5V8.6c0-0.4,0.4-0.8,0.8-0.8h12.1c0.4,0,0.8,0.4,0.8,0.8v1.9c0,0.4-0.4,0.8-0.8,0.8h-4.2v13.5
		c0,0.4-0.4,0.8-0.8,0.8h-2.1c-0.4,0-0.8-0.4-0.8-0.8V11.2H7.8C7.4,11.2,7,10.9,7,10.5z"/>
	<path class="st3" d="M32.5,31.1c0,0.3-0.2,0.6-0.6,0.6h-2.7c-0.5,0-0.8-0.3-1-0.6l-4.1-6.9l-2,2.3v4.4c0,0.4-0.4,0.8-0.8,0.8h-2.1
		c-0.4,0-0.8-0.4-0.8-0.8V14.7c0-0.4,0.4-0.8,0.8-0.8h2.1c0.4,0,0.8,0.4,0.8,0.8v7l6-7.2c0.5-0.5,0.8-0.6,1.1-0.6h2.6
		c0.3,0,0.6,0.3,0.6,0.6c0,0.4-0.4,0.7-0.7,1l-5,5.7l5.4,8.9C32.3,30.6,32.5,30.8,32.5,31.1z"/>
</g>
</svg>
