<?xml version="1.0" encoding="utf-8"?>
<!-- Generator: Adobe Illustrator 20.1.0, SVG Export Plug-In . SVG Version: 6.00 Build 0)  -->
<svg version="1.1" id="Layer_1" xmlns="http://www.w3.org/2000/svg" xmlns:xlink="http://www.w3.org/1999/xlink" x="0px" y="0px"
	 viewBox="0 0 400 400" style="enable-background:new 0 0 400 400;" xml:space="preserve">
<style type="text/css">
	.st0{fill:#FFFFFF;}
	.st1{fill:#D1D4D5;}
	.st2{clip-path:url(#SVGID_2_);}
	.st3{fill:#DFBA98;}
	.st4{fill:#EECFAB;}
	.st5{opacity:0.7;fill:#BD967F;enable-background:new    ;}
	.st6{fill:#D1A586;}
	.st7{fill:#DCB598;}
	.st8{fill:#DFBC99;}
	.st9{fill:#EFCFAB;}
	.st10{fill:#FCDB0D;}
	.st11{fill:#1B75B9;}
	.st12{fill:#DD1D1D;}
	.st13{fill:#BD967F;}
	.st14{fill:#131213;}
	.st15{fill:none;}
	.st16{fill:#0C1E51;}
	.st17{fill:#FF0000;}
	.st18{fill:#262528;}
</style>
<circle class="st0" cx="200" cy="200" r="190.3"/>
<circle class="st1" cx="200" cy="200" r="181.2"/>
<g>
	<g>
		<g>
			<g>
				<g>
					<g>
						<g>
							<g>
								<g>
									<g>
										<defs>
											<circle id="SVGID_1_" cx="200" cy="200" r="181.2"/>
										</defs>
										<clipPath id="SVGID_2_">
											<use xlink:href="#SVGID_1_"  style="overflow:visible;"/>
										</clipPath>
										<g class="st2">
											<path class="st3" d="M136.7,326l-11.6-1.3l-18.8-2.1l-7.3-0.8c-0.7,10.5-1,21.9-0.9,34.3c0,0-0.2,2.2-0.5,6
												c9.5,3.9,19.2,7.2,29.1,10l0.1-0.7c0,0,7-11.4,12.6-28l1.1-7.8l1.2-8.9L136.7,326z"/>
											<path class="st3" d="M203.9,185.3c-14.5-0.1-23.1-10.4-25.5-13.8c0,0.1,0,0.2-0.1,0.3c-0.3,1.9-0.6,3.7-1,5.4
												c-1.8,8.2-4.2,14.3-7.7,16.9l0,0c0,0,0.9,2.7,2.9,6.3c3.4,6.1,10,15,20.9,18.7c3.1,1,6.6,1.7,10.4,1.7v-19.2L203.9,185.3
												C204,185.3,204,185.3,203.9,185.3z"/>
											<path class="st3" d="M204.2,220.9v-19.3c0,0-0.1,0-0.2,0v19.2C204.1,220.9,204.1,220.9,204.2,220.9z"/>
											<path class="st4" d="M265,339.6c0.1-0.2,0.2-0.5,0.3-0.7c-0.4-1.2-0.7-2.5-1.1-3.7L265,339.6z"/>
											<path class="st4" d="M230.6,175.9c-0.3-1.3-0.5-2.6-0.7-4v-0.1c0-0.1,0-0.3-0.1-0.4c-2.3,3.7-10.2,14-25.8,14h-0.1v16.3
												c0,0,0.1,0,0.2,0V221l0,0c3,0,5.7-0.4,8.2-1c9.9-2.5,16.5-9.1,20.6-15c1.1-1.5,1.9-3,2.7-4.3c2-3.7,2.9-6.4,2.9-6.4l0,0
												C235,191.4,232.4,184.7,230.6,175.9z"/>
											<path class="st5" d="M178.6,169.5c-0.1,0.6-0.2,1.3-0.3,1.9c0,0.1,0.1,0.1,0.2,0.2c0.1-0.7,0.2-1.4,0.3-2
												C178.7,169.5,178.6,169.5,178.6,169.5z"/>
											<path class="st5" d="M229.8,171.4C229.8,171.3,229.9,171.3,229.8,171.4v-0.1c-0.1-0.9-0.3-1.8-0.4-2.7c0,0,0,0-0.1,0
												C229.6,169.5,229.7,170.5,229.8,171.4z"/>
											<path class="st3" d="M203.9,185.3C204,185.3,204,185.3,203.9,185.3l0.1-12.5h-0.1c-0.2,0-0.4,0-0.6,0c-0.1,0-0.2,0-0.3,0
												s-0.2,0-0.3,0s-0.2,0-0.2,0c-0.1,0-0.2,0-0.2,0c-7.5,0-15.5-1.1-23.5-3.3c-0.1,0.7-0.2,1.4-0.3,2
												C180.8,174.9,189.4,185.3,203.9,185.3z"/>
											<path class="st4" d="M210.5,172.4c-0.2,0-0.3,0-0.5,0c-0.7,0.1-1.5,0.1-2.2,0.2c-0.3,0-0.6,0-1,0.1
												c-1,0.1-1.9,0.1-2.9,0.1v12.5c0,0,0,0,0.1,0c15.5,0,23.4-10.3,25.8-14c-0.1-0.9-0.3-1.9-0.4-2.8
												C223.1,170.5,216.7,171.8,210.5,172.4z"/>
											<path class="st5" d="M229.4,168.6c-6.4,2-12.7,3.3-18.9,3.9c-0.2,0-0.3,0-0.5,0c-0.7,0.1-1.5,0.1-2.2,0.2
												c-0.3,0-0.6,0-1,0.1c-1,0.1-1.9,0.1-2.9,0.1h-0.1c-0.2,0-0.4,0-0.6,0c-0.1,0-0.2,0-0.3,0s-0.2,0-0.3,0s-0.2,0-0.2,0
												c-0.1,0-0.2,0-0.2,0c-7.5,0-15.5-1.1-23.5-3.3c-0.1,0.7-0.2,1.4-0.3,2c2.4,3.4,11,13.7,25.5,13.8c0,0,0,0,0.1,0
												c0,0,0,0,0.1,0c15.5,0,23.4-10.3,25.8-14C229.7,170.5,229.6,169.5,229.4,168.6z"/>
											<path class="st6" d="M178.9,168.5c-0.1,0-0.1,0-0.2-0.1c0,0.3-0.1,0.7-0.2,1c0.1,0,0.1,0,0.2,0
												C178.8,169.2,178.8,168.9,178.9,168.5z"/>
											<path class="st6" d="M178.9,168.5c0,0.3-0.1,0.7-0.1,1c8,2.2,16,3.3,23.5,3.3c0.1,0,0.2,0,0.2,0c-0.1,0-0.2,0-0.3,0
												C195,172.7,187,171.2,178.9,168.5z"/>
											<path class="st7" d="M229.4,168.3c0,0.1,0,0.2,0,0.3c0,0,0,0,0.1,0C229.5,168.4,229.5,168.3,229.4,168.3
												C229.4,168.2,229.4,168.2,229.4,168.3z"/>
											<path class="st7" d="M203.9,172.8h0.1l0,0H203.9z"/>
											<path class="st7" d="M202.5,172.8c0.1,0,0.2,0,0.2,0c0.1,0,0.2,0,0.3,0c-0.1,0-0.3,0-0.4,0
												C202.5,172.8,202.5,172.8,202.5,172.8z"/>
											<path class="st7" d="M204.1,172.8C204,172.8,204,172.8,204.1,172.8L204.1,172.8c0.9,0,1.8,0,2.8-0.1
												C205.9,172.8,205,172.8,204.1,172.8z"/>
											<path class="st7" d="M210,172.5c-0.7,0.1-1.5,0.1-2.2,0.2C208.6,172.6,209.3,172.6,210,172.5z"/>
											<path class="st7" d="M229.4,168.6c0-0.1,0-0.2,0-0.3c-6.3,2.1-12.6,3.6-18.9,4.2C216.7,171.8,223.1,170.5,229.4,168.6z"
												/>
											<path class="st7" d="M202.1,172.8c0.1,0,0.2,0,0.3,0h0.1C202.4,172.8,202.3,172.8,202.1,172.8z"/>
											<path class="st8" d="M203.3,172.8c0.2,0,0.4,0,0.6,0c-0.3,0-0.6,0-0.9,0C203.1,172.8,203.2,172.8,203.3,172.8z"/>
											<path class="st8" d="M180.3,155.7c0-0.2,0-0.4,0-0.6h-0.1c-0.2,2.2-0.4,4.3-0.6,6.3c-0.2,2.4-0.5,4.8-0.9,7
												c0.1,0,0.1,0,0.2,0.1c0.3-2.1,0.6-4.3,0.8-6.5C179.9,159.9,180.1,157.8,180.3,155.7z"/>
											<path class="st8" d="M204,158.2v14.6c0,0,0,0,0.1,0L204,158.2L204,158.2z"/>
											<path class="st9" d="M210.5,172.4c-0.2,0-0.3,0-0.5,0C210.2,172.5,210.3,172.5,210.5,172.4z"/>
											<path class="st9" d="M207.8,172.7c-0.3,0-0.6,0-1,0.1C207.2,172.7,207.5,172.7,207.8,172.7z"/>
											<path class="st9" d="M228,154.8L228,154.8c0,0.2,0,0.4,0,0.6c0.2,2.1,0.4,4.2,0.6,6.2c0.3,2.3,0.5,4.5,0.8,6.6
												c0,0,0,0,0.1,0c-0.3-2.3-0.6-4.7-0.9-7.2C228.4,159,228.2,156.9,228,154.8z"/>
											<path class="st4" d="M308,356c0.1-13.8-0.4-26.3-1.2-37.8l-14.2,1.6l-18.8,2.1l-2.6,0.3l-7.8,0.9l-1.1,0.1l1.1,6.6
												l0.9,5.3c0.3,1.3,0.7,2.5,1.1,3.7c4.9,16.3,11.7,28.5,13.5,31.6c10.1-3.2,19.9-6.9,29.4-11.2
												C308.1,357.2,308,356,308,356z"/>
											<path class="st10" d="M238.8,194.2c0,0,0.1,0,0.2,0C238.9,194.2,238.8,194.2,238.8,194.2z"/>
											<path class="st10" d="M239.3,194.1c0.1,0,0.3,0,0.4,0C239.5,194.1,239.4,194.1,239.3,194.1z"/>
											<path class="st10" d="M241.8,194.2c0.3,0,0.6,0.1,0.9,0.1C242.4,194.3,242.1,194.3,241.8,194.2z"/>
											<path class="st10" d="M240.1,194.2c0.3,0,0.7,0,1.2,0.1C240.8,194.2,240.4,194.2,240.1,194.2z"/>
											<path class="st10" d="M264.2,335.1l-0.9-5.3c0.1,1.6,0.2,3,0.5,3.9C264,334.3,264.1,334.7,264.2,335.1z"/>
											<path class="st11" d="M238.9,194.2c0.1,0,0.2,0,0.3,0C239.1,194.1,239,194.2,238.9,194.2z"/>
											<path class="st11" d="M239.7,194.1c0.1,0,0.3,0,0.4,0C239.9,194.2,239.8,194.1,239.7,194.1z"/>
											<path class="st11" d="M242.7,194.3c0.2,0,0.4,0,0.5,0.1C243.1,194.4,242.9,194.3,242.7,194.3z"/>
											<path class="st11" d="M241.3,194.2c0.2,0,0.3,0,0.5,0C241.6,194.2,241.5,194.2,241.3,194.2z"/>
											<path class="st11" d="M238.8,194.2c-0.1,0-0.2,0-0.2,0l0,0C238.6,194.2,238.7,194.2,238.8,194.2z"/>
											<path class="st11" d="M238.6,194.2L238.6,194.2L238.6,194.2z"/>
											<path class="st11" d="M204.2,220.9c-0.1,0-0.1,0-0.2,0v5.7c0.1,0,0.1,0,0.2,0V220.9z"/>
											<g>
												<path class="st12" d="M243.3,194.4c-0.2,0-0.4,0-0.5-0.1c-0.3,0-0.6-0.1-0.9-0.1c-0.2,0-0.3,0-0.5,0
													c-0.5,0-0.9,0-1.2-0.1c-0.1,0-0.3,0-0.4,0c-0.2,0-0.3,0-0.4,0c-0.1,0-0.2,0-0.3,0s-0.2,0-0.2,0c-0.1,0-0.2,0-0.2,0l0,0
													c0,0-0.9,2.7-2.9,6.4c-0.7,1.3-1.6,2.8-2.7,4.3c-4.1,5.9-10.8,12.6-20.6,15c-2.5,0.6-5.3,1-8.2,1l0,0v5.7
													c0.1,0,0.3,0,0.4,0c3.6,0,6.9-0.4,9.9-1.2c11.9-3,20-11,24.9-18.2c1.5-2.1,2.7-4.1,3.6-5.9c1.1-2.1,1.9-3.9,2.4-5.1
													c0.2-0.6,0.4-1.1,0.6-1.4C245,194.6,244.1,194.5,243.3,194.4z"/>
												<path class="st12" d="M172.6,200.5c-2-3.6-2.9-6.3-2.9-6.3l0,0c-0.4,0-0.9,0-1.3,0.1c-1.8,0.1-3.6,0.3-5.3,0.6
													c0.1,0.3,0.3,0.7,0.5,1.2c0.5,1.2,1.3,3,2.4,5c3.9,7.4,12,18.8,25.8,23.5c3.7,1.2,7.8,2,12.3,2v-5.7
													c-3.8,0-7.3-0.6-10.4-1.7C182.6,215.5,176,206.6,172.6,200.5z"/>
											</g>
											<g>
												<path class="st6" d="M154.3,147.4c-1-5.4-1.7-20.2-3.1-25.6c-3.4-13.2-4.6-30.2,0.1-44.7c-3.6,2.2-6.2,8.4-7.3,11.8
													c-4.7,14.7,2.3,41.6,2.3,41.6H143c0,0-0.7-3.3-2-7.8c-0.6,1-1.7,1.5-1.4,3.5c0.5,2.8,1.8,3,2.5,3.6s1.6,1.1,2.1,2.3
													c0.4,1.2,0.5,2.4,0.3,3.5c-0.5,2-3.4,0.4-5.3-0.5c-1.3-0.6-2.6-4.1-3.6-5.2c-2.6-2.9-3.8-8.6-1.8-11.8
													c2.4-3.9,6.6,5.5,8.6,6.4c-0.4-1.2-0.5-9.4-1-10.6c-7.6-6.3-12.3,0.7-11.6,9.6c1,12.2,16,18.5,15.7,17.1
													c4,22.1,23,36.8,42,42c0-0.2,0.1-0.4,0.1-0.6C172.7,176.8,157.5,165.1,154.3,147.4z"/>
												<path class="st6" d="M171.4,51.3c-1.1,0.5-2.5,1.6-4,3c1.9-1.3,3.9-2.5,6.1-3.6C172.9,50.8,172.2,51,171.4,51.3z"/>
												<path class="st13" d="M133.7,117.9c-2,3.3-0.8,8.9,1.8,11.8c1,1.2,2.3,4.6,3.6,5.2c2,0.9,4.9,2.5,5.3,0.5
													c0.3-1.1,0.2-2.3-0.3-3.5s-1.4-1.7-2.1-2.3c-0.7-0.6-2-0.8-2.5-3.6c-0.3-2,0.8-2.5,1.4-3.5c-0.6-2.2,1.8-5.3-2.3-7.1
													C136.8,114.6,136.1,114.1,133.7,117.9z"/>
												<path class="st7" d="M256.2,130.4c0,0,7-26.9,2.3-41.6c-0.2-0.5-0.8-1.4-1.6-2.6c2,12.2,0.7,25.1-2,35.5
													c-1.4,5.5-2.2,20.2-3.1,25.6c-3.1,16.9-17.1,29-32.3,34.2c0,0.1,0,0.1,0,0.2c18.3-5.7,36.1-20.1,40-41.4
													c-0.2,1.4,14.7-4.9,15.7-17.1c0.9-10.8-7.5-13.6-12.8-9.4c-3.2,8.2-4.7,16.5-4.7,16.5h-1.5V130.4z M260.8,132
													c0.5-1.2,1.4-1.7,2.1-2.3s2-0.8,2.5-3.6c0.4-2.5-1.3-2.6-1.7-4.2c-0.8-2.9,0.2-4.5,1.4-5.6c1.2-1.1,3.1-3.2,6.2,1.7
													c2,3.3,0.8,8.9-1.8,11.8c-1,1.2-2.3,4.6-3.6,5.2c-2,0.9-4.9,2.5-5.3,0.5C260.3,134.4,260.3,133.1,260.8,132z"/>
												<path class="st13" d="M265.8,135c1.3-0.6,2.6-4.1,3.6-5.2c2.6-2.9,3.8-8.6,1.8-11.8c-3.1-4.9-5-2.8-6.2-1.7
													c-1.2,1.2-2.2,2.7-1.4,5.6c0.4,1.6,2.1,1.7,1.7,4.2c-0.5,2.8-1.7,3-2.5,3.6c-0.7,0.6-1.6,1.1-2.1,2.3
													c-0.4,1.2-0.5,2.4-0.3,3.5C261,137.5,263.9,135.9,265.8,135z"/>
												<path class="st8" d="M203.5,153.9L203.5,153.9v21.4l0,0V153.9z"/>
												<path class="st8" d="M187.5,181.7c-14.8-5-30-16.6-33.2-34.4c-1-5.4-1.7-20.2-3.1-25.6c-3.4-13.2-4.6-30.2,0.1-44.7
													c0.8-0.5,1.6-0.8,2.5-0.8c0,0,3.2-2.8,4.7-8.3c1-4,5.2-9.9,9-13.5c1.9-1.3,3.9-2.5,6.1-3.6c2.7-0.3,6.3-2.5,6.3-2.5
													s2.2-2,13.5-4.1c1.3-0.1,3.6-0.6,4.9-0.7c1,0.1,1.8-0.4,2.7-0.1c0.2,0.1,0.9-0.1,1.1,0c0.2,0.1,1.2-0.4,1.4-0.3V154l0,0
													v21.4v9.2h-0.1c-0.2,0-0.4,0-0.5,0s-0.2,0-0.3,0s-0.2,0-0.3,0h-0.1l0,0C197.2,184.9,187.5,181.7,187.5,181.7z"/>
												<path class="st14" d="M141,122.6c0.1-0.2,0.3-0.4,0.3-0.7"/>
												<path class="st14" d="M141.3,121.9c-0.1,0.3-0.2,0.5-0.3,0.7c1.3,4.4,2,7.8,2,7.8h3.3c0,0-7-26.9-2.3-41.6
													c1.1-3.3,3.7-9.5,7.3-11.8c1.7-5.2,4.1-10.1,7.4-14.4c2.5-3.2,5.4-5.9,8.8-8.3c1.5-1.4,2.9-2.5,4-3
													c0.8-0.3,1.5-0.5,2.1-0.6c6.2-2.9,12.5-4.9,20.9-5.6c0.1,0,0.9-0.1,1-0.1c1.2-0.2,1.9-0.9,3-0.8c0.9,0,2.6-0.9,3.6-0.9
													c0.2,0,0.8-0.2,1-0.2c0.1,0,0.1,0,0.2,0c0.2,0,0.1,1.8,0.2,1.8c5.4,0,10.4,0.5,15.1,1.4l0,0l0,0
													c12.5,2.4,22.2,7.8,28.7,16.3c5.2,6.8,8.2,15,9.6,23.6c0.9,1.2,1.5,2.1,1.6,2.6c4.7,14.7-2.3,41.6-2.3,41.6h3.3
													c0,0-0.6,0.2,1.6-7.7c0.8-2.9,0.8-4.5,1.1-6.5c2.8-34,2.4-85.8-59.6-85.8c0,0-0.1,0-0.2,0c-0.1,0-0.1,0-0.2,0
													c-62,0-64.1,46.6-61.3,80.6"/>
												<path class="st14" d="M178.8,49.4c0,0,5.2-2.1,16.5-4.2c-8.3,0.7-15.6,2.5-21.8,5.4C176.3,50.5,178.8,49.4,178.8,49.4z"
													/>
												<path class="st14" d="M158.4,67.8c1-4,5.2-9.9,9-13.5c-3.3,2.3-6.3,5.1-8.8,8.3c-3.3,4.3-5.7,9.2-7.4,14.4
													c0.8-0.5,1.6-0.8,2.5-0.8C153.7,76.2,157,73.4,158.4,67.8z"/>
												<path class="st9" d="M256.8,86.2"/>
												<path class="st9" d="M219.4,181.6c-3.9,1.3-7.9,2.2-11.9,2.6c-0.1,0-0.2,0-0.3,0c-0.5,0-0.9,0.1-1.4,0.1
													c-0.2,0-0.4,0-0.6,0c-0.6,0-1.2,0.1-1.8,0.1v-9.2v-21.4V51.4l-0.3-8.3c0,0,49.8-2.6,53.7,43.2c2,12.2,0.7,25.1-2,35.5
													c-1.4,5.5-2.2,20.2-3.1,25.6C248.6,164.2,234.6,176.4,219.4,181.6L219.4,181.6z"/>
											</g>
											<g>
												<polygon class="st0" points="87.5,314.2 87.5,314.2 141.5,320.5 141.5,320.5 												"/>
												<g>
													<path class="st15" d="M82.9,289.7l7.7,7.7c1.3-6.2,3.1-13.2,5.2-20.6L82.9,289.7z"/>
													<path class="st16" d="M110.8,261.9l-14.9,14.9c-2.2,7.4-3.9,14.4-5.2,20.6l20.2,20.2l27.8-27.8L110.8,261.9z"/>
													<path class="st16" d="M138.6,226.1L127.5,215c-0.6,0.6-1.2,1.3-1.7,1.9c-7.6,8.6-13.8,19-18.8,29.8
														c-0.4,0.8-0.7,1.6-1.1,2.4l4.9,4.9L138.6,226.1z"/>
													<path class="st16" d="M146.9,217.8l1-18.3c-6,2.9-11.4,6.8-16.4,11.5l11.1,11.1L146.9,217.8z"/>
													<path class="st16" d="M103.6,254.6c-1.4,3.5-2.7,7-3.9,10.4l7.2-7.2L103.6,254.6z"/>
													<polygon class="st16" points="137.3,326.7 141.2,327.1 141.5,320.5 141.8,315.5 142.9,294 142.6,293.7 114.8,321.5 
														117.7,324.5 125.7,325.4 													"/>
													<path class="st16" d="M89.3,304c-0.4,1.9-0.7,3.7-1,5.3c-0.3,1.8-0.6,3.5-0.8,4.9c-0.6,4.3-0.9,6.8-0.9,6.8l13,1.5
														l5.6,0.6l1.6-1.6L89.3,304z"/>
													<polygon class="st16" points="146.1,233.6 142.6,230 114.8,257.9 142.6,285.7 143.4,284.9 													"/>
													<polygon class="st12" points="142.6,230 146.1,233.6 146.5,226.2 													"/>
													<path class="st12" d="M142.6,222.1L131.5,211c-1.4,1.3-2.7,2.6-4,4l11.1,11.1L142.6,222.1z"/>
													<polygon class="st12" points="112.4,323.9 117.7,324.5 114.8,321.5 													"/>
													<path class="st12" d="M110.8,317.6l-20.2-20.2c-0.5,2.3-1,4.5-1.4,6.6l17.5,17.5L110.8,317.6z"/>
													
														<rect x="123.9" y="254.1" transform="matrix(0.7071 -0.7071 0.7071 0.7071 -156.503 169.7803)" class="st12" width="5.6" height="39.4"/>
													<path class="st12" d="M110.8,253.9l-4.9-4.9c-0.8,1.9-1.6,3.7-2.4,5.6l3.2,3.2L110.8,253.9z"/>
													<polygon class="st12" points="142.6,293.7 142.9,294 143,293.3 													"/>
													<polygon class="st0" points="105.2,323.1 106.9,323.3 108.8,323.5 106.8,321.5 													"/>
													<polygon class="st0" points="142.6,285.7 143.3,286.5 143.4,284.9 													"/>
													
														<rect x="107" y="302.8" transform="matrix(0.7071 -0.7071 0.7071 0.7071 -179.0068 179.1017)" class="st0" width="39.4" height="5.6"/>
													<polygon class="st0" points="114.8,321.5 110.8,317.6 106.8,321.5 108.8,323.5 112.4,323.9 													"/>
													<polygon class="st0" points="143,293.3 146.6,289.7 143.3,286.5 													"/>
													<polygon class="st0" points="143.3,286.5 142.6,285.7 138.6,289.7 142.6,293.7 143,293.3 													"/>
													
														<rect x="107" y="239.2" transform="matrix(0.7071 -0.7071 0.7071 0.7071 -133.9992 160.4589)" class="st0" width="39.4" height="5.6"/>
													<polygon class="st0" points="146.5,226 146.9,217.8 142.6,222.1 													"/>
													<path class="st0" d="M99.6,265.1c-1.4,4-2.6,7.9-3.8,11.7l14.9-14.9l-4-4L99.6,265.1z"/>
													<polygon class="st0" points="146.6,226.1 146.5,226 146.5,226.2 													"/>
													<polygon class="st0" points="146.5,226.2 146.5,226 142.6,222.1 138.6,226.1 142.6,230 													"/>
													
														<rect x="108" y="255.1" transform="matrix(0.7071 -0.7071 0.7071 0.7071 -149.9118 153.8677)" class="st0" width="5.6" height="5.6"/>
												</g>
											</g>
											<g>
												<path class="st15" d="M312.1,287.2l1.8-1.8l-2.8-2.8C311.4,284.2,311.7,285.7,312.1,287.2z"/>
												<polygon class="st16" points="262,233.6 262,281.6 286,257.6 												"/>
												<path class="st16" d="M308.3,272c-2.2-7.9-4.7-15-7.3-21.4l-7.1,7.1L308.3,272z"/>
												<path class="st16" d="M272.4,208.7c-3.4-2.9-6.4-5.2-10.4-7.1v20.3l11.9-11.9C273.4,209.6,272.9,209.1,272.4,208.7z"/>
												<path class="st16" d="M289.9,261.6l-25.9,25.9l23.9,23.9l24.1-24.1c-0.3-1.5-0.7-3.1-1-4.5L289.9,261.6z"/>
												<polygon class="st16" points="287.9,319.3 288,319.3 288,319.3 												"/>
												<path class="st16" d="M298.6,245c-2.2-4.9-4.6-9.4-7-13.4c-4.3-7.2-9-13-13.6-17.7l-13.9,13.9l25.9,25.9L298.6,245z"/>
												<path class="st16" d="M295.2,318.5l10.6-1.2l11.1-1.2c-0.2-1.9-0.5-3.7-0.7-5.5c-0.2-1.7-0.5-3.3-0.7-4.9h-0.1
													c-0.6-4.1-1.3-8.1-2-11.9l-21.5,21.5L295.2,318.5z"/>
												<polygon class="st16" points="262,311.9 262,312.8 262,316.9 262,322.1 269.8,321.3 272.6,321 279,320.3 284,315.3 
													262,293.3 												"/>
												<polygon class="st12" points="262,229.9 260.1,231.7 262,233.6 												"/>
												<polygon class="st12" points="286,257.6 289.9,253.6 264.1,227.8 262,229.9 262,233.6 												"/>
												<path class="st12" d="M289.9,261.6l21.1,21.1c-0.9-3.7-1.8-7.3-2.7-10.7l-14.4-14.4L289.9,261.6z"/>
												<polygon class="st12" points="262,293.3 262,289.5 260.1,291.4 												"/>
												<polygon class="st12" points="288,319.3 288,319.3 291.5,318.9 295.2,318.5 291.9,315.3 												"/>
												<polygon class="st12" points="262,289.5 262,293.3 284,315.3 288,311.3 264.1,287.4 												"/>
												<polygon class="st0" points="284,315.3 279,320.3 287.9,319.3 288,319.3 												"/>
												<path class="st0" d="M288,311.3l4,4l21.5-21.5c-0.4-2.3-0.9-4.5-1.3-6.6L288,311.3z"/>
												
													<rect x="285.1" y="312.5" transform="matrix(0.7071 -0.7071 0.7071 0.7071 -138.5944 295.9623)" class="st0" width="5.6" height="5.6"/>
												<polygon class="st0" points="262,281.6 260.1,283.5 262,285.3 												"/>
												<polygon class="st0" points="262,281.6 262,285.3 264.1,287.4 289.9,261.6 286,257.6 												"/>
												<path class="st0" d="M289.9,253.6l4,4l7.1-7.1c-0.8-1.9-1.6-3.8-2.4-5.6L289.9,253.6z"/>
												
													<rect x="287.1" y="254.8" transform="matrix(0.7071 -0.7071 0.7071 0.7071 -97.2237 280.4738)" class="st0" width="5.6" height="5.6"/>
												<polygon class="st0" points="260.1,283.5 256.1,287.4 260.1,291.4 262,289.5 262,285.3 												"/>
												<polygon class="st0" points="262,289.5 264.1,287.4 262,285.3 												"/>
												<polygon class="st0" points="262,221.9 260.1,223.8 262,225.7 												"/>
												<path class="st0" d="M264.1,227.8l13.9-13.9c-1.4-1.4-2.7-2.7-4.1-3.9L262,221.9v3.8L264.1,227.8z"/>
												<polygon class="st0" points="262,229.9 262,225.7 260.1,223.8 256.1,227.8 260.1,231.7 												"/>
												<polygon class="st0" points="262,225.7 262,229.9 264.1,227.8 												"/>
											</g>
											<path class="st17" d="M245.8,194.8c0.1,0,0.2,0,0.3,0l0,0C246,194.8,245.9,194.8,245.8,194.8z"/>
											<g>
												<path class="st18" d="M162.7,194.8L162.7,194.8c1.7-0.3,3.5-0.5,5.3-0.6C166.2,194.3,164.4,194.5,162.7,194.8z"/>
												<g>
													<path class="st15" d="M270,372c-1.8,0.5-3.6,1-5.4,1.4c-0.9,0.2-1.7,0.4-2.5,0.6c-1.1,0.3-2.3,0.5-3.4,0.8
														c-7.4,1.7-15,3-22.7,4.1l23.9,23.9l27.8-27.8l-20.6-20.6L270,372z"/>
													<path class="st15" d="M146.6,217.7l1-18.1c0.5-0.3,1.1-0.6,1.6-0.8c4.2-1.9,8.7-3.2,13.5-4c0.1,0.3,0.3,0.7,0.5,1.2
														c0.4,0.9,0.9,2.1,1.6,3.5l1.6-1.6l-27.8-27.8L114.7,194l27.8,27.8L146.6,217.7z"/>
													<path class="st15" d="M198.8,381.6c-4.1,0-8.1-0.1-12.1-0.3c-2-0.1-3.9-0.2-5.9-0.3c-2.3-0.2-4.6-0.3-6.9-0.6
														l22.4,22.4l22-22c-4.9,0.4-9.7,0.6-14.6,0.7C202.1,381.6,200.5,381.6,198.8,381.6z"/>
													<path class="st15" d="M180.8,219c1.8,1.3,3.8,2.5,5.9,3.6c1.5,0.7,3.1,1.4,4.7,1.9c0.7,0.2,1.5,0.4,2.2,0.6l-23.2-23.2
														l-2.7,2.7C170.6,209.3,174.9,214.8,180.8,219z"/>
													<path class="st15" d="M214.1,225.3c1.5-0.4,2.9-0.8,4.3-1.3c2.1-0.8,4-1.8,5.9-2.9c5.6-3.2,9.9-7.6,13.1-11.8l-5.4-5.4
														l-22.2,22.2C211.3,225.9,212.7,225.7,214.1,225.3z"/>
													<path class="st15" d="M149.2,377c-1.5-0.3-3-0.6-4.5-0.9c-0.5-0.1-0.9-0.2-1.4-0.3c-2.6-0.5-5.2-1.2-7.8-1.8l2.7-20.6
														l-23.5,23.5l25.9,25.9l23.5-23.5C159.1,378.7,154.1,377.9,149.2,377z"/>
													
														<rect x="210.4" y="328.2" transform="matrix(0.7071 -0.7071 0.7071 0.7071 -176.6488 263.773)" class="st16" width="39.4" height="33.8"/>
													<path class="st16" d="M198.3,229.8l-4.6-4.6c-0.8-0.2-1.5-0.4-2.2-0.6c-1.6-0.5-3.2-1.2-4.7-1.9
														c-2.1-1.1-4.1-2.3-5.9-3.6c-5.9-4.2-10.2-9.7-13.1-14.4l-21.2,21.2l27.8,27.8L198.3,229.8z"/>
													
														<rect x="181.5" y="298" transform="matrix(0.7071 -0.7071 0.7071 0.7071 -164.7023 234.9315)" class="st16" width="39.4" height="36.6"/>
													
														<rect x="152.7" y="270.6" transform="matrix(0.7071 -0.7071 0.7071 0.7071 -152.7558 206.0904)" class="st16" width="39.4" height="33.8"/>
													
														<rect x="214.2" y="268.2" transform="matrix(0.7071 -0.7071 0.7071 0.7071 -134.8662 247.2905)" class="st16" width="33.8" height="36.6"/>
													<polygon class="st16" points="142,306.6 141,326.1 140.9,326.2 141,326.2 140.9,327.2 141.8,326.3 141.9,326.3 
														140.7,335.2 140.3,338.1 140,343.4 139.8,343.9 166.4,317.3 142.7,293.5 													"/>
													<polygon class="st16" points="143.3,281.5 143.1,284.9 170.4,257.6 145.8,233 													"/>
													<path class="st16" d="M224.3,221.1c-1.9,1.1-3.8,2.1-5.9,2.9c-1.4,0.5-2.8,0.9-4.3,1.3c-1.4,0.4-2.8,0.6-4.3,0.8
														l-3.6,3.6l23.9,23.9l25.9-25.9l-18.5-18.5C234.2,213.5,229.9,217.9,224.3,221.1z"/>
													
														<rect x="185.4" y="240.7" transform="matrix(0.7071 -0.7071 0.7071 0.7071 -122.9197 218.4489)" class="st16" width="33.8" height="33.8"/>
													<path class="st16" d="M163.2,196c-0.2-0.5-0.4-0.9-0.5-1.2c-4.8,0.8-9.3,2.1-13.5,4c-0.5,0.2-1.1,0.5-1.6,0.8l-1,18.1
														l18.2-18.2C164.1,198.1,163.6,196.9,163.2,196z"/>
													<path class="st16" d="M227,380c0.7-0.1,1.3-0.1,2-0.2l-0.9-0.9L227,380z"/>
													<path class="st16" d="M172.4,378.9l1.5,1.5c2.3,0.2,4.6,0.4,6.9,0.6c2,0.1,3.9,0.2,5.9,0.3c4,0.2,8,0.3,12.1,0.3
														c1.7,0,3.3,0,4.9-0.1c4.9-0.1,9.7-0.3,14.6-0.7l5.9-5.9l-23.9-23.9L172.4,378.9z"/>
													<path class="st16" d="M263.5,332.8c-0.3-1-0.4-2.3-0.5-3.9l-1.1-6.6l0.7-0.1v-28.1l-2.7-2.7L236,315.3l23.9,23.9
														l4.1-4.1l-0.2-0.9C263.8,333.7,263.6,333.2,263.5,332.8z"/>
													<path class="st16" d="M138.6,353.1l-0.3,0.3l-2.7,20.6c2.6,0.6,5.2,1.3,7.8,1.8c0.5,0.1,0.9,0.2,1.4,0.3
														c1.5,0.3,3,0.6,4.5,0.9c4.9,0.9,9.9,1.7,14.8,2.3l0.4-0.4L138.6,353.1z"/>
													<polygon class="st16" points="259.9,231.7 234.1,257.6 259.9,283.5 262.6,280.8 262.6,234.4 													"/>
													<polygon class="st16" points="265.6,344.8 265.1,341.9 263.9,343.1 													"/>
													<path class="st16" d="M232.1,375l4,4c7.7-1.1,15.2-2.5,22.7-4.1c1.1-0.3,2.3-0.5,3.4-0.8c0.8-0.2,1.6-0.4,2.5-0.6
														c1.8-0.4,3.6-0.9,5.4-1.4l-2.9-17.7l-7.2-7.2L232.1,375z"/>
													
														<rect x="149.7" y="329.8" transform="matrix(0.7071 -0.7071 0.7071 0.7071 -196.5276 221.7499)" class="st16" width="39.4" height="36.6"/>
													<path class="st16" d="M262.6,221.1v-11.5v-8.1c-1.3-0.9-2.6-1.6-3.9-2.3c-1.1-0.5-2.1-1-3.2-1.4
														c-1.6-0.7-3.1-1.3-4.5-1.7c-2.1-0.7-3.9-1.1-5.6-1.4c-0.1,0.3-0.2,0.8-0.4,1.4c-0.5,1.2-1.3,3-2.4,5.1
														c-0.6,1.1-1.2,2.2-1.9,3.3l19.2,19.2L262.6,221.1z"/>
													<polygon class="st12" points="262.6,229.2 262.6,229.1 259.9,231.7 262.6,234.4 													"/>
													<path class="st12" d="M237.4,209.3l18.5,18.5l4-4l-19.2-19.2c-0.5,0.8-1,1.7-1.7,2.6
														C238.5,207.8,238,208.5,237.4,209.3z"/>
													<polygon class="st12" points="262.6,294.1 262.6,288.7 259.9,291.4 													"/>
													
														<rect x="213.3" y="226.8" transform="matrix(0.7071 -0.7071 0.7071 0.7071 -108.9962 224.2162)" class="st12" width="5.6" height="33.8"/>
													
														<rect x="242.2" y="254.2" transform="matrix(0.7071 -0.7071 0.7071 0.7071 -120.9427 253.0582)" class="st12" width="5.6" height="36.6"/>
													<path class="st12" d="M193.6,225.1l4.6,4.6l3.4-3.4C198.8,226.2,196.1,225.8,193.6,225.1z"/>
													
														<rect x="243.2" y="312.3" transform="matrix(0.7071 -0.7071 0.7071 0.7071 -160.7363 270.3647)" class="st12" width="5.6" height="33.8"/>
													<polygon class="st12" points="259.9,347.1 267.1,354.3 265.6,344.8 263.9,343.1 													"/>
													
														<rect x="185.5" y="254.6" transform="matrix(0.7071 -0.7071 0.7071 0.7071 -136.8432 212.6816)" class="st12" width="5.6" height="33.8"/>
													
														<rect x="214.3" y="282.1" transform="matrix(0.7071 -0.7071 0.7071 0.7071 -148.7898 241.5231)" class="st12" width="5.6" height="36.6"/>
													<polygon class="st12" points="170.4,257.6 174.4,253.6 146.5,225.8 146.2,226.1 145.8,233 													"/>
													<path class="st12" d="M171.2,380.2c0.9,0.1,1.8,0.2,2.7,0.3l-1.5-1.5L171.2,380.2z"/>
													
														<rect x="150.7" y="345.7" transform="matrix(0.7071 -0.7071 0.7071 0.7071 -212.4401 215.1583)" class="st12" width="5.6" height="36.6"/>
													<polygon class="st12" points="142.6,293.4 142.7,293.5 142.7,293.3 													"/>
													<polygon class="st12" points="146.5,289.4 142.7,293.3 142.7,293.5 166.4,317.3 170.4,313.3 													"/>
													
														<rect x="211.4" y="344.2" transform="matrix(0.7071 -0.7071 0.7071 0.7071 -192.5615 257.1823)" class="st12" width="5.6" height="33.8"/>
													
														<rect x="182.5" y="313.9" transform="matrix(0.7071 -0.7071 0.7071 0.7071 -180.6149 228.3407)" class="st12" width="5.6" height="36.6"/>
													<path class="st12" d="M228.1,378.9l0.9,0.9c2.4-0.3,4.7-0.6,7.1-0.9l-4-4L228.1,378.9z"/>
													<path class="st0" d="M224.1,375l-5.9,5.9c0,0,0.1,0,0.1,0v0.1c2-0.1,3.9-0.3,5.9-0.5v-0.1c0.9-0.1,1.8-0.2,2.7-0.3
														l1.1-1.1L224.1,375z"/>
													
														<rect x="224.3" y="356.2" transform="matrix(0.7071 -0.7071 0.7071 0.7071 -182.4162 277.697)" class="st0" width="39.4" height="5.6"/>
													<polygon class="st0" points="264.6,338.3 264.1,335 259.9,339.2 263.9,343.1 265.1,341.9 264.6,338.6 													"/>
													
														<rect x="257.1" y="340.3" transform="matrix(0.7071 -0.7071 0.7071 0.7071 -166.5036 284.2882)" class="st0" width="5.6" height="5.6"/>
													
														<rect x="225.3" y="372.1" transform="matrix(0.7071 -0.7071 0.7071 0.7071 -198.3288 271.1058)" class="st0" width="5.6" height="5.6"/>
													<polygon class="st0" points="262.6,286.1 262.6,280.8 259.9,283.5 													"/>
													
														<rect x="229.1" y="298.5" transform="matrix(0.7071 -0.7071 0.7071 0.7071 -141.0455 262.2085)" class="st0" width="33.8" height="5.6"/>
													<path class="st0" d="M164,379.3c0.3,0,0.6,0.1,0.9,0.1l-0.5-0.5L164,379.3z"/>
													
														<rect x="196.5" y="328.4" transform="matrix(0.7071 -0.7071 0.7071 0.7071 -170.8816 249.85)" class="st0" width="39.4" height="5.6"/>
													
														<rect x="164.6" y="360.2" transform="matrix(0.7071 -0.7071 0.7071 0.7071 -202.7068 236.6676)" class="st0" width="39.4" height="5.6"/>
													<line class="st0" x1="262.6" y1="286.1" x2="262.6" y2="288.7"/>
													<polygon class="st0" points="259.9,283.5 255.9,287.4 259.9,291.4 262.6,288.7 262.6,286.1 													"/>
													
														<rect x="229.3" y="312.5" transform="matrix(0.7071 -0.7071 0.7071 0.7071 -154.969 256.4412)" class="st0" width="5.6" height="5.6"/>
													<path class="st0" d="M165,379.5l3.5,3.5l2.7-2.7C169.1,380,167,379.7,165,379.5z"/>
													<path class="st0" d="M172.4,378.9l-4-4l-4,4l0.5,0.5c2.1,0.3,4.1,0.5,6.2,0.7L172.4,378.9z"/>
													
														<rect x="197.4" y="344.3" transform="matrix(0.7071 -0.7071 0.7071 0.7071 -186.7942 243.2588)" class="st0" width="5.6" height="5.6"/>
													
														<rect x="199.3" y="268.7" transform="matrix(0.7071 -0.7071 0.7071 0.7071 -128.687 232.3724)" class="st0" width="33.8" height="5.6"/>
													
														<rect x="226.7" y="239.9" transform="matrix(0.7071 -0.7071 0.7071 0.7071 -99.8454 244.3186)" class="st0" width="36.6" height="5.6"/>
													
														<rect x="166.6" y="298.5" transform="matrix(0.7071 -0.7071 0.7071 0.7071 -158.523 220.0135)" class="st0" width="39.4" height="5.6"/>
													<polygon class="st0" points="262.6,226.5 262.6,221.1 259.9,223.8 													"/>
													<polygon class="st0" points="138.3,352.8 138.2,353.4 138.6,353.1 													"/>
													<polygon class="st0" points="166.4,317.3 139.8,343.9 139.4,344.8 139.3,345.8 142.6,349.1 170.4,321.3 													
														"/>
													<line class="st0" x1="262.6" y1="226.5" x2="262.6" y2="229.1"/>
													<polygon class="st0" points="255.9,227.8 259.9,231.7 262.6,229.1 262.6,226.5 259.9,223.8 													"/>
													
														<rect x="227.3" y="254.8" transform="matrix(0.7071 -0.7071 0.7071 0.7071 -114.7635 238.1397)" class="st0" width="5.6" height="5.6"/>
													
														<rect x="199.4" y="282.6" transform="matrix(0.7071 -0.7071 0.7071 0.7071 -142.6105 226.6051)" class="st0" width="5.6" height="5.6"/>
													<polygon class="st0" points="142.6,349.1 139.3,345.8 139,347.7 138.3,352.8 138.6,353.1 													"/>
													
														<rect x="167.6" y="314.5" transform="matrix(0.7071 -0.7071 0.7071 0.7071 -174.4357 213.4227)" class="st0" width="5.6" height="5.6"/>
													
														<rect x="171.4" y="240.9" transform="matrix(0.7071 -0.7071 0.7071 0.7071 -117.1524 204.5254)" class="st0" width="33.8" height="5.6"/>
													<path class="st0" d="M209.8,226.1c-1.8,0.2-3.7,0.4-5.6,0.4c-0.1,0-0.3,0-0.4,0h-0.1c-0.3,0-0.5,0-0.8,0l3.3,3.3
														L209.8,226.1z"/>
													<polygon class="st0" points="170.4,257.6 143.1,284.9 143.1,286 146.5,289.4 174.4,261.6 													"/>
													<path class="st0" d="M206.2,229.8l-3.3-3.3c-0.4,0-0.9,0-1.3-0.1l-3.4,3.4l4,4L206.2,229.8z"/>
													
														<rect x="171.6" y="254.8" transform="matrix(0.7071 -0.7071 0.7071 0.7071 -131.0759 198.7581)" class="st0" width="5.6" height="5.6"/>
													<polygon class="st0" points="142.7,293.3 146.5,289.4 143.1,286 													"/>
													<path class="st0" d="M146.5,225.8l21.2-21.2c-0.8-1.3-1.5-2.5-2.1-3.6c-0.3-0.5-0.5-1-0.8-1.5l-18.2,18.2l-0.4,7.8
														L146.5,225.8z"/>
													<polygon class="st0" points="146.2,225.5 146.2,226.1 146.5,225.8 													"/>
												</g>
											</g>
										</g>
									</g>
								</g>
							</g>
						</g>
					</g>
				</g>
			</g>
		</g>
	</g>
</g>
</svg>
