<?xml version="1.0" encoding="utf-8"?>
<!-- Generator: Adobe Illustrator 18.0.0, SVG Export Plug-In . SVG Version: 6.00 Build 0)  -->
<!DOCTYPE svg PUBLIC "-//W3C//DTD SVG 1.1//EN" "http://www.w3.org/Graphics/SVG/1.1/DTD/svg11.dtd">
<svg version="1.1" id="Capa_1" xmlns="http://www.w3.org/2000/svg" xmlns:xlink="http://www.w3.org/1999/xlink" x="0px" y="0px"
	 viewBox="0 0 400 400" enable-background="new 0 0 400 400" xml:space="preserve">
<g>
	<path fill="#FFFFFF" d="M200,195.6c44.5,0,80.5-43.8,80.5-97.8c0-54-11.8-97.8-80.5-97.8s-80.5,43.8-80.5,97.8
		C119.5,151.8,155.5,195.6,200,195.6z"/>
	<path fill="#FFFFFF" d="M47.9,345C47.9,341.7,47.9,344,47.9,345L47.9,345z"/>
	<path fill="#FFFFFF" d="M352.1,347.5C352.1,346.6,352.1,341.3,352.1,347.5L352.1,347.5z"/>
	<path fill="#FFFFFF" d="M351.9,341c-1.5-94.1-13.8-120.9-107.8-137.9c0,0-13.2,16.9-44.1,16.9s-44.1-16.9-44.1-16.9
		C62.9,219.9,49.8,246.3,48.1,338c-0.1,7.5-0.2,7.9-0.2,7c0,1.6,0,4.6,0,9.9c0,0,22.4,45.1,152.1,45.1
		c129.7,0,152.1-45.1,152.1-45.1c0-3.4,0-5.7,0-7.3C352.1,348.1,352,347,351.9,341z"/>
</g>
</svg>
