<?xml version="1.0" encoding="utf-8"?>
<!-- Generator: Adobe Illustrator 20.1.0, SVG Export Plug-In . SVG Version: 6.00 Build 0)  -->
<svg version="1.1" id="Layer_1" xmlns="http://www.w3.org/2000/svg" xmlns:xlink="http://www.w3.org/1999/xlink" x="0px" y="0px"
	 viewBox="0 0 400 400" style="enable-background:new 0 0 400 400;" xml:space="preserve">
<style type="text/css">
	.st0{fill:#FFFFFF;}
	.st1{fill:#D1D4D5;}
	.st2{clip-path:url(#SVGID_2_);}
	.st3{fill:#DFBA98;}
	.st4{fill:#EECFAB;}
	.st5{opacity:0.7;fill:#BD967F;enable-background:new    ;}
	.st6{fill:#D1A586;}
	.st7{fill:#DCB598;}
	.st8{fill:#DFBC99;}
	.st9{fill:#EFCFAB;}
	.st10{fill:#FCDB0D;}
	.st11{fill:#1B75B9;}
	.st12{fill:#000098;}
	.st13{fill:#BD967F;}
	.st14{fill:#131213;}
	.st15{fill:#EAD728;}
	.st16{fill:#FF0000;}
	.st17{opacity:0.6;}
	.st18{opacity:0.4;}
	.st19{opacity:0.2;}
	.st20{opacity:0.1;}
</style>
<circle class="st0" cx="200" cy="200" r="190.3"/>
<circle class="st1" cx="200" cy="200" r="181.2"/>
<g>
	<g>
		<g>
			<defs>
				<circle id="SVGID_1_" cx="200" cy="200" r="181.2"/>
			</defs>
			<clipPath id="SVGID_2_">
				<use xlink:href="#SVGID_1_"  style="overflow:visible;"/>
			</clipPath>
			<g class="st2">
				<path class="st3" d="M136.7,326l-11.6-1.3l-18.8-2.1l-7.3-0.8c-0.7,10.5-1,21.9-0.9,34.3c0,0-0.2,2.2-0.5,6
					c9.5,3.9,19.2,7.2,29.1,10l0.1-0.7c0,0,7-11.4,12.6-28l1.1-7.8l1.2-8.9L136.7,326z"/>
				<path class="st3" d="M203.9,185.3c-14.5-0.1-23.1-10.4-25.5-13.8c0,0.1,0,0.2-0.1,0.3c-0.3,1.9-0.6,3.7-1,5.4
					c-1.8,8.2-4.2,14.3-7.7,16.9l0,0c0,0,0.9,2.7,2.9,6.3c3.4,6.1,10,15,20.9,18.7c3.1,1,6.6,1.7,10.4,1.7v-19.2L203.9,185.3
					C204,185.3,204,185.3,203.9,185.3z"/>
				<path class="st3" d="M204.2,220.9v-19.3c0,0-0.1,0-0.2,0v19.2C204.1,220.9,204.1,220.9,204.2,220.9z"/>
				<path class="st4" d="M265,339.6c0.1-0.2,0.2-0.5,0.3-0.7c-0.4-1.2-0.7-2.5-1.1-3.7L265,339.6z"/>
				<path class="st4" d="M230.6,175.9c-0.3-1.3-0.5-2.6-0.7-4v-0.1c0-0.1,0-0.3-0.1-0.4c-2.3,3.7-10.2,14-25.8,14h-0.1v16.3
					c0,0,0.1,0,0.2,0V221l0,0c3,0,5.7-0.4,8.2-1c9.9-2.5,16.5-9.1,20.6-15c1.1-1.5,1.9-3,2.7-4.3c2-3.7,2.9-6.4,2.9-6.4l0,0
					C235,191.4,232.4,184.7,230.6,175.9z"/>
				<path class="st5" d="M178.6,169.5c-0.1,0.6-0.2,1.3-0.3,1.9c0,0.1,0.1,0.1,0.2,0.2c0.1-0.7,0.2-1.4,0.3-2
					C178.7,169.5,178.6,169.5,178.6,169.5z"/>
				<path class="st5" d="M229.8,171.4C229.8,171.3,229.9,171.3,229.8,171.4v-0.1c-0.1-0.9-0.3-1.8-0.4-2.7c0,0,0,0-0.1,0
					C229.6,169.5,229.7,170.5,229.8,171.4z"/>
				<path class="st3" d="M203.9,185.3C204,185.3,204,185.3,203.9,185.3l0.1-12.5h-0.1c-0.2,0-0.4,0-0.6,0c-0.1,0-0.2,0-0.3,0
					s-0.2,0-0.3,0s-0.2,0-0.2,0c-0.1,0-0.2,0-0.2,0c-7.5,0-15.5-1.1-23.5-3.3c-0.1,0.7-0.2,1.4-0.3,2
					C180.8,174.9,189.4,185.3,203.9,185.3z"/>
				<path class="st4" d="M210.5,172.4c-0.2,0-0.3,0-0.5,0c-0.7,0.1-1.5,0.1-2.2,0.2c-0.3,0-0.6,0-1,0.1c-1,0.1-1.9,0.1-2.9,0.1v12.5
					c0,0,0,0,0.1,0c15.5,0,23.4-10.3,25.8-14c-0.1-0.9-0.3-1.9-0.4-2.8C223.1,170.5,216.7,171.8,210.5,172.4z"/>
				<path class="st5" d="M229.4,168.6c-6.4,2-12.7,3.3-18.9,3.9c-0.2,0-0.3,0-0.5,0c-0.7,0.1-1.5,0.1-2.2,0.2c-0.3,0-0.6,0-1,0.1
					c-1,0.1-1.9,0.1-2.9,0.1h-0.1c-0.2,0-0.4,0-0.6,0c-0.1,0-0.2,0-0.3,0s-0.2,0-0.3,0s-0.2,0-0.2,0c-0.1,0-0.2,0-0.2,0
					c-7.5,0-15.5-1.1-23.5-3.3c-0.1,0.7-0.2,1.4-0.3,2c2.4,3.4,11,13.7,25.5,13.8c0,0,0,0,0.1,0c0,0,0,0,0.1,0
					c15.5,0,23.4-10.3,25.8-14C229.7,170.5,229.6,169.5,229.4,168.6z"/>
				<path class="st6" d="M178.9,168.5c-0.1,0-0.1,0-0.2-0.1c0,0.3-0.1,0.7-0.2,1c0.1,0,0.1,0,0.2,0
					C178.8,169.2,178.8,168.9,178.9,168.5z"/>
				<path class="st6" d="M178.9,168.5c0,0.3-0.1,0.7-0.1,1c8,2.2,16,3.3,23.5,3.3c0.1,0,0.2,0,0.2,0c-0.1,0-0.2,0-0.3,0
					C195,172.7,187,171.2,178.9,168.5z"/>
				<path class="st7" d="M229.4,168.3c0,0.1,0,0.2,0,0.3c0,0,0,0,0.1,0C229.5,168.4,229.5,168.3,229.4,168.3
					C229.4,168.2,229.4,168.2,229.4,168.3z"/>
				<path class="st7" d="M203.9,172.8h0.1l0,0H203.9z"/>
				<path class="st7" d="M202.5,172.8c0.1,0,0.2,0,0.2,0c0.1,0,0.2,0,0.3,0c-0.1,0-0.3,0-0.4,0C202.5,172.8,202.5,172.8,202.5,172.8
					z"/>
				<path class="st7" d="M204.1,172.8C204,172.8,204,172.8,204.1,172.8L204.1,172.8c0.9,0,1.8,0,2.8-0.1
					C205.9,172.8,205,172.8,204.1,172.8z"/>
				<path class="st7" d="M210,172.5c-0.7,0.1-1.5,0.1-2.2,0.2C208.6,172.6,209.3,172.6,210,172.5z"/>
				<path class="st7" d="M229.4,168.6c0-0.1,0-0.2,0-0.3c-6.3,2.1-12.6,3.6-18.9,4.2C216.7,171.8,223.1,170.5,229.4,168.6z"/>
				<path class="st7" d="M202.1,172.8c0.1,0,0.2,0,0.3,0h0.1C202.4,172.8,202.3,172.8,202.1,172.8z"/>
				<path class="st8" d="M203.3,172.8c0.2,0,0.4,0,0.6,0c-0.3,0-0.6,0-0.9,0C203.1,172.8,203.2,172.8,203.3,172.8z"/>
				<path class="st8" d="M180.3,155.7c0-0.2,0-0.4,0-0.6h-0.1c-0.2,2.2-0.4,4.3-0.6,6.3c-0.2,2.4-0.5,4.8-0.9,7c0.1,0,0.1,0,0.2,0.1
					c0.3-2.1,0.6-4.3,0.8-6.5C179.9,159.9,180.1,157.8,180.3,155.7z"/>
				<path class="st8" d="M204,158.2v14.6c0,0,0,0,0.1,0L204,158.2L204,158.2z"/>
				<path class="st9" d="M210.5,172.4c-0.2,0-0.3,0-0.5,0C210.2,172.5,210.3,172.5,210.5,172.4z"/>
				<path class="st9" d="M207.8,172.7c-0.3,0-0.6,0-1,0.1C207.2,172.7,207.5,172.7,207.8,172.7z"/>
				<path class="st9" d="M228,154.8L228,154.8c0,0.2,0,0.4,0,0.6c0.2,2.1,0.4,4.2,0.6,6.2c0.3,2.3,0.5,4.5,0.8,6.6c0,0,0,0,0.1,0
					c-0.3-2.3-0.6-4.7-0.9-7.2C228.4,159,228.2,156.9,228,154.8z"/>
				<path class="st4" d="M308,356c0.1-13.8-0.4-26.3-1.2-37.8l-14.2,1.6l-18.8,2.1l-2.6,0.3l-7.8,0.9l-1.1,0.1l1.1,6.6l0.9,5.3
					c0.3,1.3,0.7,2.5,1.1,3.7c4.9,16.3,11.7,28.5,13.5,31.6c10.1-3.2,19.9-6.9,29.4-11.2C308.1,357.2,308,356,308,356z"/>
				<path class="st10" d="M238.8,194.2c0,0,0.1,0,0.2,0C238.9,194.2,238.8,194.2,238.8,194.2z"/>
				<path class="st10" d="M239.3,194.1c0.1,0,0.3,0,0.4,0C239.5,194.1,239.4,194.1,239.3,194.1z"/>
				<path class="st10" d="M241.8,194.2c0.3,0,0.6,0.1,0.9,0.1C242.4,194.3,242.1,194.3,241.8,194.2z"/>
				<path class="st10" d="M240.1,194.2c0.3,0,0.7,0,1.2,0.1C240.8,194.2,240.4,194.2,240.1,194.2z"/>
				<path class="st10" d="M264.2,335.1l-0.9-5.3c0.1,1.6,0.2,3,0.5,3.9C264,334.3,264.1,334.7,264.2,335.1z"/>
				<path class="st11" d="M238.9,194.2c0.1,0,0.2,0,0.3,0C239.1,194.1,239,194.2,238.9,194.2z"/>
				<path class="st11" d="M239.7,194.1c0.1,0,0.3,0,0.4,0C239.9,194.2,239.8,194.1,239.7,194.1z"/>
				<path class="st11" d="M242.7,194.3c0.2,0,0.4,0,0.5,0.1C243.1,194.4,242.9,194.3,242.7,194.3z"/>
				<path class="st11" d="M241.3,194.2c0.2,0,0.3,0,0.5,0C241.6,194.2,241.5,194.2,241.3,194.2z"/>
				<path class="st11" d="M238.8,194.2c-0.1,0-0.2,0-0.2,0l0,0C238.6,194.2,238.7,194.2,238.8,194.2z"/>
				<path class="st11" d="M238.6,194.2L238.6,194.2L238.6,194.2z"/>
				<path class="st11" d="M204.2,220.9c-0.1,0-0.1,0-0.2,0v5.7c0.1,0,0.1,0,0.2,0V220.9z"/>
				<g>
					<path class="st12" d="M243.3,194.4c-0.2,0-0.4,0-0.5-0.1c-0.3,0-0.6-0.1-0.9-0.1c-0.2,0-0.3,0-0.5,0c-0.5,0-0.9,0-1.2-0.1
						c-0.1,0-0.3,0-0.4,0c-0.2,0-0.3,0-0.4,0c-0.1,0-0.2,0-0.3,0s-0.2,0-0.2,0c-0.1,0-0.2,0-0.2,0l0,0c0,0-0.9,2.7-2.9,6.4
						c-0.7,1.3-1.6,2.8-2.7,4.3c-4.1,5.9-10.8,12.6-20.6,15c-2.5,0.6-5.3,1-8.2,1l0,0v5.7c0.1,0,0.3,0,0.4,0c3.6,0,6.9-0.4,9.9-1.2
						c11.9-3,20-11,24.9-18.2c1.5-2.1,2.7-4.1,3.6-5.9c1.1-2.1,1.9-3.9,2.4-5.1c0.2-0.6,0.4-1.1,0.6-1.4
						C245,194.6,244.1,194.5,243.3,194.4z"/>
					<path class="st12" d="M172.6,200.5c-2-3.6-2.9-6.3-2.9-6.3l0,0c-0.4,0-0.9,0-1.3,0.1c-1.8,0.1-3.6,0.3-5.3,0.6
						c0.1,0.3,0.3,0.7,0.5,1.2c0.5,1.2,1.3,3,2.4,5c3.9,7.4,12,18.8,25.8,23.5c3.7,1.2,7.8,2,12.3,2v-5.7c-3.8,0-7.3-0.6-10.4-1.7
						C182.6,215.5,176,206.6,172.6,200.5z"/>
				</g>
				<g>
					<path class="st6" d="M154.3,147.4c-1-5.4-1.7-20.2-3.1-25.6c-3.4-13.2-4.6-30.2,0.1-44.7c-3.6,2.2-6.2,8.4-7.3,11.8
						c-4.7,14.7,2.3,41.6,2.3,41.6H143c0,0-0.7-3.3-2-7.8c-0.6,1-1.7,1.5-1.4,3.5c0.5,2.8,1.8,3,2.5,3.6s1.6,1.1,2.1,2.3
						c0.4,1.2,0.5,2.4,0.3,3.5c-0.5,2-3.4,0.4-5.3-0.5c-1.3-0.6-2.6-4.1-3.6-5.2c-2.6-2.9-3.8-8.6-1.8-11.8c2.4-3.9,6.6,5.5,8.6,6.4
						c-0.4-1.2-0.5-9.4-1-10.6c-7.6-6.3-12.3,0.7-11.6,9.6c1,12.2,16,18.5,15.7,17.1c4,22.1,23,36.8,42,42c0-0.2,0.1-0.4,0.1-0.6
						C172.7,176.8,157.5,165.1,154.3,147.4z"/>
					<path class="st6" d="M171.4,51.3c-1.1,0.5-2.5,1.6-4,3c1.9-1.3,3.9-2.5,6.1-3.6C172.9,50.8,172.2,51,171.4,51.3z"/>
					<path class="st13" d="M133.7,117.9c-2,3.3-0.8,8.9,1.8,11.8c1,1.2,2.3,4.6,3.6,5.2c2,0.9,4.9,2.5,5.3,0.5
						c0.3-1.1,0.2-2.3-0.3-3.5s-1.4-1.7-2.1-2.3c-0.7-0.6-2-0.8-2.5-3.6c-0.3-2,0.8-2.5,1.4-3.5c-0.6-2.2,1.8-5.3-2.3-7.1
						C136.8,114.6,136.1,114.1,133.7,117.9z"/>
					<path class="st7" d="M256.2,130.4c0,0,7-26.9,2.3-41.6c-0.2-0.5-0.8-1.4-1.6-2.6c2,12.2,0.7,25.1-2,35.5
						c-1.4,5.5-2.2,20.2-3.1,25.6c-3.1,16.9-17.1,29-32.3,34.2c0,0.1,0,0.1,0,0.2c18.3-5.7,36.1-20.1,40-41.4
						c-0.2,1.4,14.7-4.9,15.7-17.1c0.9-10.8-7.5-13.6-12.8-9.4c-3.2,8.2-4.7,16.5-4.7,16.5h-1.5V130.4z M260.8,132
						c0.5-1.2,1.4-1.7,2.1-2.3s2-0.8,2.5-3.6c0.4-2.5-1.3-2.6-1.7-4.2c-0.8-2.9,0.2-4.5,1.4-5.6c1.2-1.1,3.1-3.2,6.2,1.7
						c2,3.3,0.8,8.9-1.8,11.8c-1,1.2-2.3,4.6-3.6,5.2c-2,0.9-4.9,2.5-5.3,0.5C260.3,134.4,260.3,133.1,260.8,132z"/>
					<path class="st13" d="M265.8,135c1.3-0.6,2.6-4.1,3.6-5.2c2.6-2.9,3.8-8.6,1.8-11.8c-3.1-4.9-5-2.8-6.2-1.7
						c-1.2,1.2-2.2,2.7-1.4,5.6c0.4,1.6,2.1,1.7,1.7,4.2c-0.5,2.8-1.7,3-2.5,3.6c-0.7,0.6-1.6,1.1-2.1,2.3c-0.4,1.2-0.5,2.4-0.3,3.5
						C261,137.5,263.9,135.9,265.8,135z"/>
					<path class="st8" d="M203.5,153.9L203.5,153.9v21.4l0,0V153.9z"/>
					<path class="st8" d="M187.5,181.7c-14.8-5-30-16.6-33.2-34.4c-1-5.4-1.7-20.2-3.1-25.6c-3.4-13.2-4.6-30.2,0.1-44.7
						c0.8-0.5,1.6-0.8,2.5-0.8c0,0,3.2-2.8,4.7-8.3c1-4,5.2-9.9,9-13.5c1.9-1.3,3.9-2.5,6.1-3.6c2.7-0.3,6.3-2.5,6.3-2.5
						s2.2-2,13.5-4.1c1.3-0.1,3.6-0.6,4.9-0.7c1,0.1,1.8-0.4,2.7-0.1c0.2,0.1,0.9-0.1,1.1,0c0.2,0.1,1.2-0.4,1.4-0.3V154l0,0v21.4
						v9.2h-0.1c-0.2,0-0.4,0-0.5,0s-0.2,0-0.3,0s-0.2,0-0.3,0h-0.1l0,0C197.2,184.9,187.5,181.7,187.5,181.7z"/>
					<path class="st14" d="M141,122.6c0.1-0.2,0.3-0.4,0.3-0.7"/>
					<path class="st14" d="M141.3,121.9c-0.1,0.3-0.2,0.5-0.3,0.7c1.3,4.4,2,7.8,2,7.8h3.3c0,0-7-26.9-2.3-41.6
						c1.1-3.3,3.7-9.5,7.3-11.8c1.7-5.2,4.1-10.1,7.4-14.4c2.5-3.2,5.4-5.9,8.8-8.3c1.5-1.4,2.9-2.5,4-3c0.8-0.3,1.5-0.5,2.1-0.6
						c6.2-2.9,12.5-4.9,20.9-5.6c0.1,0,0.9-0.1,1-0.1c1.2-0.2,1.9-0.9,3-0.8c0.9,0,2.6-0.9,3.6-0.9c0.2,0,0.8-0.2,1-0.2
						c0.1,0,0.1,0,0.2,0c0.2,0,0.1,1.8,0.2,1.8c5.4,0,10.4,0.5,15.1,1.4l0,0l0,0c12.5,2.4,22.2,7.8,28.7,16.3
						c5.2,6.8,8.2,15,9.6,23.6c0.9,1.2,1.5,2.1,1.6,2.6c4.7,14.7-2.3,41.6-2.3,41.6h3.3c0,0-0.6,0.2,1.6-7.7
						c0.8-2.9,0.8-4.5,1.1-6.5c2.8-34,2.4-85.8-59.6-85.8c0,0-0.1,0-0.2,0c-0.1,0-0.1,0-0.2,0c-62,0-64.1,46.6-61.3,80.6"/>
					<path class="st14" d="M178.8,49.4c0,0,5.2-2.1,16.5-4.2c-8.3,0.7-15.6,2.5-21.8,5.4C176.3,50.5,178.8,49.4,178.8,49.4z"/>
					<path class="st14" d="M158.4,67.8c1-4,5.2-9.9,9-13.5c-3.3,2.3-6.3,5.1-8.8,8.3c-3.3,4.3-5.7,9.2-7.4,14.4
						c0.8-0.5,1.6-0.8,2.5-0.8C153.7,76.2,157,73.4,158.4,67.8z"/>
					<path class="st9" d="M256.8,86.2"/>
					<path class="st9" d="M219.4,181.6c-3.9,1.3-7.9,2.2-11.9,2.6c-0.1,0-0.2,0-0.3,0c-0.5,0-0.9,0.1-1.4,0.1c-0.2,0-0.4,0-0.6,0
						c-0.6,0-1.2,0.1-1.8,0.1v-9.2v-21.4V51.4l-0.3-8.3c0,0,49.8-2.6,53.7,43.2c2,12.2,0.7,25.1-2,35.5c-1.4,5.5-2.2,20.2-3.1,25.6
						C248.6,164.2,234.6,176.4,219.4,181.6L219.4,181.6z"/>
				</g>
				<g>
					<path class="st15" d="M108.1,284c-1,7.1-1.9,13.2-2.6,18.6l36.8,4.9l4.8-96.7C138.2,217.9,113.9,242.5,108.1,284z"/>
					<path d="M102.7,322.8l4.2,0.5l18.8,2.1l11.6,1.3l3.9,0.4l1-19.6l-36.8-4.9C104.3,311.2,103.4,317.8,102.7,322.8z"/>
					<path d="M125.8,216.9c-7.6,8.6-13.8,19-18.8,29.8c-8.8,19-14.1,39.3-17,53.8l15.5,2.1c0.8-5.4,1.6-11.6,2.6-18.6
						c5.8-41.5,30.1-66.1,38.9-73.1l0.9-11.4C139.5,203.6,132.2,209.6,125.8,216.9z"/>
					<path d="M90,300.5c-2.5,12.3-3.4,20.5-3.4,20.5l13,1.5l3.1,0.3c0.7-5.1,1.6-11.7,2.8-20.2L90,300.5z"/>
				</g>
				<g>
					<path class="st15" d="M262.6,212l-0.6,96.6l41.4-3.9C296.3,250.5,275,222,262.6,212z"/>
					<path d="M269.8,322.3l2.8-0.3l18.9-2.1l13.3-1.5c-0.4-4.7-0.8-9.2-1.4-13.6l-41.4,3.9v14.4L269.8,322.3z"/>
					<path d="M303.1,304.3l11.7-1.1c-5.2-33-13.8-56-23.5-72.1c-6.1-10.1-12.9-17.5-19.2-22.9c-3.4-2.9-6.4-5.2-10.4-7.1l0.8,11.8
						C275,222.9,296,250,303.1,304.3z"/>
					<path d="M304.8,318.4l1-0.1l11.1-1.2c-0.6-4.6-1.2-9.1-1.8-13.4l-11.7,1.1C303.9,309.2,304.4,313.7,304.8,318.4z"/>
				</g>
				<path class="st16" d="M245.8,194.8c0.1,0,0.2,0,0.3,0l0,0C246,194.8,245.9,194.8,245.8,194.8z"/>
				<g>
					<polygon class="st15" points="143.1,286.2 262.6,286.2 262.6,283.7 143.2,283.7 					"/>
					<polygon class="st15" points="143.6,276.5 262.6,276.5 262.6,271.8 143.8,271.8 					"/>
					<polygon class="st15" points="138.9,349.3 266.2,349.3 265.7,346.3 139.3,346.3 					"/>
					<polygon class="st15" points="142.5,297.1 262.6,297.1 262.6,293.3 142.7,293.3 					"/>
					<polygon class="st15" points="136.3,369.3 269.4,369.3 268.7,365.1 136.8,365.1 					"/>
					<path class="st15" d="M141,333.9h122.5c0,0,0-0.1,0-0.1c-0.3-1-0.4-2.3-0.5-3.9l-0.1-0.7H141.6L141,333.9z"/>
					<polygon class="st15" points="141.3,319.2 262.6,319.2 262.6,315.2 141.5,315.2 					"/>
					<polygon class="st15" points="141.9,308 262.6,308 262.6,304.3 142.1,304.3 					"/>
					<polygon class="st15" points="144.2,264.7 262.6,264.7 262.6,260.3 144.4,260.3 					"/>
					<polygon class="st15" points="145,249.4 144.8,253.1 262.6,253.1 262.6,249.4 					"/>
					<path d="M135.5,375c3.1,0.7,6.1,1.5,9.2,2.1c17.5,3.6,35.6,5.5,54.1,5.5c1.7,0,3.3,0,4.9-0.1c20.1-0.4,39.6-3,58.4-7.5
						c2.6-0.6,5.3-1.3,7.9-2l-0.6-3.7H136.3L135.5,375z"/>
					<polygon points="136.8,365.1 268.7,365.1 266.2,349.3 138.9,349.3 					"/>
					<path d="M140.7,336.2l-0.4,2.9l-0.3,5.3l-0.6,1.4l-0.1,0.5h126.4l-1.1-6.7l-0.7-4.5c-0.1-0.4-0.3-0.8-0.4-1.2H141L140.7,336.2z
						"/>
					<polygon points="140.9,327.2 141.9,327.3 141.6,329.2 262.9,329.2 261.9,323.3 262.6,323.2 262.6,319.2 141.3,319.2 					"/>
					<polygon points="141.5,315.2 262.6,315.2 262.6,308 141.9,308 					"/>
					<polygon points="142.1,304.3 262.6,304.3 262.6,297.1 142.5,297.1 					"/>
					<polygon points="142.7,293.3 262.6,293.3 262.6,286.2 143.1,286.2 					"/>
					<polygon class="st15" points="143.2,283.7 262.6,283.7 262.6,276.5 143.6,276.5 					"/>
					<polygon class="st17" points="143.2,283.7 262.6,283.7 262.6,276.5 143.6,276.5 					"/>
					<polygon class="st15" points="143.8,271.8 262.6,271.8 262.6,264.7 144.2,264.7 					"/>
					<polygon class="st18" points="143.8,271.8 262.6,271.8 262.6,264.7 144.2,264.7 					"/>
					<polygon class="st15" points="144.4,260.3 262.6,260.3 262.6,253.1 144.8,253.1 					"/>
					<polygon class="st19" points="144.4,260.3 262.6,260.3 262.6,253.1 144.8,253.1 					"/>
					<polygon class="st15" points="262.6,242.2 145.4,242.2 145,249.4 262.6,249.4 					"/>
					<polygon class="st20" points="262.6,242.2 145.4,242.2 145,249.4 262.6,249.4 					"/>
					<g>
						<path class="st15" d="M239,207.1c-5,7.2-13,15.2-24.9,18.2c-3,0.8-6.3,1.2-9.9,1.2c-0.1,0-0.3,0-0.4,0h-0.1
							c-4.5-0.1-8.6-0.8-12.3-2c-11-3.7-18.2-11.6-22.8-18.5l-21.6,4.8l-1.6,31.4h117.2v-29.3l-23.4-6.1
							C239.1,206.9,239.1,207,239,207.1z"/>
						<path d="M162.7,194.8C162.7,194.8,162.7,194.8,162.7,194.8c1.7-0.3,3.5-0.5,5.3-0.6C166.2,194.3,164.4,194.5,162.7,194.8z"/>
						<path d="M165.6,201c-1.1-2.1-1.9-3.8-2.4-5c-0.2-0.5-0.4-0.9-0.5-1.2c-4.8,0.8-9.3,2.1-13.5,4c-0.5,0.2-1.1,0.5-1.6,0.8
							l-0.6,11.3l21.6-4.8C167.4,204.2,166.4,202.5,165.6,201z"/>
						<path d="M251,196.1c-2.1-0.7-3.9-1.1-5.6-1.4c-0.1,0.3-0.2,0.8-0.4,1.4c-0.5,1.2-1.3,3-2.4,5.1c-1,1.7-2,3.6-3.4,5.6l23.4,6.1
							v-11.4C258.6,198.9,254.5,197.2,251,196.1z"/>
					</g>
				</g>
			</g>
		</g>
	</g>
</g>
</svg>
