<?xml version="1.0" encoding="utf-8"?>
<!-- Generator: Adobe Illustrator 18.0.0, SVG Export Plug-In . SVG Version: 6.00 Build 0)  -->
<!DOCTYPE svg PUBLIC "-//W3C//DTD SVG 1.1//EN" "http://www.w3.org/Graphics/SVG/1.1/DTD/svg11.dtd">
<svg version="1.1" id="Layer_1" xmlns="http://www.w3.org/2000/svg" xmlns:xlink="http://www.w3.org/1999/xlink" x="0px" y="0px"
	 viewBox="0 0 400 400" enable-background="new 0 0 400 400" xml:space="preserve">
<circle fill="#FFFFFF" cx="200" cy="200" r="190.3"/>
<circle fill="#D1D4D5" cx="200" cy="200" r="181.2"/>
<g>
	<defs>
		<circle id="SVGID_1_" cx="200" cy="200" r="181.2"/>
	</defs>
	<clipPath id="SVGID_2_">
		<use xlink:href="#SVGID_1_"  overflow="visible"/>
	</clipPath>
	<g clip-path="url(#SVGID_2_)">
		<path fill="#DFBA98" d="M137.7,326l-11.3-1.3l-18.4-2.1l-7.1-0.8c-0.6,10.3-1,21.4-0.9,33.5c0,0-0.2,2.2-0.5,5.9
			c9.2,3.8,18.7,7.1,28.4,9.8l0.1-0.7c0,0,6.9-11.1,12.3-27.4l1-7.7l1.2-8.7L137.7,326z"/>
		<path fill="#DFBA98" d="M202.7,188c-14.2-0.1-22.5-10.2-24.9-13.4c0,0.1,0,0.2,0,0.3c-0.3,1.8-0.6,3.6-0.9,5.2
			c-1.7,8-4.1,13.9-7.5,16.5l0,0c0,0,0.9,2.6,2.8,6.2c3.3,6,9.7,14.7,20.4,18.3c3,1,6.4,1.6,10.2,1.6v-18.8L202.7,188
			C202.8,188,202.8,188,202.7,188z"/>
		<path fill="#DFBA98" d="M202.9,222.7v-18.8c0,0-0.1,0-0.1,0v18.8C202.8,222.7,202.9,222.7,202.9,222.7z"/>
		<path fill="#EECFAB" d="M262.3,338.6c0.1-0.2,0.2-0.5,0.3-0.7c-0.4-1.2-0.7-2.4-1-3.6L262.3,338.6z"/>
		<path fill="#EECFAB" d="M228.8,178.8c-0.3-1.3-0.5-2.6-0.7-3.9v-0.1c0-0.1,0-0.3-0.1-0.4c-2.3,3.6-10,13.6-25.1,13.6
			c0,0-0.1,0-0.1,0v15.9c0,0,0.1,0,0.1,0v18.8c0,0,0,0,0,0c2.9,0,5.6-0.4,8-1c9.6-2.4,16.1-8.9,20.1-14.7c1-1.5,1.9-2.9,2.6-4.2
			c2-3.6,2.9-6.2,2.9-6.2l0,0C233,193.9,230.5,187.4,228.8,178.8z"/>
		<path opacity="0.7" fill="#BD967F" d="M178,172.5c-0.1,0.6-0.2,1.2-0.3,1.8c0,0.1,0.1,0.1,0.1,0.2c0.1-0.7,0.2-1.3,0.3-2
			C178.1,172.5,178,172.5,178,172.5z"/>
		<path opacity="0.7" fill="#BD967F" d="M228,174.4C228,174.3,228,174.3,228,174.4l0-0.1c-0.1-0.8-0.2-1.7-0.4-2.6c0,0,0,0-0.1,0
			C227.7,172.5,227.9,173.5,228,174.4z"/>
		<path fill="#DFBA98" d="M202.7,188C202.8,188,202.8,188,202.7,188l0.1-12.2c0,0-0.1,0-0.1,0c-0.2,0-0.4,0-0.5,0
			c-0.1,0-0.2,0-0.3,0c-0.1,0-0.2,0-0.3,0c-0.1,0-0.2,0-0.2,0c-0.1,0-0.2,0-0.2,0c-7.3,0-15.1-1.1-22.9-3.2c-0.1,0.7-0.2,1.4-0.3,2
			C180.2,177.8,188.5,187.9,202.7,188z"/>
		<path fill="#EECFAB" d="M209.1,175.4c-0.2,0-0.3,0-0.5,0c-0.7,0.1-1.4,0.1-2.1,0.2c-0.3,0-0.6,0-0.9,0.1c-0.9,0.1-1.9,0.1-2.8,0.1
			V188c0,0,0,0,0.1,0c15.2,0,22.9-10,25.1-13.6c-0.1-0.9-0.3-1.8-0.4-2.7C221.4,173.5,215.2,174.8,209.1,175.4z"/>
		<path opacity="0.7" fill="#BD967F" d="M227.6,171.6c-6.2,1.9-12.4,3.2-18.5,3.8c-0.2,0-0.3,0-0.5,0c-0.7,0.1-1.4,0.1-2.1,0.2
			c-0.3,0-0.6,0-0.9,0.1c-0.9,0.1-1.9,0.1-2.8,0.1c0,0-0.1,0-0.1,0c-0.2,0-0.4,0-0.5,0c-0.1,0-0.2,0-0.3,0c-0.1,0-0.2,0-0.3,0
			c-0.1,0-0.2,0-0.2,0c-0.1,0-0.2,0-0.2,0c-7.3,0-15.1-1.1-22.9-3.2c-0.1,0.7-0.2,1.4-0.3,2c2.4,3.3,10.7,13.4,24.9,13.4
			c0,0,0,0,0.1,0c0,0,0,0,0.1,0c15.2,0,22.9-10,25.1-13.6C227.9,173.5,227.7,172.5,227.6,171.6z"/>
		<path fill="#D1A586" d="M178.3,171.6c-0.1,0-0.1,0-0.2-0.1c0,0.3-0.1,0.7-0.1,1c0.1,0,0.1,0,0.2,0
			C178.2,172.2,178.2,171.9,178.3,171.6z"/>
		<path fill="#D1A586" d="M178.3,171.6c0,0.3-0.1,0.6-0.1,1c7.8,2.1,15.6,3.2,22.9,3.2c0.1,0,0.2,0,0.2,0c-0.1,0-0.2,0-0.3,0
			C194,175.6,186.2,174.2,178.3,171.6z"/>
		<path fill="#DCB598" d="M227.6,171.3c0,0.1,0,0.2,0,0.3c0,0,0,0,0.1,0C227.7,171.5,227.7,171.4,227.6,171.3
			C227.6,171.3,227.6,171.3,227.6,171.3z"/>
		<path fill="#DCB598" d="M202.7,175.8c0,0,0.1,0,0.1,0v0C202.8,175.8,202.7,175.8,202.7,175.8z"/>
		<path fill="#DCB598" d="M201.3,175.8c0.1,0,0.2,0,0.2,0c0.1,0,0.2,0,0.3,0c-0.1,0-0.3,0-0.4,0
			C201.4,175.8,201.3,175.8,201.3,175.8z"/>
		<path fill="#DCB598" d="M202.9,175.8C202.8,175.8,202.8,175.8,202.9,175.8L202.9,175.8c0.9,0,1.8,0,2.7-0.1
			C204.7,175.7,203.8,175.7,202.9,175.8z"/>
		<path fill="#DCB598" d="M208.7,175.4c-0.7,0.1-1.4,0.1-2.1,0.2C207.3,175.6,208,175.5,208.7,175.4z"/>
		<path fill="#DCB598" d="M227.6,171.6c0-0.1,0-0.2,0-0.3c-6.1,2.1-12.3,3.5-18.4,4.1C215.2,174.8,221.4,173.5,227.6,171.6z"/>
		<path fill="#DCB598" d="M201,175.8c0.1,0,0.2,0,0.3,0c0,0,0.1,0,0.1,0C201.3,175.8,201.1,175.8,201,175.8z"/>
		<path fill="#DFBC99" d="M202.1,175.8c0.2,0,0.4,0,0.5,0c-0.3,0-0.6,0-0.8,0C201.9,175.8,202,175.8,202.1,175.8z"/>
		<path fill="#DFBC99" d="M179.6,159c0-0.2,0-0.4,0-0.5c0,0-0.1,0-0.1,0c-0.2,2.1-0.4,4.2-0.6,6.2c-0.2,2.4-0.5,4.6-0.9,6.9
			c0.1,0,0.1,0,0.2,0.1c0.3-2.1,0.6-4.2,0.8-6.4C179.2,163.2,179.4,161.1,179.6,159z"/>
		<path fill="#DFBC99" d="M202.8,161.5v14.3c0,0,0,0,0.1,0L202.8,161.5C202.8,161.5,202.8,161.5,202.8,161.5z"/>
		<path fill="#EFCFAB" d="M209.1,175.4c-0.2,0-0.3,0-0.5,0C208.8,175.4,209,175.4,209.1,175.4z"/>
		<path fill="#EFCFAB" d="M206.6,175.6c-0.3,0-0.6,0-0.9,0.1C205.9,175.7,206.2,175.6,206.6,175.6z"/>
		<path fill="#EFCFAB" d="M226.2,158.2C226.2,158.2,226.2,158.2,226.2,158.2c0,0.2,0,0.4,0,0.6c0.2,2,0.4,4.1,0.6,6
			c0.3,2.3,0.5,4.4,0.8,6.5c0,0,0,0,0.1,0c-0.3-2.3-0.6-4.6-0.9-7C226.6,162.3,226.4,160.3,226.2,158.2z"/>
		<path fill="#EECFAB" d="M304.3,354.6c0.1-13.4-0.4-25.7-1.2-36.9l-13.9,1.5l-18.4,2.1l-2.5,0.3l-7.6,0.9l-1.1,0.1l1.1,6.5l0.8,5.1
			c0.3,1.2,0.7,2.4,1,3.6c4.8,15.9,11.4,27.8,13.2,30.9c9.8-3.1,19.4-6.7,28.7-10.9C304.4,355.8,304.3,354.6,304.3,354.6z"/>
		<path fill="#FCDB0D" d="M236.7,196.6c0,0,0.1,0,0.2,0C236.8,196.6,236.8,196.6,236.7,196.6z"/>
		<path fill="#FCDB0D" d="M237.2,196.6c0.1,0,0.3,0,0.4,0C237.5,196.6,237.4,196.6,237.2,196.6z"/>
		<path fill="#FCDB0D" d="M239.7,196.7c0.3,0,0.6,0.1,0.9,0.1C240.3,196.7,240,196.7,239.7,196.7z"/>
		<path fill="#FCDB0D" d="M238,196.6c0.3,0,0.7,0,1.2,0.1C238.8,196.6,238.4,196.6,238,196.6z"/>
		<path fill="#FCDB0D" d="M261.6,334.3l-0.8-5.1c0.1,1.6,0.2,2.9,0.5,3.8C261.4,333.4,261.5,333.8,261.6,334.3z"/>
		<path fill="#1B75B9" d="M236.9,196.6c0.1,0,0.2,0,0.3,0C237.1,196.6,237,196.6,236.9,196.6z"/>
		<path fill="#1B75B9" d="M237.6,196.6c0.1,0,0.3,0,0.4,0C237.9,196.6,237.8,196.6,237.6,196.6z"/>
		<path fill="#1B75B9" d="M240.6,196.8c0.2,0,0.4,0,0.5,0.1C241,196.8,240.8,196.8,240.6,196.8z"/>
		<path fill="#1B75B9" d="M239.2,196.7c0.2,0,0.3,0,0.5,0C239.5,196.7,239.4,196.7,239.2,196.7z"/>
		<path fill="#1B75B9" d="M236.7,196.6c-0.1,0-0.2,0-0.2,0l0,0C236.6,196.6,236.7,196.6,236.7,196.6z"/>
		<polygon fill="#1B75B9" points="236.6,196.6 236.6,196.6 236.6,196.6 		"/>
		<path fill="#1B75B9" d="M202.9,222.7c-0.1,0-0.1,0-0.1,0v5.6c0.1,0,0.1,0,0.1,0V222.7z"/>
		<g>
			<path fill="#ED201C" d="M241.1,196.8c-0.2,0-0.4,0-0.5-0.1c-0.3,0-0.6-0.1-0.9-0.1c-0.2,0-0.3,0-0.5,0c-0.4,0-0.8,0-1.2-0.1
				c-0.1,0-0.3,0-0.4,0c-0.2,0-0.3,0-0.4,0c-0.1,0-0.2,0-0.3,0c-0.1,0-0.1,0-0.2,0c-0.1,0-0.2,0-0.2,0l0,0c0,0-0.9,2.6-2.9,6.2
				c-0.7,1.3-1.6,2.7-2.6,4.2c-4,5.8-10.5,12.3-20.1,14.7c-2.5,0.6-5.1,1-8,1c0,0,0,0,0,0l0,5.6c0.1,0,0.3,0,0.4,0
				c3.5,0,6.7-0.4,9.7-1.2c11.7-2.9,19.5-10.8,24.4-17.8c1.4-2,2.6-4,3.5-5.7c1.1-2,1.9-3.8,2.4-5c0.2-0.6,0.4-1.1,0.5-1.4
				C242.9,197.1,242,196.9,241.1,196.8z"/>
			<path fill="#ED201C" d="M172.2,202.8c-2-3.6-2.8-6.2-2.8-6.2l0,0c-0.4,0-0.8,0-1.3,0.1c-1.8,0.1-3.5,0.3-5.2,0.6
				c0.1,0.3,0.3,0.7,0.5,1.1c0.5,1.2,1.3,2.9,2.3,4.9c3.9,7.2,11.7,18.4,25.2,22.9c3.6,1.2,7.6,1.9,12,2v-5.6
				c-3.8,0-7.2-0.6-10.2-1.6C181.9,217.4,175.5,208.8,172.2,202.8z"/>
		</g>
		<g>
			<path fill="#D1A586" d="M154.3,150.9c-1-5.3-1.7-19.7-3.1-25c-3.4-12.9-4.5-29.5,0.1-43.7c-3.5,2.2-6.1,8.2-7.1,11.5
				c-4.6,14.3,2.2,40.6,2.2,40.6h-3.2c0,0-0.7-3.3-2-7.6c-0.6,1-1.7,1.4-1.4,3.4c0.5,2.7,1.7,2.9,2.4,3.5c0.7,0.6,1.6,1.1,2,2.2
				c0.4,1.2,0.5,2.4,0.3,3.4c-0.5,2-3.3,0.4-5.2-0.5c-1.3-0.6-2.5-4-3.5-5.1c-2.5-2.9-3.7-8.4-1.7-11.6c2.4-3.8,6.5,5.3,8.4,6.2
				c-0.4-1.2-0.4-9.2-0.9-10.4c-7.4-6.2-12,0.7-11.3,9.4c1,11.9,15.6,18.1,15.3,16.7c3.9,21.5,22.5,35.9,41,41
				c0-0.2,0.1-0.4,0.1-0.6C172.3,179.6,157.4,168.3,154.3,150.9z"/>
			<path fill="#D1A586" d="M171,57.1c-1.1,0.5-2.5,1.5-3.9,2.9c1.9-1.3,3.9-2.5,6-3.5C172.4,56.6,171.7,56.8,171,57.1z"/>
			<path fill="#BD967F" d="M134.1,122.2c-2,3.2-0.8,8.7,1.7,11.6c1,1.1,2.3,4.5,3.5,5.1c1.9,0.9,4.8,2.4,5.2,0.5
				c0.2-1,0.2-2.3-0.3-3.4c-0.4-1.1-1.3-1.6-2-2.2c-0.7-0.6-2-0.8-2.4-3.5c-0.3-2,0.7-2.4,1.4-3.4c-0.6-2.1,1.8-5.2-2.2-6.9
				C137.1,118.9,136.5,118.4,134.1,122.2z"/>
			<path fill="#DCB598" d="M253.8,134.3c0,0,6.8-26.3,2.2-40.6c-0.2-0.5-0.8-1.4-1.6-2.5c1.9,11.9,0.7,24.5-2,34.7
				c-1.4,5.3-2.1,19.7-3.1,25c-3,16.5-16.7,28.3-31.5,33.4c0,0.1,0,0.1,0,0.2c17.9-5.5,35.3-19.6,39.1-40.4
				c-0.2,1.4,14.4-4.8,15.3-16.7c0.9-10.5-7.3-13.3-12.5-9.2c-3.1,8-4.5,16.1-4.5,16.1H253.8z M258.2,135.9c0.4-1.1,1.3-1.6,2-2.2
				c0.7-0.6,2-0.8,2.4-3.5c0.4-2.4-1.3-2.5-1.7-4.1c-0.7-2.8,0.2-4.3,1.4-5.5c1.1-1,3-3.1,6,1.7c2,3.2,0.8,8.7-1.7,11.6
				c-1,1.1-2.3,4.5-3.5,5.1c-1.9,0.9-4.8,2.4-5.2,0.5C257.7,138.3,257.8,137,258.2,135.9z"/>
			<path fill="#BD967F" d="M263.2,138.8c1.3-0.6,2.5-4,3.5-5.1c2.5-2.9,3.7-8.4,1.7-11.6c-3-4.8-4.9-2.7-6-1.7
				c-1.2,1.1-2.2,2.7-1.4,5.5c0.4,1.6,2.1,1.7,1.7,4.1c-0.5,2.7-1.7,2.9-2.4,3.5c-0.7,0.6-1.6,1.1-2,2.2c-0.4,1.2-0.5,2.4-0.3,3.4
				C258.4,141.3,261.3,139.7,263.2,138.8z"/>
			<path fill="#DFBC99" d="M202.3,157.3L202.3,157.3l0,20.9c0,0,0,0,0,0V157.3z"/>
			<path fill="#DFBC99" d="M186.7,184.5c-14.5-4.9-29.3-16.2-32.4-33.5c-1-5.3-1.7-19.7-3.1-25c-3.4-12.9-4.5-29.5,0.1-43.7
				c0.8-0.5,1.6-0.8,2.4-0.8c0,0,3.2-2.7,4.6-8.1c1-3.9,5.1-9.7,8.8-13.2c1.9-1.3,3.9-2.5,6-3.5c2.7-0.3,6.1-2.4,6.1-2.4
				s2.2-2,13.2-4c1.3-0.1,3.5-0.6,4.8-0.7c1,0.1,1.7-0.3,2.6-0.1c0.2,0.1,0.9-0.1,1.1,0c0.2,0.1,1.2-0.4,1.4-0.3v108.2h0v20.9v9
				c0,0-0.1,0-0.1,0c-0.2,0-0.4,0-0.5,0c-0.1,0-0.2,0-0.3,0c-0.1,0-0.2,0-0.3,0c0,0-0.1,0-0.1,0v0
				C196.2,187.6,186.7,184.5,186.7,184.5z"/>
			<path fill="#131213" d="M141.2,126.7c0.1-0.2,0.3-0.4,0.3-0.7"/>
			<path fill="#131213" d="M141.6,126c-0.1,0.3-0.2,0.5-0.3,0.7c1.3,4.3,2,7.6,2,7.6h3.2c0,0-6.9-26.3-2.2-40.6
				c1.1-3.2,3.6-9.3,7.1-11.5c1.6-5.1,4-9.9,7.2-14.1c2.4-3.1,5.3-5.8,8.5-8.1c1.4-1.4,2.8-2.5,3.9-2.9c0.8-0.3,1.4-0.5,2.1-0.6
				c6-2.9,12.2-4.8,20.4-5.5c0.1,0,0.9-0.1,1-0.1c1.2-0.2,1.8-0.9,2.9-0.8c0.9,0,2.6-0.9,3.5-0.9c0.2,0,0.8-0.2,1-0.2
				c0.1,0,0.1,0,0.2,0c0.2,0,0.1,1.8,0.2,1.8c5.3,0,10.2,0.5,14.7,1.3c0,0,0,0,0,0l0,0c12.2,2.3,21.7,7.6,28,15.9
				c5.1,6.6,8,14.7,9.4,23c0.8,1.1,1.4,2,1.6,2.5c4.6,14.3-2.2,40.6-2.2,40.6h3.2c0,0-0.6,0.2,1.5-7.5c0.8-2.8,0.8-4.4,1.1-6.3
				c2.7-33.2,2.3-83.8-58.2-83.8c0,0-0.1,0-0.1,0c-0.1,0-0.1,0-0.2,0c-60.5,0-62.6,45.5-59.9,78.7"/>
			<path fill="#131213" d="M178.2,55.3c0,0,5.1-2,16.1-4.1c-8.1,0.7-15.2,2.4-21.2,5.3C175.7,56.3,178.2,55.3,178.2,55.3z"/>
			<path fill="#131213" d="M158.3,73.3c1-3.9,5.1-9.7,8.8-13.2c-3.3,2.3-6.1,5-8.5,8.1c-3.2,4.2-5.6,9-7.2,14.1
				c0.8-0.5,1.6-0.8,2.4-0.8C153.7,81.4,156.9,78.7,158.3,73.3z"/>
			<path fill="#EFCFAB" d="M254.4,91.2"/>
			<path fill="#EFCFAB" d="M217.8,184.3c-3.8,1.3-7.8,2.2-11.6,2.6c-0.1,0-0.2,0-0.3,0c-0.4,0-0.9,0.1-1.3,0.1c-0.2,0-0.4,0-0.6,0
				c-0.6,0-1.1,0-1.7,0.1v-9v-20.9V57.2l-0.3-8.1c0,0,48.6-2.5,52.4,42.1c1.9,11.9,0.7,24.5-2,34.7c-1.4,5.3-2.1,19.7-3.1,25
				C246.4,167.4,232.7,179.2,217.8,184.3L217.8,184.3z"/>
		</g>
		<path fill="#FFFF01" d="M243.6,197.2c0.1,0,0.2,0,0.3,0c0,0,0,0,0,0C243.8,197.2,243.7,197.2,243.6,197.2z"/>
		<path fill="#FFFFFF" d="M142.5,326.6l-1.2,8.7l-1,7.7l-0.4,2.7l140-125.7c-3-3.6-6-6.6-9-9.1c-1.8-1.5-3.6-2.9-5.3-4.1
			L133.3,325.5l4.5,0.5L142.5,326.6z"/>
		<path fill="#0C37AA" d="M289.3,233.2c-2.8-4.7-5.7-8.8-8.7-12.4L139.7,347.3l-3.5,25.9c1,0.2,2,0.4,3,0.7L291.5,237
			C290.8,235.7,290,234.4,289.3,233.2z"/>
		<g>
			<path fill="#ED201C" d="M249.5,198.6c-2.1-0.7-4-1.1-5.6-1.4c-0.1,0.3-0.3,0.8-0.5,1.4c-0.5,1.2-1.3,2.9-2.4,5
				c-0.9,1.7-2.1,3.7-3.5,5.7c-4.9,7-12.7,14.9-24.4,17.8c-3,0.8-6.2,1.2-9.7,1.2c-0.1,0-0.3,0-0.4,0l-0.1,0c-4.4-0.1-8.4-0.8-12-2
				c-13.5-4.5-21.3-15.7-25.2-22.9c-1.1-2-1.9-3.7-2.3-4.9c-0.2-0.5-0.3-0.9-0.5-1.1c1.7-0.3,3.4-0.5,5.2-0.6
				c-6.6,0.4-12.8,2-18.4,4.5c-8.9,3.9-16.6,10.1-23.3,17.6c-7.4,8.4-13.5,18.6-18.4,29.1c-15.8,34.1-19.9,72.5-19.9,72.5l12.7,1.4
				l7.1,0.8l18.4,2.1l6.8,0.8l132.3-118.9C259.7,202.5,254.1,200.1,249.5,198.6z"/>
			<path fill="#ED201C" d="M139.2,373.8c2,0.5,4,1,6.1,1.4c17.1,3.5,34.8,5.4,52.9,5.4c1.6,0,3.2,0,4.8-0.1
				c19.6-0.4,38.7-2.9,57-7.4c2.6-0.6,5.1-1.3,7.7-2l-5.3-32.6l-0.7-4.3c-0.1-0.4-0.2-0.9-0.4-1.3c-0.2-0.9-0.4-2.3-0.5-3.8
				l-1.1-6.5l1.1-0.1l7.6-0.9l2.5-0.3l18.4-2.1l13.9-1.5l10.8-1.2c-4.3-36.4-12.8-61.8-22.5-79.5L139.2,373.8z"/>
			<path fill="#ED201C" d="M139.9,345.6l-0.2,1.7l140.9-126.5c-0.2-0.3-0.5-0.6-0.7-0.9L139.9,345.6z"/>
		</g>
	</g>
</g>
</svg>
