<?xml version="1.0" encoding="utf-8"?>
<!-- Generator: Adobe Illustrator 19.2.0, SVG Export Plug-In . SVG Version: 6.00 Build 0)  -->
<svg version="1.1" id="Capa_1" xmlns="http://www.w3.org/2000/svg" xmlns:xlink="http://www.w3.org/1999/xlink" x="0px" y="0px"
	 viewBox="0 0 70 100" style="enable-background:new 0 0 70 100;" xml:space="preserve">
<style type="text/css">
	.st0{fill:#1A3044;}
	.st1{fill:#FFC40C;}
	.st2{fill:#D02026;}
	.st3{fill:#A21E22;}
	.st4{fill:none;}
	.st5{fill:#FFFFFF;}
	.st6{fill:#D1D3D4;}
	.st7{fill:#F9A61A;}
	.st8{fill:#F5E7D9;}
</style>
<g>
	<g>
		<g>
			<path class="st0" d="M29.2,93.8c-0.2-0.2-0.3-0.5-0.4-0.8c0-0.3,0.1-0.6,0.3-0.8c0.2-0.2,0.5-0.3,0.8-0.4l3-0.1v-7.8
				c0-0.6,0.5-1.1,1.1-1.1s1.1,0.5,1.1,1.1v8.3l2.7,1c0.6,0.2,0.9,0.9,0.7,1.4c-0.2,0.6-0.9,0.9-1.4,0.7l-2.9-1l-2.8,1.5
				c-0.2,0.1-0.3,0.1-0.5,0.1c-0.4,0-0.8-0.2-1-0.6c-0.1-0.3-0.2-0.6-0.1-0.9c0-0.1,0.1-0.3,0.2-0.4l-0.2,0
				C29.7,94.1,29.4,94,29.2,93.8z"/>
			<g>
				<path class="st1" d="M33.9,93.5h0.4c0.3,0,0.5-0.2,0.5-0.5v-9.3c0-0.3-0.2-0.5-0.5-0.5h-0.4c-0.3,0-0.5,0.2-0.5,0.5V93
					C33.4,93.3,33.6,93.5,33.9,93.5z"/>
				<path class="st1" d="M38.2,94.7l0.1-0.4c0.1-0.3,0-0.5-0.3-0.6l-3.9-1.4c-0.3-0.1-0.5,0-0.6,0.3L33.3,93c-0.1,0.3,0,0.5,0.3,0.6
					l3.9,1.4C37.8,95.1,38.1,95,38.2,94.7z"/>
				<path class="st1" d="M35.1,92.9l-0.2-0.4c-0.1-0.2-0.4-0.3-0.7-0.2l-3.7,1.9c-0.2,0.1-0.3,0.4-0.2,0.7l0.2,0.4
					c0.1,0.2,0.4,0.3,0.7,0.2l3.7-1.9C35.1,93.4,35.2,93.1,35.1,92.9z"/>
				<path class="st1" d="M34.4,93l0-0.4c0-0.3-0.2-0.5-0.5-0.5l-4.2,0.1c-0.3,0-0.5,0.2-0.5,0.5l0,0.4c0,0.3,0.2,0.5,0.5,0.5
					l4.2-0.1C34.2,93.5,34.4,93.3,34.4,93z"/>
			</g>
		</g>
		<g>
			<path class="st0" d="M33,94.9c-0.2-0.2-0.4-0.5-0.4-0.9c0-0.3,0.1-0.7,0.3-0.9c0.2-0.2,0.5-0.4,0.9-0.4l3.4-0.1V84
				c0-0.7,0.6-1.3,1.3-1.3c0.7,0,1.3,0.6,1.3,1.3v9.2l3,1.1c0.7,0.2,1,0.9,0.8,1.6c-0.2,0.7-0.9,1-1.6,0.8l-3.2-1.1l-3,1.6
				c-0.2,0.1-0.4,0.1-0.6,0.1c-0.4,0-0.9-0.2-1.1-0.7c-0.2-0.3-0.2-0.6-0.1-1c0-0.2,0.1-0.3,0.2-0.4l-0.2,0
				C33.5,95.3,33.2,95.1,33,94.9z"/>
			<g>
				<path class="st1" d="M38.1,94.6h0.5c0.3,0,0.5-0.2,0.5-0.5V83.8c0-0.3-0.2-0.5-0.5-0.5h-0.5c-0.3,0-0.5,0.2-0.5,0.5v10.3
					C37.6,94.4,37.8,94.6,38.1,94.6z"/>
				<path class="st1" d="M42.9,96l0.2-0.5c0.1-0.3-0.1-0.6-0.3-0.7l-4.3-1.5c-0.3-0.1-0.6,0.1-0.7,0.3l-0.2,0.5
					c-0.1,0.3,0.1,0.6,0.3,0.7l4.3,1.5C42.5,96.4,42.8,96.2,42.9,96z"/>
				<path class="st1" d="M39.5,94l-0.2-0.4c-0.1-0.3-0.5-0.4-0.7-0.2l-4.1,2.1c-0.3,0.1-0.4,0.5-0.2,0.7l0.2,0.4
					c0.1,0.3,0.5,0.4,0.7,0.2l4.1-2.1C39.5,94.6,39.6,94.2,39.5,94z"/>
				<path class="st1" d="M38.7,94.1l0-0.5c0-0.3-0.3-0.5-0.6-0.5l-4.6,0.2c-0.3,0-0.5,0.3-0.5,0.6l0,0.5c0,0.3,0.3,0.5,0.6,0.5
					l4.6-0.2C38.5,94.6,38.7,94.4,38.7,94.1z"/>
			</g>
		</g>
		<g>
			<path class="st0" d="M33.9,35.5l-0.4,1.3l-0.4,1c-1.6,0.2-5.5,1.6-5.5,1.6l0.3,0.7l2.5,3.9c0.8,0,1.6,0.4,1.6,0.4S36,46.4,36,50
				c0,4-2.8,2.9-2.8,2.9c-1.5,1.6-3.1,0.4-3.1,0.4c-1.2,1-2.1,0.5-2.1,0.5s-1.3-0.3-1.8-2.3c-0.5-2,1.2-2.4,1.2-2.4
				c-0.2-1.5,0.7-3.2,0.7-3.2L26,43c-2-2.9-1-4.2-1-4.2c1.6-3.5,9.2-3.6,9.2-3.6L33.9,35.5z"/>
			<path class="st2" d="M35.4,48.9c0,0-1.5-4.5-5.6-4.7c0,0-0.4,0-0.1-0.2l0.2-0.1L28.1,41c0,0-0.7-1.8-1.2-2.2c0,0,0-0.1,0.2-0.1
				l0-0.1c0-0.3,0.4,0.1,0.4,0.1l0.2,0c0,0,0-0.3-0.2-0.4c0,0,0.2-0.1,0.3,0.1l0,0l6-1.5c0.2-0.5,0.5-1.4,0.8-1.9
				c0,0-5.4,0.6-7.8,2.3c-0.3,0.2-0.6,0.5-0.8,0.8c0,0-1.5,1.3,0.5,4.5c0,0,1.6,2.6,2.3,3.1c0,0,0,0.2-0.2,0.4c0,0-1.6,3.1,0.2,5.7
				c0,0,0.4,0.5-0.1,0.1c0,0-0.7-0.5-0.7-1c0,0-0.1,0.5,0.3,1.1c0,0-0.3-0.1-0.4-0.5c-0.1-0.2-0.1-0.6,0-1.1c0,0-0.2-0.7-0.1-1
				c0,0-1.4,0.5-0.7,2.4c0,0,0.3,1.7,2.6,1.4c0,0,1-0.1,1.5-2.3c0,0,0.4,0.1-0.1,1.9c0,0,1.7,0.8,2.4-1c0,0,0-0.2,0.1-0.5
				c0-0.4,0.1-1,0-1.5c0,0,0.3,0.3,0.2,1.6l0,0c0,0,1,1.1,1.9,0C35.4,51.2,35.6,50.3,35.4,48.9z M29,45.4L29,45.7c0,0,0,0,0,0
				C29,45.5,29,45.4,29,45.4z"/>
			<path class="st3" d="M32.7,37.6L27.8,39c0-0.3-0.1-0.4-0.1-0.5l0,0l6-1.5c-0.1,0.3-0.1,0.4-0.1,0.4L32.7,37.6z"/>
			<path class="st3" d="M30.4,44.3c0,0-0.2,5.4-1.3,9.1c0,0,1,0.1,1.5-1.7l1.1-3.4l0.4-3.4l-0.7-0.4L30.4,44.3z"/>
			<path class="st4" d="M27.4,38.4c0,0,0.2-0.1,0.3,0.1l-0.1,0.3C27.6,38.8,27.6,38.5,27.4,38.4z"/>
			<path class="st4" d="M28.5,52.1c0,0-0.7-0.5-0.7-1c0,0-0.1,0.5,0.3,1.1c0,0-0.3-0.1-0.4-0.5l0-0.2l0-0.7l0.1-0.4l0.1,0.7l0.3,0.4
				l0.5,0.4C28.6,52,29,52.4,28.5,52.1z"/>
			<path class="st4" d="M33.3,51.7L33,51.6l0,0c0-0.4,0.1-1,0-1.5C33.1,50.1,33.3,50.5,33.3,51.7z"/>
			<path class="st3" d="M33.2,52.4c0-0.3,0.1-0.5,0.1-0.7l0,0c0,0,1,1.1,1.9,0C34.6,53,33.2,52.4,33.2,52.4z"/>
			<path class="st3" d="M27.4,38.8l0.2,0c0.1,0.3-0.2,0.2-0.2,0.2c-0.1-0.1-0.2-0.2-0.3-0.2l0-0.1C27,38.3,27.4,38.8,27.4,38.8z"/>
			<g>
				<path class="st2" d="M24.9,13.2c0,0-3.8,1.3-1.6,6l2.2-3.4v-1.5L24.9,13.2z"/>
				<path class="st0" d="M23.3,20.2l-0.4-0.8c-0.8-1.7-0.9-3.2-0.4-4.4c0.7-1.6,2.2-2.1,2.3-2.2l0.4-0.1l0.8,1.5v1.7L23.3,20.2z
					 M24.7,13.8c-0.4,0.2-1.1,0.7-1.4,1.5c-0.3,0.8-0.3,1.7,0.1,2.8l1.6-2.6v-1.2L24.7,13.8z"/>
			</g>
			<path class="st0" d="M44.1,43.3c0-0.6,0.3-9.2-0.9-12.8c-1.1-3.3-3-7.1-4.2-8c-0.2-9.7-3.3-16.4-7.6-16.5l-0.1,0
				c-1.4,0-2.8,0.7-4,2c-2.9,3.1-4.4,9.1-4,15.3c0.1,2.1,1.9,3.9,3.9,5.8c2.5,2.5,5.1,5.1,4.8,8.7c-0.5,4.7-1,9.5-1.6,14.4
				c-0.2,1.5-0.6,2.1-1.2,3c-0.6,0.9-1.4,2-2.3,4.3c-1.9,4.9-1.9,5-1.4,9.6c1.1,9.1,6.2,17,11.1,17h0.1l0.1,0
				c4.6-1.1,4.8-1.2,7.3-8.2c0-0.1,1.1-3.6,1.1-16.6C45,58,44.1,44.1,44.1,43.3z"/>
			<path class="st2" d="M36.5,85.7L36.5,85.7c-4.4,0-9.6-7.4-10.6-16.6c-0.5-4.6-0.5-4.6,1.4-9.4c1.8-4.7,3.2-4.2,3.6-7.3
				c0.5-4.3,1.1-9.1,1.6-14.4c0.7-6.7-8.3-10.1-8.6-14.6c-0.6-9.2,3.1-16.8,7.5-16.8l0,0c4.4,0,7.2,7.5,7.2,16.8
				c-0.5-1.9,2.3,1.5,4.2,7.3c1.2,3.6,0.9,12.6,0.9,12.6s1,14.7,1,18c0,13-1.1,16.4-1.1,16.4C41.1,84.5,41.1,84.5,36.5,85.7z"/>
			<path class="st2" d="M38.5,23.3c0-0.2,0-0.3,0-0.5C38.5,22.9,38.5,23,38.5,23.3z"/>
			<path class="st2" d="M36.7,23.3c0-0.2,0-0.3,0-0.5C36.6,22.9,36.6,23,36.7,23.3z"/>
			<path class="st2" d="M24.9,13.2c0,0-3.9,1-1.8,5.7l2.3-3.1v-1.5L24.9,13.2z"/>
			<ellipse class="st5" cx="26.2" cy="17.4" rx="3.3" ry="3.6"/>
			<ellipse class="st1" cx="25.5" cy="18.7" rx="0.8" ry="0.9"/>
			<ellipse class="st0" cx="25.5" cy="18.7" rx="0.7" ry="0.8"/>
			<ellipse class="st6" cx="25.6" cy="18.3" rx="0.2" ry="0.2"/>
			<path class="st3" d="M27.4,13.2c0,0,2.4,1.1,2.4,4.2c0,0,0.1,4.3-3.6,3.6c0,0,3.8,1.6,4.5-3.9C30.7,17.2,30.7,14,27.4,13.2z"/>
			<path class="st4" d="M38.5,23.3c0-0.2,0-0.3,0-0.5C38.5,22.9,38.5,23,38.5,23.3z"/>
			<path class="st3" d="M43.6,43.3c0,0,0.3-9-0.9-12.6c-1.6-4.9-3.8-8-4.2-7.8c0,0.2,0,0.3,0,0.5c-0.1-0.3-0.1-0.5,0-0.5
				c-0.1-9-2.9-16.3-7.2-16.3l0,0c-0.3,0-0.6,0-0.9,0.1c2.3,0.6,4,3.2,5.1,7c2.1,1.1,2.1,3.5,2.1,3.5c-0.2,1.4-0.6,2.3-1.1,3
				c0.1,0.9,0.1,1.8,0.1,2.7c0.4-0.2,2.6,2.9,4.2,7.8c1.2,3.6,0.9,12.6,0.9,12.6s1,14.7,1,18c0,13-1.1,16.4-1.1,16.4
				c-2.3,6.4-4.4,5.8-8.3,6.8c0.1,0.1,1.9,1.2,3.1,1.1h0c4.6-1.1,4.6-1.1,7-7.9c0,0,1.1-3.4,1.1-16.4C44.6,58,43.6,43.3,43.6,43.3z"
				/>
			<path class="st3" d="M35.5,13.7c-0.3-0.2-0.7-0.3-1.1-0.4c0,0,0.7,0.3,1.3,1.1c0.6,0.7,1.1,1.7,1.1,3.1c0,0,0,0.8-0.3,1.7
				c-0.4,1.1-1.3,2.3-3.3,1.9c0,0,2.1,0.9,3.4-0.9c0.5-0.6,0.9-1.6,1.1-3C37.6,17.2,37.6,14.8,35.5,13.7z"/>
			<ellipse class="st5" cx="33.2" cy="17.4" rx="3.3" ry="3.6"/>
			<path class="st7" d="M30.4,23.5l-0.3-1.5c0,0-6.3,0.2-6.5,2.7C23.6,24.6,28.6,24.8,30.4,23.5z"/>
			<polygon class="st5" points="24,24.3 24,25.3 24.8,24.9 24.8,23.9 			"/>
			<polygon class="st5" points="24.9,23.8 24.9,24.6 25.6,24.3 25.6,23.6 			"/>
			<path class="st1" d="M29.8,20c0,0-6-3-8.2,6.3c0,0,2.4-2.7,4.2-2.7c1.7,0,4.3-1.7,4.3-1.7L29.8,20z"/>
			<ellipse class="st1" cx="32.4" cy="18.7" rx="0.8" ry="0.9"/>
			<ellipse class="st0" cx="32.4" cy="18.7" rx="0.7" ry="0.8"/>
			<ellipse class="st6" cx="32.6" cy="18.3" rx="0.2" ry="0.2"/>
			<g>
				<path class="st0" d="M26.6,4.9c0.2,0,0.4-0.1,0.6-0.1C28,4.8,28.6,5,29,5.4c0-0.4,0-0.7,0.2-0.9c0.1-0.2,0.4-0.3,0.7-0.3
					c0.5,0,2.1,0,2.4,1.3c0,0.1,0,0.2,0,0.3c0-0.1,0-0.2,0.1-0.3c0-0.1,0-0.1,0-0.2c0.1-0.4,0.7-0.7,1.3-0.7c0.5,0,0.8,0.2,1,0.5
					c0.2,0.3,0.1,0.8-0.2,1.4c-1,1.8-5.1,3-5.3,3l-0.3,0.1l-0.1-0.3c-0.2-0.3-0.5-0.8-0.8-0.9c-0.4-0.1-2.6-1.4-2.6-2.5
					C25.5,5.4,25.7,5,26.6,4.9z"/>
				<path class="st2" d="M29.1,9c0,0-0.5-0.9-1-1c-0.5-0.1-3.8-2.4-1.4-2.8s3.2,1.7,3.2,1.7s-1.1-2.5,0-2.5s1.9,0.2,2,1
					c0.2,0.8-0.5,1.1,0,1.5c0.5,0.4,0.7-1.2,0.8-1.7s2.5-0.8,1.5,0.9S29.1,9,29.1,9z"/>
				<path class="st3" d="M33.1,5.4c-0.1,0.5-0.2,1.4-0.7,1.6c-0.1,0-0.2,0.1-0.2,0c0.3-0.3,0.4-1.3,0.5-1.7c0.1-0.3,1-0.6,1.5-0.3
					C33.7,4.9,33.2,5.1,33.1,5.4z"/>
				<path class="st3" d="M29.7,6c0,0.1,0.2,0.9,0.2,0.9S29.5,6.1,29.5,6c-0.2-0.7-0.3-1.6,0.3-1.6c0.5,0,1,0.1,1.3,0.2
					c-0.3-0.1-0.6-0.1-0.9-0.1C29.3,4.6,29.7,6.2,29.7,6z"/>
				<path class="st3" d="M26.7,5.2c0.6-0.1,1.1,0,1.6,0.1c-0.3-0.1-0.7-0.1-1.2,0C24.7,5.7,28,8,28.5,8.1c0.4,0.1,0.7,0.6,0.9,0.8
					C29.2,9,29.1,9,29.1,9s-0.5-0.9-1-1C27.6,7.8,24.3,5.6,26.7,5.2z"/>
			</g>
			<g>
				<path class="st0" d="M39.6,35.3l0.2,1.4l0.2,0.8c0.5,0.2,5.4,2.8,5.4,2.8L44.9,41l-3.2,3.6c-0.9-0.1-1.7,0.2-1.7,0.2
					s-4.3,1.4-4.8,5c-0.6,4.1,2.4,3.5,2.4,3.5c1.3,1.9,3.1,0.9,3.1,0.9c1.1,1.2,2.1,0.9,2.1,0.9s1.4-0.1,2.2-2
					c0.9-2-0.9-2.7-0.9-2.7c0.4-1.5-0.2-3.4-0.2-3.4l2.6-2.7c2.5-2.6,1.7-4.2,1.7-4.2c-1.1-3.9-8.9-5.2-8.9-5.2L39.6,35.3z"/>
				<path class="st4" d="M45.8,39.4c0,0-0.1-0.1-0.3,0.1l0,0.3C45.5,39.7,45.6,39.4,45.8,39.4z"/>
				<path class="st4" d="M42.5,53.3c0,0,0.8-0.4,0.9-0.9c0,0,0,0.6-0.4,1.1c0,0,0.3,0,0.5-0.4l0-0.2l0.1-0.7l0-0.5l-0.2,0.7L43,52.7
					l-0.5,0.4C42.4,53.1,42,53.5,42.5,53.3z"/>
				<path class="st4" d="M37.6,52.1l0.3-0.1l0,0c0-0.4,0.1-1.1,0.2-1.5C38.1,50.5,37.8,50.8,37.6,52.1z"/>
				<path class="st2" d="M37.6,52.1L37.6,52.1c0.1-1.3,0.5-1.6,0.5-1.6C38,51,37.9,51.6,37.9,52c0.1,0.7,1.1,0.7,1.1,0.7
					c1.2,0.2,1.3-1.4,1.3-1.4l0.2,0.3C41,54,42.2,54,42.2,54c1.8,0.3,1.3-1,1.3-1l0,0c-0.2,0.4-0.5,0.4-0.5,0.4
					c0.5-0.5,0.4-1.1,0.4-1.1c-0.1,0.5-0.9,0.9-0.9,0.9c-0.6,0.3-0.1-0.2-0.1-0.2c1.1-1.9,0.8-5.5,0.6-6.6c0,0,0,0,0,0l0-0.3
					c0,0,0,0.1,0,0.3c4.5-3.9,3.6-8.1,3.6-8.1c-2.2-2.1-7.6-3.6-7.6-3.6c0.2,0.5,0.4,1.5,0.5,2.1l6,2.5l0,0c0.1-0.2,0.3-0.1,0.3-0.1
					c-0.2,0.1-0.3,0.4-0.3,0.4l0.2,0c0,0,0.5-0.4,0.4,0l0,0.1c0.2-0.1,0.2,0.1,0.2,0.1c-0.6,0.4-1.6,2.1-1.6,2.1l-2.4,2.7l0.2,0.2
					c0.3,0.2-0.1,0.2-0.1,0.2c-4.2-0.4-6.5,3.9-6.5,3.9c-0.4,1.4-0.4,2.3-0.2,2.9C36.4,53.1,37.6,52.1,37.6,52.1z"/>
				<path class="st3" d="M42.2,54c0,0-1.3,0-1.7-2.4l-0.2-0.3c0,0-0.1,1.5-1.3,1.4c0,0-1,0-1.1-0.7c0,0.3,0,0.5,0,0.5
					c0.4,2,2.3,1.4,2.3,1.4c-0.2-1.9,0.2-2,0.2-2c0.1,2.3,1.1,2.6,1.1,2.6c2.2,0.7,2.9-1,2.9-1c1-1.9-0.4-2.6-0.4-2.6
					c0,0.3-0.3,1-0.3,1c0,0.5-0.1,0.9-0.2,1.1l0,0C43.5,53,44.1,54.3,42.2,54z"/>
				<path class="st3" d="M43.1,46.6c0.1,1,0.4,4.7-0.6,6.6c2.3-2.4,1.1-5.9,1.1-5.9c-0.2-0.3-0.2-0.5-0.2-0.5
					c0.7-0.4,2.8-2.8,2.8-2.8c2.5-3,1.2-4.6,1.2-4.6c-0.2-0.3-0.4-0.6-0.7-1C46.7,38.5,47.6,42.7,43.1,46.6z"/>
				<path class="st3" d="M37.6,52.9c0-0.3,0-0.5,0-0.7l0,0c0,0-1.2,1-1.9-0.3C36.1,53.2,37.6,52.9,37.6,52.9z"/>
				<path class="st3" d="M40.5,37.7l4.8,2.2c0.1-0.3,0.1-0.4,0.2-0.5l0,0l-6-2.5c0,0.3,0.1,0.5,0.1,0.5L40.5,37.7z"/>
				<path class="st3" d="M45.7,39.7l-0.2,0c-0.1,0.3,0.2,0.2,0.2,0.2c0.2-0.1,0.3-0.2,0.3-0.2l0-0.1C46.2,39.3,45.7,39.7,45.7,39.7z
					"/>
			</g>
		</g>
	</g>
	<g>
		<path class="st8" d="M35.2,96.6c0,0-1.1,0.4-1.1,1c0,0-0.6-1.2,0.4-2c0,0,0.5-0.1,0.6,0.3C35.4,96.2,35.2,96.6,35.2,96.6z"/>
		<path class="st0" d="M34.6,95.4c0,0,0.5,0.1,0.7,0.4c0.3,0.5,0.2,0.9,0.2,0.9l-0.1,0.1c0,0-0.2,0.1-0.4,0.2
			c-0.2,0.1-0.6,0.4-0.6,0.7l0,0.5L34,97.7C34,97.6,33.4,96.4,34.6,95.4L34.6,95.4z M35.1,96.6c0,0,0.3-0.3,0-0.6
			c-0.2-0.3-0.6-0.2-0.6-0.2c-0.5,0.5-0.5,1.1-0.4,1.5c0.1-0.2,0.3-0.4,0.6-0.5C34.9,96.7,35,96.6,35.1,96.6z"/>
		<path class="st8" d="M35.2,96.6"/>
		<path class="st8" d="M34.5,95.6"/>
	</g>
	<g>
		<path class="st8" d="M33.6,94.7c0,0-1.2-0.1-1.4,0.4c0,0,0-1.3,1.2-1.6c0,0,0.4,0.1,0.4,0.5C33.9,94.4,33.6,94.7,33.6,94.7z"/>
		<path class="st0" d="M33.5,93.3c0,0,0.4,0.3,0.5,0.6c0.1,0.5-0.2,0.9-0.2,0.9l-0.1,0c0,0-0.2,0-0.4,0c-0.3,0-0.7,0.1-0.8,0.3
			l-0.2,0.4l0-0.5c0,0,0-1.4,1.3-1.8L33.5,93.3z M33.4,94.6c0,0,0.4-0.1,0.3-0.5c-0.1-0.3-0.4-0.4-0.4-0.4c-0.7,0.2-0.9,0.8-1,1.2
			c0.2-0.1,0.5-0.2,0.8-0.2C33.2,94.6,33.3,94.6,33.4,94.6z"/>
		<path class="st8" d="M33.6,94.7"/>
		<path class="st8" d="M33.4,93.5"/>
	</g>
	<g>
		<path class="st8" d="M30.7,95.7c0,0-1.2-0.1-1.4,0.4c0,0,0-1.3,1.2-1.6c0,0,0.4,0.1,0.4,0.5C31,95.4,30.7,95.7,30.7,95.7z"/>
		<path class="st0" d="M30.7,94.3c0,0,0.4,0.3,0.5,0.6c0.1,0.5-0.2,0.9-0.2,0.9l-0.1,0c0,0-0.2,0-0.4,0c-0.3,0-0.7,0.1-0.8,0.3
			l-0.2,0.4l0-0.5c0,0,0-1.4,1.3-1.8L30.7,94.3z M30.6,95.6c0,0,0.4-0.1,0.3-0.5c-0.1-0.3-0.4-0.4-0.4-0.4c-0.7,0.2-0.9,0.8-1,1.2
			c0.2-0.1,0.5-0.2,0.8-0.2C30.4,95.6,30.5,95.6,30.6,95.6z"/>
		<path class="st8" d="M30.7,95.7"/>
		<path class="st8" d="M30.6,94.5"/>
	</g>
	<g>
		<path class="st8" d="M29.6,93.5c0,0-1.2-0.1-1.4,0.4c0,0,0-1.3,1.2-1.6c0,0,0.4,0.1,0.4,0.5C29.9,93.2,29.6,93.5,29.6,93.5z"/>
		<path class="st0" d="M29.6,92.1c0,0,0.4,0.3,0.5,0.6c0.1,0.5-0.2,0.9-0.2,0.9l-0.1,0c0,0-0.2,0-0.4,0c-0.3,0-0.7,0.1-0.8,0.3
			l-0.2,0.4l0-0.5c0,0,0-1.4,1.3-1.8L29.6,92.1z M29.5,93.4c0,0,0.4-0.1,0.3-0.5c-0.1-0.3-0.4-0.4-0.4-0.4c-0.7,0.2-0.9,0.8-1,1.2
			c0.2-0.1,0.5-0.2,0.8-0.2C29.3,93.4,29.4,93.4,29.5,93.4z"/>
		<path class="st8" d="M29.6,93.5"/>
		<path class="st8" d="M29.5,92.3"/>
	</g>
	<g>
		<path class="st8" d="M42.5,96.2c0,0,1.2-0.1,1.4,0.4c0,0,0-1.3-1.2-1.6c0,0-0.4,0.1-0.4,0.5C42.2,95.9,42.5,96.2,42.5,96.2z"/>
		<path class="st0" d="M42.7,94.9c1.4,0.4,1.3,1.7,1.3,1.8l0,0.5l-0.2-0.4c-0.1-0.3-0.6-0.3-0.8-0.3c-0.2,0-0.4,0-0.4,0l-0.1,0
			c0,0-0.3-0.3-0.2-0.9c0.1-0.4,0.5-0.6,0.5-0.6L42.7,94.9z M43,96.1c0.3,0,0.6,0.1,0.8,0.2c-0.1-0.4-0.3-0.9-1-1.2
			c0,0-0.4,0.1-0.4,0.4c-0.1,0.4,0.3,0.5,0.3,0.5C42.7,96.1,42.9,96.1,43,96.1z"/>
		<path class="st8" d="M42.5,96.2"/>
		<path class="st8" d="M42.7,95"/>
	</g>
</g>
</svg>
