<?xml version="1.0" encoding="utf-8"?>
<!-- Generator: Adobe Illustrator 18.0.0, SVG Export Plug-In . SVG Version: 6.00 Build 0)  -->
<!DOCTYPE svg PUBLIC "-//W3C//DTD SVG 1.1//EN" "http://www.w3.org/Graphics/SVG/1.1/DTD/svg11.dtd">
<svg version="1.1" id="Capa_1" xmlns="http://www.w3.org/2000/svg" xmlns:xlink="http://www.w3.org/1999/xlink" x="0px" y="0px"
	 viewBox="0 0 100 150" enable-background="new 0 0 100 150" xml:space="preserve">
<g>
	<path fill="#FFA801" d="M76.7,119.7l-14-2.1c-1.1-0.2-2.1,0.6-2.3,1.7c0,0.1,0,0.1,0,0.2c-0.4,0.2-0.7,0.6-0.9,1.1
		c-0.1,0.2-0.5-2.1-0.5-1.8l-6,3.4c-0.7,0.1-0.6,0.9-0.5,1.7c0.1,0.8,0.8,1.4,1.5,1.3l6.9-2.5l12.9,5.4c1,0.4,2.2-0.2,2.5-1.2
		c0.4-1-0.2-2.2-1.2-2.5l-6.1-1.9l6.9,1.3c1.1,0.2,2.1-0.6,2.3-1.7C78.5,120.8,77.8,119.8,76.7,119.7z"/>
	<rect x="59.1" y="107.6" fill="#FFA801" width="3.6" height="13.7"/>
	<path fill="#FFCD01" d="M23.9,120.7l14-2.1c1.1-0.2,2.1,0.6,2.3,1.7c0,0.1,0,0.1,0,0.2c0.4,0.2,0.7,0.6,0.9,1.1
		c0.1,0.2,0.5-2.1,0.5-1.8l6,3.4c0.7,0.1,0.6,0.9,0.5,1.7c-0.1,0.8-0.8,1.4-1.5,1.3l-6.9-2.5L26.6,129c-1,0.4-2.2-0.2-2.5-1.2
		c-0.4-1,0.2-2.2,1.2-2.5l6.1-1.9l-6.9,1.3c-1.1,0.2-2.1-0.6-2.3-1.7C22.1,121.9,22.8,120.9,23.9,120.7z"/>
	<rect x="37.9" y="108.7" fill="#FFCD01" width="3.6" height="13.7"/>
	<path fill="#E74C3C" d="M68.7,47c-2.7-4.4-4.6-12.5-4.6-12.5c-4.8-13-12.2-13.4-13.9-13.3l0,0c0,0-10.3-1.8-14.7,13.3
		c0,0-2,8.1-4.6,12.5c-1.9,3.1-1,7.1,2.1,9c2.9,1.8,8,3.1,16.9,2.9c8.9,0.2,14-1.2,16.9-2.9C69.7,54.1,70.6,50,68.7,47z"/>
	<path fill="#E74C3C" d="M50,112.1c20.7-1,25.2-14.2,26-21.3c0.3-2.5-0.1-4.9-1.2-7.2c-6.4-14-11.3-27-11.3-27L36,57.4
		c0,0-4.5,12.3-10.8,26.3c-1,2.2-1.5,4.7-1.2,7.2C24.9,97.9,29.3,111.1,50,112.1"/>
	<path fill="#C0392C" d="M50.7,59.1c8.9,0.2,14.3-1.2,17.2-3c3-1.9,3.9-6,2.1-9c-2.7-4.4-4.6-12.5-4.6-12.5
		c-4.4-15.1-14.7-13.3-14.7-13.3l0,0"/>
	<path fill="#C0392C" d="M50.2,112.5c20.7-1,25.2-14.2,26-21.3c0.3-2.5-0.1-4.9-1.2-7.2c-6.4-13.9-10.8-26.3-10.8-26.3H50.7
		L50.2,112.5"/>
	<path fill="#C0392C" d="M50.2,112.5"/>
	<path fill="#E74C3C" d="M41.1,24.3c0,0-1.2-6.2,5-8.3c0,0-1.3,2.5-0.9,3.2c0,0,1.2-2.1,3.9-2.4c0,0-0.6,1.1-0.6,2.6
		c0,0,1.4-1.5,3.6-1c0,0-1.3,0.2-1.5,3S41.1,24.3,41.1,24.3z"/>
	<path fill="#C0392C" d="M50.6,111.5"/>
	<path fill="#FFFFFF" d="M47.9,41.1c-0.4,2.2-1.8,2.3-3.5,2c-1.6-0.3-2.9-1-2.4-3.2s2.3-4.6,3.9-4.2C47.5,36,48.3,38.9,47.9,41.1z"
		/>
	<path fill="#FFFFFF" d="M53.3,41.1c0.4,2.2,1.8,2.3,3.5,2c1.6-0.3,2.9-1,2.4-3.2s-2.3-4.6-3.9-4.2C53.7,36,52.8,38.9,53.3,41.1z"/>
	<circle fill="#3C3C3B" cx="44.9" cy="41" r="1.2"/>
	<circle fill="#3C3C3B" cx="56.2" cy="41" r="1.2"/>
	<g>
		<path fill="#3C3C3B" d="M53.6,34c0,0-0.1-0.4,0.2-0.9c0.2-0.5,0.9-1,1.8-1c0.4,0,0.8,0.1,1.1,0.3c0.3,0.2,0.5,0.4,0.6,0.7
			c0.1,0.2,0.2,0.5,0.2,0.6c0,0.2,0,0.3,0,0.3s-0.1,0-0.3,0c-0.1,0-0.3,0-0.6,0c-0.2,0-0.4,0-0.6,0c-0.2,0-0.3,0-0.5,0
			c-0.4,0-0.8,0-1.1,0C54,34,53.6,34,53.6,34z"/>
	</g>
	<g>
		<path fill="#3C3C3B" d="M47.6,34.3c0,0-0.4,0.3-1.1,0.4c-0.3,0.1-0.7,0.1-1.1,0c-0.2,0-0.4-0.1-0.7-0.2c-0.1,0-0.1-0.1-0.2-0.1
			c-0.1,0-0.2-0.1-0.3-0.2l-0.1-0.1l0,0l0,0c0.2,0.3,0.1,0.1,0.1,0.1l0,0l0,0l-0.1,0c0,0,0.2,0.1,0.2,0.2c0.1,0-0.1,0-0.2,0
			c-0.1,0-0.3,0-0.4,0c-0.3,0-0.5,0-0.8,0c-0.1,0-0.2,0-0.3,0.1c-0.1,0-0.2,0.1-0.3,0.1c-0.2,0.1-0.3,0.1-0.3,0.1s0,0,0-0.1
			c0-0.1-0.1-0.1,0-0.3c0-0.2,0.1-0.6,0.3-0.9c0.2-0.3,0.5-0.6,1-0.8c0.2-0.1,0.4-0.2,0.7-0.2c0.3,0,0.5-0.1,1,0
			c0.2,0.1,0.4,0.2,0.5,0.3l0.1,0l0,0l0,0l0.1,0.1l0,0l0,0l0,0c0,0-0.1-0.1-0.1-0.1c0,0,0,0,0,0c0.1,0.1,0.2,0.1,0.3,0.2
			c0.3,0.2,0.6,0.3,0.8,0.5C47.3,34,47.6,34.3,47.6,34.3z"/>
	</g>
	<path fill="#F59D00" d="M45.2,50.2c0,0,3.4,2.8,5.5,2.6c0,0,2.9-0.1,4.6-2c0,0-2.2-0.6-4.6-0.7C49.1,50,46.5,49.6,45.2,50.2z"/>
	<path fill="#E87E04" d="M50.8,50l-0.1,2.8c0,0,2.9,0,4.6-2C55.3,50.8,51.5,49.9,50.8,50z"/>
	<path fill="#E87E04" d="M50.8,50l-0.1,2.8c0,0,3.5-0.4,5.3-2.4C56,50.4,51.5,49.9,50.8,50z"/>
	<path fill="#FFCD01" d="M50.6,45.8c0,0-1.6,0.3-3,3c-0.1,0.2-0.3,0.4-0.4,0.5c-0.5,0.3-1.8,0.6-2.6,0.8c0,0,4.4,0.5,6.1,1"/>
	<path fill="#FFA801" d="M50.6,45.8c0,0,1.8,0.3,3.3,3.1c0.1,0.2,0.2,0.3,0.4,0.4c0.5,0.3,1.6,0.9,2.2,1.1c0,0-4.1-0.1-5.7,0.7"/>
	<path fill="#C23824" d="M35.5,57.4c0,0-11.9,7.2-17.5,13.9c-0.2,0.2-0.8,1.5-0.7,1.8c0.4,1.6,1.4,6.9,5.3,9.2c0,0,0.2,0.8-3.2-0.5
		c-0.4-0.1-0.3,0-0.3,0s2.3,8.8,7.7,5.6c0.5-0.3,2.3-1.9,2.3-2.9c0-1.5-0.4-4.7-1.3-6.5l1.4-3.1c0,0,5.9-8.9,9.5-11.9
		c0.6-0.5,0.1-1.8-0.1-2.5C38.2,59.1,37.4,57.5,35.5,57.4z"/>
	<path fill="#E74C3C" d="M35.5,57.4c0,0-4,12-6.1,17.1s9.3-9.5,9.3-9.5l1.7-1.8l-0.4-4.3C39.9,58.9,36.6,55.5,35.5,57.4z"/>
	<path fill="#982714" d="M64.5,57.6c0,0,11.9,7.2,17.5,13.9c0.2,0.2,0.8,1.5,0.7,1.8c-0.4,1.6-1.4,6.9-5.3,9.2c0,0-0.2,0.8,3.2-0.5
		c0.4-0.1,0.3,0,0.3,0s-2.3,8.8-7.7,5.6c-0.5-0.3-2.3-1.9-2.3-2.9c0-1.5,0.4-4.7,1.3-6.5l-1.4-3.1c0,0-5.9-8.9-9.5-11.9
		c-0.6-0.5-0.1-1.8,0.1-2.5C61.8,59.4,62.6,57.7,64.5,57.6z"/>
	<path fill="#C0392C" d="M64.5,57.6c0,0,4,12,6.1,17.1c2.1,5.1-9.3-9.5-9.3-9.5l-1.7-1.8l0.4-4.3C60.1,59.2,63.4,55.7,64.5,57.6z"/>
</g>
</svg>
