<?xml version="1.0" encoding="utf-8"?>
<!-- Generator: Adobe Illustrator 19.2.0, SVG Export Plug-In . SVG Version: 6.00 Build 0)  -->
<svg version="1.1" id="Capa_1" xmlns="http://www.w3.org/2000/svg" xmlns:xlink="http://www.w3.org/1999/xlink" x="0px" y="0px"
	 viewBox="0 0 70 100" style="enable-background:new 0 0 70 100;" xml:space="preserve">
<style type="text/css">
	.st0{fill:#1A3044;}
	.st1{fill:#F5E7D9;}
	.st2{fill:#FFC40C;}
	.st3{fill:#D02026;}
	.st4{fill:none;stroke:#FFFFFF;stroke-width:0.2;stroke-miterlimit:10;}
	.st5{fill:#A21E22;}
	.st6{fill:#FFFFFF;}
	.st7{fill:#F9A61A;}
	.st8{fill:none;}
</style>
<g>
	<g>
		<path class="st0" d="M36.4,91.7C36.4,91.7,36.4,91.6,36.4,91.7c-0.1-0.1-0.5-0.8-1.4-0.8c-0.1-0.1-0.2-0.2-0.3-0.2l0-1
			c0-0.1,0-1.4-1.2-1.8c0-0.1-0.1-0.2-0.1-0.3c0-0.3,0.1-0.9,0.3-2l0,0c0,0,0.2-3,0.9-6l0-0.1l-0.7-2.5l-1.5-0.3l-1.7,1.7v0.3
			l-0.2,1.1c0,0-0.1,0.6-0.1,2.4l0,0c0,0,0.1,1-0.2,2.3c0,0.1-0.3,1-0.3,2c-0.3,0.3-0.7,1-0.7,1.9c-0.4,0.2-1,0.5-1.5,1.1
			c-0.1,0.1-0.9,0.6-1.7,0.4c-0.3-0.1-1.5-0.5-2.5-0.1c-0.5,0.2-0.8,0.6-1,1.2l0,0c-0.1,0.3-0.1,0.5-0.1,0.8
			c-0.4,0.6-0.4,1.2-0.4,1.2l0,1.5l0.6-1.3c0,0,0,0,0,0c0.2,0.4,0.6,0.6,1,0.7c0,0,0.1,0,0.2,0l0,1.4l0.6-1.3c0,0,0,0,0,0
			c0.4,0.3,1,0.7,1.7,0.7c0.1,0,0.5,0,0.9-0.2c0,0.1,0,0.2,0,0.2l0,1.5l0.6-1.3c0.3,0.3,0.7,0.4,1.2,0.5c0,0,0.2,0,0.3,0
			c0.6,0,1.6-0.1,2.3-1c0.6-0.7,1.2-1,1.4-1.1c0.3,0.3,0.7,0.8,1.4,0.8c0.4,0,1.5,0,2-0.6c0.2,0,0.3,0.1,0.3,0.1l0.6,1.3l0-1.4
			C37.4,93.3,37.4,92.2,36.4,91.7z M33.7,90.4c-0.1-0.1-0.2-0.2-0.3-0.3c0.1-0.1,0.1-0.3,0.2-0.4c0.3,0,0.5,0.1,0.5,0.2l0.3,0.7
			C34.3,90.4,34,90.4,33.7,90.4C33.8,90.4,33.7,90.4,33.7,90.4z"/>
		<path class="st0" d="M52.9,92.2c0-0.3,0-0.6-0.1-0.8l0,0c-0.2-0.6-0.5-1-1-1.2c-1-0.5-2.3,0-2.5,0.1c-0.8,0.2-1.6-0.3-1.7-0.4
			c-0.6-0.6-1.1-1-1.5-1.1c0-0.9-0.5-1.6-0.7-1.9c0-1-0.3-1.9-0.3-2c-0.3-1.3-0.2-2.3-0.2-2.3l0,0c0-1.7-0.1-2.3-0.1-2.4L44.5,79
			v-0.3l-1.7-1.7l-1.5,0.3l-0.7,2.5l0,0.1c0.7,3,0.9,6,0.9,6l0,0c0.2,1.1,0.2,1.7,0.3,2c0,0.1-0.1,0.2-0.1,0.3
			c-1.3,0.4-1.2,1.7-1.2,1.8l0,1c-0.1,0.1-0.2,0.2-0.3,0.2c-0.9,0-1.3,0.7-1.4,0.7c0,0,0,0.1,0,0.1c-1,0.5-1,1.6-1,1.7l0,1.4
			l0.6-1.3c0,0,0.1-0.1,0.3-0.1c0.5,0.7,1.7,0.7,2,0.6c0.7,0,1.2-0.4,1.4-0.8c0.2,0.1,0.8,0.4,1.4,1.1c0.7,0.9,1.7,1,2.3,1
			c0.2,0,0.3,0,0.3,0c0.5-0.1,0.9-0.2,1.2-0.5l0.6,1.3l0-1.5c0,0,0-0.1,0-0.2c0.4,0.2,0.8,0.2,0.9,0.2c0.7,0,1.3-0.4,1.7-0.7
			c0,0,0,0,0,0l0.6,1.3l0-1.4c0.1,0,0.2,0,0.2,0c0.4-0.1,0.8-0.3,1-0.7c0,0,0,0,0,0l0.6,1.3l0-1.5C53.3,93.4,53.3,92.8,52.9,92.2z
			 M41.1,90.1c0-0.1,0.2-0.1,0.5-0.2c0.1,0.2,0.1,0.3,0.2,0.4c-0.1,0.1-0.2,0.2-0.3,0.3c-0.3,0-0.5,0-0.7,0.1L41.1,90.1z"/>
	</g>
	<g>
		<path class="st1" d="M35.8,93c0,0,1-0.1,1.3,0.4c0,0,0-1.2-1.1-1.5c0,0-0.4,0.1-0.4,0.5C35.5,92.7,35.8,93,35.8,93z"/>
		<path class="st0" d="M36,91.8c1.2,0.3,1.2,1.6,1.2,1.6l0,0.4L37,93.4c-0.1-0.2-0.5-0.3-0.8-0.3c-0.2,0-0.4,0-0.4,0l-0.1,0
			c0,0-0.3-0.3-0.2-0.8c0-0.3,0.4-0.6,0.4-0.6L36,91.8z M36.2,92.9c0.3,0,0.5,0.1,0.7,0.2c-0.1-0.3-0.3-0.8-0.9-1
			c0,0-0.3,0.1-0.4,0.4c-0.1,0.4,0.3,0.5,0.3,0.5C36,92.9,36.1,92.9,36.2,92.9z"/>
		<path class="st1" d="M35.8,93"/>
		<path class="st1" d="M36,91.9"/>
	</g>
	<g>
		<path class="st1" d="M33.2,89.3c0,0,1-0.1,1.3,0.4c0,0,0-1.2-1.1-1.5c0,0-0.4,0.1-0.4,0.5C32.9,89,33.2,89.3,33.2,89.3z"/>
		<path class="st0" d="M33.3,88.1c1.2,0.3,1.2,1.6,1.2,1.6l0,0.4l-0.2-0.4c-0.1-0.2-0.5-0.3-0.8-0.3c-0.2,0-0.4,0-0.4,0l-0.1,0
			c0,0-0.3-0.3-0.2-0.8c0-0.3,0.4-0.6,0.4-0.6L33.3,88.1z M33.6,89.2c0.3,0,0.5,0.1,0.7,0.2c-0.1-0.3-0.3-0.8-0.9-1
			c0,0-0.3,0.1-0.4,0.4c-0.1,0.4,0.3,0.5,0.3,0.5C33.4,89.2,33.5,89.2,33.6,89.2z"/>
		<path class="st1" d="M33.2,89.3"/>
		<path class="st1" d="M33.3,88.2"/>
	</g>
	<path class="st0" d="M36.1,91.7c0,0-0.5-0.7-1.3-0.6c-0.2-0.2-0.6-0.6-1.3-0.5c-0.2-0.2-0.4-0.4-0.5-0.5c0.2-0.3,0.6-1.3,0-2.4
		c0-0.2,0.1-0.8,0.3-2l0,0c0,0,0.2-3,0.9-6l0-0.1l-0.6-2.3l-1.2-0.3l-1.5,1.6v0.3l-0.2,1.1c0,0-0.1,0.6-0.1,2.3l0,0
		c0,0,0.1,1-0.2,2.4c0,0.1-0.3,1-0.3,2.1c-0.2,0.2-0.8,1-0.7,2c-0.3,0.1-0.9,0.3-1.6,1.1c-0.1,0.1-1,0.7-2,0.4
		c-0.2-0.1-1.4-0.5-2.3-0.1c-0.4,0.2-0.7,0.6-0.9,1l0,0c-0.2,0.8-0.1,2.3,1.1,2.6c0.1,0,0.3,0.1,0.8-0.1c0.3,0.3,1,0.8,1.8,0.8
		c0.1,0,0.7,0,1.3-0.4c0.2,0.5,0.6,1,1.5,1.1c0,0,0.1,0,0.3,0c0.5,0,1.5-0.1,2.1-0.9c0.7-0.8,1.4-1.2,1.5-1.2l0.2,0
		c0.2,0.3,0.6,0.8,1.3,0.8c0.2,0,1.4,0.1,1.9-0.6C36.5,92.8,36.5,92.3,36.1,91.7z"/>
	<path class="st2" d="M31.2,78.8L31,79.9c0,0-0.1,0.6-0.1,2.3c0,0,0.1,1.1-0.2,2.5c0,0-0.3,1-0.3,2.1c0,0-0.9,0.9-0.7,2.1
		c0,0-0.5-0.2-1.7,1.1c0,0-1.1,0.8-2.2,0.5c0,0-2.3-1-2.9,0.8c0,0-0.4,2,0.9,2.2c0,0,0.3,0.1,0.8-0.2c0,0,0.8,0.9,1.7,0.9
		c0,0,0.7,0.1,1.5-0.7c0,0-0.1,1.2,1.3,1.4c0,0,1.4,0.2,2.1-0.8s1.7-1.3,1.7-1.3l0.4-0.1c0,0,0.4,0.9,1.2,0.8c0,0,2.5,0.2,1.5-1.6
		c0,0-0.4-0.6-1.1-0.4c0,0-0.3-0.7-1.2-0.6c0,0-0.7-0.5-0.7-0.9c0,0,0.7-1,0.1-2.3c0,0,0-0.6,0.3-2.1c0,0,0.2-3,0.9-6.1l-0.6-2.1
		l-0.9-0.2l-1.4,1.4V78.8z"/>
	<g>
		<path class="st0" d="M24.5,93.3c-0.3-0.9-0.2-1.6,0.1-2c0.6-0.7,1.9-0.5,1.9-0.5l0,0.2c0,0-1.2-0.2-1.7,0.4
			c-0.3,0.4-0.3,1-0.1,1.8L24.5,93.3z"/>
	</g>
	<g>
		<path class="st0" d="M27.6,93.7c0-0.1-0.1-1.3,0.9-2l0,0c0,0,0.7-0.2,1.3-0.8c0,0,1.3-1.1,2.5,0.4l-0.2,0.2C31,90.1,30,91,30,91
			c-0.6,0.6-1.3,0.8-1.4,0.9c-0.9,0.6-0.8,1.8-0.8,1.8L27.6,93.7z"/>
	</g>
	<path class="st0" d="M29.7,88.9c0,0,0.1-0.1,0.3-0.1c0.1,0,0.2,0,0.4,0c0.1,0,0.1,0,0.2,0c0.1,0,0.1,0,0.2,0.1
		c0.1,0,0.1,0.1,0.2,0.1c0.1,0,0.1,0.1,0.2,0.1c0.1,0,0.1,0.1,0.1,0.2c0,0,0.1,0.1,0.1,0.2c0,0,0,0.1,0.1,0.1c0,0,0,0.1,0,0.1
		c0,0.1,0,0.1,0,0.1s0,0-0.1-0.1c0,0,0-0.1-0.1-0.1c0,0-0.1-0.1-0.1-0.1c0,0-0.1-0.1-0.1-0.1c0,0-0.1-0.1-0.1-0.1
		c0,0-0.1-0.1-0.1-0.1c-0.1,0-0.1-0.1-0.2-0.1c-0.1-0.1-0.2-0.1-0.4-0.1c-0.1,0-0.2-0.1-0.3-0.1C29.9,88.9,29.7,88.9,29.7,88.9z"/>
	<g>
		<path class="st1" d="M29,94.3c0,0-1.2-0.1-1.5,0.4c0,0,0-1.4,1.3-1.7c0,0,0.5,0.2,0.5,0.5C29.3,93.9,29,94.3,29,94.3z"/>
		<path class="st0" d="M28.9,92.8c0,0,0.4,0.3,0.5,0.7c0.1,0.6-0.3,0.9-0.3,0.9l-0.2,0c0,0-0.2,0-0.5,0c-0.3,0-0.8,0.1-0.9,0.4
			l-0.2,0.4l0-0.5c0,0,0-1.5,1.4-1.8L28.9,92.8z M28.9,94.1c0,0,0.4-0.1,0.3-0.6c-0.1-0.3-0.4-0.4-0.4-0.4c-0.7,0.3-1,0.9-1,1.2
			c0.2-0.1,0.5-0.2,0.8-0.2C28.7,94.1,28.8,94.1,28.9,94.1z"/>
		<path class="st1" d="M29,94.3"/>
		<path class="st1" d="M28.8,93"/>
	</g>
	<g>
		<path class="st1" d="M25.7,93.5c0,0-1.2-0.1-1.5,0.4c0,0,0-1.4,1.3-1.7c0,0,0.5,0.2,0.5,0.5C26,93.1,25.7,93.5,25.7,93.5z"/>
		<path class="st0" d="M25.7,92c0,0,0.4,0.3,0.5,0.7c0.1,0.6-0.3,0.9-0.3,0.9l-0.2,0c0,0-0.2,0-0.5,0c-0.3,0-0.8,0.1-0.9,0.4
			l-0.2,0.4l0-0.5c0,0,0-1.5,1.4-1.8L25.7,92z M25.6,93.3c0,0,0.4-0.1,0.3-0.6c-0.1-0.3-0.4-0.4-0.4-0.4c-0.7,0.3-1,0.9-1,1.2
			c0.2-0.1,0.5-0.2,0.8-0.2C25.4,93.3,25.5,93.3,25.6,93.3z"/>
		<path class="st1" d="M25.7,93.5"/>
		<path class="st1" d="M25.5,92.2"/>
	</g>
	<g>
		<path class="st1" d="M23.8,92.7c0,0-1.2-0.1-1.5,0.4c0,0,0-1.4,1.3-1.7c0,0,0.5,0.2,0.5,0.5C24.1,92.4,23.8,92.7,23.8,92.7z"/>
		<path class="st0" d="M23.7,91.3c0,0,0.4,0.3,0.5,0.7c0.1,0.6-0.3,0.9-0.3,0.9l-0.2,0c0,0-0.2,0-0.5,0c-0.3,0-0.8,0.1-0.9,0.4
			l-0.2,0.4l0-0.5c0,0,0-1.5,1.4-1.8L23.7,91.3z M23.6,92.6c0,0,0.4-0.1,0.3-0.6c-0.1-0.3-0.4-0.4-0.4-0.4c-0.7,0.3-1,0.9-1,1.2
			c0.2-0.1,0.5-0.2,0.8-0.2C23.4,92.6,23.5,92.6,23.6,92.6z"/>
		<path class="st1" d="M23.8,92.7"/>
		<path class="st1" d="M23.6,91.4"/>
	</g>
	<g>
		<path class="st1" d="M39.4,93.3c0,0-1-0.1-1.3,0.4c0,0,0-1.2,1.1-1.5c0,0,0.4,0.1,0.4,0.5C39.6,93,39.4,93.3,39.4,93.3z"/>
		<path class="st0" d="M39.3,92.1c0,0,0.4,0.3,0.4,0.6c0.1,0.5-0.2,0.8-0.2,0.8l-0.1,0c0,0-0.2,0-0.4,0c-0.2,0-0.6,0.1-0.8,0.3
			L38,94.1l0-0.4c0,0,0-1.2,1.2-1.6L39.3,92.1z M39.3,93.2c0,0,0.3-0.1,0.3-0.5c-0.1-0.3-0.4-0.4-0.4-0.4c-0.6,0.2-0.8,0.7-0.9,1
			c0.2-0.1,0.4-0.2,0.7-0.2C39.1,93.2,39.2,93.2,39.3,93.2z"/>
		<path class="st1" d="M39.4,93.3"/>
		<path class="st1" d="M39.2,92.2"/>
	</g>
	<g>
		<path class="st1" d="M42,89.6c0,0-1-0.1-1.3,0.4c0,0,0-1.2,1.1-1.5c0,0,0.4,0.1,0.4,0.5C42.3,89.3,42,89.6,42,89.6z"/>
		<path class="st0" d="M42,88.3c0,0,0.4,0.3,0.4,0.6c0.1,0.5-0.2,0.8-0.2,0.8l-0.1,0c0,0-0.2,0-0.4,0c-0.2,0-0.6,0.1-0.8,0.3
			l-0.2,0.4l0-0.4c0,0,0-1.2,1.2-1.6L42,88.3z M41.9,89.5c0,0,0.3-0.1,0.3-0.5c-0.1-0.3-0.4-0.4-0.4-0.4c-0.6,0.2-0.8,0.7-0.9,1
			c0.2-0.1,0.4-0.2,0.7-0.2C41.7,89.5,41.8,89.5,41.9,89.5z"/>
		<path class="st1" d="M42,89.6"/>
		<path class="st1" d="M41.9,88.5"/>
	</g>
	<path class="st0" d="M39,92c0,0,0.5-0.7,1.3-0.6c0.2-0.2,0.6-0.6,1.3-0.5c0.2-0.2,0.4-0.4,0.5-0.5c-0.2-0.3-0.6-1.3,0-2.4
		c0-0.2-0.1-0.8-0.3-2l0,0c0,0-0.2-3-0.9-6l0-0.1l0.6-2.3l1.2-0.3l1.5,1.6V79l0.2,1.1c0,0,0.1,0.6,0.1,2.3l0,0c0,0-0.1,1,0.2,2.4
		c0,0.1,0.3,1,0.3,2.1c0.2,0.2,0.8,1,0.7,2c0.3,0.1,0.9,0.3,1.6,1.1c0.1,0.1,1,0.7,2,0.4c0.2-0.1,1.4-0.5,2.3-0.1
		c0.4,0.2,0.7,0.6,0.9,1l0,0c0.2,0.8,0.1,2.3-1.1,2.6c-0.1,0-0.3,0.1-0.8-0.1c-0.3,0.3-1,0.8-1.8,0.8c-0.1,0-0.7,0-1.3-0.4
		c-0.2,0.5-0.6,1-1.5,1.1c0,0-0.1,0-0.3,0c-0.5,0-1.5-0.1-2.1-0.9c-0.7-0.8-1.4-1.2-1.5-1.2l-0.2,0c-0.2,0.3-0.6,0.8-1.3,0.8
		c-0.2,0-1.4,0.1-1.9-0.6C38.7,93.1,38.7,92.6,39,92z"/>
	<path class="st2" d="M44,79.1l0.2,1.2c0,0,0.1,0.6,0.1,2.3c0,0-0.1,1.1,0.2,2.5c0,0,0.3,1,0.3,2.1c0,0,0.9,0.9,0.7,2.1
		c0,0,0.5-0.2,1.7,1.1c0,0,1.1,0.8,2.2,0.5c0,0,2.3-1,2.9,0.8c0,0,0.4,2-0.9,2.2c0,0-0.3,0.1-0.8-0.2c0,0-0.8,0.9-1.7,0.9
		c0,0-0.7,0.1-1.5-0.7c0,0,0.1,1.2-1.3,1.4c0,0-1.4,0.2-2.1-0.8S42.3,93,42.3,93L41.9,93c0,0-0.4,0.9-1.2,0.8c0,0-2.5,0.2-1.5-1.6
		c0,0,0.4-0.6,1.1-0.4c0,0,0.3-0.7,1.2-0.6c0,0,0.7-0.5,0.7-0.9c0,0-0.7-1-0.1-2.3c0,0,0-0.6-0.3-2.1c0,0-0.2-3-0.9-6.1l0.6-2.1
		l0.9-0.2l1.4,1.4V79.1z"/>
	<g>
		<path class="st0" d="M50.7,93.6l-0.2-0.1c0.3-0.8,0.2-1.4-0.1-1.8c-0.5-0.6-1.7-0.4-1.7-0.4l0-0.2c0.1,0,1.3-0.2,1.9,0.5
			C51,92.1,51,92.7,50.7,93.6z"/>
	</g>
	<g>
		<path class="st0" d="M47.6,94l-0.2,0c0,0,0.1-1.2-0.8-1.8c-0.1,0-0.8-0.3-1.4-0.9c0,0-1.1-0.9-2.2,0.3l-0.2-0.2
			c1.3-1.4,2.5-0.4,2.5-0.4c0.6,0.6,1.3,0.8,1.3,0.8l0,0C47.8,92.7,47.6,93.9,47.6,94z"/>
	</g>
	<path class="st0" d="M45.5,89.2c0,0-0.1-0.1-0.3-0.1c-0.1,0-0.2,0-0.4,0c-0.1,0-0.1,0-0.2,0c-0.1,0-0.1,0-0.2,0.1
		c-0.1,0-0.1,0.1-0.2,0.1c-0.1,0-0.1,0.1-0.2,0.1c-0.1,0-0.1,0.1-0.1,0.2c0,0-0.1,0.1-0.1,0.2c0,0,0,0.1-0.1,0.1c0,0,0,0.1,0,0.1
		c0,0.1,0,0.1,0,0.1s0,0,0.1-0.1c0,0,0-0.1,0.1-0.1c0,0,0.1-0.1,0.1-0.1c0,0,0.1-0.1,0.1-0.1c0,0,0.1-0.1,0.1-0.1
		c0,0,0.1-0.1,0.1-0.1c0.1,0,0.1-0.1,0.2-0.1c0.1-0.1,0.2-0.1,0.4-0.1c0.1,0,0.2-0.1,0.3-0.1C45.3,89.2,45.5,89.2,45.5,89.2z"/>
	<g>
		<path class="st1" d="M46.2,94.5c0,0,1.2-0.1,1.5,0.4c0,0,0-1.4-1.3-1.7c0,0-0.5,0.2-0.5,0.5C45.9,94.2,46.2,94.5,46.2,94.5z"/>
		<path class="st0" d="M46.4,93.1c1.4,0.4,1.4,1.8,1.4,1.8l0,0.5L47.5,95c-0.1-0.3-0.6-0.3-0.9-0.4c-0.3,0-0.5,0-0.5,0l-0.2,0
			c0,0-0.3-0.3-0.3-0.9c0.1-0.4,0.5-0.7,0.5-0.7L46.4,93.1z M46.7,94.4c0.4,0,0.6,0.1,0.8,0.2c-0.1-0.4-0.3-1-1-1.2
			c0,0-0.4,0.1-0.4,0.4c-0.1,0.5,0.3,0.6,0.3,0.6C46.4,94.4,46.5,94.4,46.7,94.4z"/>
		<path class="st1" d="M46.2,94.5"/>
		<path class="st1" d="M46.4,93.2"/>
	</g>
	<g>
		<path class="st1" d="M49.5,93.7c0,0,1.2-0.1,1.5,0.4c0,0,0-1.4-1.3-1.7c0,0-0.5,0.2-0.5,0.5C49.2,93.4,49.5,93.7,49.5,93.7z"/>
		<path class="st0" d="M49.7,92.3c1.4,0.4,1.4,1.8,1.4,1.8l0,0.5l-0.2-0.4c-0.1-0.3-0.6-0.3-0.9-0.4c-0.3,0-0.5,0-0.5,0l-0.2,0
			c0,0-0.3-0.3-0.3-0.9c0.1-0.4,0.5-0.7,0.5-0.7L49.7,92.3z M50,93.6c0.4,0,0.6,0.1,0.8,0.2c-0.1-0.4-0.3-1-1-1.2
			c0,0-0.4,0.1-0.4,0.4c-0.1,0.4,0.3,0.6,0.3,0.6C49.7,93.6,49.8,93.6,50,93.6z"/>
		<path class="st1" d="M49.5,93.7"/>
		<path class="st1" d="M49.6,92.4"/>
	</g>
	<g>
		<path class="st1" d="M51.4,93c0,0,1.2-0.1,1.5,0.4c0,0,0-1.4-1.3-1.7c0,0-0.5,0.2-0.5,0.5C51.1,92.7,51.4,93,51.4,93z"/>
		<path class="st0" d="M51.6,91.6C53,92,53,93.4,53,93.5l0,0.5l-0.2-0.4c-0.1-0.3-0.6-0.3-0.9-0.4c-0.3,0-0.5,0-0.5,0l-0.2,0
			c0,0-0.3-0.3-0.3-0.9c0.1-0.4,0.5-0.7,0.5-0.7L51.6,91.6z M51.9,92.9c0.4,0,0.6,0.1,0.8,0.2c-0.1-0.4-0.3-1-1-1.2
			c0,0-0.4,0.1-0.4,0.4c-0.1,0.4,0.3,0.6,0.3,0.6C51.6,92.9,51.8,92.9,51.9,92.9z"/>
		<path class="st1" d="M51.4,93"/>
		<path class="st1" d="M51.6,91.7"/>
	</g>
	<g>
		<path class="st0" d="M52.3,65c0,0-0.8-2.9-2.6-4.7c0,0,0.3-0.1,0.4-1.2c0,0,1.5,0,1.3-2.1c0,0,1.1-0.4,0.7-2.3
			c0,0,1.1-1.1,0.6-2.5c0,0-1.3-1.9-4.3-2.9c0,0-0.2-3.9,0.4-5.4c0,0,1.3-4.9-0.9-8.3c0,0-1-1.8-4.1-2.2c1.2-1.8,1.3-4.5,1.4-8.1
			l0-0.7c0.1-3.3-0.9-6-2.8-8c-1.9-1.9-4.6-3-7.7-3c-3.4,0-4.8,2.7-6.3,5.7c-0.2,0.4-0.4,0.7-0.6,1.1c-1,1.9-2.3,6.7-2.3,9
			c0,2,0.3,3.6,0.9,4.7L24,35.3c0,0-2.8,1.2-2.7,4.8l0,4.6c0,0-2.7,0.1-3,2.5c0,0-2.2,1.1-1.2,3.3c0,0-1.5,4.3,1,3.5
			c0,0,0.2-0.3,0.3-0.2c0.1,0.2-0.2,1.2,1.9,1.4l-0.1,0.5c0,0-0.3,2.4,0.9,4.2c0,0,0,0.8,1.9,1.1c0,0,0.3,1-0.6,2.2
			c-0.8,1-1.5,2.5-1.6,5c-0.1,1.4,0.3,3.7,2,6.4c0,0,2.2,5,10.4,6c0,0,2.9,0.7,7.2,0C44.6,80,55.9,75.5,52.3,65z"/>
		<path class="st3" d="M48.8,55c0,0-0.4-2-0.7-3.1c0,0-0.3-2.4-0.3-3.4c0,0,0-3.9,0.4-4.6c0,0,0.8-2.5,0.1-5.5c0,0-0.5-2-0.9-2.5
			c0,0-0.6-1.3-1.6-1.5c-0.6-0.3-1.6-0.6-2.6-0.8c1.5-1.8,1.5-4.7,1.6-9c0.2-7-4.5-10.5-10-10.5c-3.6,0-4.7,3.2-6.5,6.5
			c-1,1.8-2.3,6.5-2.3,8.8c0,2.3,0.4,4,1.2,5.1c-1.3,0.6-2.5,1.2-3.2,1.5c0,0-1.8,0.6-2,3.3l-0.2,5.6c0,0,2.1,0,3.6,1.7
			c0,0,1,1.2,1.5,2.1c0,0,0.3,0.6,0.7,1.2c0.2,0.3,0.8,0.6,0.8,0.6l3.2,1c0,0,1.1-0.7,1.5-0.9c2.3-1.2,6.2-2.7,9.5-2.5l-0.2-3.7
			c0,0,0.2-2.2,0.4-4.4c0,1.6-0.1,5.8,0.2,7.9c0,0,0.4,5.9,0.4,6.6c0,0-0.4,0-0.5-0.8l-0.1-1.5c0,0-3,0.3-4.6,1.8
			c0,0-1.6,1.3-2.4,1.9c0,0-2,2-2.7,2.5c0,0,3.5,1.3,7.6,1.2c0,0,4.8,0.3,6.1-0.5C46.9,59,49.1,58.1,48.8,55z"/>
		<path class="st3" d="M31.1,51.7l-3.5-1.1c0,0-0.9-1.1-1.4-2.2c0,0-1.5-3.4-4.8-3.2c0,0-2.3,0-2.8,1.9c0,0,2.2-0.9,5.6,0.3
			c0,0,0.2,0.3-0.3,0.3c0,0-7.3-2.1-6.6,2.5c0,0,2.4-3,7.1-1.1c0,0,0.3,0.4-0.2,0.2c0,0-3.6-1.2-6.2,0.8c0,0-1.8,2.1-0.8,3.7
			c0.1,0.1,0.3,0.1,0.6,0c0.1,0,0.2-0.1,0.3-0.3c0.4-1,1.9-4.2,6.5-2.6c0,0,0.1,0.3-0.3,0.2c0,0-3.6-1.4-5.7,2c0,0-0.1,1.8,1.8,1.3
			c0,0,1-0.2,1.5-0.7c0,0,1-1.1,2.8-0.7c0,0,0.9,0.6,1.9,0.4C26.8,53.4,28.5,53.6,31.1,51.7z"/>
		<path class="st3" d="M42.6,48.3c0,0-4.8,0.1-8.6,2.3c0,0-4.1,2.7-5.9,3c0,0-2.6,0.8-4.3-0.2c0,0-0.7-0.1-1.9,0.9l-1.1,0.5
			c0,0-0.5,4.8,2.1,5.5c0,0,2.7,0.5,6.7-0.9c0,0,2.1-0.5,5-3.1c0,0,3.9-4.5,8.2-4.4L42.6,48.3z"/>
		<path class="st3" d="M49.2,57.2c0,0-0.4,1.5-2,2.2c0,0,0.5,0.9,1.8,0.8c0,0,0.9-0.3,0.7-1.7C49.7,58.5,49.5,57.7,49.2,57.2z"/>
		<path class="st3" d="M49.3,56.8c0,0,0.8,0.9,0.8,1.9c0,0,1.2-0.4,0.9-1.6c0,0-0.5-1.8-1.8-2.7C49.3,54.4,49.5,56.2,49.3,56.8z"/>
		<path class="st3" d="M51.4,56.6c0,0-1-2.3-2.2-2.8c0,0-0.4-1.4-0.4-1.6c0,0,2.7,1.1,3.2,3.2C51.9,55.3,52,56.2,51.4,56.6z"/>
		<path class="st4" d="M52,54.3"/>
		<path class="st3" d="M52,54.2c0,0-1-1.8-3.3-2.5c0,0-0.3-1.2-0.3-2.1c0,0,1.3,0.2,3.4,2.1C51.9,51.8,53.1,53.2,52,54.2z"/>
		<path class="st5" d="M51.9,54c0.1,0.1,0.1,0.2,0.1,0.2c1.1-1.1-0.1-2.4-0.1-2.4c-2.1-2-3.4-2.1-3.4-2.1c0,0.2,0,0.5,0,0.7
			c0.6,0.2,1.5,0.8,2.8,2C51.4,52.4,52.1,53.2,51.9,54z"/>
		<path class="st5" d="M49.7,58.5c0,0-0.2-0.8-0.5-1.3c0,0-0.1,0.2-0.2,0.5c-0.1,0.1-0.1,0.2-0.2,0.3c0.2,0.5,0.4,1,0.4,1
			c0.1,0.5,0,0.9-0.1,1.2c0.1,0,0.6-0.3,0.7-1C49.8,59,49.8,58.8,49.7,58.5z"/>
		<path class="st3" d="M50.5,57.7c0,0-0.4-1.2-1.1-2.1c0,0.5,0,1-0.1,1.3c0,0,0.8,0.9,0.8,1.9c0,0,0.1,0,0.2-0.1
			C50.5,58.4,50.6,58.1,50.5,57.7z"/>
		<path class="st5" d="M51.1,57.1c0,0,0-0.1-0.1-0.2c-0.2-0.5-0.7-1.8-1.7-2.6c0,0,0,0.2,0,0.4c0,0.2,0,0.5,0,0.7
			c0.8,0.9,1.1,2.1,1.1,2.1c0.1,0.4,0,0.7-0.1,1C50.7,58.5,51.2,58,51.1,57.1z"/>
		<path class="st3" d="M51.4,55.8c-0.3-1.3-1.5-2.2-2.4-2.7c0.1,0.3,0.2,0.6,0.2,0.6c1,0.5,1.8,2,2.1,2.6
			C51.4,56.1,51.4,55.8,51.4,55.8z"/>
		<path class="st5" d="M51.9,55.3c-0.1-0.3-0.2-0.5-0.3-0.7c-0.8-1.6-2.9-2.4-2.9-2.4c0,0.1,0,0.2,0.1,0.4c0,0.2,0.1,0.4,0.2,0.6
			c0.8,0.5,2,1.4,2.4,2.7c0,0,0,0.2,0,0.5c0.1,0.1,0.1,0.2,0.1,0.2C52,56.2,51.9,55.3,51.9,55.3z"/>
		<path class="st3" d="M51.9,54c0.2-0.9-0.5-1.7-0.5-1.7c-1.3-1.2-2.3-1.7-2.8-2c0.1,0.7,0.2,1.3,0.2,1.3
			C50.6,52.3,51.6,53.6,51.9,54z"/>
		<path class="st3" d="M49.6,60.5c0,0-2,0.8-2.9-0.9c0,0-0.5,0.5-4,0.6c-3.5,0-7.2-0.7-7.2-0.7s-2.2-0.6-2.8-0.9
			c0,0-1.5,1.3-4.2,1.9c0,0-3.1,0.9-5.1,0.6c0,0,0,1.4-0.8,2.7c-0.9,1.3-1.3,2.9-1.2,4.6c0,0,0,6.4,7.4,10.7c0,0,14.5,4.9,22.2-5.6
			C51.1,73.6,54.7,68.8,49.6,60.5z"/>
		<path class="st0" d="M25.8,46.9l-0.3-6.7c0,0,0.8,5.3,0.6,7.1L25.8,46.9z"/>
		<path class="st0" d="M38.4,53.9c0,0,3.4,0.8,5.1,0.6l-0.4-0.5c0,0,0,0.2,0,0.2c-0.5,0-2.5-0.1-4.3-0.4
			C38.7,53.6,38.1,53.6,38.4,53.9z"/>
		<path class="st5" d="M34,24.3c0,0-0.5,0.3-1.3,0.1c0,0-0.6,0-1.9-1.2c0,0-1.8-1.9-3.4-0.9c0,0,1.2-0.4,1.3,0.1
			c0,0-0.2,1.8,0.3,3.1c0,0,0.2,0.5-0.1,0.8l-0.2,0.3c0,0,0.8-0.5,1.8-0.7c0,0,1.6-0.2,2.9,0.5l0.4,0.2c0,0-0.6-0.5-0.6-0.6
			c0,0,0.4-1,0.4-1.3C33.5,24.7,33.9,24.5,34,24.3z"/>
		<path class="st5" d="M41.3,21c0,0-0.9-0.5-2,0c0,0-0.8,0.4-1.5,1.3c0,0-1.2,1.3-1.9,1.5c0,0-0.6,0.2-1.3,0l0.5,0.3
			c0,0,0.3,1.4,0.5,1.8c0,0-0.1,0.2-0.3,0.3l-0.2,0.3c0,0,0.9-0.7,1.9-0.7c0,0,1.6-0.3,3.1,0.7l-0.4-0.4c0,0-0.2-0.2,0-0.5
			c0,0,0.6-1.2,0.4-3c0,0-0.2-0.9-0.3-1.2c0,0-0.3-0.5,0.3-0.5C40,20.9,40.5,20.8,41.3,21z"/>
		<path class="st6" d="M39.3,26c0,0,0.5-0.7,0.6-2.1c0,0,0-1.8-0.6-2.7c0,0-0.8,0.4-1.5,1.3c0,0-1.1,1.3-2.2,1.6h-0.3
			c0,0,0.1,1,0.5,1.9C35.8,26,37.2,25.3,39.3,26z"/>
		<path class="st2" d="M36.4,23.7c0.8-0.5,1.4-1.3,1.4-1.3c0.1-0.1,0.2-0.3,0.4-0.4c0.6,0.5,0.7,1.3,0.7,1.3
			c0.1,1.7-0.4,2.3-0.5,2.4c-0.6-0.1-1.2-0.1-1.6,0C36.4,25.2,36.4,24.2,36.4,23.7z"/>
		<path class="st6" d="M33.3,24.6c0,0-1.3,0.3-2.8-1.5c0,0-0.7-0.7-1.5-0.8c0,0-0.6,2.2,0.4,3.7c0,0,1.5-0.6,3.5,0
			C32.9,26,33.2,25.3,33.3,24.6z"/>
		<path class="st2" d="M30.3,22.9c0.1,0.1,0.2,0.2,0.2,0.2c0.1,0.1,0.2,0.2,0.2,0.3l0,0c0,0-0.4,1.2,0.2,1.7c0,0,0.4,0.4,0.9-0.1
			c0,0,0.2-0.2,0.2-0.6c0.2,0.1,0.3,0.1,0.5,0.2c0,0.2-0.1,1-0.4,1.2l0,0c-0.6-0.1-1.2-0.1-1.6,0C30.3,25.6,29.7,24.6,30.3,22.9z"/>
		<path class="st0" d="M32,24.4C32,24.8,31.8,25,31.8,25c-0.5,0.5-0.9,0.1-0.9,0.1c-0.6-0.5-0.2-1.7-0.2-1.7l0,0
			C31.2,23.9,31.7,24.2,32,24.4z"/>
		<path class="st0" d="M38.4,24.3c0,0,0.2-1.1-0.8-1.3c0,0-0.7,0.1-0.6,1.3c0,0,0,0.9,0.7,1C37.7,25.3,38.4,25.3,38.4,24.3z"/>
		<path class="st7" d="M34.6,32.2c-3.4-0.6-8.2-3.2-8.2-3.2s6.3-1.3,8.8,0c0,0,0.2,1.9,0.1,2.1C35.3,31.5,34.6,32.2,34.6,32.2z"/>
		<path class="st2" d="M34,26.6c0,0,1.3,0.6,1.3,1.4c0,0.6,0,2.3,0,2.3c-2.5-1.3-9-1.3-9-1.3C29.3,26.4,34,26.6,34,26.6z"/>
		<circle class="st6" cx="37.3" cy="25" r="0.3"/>
		<circle class="st6" cx="31.1" cy="25" r="0.3"/>
		<path class="st8" d="M44,33.8L44,33.8l0.9-1.1l-1.5,0.7c0,0.1-0.1,0.1-0.2,0.2c0,0,0,0,0,0C43.5,33.6,43.8,33.7,44,33.8z"/>
		<path class="st5" d="M43,23c0.2,5.3-0.3,8.2-1.7,12c0,0,1.4-0.9,1.9-1.5c1.5-1.8,1.5-4.7,1.6-9c0.2-6.6-3.9-10.1-9-10.5l-0.1,0.2
			C35.8,14.3,42.8,16.8,43,23z"/>
		<path class="st5" d="M40.8,59.5c0,0,4.8,0.3,6.1-0.5c0,0,2.2-0.9,1.9-4c0,0-0.4-2-0.7-3.1c0,0-0.3-2.4-0.3-3.4c0,0,0-3.9,0.4-4.6
			c0,0,0.8-2.5,0.1-5.5c0,0-0.5-2-0.9-2.5c0,0-0.6-1.3-1.6-1.5c-0.5-0.2-1.1-0.4-1.8-0.6c0,0,2.7,3.3,2.2,9c0,0-1.1,3.7-0.4,7
			c0,0,0.3,3.1,0.7,4.4c0,0,0.5,2.2-1.4,3.2c-2,1-10.9,0.2-10.9,0.2l0,0c-0.4,0.3-0.7,0.6-0.9,0.7C33.2,58.3,36.7,59.6,40.8,59.5z"
			/>
		<path class="st0" d="M34.1,18.1c0,0-2.7-1.3-4.9,0.1c0,0-6.2,1.5-3.2-2.2c0,0,2.3-1.4,4.5-1.1c0,0-4.8-3.3-1.3-3.7
			c0,0,2.6-0.3,3.9,1.2c1.2,1.4,1.7,0.5,1.7,0.5s-1.3-2.3,0-2.3c0,0,1.8,0.8,2.1,2.6c0,0,0.5-2.1,1.3-1.4c0,0-0.1,1.2-0.4,1.7
			S37.6,14,37.6,14l1.3,0.7C38.9,14.7,35.4,15.6,34.1,18.1z"/>
		<path class="st5" d="M32,31.5c0,0-2.2,2.3-0.5,4.4c0,0,0.6-0.1,0.5-0.4c0-0.1-0.5,0.1-0.6,0C31.2,34.8,31.2,33.1,32,31.5z"/>
		<path class="st5" d="M33.4,26.9c0,0-0.8,0.2-0.5,0.2S33.4,27.2,33.4,26.9z"/>
		<path class="st5" d="M51.1,73.6c0,0,3.6-4.8-1.5-13.1c0,0-1,0.4-1.9,0l0,0c7.8,14.4-10.4,19.2-12.6,19.7
			C40,80.5,46.7,79.6,51.1,73.6z"/>
		<path class="st5" d="M42.6,48.1l-0.2-3.7c0,0,0.2-2.2,0.4-4.4c0,0-0.9,2.4-1,8.2C42.1,48.1,42.3,48.1,42.6,48.1z"/>
		<path class="st5" d="M42.1,52.3c0,0,0.2,1.2-0.5,1.1l-2.3-0.1l-0.6,0.4c0,0,3.3,0.6,4.3,0.4l0-0.2l-0.1-1.8L42.1,52.3z"/>
		<path class="st5" d="M42.2,48.3c0,0,0.2,2.9,0.2,3.7l0.4,0l-0.2-3.7H42.2z"/>
		<path class="st5" d="M25.4,40.2c0,0-0.3,3.5-0.3,6l0.6,0.7C25.8,46.9,25.5,40.6,25.4,40.2z"/>
	</g>
</g>
</svg>
