<?xml version="1.0" encoding="utf-8"?>
<!-- Generator: Adobe Illustrator 19.2.0, SVG Export Plug-In . SVG Version: 6.00 Build 0)  -->
<svg version="1.1" id="Capa_1" xmlns="http://www.w3.org/2000/svg" xmlns:xlink="http://www.w3.org/1999/xlink" x="0px" y="0px"
	 viewBox="0 0 70 100" style="enable-background:new 0 0 70 100;" xml:space="preserve">
<style type="text/css">
	.st0{fill:#1A3044;}
	.st1{fill:#D02026;}
	.st2{fill:#A21E22;}
</style>
<g>
	<path class="st0" d="M12.6,75.5c0,12.5,10.3,22.7,23,22.7h0l0.6,0c5.9,0,11.3-2.4,15.2-6.8c3.8-4.2,5.9-9.9,5.9-15.9
		c0-8.1-4.2-22.7-10.5-31.7l-2.6-3.8l-6,5.4l3.5-3.6l-1.3-2.6L39,36.3l-0.3-0.2c-1.1-0.5-1.7-0.8-2.9-0.8c-4.7,0-8.6,2.9-13.1,9.7
		c-3.4,5.2-6.1,11.3-8.3,18.6C14.4,63.6,12.7,68.2,12.6,75.5z M47,57.6l0.6-0.6l0.1,0.1L47,57.6z M43.5,53.5l-7.7-5.4l0.4-0.4
		l0.2-0.2L43.5,53.5z"/>
	<path class="st1" d="M13.3,75.5c-0.2,12.2,10.1,22,22.4,22.1c0,0,0.6,0,0.6,0c12,0,20.4-10.1,20.4-22c0-7.7-4.1-22.3-10.4-31.3
		l-2.1-3.1l-6.9,6.2l11,9.3l0.5,0.6l-7.7,5.6l-0.2,0l6.1-6.1l-11.3-7.9l-1-0.7l1-1l5.2-5.5l-1.1-2.2l-1.3-2.7
		c-1.1-0.5-1.7-0.8-2.8-0.8c-3.6,0-7.4,1.7-12.5,9.4c-3.5,5.3-6.1,11.4-8.2,18.4C15,63.8,13.4,68.1,13.3,75.5z"/>
	<path class="st2" d="M56.7,75.5c0-7.7-4.1-22.3-10.4-31.3l-2.1-3.1l-1,0.9c5.5,8.2,9.3,20.5,9.3,32.5c0,0,1.9,16.7-14.5,22.9
		C49,96.6,56.7,86.9,56.7,75.5z"/>
</g>
</svg>
