<?xml version="1.0" encoding="utf-8"?>
<!-- Generator: Adobe Illustrator 19.2.0, SVG Export Plug-In . SVG Version: 6.00 Build 0)  -->
<svg version="1.1" id="Capa_1" xmlns="http://www.w3.org/2000/svg" xmlns:xlink="http://www.w3.org/1999/xlink" x="0px" y="0px"
	 viewBox="0 0 70 100" style="enable-background:new 0 0 70 100;" xml:space="preserve">
<style type="text/css">
	.st0{fill:#1A3044;}
	.st1{fill:#FFC40C;}
	.st2{fill:#D02026;}
	.st3{fill:#A21E22;}
	.st4{fill:#FFFFFF;}
	.st5{fill:#231F20;}
	.st6{fill:#D1D3D4;}
	.st7{fill:#F9A61A;}
</style>
<g>
	<path class="st0" d="M34.1,94.5c0.3-0.3,0.4-0.6,0.4-1c0-0.4-0.1-0.7-0.4-1c-0.3-0.3-0.6-0.4-1-0.4L29.5,92v-6.5
		c0-0.8-0.6-1.4-1.4-1.4c-0.8,0-1.4,0.6-1.4,1.4v7.1l-3.3,1.2c-0.7,0.3-1.1,1-0.8,1.8c0.3,0.7,1,1.1,1.8,0.8l3.5-1.2l3.4,1.8
		c0.2,0.1,0.4,0.2,0.6,0.2c0.5,0,1-0.3,1.2-0.7c0.2-0.3,0.2-0.7,0.1-1.1c-0.1-0.2-0.1-0.3-0.2-0.5l0.2,0
		C33.5,94.9,33.8,94.8,34.1,94.5z"/>
	<g>
		<path class="st1" d="M28.1,94.2L28.1,94.2c-0.5,0-0.9-0.4-0.9-0.9v-7.8c0-0.5,0.4-0.9,0.9-0.9h0c0.5,0,0.9,0.4,0.9,0.9v7.8
			C29,93.8,28.6,94.2,28.1,94.2z"/>
		<path class="st1" d="M23,95.4L23,95.4c-0.2-0.5,0.1-0.9,0.5-1.1l4.3-1.5c0.5-0.2,0.9,0.1,1.1,0.5l0,0c0.2,0.5-0.1,0.9-0.5,1.1
			L24.1,96C23.7,96.1,23.2,95.9,23,95.4z"/>
		<path class="st1" d="M27,93.2L27,93.2c0.2-0.4,0.8-0.6,1.2-0.4l4,2.1c0.4,0.2,0.6,0.8,0.4,1.2h0c-0.2,0.4-0.8,0.6-1.2,0.4l-4-2.1
			C27,94.2,26.8,93.7,27,93.2z"/>
		<path class="st1" d="M27.7,93.4L27.7,93.4c0-0.5,0.4-0.9,0.9-0.8l4.5,0.2c0.5,0,0.9,0.4,0.8,0.9l0,0c0,0.5-0.4,0.9-0.9,0.8
			l-4.5-0.2C28.1,94.2,27.7,93.8,27.7,93.4z"/>
	</g>
	<path class="st0" d="M46.2,94.5c0.3-0.3,0.4-0.6,0.4-1c0-0.4-0.1-0.7-0.4-1c-0.3-0.3-0.6-0.4-1-0.4L41.5,92v-6.5
		c0-0.8-0.6-1.4-1.4-1.4c-0.8,0-1.4,0.6-1.4,1.4v7.1l-3.3,1.2c-0.7,0.3-1.1,1-0.8,1.8c0.3,0.7,1,1.1,1.8,0.8l3.5-1.2l3.4,1.8
		c0.2,0.1,0.4,0.2,0.6,0.2c0.5,0,1-0.3,1.2-0.7c0.2-0.3,0.2-0.7,0.1-1.1c-0.1-0.2-0.1-0.3-0.2-0.5l0.2,0
		C45.5,94.9,45.9,94.8,46.2,94.5z"/>
	<g>
		<path class="st1" d="M40.2,94.2L40.2,94.2c-0.5,0-0.9-0.4-0.9-0.9v-7.8c0-0.5,0.4-0.9,0.9-0.9h0c0.5,0,0.9,0.4,0.9,0.9v7.8
			C41,93.8,40.6,94.2,40.2,94.2z"/>
		<path class="st1" d="M35.1,95.4L35.1,95.4c-0.2-0.5,0.1-0.9,0.5-1.1l4.3-1.5c0.5-0.2,0.9,0.1,1.1,0.5h0c0.2,0.5-0.1,0.9-0.5,1.1
			L36.2,96C35.7,96.1,35.2,95.9,35.1,95.4z"/>
		<path class="st1" d="M39.1,93.2L39.1,93.2c0.2-0.4,0.8-0.6,1.2-0.4l4,2.1c0.4,0.2,0.6,0.8,0.4,1.2l0,0c-0.2,0.4-0.8,0.6-1.2,0.4
			l-4-2.1C39,94.2,38.9,93.7,39.1,93.2z"/>
		<path class="st1" d="M39.8,93.4L39.8,93.4c0-0.5,0.4-0.9,0.9-0.8l4.5,0.2c0.5,0,0.9,0.4,0.8,0.9l0,0c0,0.5-0.4,0.9-0.9,0.8
			l-4.5-0.2C40.2,94.2,39.8,93.8,39.8,93.4z"/>
	</g>
	<path class="st0" d="M36.3,18.7c8.2,0.2,12.3,7.2,12.3,14.7l0.5,20.3c0.3,0.9,2.6,8.3,2.6,11c0,5.7-1.2,10.1-2.2,12.8
		c-1.1,2.9-2.2,4.4-2.3,4.5c-4.4,5.8-4.5,5.9-12.7,6.9l0,0h0c-8.1,0-14.7-6.6-14.7-14.7c0-0.1,0.5-11.4,3.5-25.8
		c0.8-4-0.1-8.1-0.9-11.4c-0.3-1.2-0.6-2.4-0.7-3.4c-0.5-3.2,0.5-6.5,2.4-9.3c2.5-3.5,5.3-5.3,10.3-5.5
		C34.4,18.7,35.6,18.6,36.3,18.7z"/>
	<path class="st2" d="M34.5,88.1L34.5,88.1c-7.8,0-14.1-6.4-14.1-14.1c0,0,0.5-11.2,3.5-25.7c1.2-5.7-1.1-11.3-1.6-15
		C21.1,25.4,27.6,19,35.4,19l0,0c7.8,0,12.7,6.3,12.7,14.1l0.5,20.4c0,0,2.6,8.1,2.6,10.9c0,10.9-4.4,17-4.4,17
		C42.5,87.1,42.5,87.1,34.5,88.1z"/>
	<path class="st3" d="M48.6,53.5l-0.5-19.9c0-7.4-3.6-14.2-12.6-14.6c-0.5,0-1,0-1.4,0.1c6.5,1.1,10.9,7.7,10.9,14.6l0.5,20.2
		c0,0,2.5,8,2.5,10.8c0,10.8-5.2,16.6-5.2,16.6c-4,5.4-6.7,4.8-12.2,6.2c0.6,0.1,1.9,0.5,3.7,0.5l0.4,0c8-0.9,7.7-0.7,11.9-6.4
		c0,0,4.5-6.2,4.5-17C51.2,61.8,48.6,53.5,48.6,53.5z"/>
	<g>
		<ellipse class="st4" cx="34.2" cy="39.4" rx="5.6" ry="4.7"/>
		<ellipse class="st5" cx="33.9" cy="39.4" rx="1.2" ry="1"/>
		<ellipse class="st6" cx="34.1" cy="39" rx="0.3" ry="0.3"/>
	</g>
	<g>
		<ellipse class="st4" cx="42.4" cy="39.4" rx="4.3" ry="4.7"/>
		<ellipse class="st5" cx="42.2" cy="39.4" rx="1" ry="1"/>
		<ellipse class="st6" cx="42.4" cy="39" rx="0.3" ry="0.3"/>
	</g>
	<path class="st7" d="M36.7,53.5c1-3.5,7.3-6.4,7.3-6.4s-5,0.1-7.3,1.4V53.5z"/>
	<path class="st1" d="M36.7,44.8v3.7c2.4-1.3,7.3-1.4,7.3-1.4C41.2,44.6,36.7,44.8,36.7,44.8z"/>
	<ellipse class="st2" cx="33.6" cy="49.6" rx="6.1" ry="6.6"/>
	<path class="st3" d="M33.6,43c-0.2,0-0.3,0-0.5,0c3.1,0.3,5.6,3.1,5.6,6.6c0,3.5-2.5,6.3-5.6,6.6c0.2,0,0.3,0,0.5,0
		c3.3,0,6.1-3,6.1-6.6C39.7,45.9,37,43,33.6,43z"/>
	<path class="st0" d="M27.1,56.4c0,0-1.4,1.5-2.4,6.3c0,0-1.3,4.5-1.1,7.4c0,0,1.5-0.1,3,2.4c0,0,0.5,2.1,1.9,2.3
		c0,0,1.4,0.1,1.3,1.9c0,0-0.5,1-1.2,1.4c0,0,2.1,0.2,1.4,2.1c0,0-0.4,1.5-2.2,1L27,80.9c0,0-1.1,1.2-2.8,0.4c0,0,0.1,0.5-1.3,0.4
		c0,0-3.6-0.2-4.4-5.2c0,0-0.7-3.2,1.6-5.3c0,0,0.1-3.6,0.8-5.7c0,0,1.9-6.8,3.2-8.5c0,0,2.5-4,3.5-3.3
		C27.6,53.7,28.3,54.6,27.1,56.4z"/>
	<path class="st3" d="M23.5,71.7c-1.2-1.3-0.7-5.1-0.7-5.1c0-1.9,0.8-3.9,0.8-3.9l1-2.8c0.4-1.7,2.2-4.4,2.2-4.4
		c1.5-1.8-0.3-1.3-0.3-1.3s1.1-1.2,1.4-0.1c0,0,0.1,0.9-0.6,1.7c0,0-1.6,2-2.2,4.1c0,0-1.7,4.6-1.9,7.2c0,0-0.3,2.9,0.4,4.2l0-0.7
		l0,0C24,72,23.5,71.7,23.5,71.7z"/>
	<path class="st3" d="M24.1,76.9c1.1,2.2,3.7,2.5,3.7,2.5c1.3,0,1-0.8,1-0.8s1.2,0.3,0.6,1.5c0,0-0.6,1.2-2.2,0.4
		c0,0-2.3-0.9-3.1-2.7c0,0,0,0.1,0,0.2l0,0C23.8,77.1,24.1,76.9,24.1,76.9z"/>
	<path class="st3" d="M21.7,78.1c2.3,2.4,3.9,1.9,3.9,1.9l0,0c0.3,0.2,0.5,0.4,0.9,0.6l0,0.2c0,0-2.1,1.2-4.5-1.8c0,0,0,0.1,0,0.2
		C21.6,78.7,21.7,78.1,21.7,78.1z"/>
	<path class="st3" d="M25.8,75c0.4,1.2,1.5,1.7,1.5,1.7c1.4,0.5,1.7-0.8,1.7-0.8l0,0c0.2,0.3,0.3,0.7-0.1,1.3c0,0-1.4,1.5-2.8-1
		c0,0-0.4-0.6,0,0.7C25.4,75.9,25.8,75,25.8,75z"/>
	<path class="st3" d="M19.7,72.2c-1,2.8,0,5,0,5c0.8,1.9,2.5,2.5,2.5,2.5l0,0c0.2,0.4,0.7,0.9,1.6,1.4c0,0-1.1,0.4-2.9-0.9
		C21,80.2,17.2,77.1,19.7,72.2z"/>
	<path class="st2" d="M19.7,77.2c0,0-1-2.2,0-5c0.1-0.3,0.3-0.5,0.4-0.8l0.2,0.5l0.3,0c0,0,0.1-4.5,1-7.1c0,0,2.1-7.5,3.8-9.4
		c0,0,1-1.3,1.4-1.7c0,0,2.2-0.9-0.1,1.9c0,0-1.8,2.6-2.2,4.4l-1,2.8c0,0-0.8,2-0.8,3.9c0,0-0.4,3.8,0.7,5.1c0,0,0.6,0.3,0.1-0.9
		l0,0l0-0.4c0,0,1.6,0.5,2.5,2.6c0,0,0.2,1.8,1.9,2.3c0,0,0.6,0.2,1,0.6l0,0c0,0-0.3,1.3-1.7,0.8c0,0-1.1-0.5-1.5-1.7
		c0,0-0.3,1,0.3,1.8c0,0,0.1,1,2.8,1.8c0,0,0.3,0.8-1,0.8c0,0-2.6-0.2-3.7-2.5c0,0-0.3,0.2,0.1,1.1l0,0c0.1,0.3,0.3,1.2,1.4,2l0,0
		c0,0-1.6,0.5-3.9-1.9c0,0-0.1,0.6,0.3,1.2c0,0.1,0.1,0.3,0.2,0.5l0,0C22.2,79.7,20.5,79.2,19.7,77.2z"/>
	<g>
		<path class="st0" d="M39,17.1c-0.2,0-0.5-0.1-0.7-0.1c-0.8,0-1.5,0.3-2,0.6c0-0.4,0-0.8-0.2-1c-0.2-0.2-0.4-0.4-0.7-0.4
			c-0.6,0-2.3,0-2.6,1.4c0,0.1,0,0.2,0,0.3c0-0.1,0-0.2-0.1-0.4c0-0.1,0-0.1,0-0.2c-0.1-0.5-0.8-0.8-1.4-0.8c-0.5,0-0.9,0.2-1.1,0.5
			c-0.2,0.4-0.2,0.9,0.2,1.5c1.1,2,5.6,3.3,5.8,3.3l0.3,0.1l0.1-0.3c0.2-0.3,0.6-0.9,0.8-0.9c0.5-0.1,2.9-1.6,2.8-2.8
			C40.3,17.8,40,17.3,39,17.1z"/>
		<path class="st2" d="M36.3,21.7c0,0,0.5-1,1.1-1.1c0.6-0.1,4.2-2.6,1.6-3.1c-2.6-0.4-3.5,1.9-3.5,1.9s1.2-2.7,0-2.7
			s-2.1,0.3-2.3,1.1c-0.2,0.9,0.5,1.2,0,1.7c-0.5,0.4-0.8-1.3-0.9-1.9s-2.7-0.9-1.6,1C31.8,20.5,36.3,21.7,36.3,21.7z"/>
		<path class="st3" d="M31.9,17.7c0.1,0.6,0.3,1.6,0.8,1.7c0.1,0,0.2,0.1,0.2,0.1c-0.3-0.3-0.5-1.5-0.6-1.9
			c-0.1-0.4-1.1-0.6-1.6-0.3C31.2,17.2,31.8,17.4,31.9,17.7z"/>
		<path class="st3" d="M35.7,18.5c0,0.2-0.2,1-0.2,1s0.3-0.9,0.4-1c0.2-0.8,0.3-1.7-0.4-1.7c-0.6,0-1.1,0.1-1.4,0.2
			c0.3-0.1,0.6-0.1,1-0.1C36.1,16.8,35.7,18.6,35.7,18.5z"/>
		<path class="st3" d="M39,17.5c-0.7-0.1-1.3,0-1.7,0.1c0.4-0.1,0.8-0.1,1.3,0c2.6,0.4-1,2.9-1.6,3.1c-0.4,0.1-0.8,0.6-1,0.9
			c0.2,0.1,0.3,0.1,0.3,0.1s0.5-1,1.1-1.1C38,20.4,41.6,18,39,17.5z"/>
	</g>
	<path class="st3" d="M35.5,38.2C35.5,38.2,35.5,38.2,35.5,38.2C35.5,38.2,35.5,38.2,35.5,38.2z"/>
</g>
</svg>
