<?xml version="1.0" encoding="utf-8"?>
<!-- Generator: Adobe Illustrator 19.2.0, SVG Export Plug-In . SVG Version: 6.00 Build 0)  -->
<svg version="1.1" id="Capa_1" xmlns="http://www.w3.org/2000/svg" xmlns:xlink="http://www.w3.org/1999/xlink" x="0px" y="0px"
	 viewBox="0 0 70 100" style="enable-background:new 0 0 70 100;" xml:space="preserve">
<style type="text/css">
	.st0{fill:#1A3044;}
	.st1{fill:#FFC40C;}
	.st2{fill:#D02026;}
	.st3{fill:#A21E22;}
	.st4{fill:#FFFFFF;}
	.st5{fill:#231F20;}
	.st6{fill:#D1D3D4;}
</style>
<g>
	<polygon class="st0" points="30.8,93.2 30.8,83.7 27.8,83.7 27.8,93.2 23.1,97.9 35.4,97.9 	"/>
	<g>
		<rect x="28.4" y="84.3" class="st1" width="1.7" height="11.2"/>
		<polygon class="st1" points="33.9,97.3 29.3,92.6 24.6,97.3 		"/>
	</g>
	<polygon class="st0" points="42.4,93.2 42.4,83.7 39.2,83.7 39.2,93.2 34.8,97.9 46.9,97.9 	"/>
	<g>
		<rect x="39.9" y="84.3" class="st1" width="1.7" height="11.2"/>
		<polygon class="st1" points="45.4,97.3 40.7,92.6 36.3,97.3 		"/>
	</g>
	<path class="st0" d="M35,35.4c-10.8,0-19.7,11.7-19.7,25.9S24.2,87.1,35,87.1s19.7-11.7,19.7-25.9S45.8,35.4,35,35.4z"/>
	<ellipse class="st2" cx="35" cy="61.2" rx="19.1" ry="25.2"/>
	<path class="st3" d="M35,36c-0.6,0-1.1,0-1.5,0c0.2,0,0.4,0,0.6,0C44.8,37.1,52,49.4,50.5,63.1c-1.3,12.3-8.9,21.8-18,23.1
		c0.8,0.2,1.7,0.2,2.5,0.2c10.6,0,19.1-11.2,19.1-25.2S45.6,36,35,36z"/>
	<g>
		<ellipse class="st4" cx="26.9" cy="54.7" rx="7.4" ry="8.1"/>
		<ellipse class="st5" cx="28.6" cy="51" rx="1.7" ry="1.7"/>
		<ellipse class="st6" cx="29.1" cy="50.4" rx="0.4" ry="0.4"/>
	</g>
	<ellipse class="st4" cx="43.5" cy="54.7" rx="7.4" ry="8.1"/>
	<ellipse class="st5" cx="45.2" cy="51" rx="1.7" ry="1.7"/>
	<ellipse class="st6" cx="45.6" cy="50.4" rx="0.4" ry="0.4"/>
	<polygon class="st1" points="38.4,62.7 34.8,68.6 31.6,62.7 	"/>
</g>
</svg>
